<svg width="181" height="36" viewBox="0 0 181 36" fill="none" xmlns="http://www.w3.org/2000/svg">
<path d="M36.8552 17.609C36.8552 15.6398 37.2864 13.8809 38.1488 12.3323C39.0299 10.7646 40.2204 9.55055 41.7202 8.69022C43.2387 7.81077 44.9353 7.37104 46.8101 7.37104C49.0035 7.37104 50.9252 7.9446 52.5749 9.09171C54.2247 10.2388 55.3777 11.8257 56.0338 13.8522H51.5063C51.0564 12.8963 50.419 12.1794 49.5941 11.7014C48.788 11.2234 47.8506 10.9844 46.782 10.9844C45.6384 10.9844 44.6166 11.2617 43.7168 11.8161C42.8356 12.3514 42.142 13.1162 41.6358 14.1103C41.1484 15.1045 40.9046 16.2707 40.9046 17.609C40.9046 18.9282 41.1484 20.0944 41.6358 21.1077C42.142 22.1019 42.8356 22.8762 43.7168 23.4306C44.6166 23.9659 45.6384 24.2336 46.782 24.2336C47.8506 24.2336 48.788 23.9946 49.5941 23.5166C50.419 23.0196 51.0564 22.2931 51.5063 21.3371H56.0338C55.3777 23.3828 54.2247 24.9792 52.5749 26.1263C50.9439 27.2543 49.0223 27.8183 46.8101 27.8183C44.9353 27.8183 43.2387 27.3882 41.7202 26.5278C40.2204 25.6484 39.0299 24.4343 38.1488 22.8857C37.2864 21.3371 36.8552 19.5782 36.8552 17.609Z" fill="white"/>
<path d="M57.5405 19.6451C57.5405 18.0392 57.8499 16.6149 58.4685 15.3721C59.1059 14.1294 59.9589 13.1735 61.0276 12.5044C62.1149 11.8352 63.3241 11.5006 64.6552 11.5006C65.8175 11.5006 66.8299 11.7396 67.6923 12.2176C68.5734 12.6956 69.2764 13.2978 69.8014 14.0243V11.7587H73.7664V27.6463H69.8014V25.3233C69.2952 26.069 68.5922 26.6903 67.6923 27.1874C66.8111 27.6654 65.7894 27.9044 64.6271 27.9044C63.3147 27.9044 62.1149 27.5602 61.0276 26.872C59.9589 26.1837 59.1059 25.2182 58.4685 23.9755C57.8499 22.7137 57.5405 21.2702 57.5405 19.6451ZM69.8014 19.7025C69.8014 18.7275 69.6139 17.8958 69.2389 17.2075C68.864 16.5001 68.3578 15.9648 67.7204 15.6016C67.083 15.2192 66.3987 15.028 65.6675 15.028C64.9364 15.028 64.2615 15.2096 63.6428 15.5729C63.0242 15.9361 62.518 16.4715 62.1243 17.1789C61.7493 17.8671 61.5619 18.6892 61.5619 19.6451C61.5619 20.6011 61.7493 21.4423 62.1243 22.1688C62.518 22.8762 63.0242 23.4211 63.6428 23.8034C64.2802 24.1858 64.9551 24.377 65.6675 24.377C66.3987 24.377 67.083 24.1954 67.7204 23.8321C68.3578 23.4497 68.864 22.9144 69.2389 22.2261C69.6139 21.5188 69.8014 20.6775 69.8014 19.7025Z" fill="white"/>
<path d="M80.7049 14.225C81.2111 13.3838 81.8673 12.7242 82.6734 12.2463C83.4983 11.7683 84.4357 11.5293 85.4855 11.5293V15.745H84.445C83.2077 15.745 82.2703 16.0413 81.6329 16.634C81.0142 17.2266 80.7049 18.259 80.7049 19.7312V27.6463H76.7679V11.7587H80.7049V14.225Z" fill="white"/>
<path d="M91.2306 14.053C91.7368 13.3265 92.4304 12.7242 93.3116 12.2463C94.2114 11.7492 95.2332 11.5006 96.3768 11.5006C97.7078 11.5006 98.9077 11.8352 99.9763 12.5044C101.064 13.1735 101.917 14.1294 102.535 15.3721C103.173 16.5957 103.491 18.0201 103.491 19.6451C103.491 21.2702 103.173 22.7137 102.535 23.9755C101.917 25.2182 101.064 26.1837 99.9763 26.872C98.9077 27.5602 97.7078 27.9044 96.3768 27.9044C95.2332 27.9044 94.2208 27.6654 93.3397 27.1874C92.4773 26.7094 91.7743 26.1072 91.2306 25.3807V35.2172H87.2936V11.7587H91.2306V14.053ZM99.4701 19.6451C99.4701 18.6892 99.2732 17.8671 98.8795 17.1789C98.5046 16.4715 97.9984 15.9361 97.361 15.5729C96.7423 15.2096 96.0674 15.028 95.3363 15.028C94.6239 15.028 93.949 15.2192 93.3116 15.6016C92.6929 15.9648 92.1867 16.5001 91.793 17.2075C91.4181 17.9149 91.2306 18.7466 91.2306 19.7025C91.2306 20.6584 91.4181 21.4901 91.793 22.1975C92.1867 22.9049 92.6929 23.4497 93.3116 23.8321C93.949 24.1954 94.6239 24.377 95.3363 24.377C96.0674 24.377 96.7423 24.1858 97.361 23.8034C97.9984 23.4211 98.5046 22.8762 98.8795 22.1688C99.2732 21.4614 99.4701 20.6202 99.4701 19.6451Z" fill="white"/>
<path d="M119.991 19.3584C119.991 19.9319 119.954 20.4481 119.879 20.907H108.49C108.583 22.0541 108.977 22.9527 109.671 23.6027C110.364 24.2527 111.217 24.5777 112.23 24.5777C113.692 24.5777 114.732 23.9373 115.351 22.6563H119.597C119.147 24.1858 118.285 25.4476 117.01 26.4418C115.735 27.4168 114.17 27.9044 112.314 27.9044C110.814 27.9044 109.464 27.5698 108.265 26.9006C107.083 26.2124 106.155 25.2469 105.481 24.0042C104.824 22.7615 104.496 21.3276 104.496 19.7025C104.496 18.0583 104.824 16.6149 105.481 15.3721C106.137 14.1294 107.055 13.1735 108.236 12.5044C109.418 11.8352 110.777 11.5006 112.314 11.5006C113.795 11.5006 115.117 11.8257 116.279 12.4757C117.46 13.1257 118.369 14.053 119.007 15.2574C119.663 16.4428 119.991 17.8098 119.991 19.3584ZM115.914 18.2113C115.895 17.1789 115.529 16.3568 114.817 15.745C114.104 15.114 113.233 14.7986 112.202 14.7986C111.227 14.7986 110.402 15.1045 109.727 15.7163C109.071 16.309 108.668 17.1406 108.518 18.2113H115.914Z" fill="white"/>
<path d="M130.654 11.5293C132.51 11.5293 134.01 12.1316 135.154 13.336C136.297 14.5214 136.869 16.1847 136.869 18.326V27.6463H132.932V18.8708C132.932 17.609 132.623 16.6435 132.004 15.9744C131.385 15.2861 130.542 14.942 129.473 14.942C128.386 14.942 127.523 15.2861 126.886 15.9744C126.267 16.6435 125.958 17.609 125.958 18.8708V27.6463H122.021V11.7587H125.958V13.7375C126.483 13.0492 127.149 12.5139 127.955 12.1316C128.78 11.7301 129.679 11.5293 130.654 11.5293Z" fill="white"/>
<path d="M144.353 15.0567V22.7423C144.353 23.2777 144.475 23.6696 144.719 23.9181C144.981 24.1476 145.412 24.2623 146.012 24.2623H147.84V27.6463H145.365C142.047 27.6463 140.388 26.0021 140.388 22.7137V15.0567H138.532V11.7587H140.388V7.82988H144.353V11.7587H147.84V15.0567H144.353Z" fill="white"/>
<path d="M164.311 19.3584C164.311 19.9319 164.273 20.4481 164.198 20.907H152.809C152.903 22.0541 153.296 22.9527 153.99 23.6027C154.684 24.2527 155.537 24.5777 156.549 24.5777C158.011 24.5777 159.052 23.9373 159.671 22.6563H163.917C163.467 24.1858 162.604 25.4476 161.33 26.4418C160.055 27.4168 158.489 27.9044 156.633 27.9044C155.134 27.9044 153.784 27.5698 152.584 26.9006C151.403 26.2124 150.475 25.2469 149.8 24.0042C149.144 22.7615 148.816 21.3276 148.816 19.7025C148.816 18.0583 149.144 16.6149 149.8 15.3721C150.456 14.1294 151.375 13.1735 152.556 12.5044C153.737 11.8352 155.096 11.5006 156.633 11.5006C158.114 11.5006 159.436 11.8257 160.599 12.4757C161.78 13.1257 162.689 14.053 163.326 15.2574C163.982 16.4428 164.311 17.8098 164.311 19.3584ZM160.233 18.2113C160.214 17.1789 159.849 16.3568 159.136 15.745C158.424 15.114 157.552 14.7986 156.521 14.7986C155.546 14.7986 154.721 15.1045 154.046 15.7163C153.39 16.309 152.987 17.1406 152.837 18.2113H160.233Z" fill="white"/>
<path d="M170.277 14.225C170.784 13.3838 171.44 12.7242 172.246 12.2463C173.071 11.7683 174.008 11.5293 175.058 11.5293V15.745H174.018C172.78 15.745 171.843 16.0413 171.205 16.634C170.587 17.2266 170.277 18.259 170.277 19.7312V27.6463H166.341V11.7587H170.277V14.225Z" fill="white"/>
<path d="M178.61 27.847C177.897 27.847 177.307 27.6271 176.838 27.1874C176.388 26.7286 176.163 26.1646 176.163 25.4954C176.163 24.8263 176.388 24.2718 176.838 23.8321C177.307 23.3733 177.897 23.1438 178.61 23.1438C179.303 23.1438 179.875 23.3733 180.325 23.8321C180.775 24.2718 181 24.8263 181 25.4954C181 26.1646 180.775 26.7286 180.325 27.1874C179.875 27.6271 179.303 27.847 178.61 27.847Z" fill="white"/>
<g clip-path="url(#clip0_94_385)">
<path d="M29.3472 16.1792H0.955927C0.42802 16.1792 0 16.6073 0 17.1352V26.0253C0 26.5532 0.42802 26.9812 0.955927 26.9812H29.3472C29.8751 26.9812 30.3032 26.5532 30.3032 26.0253V17.1352C30.3032 16.6073 29.8751 16.1792 29.3472 16.1792Z" fill="#EBBC91"/>
<path d="M13.481 14.8409H16.822C16.5431 14.1936 15.8999 13.7387 15.1515 13.7387C14.4031 13.7387 13.76 14.1936 13.481 14.8409Z" fill="#EBBC91"/>
<path d="M3.94176 12.974C4.48262 13.0156 5.17725 13.1305 5.85432 13.418C5.3556 13.8615 4.85003 14.3223 4.38437 14.8409H11.4903C11.8256 13.1256 13.3394 11.8268 15.1515 11.8268C16.9635 11.8268 18.4774 13.1256 18.8127 14.8409H26.4469C26.7155 14.4211 26.9509 14.0015 27.1519 13.5773C27.3161 13.2311 27.2575 12.8203 27.0032 12.5336C26.7488 12.247 26.348 12.14 25.9845 12.2616L25.7391 12.3444C25.1218 12.5532 24.5255 12.755 23.9535 12.8361C24.3963 11.3265 24.7275 9.53815 24.4622 7.67976C24.4031 7.26582 24.0819 6.9383 23.6692 6.87127C23.2562 6.80484 22.848 7.01329 22.6611 7.38724C22.386 7.93718 21.9163 8.37275 21.4042 8.72415C21.0288 7.17695 20.4261 5.4513 19.3045 3.9841C19.0639 3.66923 18.654 3.53537 18.2735 3.64811C17.8935 3.76065 17.6223 4.09623 17.592 4.4915C17.5495 5.0443 17.4303 5.75791 17.1285 6.44917C15.9898 5.31519 14.644 4.1799 13.0276 3.41395C12.6813 3.24989 12.2704 3.30845 11.9838 3.56271C11.6971 3.81707 11.5901 4.21806 11.7118 4.58139L11.7946 4.82677C12.0034 5.44406 12.2052 6.04043 12.2864 6.61241C10.7769 6.1695 8.9883 5.83861 7.13002 6.10369C6.71608 6.16276 6.38856 6.48406 6.32152 6.89667C6.25449 7.30949 6.46355 7.71792 6.83749 7.90484C7.38744 8.17991 7.82301 8.64956 8.1744 9.16166C6.62721 9.53713 4.90156 10.1398 3.43436 11.2613C3.11939 11.5021 2.98583 11.9122 3.09837 12.2924C3.21101 12.6725 3.54649 12.9437 3.94176 12.974Z" fill="#EBBC91"/>
</g>
<defs>
<clipPath id="clip0_94_385">
<rect width="30.3032" height="27.0271" fill="white"/>
</clipPath>
</defs>
</svg>
