<svg width="121" height="36" viewBox="0 0 121 36" fill="none" xmlns="http://www.w3.org/2000/svg">
<path d="M0 4.79945C0 2.14855 2.06178 0 4.60596 0H29.9395C32.4837 0 34.5455 2.14855 34.5455 4.79945V31.1989C34.5455 33.8498 32.4837 35.9984 29.9395 35.9984H4.60596C2.06178 36 0 33.8515 0 31.2005V4.79945Z" fill="#3080E3"/>
<path d="M19.3164 19.0424C19.3164 16.8808 20.9993 15.1266 23.0738 15.1266C25.1483 15.1266 26.8311 16.8791 26.8311 19.0424V20.0111C26.8311 22.1728 25.1483 23.9269 23.0738 23.9269C20.9993 23.9269 19.3164 22.1744 19.3164 20.0111V19.0424Z" fill="white"/>
<path fill-rule="evenodd" clip-rule="evenodd" d="M16.4054 19.656V7.16893H17.59V6.81384H7.71094V7.16893H8.89069V20.8293C8.84452 24.9775 11.4428 32.1873 22.2055 27.8411C18.6694 27.8411 16.4054 26.406 16.4054 19.6577V19.656Z" fill="white"/>
<path d="M52.4149 27.0736C51.2224 27.0736 50.1414 26.892 49.1734 26.5271C48.2419 26.1858 47.3923 25.6435 46.6817 24.9365C46.0051 24.2411 45.4813 23.4114 45.1103 22.4509C44.7394 21.4723 44.5547 20.3874 44.5547 19.1945V8.92798H49.3915V18.9703C49.3915 19.7002 49.5125 20.3285 49.7545 20.8603C50.0124 21.3742 50.3675 21.78 50.818 22.0778C51.2861 22.3593 51.8258 22.5 52.4388 22.5C53.0518 22.5 53.5835 22.3593 54.0341 22.0778C54.4957 21.7862 54.8651 21.3633 55.0976 20.8603C55.3555 20.3302 55.4845 19.7002 55.4845 18.9703V8.92798H60.3213V19.1945C60.3213 20.3874 60.1366 21.474 59.7657 22.4509C59.4112 23.3866 58.8668 24.234 58.1688 24.9365C57.4582 25.6435 56.6086 26.1858 55.6771 26.5271C54.7091 26.892 53.6217 27.0736 52.4117 27.0736H52.4149ZM62.7413 26.5762V8.92798H67.5781V26.5762H62.7413ZM70.108 26.5762V8.92798H74.9448V15.2918H81.0394V8.92798H85.8762V26.5762H81.0394V19.6658H74.9448V26.5762H70.108ZM96.1469 27.0736C94.9544 27.0736 93.8733 26.892 92.9069 26.5271C91.9754 26.1858 91.1258 25.6435 90.4153 24.9365C89.7301 24.2284 89.1951 23.3821 88.8439 22.4509C88.4729 21.4723 88.2882 20.3874 88.2882 19.1945V8.92798H93.125V18.9703C93.125 19.7002 93.246 20.3285 93.488 20.8603C93.746 21.3742 94.101 21.78 94.5516 22.0778C95.0196 22.3593 95.5594 22.5 96.1723 22.5C96.7853 22.5 97.3171 22.3593 97.7692 22.0778C98.2308 21.7862 98.6002 21.3633 98.8327 20.8603C99.0907 20.3302 99.2196 19.7002 99.2196 18.9703V8.92798H104.056V19.1945C104.056 20.3874 103.872 21.474 103.501 22.4509C103.13 23.4114 102.598 24.2411 101.904 24.9365C101.193 25.6435 100.344 26.1858 99.4123 26.5271C98.4443 26.892 97.3569 27.0736 96.1469 27.0736ZM110.512 26.5762V13.302H105.989V8.92798H119.871V13.3036H115.349V26.5778H110.512V26.5762Z" fill="#0D0D0D"/>
</svg>
