<svg width="90" height="64" viewBox="0 0 90 64" fill="none" xmlns="http://www.w3.org/2000/svg">
<path d="M5.58557 47.9738C6.70148 47.9738 7.54447 48.2409 8.11455 48.7751C8.69676 49.3093 8.98786 50.0869 8.98786 51.1078C8.98786 51.642 8.85444 52.1287 8.58759 52.568C8.33288 52.9953 7.9508 53.3337 7.44137 53.583C6.94406 53.8323 6.3194 53.9629 5.56738 53.9747L5.60377 53.3159C6.00404 53.3159 6.43463 53.3693 6.89555 53.4761C7.36859 53.583 7.81131 53.767 8.22371 54.0281C8.63611 54.2893 8.97573 54.6455 9.24258 55.0966C9.50942 55.5358 9.64285 56.0878 9.64285 56.7526C9.64285 57.4767 9.52155 58.0822 9.27897 58.5689C9.03638 59.0437 8.71495 59.4177 8.31468 59.6907C7.91441 59.9638 7.47169 60.1596 6.98652 60.2784C6.51347 60.3852 6.04649 60.4386 5.58557 60.4386H0.927897C0.67318 60.4386 0.454851 60.3555 0.272911 60.1893C0.0909703 60.0113 0 59.7916 0 59.5305V48.882C0 48.6208 0.0909703 48.4071 0.272911 48.2409C0.454851 48.0628 0.67318 47.9738 0.927897 47.9738H5.58557ZM5.33086 49.7189H1.74663L1.96496 49.434V53.2625L1.76482 53.0666H5.36725C5.8039 53.0547 6.18598 52.9123 6.51347 52.6392C6.85309 52.3543 7.0229 51.9388 7.0229 51.3927C7.0229 50.8348 6.87129 50.4193 6.56805 50.1462C6.26482 49.8613 5.85242 49.7189 5.33086 49.7189ZM5.45822 54.8116H1.8376L1.96496 54.687V58.8894L1.81941 58.7292H5.56738C6.19811 58.7292 6.70754 58.5689 7.09568 58.2484C7.48382 57.916 7.67789 57.4174 7.67789 56.7526C7.67789 56.1947 7.56266 55.7792 7.3322 55.5061C7.10175 55.2331 6.8167 55.0491 6.47708 54.9541C6.13746 54.8591 5.79784 54.8116 5.45822 54.8116Z" fill="#1A1A1A"/>
<path d="M19 50.9298C19.2668 50.9298 19.4852 51.0188 19.655 51.1969C19.8248 51.3631 19.9097 51.5767 19.9097 51.8379V59.5305C19.9097 59.7916 19.8248 60.0113 19.655 60.1893C19.4852 60.3555 19.2668 60.4386 19 60.4386C18.7453 60.4386 18.5269 60.3555 18.345 60.1893C18.1752 60.0113 18.0903 59.7916 18.0903 59.5305V58.2484L18.4724 58.3018C18.4724 58.5155 18.3814 58.7529 18.1995 59.0141C18.0296 59.2752 17.7931 59.5305 17.4899 59.7798C17.1866 60.0172 16.8288 60.219 16.4164 60.3852C16.004 60.5395 15.5613 60.6167 15.0883 60.6167C14.2513 60.6167 13.4993 60.4089 12.8322 59.9935C12.1651 59.5661 11.6375 58.9844 11.2493 58.2484C10.8612 57.5124 10.6671 56.6754 10.6671 55.7376C10.6671 54.776 10.8612 53.9332 11.2493 53.209C11.6375 52.473 12.159 51.8973 12.814 51.4818C13.4811 51.0663 14.221 50.8585 15.0337 50.8585C15.5553 50.8585 16.0344 50.9416 16.471 51.1078C16.9198 51.274 17.3079 51.4877 17.6354 51.7489C17.9629 52.01 18.2116 52.289 18.3814 52.5858C18.5633 52.8707 18.6543 53.1437 18.6543 53.4049L18.0903 53.4583V51.8379C18.0903 51.5886 18.1752 51.3749 18.345 51.1969C18.5269 51.0188 18.7453 50.9298 19 50.9298ZM15.2884 58.9785C15.8585 58.9785 16.3619 58.836 16.7985 58.5511C17.2352 58.2662 17.5748 57.8804 17.8174 57.3936C18.06 56.8951 18.1813 56.343 18.1813 55.7376C18.1813 55.1203 18.06 54.5683 17.8174 54.0816C17.5748 53.5948 17.2352 53.209 16.7985 52.9241C16.3619 52.6392 15.8585 52.4968 15.2884 52.4968C14.7305 52.4968 14.2331 52.6392 13.7965 52.9241C13.372 53.209 13.0323 53.5948 12.7776 54.0816C12.535 54.5683 12.4137 55.1203 12.4137 55.7376C12.4137 56.343 12.535 56.8951 12.7776 57.3936C13.0323 57.8804 13.372 58.2662 13.7965 58.5511C14.2331 58.836 14.7305 58.9785 15.2884 58.9785Z" fill="#1A1A1A"/>
<path d="M26.7342 50.8585C27.5832 50.8585 28.3352 51.0663 28.9902 51.4818C29.6573 51.8973 30.185 52.473 30.5731 53.209C30.9613 53.9332 31.1553 54.7701 31.1553 55.7198C31.1553 56.6695 30.9613 57.5124 30.5731 58.2484C30.185 58.9844 29.6634 59.5661 29.0084 59.9935C28.3534 60.4089 27.6135 60.6167 26.7887 60.6167C26.3278 60.6167 25.8912 60.5455 25.4788 60.403C25.0664 60.2487 24.7025 60.0587 24.3871 59.8332C24.0718 59.5958 23.811 59.3465 23.6048 59.0853C23.4107 58.8241 23.2894 58.5808 23.2409 58.3552L23.7321 58.1237V59.6729C23.7321 59.9222 23.6412 60.1359 23.4592 60.314C23.2894 60.4802 23.0772 60.5633 22.8224 60.5633C22.5556 60.5633 22.3373 60.4802 22.1675 60.314C21.9976 60.1478 21.9127 59.9341 21.9127 59.6729V48.1697C21.9127 47.9085 21.9976 47.6948 22.1675 47.5286C22.3373 47.3506 22.5556 47.2615 22.8224 47.2615C23.0772 47.2615 23.2894 47.3506 23.4592 47.5286C23.6412 47.6948 23.7321 47.9085 23.7321 48.1697V53.1734L23.441 53.0132C23.4774 52.7876 23.5927 52.5561 23.7867 52.3187C23.9808 52.0694 24.2234 51.832 24.5145 51.6064C24.8177 51.3809 25.1573 51.2028 25.5334 51.0722C25.9215 50.9298 26.3218 50.8585 26.7342 50.8585ZM26.534 52.4968C25.9518 52.4968 25.4424 52.6392 25.0057 52.9241C24.5812 53.209 24.2476 53.5948 24.0051 54.0816C23.7625 54.5564 23.6412 55.1025 23.6412 55.7198C23.6412 56.3371 23.7625 56.8951 24.0051 57.3936C24.2476 57.8804 24.5812 58.2662 25.0057 58.5511C25.4424 58.836 25.9518 58.9785 26.534 58.9785C27.1041 58.9785 27.6014 58.836 28.0259 58.5511C28.4505 58.2662 28.784 57.8744 29.0266 57.3758C29.2813 56.8772 29.4087 56.3252 29.4087 55.7198C29.4087 55.1025 29.2813 54.5564 29.0266 54.0816C28.784 53.5948 28.4505 53.209 28.0259 52.9241C27.6014 52.6392 27.1041 52.4968 26.534 52.4968Z" fill="#1A1A1A"/>
<path d="M39.781 51.001C40.0479 51.001 40.2662 51.09 40.436 51.2681C40.6058 51.4343 40.6907 51.648 40.6907 51.9091V59.5661C40.6907 60.6108 40.4845 61.4595 40.0721 62.1125C39.6718 62.7654 39.126 63.2402 38.4346 63.537C37.7554 63.8457 36.9852 64 36.124 64C35.6873 64 35.2507 63.9584 34.814 63.8753C34.3774 63.8041 34.0196 63.6973 33.7406 63.5548C33.4495 63.4242 33.2433 63.264 33.122 63.074C33.0007 62.8841 32.9825 62.6764 33.0674 62.4508C33.1523 62.1659 33.2979 61.97 33.5041 61.8632C33.7103 61.7682 33.9225 61.7623 34.1409 61.8454C34.3471 61.9285 34.62 62.0353 34.9596 62.1659C35.2992 62.2965 35.6873 62.3618 36.124 62.3618C36.7183 62.3618 37.2217 62.2668 37.6341 62.0769C38.0465 61.8869 38.3558 61.5901 38.562 61.1865C38.7803 60.7829 38.8895 60.2606 38.8895 59.6195V58.3908L39.1806 58.8182C38.9865 59.2099 38.7318 59.5364 38.4165 59.7976C38.1011 60.0587 37.7251 60.2606 37.2884 60.403C36.8639 60.5455 36.3909 60.6167 35.8693 60.6167C35.2022 60.6167 34.626 60.4742 34.1409 60.1893C33.6678 59.8925 33.3039 59.4889 33.0492 58.9785C32.7945 58.4561 32.6671 57.8626 32.6671 57.1978V51.9091C32.6671 51.648 32.752 51.4343 32.9219 51.2681C33.0917 51.09 33.31 51.001 33.5768 51.001C33.8316 51.001 34.0438 51.09 34.2136 51.2681C34.3956 51.4343 34.4865 51.648 34.4865 51.9091V56.717C34.4865 57.5005 34.6624 58.0762 35.0142 58.4443C35.3659 58.8004 35.8875 58.9785 36.5789 58.9785C37.0398 58.9785 37.44 58.8835 37.7797 58.6935C38.1193 58.5036 38.3861 58.2424 38.5802 57.91C38.7743 57.5658 38.8713 57.1681 38.8713 56.717V51.9091C38.8713 51.648 38.9562 51.4343 39.126 51.2681C39.308 51.09 39.5263 51.001 39.781 51.001Z" fill="#1A1A1A"/>
<path d="M41.9514 58.9785C41.8422 58.8123 41.7937 58.6223 41.8058 58.4086C41.8179 58.1831 41.9453 57.9931 42.1879 57.8388C42.3577 57.732 42.5336 57.6904 42.7155 57.7142C42.9096 57.726 43.0915 57.8151 43.2613 57.9813C43.601 58.3493 43.977 58.6401 44.3894 58.8538C44.8139 59.0675 45.3233 59.1743 45.9177 59.1743C46.1602 59.1625 46.4089 59.1268 46.6636 59.0675C46.9183 58.9963 47.1367 58.8776 47.3186 58.7114C47.5005 58.5333 47.5915 58.2781 47.5915 57.9457C47.5915 57.6489 47.4945 57.4115 47.3004 57.2334C47.1063 57.0553 46.8516 56.9129 46.5363 56.806C46.2209 56.6873 45.8813 56.5805 45.5174 56.4855C45.1293 56.3787 44.735 56.2599 44.3348 56.1294C43.9466 55.9988 43.5949 55.8326 43.2795 55.6308C42.9642 55.4171 42.7034 55.144 42.4972 54.8116C42.3031 54.4793 42.2061 54.0697 42.2061 53.583C42.2061 53.025 42.3638 52.5442 42.6791 52.1406C43.0066 51.737 43.4251 51.4224 43.9345 51.1969C44.4561 50.9713 45.0201 50.8585 45.6266 50.8585C45.9783 50.8585 46.3483 50.906 46.7364 51.001C47.1245 51.0841 47.5005 51.2206 47.8644 51.4105C48.2283 51.6005 48.5437 51.8498 48.8105 52.1584C48.9318 52.3128 48.9985 52.4968 49.0107 52.7104C49.0349 52.9241 48.9379 53.1141 48.7195 53.2803C48.574 53.399 48.3981 53.4524 48.1919 53.4405C47.9857 53.4286 47.8159 53.3634 47.6825 53.2446C47.452 52.9597 47.1549 52.7401 46.791 52.5858C46.4271 52.4196 46.0147 52.3365 45.5538 52.3365C45.3233 52.3365 45.0807 52.3721 44.826 52.4433C44.5834 52.5027 44.3772 52.6155 44.2074 52.7817C44.0376 52.9479 43.9527 53.1912 43.9527 53.5117C43.9527 53.8085 44.0497 54.046 44.2438 54.224C44.45 54.4021 44.7169 54.5505 45.0443 54.6692C45.3718 54.7879 45.7297 54.8947 46.1178 54.9897C46.4938 55.0847 46.8638 55.1975 47.2276 55.328C47.6036 55.4586 47.9372 55.6308 48.2283 55.8444C48.5315 56.0463 48.7741 56.3134 48.9561 56.6458C49.1501 56.9663 49.2472 57.3758 49.2472 57.8744C49.2472 58.4561 49.0713 58.9547 48.7195 59.3702C48.3799 59.7738 47.9433 60.0825 47.4096 60.2962C46.888 60.5098 46.3361 60.6167 45.7539 60.6167C45.0625 60.6167 44.3712 60.498 43.6798 60.2606C43.0005 60.0113 42.4244 59.5839 41.9514 58.9785Z" fill="#1A1A1A"/>
<path d="M52.3682 59.5305C52.3682 59.7916 52.2833 60.0113 52.1134 60.1893C51.9436 60.3555 51.7253 60.4386 51.4585 60.4386C51.2037 60.4386 50.9854 60.3555 50.8035 60.1893C50.6337 60.0113 50.5488 59.7916 50.5488 59.5305V51.9091C50.5488 51.648 50.6337 51.4343 50.8035 51.2681C50.9854 51.09 51.2037 51.001 51.4585 51.001C51.7253 51.001 51.9436 51.09 52.1134 51.2681C52.2833 51.4343 52.3682 51.648 52.3682 51.9091V59.5305ZM51.4403 49.8257C51.0885 49.8257 50.8338 49.7664 50.6761 49.6477C50.5184 49.5171 50.4396 49.3034 50.4396 49.0066V48.7217C50.4396 48.4249 50.5245 48.2172 50.6943 48.0985C50.8641 47.9797 51.1188 47.9204 51.4585 47.9204C51.8223 47.9204 52.0831 47.9857 52.2408 48.1163C52.3985 48.235 52.4773 48.4368 52.4773 48.7217V49.0066C52.4773 49.3153 52.3924 49.5289 52.2226 49.6477C52.0649 49.7664 51.8041 49.8257 51.4403 49.8257Z" fill="#1A1A1A"/>
<path d="M54.1424 51.179H58.418C58.6606 51.179 58.8607 51.2621 59.0184 51.4283C59.1882 51.5827 59.2731 51.7785 59.2731 52.016C59.2731 52.2415 59.1882 52.4315 59.0184 52.5858C58.8607 52.7401 58.6606 52.8173 58.418 52.8173H54.1424C53.8998 52.8173 53.6936 52.7401 53.5238 52.5858C53.3661 52.4196 53.2873 52.2237 53.2873 51.9982C53.2873 51.7607 53.3661 51.5649 53.5238 51.4105C53.6936 51.2562 53.8998 51.179 54.1424 51.179ZM56.0527 48.8642C56.3196 48.8642 56.5379 48.9532 56.7077 49.1313C56.8775 49.2975 56.9624 49.5111 56.9624 49.7723V58.0347C56.9624 58.2484 56.9988 58.4205 57.0716 58.5511C57.1444 58.6817 57.2414 58.7707 57.3627 58.8182C57.4961 58.8657 57.6296 58.8894 57.763 58.8894C57.8964 58.8894 58.0116 58.8657 58.1087 58.8182C58.2178 58.7707 58.3452 58.747 58.4907 58.747C58.6363 58.747 58.7697 58.8123 58.891 58.9428C59.0123 59.0734 59.073 59.2515 59.073 59.4771C59.073 59.762 58.9153 59.9935 58.5999 60.1715C58.2845 60.3496 57.9449 60.4386 57.581 60.4386C57.3748 60.4386 57.1323 60.4208 56.8533 60.3852C56.5743 60.3496 56.3014 60.2606 56.0346 60.1181C55.7798 59.9756 55.5676 59.7501 55.3978 59.4414C55.2279 59.1209 55.143 58.6757 55.143 58.1059V49.7723C55.143 49.5111 55.2279 49.2975 55.3978 49.1313C55.5797 48.9532 55.798 48.8642 56.0527 48.8642Z" fill="#1A1A1A"/>
<path d="M60.6148 51.179H64.8904C65.1329 51.179 65.3331 51.2621 65.4908 51.4283C65.6606 51.5827 65.7455 51.7785 65.7455 52.016C65.7455 52.2415 65.6606 52.4315 65.4908 52.5858C65.3331 52.7401 65.1329 52.8173 64.8904 52.8173H60.6148C60.3722 52.8173 60.166 52.7401 59.9962 52.5858C59.8385 52.4196 59.7596 52.2237 59.7596 51.9982C59.7596 51.7607 59.8385 51.5649 59.9962 51.4105C60.166 51.2562 60.3722 51.179 60.6148 51.179ZM62.5251 48.8642C62.792 48.8642 63.0103 48.9532 63.1801 49.1313C63.3499 49.2975 63.4348 49.5111 63.4348 49.7723V58.0347C63.4348 58.2484 63.4712 58.4205 63.544 58.5511C63.6168 58.6817 63.7138 58.7707 63.8351 58.8182C63.9685 58.8657 64.102 58.8894 64.2354 58.8894C64.3688 58.8894 64.484 58.8657 64.5811 58.8182C64.6902 58.7707 64.8176 58.747 64.9631 58.747C65.1087 58.747 65.2421 58.8123 65.3634 58.9428C65.4847 59.0734 65.5453 59.2515 65.5453 59.4771C65.5453 59.762 65.3877 59.9935 65.0723 60.1715C64.7569 60.3496 64.4173 60.4386 64.0534 60.4386C63.8472 60.4386 63.6047 60.4208 63.3257 60.3852C63.0467 60.3496 62.7738 60.2606 62.5069 60.1181C62.2522 59.9756 62.04 59.7501 61.8701 59.4414C61.7003 59.1209 61.6154 58.6757 61.6154 58.1059V49.7723C61.6154 49.5111 61.7003 49.2975 61.8701 49.1313C62.0521 48.9532 62.2704 48.8642 62.5251 48.8642Z" fill="#1A1A1A"/>
<path d="M68.9248 59.5305C68.9248 59.7916 68.8398 60.0113 68.67 60.1893C68.5002 60.3555 68.2819 60.4386 68.015 60.4386C67.7603 60.4386 67.542 60.3555 67.3601 60.1893C67.1902 60.0113 67.1053 59.7916 67.1053 59.5305V51.9091C67.1053 51.648 67.1902 51.4343 67.3601 51.2681C67.542 51.09 67.7603 51.001 68.015 51.001C68.2819 51.001 68.5002 51.09 68.67 51.2681C68.8398 51.4343 68.9248 51.648 68.9248 51.9091V59.5305ZM67.9968 49.8257C67.6451 49.8257 67.3904 49.7664 67.2327 49.6477C67.075 49.5171 66.9962 49.3034 66.9962 49.0066V48.7217C66.9962 48.4249 67.0811 48.2172 67.2509 48.0985C67.4207 47.9797 67.6754 47.9204 68.015 47.9204C68.3789 47.9204 68.6397 47.9857 68.7974 48.1163C68.9551 48.235 69.0339 48.4368 69.0339 48.7217V49.0066C69.0339 49.3153 68.949 49.5289 68.7792 49.6477C68.6215 49.7664 68.3607 49.8257 67.9968 49.8257Z" fill="#1A1A1A"/>
<path d="M75.7569 50.8585C76.6181 50.8585 77.2852 51.0366 77.7582 51.3927C78.2313 51.737 78.5588 52.2059 78.7407 52.7995C78.9348 53.3812 79.0318 54.0341 79.0318 54.7582V59.5305C79.0318 59.7916 78.9409 60.0113 78.7589 60.1893C78.5891 60.3555 78.3768 60.4386 78.1221 60.4386C77.8553 60.4386 77.637 60.3555 77.4671 60.1893C77.2973 60.0113 77.2124 59.7916 77.2124 59.5305V54.776C77.2124 54.3487 77.1518 53.9688 77.0305 53.6364C76.9092 53.2921 76.6969 53.0191 76.3937 52.8173C76.1026 52.6036 75.6902 52.4968 75.1565 52.4968C74.6592 52.4968 74.2225 52.6036 73.8465 52.8173C73.4705 53.0191 73.1733 53.2921 72.955 53.6364C72.7488 53.9688 72.6457 54.3487 72.6457 54.776V59.5305C72.6457 59.7916 72.5547 60.0113 72.3728 60.1893C72.203 60.3555 71.9907 60.4386 71.736 60.4386C71.4692 60.4386 71.2508 60.3555 71.081 60.1893C70.9112 60.0113 70.8263 59.7916 70.8263 59.5305V51.9804C70.8263 51.7192 70.9112 51.5055 71.081 51.3393C71.2508 51.1612 71.4692 51.0722 71.736 51.0722C71.9907 51.0722 72.203 51.1612 72.3728 51.3393C72.5547 51.5055 72.6457 51.7192 72.6457 51.9804V52.9775L72.3182 53.1556C72.4031 52.8944 72.5487 52.6333 72.7549 52.3721C72.9732 52.0991 73.234 51.8498 73.5372 51.6242C73.8405 51.3868 74.1801 51.2028 74.5561 51.0722C74.9321 50.9298 75.3324 50.8585 75.7569 50.8585Z" fill="#1A1A1A"/>
<path d="M84.9966 50.8585C85.5182 50.8585 85.9973 50.9416 86.434 51.1078C86.8706 51.274 87.2466 51.4877 87.562 51.7489C87.8895 51.9982 88.1442 52.2593 88.3261 52.5324C88.5081 52.8054 88.5991 53.0428 88.5991 53.2446L88.1806 53.2625V51.8379C88.1806 51.5886 88.2655 51.3749 88.4353 51.1969C88.6051 51.0188 88.8235 50.9298 89.0903 50.9298C89.3571 50.9298 89.5755 51.0188 89.7453 51.1969C89.9151 51.3631 90 51.5767 90 51.8379V59.6907C90 60.6998 89.7817 61.5189 89.345 62.1481C88.9084 62.7891 88.3261 63.258 87.5984 63.5548C86.8828 63.8516 86.0943 64 85.2332 64C84.9299 64 84.5721 63.9584 84.1597 63.8753C83.7473 63.8041 83.3652 63.7151 83.0135 63.6082C82.6739 63.5014 82.4373 63.3946 82.3039 63.2877C82.0249 63.1453 81.8369 62.9791 81.7399 62.7891C81.655 62.5992 81.655 62.4093 81.7399 62.2193C81.8612 61.9581 82.0249 61.7979 82.2311 61.7385C82.4373 61.6792 82.6739 61.697 82.9407 61.7919C83.062 61.8276 83.25 61.8929 83.5047 61.9878C83.7594 62.0828 84.0445 62.1659 84.3598 62.2371C84.6752 62.3202 84.9724 62.3618 85.2514 62.3618C86.2217 62.3618 86.9495 62.1421 87.4346 61.7029C87.9319 61.2637 88.1806 60.6642 88.1806 59.9044V58.3018L88.3807 58.4264C88.3443 58.6757 88.2291 58.931 88.035 59.1921C87.8531 59.4414 87.6105 59.6729 87.3073 59.8866C87.004 60.1003 86.6523 60.2784 86.252 60.4208C85.8639 60.5514 85.4636 60.6167 85.0512 60.6167C84.19 60.6167 83.4198 60.4089 82.7406 59.9935C82.0613 59.5661 81.5216 58.9903 81.1213 58.2662C80.721 57.5302 80.5209 56.6873 80.5209 55.7376C80.5209 54.7879 80.721 53.951 81.1213 53.2268C81.5216 52.4908 82.0553 51.9151 82.7224 51.4996C83.4016 51.0722 84.1597 50.8585 84.9966 50.8585ZM85.2695 52.4968C84.6752 52.4968 84.1536 52.6392 83.7049 52.9241C83.2561 53.209 82.9043 53.5948 82.6496 54.0816C82.3949 54.5683 82.2675 55.1203 82.2675 55.7376C82.2675 56.3549 82.3949 56.9069 82.6496 57.3936C82.9043 57.8804 83.2561 58.2662 83.7049 58.5511C84.1536 58.836 84.6752 58.9785 85.2695 58.9785C85.8639 58.9785 86.3854 58.8419 86.8342 58.5689C87.283 58.284 87.6348 57.8982 87.8895 57.4115C88.1442 56.9129 88.2716 56.3549 88.2716 55.7376C88.2716 55.1203 88.1442 54.5683 87.8895 54.0816C87.6348 53.583 87.283 53.1972 86.8342 52.9241C86.3854 52.6392 85.8639 52.4968 85.2695 52.4968Z" fill="#1A1A1A"/>
<g clip-path="url(#clip0_182_569)">
<path d="M64.0559 13.2524C61.6626 6.66488 55.7073 1.86536 48.7522 0.702658C48.6367 0.660367 48.5126 0.628049 48.3724 0.620095C48.2854 0.615424 48.1914 0.616308 48.1036 0.612394C47.2424 0.497387 46.3727 0.425554 45.4884 0.425554C37.1783 0.425554 29.6808 5.65481 26.9201 13.2524C23.3974 13.2935 20.5435 16.1658 20.5435 19.6927C20.5435 23.218 23.3974 26.0915 26.9209 26.1322C29.6816 33.7294 37.1783 38.9591 45.4891 38.9591C48.7244 38.9591 51.8311 38.1572 54.5873 36.7413C53.9549 36.1894 53.3424 35.5837 52.7978 34.9327C50.55 35.9665 48.0666 36.5507 45.4884 36.5507C37.9001 36.5507 31.0889 31.6002 28.9237 24.5127L28.6202 23.5195L27.5922 23.6733C27.3611 23.7079 27.1708 23.7225 26.9968 23.7225C24.769 23.7225 22.9572 21.9146 22.9572 19.6913C22.9572 17.4689 24.769 15.6597 26.9968 15.6597C27.1708 15.6597 27.3611 15.6763 27.5937 15.7093L28.621 15.8608L28.9237 14.8688C30.3915 10.064 33.9981 6.24764 38.5314 4.28481C37.5192 6.52172 38.8934 9.27837 41.1839 10.3546C44.0386 11.6953 48.6567 11.869 50.6041 8.95405C51.4822 7.64023 50.7027 5.97875 49.6412 5.07977C48.153 3.821 45.9947 3.64223 44.2286 4.34137C42.7994 4.90745 43.4218 7.23828 44.8707 6.66513C45.9207 6.25042 46.8759 6.21886 47.8832 6.77042C49.2653 7.52876 47.9919 8.39429 47.0261 8.67152C45.2259 9.1881 42.5698 8.76683 41.162 7.50578C39.3857 5.91424 41.6739 4.10769 43.0897 3.61345C44.6257 3.07654 46.3128 2.95774 47.9373 3.01645C54.5049 3.94938 60.1251 8.55588 62.054 14.8697L62.3574 15.8617L63.385 15.7103C63.616 15.6764 63.8071 15.6607 63.9813 15.6607C66.2089 15.6607 68.0208 17.4692 68.0208 19.6931C68.0208 21.9147 66.209 23.7241 63.9813 23.7241C63.8071 23.7241 63.616 23.7081 63.3866 23.6741L62.3574 23.5211L62.054 24.5143C61.9461 24.8664 61.8183 25.2115 61.688 25.5535C62.054 25.4674 62.4344 25.4183 62.8258 25.4183C63.6854 25.4183 64.4927 25.6336 65.2013 26.0133C68.1763 25.4414 70.4348 22.8284 70.4348 19.6931C70.434 16.1658 67.5801 13.2928 64.0559 13.2524Z" fill="#D06212"/>
<path d="M40.3912 18.8556C38.3161 18.8556 38.3161 22.0673 40.3912 22.0673C42.4664 22.0673 42.4672 18.8556 40.3912 18.8556Z" fill="#D06212"/>
<path d="M50.5848 18.655C48.5088 18.655 48.5088 21.8674 50.5848 21.8674C52.66 21.8666 52.6607 18.655 50.5848 18.655Z" fill="#D06212"/>
<path d="M45.4884 30.1319C48.1051 30.1319 50.2357 28.0064 50.2357 25.3951C50.2357 24.7279 49.6943 24.1906 49.0279 24.1906C48.3623 24.1906 47.8216 24.7287 47.8216 25.3951C47.8216 26.6789 46.7748 27.7228 45.4891 27.7228C44.2035 27.7228 43.1559 26.6789 43.1559 25.3951C43.1559 24.7279 42.6156 24.1906 41.9491 24.1906C41.2823 24.1906 40.742 24.7287 40.742 25.3951C40.7414 28.0064 42.8712 30.1319 45.4884 30.1319Z" fill="#D06212"/>
<path d="M59.3555 27.6066C54.4878 24.8201 47.8162 32.6286 59.3555 38.534C71.0156 32.5656 64.0736 24.9077 59.3555 27.6066ZM59.3555 35.8011C53.5913 32.3896 55.2057 29.4531 57.2332 29.4531C58.1815 29.4531 58.6491 30.0903 59.3555 30.7584C60.0602 30.092 60.5286 29.4538 61.4776 29.4538C63.2632 29.4538 65.3555 32.2405 59.3555 35.8011Z" fill="#D06212"/>
</g>
<defs>
<clipPath id="clip0_182_569">
<rect width="49.8913" height="39.3846" fill="white" transform="translate(20.5435)"/>
</clipPath>
</defs>
</svg>
