<svg width="210" height="24" viewBox="0 0 210 24" fill="none" xmlns="http://www.w3.org/2000/svg">
<path d="M8.916 0.32C11.284 0.32 13.3533 0.789333 15.124 1.728C16.8947 2.66667 18.26 3.98933 19.22 5.696C20.2013 7.38133 20.692 9.33333 20.692 11.552C20.692 13.7493 20.2013 15.7013 19.22 17.408C18.26 19.1147 16.884 20.4373 15.092 21.376C13.3213 22.3147 11.2627 22.784 8.916 22.784H0.5V0.32H8.916ZM8.564 18.048C10.6333 18.048 12.244 17.4827 13.396 16.352C14.548 15.2213 15.124 13.6213 15.124 11.552C15.124 9.48267 14.548 7.872 13.396 6.72C12.244 5.568 10.6333 4.992 8.564 4.992H5.972V18.048H8.564Z" fill="#F90815"/>
<path d="M34.694 23.008C32.582 23.008 30.6407 22.5173 28.87 21.536C27.1207 20.5547 25.7233 19.1893 24.678 17.44C23.654 15.6693 23.142 13.6853 23.142 11.488C23.142 9.29067 23.654 7.31733 24.678 5.568C25.7233 3.81867 27.1207 2.45333 28.87 1.472C30.6407 0.490667 32.582 0 34.694 0C36.806 0 38.7367 0.490667 40.486 1.472C42.2567 2.45333 43.6433 3.81867 44.646 5.568C45.67 7.31733 46.182 9.29067 46.182 11.488C46.182 13.6853 45.67 15.6693 44.646 17.44C43.622 19.1893 42.2353 20.5547 40.486 21.536C38.7367 22.5173 36.806 23.008 34.694 23.008ZM34.694 18.016C36.486 18.016 37.9153 17.4187 38.982 16.224C40.07 15.0293 40.614 13.4507 40.614 11.488C40.614 9.504 40.07 7.92533 38.982 6.752C37.9153 5.55733 36.486 4.96 34.694 4.96C32.8807 4.96 31.43 5.54667 30.342 6.72C29.2753 7.89333 28.742 9.48267 28.742 11.488C28.742 13.472 29.2753 15.0613 30.342 16.256C31.43 17.4293 32.8807 18.016 34.694 18.016Z" fill="#F90815"/>
<path d="M63.6263 0.32V15.616C63.6263 17.984 62.9543 19.808 61.6102 21.088C60.2876 22.368 58.4956 23.008 56.2342 23.008C53.8662 23.008 51.9676 22.336 50.5382 20.992C49.1089 19.648 48.3942 17.7387 48.3942 15.264H53.8342C53.8342 16.2027 54.0262 16.9173 54.4102 17.408C54.7942 17.8773 55.3489 18.112 56.0742 18.112C56.7356 18.112 57.2476 17.8987 57.6102 17.472C57.9729 17.0453 58.1543 16.4267 58.1543 15.616V0.32H63.6263Z" fill="#F90815"/>
<path d="M78.9902 23.008C76.8783 23.008 74.9369 22.5173 73.1663 21.536C71.4169 20.5547 70.0196 19.1893 68.9743 17.44C67.9502 15.6693 67.4382 13.6853 67.4382 11.488C67.4382 9.29067 67.9502 7.31733 68.9743 5.568C70.0196 3.81867 71.4169 2.45333 73.1663 1.472C74.9369 0.490667 76.8783 0 78.9902 0C81.1022 0 83.0329 0.490667 84.7822 1.472C86.5529 2.45333 87.9396 3.81867 88.9423 5.568C89.9663 7.31733 90.4782 9.29067 90.4782 11.488C90.4782 13.6853 89.9663 15.6693 88.9423 17.44C87.9183 19.1893 86.5316 20.5547 84.7822 21.536C83.0329 22.5173 81.1022 23.008 78.9902 23.008ZM78.9902 18.016C80.7822 18.016 82.2116 17.4187 83.2783 16.224C84.3663 15.0293 84.9102 13.4507 84.9102 11.488C84.9102 9.504 84.3663 7.92533 83.2783 6.752C82.2116 5.55733 80.7822 4.96 78.9902 4.96C77.1769 4.96 75.7262 5.54667 74.6383 6.72C73.5716 7.89333 73.0382 9.48267 73.0382 11.488C73.0382 13.472 73.5716 15.0613 74.6383 16.256C75.7262 17.4293 77.1769 18.016 78.9902 18.016Z" fill="#F90815"/>
<path d="M102.627 23.008C100.985 23.008 99.5127 22.7413 98.2114 22.208C96.91 21.6747 95.8647 20.8853 95.0754 19.84C94.3074 18.7947 93.902 17.536 93.8594 16.064H99.6834C99.7687 16.896 100.057 17.536 100.547 17.984C101.038 18.4107 101.678 18.624 102.467 18.624C103.278 18.624 103.918 18.4427 104.387 18.08C104.857 17.696 105.091 17.1733 105.091 16.512C105.091 15.9573 104.899 15.4987 104.515 15.136C104.153 14.7733 103.694 14.4747 103.139 14.24C102.606 14.0053 101.838 13.7387 100.835 13.44C99.3847 12.992 98.2007 12.544 97.2834 12.096C96.366 11.648 95.5767 10.9867 94.9154 10.112C94.254 9.23733 93.9234 8.096 93.9234 6.688C93.9234 4.59733 94.6807 2.96533 96.1954 1.792C97.71 0.597333 99.6834 0 102.115 0C104.59 0 106.585 0.597333 108.099 1.792C109.614 2.96533 110.425 4.608 110.531 6.72H104.611C104.569 5.99467 104.302 5.42933 103.811 5.024C103.321 4.59733 102.691 4.384 101.923 4.384C101.262 4.384 100.729 4.56533 100.323 4.928C99.918 5.26933 99.7154 5.77067 99.7154 6.432C99.7154 7.15733 100.057 7.72267 100.739 8.128C101.422 8.53333 102.489 8.97067 103.939 9.44C105.39 9.93067 106.563 10.4 107.459 10.848C108.377 11.296 109.166 11.9467 109.827 12.8C110.489 13.6533 110.819 14.752 110.819 16.096C110.819 17.376 110.489 18.5387 109.827 19.584C109.187 20.6293 108.249 21.4613 107.011 22.08C105.774 22.6987 104.313 23.008 102.627 23.008Z" fill="white"/>
<path d="M119.979 4.704V9.248H127.307V13.472H119.979V18.4H128.267V22.784H114.507V0.32H128.267V4.704H119.979Z" fill="white"/>
<path d="M152.235 22.784H146.763L137.611 8.928V22.784H132.139V0.32H137.611L146.763 14.24V0.32H152.235V22.784Z" fill="white"/>
<path d="M164.65 23.008C163.007 23.008 161.535 22.7413 160.234 22.208C158.933 21.6747 157.887 20.8853 157.098 19.84C156.33 18.7947 155.925 17.536 155.882 16.064H161.706C161.791 16.896 162.079 17.536 162.57 17.984C163.061 18.4107 163.701 18.624 164.49 18.624C165.301 18.624 165.941 18.4427 166.41 18.08C166.879 17.696 167.114 17.1733 167.114 16.512C167.114 15.9573 166.922 15.4987 166.538 15.136C166.175 14.7733 165.717 14.4747 165.162 14.24C164.629 14.0053 163.861 13.7387 162.858 13.44C161.407 12.992 160.223 12.544 159.306 12.096C158.389 11.648 157.599 10.9867 156.938 10.112C156.277 9.23733 155.946 8.096 155.946 6.688C155.946 4.59733 156.703 2.96533 158.218 1.792C159.733 0.597333 161.706 0 164.138 0C166.613 0 168.607 0.597333 170.122 1.792C171.637 2.96533 172.447 4.608 172.554 6.72H166.634C166.591 5.99467 166.325 5.42933 165.834 5.024C165.343 4.59733 164.714 4.384 163.946 4.384C163.285 4.384 162.751 4.56533 162.346 4.928C161.941 5.26933 161.738 5.77067 161.738 6.432C161.738 7.15733 162.079 7.72267 162.762 8.128C163.445 8.53333 164.511 8.97067 165.962 9.44C167.413 9.93067 168.586 10.4 169.482 10.848C170.399 11.296 171.189 11.9467 171.85 12.8C172.511 13.6533 172.842 14.752 172.842 16.096C172.842 17.376 172.511 18.5387 171.85 19.584C171.21 20.6293 170.271 21.4613 169.034 22.08C167.797 22.6987 166.335 23.008 164.65 23.008Z" fill="white"/>
<path d="M182.001 4.704V9.248H189.329V13.472H182.001V18.4H190.289V22.784H176.529V0.32H190.289V4.704H182.001Z" fill="white"/>
<path d="M199.634 0.32V22.784H194.162V0.32H199.634Z" fill="white"/>
<path d="M206.479 23.04C205.519 23.04 204.73 22.7627 204.111 22.208C203.514 21.632 203.215 20.928 203.215 20.096C203.215 19.2427 203.514 18.528 204.111 17.952C204.73 17.376 205.519 17.088 206.479 17.088C207.418 17.088 208.186 17.376 208.783 17.952C209.402 18.528 209.711 19.2427 209.711 20.096C209.711 20.928 209.402 21.632 208.783 22.208C208.186 22.7627 207.418 23.04 206.479 23.04Z" fill="white"/>
</svg>
