<svg width="110" height="28" viewBox="0 0 110 28" fill="none" xmlns="http://www.w3.org/2000/svg">
<path d="M37.5003 21.7335C38.6049 22.278 39.9272 22.5502 41.4673 22.5502C43.0853 22.5502 44.4776 22.2468 45.6444 21.6401C46.8111 21.0334 47.729 20.2245 48.3979 19.2133C49.0669 18.2021 49.4791 17.0897 49.6347 15.8763H46.2978C46.1111 17.012 45.5744 17.8987 44.6876 18.5365C43.8164 19.1588 42.743 19.4699 41.4673 19.4699C40.5962 19.4699 39.8261 19.3222 39.1572 19.0266C38.5038 18.731 37.9515 18.3187 37.5003 17.7898C37.0492 17.2453 36.7069 16.6153 36.4736 15.8996C36.2558 15.184 36.1469 14.4062 36.1469 13.5661C36.1469 12.6949 36.2558 11.9015 36.4736 11.1859C36.7069 10.4703 37.0414 9.84803 37.477 9.31909C37.9126 8.79016 38.4571 8.38568 39.1105 8.10566C39.7639 7.81008 40.5106 7.66229 41.3507 7.66229C42.1752 7.66229 42.9141 7.8023 43.5675 8.08233C44.2209 8.34679 44.7576 8.75127 45.1777 9.29576C45.6132 9.82469 45.8933 10.4781 46.0177 11.2559H49.3547C49.2147 9.91803 48.8024 8.75127 48.1179 7.75563C47.4334 6.74444 46.5155 5.96659 45.3643 5.4221C44.2287 4.86205 42.8908 4.58203 41.3507 4.58203C39.8728 4.58203 38.5893 4.83872 37.5003 5.3521C36.4269 5.84991 35.5402 6.51886 34.8401 7.35893C34.1401 8.199 33.6189 9.13241 33.2767 10.1592C32.95 11.1859 32.7866 12.2282 32.7866 13.2861V13.7995C32.7866 14.7484 32.95 15.7363 33.2767 16.763C33.6034 17.7898 34.109 18.7388 34.7935 19.61C35.4935 20.4811 36.3958 21.189 37.5003 21.7335Z" fill="white"/>
<path fill-rule="evenodd" clip-rule="evenodd" d="M58.2881 20.5667C58.4484 20.2948 58.5807 19.9948 58.6848 19.6666V22.1068H61.2517V14.2428C61.2517 13.0605 61.0261 12.1038 60.5749 11.3726C60.1393 10.6414 59.486 10.1047 58.6148 9.76246C57.7591 9.42021 56.6779 9.24909 55.3712 9.24909C54.9511 9.24909 54.5 9.25687 54.0177 9.27242C53.551 9.27242 53.0921 9.28798 52.6409 9.31909C52.1898 9.35021 51.7853 9.38132 51.4275 9.41244V12.166C51.8631 12.1349 52.3531 12.1115 52.8976 12.096C53.4577 12.0649 54.0099 12.0415 54.5544 12.026C55.0989 12.0104 55.5656 12.0027 55.9545 12.0027C56.7013 12.0027 57.2535 12.1816 57.6114 12.5394C57.9692 12.8972 58.1481 13.4417 58.1481 14.1728V14.2895H55.5578C54.4378 14.2895 53.4577 14.4373 52.6176 14.7329C51.7931 15.0285 51.1475 15.4718 50.6808 16.063C50.2296 16.6542 50.0041 17.4164 50.0041 18.3499C50.0041 19.2055 50.1907 19.9366 50.5641 20.5434C50.953 21.1501 51.4897 21.6168 52.1742 21.9435C52.8743 22.2702 53.6832 22.4335 54.6011 22.4335C55.4878 22.4335 56.2346 22.278 56.8413 21.9668C57.4636 21.6401 57.9458 21.1734 58.2881 20.5667ZM57.7047 19.0499C57.9692 18.6454 58.117 18.1009 58.1481 17.4164V16.2263H55.5112C54.7645 16.2263 54.1888 16.413 53.7844 16.7864C53.3954 17.1442 53.201 17.6109 53.201 18.1865C53.201 18.7621 53.3954 19.2288 53.7844 19.5866C54.1888 19.9444 54.7645 20.1233 55.5112 20.1233C55.9623 20.1233 56.3746 20.0455 56.7479 19.89C57.1369 19.7189 57.4558 19.4388 57.7047 19.0499Z" fill="white"/>
<path d="M69.1831 22.5502C68.0786 22.5502 67.1218 22.3635 66.3129 21.9902C65.5195 21.6168 64.8505 21.119 64.306 20.4967C63.7771 19.8744 63.3804 19.1744 63.1159 18.3965C62.8515 17.6187 62.7192 16.8253 62.7192 16.0163V15.573C62.7192 14.7173 62.8515 13.9006 63.1159 13.1227C63.396 12.3293 63.8082 11.6293 64.3527 11.0226C64.8972 10.4003 65.5661 9.91025 66.3595 9.55245C67.1685 9.17908 68.1019 8.9924 69.1598 8.9924C70.2643 8.9924 71.2522 9.2102 72.1233 9.64579C72.9945 10.0658 73.6868 10.657 74.2002 11.4193C74.7291 12.1816 75.0247 13.0683 75.0869 14.0795H71.9367C71.8589 13.4261 71.5789 12.8816 71.0966 12.446C70.6299 12.0104 69.9843 11.7926 69.1598 11.7926C68.4441 11.7926 67.8452 11.9638 67.3629 12.306C66.8962 12.6483 66.5462 13.1227 66.3129 13.7295C66.0795 14.3206 65.9628 15.0051 65.9628 15.783C65.9628 16.5297 66.0717 17.2064 66.2895 17.8131C66.5229 18.4199 66.8729 18.8943 67.3396 19.2366C67.8219 19.5788 68.4364 19.75 69.1831 19.75C69.7431 19.75 70.2254 19.6488 70.6299 19.4466C71.0344 19.2444 71.3533 18.9643 71.5866 18.6065C71.8355 18.2487 71.9911 17.8443 72.0533 17.3931H75.2036C75.1414 18.4199 74.838 19.3222 74.2935 20.1C73.7646 20.8623 73.0568 21.4612 72.17 21.8968C71.2988 22.3324 70.3032 22.5502 69.1831 22.5502Z" fill="white"/>
<path d="M79.2488 21.8268C80.0111 22.1224 80.9756 22.2702 82.1424 22.2702H83.9625V19.4933H81.979C81.3568 19.4933 80.8745 19.3299 80.5323 19.0032C80.2056 18.661 80.0422 18.1787 80.0422 17.5565L80.0537 11.816H83.9625V9.43577H80.0584L80.0655 5.86547H77.032L77.0247 9.43577H75.0018V11.816H77.0199L77.0086 17.3464C77.0086 18.5754 77.1953 19.5555 77.5687 20.2867C77.942 21.0023 78.5021 21.5157 79.2488 21.8268Z" fill="white"/>
<path d="M89.8352 22.5035C88.3728 22.5035 87.2372 22.0213 86.4282 21.0567C85.6348 20.0922 85.2381 18.661 85.2381 16.763V9.41244H88.4817V17.0431C88.4817 17.8209 88.6995 18.4432 89.1351 18.9099C89.5707 19.361 90.1619 19.5866 90.9086 19.5866C91.6553 19.5866 92.2621 19.3455 92.7288 18.8632C93.211 18.381 93.4522 17.7276 93.4522 16.9031V9.41244H96.6958V22.1068H94.1289V19.1561C94.0636 19.4245 93.9858 19.6769 93.8955 19.9133C93.5688 20.7689 93.0788 21.4146 92.4254 21.8501C91.772 22.2857 90.9553 22.5035 89.9752 22.5035H89.8352Z" fill="white"/>
<path d="M99.745 21.4068C100.741 22.1379 102.11 22.5035 103.852 22.5035C104.972 22.5035 105.944 22.3324 106.769 21.9902C107.593 21.6479 108.231 21.1734 108.682 20.5667C109.149 19.9444 109.382 19.2133 109.382 18.3732C109.382 17.2375 108.955 16.3352 108.099 15.6663C107.259 14.9973 106.092 14.5851 104.599 14.4295L103.479 14.3128C102.794 14.2351 102.296 14.0873 101.985 13.8695C101.69 13.6517 101.542 13.3405 101.542 12.9361C101.542 12.516 101.729 12.1738 102.102 11.9093C102.475 11.6448 103.004 11.5126 103.689 11.5126C104.451 11.5126 105.034 11.6682 105.439 11.9793C105.843 12.2905 106.061 12.6638 106.092 13.0994H109.009C108.962 11.7771 108.457 10.7737 107.492 10.0892C106.528 9.40466 105.268 9.06241 103.712 9.06241C102.716 9.06241 101.83 9.21798 101.052 9.52911C100.29 9.82469 99.6906 10.2681 99.255 10.8592C98.8194 11.4504 98.6016 12.1816 98.6016 13.0527C98.6016 14.1417 98.9827 15.0129 99.745 15.6663C100.507 16.3197 101.596 16.7242 103.012 16.8797L104.132 16.9964C104.972 17.0742 105.563 17.2375 105.906 17.4864C106.263 17.7354 106.442 18.0698 106.442 18.4899C106.442 18.9721 106.209 19.3533 105.742 19.6333C105.291 19.9133 104.677 20.0533 103.899 20.0533C102.965 20.0533 102.281 19.8744 101.845 19.5166C101.41 19.1588 101.168 18.7621 101.122 18.3265H98.2049C98.2516 19.6333 98.7649 20.66 99.745 21.4068Z" fill="white"/>
<path fill-rule="evenodd" clip-rule="evenodd" d="M14.396 0C6.66401 0 0.395996 6.26801 0.395996 14C0.395996 21.732 6.66401 28 14.396 28C22.128 28 28.396 21.732 28.396 14C28.396 6.26801 22.128 0 14.396 0ZM3.53526 14C3.53526 8.00178 8.39778 3.13927 14.396 3.13927C20.3942 3.13927 25.2567 8.00178 25.2567 14C25.2567 19.4741 21.2068 24.0023 15.9398 24.7518V22.3562L18.7274 21.3271C20.3385 20.7324 21.4084 19.1969 21.4084 17.4796V12.7626C21.4084 11.8957 20.7056 11.193 19.8388 11.193C18.9719 11.193 18.2691 11.8957 18.2691 12.7626V17.4796C18.2691 17.8824 18.0182 18.2426 17.6403 18.3821L15.9398 19.0098V6.58543C15.9398 5.71854 15.2371 5.01579 14.3702 5.01579C13.5033 5.01579 12.8006 5.71854 12.8006 6.58543V13.3202L11.1509 12.7113C10.773 12.5717 10.5221 12.2116 10.5221 11.8088V9.77533C10.5221 8.90844 9.81932 8.20569 8.95243 8.20569C8.08555 8.20569 7.3828 8.90844 7.3828 9.77533V11.8088C7.3828 13.5261 8.45272 15.0615 10.0638 15.6563L12.8006 16.6666V24.7444C7.55873 23.9727 3.53526 19.4562 3.53526 14Z" fill="white"/>
</svg>
