<svg width="178" height="36" viewBox="0 0 178 36" fill="none" xmlns="http://www.w3.org/2000/svg">
<path d="M57.1833 8.01231L57.4938 8.13174L57.6173 7.82285L57.7541 7.48083L57.8869 7.14884L57.5477 7.03577C55.1906 6.25005 52.8631 5.8556 50.5665 5.8556C48.286 5.8556 46.5127 6.39021 45.3094 7.51896C44.1163 8.61533 43.5258 10.0539 43.5258 11.8019C43.5258 14.0108 44.4474 15.7358 46.2751 16.939C47.0663 17.4741 47.9367 17.9612 48.8857 18.4009L48.8856 18.401L48.8919 18.4037C49.8279 18.8147 50.7526 19.2142 51.6659 19.6024L51.6686 19.6035C52.5906 19.9858 53.4313 20.4007 54.1914 20.8478C55.8345 21.8208 56.6251 23.1421 56.6251 24.8328C56.6251 26.3907 56.0154 27.5467 54.7941 28.347C53.559 29.1485 52.0527 29.5576 50.2587 29.5576C49.0391 29.5576 47.8419 29.3805 46.666 29.0259C45.5089 28.6472 44.5792 28.1736 43.8664 27.612L43.5711 27.3793L43.3718 27.6981L43.2008 27.9717L43.0313 28.2429L43.2931 28.4265C45.3421 29.8631 47.8065 30.5739 50.6691 30.5739C52.1983 30.5739 53.5441 30.4003 54.701 30.0461L54.701 30.0461L54.7051 30.0448C55.9132 29.6582 56.9369 28.933 57.7734 27.8815C58.6238 26.8124 59.0437 25.5278 59.0437 24.0462C59.0437 22.5762 58.7993 21.3436 58.2876 20.3681C57.7862 19.3898 57.1235 18.6149 56.2961 18.0552C55.5026 17.5184 54.6294 17.0413 53.6776 16.6235C52.7359 16.21 51.7938 15.8423 50.8513 15.5203C49.9519 15.1829 49.1218 14.8238 48.3605 14.4433C46.7169 13.5772 45.9444 12.3922 45.9444 10.8784C45.9444 9.60819 46.4139 8.63937 47.3496 7.93243C48.2971 7.21653 49.641 6.83772 51.4216 6.83772C53.2196 6.83772 55.1393 7.22617 57.1833 8.01231ZM71.3693 29.8429L71.3692 29.843L71.3752 29.8478C71.9587 30.3253 72.7643 30.5397 73.7434 30.5397H75.8297H76.1669V30.2025V29.9289V29.5918H75.8297H74.7999L74.4536 29.5288L74.4375 29.5259L74.4213 29.5245C74.2839 29.5131 74.0891 29.4163 73.8436 29.1125C73.6501 28.8252 73.5333 28.3919 73.5333 27.7742V17.069C73.5333 15.893 73.2323 14.9008 72.6036 14.1212L72.6036 14.1211L72.599 14.1157C72.1762 13.6135 71.5265 13.2567 70.6951 13.0184C69.8741 12.7538 68.8225 12.6276 67.5529 12.6276C66.2143 12.6276 64.9888 13.0922 63.8855 14.0031C63.2312 14.5296 62.6945 15.0877 62.2809 15.6784V13.1016V12.7644H61.9437H59.5496H59.2125V13.1016V30.2025V30.5397H59.5496H61.9437H62.2809V30.2025V18.0608C62.2809 17.2887 62.7792 16.3459 63.9241 15.2234L63.9264 15.2211C65.0348 14.1127 66.2631 13.5755 67.6213 13.5755C68.2899 13.5755 68.8274 13.683 69.2474 13.8813C70.0071 14.2934 70.4649 15.2727 70.4649 17.0348V27.7742V27.7841L70.4655 27.794L70.4996 28.3743C70.4996 28.3745 70.4996 28.3747 70.4997 28.3748C70.5299 28.916 70.8576 29.4043 71.3693 29.8429ZM76.5602 15.0863L76.5585 15.088C74.9293 16.7412 74.1357 19.0479 74.1357 21.9599C74.1357 24.8657 74.9037 27.0824 76.5034 28.5367C78.0811 29.971 80.1165 30.6765 82.5788 30.6765C85.0763 30.6765 87.1494 29.8602 88.7694 28.2167C90.4216 26.5638 91.227 24.2568 91.227 21.3442C91.227 18.4383 90.4591 16.2217 88.8593 14.7674C87.281 13.3326 85.2339 12.6276 82.7498 12.6276C80.2737 12.6276 78.2019 13.4446 76.5602 15.0863ZM78.7789 15.7657L78.7803 15.7638C79.865 14.2887 81.2055 13.5755 82.8182 13.5755C84.4513 13.5755 85.7437 14.1922 86.7267 15.4316C87.7065 16.667 88.227 18.6167 88.227 21.3442C88.227 24.0374 87.6655 26.101 86.583 27.5736C85.4994 29.0252 84.1589 29.7286 82.5446 29.7286C80.9114 29.7286 79.619 29.1119 78.6361 27.8725C77.6559 26.6367 77.1358 24.698 77.1358 21.9941C77.1358 19.2765 77.6979 17.2143 78.7789 15.7657ZM114.193 13.0684L113.946 13.3146L114.2 13.5527C114.477 13.8123 114.641 14.2122 114.641 14.8116C114.641 15.4259 114.514 15.9359 114.275 16.3545L114.268 16.3671L114.262 16.3804L109.643 26.3821L104.692 12.9847L104.61 12.7644H104.376H101.981H101.499L101.665 13.2175L102.883 16.5414L98.3558 26.3806L93.4052 12.9847L93.3238 12.7644H93.0889H90.6948H90.2096L90.3788 13.2191L96.7404 30.3201L96.8221 30.5397H97.0564H97.3984H97.6154L97.7053 30.3421L103.387 17.8494L108.027 30.3201L108.109 30.5397H108.343H108.685H108.902L108.992 30.3422L115.217 16.6614L115.217 16.6614L115.22 16.6546C115.509 15.9795 115.657 15.3074 115.657 14.6406C115.657 14.4549 115.632 14.2624 115.583 14.0644C115.548 13.8171 115.429 13.5702 115.261 13.3285C115.19 13.2103 115.119 13.1067 115.049 13.0225C114.981 12.9411 114.894 12.8537 114.787 12.8L114.57 12.6913L114.398 12.8631L114.193 13.0684Z" fill="#181818" stroke="#181818" stroke-width="0.674298"/>
<path d="M120.923 6.61667C121.503 5.72638 122.42 5.03183 123.684 4.90781L123.385 28.0096H123.385V28.014C123.385 28.2653 123.463 28.523 123.592 28.7804C124.206 30.0092 125.651 30.54 127.69 30.54H128.75H129.087V30.2029V29.9293V29.5921H128.75H127.72L127.374 29.5292L127.358 29.5262L127.342 29.5249C127.204 29.5134 127.009 29.4166 126.764 29.1128C126.571 28.8256 126.454 28.3922 126.454 27.7745V4.5856V4.25392L126.122 4.24849L124.032 4.21429L123.694 4.20875L123.693 4.22077C121.424 4.2894 119.699 4.84535 118.59 5.9534C117.423 7.09675 116.883 8.97599 116.883 11.4944V12.7647H116.502H116.165V13.1019V13.6545V13.9916H116.502H116.883V30.2029V30.54H117.22H119.614H119.951V30.2029V13.9916H122.316H122.653V13.6545V13.1019V12.7647H122.316H119.951V11.4944C119.951 9.16148 120.294 7.55921 120.921 6.61952L120.921 6.61953L120.923 6.61667ZM138.772 16.414V21.6299C138.358 21.6024 137.911 21.5889 137.433 21.5889C136.807 21.5889 136.125 21.6236 135.389 21.6924C133.908 21.7845 132.675 21.9575 131.695 22.2156C130.72 22.4725 129.964 22.8219 129.471 23.2887C129.02 23.716 128.706 24.1446 128.591 24.5753C128.494 24.9403 128.443 25.289 128.443 25.6198C128.443 25.9113 128.467 26.2025 128.515 26.4932C128.718 27.853 129.254 28.9132 130.151 29.6286C131.045 30.3412 132.255 30.6768 133.739 30.6768C135.017 30.6768 136.14 30.4132 137.095 29.872C137.761 29.4943 138.336 28.9867 138.822 28.354C138.937 28.7545 139.244 29.1562 139.657 29.5525C140.329 30.2464 141.511 30.54 143.076 30.54H144.137H144.313H144.474H144.65H147.044H147.382V30.2029V22.0864L147.935 21.4511L154.017 30.3925L154.117 30.54H154.295H156.689H157.327L156.968 30.0132L149.762 19.4223L155.163 13.3255L155.66 12.7647H154.911H154.569H154.417L154.317 12.8782L147.382 20.6959V4.55139V4.21424H147.044H144.65H144.313V4.55139V29.5921H144.137H143.107L142.76 29.5292L142.744 29.5262L142.728 29.5249C142.591 29.5134 142.396 29.4166 142.15 29.1128C141.957 28.8256 141.84 28.3922 141.84 27.7745V16.3169C141.84 15.4872 141.5 14.7147 140.865 14.0058C140.431 13.519 139.788 13.1772 138.975 12.9561C138.161 12.7347 137.154 12.6279 135.962 12.6279C133.813 12.6279 131.701 13.1073 129.631 14.0611L129.296 14.2151L129.479 14.5346L129.616 14.774L129.782 15.0654L130.074 14.9003C130.56 14.6256 131.348 14.3379 132.457 14.0434L132.457 14.0434L132.462 14.0422C133.583 13.7282 134.543 13.5758 135.347 13.5758C136.164 13.5758 136.797 13.6869 137.264 13.8899L137.264 13.8901L137.276 13.8947C137.77 14.0882 138.065 14.3068 138.216 14.5251C138.405 14.7987 138.551 15.0803 138.654 15.37L138.66 15.3842L138.666 15.3979C138.786 15.6592 138.802 15.8292 138.78 15.9325C138.756 16.0306 138.737 16.1316 138.737 16.2228C138.737 16.2689 138.742 16.3331 138.766 16.4C138.768 16.4046 138.77 16.4092 138.772 16.414ZM138.772 26.3909C138.71 27.0325 138.264 27.7629 137.316 28.5788C136.417 29.3498 135.411 29.7289 134.286 29.7289C133.457 29.7289 132.848 29.4585 132.415 28.9429C131.971 28.4136 131.678 27.5861 131.578 26.4121L131.578 26.4121L131.578 26.4071C131.556 26.1876 131.545 25.9938 131.545 25.825C131.545 24.8806 131.791 24.1845 132.243 23.6934C132.452 23.466 132.807 23.2503 133.344 23.0657C133.878 22.8824 134.567 22.7381 135.419 22.6372C136.022 22.5702 136.625 22.5368 137.228 22.5368C137.75 22.5368 138.265 22.5522 138.772 22.5832V26.3909ZM158.892 20.2794H170.797H171.134V19.9423V19.9416V19.941V19.9403V19.9396V19.9389V19.9383V19.9376V19.9369V19.9363V19.9356V19.9349V19.9343V19.9336V19.9329V19.9323V19.9316V19.9309V19.9303V19.9296V19.9289V19.9283V19.9276V19.9269V19.9263V19.9256V19.9249V19.9243V19.9236V19.9229V19.9222V19.9216V19.9209V19.9202V19.9196V19.9189V19.9182V19.9176V19.9169V19.9162V19.9156V19.9149V19.9142V19.9136V19.9129V19.9122V19.9116V19.9109V19.9102V19.9096V19.9089V19.9082V19.9075V19.9069V19.9062V19.9055V19.9049V19.9042V19.9035V19.9029V19.9022V19.9015V19.9009V19.9002V19.8995V19.8989V19.8982V19.8975V19.8969V19.8962V19.8955V19.8949V19.8942V19.8935V19.8929V19.8922V19.8915V19.8909V19.8902V19.8895V19.8888V19.8882V19.8875V19.8868V19.8862V19.8855V19.8848V19.8842V19.8835V19.8828V19.8822V19.8815V19.8808V19.8802V19.8795V19.8788V19.8782V19.8775V19.8768V19.8762V19.8755V19.8748V19.8742V19.8735V19.8728V19.8721V19.8715V19.8708V19.8701V19.8695V19.8688V19.8681V19.8675V19.8668V19.8661V19.8655V19.8648V19.8641V19.8635V19.8628V19.8621V19.8615V19.8608V19.8601V19.8595V19.8588V19.8581V19.8574V19.8568V19.8561V19.8554V19.8548V19.8541V19.8534V19.8528V19.8521V19.8514V19.8508V19.8501V19.8494V19.8488V19.8481V19.8474V19.8468V19.8461V19.8454V19.8448V19.8441V19.8434V19.8428V19.8421V19.8414V19.8407V19.8401V19.8394V19.8387V19.8381V19.8374V19.8367V19.8361V19.8354V19.8347V19.8341V19.8334V19.8327V19.8321V19.8314V19.8307V19.8301V19.8294V19.8287V19.8281V19.8274V19.8267V19.8261V19.8254V19.8247V19.824V19.8234V19.8227V19.822V19.8214V19.8207V19.82V19.8194V19.8187V19.818V19.8174V19.8167V19.816V19.8154V19.8147V19.814V19.8134V19.8127V19.812V19.8114V19.8107V19.81V19.8094V19.8087V19.808V19.8073V19.8067V19.806V19.8053V19.8047V19.804V19.8033V19.8027V19.802V19.8013V19.8007V19.8V19.7993V19.7987V19.798V19.7973V19.7967V19.796V19.7953V19.7947V19.794V19.7933V19.7927V19.792V19.7913V19.7906V19.79V19.7893V19.7886V19.788V19.7873V19.7866V19.786V19.7853V19.7846V19.784V19.7833V19.7826V19.782V19.7813V19.7806V19.78V19.7793V19.7786V19.778V19.7773V19.7766V19.776V19.7753V19.7746V19.7739V19.7733V19.7726V19.7719V19.7713V19.7706V19.7699V19.7693V19.7686V19.7679V19.7673V19.7666V19.7659V19.7653V19.7646V19.7639V19.7633V19.7626V19.7619V19.7613V19.7606V19.7599V19.7593V19.7586V19.7579V19.7572V19.7566V19.7559V19.7552V19.7546V19.7539V19.7532V19.7526V19.7519V19.7512V19.7506V19.7499V19.7492V19.7486V19.7479V19.7472V19.7466V19.7459V19.7452V19.7446V19.7439V19.7432V19.7426V19.7419V19.7412V19.7405V19.7399V19.7392V19.7385V19.7379V19.7372V19.7365V19.7359V19.7352V19.7345V19.7339V19.7332V19.7325V19.7319V19.7312V19.7305V19.7299V19.7292V19.7285V19.7279V19.7272V19.7265V19.7259V19.7252V19.7245V19.7238V19.7232V19.7225V19.7218V19.7212V19.7205V19.7198V19.7192V19.7185V19.7178V19.7172V19.7165V19.7158V19.7152V19.7145V19.7138V19.7132V19.7125V19.7118V19.7112V19.7105V19.7098V19.7092V19.7085V19.7078V19.7071V19.7065V19.7058V19.7051V19.7045V19.7038V19.7031V19.7025V19.7018V19.7011V19.7005V19.6998V19.6991V19.6985V19.6978V19.6971V19.6965V19.6958V19.6951V19.6945V19.6938V19.6931V19.6925V19.6918V19.6911V19.6904V19.6898V19.6891V19.6884V19.6878V19.6871V19.6864V19.6858V19.6851V19.6844V19.6838V19.6831V19.6824V19.6818V19.6811V19.6804V19.6798V19.6791V19.6784V19.6778V19.6771V19.6764V19.6758V19.6751V19.6744V19.6737V19.6731V19.6724V19.6717V19.6711V19.6704V19.6697V19.6691V19.6684V19.6677V19.6671V19.6664V19.6657V19.6651V19.6644V19.6637V19.6631V19.6624V19.6617V19.6611V19.6604V19.6597V19.6591V19.6584V19.6577V19.657V19.6564V19.6557V19.655V19.6544V19.6537V19.653V19.6524V19.6517V19.651V19.6504V19.6497V19.649V19.6484V19.6477V19.647V19.6464V19.6457V19.645V19.6444V19.6437V19.643V19.6424V19.6417V19.641V19.6403V19.6397V19.639V19.6383V19.6377V19.637V19.6363V19.6357V19.635V19.6343V19.6337V19.633V19.6323V19.6317V19.631V19.6303V19.6297V19.629V19.6283V19.6277V19.627V19.6263V19.6257V19.625V19.6243V19.6236V19.623V19.6223V19.6216V19.621V19.6203V19.6196V19.619V19.6183V19.6176V19.617V19.6163V19.6156V19.615V19.6143V19.6136V19.613V19.6123V19.6116V19.611V19.6103V19.6096V19.609V19.6083V19.6076V19.6069V19.6063V19.6056V19.6049V19.6043V19.6036V19.6029V19.6023V19.6016V19.6009V19.6003C171.134 17.3442 170.474 15.586 169.104 14.3872C167.759 13.2106 166.104 12.6279 164.162 12.6279C161.751 12.6279 159.746 13.4473 158.172 15.092C156.591 16.7455 155.822 19.0509 155.822 21.9602C155.822 24.8618 156.553 27.0765 158.081 28.5317C159.59 29.9685 161.536 30.6768 163.888 30.6768C166.226 30.6768 168.332 30.3181 170.201 29.5938L170.526 29.4676L170.389 29.1466L170.286 28.9072L170.158 28.6088L169.855 28.7253C168.122 29.3919 166.135 29.7289 163.888 29.7289C162.379 29.7289 161.166 29.12 160.225 27.8801C159.31 26.6443 158.822 24.6581 158.822 21.8576C158.822 21.3151 158.845 20.7891 158.892 20.2794ZM166.941 15.0198C167.654 15.9318 168.066 17.3517 168.127 19.3315H159.013C159.306 17.5561 159.905 16.1781 160.788 15.1731C161.763 14.0909 162.839 13.5758 164.025 13.5758C165.218 13.5758 166.182 14.0502 166.941 15.0198Z" fill="#181818" stroke="#181818" stroke-width="0.674298"/>
<path d="M173.954 4.19197V5.09554H172.926V7.84459H171.951V5.09554H170.924V4.19197H173.954Z" fill="#181818"/>
<path d="M177.958 4.13721V7.86102H176.982V6.05388L176.268 6.90269H175.976L175.261 6.05388V7.86102H174.286V4.13721H174.63L176.122 5.7253L177.613 4.13721H177.958Z" fill="#181818"/>
<path fill-rule="evenodd" clip-rule="evenodd" d="M16.7922 24.2498L16.7773 35.9969L19.2599 36L19.2748 24.2011L23.8038 35.0965L26.0962 34.1436L21.5983 23.323L29.8735 31.6192L31.6311 29.866L23.3214 21.5352L34.1882 26.0451L35.1398 23.7522L24.2698 19.2409H36.0392V16.7584H24.2983L35.1503 12.2765L34.2026 9.98197L23.3979 14.4443L31.7069 6.22031L29.9605 4.45589L21.5459 12.7844L26.08 1.84885L23.7867 0.898038L19.2906 11.7421L19.3055 0.00314622L16.823 0L16.808 11.799L12.2792 0.904025L9.98682 1.85692L14.4837 12.675L6.20981 4.3801L4.45216 6.13329L12.7633 14.4656L1.89246 9.95401L0.94086 12.2469L11.8115 16.7584H0.0423584V19.2409H11.7839L0.931588 23.7229L1.87924 26.0175L12.685 21.5547L4.37637 29.7784L6.12275 31.5428L14.5319 23.2197L9.99995 34.1501L12.2932 35.1009L16.7922 24.2498Z" fill="#181818"/>
</svg>
