<svg width="64" height="56" viewBox="0 0 64 56" fill="none" xmlns="http://www.w3.org/2000/svg">
<path d="M48 18.8967C39.1634 18.8967 32 11.7598 32 2.95605L64 2.95605C64 11.7598 56.8366 18.8967 48 18.8967Z" fill="#FBE0E0"/>
<path d="M28 39.375C32.8325 39.375 36.75 35.4575 36.75 30.625C36.75 25.7925 32.8325 21.875 28 21.875C23.1675 21.875 19.25 25.7925 19.25 30.625C19.25 35.4575 23.1675 39.375 28 39.375Z" stroke="#1F1F1F" stroke-width="3" stroke-linecap="round" stroke-linejoin="round"/>
<path d="M42.875 25.375C44.9132 25.3716 46.924 25.8445 48.747 26.756C50.57 27.6675 52.1548 28.9924 53.375 30.625" stroke="#1F1F1F" stroke-width="3" stroke-linecap="round" stroke-linejoin="round"/>
<path d="M2.625 30.625C3.84519 28.9924 5.42999 27.6675 7.253 26.756C9.07602 25.8445 11.0868 25.3716 13.125 25.375" stroke="#1F1F1F" stroke-width="3" stroke-linecap="round" stroke-linejoin="round"/>
<path d="M15.3999 47.25C16.5523 44.8899 18.3445 42.9009 20.5721 41.5096C22.7998 40.1183 25.3734 39.3806 27.9999 39.3806C30.6263 39.3806 33.2 40.1183 35.4277 41.5096C37.6553 42.9009 39.4475 44.8899 40.5999 47.25" stroke="#1F1F1F" stroke-width="3" stroke-linecap="round" stroke-linejoin="round"/>
<path d="M13.125 25.375C11.7964 25.3763 10.4949 24.9996 9.37247 24.2887C8.25006 23.5778 7.35313 22.5622 6.78649 21.3605C6.21986 20.1588 6.00691 18.8206 6.17253 17.5024C6.33815 16.1842 6.8755 14.9403 7.7218 13.9161C8.56809 12.8919 9.68838 12.1297 10.9518 11.7186C12.2151 11.3075 13.5694 11.2644 14.8564 11.5943C16.1434 11.9243 17.3099 12.6137 18.2196 13.582C19.1293 14.5503 19.7447 15.7575 19.9938 17.0625" stroke="#1F1F1F" stroke-width="3" stroke-linecap="round" stroke-linejoin="round"/>
<path d="M36.0063 17.0625C36.2555 15.7575 36.8708 14.5503 37.7805 13.582C38.6902 12.6137 39.8567 11.9243 41.1437 11.5943C42.4307 11.2644 43.785 11.3075 45.0483 11.7186C46.3117 12.1297 47.432 12.8919 48.2783 13.9161C49.1246 14.9403 49.662 16.1842 49.8276 17.5024C49.9932 18.8206 49.7803 20.1588 49.2136 21.3605C48.647 22.5622 47.7501 23.5778 46.6276 24.2887C45.5052 24.9996 44.2037 25.3763 42.8751 25.375" stroke="#1F1F1F" stroke-width="3" stroke-linecap="round" stroke-linejoin="round"/>
</svg>
