<svg width="610" height="462" viewBox="0 0 610 462" fill="none" xmlns="http://www.w3.org/2000/svg">
<g filter="url(#filter0_d_791_338)">
<rect x="139" y="30" width="411" height="309" rx="18.4185" fill="white"/>
</g>
<ellipse cx="161.018" cy="52.0712" rx="3.66964" ry="3.67857" fill="#F85640"/>
<ellipse cx="172.027" cy="52.0712" rx="3.66964" ry="3.67857" fill="#FBA63C"/>
<ellipse cx="183.035" cy="52.0712" rx="3.66964" ry="3.67857" fill="#34A770"/>
<path d="M158.525 90.8213V80.1051H162.345C163.179 80.1051 163.87 80.2568 164.417 80.5603C164.965 80.8638 165.375 81.2789 165.647 81.8056C165.919 82.3289 166.055 82.9184 166.055 83.5742C166.055 84.2335 165.917 84.8266 165.642 85.3533C165.37 85.8765 164.958 86.2917 164.407 86.5986C163.859 86.9021 163.17 87.0539 162.34 87.0539H159.713V85.6829H162.193C162.72 85.6829 163.147 85.5922 163.475 85.4109C163.803 85.226 164.044 84.9748 164.197 84.6574C164.351 84.3399 164.428 83.9789 164.428 83.5742C164.428 83.1696 164.351 82.8103 164.197 82.4963C164.044 82.1824 163.802 81.9365 163.47 81.7585C163.142 81.5806 162.71 81.4917 162.172 81.4917H160.142V90.8213H158.525Z" fill="black"/>
<path d="M167.869 90.8213V82.7841H169.381V84.0609H169.465C169.612 83.6283 169.87 83.2882 170.239 83.0405C170.613 82.7894 171.035 82.6638 171.506 82.6638C171.603 82.6638 171.719 82.6673 171.851 82.6742C171.987 82.6812 172.094 82.6899 172.17 82.7004V84.1969C172.107 84.1795 171.996 84.1603 171.835 84.1393C171.675 84.1149 171.514 84.1027 171.354 84.1027C170.984 84.1027 170.655 84.1812 170.365 84.3382C170.079 84.4917 169.852 84.7062 169.685 84.9818C169.517 85.2539 169.434 85.5643 169.434 85.9132V90.8213H167.869Z" fill="black"/>
<path d="M176.666 90.9835C175.913 90.9835 175.255 90.8108 174.693 90.4655C174.132 90.1201 173.696 89.637 173.385 89.0161C173.075 88.3951 172.92 87.6696 172.92 86.8393C172.92 86.0056 173.075 85.2766 173.385 84.6521C173.696 84.0277 174.132 83.5428 174.693 83.1975C175.255 82.8521 175.913 82.6795 176.666 82.6795C177.42 82.6795 178.077 82.8521 178.639 83.1975C179.2 83.5428 179.636 84.0277 179.947 84.6521C180.257 85.2766 180.413 86.0056 180.413 86.8393C180.413 87.6696 180.257 88.3951 179.947 89.0161C179.636 89.637 179.2 90.1201 178.639 90.4655C178.077 90.8108 177.42 90.9835 176.666 90.9835ZM176.671 89.6701C177.16 89.6701 177.564 89.5411 177.885 89.2829C178.206 89.0248 178.443 88.6812 178.597 88.2521C178.754 87.823 178.832 87.3504 178.832 86.8341C178.832 86.3213 178.754 85.8504 178.597 85.4213C178.443 84.9888 178.206 84.6417 177.885 84.38C177.564 84.1184 177.16 83.9876 176.671 83.9876C176.179 83.9876 175.771 84.1184 175.447 84.38C175.126 84.6417 174.887 84.9888 174.73 85.4213C174.577 85.8504 174.5 86.3213 174.5 86.8341C174.5 87.3504 174.577 87.823 174.73 88.2521C174.887 88.6812 175.126 89.0248 175.447 89.2829C175.771 89.5411 176.179 89.6701 176.671 89.6701Z" fill="black"/>
<path d="M182.203 82.7841H183.768V91.3445C183.768 91.8817 183.67 92.3352 183.475 92.705C183.283 93.0748 182.997 93.3556 182.616 93.5474C182.24 93.7393 181.774 93.8352 181.219 93.8352C181.164 93.8352 181.111 93.8352 181.062 93.8352C181.01 93.8352 180.956 93.8335 180.9 93.83V92.4852C180.949 92.4852 180.993 92.4852 181.031 92.4852C181.066 92.4852 181.106 92.4852 181.151 92.4852C181.521 92.4852 181.788 92.3858 181.952 92.187C182.119 91.9916 182.203 91.7073 182.203 91.3341V82.7841ZM182.977 81.544C182.705 81.544 182.472 81.4533 182.276 81.2719C182.084 81.087 181.989 80.8673 181.989 80.6126C181.989 80.3545 182.084 80.1347 182.276 79.9533C182.472 79.7684 182.705 79.676 182.977 79.676C183.25 79.676 183.482 79.7684 183.673 79.9533C183.869 80.1347 183.966 80.3545 183.966 80.6126C183.966 80.8673 183.869 81.087 183.673 81.2719C183.482 81.4533 183.25 81.544 182.977 81.544Z" fill="black"/>
<path d="M189.381 90.9835C188.589 90.9835 187.907 90.8143 187.335 90.4759C186.766 90.1341 186.326 89.6544 186.016 89.037C185.709 88.4161 185.556 87.6887 185.556 86.855C185.556 86.0318 185.709 85.3062 186.016 84.6783C186.326 84.0504 186.759 83.5603 187.314 83.208C187.872 82.8556 188.524 82.6795 189.271 82.6795C189.724 82.6795 190.164 82.7545 190.589 82.9045C191.015 83.0545 191.397 83.2899 191.735 83.6109C192.074 83.9318 192.34 84.3487 192.536 84.8614C192.731 85.3707 192.829 85.9899 192.829 86.719V87.2736H186.44V86.1015H191.296C191.296 85.6899 191.212 85.3254 191.044 85.0079C190.877 84.687 190.642 84.4341 190.338 84.2492C190.038 84.0643 189.686 83.9719 189.281 83.9719C188.842 83.9719 188.458 84.08 188.13 84.2963C187.806 84.5091 187.554 84.7882 187.376 85.1335C187.202 85.4754 187.115 85.8469 187.115 86.2481V87.1638C187.115 87.701 187.209 88.1579 187.397 88.5347C187.589 88.9114 187.856 89.1992 188.198 89.398C188.54 89.5934 188.939 89.6911 189.396 89.6911C189.693 89.6911 189.963 89.6492 190.207 89.5655C190.451 89.4783 190.662 89.3492 190.84 89.1783C191.018 89.0073 191.154 88.7963 191.249 88.5451L192.729 88.812C192.611 89.248 192.398 89.63 192.091 89.9579C191.787 90.2823 191.406 90.5352 190.945 90.7166C190.488 90.8945 189.967 90.9835 189.381 90.9835Z" fill="black"/>
<path d="M197.994 90.9835C197.216 90.9835 196.547 90.8073 195.985 90.455C195.427 90.0992 194.998 89.6091 194.698 88.9847C194.398 88.3603 194.248 87.6451 194.248 86.8393C194.248 86.0231 194.401 85.3027 194.708 84.6783C195.015 84.0504 195.448 83.5603 196.006 83.208C196.564 82.8556 197.222 82.6795 197.979 82.6795C198.589 82.6795 199.133 82.7928 199.611 83.0196C200.089 83.2428 200.475 83.5568 200.768 83.9614C201.064 84.3661 201.24 84.8388 201.296 85.3795H199.773C199.69 85.0027 199.498 84.6783 199.198 84.4062C198.901 84.1341 198.504 83.9981 198.005 83.9981C197.569 83.9981 197.187 84.1132 196.859 84.3434C196.534 84.5702 196.282 84.8946 196.1 85.3167C195.919 85.7353 195.828 86.2306 195.828 86.8027C195.828 87.3887 195.917 87.8946 196.095 88.3201C196.273 88.7457 196.524 89.0754 196.848 89.3091C197.176 89.5428 197.562 89.6597 198.005 89.6597C198.301 89.6597 198.57 89.6056 198.811 89.4975C199.055 89.3858 199.259 89.2271 199.423 89.0213C199.59 88.8155 199.707 88.5678 199.773 88.2783H201.296C201.24 88.798 201.071 89.262 200.788 89.6701C200.506 90.0783 200.127 90.3992 199.653 90.6329C199.182 90.8666 198.629 90.9835 197.994 90.9835Z" fill="black"/>
<path d="M206.765 82.7841V84.0399H202.375V82.7841H206.765ZM203.552 80.8586H205.117V88.4614C205.117 88.7649 205.162 88.9934 205.253 89.1469C205.344 89.2969 205.46 89.3998 205.603 89.4556C205.75 89.5079 205.909 89.5341 206.08 89.5341C206.205 89.5341 206.315 89.5254 206.409 89.5079C206.503 89.4905 206.577 89.4765 206.629 89.4661L206.912 90.7585C206.821 90.7934 206.692 90.8283 206.524 90.8631C206.357 90.9015 206.148 90.9225 205.896 90.9259C205.485 90.9329 205.101 90.8597 204.745 90.7062C204.389 90.5527 204.102 90.3155 203.882 89.9945C203.662 89.6736 203.552 89.2707 203.552 88.7858V80.8586Z" fill="black"/>
<path d="M214.433 84.7463L213.015 84.9975C212.956 84.8161 212.862 84.6434 212.732 84.4795C212.607 84.3155 212.436 84.1812 212.22 84.0766C212.003 83.9719 211.733 83.9196 211.409 83.9196C210.966 83.9196 210.596 84.019 210.299 84.2178C210.003 84.4132 209.855 84.6661 209.855 84.9766C209.855 85.2452 209.954 85.4614 210.153 85.6254C210.352 85.7893 210.673 85.9236 211.116 86.0283L212.392 86.3213C213.132 86.4922 213.683 86.7556 214.046 87.1114C214.409 87.4672 214.59 87.9294 214.59 88.498C214.59 88.9794 214.45 89.4085 214.171 89.7852C213.896 90.1585 213.51 90.4515 213.015 90.6643C212.523 90.8771 211.953 90.9835 211.304 90.9835C210.404 90.9835 209.67 90.7916 209.101 90.4079C208.533 90.0207 208.184 89.4713 208.055 88.7597L209.567 88.5294C209.661 88.9236 209.855 89.2219 210.148 89.4242C210.441 89.623 210.823 89.7225 211.294 89.7225C211.806 89.7225 212.216 89.6161 212.523 89.4033C212.83 89.187 212.984 88.9236 212.984 88.6132C212.984 88.362 212.889 88.151 212.701 87.98C212.516 87.8091 212.232 87.68 211.848 87.5928L210.488 87.2946C209.738 87.1236 209.183 86.8515 208.824 86.4783C208.468 86.105 208.29 85.6324 208.29 85.0603C208.29 84.5859 208.423 84.1707 208.688 83.8149C208.953 83.4591 209.319 83.1818 209.787 82.983C210.254 82.7806 210.789 82.6795 211.393 82.6795C212.262 82.6795 212.945 82.8678 213.444 83.2446C213.943 83.6178 214.273 84.1184 214.433 84.7463Z" fill="black"/>
<rect x="157.348" y="109.089" width="374.304" height="211.518" rx="11.0511" fill="#F5F6F8"/>
<path d="M176.874 213.134V202.418H178.491V207.075H183.833V202.418H185.455V213.134H183.833V208.461H178.491V213.134H176.874Z" fill="black"/>
<path d="M191.114 213.296C190.361 213.296 189.703 213.123 189.141 212.778C188.58 212.433 188.144 211.949 187.833 211.329C187.523 210.708 187.368 209.982 187.368 209.152C187.368 208.318 187.523 207.589 187.833 206.965C188.144 206.34 188.58 205.855 189.141 205.51C189.703 205.165 190.361 204.992 191.114 204.992C191.868 204.992 192.525 205.165 193.087 205.51C193.648 205.855 194.084 206.34 194.395 206.965C194.705 207.589 194.861 208.318 194.861 209.152C194.861 209.982 194.705 210.708 194.395 211.329C194.084 211.949 193.648 212.433 193.087 212.778C192.525 213.123 191.868 213.296 191.114 213.296ZM191.119 211.983C191.608 211.983 192.012 211.854 192.333 211.595C192.654 211.337 192.891 210.994 193.045 210.565C193.202 210.136 193.28 209.663 193.28 209.147C193.28 208.634 193.202 208.163 193.045 207.734C192.891 207.301 192.654 206.954 192.333 206.693C192.012 206.431 191.608 206.3 191.119 206.3C190.627 206.3 190.219 206.431 189.895 206.693C189.574 206.954 189.335 207.301 189.178 207.734C189.025 208.163 188.948 208.634 188.948 209.147C188.948 209.663 189.025 210.136 189.178 210.565C189.335 210.994 189.574 211.337 189.895 211.595C190.219 211.854 190.627 211.983 191.119 211.983Z" fill="black"/>
<path d="M196.651 213.134V205.097H198.153V206.405H198.252C198.42 205.962 198.694 205.616 199.074 205.369C199.454 205.118 199.909 204.992 200.439 204.992C200.977 204.992 201.427 205.118 201.789 205.369C202.156 205.62 202.426 205.965 202.601 206.405H202.684C202.876 205.976 203.181 205.634 203.6 205.379C204.019 205.121 204.517 204.992 205.096 204.992C205.825 204.992 206.42 205.22 206.881 205.677C207.345 206.134 207.577 206.823 207.577 207.744V213.134H206.012V207.891C206.012 207.347 205.864 206.952 205.567 206.708C205.271 206.464 204.917 206.342 204.505 206.342C203.996 206.342 203.6 206.499 203.317 206.813C203.035 207.123 202.894 207.523 202.894 208.011V213.134H201.334V207.791C201.334 207.355 201.198 207.005 200.926 206.74C200.654 206.475 200.3 206.342 199.864 206.342C199.567 206.342 199.294 206.42 199.042 206.577C198.795 206.731 198.594 206.945 198.441 207.221C198.291 207.497 198.216 207.816 198.216 208.179V213.134H196.651Z" fill="black"/>
<path d="M213.182 213.296C212.39 213.296 211.708 213.127 211.136 212.788C210.567 212.447 210.128 211.967 209.817 211.349C209.51 210.729 209.357 210.001 209.357 209.168C209.357 208.344 209.51 207.619 209.817 206.991C210.128 206.363 210.56 205.873 211.115 205.52C211.673 205.168 212.325 204.992 213.072 204.992C213.525 204.992 213.965 205.067 214.39 205.217C214.816 205.367 215.198 205.602 215.536 205.923C215.875 206.244 216.142 206.661 216.337 207.174C216.532 207.683 216.63 208.302 216.63 209.031V209.586H210.241V208.414H215.097C215.097 208.002 215.013 207.638 214.846 207.32C214.678 207 214.443 206.747 214.139 206.562C213.839 206.377 213.487 206.284 213.082 206.284C212.643 206.284 212.259 206.393 211.931 206.609C211.607 206.822 211.356 207.101 211.178 207.446C211.003 207.788 210.916 208.159 210.916 208.561V209.476C210.916 210.013 211.01 210.47 211.199 210.847C211.39 211.224 211.657 211.512 211.999 211.711C212.341 211.906 212.74 212.004 213.197 212.004C213.494 212.004 213.764 211.962 214.008 211.878C214.253 211.791 214.464 211.662 214.642 211.491C214.82 211.32 214.956 211.109 215.05 210.858L216.531 211.125C216.412 211.561 216.199 211.943 215.892 212.27C215.589 212.595 215.207 212.848 214.746 213.029C214.289 213.207 213.768 213.296 213.182 213.296Z" fill="black"/>
<path d="M176.874 228.134V217.418H180.694C181.527 217.418 182.218 217.569 182.766 217.873C183.314 218.176 183.723 218.591 183.995 219.118C184.268 219.641 184.404 220.231 184.404 220.887C184.404 221.546 184.266 222.139 183.99 222.666C183.718 223.189 183.307 223.604 182.755 223.911C182.208 224.215 181.519 224.366 180.689 224.366H178.062V222.995H180.542C181.069 222.995 181.496 222.905 181.824 222.723C182.152 222.538 182.393 222.287 182.546 221.97C182.7 221.652 182.776 221.291 182.776 220.887C182.776 220.482 182.7 220.123 182.546 219.809C182.393 219.495 182.15 219.249 181.819 219.071C181.491 218.893 181.058 218.804 180.521 218.804H178.491V228.134H176.874Z" fill="black"/>
<path d="M188.485 228.312C187.975 228.312 187.515 228.218 187.103 228.029C186.692 227.837 186.366 227.56 186.125 227.197C185.888 226.834 185.769 226.39 185.769 225.863C185.769 225.409 185.856 225.036 186.031 224.743C186.205 224.45 186.441 224.218 186.737 224.047C187.034 223.876 187.365 223.747 187.731 223.66C188.098 223.573 188.471 223.506 188.851 223.461C189.332 223.405 189.723 223.36 190.023 223.325C190.323 223.287 190.541 223.226 190.677 223.142C190.813 223.058 190.881 222.922 190.881 222.734V222.697C190.881 222.24 190.752 221.886 190.494 221.635C190.239 221.384 189.859 221.258 189.353 221.258C188.827 221.258 188.411 221.375 188.108 221.609C187.808 221.839 187.6 222.095 187.485 222.378L186.015 222.043C186.189 221.555 186.444 221.161 186.779 220.861C187.117 220.557 187.506 220.337 187.946 220.201C188.385 220.062 188.848 219.992 189.332 219.992C189.653 219.992 189.993 220.03 190.353 220.107C190.716 220.18 191.054 220.316 191.368 220.515C191.685 220.714 191.945 220.998 192.148 221.368C192.35 221.734 192.451 222.211 192.451 222.797V228.134H190.923V227.035H190.86C190.759 227.237 190.607 227.436 190.405 227.631C190.203 227.827 189.943 227.989 189.625 228.118C189.308 228.247 188.928 228.312 188.485 228.312ZM188.825 227.056C189.257 227.056 189.627 226.97 189.934 226.799C190.245 226.629 190.48 226.405 190.641 226.13C190.804 225.851 190.886 225.552 190.886 225.235V224.199C190.831 224.255 190.723 224.307 190.562 224.356C190.405 224.401 190.225 224.441 190.023 224.476C189.821 224.508 189.624 224.537 189.432 224.565C189.24 224.59 189.079 224.611 188.95 224.628C188.647 224.666 188.37 224.731 188.118 224.822C187.871 224.912 187.672 225.043 187.522 225.214C187.375 225.381 187.302 225.605 187.302 225.884C187.302 226.271 187.445 226.564 187.731 226.763C188.017 226.958 188.382 227.056 188.825 227.056Z" fill="black"/>
<path d="M197.949 231.315C197.31 231.315 196.761 231.231 196.301 231.064C195.844 230.897 195.47 230.675 195.181 230.399C194.891 230.124 194.675 229.822 194.532 229.494L195.877 228.94C195.971 229.093 196.096 229.255 196.253 229.426C196.414 229.601 196.63 229.749 196.902 229.871C197.178 229.993 197.532 230.054 197.964 230.054C198.558 230.054 199.048 229.909 199.435 229.62C199.822 229.334 200.016 228.877 200.016 228.249V226.669H199.916C199.822 226.84 199.686 227.03 199.508 227.239C199.334 227.448 199.093 227.63 198.786 227.783C198.479 227.937 198.08 228.013 197.588 228.013C196.953 228.013 196.381 227.865 195.871 227.569C195.366 227.269 194.965 226.827 194.668 226.245C194.375 225.659 194.228 224.938 194.228 224.084C194.228 223.229 194.373 222.497 194.663 221.886C194.956 221.276 195.357 220.808 195.866 220.484C196.376 220.156 196.953 219.992 197.598 219.992C198.097 219.992 198.5 220.076 198.807 220.243C199.114 220.407 199.353 220.599 199.524 220.819C199.698 221.038 199.833 221.232 199.927 221.4H200.042V220.097H201.575V228.312C201.575 229.002 201.414 229.569 201.094 230.012C200.773 230.455 200.338 230.783 199.791 230.996C199.246 231.209 198.633 231.315 197.949 231.315ZM197.933 226.716C198.383 226.716 198.763 226.611 199.074 226.402C199.388 226.189 199.625 225.886 199.785 225.491C199.949 225.094 200.031 224.618 200.031 224.063C200.031 223.522 199.951 223.046 199.791 222.634C199.63 222.223 199.395 221.902 199.084 221.672C198.774 221.438 198.39 221.321 197.933 221.321C197.462 221.321 197.07 221.443 196.756 221.687C196.442 221.928 196.205 222.256 196.044 222.671C195.887 223.086 195.809 223.55 195.809 224.063C195.809 224.59 195.889 225.052 196.049 225.45C196.21 225.847 196.447 226.158 196.761 226.381C197.078 226.604 197.469 226.716 197.933 226.716Z" fill="black"/>
<path d="M207.181 228.296C206.389 228.296 205.707 228.127 205.135 227.788C204.567 227.447 204.127 226.967 203.817 226.349C203.51 225.729 203.356 225.001 203.356 224.168C203.356 223.344 203.51 222.619 203.817 221.991C204.127 221.363 204.56 220.873 205.114 220.52C205.673 220.168 206.325 219.992 207.071 219.992C207.525 219.992 207.964 220.067 208.39 220.217C208.816 220.367 209.198 220.602 209.536 220.923C209.874 221.244 210.141 221.661 210.337 222.174C210.532 222.683 210.63 223.302 210.63 224.031V224.586H204.241V223.414H209.096C209.096 223.002 209.013 222.638 208.845 222.32C208.678 222 208.442 221.747 208.139 221.562C207.839 221.377 207.487 221.284 207.082 221.284C206.642 221.284 206.259 221.393 205.931 221.609C205.606 221.822 205.355 222.101 205.177 222.446C205.003 222.788 204.916 223.159 204.916 223.561V224.476C204.916 225.013 205.01 225.47 205.198 225.847C205.39 226.224 205.657 226.512 205.999 226.711C206.341 226.906 206.74 227.004 207.197 227.004C207.494 227.004 207.764 226.962 208.008 226.878C208.252 226.791 208.463 226.662 208.641 226.491C208.819 226.32 208.955 226.109 209.049 225.858L210.53 226.125C210.412 226.561 210.199 226.943 209.892 227.27C209.588 227.595 209.206 227.848 208.746 228.029C208.289 228.207 207.767 228.296 207.181 228.296Z" fill="black"/>
<rect x="278.447" y="138.519" width="77.9799" height="51.5" rx="3.6837" fill="#FBE0E0"/>
<rect x="278.447" y="239.679" width="77.9799" height="51.5" rx="3.6837" fill="#FFEED9"/>
<rect x="435.324" y="189.099" width="77.9799" height="51.5" rx="3.6837" fill="#D4E2FC"/>
<path d="M219.732 213.469C218.968 213.469 218.356 214.082 218.356 214.848C218.356 215.615 218.968 216.228 219.732 216.228C220.497 216.228 221.108 215.615 221.108 214.848C221.108 214.082 220.497 213.469 219.732 213.469Z" fill="white"/>
<path d="M278.772 265.754C278.952 265.574 278.952 265.283 278.772 265.103L275.842 262.173C275.662 261.993 275.37 261.993 275.19 262.173C275.011 262.352 275.011 262.644 275.19 262.824L277.795 265.429L275.19 268.033C275.011 268.213 275.011 268.505 275.19 268.685C275.37 268.864 275.662 268.864 275.842 268.685L278.772 265.754ZM218.816 214.848C218.816 214.335 219.223 213.929 219.732 213.929V213.008C218.712 213.008 217.895 213.829 217.895 214.848H218.816ZM219.732 213.929C220.241 213.929 220.648 214.335 220.648 214.848H221.569C221.569 213.829 220.752 213.008 219.732 213.008V213.929ZM220.648 214.848C220.648 215.361 220.241 215.767 219.732 215.767V216.688C220.752 216.688 221.569 215.868 221.569 214.848H220.648ZM219.732 215.767C219.223 215.767 218.816 215.361 218.816 214.848H217.895C217.895 215.868 218.712 216.688 219.732 216.688V215.767ZM221.108 215.309H238.038V214.388H221.108V215.309ZM248.629 225.899V254.377H249.55V225.899H248.629ZM260.14 265.889H278.446V264.968H260.14V265.889ZM248.629 254.377C248.629 260.735 253.783 265.889 260.14 265.889V264.968C254.291 264.968 249.55 260.227 249.55 254.377H248.629ZM238.038 215.309C243.887 215.309 248.629 220.05 248.629 225.899H249.55C249.55 219.542 244.396 214.388 238.038 214.388V215.309Z" fill="black"/>
<path d="M219.732 213.468C218.968 213.468 218.356 214.082 218.356 214.848C218.356 215.614 218.968 216.227 219.732 216.227C220.497 216.227 221.108 215.614 221.108 214.848C221.108 214.082 220.497 213.468 219.732 213.468Z" fill="white"/>
<path d="M278.772 164.593C278.952 164.413 278.952 164.122 278.772 163.942L275.842 161.012C275.662 160.832 275.37 160.832 275.19 161.012C275.011 161.191 275.011 161.483 275.19 161.663L277.795 164.268L275.19 166.872C275.011 167.052 275.011 167.344 275.19 167.524C275.37 167.703 275.662 167.703 275.842 167.524L278.772 164.593ZM218.816 214.848C218.816 214.335 219.223 213.929 219.732 213.929V213.008C218.712 213.008 217.895 213.828 217.895 214.848H218.816ZM219.732 213.929C220.241 213.929 220.648 214.335 220.648 214.848H221.569C221.569 213.828 220.752 213.008 219.732 213.008V213.929ZM220.648 214.848C220.648 215.361 220.241 215.767 219.732 215.767V216.688C220.752 216.688 221.569 215.868 221.569 214.848H220.648ZM219.732 215.767C219.223 215.767 218.816 215.361 218.816 214.848H217.895C217.895 215.868 218.712 216.688 219.732 216.688V215.767ZM221.108 215.308H238.038V214.387H221.108V215.308ZM249.55 203.797V175.319H248.629V203.797H249.55ZM260.14 164.728H278.446V163.807H260.14V164.728ZM249.55 175.319C249.55 169.47 254.291 164.728 260.14 164.728V163.807C253.783 163.807 248.629 168.961 248.629 175.319H249.55ZM238.038 215.308C244.396 215.308 249.55 210.154 249.55 203.797H248.629C248.629 209.646 243.887 214.387 238.038 214.387V215.308Z" fill="black"/>
<path d="M356.426 162.888C355.662 162.888 355.05 163.501 355.05 164.267C355.05 165.034 355.662 165.647 356.426 165.647C357.191 165.647 357.803 165.034 357.803 164.267C357.803 163.501 357.191 162.888 356.426 162.888Z" fill="white"/>
<path d="M435.649 215.173C435.829 214.993 435.829 214.702 435.649 214.522L432.719 211.592C432.539 211.412 432.248 211.412 432.068 211.592C431.888 211.771 431.888 212.063 432.068 212.243L434.673 214.848L432.068 217.452C431.888 217.632 431.888 217.924 432.068 218.103C432.248 218.283 432.539 218.283 432.719 218.103L435.649 215.173ZM355.511 164.267C355.511 163.754 355.917 163.348 356.426 163.348V162.427C355.407 162.427 354.59 163.248 354.59 164.267H355.511ZM356.426 163.348C356.936 163.348 357.342 163.754 357.342 164.267H358.263C358.263 163.248 357.446 162.427 356.426 162.427V163.348ZM357.342 164.267C357.342 164.78 356.936 165.186 356.426 165.186V166.107C357.446 166.107 358.263 165.287 358.263 164.267H357.342ZM356.426 165.186C355.917 165.186 355.511 164.78 355.511 164.267H354.59C354.59 165.287 355.407 166.107 356.426 166.107V165.186ZM357.803 164.728H384.824V163.807H357.803V164.728ZM395.415 175.318V203.796H396.336V175.318H395.415ZM406.926 215.308H435.324V214.387H406.926V215.308ZM395.415 203.796C395.415 210.154 400.569 215.308 406.926 215.308V214.387C401.077 214.387 396.336 209.645 396.336 203.796H395.415ZM384.824 164.728C390.673 164.728 395.415 169.469 395.415 175.318H396.336C396.336 168.961 391.182 163.807 384.824 163.807V164.728Z" fill="black"/>
<path d="M356.426 264.049C355.662 264.049 355.05 264.662 355.05 265.428C355.05 266.195 355.662 266.808 356.426 266.808C357.191 266.808 357.803 266.195 357.803 265.428C357.803 264.662 357.191 264.049 356.426 264.049Z" fill="white"/>
<path d="M435.649 215.174C435.829 214.994 435.829 214.702 435.649 214.523L432.719 211.592C432.539 211.412 432.248 211.412 432.068 211.592C431.888 211.772 431.888 212.064 432.068 212.243L434.673 214.848L432.068 217.453C431.888 217.633 431.888 217.924 432.068 218.104C432.248 218.284 432.539 218.284 432.719 218.104L435.649 215.174ZM355.511 265.428C355.511 264.915 355.917 264.509 356.426 264.509V263.589C355.407 263.589 354.59 264.409 354.59 265.428H355.511ZM356.426 264.509C356.936 264.509 357.342 264.915 357.342 265.428H358.263C358.263 264.409 357.446 263.589 356.426 263.589V264.509ZM357.342 265.428C357.342 265.942 356.936 266.348 356.426 266.348V267.268C357.446 267.268 358.263 266.448 358.263 265.428H357.342ZM356.426 266.348C355.917 266.348 355.511 265.942 355.511 265.428H354.59C354.59 266.448 355.407 267.268 356.426 267.268V266.348ZM357.803 265.889H384.824V264.968H357.803V265.889ZM396.336 254.377V225.899H395.415V254.377H396.336ZM406.926 215.309H435.324V214.388H406.926V215.309ZM396.336 225.899C396.336 220.05 401.077 215.309 406.926 215.309V214.388C400.569 214.388 395.415 219.542 395.415 225.899H396.336ZM384.824 265.889C391.182 265.889 396.336 260.735 396.336 254.377H395.415C395.415 260.226 390.673 264.968 384.824 264.968V265.889Z" fill="black"/>
<path d="M290.994 168.75L288.765 160.713H290.041L291.606 166.937H291.681L293.31 160.713H294.573L296.202 166.941H296.276L297.838 160.713H299.118L296.885 168.75H295.664L293.973 162.73H293.91L292.219 168.75H290.994Z" fill="#7B2F2F"/>
<path d="M300.162 168.75V162.722H301.336V168.75H300.162ZM300.755 161.792C300.551 161.792 300.376 161.724 300.229 161.588C300.085 161.449 300.013 161.284 300.013 161.094C300.013 160.9 300.085 160.735 300.229 160.599C300.376 160.46 300.551 160.391 300.755 160.391C300.959 160.391 301.133 160.46 301.277 160.599C301.423 160.735 301.497 160.9 301.497 161.094C301.497 161.284 301.423 161.449 301.277 161.588C301.133 161.724 300.959 161.792 300.755 161.792Z" fill="#7B2F2F"/>
<path d="M302.947 168.75V162.722H304.082V163.68H304.144C304.254 163.355 304.448 163.1 304.725 162.914C305.005 162.726 305.322 162.632 305.675 162.632C305.748 162.632 305.835 162.634 305.934 162.64C306.036 162.645 306.116 162.651 306.173 162.659V163.782C306.126 163.769 306.043 163.754 305.922 163.739C305.802 163.72 305.681 163.711 305.561 163.711C305.284 163.711 305.037 163.77 304.819 163.888C304.605 164.003 304.435 164.164 304.309 164.37C304.184 164.574 304.121 164.807 304.121 165.069V168.75H302.947Z" fill="#7B2F2F"/>
<path d="M309.604 168.872C309.01 168.872 308.499 168.745 308.07 168.491C307.643 168.235 307.314 167.875 307.081 167.412C306.85 166.946 306.735 166.401 306.735 165.775C306.735 165.158 306.85 164.614 307.081 164.143C307.314 163.672 307.638 163.304 308.054 163.04C308.473 162.776 308.962 162.644 309.522 162.644C309.862 162.644 310.191 162.7 310.511 162.812C310.83 162.925 311.116 163.101 311.37 163.342C311.624 163.583 311.824 163.896 311.97 164.28C312.117 164.662 312.19 165.126 312.19 165.673V166.089H307.399V165.21H311.04C311.04 164.901 310.978 164.628 310.852 164.39C310.726 164.149 310.55 163.96 310.322 163.821C310.097 163.682 309.833 163.613 309.529 163.613C309.2 163.613 308.912 163.694 308.666 163.856C308.423 164.016 308.234 164.225 308.101 164.484C307.97 164.741 307.905 165.019 307.905 165.32V166.007C307.905 166.41 307.975 166.752 308.117 167.035C308.261 167.318 308.461 167.533 308.717 167.683C308.974 167.829 309.273 167.902 309.616 167.902C309.838 167.902 310.041 167.871 310.224 167.808C310.407 167.743 310.566 167.646 310.699 167.518C310.832 167.39 310.934 167.231 311.005 167.043L312.116 167.243C312.027 167.57 311.867 167.857 311.637 168.102C311.409 168.346 311.123 168.535 310.777 168.672C310.435 168.805 310.044 168.872 309.604 168.872Z" fill="#7B2F2F"/>
<path d="M313.619 168.75V160.713H318.603V161.757H314.832V164.206H318.246V165.246H314.832V168.75H313.619Z" fill="#7B2F2F"/>
<path d="M319.958 168.75V162.722H321.092V163.68H321.155C321.265 163.355 321.459 163.1 321.736 162.914C322.016 162.726 322.332 162.632 322.686 162.632C322.759 162.632 322.845 162.634 322.945 162.64C323.047 162.645 323.126 162.651 323.184 162.659V163.782C323.137 163.769 323.053 163.754 322.933 163.739C322.813 163.72 322.692 163.711 322.572 163.711C322.294 163.711 322.047 163.77 321.83 163.888C321.616 164.003 321.446 164.164 321.32 164.37C321.194 164.574 321.132 164.807 321.132 165.069V168.75H319.958Z" fill="#7B2F2F"/>
<path d="M325.933 168.883C325.551 168.883 325.206 168.813 324.897 168.672C324.588 168.528 324.343 168.32 324.163 168.048C323.985 167.775 323.896 167.442 323.896 167.047C323.896 166.707 323.962 166.427 324.092 166.207C324.223 165.987 324.4 165.813 324.622 165.685C324.844 165.557 325.093 165.46 325.368 165.395C325.642 165.329 325.922 165.28 326.208 165.246C326.569 165.204 326.862 165.17 327.087 165.143C327.312 165.115 327.475 165.069 327.577 165.006C327.679 164.943 327.73 164.841 327.73 164.7V164.673C327.73 164.33 327.633 164.064 327.44 163.876C327.249 163.688 326.964 163.593 326.584 163.593C326.189 163.593 325.878 163.681 325.65 163.856C325.425 164.029 325.27 164.221 325.183 164.433L324.081 164.182C324.211 163.816 324.402 163.52 324.654 163.295C324.907 163.067 325.199 162.903 325.529 162.801C325.858 162.696 326.205 162.644 326.569 162.644C326.809 162.644 327.064 162.672 327.334 162.73C327.606 162.785 327.86 162.887 328.095 163.036C328.333 163.185 328.528 163.398 328.68 163.676C328.832 163.95 328.908 164.308 328.908 164.747V168.75H327.762V167.926H327.715C327.639 168.078 327.525 168.227 327.373 168.373C327.221 168.52 327.026 168.641 326.788 168.738C326.55 168.835 326.265 168.883 325.933 168.883ZM326.188 167.942C326.512 167.942 326.79 167.877 327.02 167.749C327.253 167.621 327.429 167.454 327.55 167.247C327.673 167.038 327.734 166.814 327.734 166.576V165.799C327.692 165.841 327.611 165.88 327.491 165.917C327.373 165.951 327.238 165.981 327.087 166.007C326.935 166.03 326.787 166.053 326.643 166.074C326.499 166.092 326.379 166.108 326.282 166.121C326.055 166.149 325.847 166.198 325.658 166.266C325.472 166.334 325.323 166.432 325.211 166.56C325.101 166.686 325.046 166.853 325.046 167.063C325.046 167.353 325.153 167.573 325.368 167.722C325.582 167.868 325.856 167.942 326.188 167.942Z" fill="#7B2F2F"/>
<path d="M330.504 168.75V162.722H331.63V163.703H331.704C331.83 163.371 332.035 163.112 332.321 162.926C332.606 162.738 332.947 162.644 333.345 162.644C333.748 162.644 334.085 162.738 334.357 162.926C334.632 163.115 334.835 163.374 334.966 163.703H335.028C335.172 163.381 335.401 163.125 335.715 162.934C336.029 162.74 336.403 162.644 336.838 162.644C337.384 162.644 337.83 162.815 338.176 163.158C338.524 163.5 338.698 164.017 338.698 164.708V168.75H337.524V164.818C337.524 164.41 337.413 164.114 337.191 163.931C336.968 163.748 336.703 163.656 336.394 163.656C336.012 163.656 335.715 163.774 335.503 164.009C335.291 164.242 335.185 164.542 335.185 164.908V168.75H334.016V164.743C334.016 164.416 333.914 164.153 333.71 163.954C333.506 163.756 333.24 163.656 332.913 163.656C332.691 163.656 332.485 163.715 332.297 163.833C332.111 163.948 331.961 164.109 331.846 164.315C331.733 164.522 331.677 164.762 331.677 165.034V168.75H330.504Z" fill="#7B2F2F"/>
<path d="M342.902 168.872C342.308 168.872 341.796 168.745 341.367 168.491C340.941 168.235 340.611 167.875 340.378 167.412C340.148 166.946 340.033 166.401 340.033 165.775C340.033 165.158 340.148 164.614 340.378 164.143C340.611 163.672 340.935 163.304 341.351 163.04C341.77 162.776 342.259 162.644 342.819 162.644C343.159 162.644 343.489 162.7 343.808 162.812C344.127 162.925 344.414 163.101 344.668 163.342C344.921 163.583 345.121 163.896 345.268 164.28C345.414 164.662 345.488 165.126 345.488 165.673V166.089H340.696V165.21H344.338C344.338 164.901 344.275 164.628 344.149 164.39C344.024 164.149 343.847 163.96 343.62 163.821C343.395 163.682 343.13 163.613 342.827 163.613C342.497 163.613 342.21 163.694 341.964 163.856C341.72 164.016 341.532 164.225 341.398 164.484C341.268 164.741 341.202 165.019 341.202 165.32V166.007C341.202 166.41 341.273 166.752 341.414 167.035C341.558 167.318 341.758 167.533 342.015 167.683C342.271 167.829 342.571 167.902 342.913 167.902C343.136 167.902 343.338 167.871 343.522 167.808C343.705 167.743 343.863 167.646 343.996 167.518C344.13 167.39 344.232 167.231 344.303 167.043L345.413 167.243C345.324 167.57 345.165 167.857 344.934 168.102C344.707 168.346 344.42 168.535 344.075 168.672C343.732 168.805 343.341 168.872 342.902 168.872Z" fill="#7B2F2F"/>
<path d="M286.669 261.873H288.14L290.699 268.121H290.793L293.352 261.873H294.824V269.911H293.67V264.095H293.595L291.225 269.899H290.267L287.897 264.091H287.823V269.911H286.669V261.873Z" fill="#B15410"/>
<path d="M299.065 270.032C298.5 270.032 298.006 269.903 297.585 269.644C297.164 269.385 296.837 269.022 296.604 268.557C296.371 268.091 296.255 267.547 296.255 266.924C296.255 266.299 296.371 265.752 296.604 265.284C296.837 264.815 297.164 264.452 297.585 264.193C298.006 263.934 298.5 263.804 299.065 263.804C299.63 263.804 300.123 263.934 300.544 264.193C300.965 264.452 301.292 264.815 301.525 265.284C301.758 265.752 301.875 266.299 301.875 266.924C301.875 267.547 301.758 268.091 301.525 268.557C301.292 269.022 300.965 269.385 300.544 269.644C300.123 269.903 299.63 270.032 299.065 270.032ZM299.069 269.047C299.435 269.047 299.738 268.95 299.979 268.757C300.22 268.563 300.398 268.306 300.513 267.984C300.631 267.662 300.689 267.307 300.689 266.92C300.689 266.536 300.631 266.182 300.513 265.861C300.398 265.536 300.22 265.276 299.979 265.08C299.738 264.883 299.435 264.785 299.069 264.785C298.7 264.785 298.394 264.883 298.15 265.08C297.91 265.276 297.73 265.536 297.613 265.861C297.498 266.182 297.44 266.536 297.44 266.92C297.44 267.307 297.498 267.662 297.613 267.984C297.73 268.306 297.91 268.563 298.15 268.757C298.394 268.95 298.7 269.047 299.069 269.047Z" fill="#B15410"/>
<path d="M305.757 270.032C305.191 270.032 304.698 269.903 304.277 269.644C303.856 269.385 303.529 269.022 303.296 268.557C303.063 268.091 302.947 267.547 302.947 266.924C302.947 266.299 303.063 265.752 303.296 265.284C303.529 264.815 303.856 264.452 304.277 264.193C304.698 263.934 305.191 263.804 305.757 263.804C306.322 263.804 306.815 263.934 307.236 264.193C307.657 264.452 307.984 264.815 308.217 265.284C308.45 265.752 308.566 266.299 308.566 266.924C308.566 267.547 308.45 268.091 308.217 268.557C307.984 269.022 307.657 269.385 307.236 269.644C306.815 269.903 306.322 270.032 305.757 270.032ZM305.761 269.047C306.127 269.047 306.43 268.95 306.671 268.757C306.912 268.563 307.09 268.306 307.205 267.984C307.322 267.662 307.381 267.307 307.381 266.92C307.381 266.536 307.322 266.182 307.205 265.861C307.09 265.536 306.912 265.276 306.671 265.08C306.43 264.883 306.127 264.785 305.761 264.785C305.392 264.785 305.086 264.883 304.842 265.08C304.602 265.276 304.422 265.536 304.305 265.861C304.189 266.182 304.132 266.536 304.132 266.92C304.132 267.307 304.189 267.662 304.305 267.984C304.422 268.306 304.602 268.563 304.842 268.757C305.086 268.95 305.392 269.047 305.761 269.047Z" fill="#B15410"/>
<path d="M312.166 270.028C311.679 270.028 311.245 269.904 310.863 269.656C310.484 269.404 310.185 269.047 309.968 268.584C309.754 268.118 309.646 267.56 309.646 266.908C309.646 266.257 309.755 265.7 309.972 265.237C310.192 264.774 310.493 264.419 310.875 264.173C311.257 263.927 311.69 263.804 312.174 263.804C312.548 263.804 312.849 263.867 313.076 263.993C313.307 264.116 313.485 264.26 313.61 264.424C313.738 264.589 313.838 264.734 313.908 264.86H313.979V261.873H315.152V269.911H314.006V268.973H313.908C313.838 269.101 313.736 269.247 313.602 269.412C313.471 269.577 313.291 269.721 313.061 269.844C312.83 269.967 312.532 270.028 312.166 270.028ZM312.425 269.028C312.762 269.028 313.048 268.939 313.28 268.761C313.516 268.58 313.694 268.33 313.814 268.011C313.937 267.692 313.999 267.321 313.999 266.897C313.999 266.478 313.938 266.112 313.818 265.798C313.698 265.484 313.521 265.239 313.288 265.064C313.055 264.889 312.768 264.801 312.425 264.801C312.072 264.801 311.777 264.893 311.542 265.076C311.306 265.259 311.129 265.509 311.008 265.825C310.89 266.142 310.832 266.499 310.832 266.897C310.832 267.3 310.892 267.662 311.012 267.984C311.132 268.306 311.31 268.561 311.546 268.749C311.784 268.935 312.077 269.028 312.425 269.028Z" fill="#B15410"/>
<path d="M316.954 269.911V261.873H319.898C320.468 261.873 320.94 261.968 321.314 262.156C321.689 262.342 321.969 262.594 322.154 262.913C322.34 263.23 322.433 263.587 322.433 263.985C322.433 264.32 322.371 264.602 322.248 264.832C322.125 265.06 321.961 265.243 321.754 265.382C321.55 265.518 321.325 265.617 321.079 265.68V265.759C321.346 265.772 321.606 265.858 321.86 266.018C322.116 266.175 322.328 266.398 322.496 266.689C322.663 266.979 322.747 267.332 322.747 267.748C322.747 268.159 322.65 268.528 322.456 268.855C322.265 269.179 321.97 269.437 321.57 269.628C321.169 269.816 320.658 269.911 320.035 269.911H316.954ZM318.167 268.871H319.917C320.498 268.871 320.914 268.758 321.165 268.533C321.416 268.308 321.542 268.027 321.542 267.689C321.542 267.436 321.478 267.203 321.35 266.991C321.222 266.779 321.038 266.61 320.8 266.485C320.565 266.359 320.285 266.296 319.961 266.296H318.167V268.871ZM318.167 265.35H319.792C320.064 265.35 320.309 265.298 320.526 265.194C320.745 265.089 320.919 264.942 321.048 264.754C321.178 264.563 321.244 264.338 321.244 264.079C321.244 263.747 321.127 263.468 320.895 263.243C320.662 263.018 320.305 262.906 319.823 262.906H318.167V265.35Z" fill="#B15410"/>
<path d="M326.663 270.032C326.098 270.032 325.605 269.903 325.184 269.644C324.762 269.385 324.435 269.022 324.203 268.557C323.97 268.091 323.853 267.547 323.853 266.924C323.853 266.299 323.97 265.752 324.203 265.284C324.435 264.815 324.762 264.452 325.184 264.193C325.605 263.934 326.098 263.804 326.663 263.804C327.228 263.804 327.721 263.934 328.143 264.193C328.564 264.452 328.891 264.815 329.124 265.284C329.357 265.752 329.473 266.299 329.473 266.924C329.473 267.547 329.357 268.091 329.124 268.557C328.891 269.022 328.564 269.385 328.143 269.644C327.721 269.903 327.228 270.032 326.663 270.032ZM326.667 269.047C327.033 269.047 327.337 268.95 327.578 268.757C327.818 268.563 327.996 268.306 328.111 267.984C328.229 267.662 328.288 267.307 328.288 266.92C328.288 266.536 328.229 266.182 328.111 265.861C327.996 265.536 327.818 265.276 327.578 265.08C327.337 264.883 327.033 264.785 326.667 264.785C326.298 264.785 325.992 264.883 325.749 265.08C325.508 265.276 325.329 265.536 325.211 265.861C325.096 266.182 325.039 266.536 325.039 266.92C325.039 267.307 325.096 267.662 325.211 267.984C325.329 268.306 325.508 268.563 325.749 268.757C325.992 268.95 326.298 269.047 326.667 269.047Z" fill="#B15410"/>
<path d="M288.329 281.044C287.947 281.044 287.601 280.973 287.293 280.832C286.984 280.688 286.739 280.48 286.559 280.208C286.381 279.936 286.292 279.603 286.292 279.207C286.292 278.867 286.357 278.587 286.488 278.368C286.619 278.148 286.796 277.974 287.018 277.846C287.24 277.717 287.489 277.621 287.764 277.555C288.038 277.49 288.318 277.44 288.603 277.406C288.965 277.364 289.258 277.33 289.483 277.304C289.708 277.275 289.871 277.23 289.973 277.167C290.075 277.104 290.126 277.002 290.126 276.861V276.833C290.126 276.49 290.029 276.225 289.836 276.037C289.645 275.848 289.36 275.754 288.98 275.754C288.585 275.754 288.274 275.842 288.046 276.017C287.821 276.19 287.666 276.382 287.579 276.594L286.476 276.343C286.607 275.976 286.798 275.681 287.049 275.456C287.303 275.228 287.595 275.063 287.925 274.961C288.254 274.857 288.601 274.804 288.965 274.804C289.205 274.804 289.46 274.833 289.73 274.891C290.002 274.946 290.256 275.048 290.491 275.197C290.729 275.346 290.924 275.559 291.076 275.836C291.228 276.111 291.303 276.468 291.303 276.908V280.911H290.158V280.087H290.11C290.035 280.238 289.921 280.387 289.769 280.534C289.617 280.68 289.422 280.802 289.184 280.899C288.946 280.996 288.661 281.044 288.329 281.044ZM288.584 280.102C288.908 280.102 289.186 280.038 289.416 279.91C289.649 279.782 289.825 279.614 289.946 279.408C290.069 279.198 290.13 278.975 290.13 278.737V277.959C290.088 278.001 290.007 278.041 289.887 278.077C289.769 278.111 289.634 278.141 289.483 278.167C289.331 278.191 289.183 278.213 289.039 278.234C288.895 278.253 288.775 278.268 288.678 278.281C288.45 278.31 288.242 278.358 288.054 278.426C287.868 278.495 287.719 278.593 287.607 278.721C287.497 278.846 287.442 279.014 287.442 279.223C287.442 279.514 287.549 279.733 287.764 279.882C287.978 280.029 288.252 280.102 288.584 280.102Z" fill="#B15410"/>
<path d="M292.899 280.911V274.883H294.034V275.84H294.096C294.206 275.516 294.4 275.261 294.677 275.075C294.957 274.887 295.274 274.793 295.627 274.793C295.7 274.793 295.787 274.795 295.886 274.8C295.988 274.806 296.068 274.812 296.125 274.82V275.942C296.078 275.929 295.995 275.915 295.874 275.899C295.754 275.881 295.633 275.872 295.513 275.872C295.236 275.872 294.989 275.931 294.771 276.048C294.557 276.163 294.387 276.324 294.261 276.531C294.136 276.735 294.073 276.968 294.073 277.23V280.911H292.899Z" fill="#B15410"/>
<path d="M299.215 281.028C298.728 281.028 298.294 280.904 297.912 280.656C297.532 280.404 297.234 280.047 297.017 279.584C296.802 279.118 296.695 278.56 296.695 277.908C296.695 277.257 296.804 276.7 297.021 276.237C297.241 275.774 297.542 275.419 297.923 275.173C298.305 274.927 298.738 274.804 299.222 274.804C299.597 274.804 299.897 274.867 300.125 274.993C300.355 275.116 300.533 275.26 300.659 275.424C300.787 275.589 300.886 275.734 300.957 275.86H301.028V272.873H302.201V280.911H301.055V279.973H300.957C300.886 280.101 300.784 280.247 300.651 280.412C300.52 280.577 300.34 280.721 300.109 280.844C299.879 280.967 299.581 281.028 299.215 281.028ZM299.474 280.028C299.811 280.028 300.096 279.939 300.329 279.761C300.565 279.58 300.743 279.33 300.863 279.011C300.986 278.692 301.047 278.321 301.047 277.897C301.047 277.478 300.987 277.112 300.867 276.798C300.746 276.484 300.57 276.239 300.337 276.064C300.104 275.889 299.816 275.801 299.474 275.801C299.12 275.801 298.826 275.893 298.591 276.076C298.355 276.259 298.177 276.509 298.057 276.825C297.939 277.142 297.88 277.499 297.88 277.897C297.88 278.3 297.941 278.662 298.061 278.984C298.181 279.306 298.359 279.561 298.595 279.749C298.833 279.935 299.126 280.028 299.474 280.028Z" fill="#B15410"/>
<path d="M449.05 219.331V211.293H450.263V214.786H454.27V211.293H455.486V219.331H454.27V215.826H450.263V219.331H449.05Z" fill="#254379"/>
<path d="M457.191 219.331V213.303H458.365V219.331H457.191ZM457.784 212.373C457.58 212.373 457.404 212.305 457.258 212.169C457.114 212.03 457.042 211.865 457.042 211.674C457.042 211.48 457.114 211.316 457.258 211.18C457.404 211.041 457.58 210.972 457.784 210.972C457.988 210.972 458.162 211.041 458.306 211.18C458.452 211.316 458.526 211.48 458.526 211.674C458.526 211.865 458.452 212.03 458.306 212.169C458.162 212.305 457.988 212.373 457.784 212.373Z" fill="#254379"/>
<path d="M463.528 215.426V216.442H459.965V215.426H463.528Z" fill="#254379"/>
<path d="M465.219 219.331V211.293H470.203V212.337H466.432V214.786H469.846V215.826H466.432V219.331H465.219Z" fill="#254379"/>
<path d="M471.633 219.331V213.303H472.807V219.331H471.633ZM472.226 212.373C472.022 212.373 471.847 212.305 471.7 212.169C471.556 212.03 471.484 211.865 471.484 211.674C471.484 211.48 471.556 211.316 471.7 211.18C471.847 211.041 472.022 210.972 472.226 210.972C472.43 210.972 472.604 211.041 472.748 211.18C472.894 211.316 472.968 211.48 472.968 211.674C472.968 211.865 472.894 212.03 472.748 212.169C472.604 212.305 472.43 212.373 472.226 212.373Z" fill="#254379"/>
<path d="M476.675 219.448C476.188 219.448 475.754 219.324 475.372 219.075C474.993 218.824 474.695 218.467 474.477 218.004C474.263 217.538 474.156 216.98 474.156 216.328C474.156 215.677 474.264 215.12 474.481 214.657C474.701 214.194 475.002 213.839 475.384 213.593C475.766 213.347 476.199 213.224 476.683 213.224C477.057 213.224 477.358 213.287 477.586 213.413C477.816 213.536 477.994 213.679 478.119 213.844C478.247 214.009 478.347 214.154 478.417 214.28H478.488V211.293H479.662V219.331H478.516V218.393H478.417C478.347 218.521 478.245 218.667 478.111 218.832C477.981 218.997 477.8 219.141 477.57 219.264C477.34 219.387 477.041 219.448 476.675 219.448ZM476.934 218.448C477.272 218.448 477.557 218.359 477.79 218.181C478.025 218 478.203 217.75 478.323 217.431C478.446 217.112 478.508 216.74 478.508 216.317C478.508 215.898 478.448 215.532 478.327 215.218C478.207 214.904 478.03 214.659 477.797 214.484C477.565 214.309 477.277 214.221 476.934 214.221C476.581 214.221 476.287 214.313 476.051 214.496C475.816 214.679 475.638 214.929 475.517 215.245C475.4 215.562 475.341 215.919 475.341 216.317C475.341 216.72 475.401 217.082 475.521 217.404C475.642 217.725 475.82 217.981 476.055 218.169C476.293 218.355 476.586 218.448 476.934 218.448Z" fill="#254379"/>
<path d="M483.967 219.452C483.373 219.452 482.862 219.325 482.433 219.072C482.006 218.815 481.677 218.455 481.444 217.992C481.214 217.527 481.099 216.981 481.099 216.356C481.099 215.738 481.214 215.194 481.444 214.723C481.677 214.252 482.001 213.885 482.417 213.621C482.836 213.356 483.325 213.224 483.885 213.224C484.225 213.224 484.555 213.28 484.874 213.393C485.193 213.505 485.48 213.682 485.733 213.923C485.987 214.163 486.187 214.476 486.334 214.861C486.48 215.243 486.554 215.707 486.554 216.254V216.67H481.762V215.791H485.404C485.404 215.482 485.341 215.209 485.215 214.971C485.09 214.73 484.913 214.54 484.686 214.402C484.461 214.263 484.196 214.194 483.893 214.194C483.563 214.194 483.275 214.275 483.029 214.437C482.786 214.596 482.598 214.806 482.464 215.065C482.334 215.321 482.268 215.6 482.268 215.901V216.587C482.268 216.99 482.339 217.333 482.48 217.616C482.624 217.898 482.824 218.114 483.08 218.263C483.337 218.41 483.636 218.483 483.979 218.483C484.202 218.483 484.404 218.452 484.587 218.389C484.771 218.323 484.929 218.227 485.062 218.098C485.196 217.97 485.298 217.812 485.368 217.623L486.479 217.824C486.39 218.151 486.23 218.437 486 218.683C485.773 218.926 485.486 219.116 485.141 219.252C484.798 219.386 484.407 219.452 483.967 219.452Z" fill="#254379"/>
<path d="M489.062 211.293V219.331H487.889V211.293H489.062Z" fill="#254379"/>
<path d="M493.488 213.303V214.245H490.195V213.303H493.488ZM491.078 211.859H492.251V217.561C492.251 217.788 492.285 217.96 492.353 218.075C492.421 218.187 492.509 218.264 492.616 218.306C492.726 218.346 492.845 218.365 492.973 218.365C493.068 218.365 493.15 218.359 493.221 218.346C493.291 218.332 493.346 218.322 493.386 218.314L493.597 219.283C493.529 219.31 493.433 219.336 493.307 219.362C493.181 219.391 493.024 219.406 492.836 219.409C492.527 219.414 492.24 219.359 491.973 219.244C491.706 219.129 491.49 218.951 491.325 218.711C491.16 218.47 491.078 218.168 491.078 217.804V211.859Z" fill="#254379"/>
<path d="M495.56 221.591C495.385 221.591 495.226 221.577 495.082 221.548C494.938 221.522 494.83 221.493 494.76 221.462L495.042 220.5C495.257 220.558 495.448 220.582 495.615 220.575C495.783 220.567 495.931 220.504 496.059 220.386C496.19 220.269 496.305 220.076 496.404 219.809L496.549 219.409L494.344 213.303H495.6L497.126 217.981H497.189L498.716 213.303H499.975L497.491 220.135C497.376 220.449 497.23 220.715 497.052 220.932C496.874 221.151 496.662 221.316 496.416 221.426C496.17 221.536 495.885 221.591 495.56 221.591Z" fill="#254379"/>
<g filter="url(#filter1_d_791_338)">
<rect x="31" y="238.423" width="262.614" height="176.907" rx="14.2841" fill="white"/>
</g>
<path d="M55.4511 276.957H54.1201L57.1108 268.646H58.5595L61.5503 276.957H60.2192L57.8697 270.155H57.8048L55.4511 276.957ZM55.6743 273.702H59.992V274.757H55.6743V273.702Z" fill="black"/>
<path d="M65.3923 277.082C64.7891 277.082 64.2696 276.946 63.8341 276.672C63.4012 276.397 63.0685 276.016 62.8358 275.532C62.6032 275.048 62.4868 274.493 62.4868 273.868C62.4868 273.235 62.6059 272.677 62.8439 272.192C63.082 271.706 63.4175 271.325 63.8503 271.052C64.2832 270.779 64.7931 270.642 65.3802 270.642C65.8536 270.642 66.2756 270.73 66.6463 270.906C67.0169 271.079 67.3158 271.323 67.5431 271.637C67.773 271.95 67.9096 272.317 67.9529 272.736H66.7721C66.7071 272.444 66.5583 272.192 66.3257 271.981C66.0957 271.77 65.7873 271.665 65.4005 271.665C65.0623 271.665 64.7661 271.754 64.5118 271.933C64.2602 272.109 64.064 272.36 63.9234 272.688C63.7827 273.012 63.7123 273.396 63.7123 273.84C63.7123 274.295 63.7813 274.687 63.9193 275.017C64.0573 275.347 64.2521 275.603 64.5036 275.784C64.7579 275.965 65.0569 276.056 65.4005 276.056C65.6304 276.056 65.8387 276.014 66.0254 275.93C66.2148 275.843 66.373 275.72 66.5002 275.561C66.63 275.401 66.7207 275.209 66.7721 274.984H67.9529C67.9096 275.387 67.7784 275.747 67.5593 276.064C67.3402 276.38 67.0466 276.629 66.6787 276.81C66.3135 276.992 65.8847 277.082 65.3923 277.082Z" fill="black"/>
<path d="M72.3743 270.723V271.697H68.9696V270.723H72.3743ZM69.8827 269.23H71.096V275.126C71.096 275.362 71.1312 275.539 71.2015 275.658C71.2719 275.774 71.3625 275.854 71.4734 275.897C71.587 275.938 71.7101 275.958 71.8427 275.958C71.9401 275.958 72.0253 275.952 72.0983 275.938C72.1714 275.924 72.2282 275.914 72.2688 275.906L72.4879 276.908C72.4176 276.935 72.3175 276.962 72.1876 276.989C72.0578 277.019 71.8954 277.035 71.7007 277.038C71.3814 277.043 71.0838 276.986 70.8079 276.867C70.532 276.748 70.3088 276.564 70.1383 276.315C69.9679 276.066 69.8827 275.754 69.8827 275.378V269.23Z" fill="black"/>
<path d="M73.9307 276.957V270.723H75.144V276.957H73.9307ZM74.5435 269.762C74.3325 269.762 74.1512 269.691 73.9997 269.551C73.8509 269.407 73.7765 269.237 73.7765 269.039C73.7765 268.839 73.8509 268.669 73.9997 268.528C74.1512 268.385 74.3325 268.313 74.5435 268.313C74.7545 268.313 74.9344 268.385 75.0832 268.528C75.2347 268.669 75.3104 268.839 75.3104 269.039C75.3104 269.237 75.2347 269.407 75.0832 269.551C74.9344 269.691 74.7545 269.762 74.5435 269.762Z" fill="black"/>
<path d="M82.3228 270.723L80.0625 276.957H78.764L76.4996 270.723H77.8022L79.3808 275.52H79.4457L81.0202 270.723H82.3228Z" fill="black"/>
<path d="M83.6773 276.957V270.723H84.8907V276.957H83.6773ZM84.2901 269.762C84.0791 269.762 83.8978 269.691 83.7463 269.551C83.5975 269.407 83.5231 269.237 83.5231 269.039C83.5231 268.839 83.5975 268.669 83.7463 268.528C83.8978 268.385 84.0791 268.313 84.2901 268.313C84.5011 268.313 84.681 268.385 84.8298 268.528C84.9813 268.669 85.0571 268.839 85.0571 269.039C85.0571 269.237 84.9813 269.407 84.8298 269.551C84.681 269.691 84.5011 269.762 84.2901 269.762Z" fill="black"/>
<path d="M89.6468 270.723V271.697H86.2422V270.723H89.6468ZM87.1552 269.23H88.3686V275.126C88.3686 275.362 88.4037 275.539 88.4741 275.658C88.5444 275.774 88.635 275.854 88.7459 275.897C88.8596 275.938 88.9827 275.958 89.1152 275.958C89.2126 275.958 89.2978 275.952 89.3709 275.938C89.4439 275.924 89.5007 275.914 89.5413 275.906L89.7604 276.908C89.6901 276.935 89.59 276.962 89.4602 276.989C89.3303 277.019 89.168 277.035 88.9732 277.038C88.654 277.043 88.3564 276.986 88.0804 276.867C87.8045 276.748 87.5813 276.564 87.4109 276.315C87.2404 276.066 87.1552 275.754 87.1552 275.378V269.23Z" fill="black"/>
<path d="M91.9702 279.294C91.789 279.294 91.6239 279.279 91.4751 279.249C91.3263 279.222 91.2154 279.192 91.1424 279.16L91.4346 278.166C91.6564 278.225 91.8539 278.251 92.027 278.243C92.2002 278.235 92.353 278.17 92.4856 278.048C92.6208 277.926 92.7399 277.728 92.8427 277.452L92.9928 277.038L90.7122 270.723H92.0108L93.5893 275.561H93.6543L95.2328 270.723H96.5354L93.9667 277.788C93.8477 278.113 93.6962 278.388 93.5122 278.612C93.3283 278.839 93.1091 279.01 92.8548 279.123C92.6005 279.237 92.3057 279.294 91.9702 279.294Z" fill="black"/>
<path d="M101.128 279.294V270.723H102.313V271.734H102.415C102.485 271.604 102.587 271.454 102.719 271.283C102.852 271.113 103.036 270.964 103.271 270.837C103.506 270.707 103.818 270.642 104.204 270.642C104.708 270.642 105.157 270.769 105.552 271.024C105.947 271.278 106.256 271.645 106.481 272.123C106.708 272.602 106.822 273.179 106.822 273.852C106.822 274.526 106.709 275.103 106.485 275.585C106.26 276.064 105.952 276.433 105.56 276.693C105.167 276.95 104.72 277.078 104.217 277.078C103.838 277.078 103.528 277.015 103.287 276.888C103.049 276.76 102.863 276.612 102.727 276.441C102.592 276.271 102.488 276.119 102.415 275.987H102.342V279.294H101.128ZM102.317 273.84C102.317 274.278 102.381 274.662 102.508 274.992C102.635 275.323 102.819 275.581 103.06 275.768C103.301 275.952 103.596 276.043 103.945 276.043C104.307 276.043 104.61 275.947 104.854 275.755C105.097 275.561 105.281 275.297 105.406 274.964C105.533 274.631 105.596 274.257 105.596 273.84C105.596 273.429 105.534 273.06 105.41 272.732C105.288 272.405 105.104 272.146 104.858 271.957C104.614 271.768 104.31 271.673 103.945 271.673C103.593 271.673 103.295 271.764 103.052 271.945C102.811 272.126 102.629 272.379 102.504 272.704C102.38 273.028 102.317 273.407 102.317 273.84Z" fill="black"/>
<path d="M108.395 276.957V270.723H109.568V271.714H109.633C109.747 271.378 109.947 271.114 110.234 270.922C110.523 270.728 110.851 270.63 111.216 270.63C111.291 270.63 111.381 270.633 111.484 270.638C111.589 270.644 111.672 270.65 111.731 270.659V271.819C111.682 271.806 111.596 271.791 111.471 271.775C111.347 271.756 111.222 271.746 111.098 271.746C110.811 271.746 110.556 271.807 110.331 271.929C110.109 272.048 109.933 272.214 109.804 272.428C109.674 272.639 109.609 272.88 109.609 273.15V276.957H108.395Z" fill="black"/>
<path d="M115.398 277.082C114.813 277.082 114.303 276.948 113.868 276.681C113.432 276.413 113.094 276.038 112.853 275.557C112.613 275.075 112.492 274.512 112.492 273.868C112.492 273.222 112.613 272.656 112.853 272.172C113.094 271.688 113.432 271.312 113.868 271.044C114.303 270.776 114.813 270.642 115.398 270.642C115.982 270.642 116.492 270.776 116.928 271.044C117.363 271.312 117.701 271.688 117.942 272.172C118.183 272.656 118.303 273.222 118.303 273.868C118.303 274.512 118.183 275.075 117.942 275.557C117.701 276.038 117.363 276.413 116.928 276.681C116.492 276.948 115.982 277.082 115.398 277.082ZM115.402 276.064C115.78 276.064 116.094 275.964 116.343 275.763C116.592 275.563 116.776 275.297 116.895 274.964C117.017 274.631 117.078 274.265 117.078 273.864C117.078 273.467 117.017 273.101 116.895 272.769C116.776 272.433 116.592 272.164 116.343 271.961C116.094 271.758 115.78 271.657 115.402 271.657C115.02 271.657 114.704 271.758 114.452 271.961C114.203 272.164 114.018 272.433 113.896 272.769C113.777 273.101 113.718 273.467 113.718 273.864C113.718 274.265 113.777 274.631 113.896 274.964C114.018 275.297 114.203 275.563 114.452 275.763C114.704 275.964 115.02 276.064 115.402 276.064Z" fill="black"/>
<path d="M119.872 270.723H121.085V277.362C121.085 277.779 121.009 278.131 120.858 278.417C120.709 278.704 120.487 278.922 120.192 279.071C119.9 279.22 119.539 279.294 119.109 279.294C119.066 279.294 119.025 279.294 118.987 279.294C118.947 279.294 118.905 279.293 118.861 279.29V278.247C118.899 278.247 118.933 278.247 118.963 278.247C118.99 278.247 119.021 278.247 119.056 278.247C119.343 278.247 119.55 278.17 119.677 278.016C119.807 277.864 119.872 277.644 119.872 277.354V270.723ZM120.472 269.762C120.261 269.762 120.08 269.691 119.929 269.551C119.78 269.407 119.705 269.237 119.705 269.039C119.705 268.839 119.78 268.669 119.929 268.528C120.08 268.385 120.261 268.313 120.472 268.313C120.683 268.313 120.863 268.385 121.012 268.528C121.164 268.669 121.239 268.839 121.239 269.039C121.239 269.237 121.164 269.407 121.012 269.551C120.863 269.691 120.683 269.762 120.472 269.762Z" fill="black"/>
<path d="M125.618 277.082C125.004 277.082 124.475 276.951 124.031 276.689C123.59 276.424 123.25 276.052 123.009 275.573C122.771 275.091 122.652 274.527 122.652 273.881C122.652 273.242 122.771 272.679 123.009 272.192C123.25 271.706 123.585 271.325 124.015 271.052C124.448 270.779 124.954 270.642 125.533 270.642C125.885 270.642 126.225 270.701 126.555 270.817C126.886 270.933 127.182 271.116 127.444 271.365C127.707 271.614 127.914 271.937 128.065 272.335C128.217 272.729 128.292 273.21 128.292 273.775V274.205H123.338V273.296H127.103C127.103 272.977 127.038 272.694 126.909 272.448C126.779 272.199 126.596 272.003 126.361 271.86C126.128 271.716 125.855 271.645 125.541 271.645C125.2 271.645 124.903 271.729 124.648 271.896C124.397 272.061 124.202 272.278 124.064 272.546C123.929 272.811 123.861 273.099 123.861 273.41V274.12C123.861 274.537 123.934 274.891 124.08 275.183C124.229 275.475 124.436 275.699 124.701 275.853C124.966 276.004 125.276 276.08 125.63 276.08C125.86 276.08 126.07 276.048 126.259 275.983C126.449 275.915 126.612 275.815 126.75 275.682C126.888 275.55 126.994 275.386 127.067 275.191L128.215 275.398C128.123 275.736 127.958 276.033 127.72 276.287C127.485 276.539 127.189 276.735 126.831 276.875C126.477 277.013 126.073 277.082 125.618 277.082Z" fill="black"/>
<path d="M132.478 277.082C131.875 277.082 131.356 276.946 130.92 276.672C130.487 276.397 130.154 276.016 129.922 275.532C129.689 275.048 129.573 274.493 129.573 273.868C129.573 273.235 129.692 272.677 129.93 272.192C130.168 271.706 130.503 271.325 130.936 271.052C131.369 270.779 131.879 270.642 132.466 270.642C132.94 270.642 133.362 270.73 133.732 270.906C134.103 271.079 134.402 271.323 134.629 271.637C134.859 271.95 134.996 272.317 135.039 272.736H133.858C133.793 272.444 133.644 272.192 133.412 271.981C133.182 271.77 132.873 271.665 132.486 271.665C132.148 271.665 131.852 271.754 131.598 271.933C131.346 272.109 131.15 272.36 131.009 272.688C130.869 273.012 130.798 273.396 130.798 273.84C130.798 274.295 130.867 274.687 131.005 275.017C131.143 275.347 131.338 275.603 131.59 275.784C131.844 275.965 132.143 276.056 132.486 276.056C132.716 276.056 132.925 276.014 133.111 275.93C133.301 275.843 133.459 275.72 133.586 275.561C133.716 275.401 133.807 275.209 133.858 274.984H135.039C134.996 275.387 134.864 275.747 134.645 276.064C134.426 276.38 134.133 276.629 133.765 276.81C133.399 276.992 132.971 277.082 132.478 277.082Z" fill="black"/>
<path d="M139.46 270.723V271.697H136.056V270.723H139.46ZM136.969 269.23H138.182V275.126C138.182 275.362 138.217 275.539 138.287 275.658C138.358 275.774 138.448 275.854 138.559 275.897C138.673 275.938 138.796 275.958 138.929 275.958C139.026 275.958 139.111 275.952 139.184 275.938C139.257 275.924 139.314 275.914 139.355 275.906L139.574 276.908C139.503 276.935 139.403 276.962 139.274 276.989C139.144 277.019 138.981 277.035 138.787 277.038C138.467 277.043 138.17 276.986 137.894 276.867C137.618 276.748 137.395 276.564 137.224 276.315C137.054 276.066 136.969 275.754 136.969 275.378V269.23Z" fill="black"/>
<rect x="53.8359" y="306.903" width="17.127" height="79.8936" rx="2.85681" fill="#0065EF"/>
<rect x="111.352" y="318.743" width="16.2739" height="68.1194" rx="2.85681" fill="#0065EF"/>
<rect x="168.311" y="314.676" width="17.291" height="72.1863" rx="2.85681" fill="#0065EF"/>
<rect x="225.106" y="306.903" width="17.127" height="79.8936" rx="2.85681" fill="#0065EF"/>
<rect x="82.3809" y="334.01" width="17.127" height="52.7868" rx="2.85681" fill="#FF7917"/>
<rect x="139.471" y="334.01" width="17.127" height="52.7868" rx="2.85681" fill="#FF7917"/>
<rect x="196.561" y="334.01" width="17.127" height="52.7868" rx="2.85681" fill="#FF7917"/>
<rect x="253.651" y="334.01" width="17.127" height="52.7868" rx="2.85681" fill="#FF7917"/>
<path d="M196.937 277.504C196.376 277.501 195.897 277.353 195.499 277.06C195.101 276.766 194.797 276.339 194.587 275.778C194.376 275.217 194.271 274.541 194.271 273.75C194.271 272.962 194.376 272.289 194.587 271.73C194.8 271.171 195.105 270.745 195.503 270.452C195.903 270.158 196.381 270.012 196.937 270.012C197.493 270.012 197.97 270.159 198.368 270.455C198.766 270.749 199.07 271.175 199.281 271.734C199.494 272.29 199.6 272.962 199.6 273.75C199.6 274.543 199.495 275.22 199.284 275.781C199.073 276.34 198.769 276.767 198.372 277.063C197.974 277.357 197.496 277.504 196.937 277.504ZM196.937 276.555C197.429 276.555 197.814 276.315 198.091 275.835C198.37 275.354 198.51 274.659 198.51 273.75C198.51 273.147 198.446 272.637 198.318 272.22C198.193 271.801 198.012 271.484 197.775 271.268C197.541 271.051 197.261 270.942 196.937 270.942C196.447 270.942 196.062 271.183 195.783 271.666C195.504 272.149 195.363 272.844 195.361 273.75C195.361 274.356 195.423 274.869 195.549 275.288C195.677 275.705 195.858 276.021 196.092 276.236C196.326 276.449 196.608 276.555 196.937 276.555Z" fill="#AFAFAF"/>
<path d="M203.787 270.111V277.383H202.686V271.212H202.644L200.904 272.348V271.297L202.718 270.111H203.787Z" fill="#AFAFAF"/>
<path d="M209.15 273.285V274.208H205.926V273.285H209.15Z" fill="#AFAFAF"/>
<path d="M213.251 277.504C212.69 277.501 212.211 277.353 211.813 277.06C211.415 276.766 211.111 276.339 210.901 275.778C210.69 275.217 210.585 274.541 210.585 273.75C210.585 272.962 210.69 272.289 210.901 271.73C211.114 271.171 211.419 270.745 211.817 270.452C212.217 270.158 212.695 270.012 213.251 270.012C213.807 270.012 214.284 270.159 214.682 270.455C215.08 270.749 215.384 271.175 215.595 271.734C215.808 272.29 215.914 272.962 215.914 273.75C215.914 274.543 215.809 275.22 215.598 275.781C215.387 276.34 215.083 276.767 214.686 277.063C214.288 277.357 213.81 277.504 213.251 277.504ZM213.251 276.555C213.744 276.555 214.128 276.315 214.405 275.835C214.684 275.354 214.824 274.659 214.824 273.75C214.824 273.147 214.76 272.637 214.632 272.22C214.507 271.801 214.326 271.484 214.089 271.268C213.855 271.051 213.575 270.942 213.251 270.942C212.761 270.942 212.376 271.183 212.097 271.666C211.818 272.149 211.677 272.844 211.675 273.75C211.675 274.356 211.737 274.869 211.863 275.288C211.991 275.705 212.172 276.021 212.406 276.236C212.64 276.449 212.922 276.555 213.251 276.555Z" fill="#AFAFAF"/>
<path d="M219.799 277.482C219.29 277.482 218.841 277.395 218.45 277.219C218.062 277.044 217.758 276.803 217.538 276.495C217.317 276.187 217.208 275.837 217.211 275.444C217.208 275.136 217.271 274.854 217.399 274.596C217.529 274.335 217.706 274.119 217.928 273.946C218.151 273.771 218.399 273.659 218.674 273.612V273.569C218.312 273.482 218.022 273.288 217.804 272.987C217.586 272.686 217.478 272.341 217.481 271.95C217.478 271.579 217.577 271.247 217.775 270.956C217.977 270.662 218.252 270.432 218.603 270.264C218.953 270.096 219.352 270.012 219.799 270.012C220.242 270.012 220.637 270.097 220.985 270.267C221.336 270.435 221.611 270.666 221.813 270.96C222.014 271.251 222.116 271.581 222.118 271.95C222.116 272.341 222.004 272.686 221.784 272.987C221.564 273.288 221.278 273.482 220.925 273.569V273.612C221.197 273.659 221.442 273.771 221.66 273.946C221.88 274.119 222.055 274.335 222.185 274.596C222.318 274.854 222.385 275.136 222.388 275.444C222.385 275.837 222.274 276.187 222.054 276.495C221.834 276.803 221.529 277.044 221.138 277.219C220.75 277.395 220.304 277.482 219.799 277.482ZM219.799 276.584C220.1 276.584 220.36 276.534 220.58 276.435C220.801 276.333 220.971 276.192 221.092 276.012C221.213 275.83 221.274 275.617 221.276 275.373C221.274 275.12 221.208 274.896 221.078 274.702C220.95 274.508 220.776 274.355 220.556 274.244C220.336 274.133 220.083 274.077 219.799 274.077C219.513 274.077 219.258 274.133 219.036 274.244C218.813 274.355 218.638 274.508 218.51 274.702C218.383 274.896 218.32 275.12 218.322 275.373C218.32 275.617 218.378 275.83 218.496 276.012C218.617 276.192 218.789 276.333 219.011 276.435C219.234 276.534 219.496 276.584 219.799 276.584ZM219.799 273.2C220.041 273.2 220.255 273.152 220.442 273.054C220.629 272.957 220.776 272.823 220.882 272.65C220.991 272.477 221.047 272.275 221.049 272.043C221.047 271.815 220.992 271.616 220.886 271.446C220.782 271.276 220.636 271.144 220.449 271.052C220.262 270.957 220.046 270.91 219.799 270.91C219.548 270.91 219.328 270.957 219.139 271.052C218.952 271.144 218.806 271.276 218.702 271.446C218.598 271.616 218.547 271.815 218.549 272.043C218.547 272.275 218.599 272.477 218.706 272.65C218.812 272.823 218.959 272.957 219.146 273.054C219.335 273.152 219.553 273.2 219.799 273.2Z" fill="#AFAFAF"/>
<path d="M226.657 271.929H227.719V277.738C227.719 278.102 227.653 278.41 227.52 278.661C227.39 278.912 227.196 279.103 226.938 279.233C226.682 279.363 226.366 279.428 225.99 279.428C225.952 279.428 225.916 279.428 225.883 279.428C225.848 279.428 225.811 279.427 225.773 279.424V278.512C225.806 278.512 225.836 278.512 225.862 278.512C225.885 278.512 225.913 278.512 225.943 278.512C226.194 278.512 226.375 278.444 226.487 278.31C226.6 278.177 226.657 277.984 226.657 277.731V271.929ZM227.183 271.087C226.998 271.087 226.839 271.026 226.707 270.903C226.577 270.777 226.512 270.628 226.512 270.455C226.512 270.28 226.577 270.131 226.707 270.008C226.839 269.883 226.998 269.82 227.183 269.82C227.367 269.82 227.525 269.883 227.655 270.008C227.787 270.131 227.854 270.28 227.854 270.455C227.854 270.628 227.787 270.777 227.655 270.903C227.525 271.026 227.367 271.087 227.183 271.087Z" fill="#AFAFAF"/>
<path d="M230.903 277.504C230.557 277.504 230.245 277.44 229.965 277.312C229.686 277.182 229.465 276.993 229.301 276.747C229.14 276.501 229.06 276.199 229.06 275.842C229.06 275.534 229.119 275.281 229.237 275.082C229.356 274.883 229.516 274.726 229.717 274.61C229.918 274.494 230.143 274.406 230.391 274.347C230.64 274.288 230.893 274.243 231.151 274.212C231.478 274.174 231.743 274.143 231.947 274.12C232.15 274.094 232.298 274.052 232.39 273.995C232.483 273.939 232.529 273.846 232.529 273.718V273.694C232.529 273.384 232.441 273.143 232.266 272.973C232.093 272.802 231.835 272.717 231.492 272.717C231.135 272.717 230.853 272.796 230.647 272.955C230.443 273.111 230.303 273.285 230.225 273.477L229.227 273.25C229.345 272.918 229.518 272.651 229.745 272.447C229.975 272.241 230.239 272.092 230.537 272C230.835 271.905 231.149 271.858 231.478 271.858C231.696 271.858 231.926 271.884 232.17 271.936C232.416 271.986 232.646 272.078 232.859 272.213C233.075 272.348 233.251 272.541 233.388 272.792C233.525 273.04 233.594 273.363 233.594 273.761V277.383H232.557V276.637H232.515C232.446 276.774 232.343 276.909 232.206 277.042C232.069 277.175 231.892 277.285 231.677 277.372C231.461 277.46 231.203 277.504 230.903 277.504ZM231.133 276.651C231.427 276.651 231.678 276.593 231.886 276.477C232.097 276.361 232.257 276.21 232.366 276.023C232.477 275.834 232.532 275.631 232.532 275.416V274.713C232.495 274.751 232.421 274.786 232.312 274.819C232.206 274.85 232.084 274.877 231.947 274.901C231.809 274.922 231.676 274.942 231.545 274.961C231.415 274.978 231.306 274.992 231.219 275.004C231.013 275.03 230.825 275.074 230.654 275.135C230.486 275.197 230.351 275.286 230.249 275.402C230.15 275.515 230.1 275.667 230.1 275.856C230.1 276.119 230.197 276.318 230.391 276.453C230.585 276.585 230.833 276.651 231.133 276.651Z" fill="#AFAFAF"/>
<path d="M236.238 274.145V277.383H235.177V271.929H236.196V272.817H236.263C236.389 272.528 236.585 272.296 236.853 272.121C237.122 271.945 237.462 271.858 237.872 271.858C238.243 271.858 238.569 271.936 238.848 272.092C239.127 272.246 239.344 272.476 239.498 272.781C239.652 273.086 239.729 273.464 239.729 273.914V277.383H238.667V274.042C238.667 273.646 238.564 273.337 238.358 273.115C238.152 272.89 237.869 272.778 237.509 272.778C237.263 272.778 237.044 272.831 236.853 272.937C236.663 273.044 236.513 273.2 236.402 273.406C236.293 273.61 236.238 273.856 236.238 274.145Z" fill="#AFAFAF"/>
<path d="M242.702 276.389L242.649 276.776C242.613 277.06 242.553 277.356 242.468 277.663C242.385 277.973 242.299 278.261 242.209 278.526C242.121 278.791 242.049 279.002 241.992 279.158H241.239C241.27 279.011 241.313 278.813 241.367 278.562C241.422 278.313 241.475 278.035 241.527 277.727C241.579 277.42 241.618 277.106 241.644 276.786L241.68 276.389H242.702Z" fill="#AFAFAF"/>
<path d="M247.053 277.383V276.587L249.514 274.038C249.777 273.761 249.993 273.518 250.164 273.31C250.336 273.099 250.465 272.899 250.551 272.71C250.636 272.521 250.678 272.319 250.678 272.106C250.678 271.865 250.622 271.657 250.508 271.482C250.394 271.304 250.239 271.168 250.043 271.073C249.846 270.976 249.625 270.928 249.379 270.928C249.119 270.928 248.891 270.981 248.697 271.087C248.503 271.194 248.354 271.344 248.25 271.538C248.146 271.732 248.094 271.96 248.094 272.22H247.046C247.046 271.777 247.148 271.39 247.351 271.059C247.555 270.728 247.834 270.471 248.189 270.288C248.544 270.104 248.948 270.012 249.4 270.012C249.857 270.012 250.259 270.103 250.607 270.285C250.958 270.465 251.231 270.711 251.428 271.023C251.624 271.334 251.722 271.684 251.722 272.074C251.722 272.344 251.671 272.608 251.57 272.866C251.47 273.124 251.296 273.412 251.048 273.729C250.799 274.044 250.454 274.426 250.011 274.876L248.566 276.389V276.442H251.84V277.383H247.053Z" fill="#AFAFAF"/>
<path d="M255.885 277.504C255.324 277.501 254.845 277.353 254.447 277.06C254.05 276.766 253.745 276.339 253.535 275.778C253.324 275.217 253.219 274.541 253.219 273.75C253.219 272.962 253.324 272.289 253.535 271.73C253.748 271.171 254.053 270.745 254.451 270.452C254.851 270.158 255.329 270.012 255.885 270.012C256.442 270.012 256.919 270.159 257.316 270.455C257.714 270.749 258.018 271.175 258.229 271.734C258.442 272.29 258.548 272.962 258.548 273.75C258.548 274.543 258.443 275.22 258.232 275.781C258.022 276.34 257.718 276.767 257.32 277.063C256.922 277.357 256.444 277.504 255.885 277.504ZM255.885 276.555C256.378 276.555 256.762 276.315 257.039 275.835C257.319 275.354 257.458 274.659 257.458 273.75C257.458 273.147 257.394 272.637 257.267 272.22C257.141 271.801 256.96 271.484 256.723 271.268C256.489 271.051 256.21 270.942 255.885 270.942C255.395 270.942 255.011 271.183 254.731 271.666C254.452 272.149 254.311 272.844 254.309 273.75C254.309 274.356 254.372 274.869 254.497 275.288C254.625 275.705 254.806 276.021 255.04 276.236C255.275 276.449 255.556 276.555 255.885 276.555Z" fill="#AFAFAF"/>
<path d="M259.976 277.383V276.587L262.437 274.038C262.7 273.761 262.916 273.518 263.087 273.31C263.26 273.099 263.389 272.899 263.474 272.71C263.559 272.521 263.602 272.319 263.602 272.106C263.602 271.865 263.545 271.657 263.431 271.482C263.318 271.304 263.163 271.168 262.966 271.073C262.77 270.976 262.548 270.928 262.302 270.928C262.042 270.928 261.815 270.981 261.62 271.087C261.426 271.194 261.277 271.344 261.173 271.538C261.069 271.732 261.017 271.96 261.017 272.22H259.969C259.969 271.777 260.071 271.39 260.275 271.059C260.478 270.728 260.758 270.471 261.113 270.288C261.468 270.104 261.871 270.012 262.324 270.012C262.78 270.012 263.183 270.103 263.531 270.285C263.881 270.465 264.155 270.711 264.351 271.023C264.547 271.334 264.646 271.684 264.646 272.074C264.646 272.344 264.595 272.608 264.493 272.866C264.394 273.124 264.22 273.412 263.971 273.729C263.722 274.044 263.377 274.426 262.934 274.876L261.489 276.389V276.442H264.763V277.383H259.976Z" fill="#AFAFAF"/>
<path d="M269.036 270.111V277.383H267.935V271.212H267.893L266.153 272.348V271.297L267.967 270.111H269.036Z" fill="#AFAFAF"/>
<defs>
<filter id="filter0_d_791_338" x="79" y="0" width="531" height="429" filterUnits="userSpaceOnUse" color-interpolation-filters="sRGB">
<feFlood flood-opacity="0" result="BackgroundImageFix"/>
<feColorMatrix in="SourceAlpha" type="matrix" values="0 0 0 0 0 0 0 0 0 0 0 0 0 0 0 0 0 0 127 0" result="hardAlpha"/>
<feOffset dy="30"/>
<feGaussianBlur stdDeviation="30"/>
<feComposite in2="hardAlpha" operator="out"/>
<feColorMatrix type="matrix" values="0 0 0 0 0.12549 0 0 0 0 0.219608 0 0 0 0 0.333333 0 0 0 0.15 0"/>
<feBlend mode="normal" in2="BackgroundImageFix" result="effect1_dropShadow_791_338"/>
<feBlend mode="normal" in="SourceGraphic" in2="effect1_dropShadow_791_338" result="shape"/>
</filter>
<filter id="filter1_d_791_338" x="0.461685" y="223.154" width="323.69" height="237.984" filterUnits="userSpaceOnUse" color-interpolation-filters="sRGB">
<feFlood flood-opacity="0" result="BackgroundImageFix"/>
<feColorMatrix in="SourceAlpha" type="matrix" values="0 0 0 0 0 0 0 0 0 0 0 0 0 0 0 0 0 0 127 0" result="hardAlpha"/>
<feOffset dy="15.2692"/>
<feGaussianBlur stdDeviation="15.2692"/>
<feComposite in2="hardAlpha" operator="out"/>
<feColorMatrix type="matrix" values="0 0 0 0 0.223529 0 0 0 0 0.333333 0 0 0 0 0.470588 0 0 0 0.1 0"/>
<feBlend mode="normal" in2="BackgroundImageFix" result="effect1_dropShadow_791_338"/>
<feBlend mode="normal" in="SourceGraphic" in2="effect1_dropShadow_791_338" result="shape"/>
</filter>
</defs>
</svg>
