<svg width="58" height="61" viewBox="0 0 58 61" fill="none" xmlns="http://www.w3.org/2000/svg">
<path d="M58 31.8813C53.7977 31.8813 49.6366 31.0569 45.7541 29.4545C41.8717 27.8522 38.3441 25.5038 35.3726 22.5433C32.4011 19.5828 30.044 16.0682 28.4359 12.2004C26.8277 8.33251 26 4.18666 26 4.8945e-06L58 5.27469e-06L58 31.8813Z" fill="#FFEED9"/>
<path d="M20.5625 42.1875L29.75 33L20.5625 23.8125" stroke="black" stroke-width="3" stroke-linecap="round" stroke-linejoin="round"/>
<path d="M5.25 33H29.75" stroke="black" stroke-width="3" stroke-linecap="round" stroke-linejoin="round"/>
<path d="M29.75 13.75H42C42.4641 13.75 42.9092 13.9344 43.2374 14.2626C43.5656 14.5908 43.75 15.0359 43.75 15.5V50.5C43.75 50.9641 43.5656 51.4092 43.2374 51.7374C42.9092 52.0656 42.4641 52.25 42 52.25H29.75" stroke="black" stroke-width="3" stroke-linecap="round" stroke-linejoin="round"/>
</svg>
