<svg width="118" height="47" viewBox="0 0 118 47" fill="none" xmlns="http://www.w3.org/2000/svg">
<path d="M98.3333 33.0714C98.3333 36.7087 96.8919 40.197 94.3262 42.7689C91.7605 45.3408 88.2806 46.7857 84.6522 46.7857C81.0237 46.7857 77.5438 45.3408 74.9781 42.7689C72.4124 40.197 70.971 36.7087 70.971 33.0714L98.3333 33.0714Z" fill="white"/>
<path d="M2.69348 24.4142C2.54143 24.4142 2.40024 24.403 2.26991 24.3807C1.66171 24.3584 1.14039 24.1243 0.705953 23.6784C0.271521 23.2102 0.0543042 22.6639 0.0543042 22.0396C0.0760257 21.0362 0.0651649 17.8367 0.0217217 12.4409C-0.0217217 7.02275 -5.05746e-08 3.80087 0.0868865 2.77522C0.108608 2.17321 0.347546 1.64924 0.803701 1.20331C1.28158 0.757371 1.83548 0.545552 2.46541 0.567848C2.6609 0.500959 2.8564 0.467514 3.05189 0.467514C3.89903 0.378327 4.5181 0.322586 4.90909 0.300289C5.3218 0.277991 5.98431 0.255694 6.89662 0.233398C7.83065 0.188805 8.61263 0.22225 9.24256 0.333734C9.89421 0.445217 10.6219 0.601294 11.4256 0.801965C12.251 0.980339 13.0221 1.2702 13.7389 1.67154C14.4558 2.07288 15.1074 2.55226 15.6939 3.10967C16.8234 4.15762 17.6706 5.41738 18.2353 6.88897C18.8218 8.36055 19.1042 9.96591 19.0825 11.7051C19.0607 13.4219 18.8109 15.0161 18.3331 16.4877C17.8769 17.937 17.1601 19.2636 16.1826 20.4677C15.2051 21.6494 14.0648 22.5747 12.7615 23.2436C11.393 23.9125 9.5901 24.3027 7.35278 24.4142C6.89662 24.4365 6.08206 24.4365 4.90909 24.4142C3.73612 24.4142 2.99759 24.4142 2.69348 24.4142ZM7.15728 19.8322C8.76468 19.7207 9.95937 19.4755 10.7414 19.0964C12.0446 18.4498 13.0438 17.3684 13.7389 15.8522C14.434 14.3361 14.6838 12.6527 14.4883 10.802C14.2928 8.92912 13.6738 7.50213 12.6311 6.52107C11.784 5.74069 10.7088 5.25016 9.40547 5.04949C8.12389 4.84882 6.51649 4.82652 4.58327 4.9826C4.56154 7.10079 4.55068 8.72845 4.55068 9.86558C4.55068 11.0027 4.56154 12.6861 4.58327 14.9158C4.60499 17.1455 4.61585 18.7731 4.61585 19.7988C5.68021 19.8434 6.52735 19.8545 7.15728 19.8322Z" fill="white"/>
<path d="M28.0195 24.4476C27.2375 24.4476 26.3903 24.2916 25.478 23.9794C24.3485 23.5335 23.4036 22.8757 22.6434 22.0061C21.9048 21.1143 21.4487 20.1444 21.2749 19.0964C21.1446 18.4052 21.0794 17.7363 21.0794 17.0897C21.0794 15.5958 21.3618 14.1911 21.9266 12.8756C22.7085 11.025 23.8055 9.53113 25.2174 8.394C26.6293 7.25686 28.2367 6.6883 30.0396 6.6883C30.6912 6.6883 31.3972 6.77748 32.1574 6.95586C32.657 7.08964 33.1458 7.32375 33.6237 7.6582H33.7866L34.1124 7.62476C34.6554 7.62476 35.1333 7.82543 35.546 8.22677C35.9804 8.62811 36.2302 9.11864 36.2954 9.69835L36.5235 12.0061C36.5669 12.9871 36.6212 14.6594 36.6864 17.0228L36.7516 18.8289C36.795 19.9437 36.8167 20.6795 36.8167 21.0362C36.8385 21.3707 36.8276 21.694 36.7842 22.0061C36.6973 22.6527 36.4583 23.2102 36.0673 23.6784C35.6981 24.1243 35.2093 24.3584 34.6011 24.3807C34.1015 24.403 33.6454 24.2804 33.2327 24.0128C32.8417 23.723 32.5593 23.2102 32.3855 22.4744C31.8859 23.0987 31.2777 23.5558 30.5609 23.8456C29.7138 24.2024 28.8666 24.403 28.0195 24.4476ZM28.0521 19.7319C28.7037 19.7319 29.3771 19.5201 30.0722 19.0964C30.2459 18.9849 30.4414 18.8177 30.6586 18.5947L31.1474 18.1265L31.7013 17.3238C31.8316 17.1678 31.9837 17.0563 32.1574 16.9894C32.1574 15.1165 32.1031 13.5334 31.9945 12.2402L31.6687 12.0061L31.2126 11.6382L30.9193 11.4375C30.5718 11.3483 30.3002 11.3037 30.1047 11.3037C29.3228 11.3037 28.5625 11.6159 27.824 12.2402C27.1072 12.8645 26.5315 13.7341 26.0971 14.8489C25.7496 15.7185 25.5758 16.4989 25.5758 17.1901C25.5758 17.7921 25.7061 18.2937 25.9668 18.6951C26.2492 19.0964 26.6401 19.3863 27.1397 19.5646C27.4656 19.6761 27.7697 19.7319 28.0521 19.7319Z" fill="white"/>
<path d="M42.4606 30.4677C42.0262 30.8914 41.5049 31.0921 40.8967 31.0698C40.3102 31.0475 39.8106 30.8133 39.3979 30.3674C38.9852 29.9438 38.7897 29.4198 38.8114 28.7955C38.8331 28.1935 39.0503 27.6807 39.463 27.257C39.7889 26.9449 40.1473 26.6104 40.5383 26.2537C40.951 25.9192 41.2768 25.6294 41.5157 25.3841C41.7764 25.1388 42.0153 24.8713 42.2326 24.5814C42.6453 24.0686 43.0363 23.5112 43.4055 22.9092C43.3404 22.82 43.2969 22.7196 43.2752 22.6082L38.6811 9.83213C38.4638 9.23012 38.4747 8.63926 38.7136 8.05955C38.9743 7.45753 39.3979 7.04504 39.9844 6.82208C40.5708 6.59911 41.1465 6.62141 41.7112 6.88897C42.2977 7.13423 42.6996 7.55787 42.9168 8.15988L46.0773 17.2235C46.5769 15.8634 47.424 12.8979 48.6187 8.32711C48.7708 7.74739 49.1074 7.31261 49.6288 7.02275C50.1501 6.73289 50.6931 6.67715 51.2579 6.85552C51.8444 7.0116 52.2788 7.3572 52.5612 7.89232C52.8436 8.42744 52.8979 8.99601 52.7241 9.59802C52.6589 9.79869 52.4852 10.5122 52.2028 11.7385C51.9421 12.9425 51.7575 13.7118 51.6489 14.0462C51.5403 14.3807 51.3448 15.005 51.0624 15.9191C50.8017 16.8333 50.5845 17.5134 50.4107 17.9593L49.6939 19.8991C49.3898 20.7018 49.1074 21.3707 48.8468 21.9058L47.9345 23.7118C47.5869 24.403 47.2177 25.0385 46.8267 25.6182C46.4357 26.2202 46.0338 26.7888 45.6211 27.3239C45.3387 27.703 44.9912 28.082 44.5785 28.461L43.2752 29.6651C42.8408 30.0664 42.5692 30.334 42.4606 30.4677Z" fill="white"/>
<path d="M64.6595 24.2804C63.6603 24.6372 62.6828 24.7709 61.727 24.6817C60.7713 24.5926 59.8481 24.3696 58.9575 24.0128C57.5673 23.4331 56.3835 22.4855 55.406 21.17C54.4286 19.8545 53.8747 18.4052 53.7443 16.8222C53.6574 15.5066 53.8638 14.1688 54.3634 12.8087C54.8847 11.4263 55.6124 10.2446 56.5464 9.26357C57.2198 8.55007 57.9692 7.98151 58.7946 7.55787C59.6418 7.11193 60.5975 6.83323 61.6619 6.72174C62.7262 6.61026 63.8015 6.79978 64.8875 7.29031C65.474 7.53557 66.0931 7.93691 66.7447 8.49433C66.7882 8.53892 66.9294 8.67271 67.1683 8.89567L67.7548 9.39735C68.2544 9.79869 68.5368 10.3115 68.6019 10.9358C68.6888 11.5378 68.5368 12.0953 68.1458 12.6081C67.7548 13.0986 67.2443 13.3885 66.6144 13.4776C66.0062 13.5445 65.4523 13.3773 64.9527 12.976C64.9093 12.9537 64.4965 12.5969 63.7146 11.9057C63.4539 11.6828 63.2584 11.5378 63.1281 11.4709C61.9551 10.9804 60.869 11.2814 59.8698 12.374C59.3485 12.9314 58.9358 13.5891 58.6317 14.3472C58.3493 15.1053 58.2407 15.8188 58.3059 16.4877C58.3493 17.112 58.5883 17.7586 59.0227 18.4275C59.4571 19.0741 60.0328 19.5424 60.7496 19.8322C61.5098 20.1221 62.1506 20.2336 62.6719 20.1667C63.215 20.0775 63.6494 19.8657 63.9752 19.5312C64.0838 19.4197 64.2142 19.1856 64.3662 18.8289C64.8224 17.8032 65.0613 17.2681 65.083 17.2235C65.3654 16.6661 65.7998 16.2982 66.3863 16.1198C66.9945 15.9191 67.581 15.9637 68.1458 16.2536C68.7105 16.5212 69.0798 16.9559 69.2536 17.5579C69.4491 18.16 69.4056 18.7397 69.1233 19.2971C69.0581 19.4309 68.9929 19.5758 68.9278 19.7319C68.8626 19.8657 68.7974 20.0217 68.7323 20.2001C68.6671 20.3785 68.6019 20.5234 68.5368 20.6349C68.1892 21.4822 67.7765 22.1511 67.2986 22.6416C66.5601 23.422 65.6804 23.9683 64.6595 24.2804Z" fill="white"/>
<path d="M78.0794 24.4476C77.2974 24.4476 76.4502 24.2916 75.5379 23.9794C74.4084 23.5335 73.4635 22.8757 72.7033 22.0061C71.9647 21.1143 71.5086 20.1444 71.3348 19.0964C71.2045 18.4052 71.1393 17.7363 71.1393 17.0897C71.1393 15.5958 71.4217 14.1911 71.9864 12.8756C72.7684 11.025 73.8654 9.53113 75.2773 8.394C76.6892 7.25686 78.2966 6.6883 80.0995 6.6883C80.7511 6.6883 81.4571 6.77748 82.2173 6.95586C82.7169 7.08964 83.2057 7.32375 83.6835 7.6582H83.8465L84.1723 7.62476C84.7153 7.62476 85.1932 7.82543 85.6059 8.22677C86.0403 8.62811 86.2901 9.11864 86.3553 9.69835L86.5834 12.0061C86.6268 12.9871 86.6811 14.6594 86.7463 17.0228L86.8115 18.8289C86.8549 19.9437 86.8766 20.6795 86.8766 21.0362C86.8983 21.3707 86.8875 21.694 86.844 22.0061C86.7572 22.6527 86.5182 23.2102 86.1272 23.6784C85.758 24.1243 85.2692 24.3584 84.661 24.3807C84.1614 24.403 83.7053 24.2804 83.2926 24.0128C82.9016 23.723 82.6192 23.2102 82.4454 22.4744C81.9458 23.0987 81.3376 23.5558 80.6208 23.8456C79.7737 24.2024 78.9265 24.403 78.0794 24.4476ZM78.1119 19.7319C78.7636 19.7319 79.437 19.5201 80.1321 19.0964C80.3058 18.9849 80.5013 18.8177 80.7185 18.5947L81.2073 18.1265L81.7612 17.3238C81.8915 17.1678 82.0436 17.0563 82.2173 16.9894C82.2173 15.1165 82.163 13.5334 82.0544 12.2402L81.7286 12.0061L81.2724 11.6382L80.9792 11.4375C80.6317 11.3483 80.3601 11.3037 80.1646 11.3037C79.3827 11.3037 78.6224 11.6159 77.8839 12.2402C77.1671 12.8645 76.5914 13.7341 76.157 14.8489C75.8094 15.7185 75.6357 16.4989 75.6357 17.1901C75.6357 17.7921 75.766 18.2937 76.0267 18.6951C76.309 19.0964 76.7 19.3863 77.1996 19.5646C77.5255 19.6761 77.8296 19.7319 78.1119 19.7319Z" fill="white"/>
<path d="M90.8914 23.7118C90.4352 23.2659 90.2072 22.7308 90.2072 22.1065C90.1854 19.8991 90.1746 18.16 90.1746 16.889C90.1311 16.6215 90.1311 16.3651 90.1746 16.1198C90.1529 13.6449 90.142 11.4041 90.142 9.39735C90.142 8.52778 90.3592 7.87002 90.7936 7.42409C91.2498 6.95586 91.7928 6.72174 92.4228 6.72174C92.8789 6.72174 93.2916 6.85552 93.6609 7.12308C94.0519 7.36835 94.3343 7.81428 94.508 8.46089C95.3769 7.97036 96.6802 7.41294 98.4179 6.78863C98.9827 6.58796 99.5257 6.62141 100.047 6.88897C100.59 7.13423 100.959 7.54672 101.155 8.12644C101.35 8.70615 101.318 9.27472 101.057 9.83213C100.818 10.3673 100.416 10.7352 99.8516 10.9358C97.8532 11.6493 96.148 12.3517 94.7361 13.0429C94.6492 13.7564 94.6384 14.7709 94.7035 16.0864C94.7253 17.4911 94.747 19.4755 94.7687 22.0396C94.7687 22.6862 94.5406 23.2436 94.0845 23.7118C93.65 24.1801 93.1179 24.4142 92.4879 24.4142C91.8797 24.4142 91.3476 24.1801 90.8914 23.7118Z" fill="white"/>
<path d="M110.115 24.7152C108.377 24.7152 106.857 24.3361 105.553 23.5781C104.25 22.82 103.251 21.8055 102.556 20.5346C101.883 19.2636 101.546 17.859 101.546 16.3205C101.546 14.3807 101.893 12.7084 102.588 11.3037C103.284 9.87673 104.283 8.75074 105.586 7.92577C106.889 7.10079 108.366 6.6883 110.017 6.6883C111.712 6.6883 113.156 7.04504 114.351 7.75854C115.567 8.47203 116.479 9.44194 117.088 10.6683C117.696 11.8723 118 13.2212 118 14.7151C118 15.4732 117.761 16.0641 117.283 16.4877C116.805 16.9113 116.165 17.1566 115.361 17.2235C113.732 17.3796 112.287 17.4576 111.027 17.4576C109.833 17.4576 108.551 17.4242 107.183 17.3573L106.042 17.3238C106.173 18.4164 106.585 19.2748 107.28 19.8991C107.997 20.5011 109.072 20.7798 110.506 20.7352C111.158 20.7129 111.679 20.6349 112.07 20.5011C112.461 20.345 112.809 20.1221 113.113 19.8322C113.286 19.6538 113.471 19.4643 113.667 19.2636C113.862 19.063 114.079 18.9069 114.318 18.7954C114.557 18.6839 114.85 18.6282 115.198 18.6282C115.763 18.6282 116.23 18.8289 116.599 19.2302C116.99 19.6092 117.185 20.0552 117.185 20.568C117.185 21.2815 116.838 21.9615 116.143 22.6082C115.448 23.2548 114.546 23.7676 113.438 24.1466C112.352 24.5257 111.245 24.7152 110.115 24.7152ZM106.107 13.9124C107.389 14.0908 108.812 14.1577 110.376 14.1131C111.874 14.0908 112.971 13.9905 113.667 13.8121C113.623 12.8533 113.341 12.0841 112.819 11.5044C112.32 10.9247 111.407 10.646 110.082 10.6683C108.975 10.6906 108.073 10.947 107.378 11.4375C106.683 11.928 106.259 12.753 106.107 13.9124Z" fill="white"/>
</svg>
