<svg width="59" height="64" viewBox="0 0 59 64" fill="none" xmlns="http://www.w3.org/2000/svg">
<path d="M43 1.39876e-06C34.1634 2.17128e-06 27 7.13688 27 15.9407L27 31.8813L43 31.8813C51.8366 31.8813 59 24.7444 59 15.9407C59 7.13688 51.8366 6.26248e-07 43 1.39876e-06Z" fill="#D4E2FC"/>
<path d="M8.75 33.0906V20.25C8.75 19.7859 8.93437 19.3408 9.26256 19.0126C9.59075 18.6844 10.0359 18.5 10.5 18.5H45.5C45.9641 18.5 46.4092 18.6844 46.7374 19.0126C47.0656 19.3408 47.25 19.7859 47.25 20.25V33.0906C47.25 51.4656 31.6531 57.5469 28.5469 58.575C28.194 58.7057 27.806 58.7057 27.4531 58.575C24.3469 57.5469 8.75 51.4656 8.75 33.0906Z" stroke="black" stroke-width="3" stroke-linecap="round" stroke-linejoin="round"/>
<path d="M37.625 30.75L24.7844 43L18.375 36.875" stroke="black" stroke-width="3" stroke-linecap="round" stroke-linejoin="round"/>
</svg>
