<svg width="96" height="97" viewBox="0 0 96 97" fill="none" xmlns="http://www.w3.org/2000/svg">
<circle cx="48" cy="48.3389" r="48" fill="#FCF1DE"/>
<path d="M68.4076 70.4045C67.9685 70.4045 67.6092 70.0452 67.6092 69.6061V39.1884C67.6092 32.9611 62.7791 28.0911 56.5918 28.0911H39.8261C33.5589 28.0911 28.4893 33.0809 28.4893 39.1884V69.6061C28.4893 70.0452 28.13 70.4045 27.6909 70.4045C27.2518 70.4045 26.8926 70.0452 26.8926 69.6061V39.1884C26.8926 32.2027 32.6807 26.4944 39.8261 26.4944H56.5918C63.6573 26.4944 69.2059 32.0829 69.2059 39.1884V69.6061C69.2059 70.0452 68.8467 70.4045 68.4076 70.4045Z" fill="#37474F"/>
<path d="M32.0845 71.6026H25.2984C24.8593 71.6026 24.5 71.2433 24.5 70.8042C24.5 70.3651 24.8593 70.0059 25.2984 70.0059H32.0845C32.5236 70.0059 32.8828 70.3651 32.8828 70.8042C32.8828 71.2433 32.5236 71.6026 32.0845 71.6026Z" fill="#37474F"/>
<path d="M71.2004 71.6026H64.0152C63.5761 71.6026 63.2168 71.2433 63.2168 70.8042C63.2168 70.3651 63.5761 70.0059 64.0152 70.0059H71.2004C71.6396 70.0059 71.9988 70.3651 71.9988 70.8042C71.9988 71.2433 71.6396 71.6026 71.2004 71.6026Z" fill="#37474F"/>
<path d="M54.0414 61.223H42.0659C41.6268 61.223 41.2676 60.8638 41.2676 60.4247V27.2925C41.2676 26.8534 41.6268 26.4941 42.0659 26.4941H54.0414C54.4805 26.4941 54.8398 26.8534 54.8398 27.2925V60.4247C54.8398 60.8638 54.4805 61.223 54.0414 61.223ZM42.8643 59.6263H53.2431V28.0909H42.8643V59.6263Z" fill="#37474F"/>
<path d="M57.2335 60.0259H38.8711V64.4169H57.2335V60.0259Z" fill="#FFAB00"/>
<path d="M57.233 65.215H38.8706C38.4315 65.215 38.0723 64.8558 38.0723 64.4167V60.0257C38.0723 59.5866 38.4315 59.2273 38.8706 59.2273H57.233C57.6721 59.2273 58.0314 59.5866 58.0314 60.0257V64.4167C58.0314 64.8558 57.6721 65.215 57.233 65.215ZM39.669 63.6183H56.4347V60.824H39.669V63.6183Z" fill="#37474F"/>
<path d="M42.2242 29.2492C43.3706 29.2492 44.2999 28.3198 44.2999 27.1734C44.2999 26.027 43.3706 25.0977 42.2242 25.0977C41.0778 25.0977 40.1484 26.027 40.1484 27.1734C40.1484 28.3198 41.0778 29.2492 42.2242 29.2492Z" fill="#37474F"/>
<path d="M42.2246 29.4489C40.9871 29.4489 39.9492 28.4509 39.9492 27.1735C39.9492 25.9361 40.9472 24.8982 42.2246 24.8982C43.462 24.8982 44.4999 25.8961 44.4999 27.1735C44.4999 28.411 43.462 29.4489 42.2246 29.4489ZM42.2246 25.2974C41.1867 25.2974 40.3484 26.1357 40.3484 27.1735C40.3484 28.2114 41.1867 29.0497 42.2246 29.0497C43.2624 29.0497 44.1007 28.2114 44.1007 27.1735C44.1007 26.1357 43.2624 25.2974 42.2246 25.2974Z" fill="#37474F"/>
<path d="M54.1968 29.2492C55.3433 29.2492 56.2726 28.3198 56.2726 27.1734C56.2726 26.027 55.3433 25.0977 54.1968 25.0977C53.0504 25.0977 52.1211 26.027 52.1211 27.1734C52.1211 28.3198 53.0504 29.2492 54.1968 29.2492Z" fill="#37474F"/>
<path d="M54.1972 29.4489C52.9598 29.4489 51.9219 28.4509 51.9219 27.1735C51.9219 25.9361 52.9198 24.8982 54.1972 24.8982C55.4347 24.8982 56.4726 25.8961 56.4726 27.1735C56.4726 28.411 55.4347 29.4489 54.1972 29.4489ZM54.1972 25.2974C53.1593 25.2974 52.3211 26.1357 52.3211 27.1735C52.3211 28.2114 53.1593 29.0497 54.1972 29.0497C55.2351 29.0497 56.0734 28.2114 56.0734 27.1735C56.0734 26.1357 55.2351 25.2974 54.1972 25.2974Z" fill="#37474F"/>
</svg>
