<svg width="97" height="97" viewBox="0 0 97 97" fill="none" xmlns="http://www.w3.org/2000/svg">
<circle cx="48.668" cy="48.3389" r="48" fill="#FCF1DE"/>
<path d="M50.9907 29.1387C51.364 28.6908 51.6252 28.1683 51.6252 27.5711C51.6252 26.2274 50.5055 25.145 49.0872 25.145C47.6689 25.145 46.5492 26.2274 46.5492 27.5711C46.5492 28.1683 46.8104 28.6908 47.1837 29.1387C45.9893 29.7732 45.1309 30.9676 45.1309 32.3485C45.1309 34.4387 46.8851 36.1183 49.0872 36.1183C51.252 36.1183 53.0435 34.4387 53.0435 32.3485C53.0062 30.9302 52.1851 29.7732 50.9907 29.1387Z" fill="white"/>
<path d="M49.0876 36.8646C46.5122 36.8646 44.3848 34.8491 44.3848 32.3484C44.3848 31.0048 45.0193 29.7731 46.1017 28.9146C45.8777 28.5041 45.7658 28.0189 45.7658 27.571C45.7658 25.8167 47.2587 24.3984 49.0503 24.3984C50.8418 24.3984 52.3348 25.8167 52.3348 27.571C52.3348 28.0562 52.2228 28.5041 51.9988 28.9146C53.0812 29.7731 53.7158 31.0048 53.7158 32.3484C53.7531 34.8118 51.6629 36.8646 49.0876 36.8646ZM49.0876 25.8914C48.0798 25.8914 47.296 26.6379 47.296 27.571C47.296 27.9442 47.4453 28.3175 47.7439 28.6534C47.8932 28.84 47.9679 29.0639 47.9305 29.2879C47.8932 29.5118 47.7439 29.6984 47.5573 29.8104C46.5122 30.3703 45.915 31.3034 45.915 32.3858C45.915 34.0653 47.3334 35.409 49.1249 35.409C50.8791 35.409 52.3348 34.0653 52.3348 32.3858C52.3348 31.3407 51.7376 30.3703 50.6925 29.8104C50.5059 29.6984 50.3566 29.5118 50.3193 29.2879C50.2819 29.0639 50.3566 28.84 50.5059 28.6534C50.8045 28.3175 50.9538 27.9815 50.9538 27.6083C50.8791 26.6379 50.058 25.8914 49.0876 25.8914Z" fill="#37474F"/>
<path d="M56.4003 70.7548V48.883C56.4003 44.7774 53.0411 41.4182 48.9355 41.4182C44.8299 41.4182 41.4707 44.74 41.4707 48.883V70.7548H56.4003Z" fill="white"/>
<path d="M56.3968 71.5017H41.4672C41.0566 71.5017 40.7207 71.1658 40.7207 70.7552V48.8834C40.7207 44.3672 44.4158 40.6721 48.932 40.6721C53.4482 40.6721 57.1432 44.3672 57.1432 48.8834V70.7552C57.1432 71.1658 56.8073 71.5017 56.3968 71.5017ZM42.2137 70.0087H55.6503V48.8834C55.6503 45.1883 52.627 42.1651 48.932 42.1651C45.2369 42.1651 42.2137 45.1883 42.2137 48.8834V70.0087Z" fill="#37474F"/>
<path d="M56.4003 70.7548V48.883C56.4003 44.7774 53.0411 41.4182 48.9355 41.4182C44.8299 41.4182 41.4707 44.74 41.4707 48.883V70.7548H56.4003Z" fill="#B0BEC5"/>
<path d="M56.3968 71.5017H41.4672C41.0566 71.5017 40.7207 71.1658 40.7207 70.7552V48.8834C40.7207 44.3672 44.4158 40.6721 48.932 40.6721C53.4482 40.6721 57.1432 44.3672 57.1432 48.8834V70.7552C57.1432 71.1658 56.8073 71.5017 56.3968 71.5017ZM42.2137 70.0087H55.6503V48.8834C55.6503 45.1883 52.627 42.1651 48.932 42.1651C45.2369 42.1651 42.2137 45.1883 42.2137 48.8834V70.0087Z" fill="#37474F"/>
<path d="M56.4003 52.0933H41.4707V70.7552H56.4003V52.0933Z" fill="#FFECB3"/>
<path d="M56.3968 71.5014H41.4672C41.0566 71.5014 40.7207 71.1654 40.7207 70.7549V52.0929C40.7207 51.6824 41.0566 51.3464 41.4672 51.3464H56.3968C56.8073 51.3464 57.1432 51.6824 57.1432 52.0929V70.7549C57.1432 71.1654 56.8073 71.5014 56.3968 71.5014ZM42.2137 70.0084H55.6503V52.8394H42.2137V70.0084Z" fill="#37474F"/>
<path d="M48.7888 44.5164C46.1761 44.5164 44.0859 46.7185 44.0859 49.2938V62.9171" fill="white"/>
<path d="M44.0863 63.6637C43.6758 63.6637 43.3398 63.3278 43.3398 62.9172V49.294C43.3398 46.2334 45.7659 43.77 48.7891 43.77C49.1997 43.77 49.5356 44.1059 49.5356 44.5165C49.5356 44.9271 49.1997 45.263 48.7891 45.263C46.6617 45.263 44.8328 47.1292 44.8328 49.294V62.9172C44.8328 63.3278 44.4969 63.6637 44.0863 63.6637Z" fill="#37474F"/>
<path d="M61.2535 71.5017H36.2465C35.8359 71.5017 35.5 71.1658 35.5 70.7553C35.5 70.3447 35.8359 70.0088 36.2465 70.0088H61.2535C61.6641 70.0088 62 70.3447 62 70.7553C62 71.1658 61.6641 71.5017 61.2535 71.5017Z" fill="#37474F"/>
<path d="M56.7737 39.3659C56.7737 41.0454 55.3181 42.3891 53.5265 42.3891H44.3448C42.5533 42.3891 41.0977 41.0454 41.0977 39.3659V36.0813C41.0977 34.4018 42.5533 33.0581 44.3448 33.0581H53.5265C55.3181 33.0581 56.7737 34.4018 56.7737 36.0813V39.3659Z" fill="#FFAB00"/>
<path d="M53.525 43.1352H44.3433C42.1412 43.1352 40.3496 41.4556 40.3496 39.3655V36.081C40.3496 33.9909 42.1412 32.3113 44.3433 32.3113H53.525C55.7271 32.3113 57.5186 33.9909 57.5186 36.081V39.3655C57.5186 41.4556 55.7271 43.1352 53.525 43.1352ZM44.3433 33.8042C42.9623 33.8042 41.8426 34.812 41.8426 36.081V39.3655C41.8426 40.6345 42.9623 41.6423 44.3433 41.6423H53.525C54.9059 41.6423 56.0257 40.6345 56.0257 39.3655V36.081C56.0257 34.812 54.9059 33.8042 53.525 33.8042H44.3433Z" fill="#37474F"/>
<path d="M44.4594 39.4031C44.0488 39.4031 43.7129 39.0672 43.7129 38.6566V36.7904C43.7129 36.3799 44.0488 36.0439 44.4594 36.0439C44.8699 36.0439 45.2058 36.3799 45.2058 36.7904V38.6566C45.2058 39.0672 44.8699 39.4031 44.4594 39.4031Z" fill="#37474F"/>
<path d="M46.6977 39.4031C46.2871 39.4031 45.9512 39.0672 45.9512 38.6566V36.7904C45.9512 36.3799 46.2871 36.0439 46.6977 36.0439C47.1082 36.0439 47.4441 36.3799 47.4441 36.7904V38.6566C47.4441 39.0672 47.1082 39.4031 46.6977 39.4031Z" fill="#37474F"/>
<path d="M48.9398 39.4026C48.5293 39.4026 48.1934 39.0667 48.1934 38.6561V36.7899C48.1934 36.3794 48.5293 36.0435 48.9398 36.0435C49.3504 36.0435 49.6863 36.3794 49.6863 36.7899V38.6561C49.6863 39.0667 49.3504 39.4026 48.9398 39.4026Z" fill="#37474F"/>
<path d="M51.1781 39.4026C50.7676 39.4026 50.4316 39.0667 50.4316 38.6561V36.7899C50.4316 36.3794 50.7676 36.0435 51.1781 36.0435C51.5887 36.0435 51.9246 36.3794 51.9246 36.7899V38.6561C51.9246 39.0667 51.5887 39.4026 51.1781 39.4026Z" fill="#37474F"/>
<path d="M53.4164 39.4029C53.0058 39.4029 52.6699 39.0669 52.6699 38.6564V36.7902C52.6699 36.3796 53.0058 36.0437 53.4164 36.0437C53.827 36.0437 54.1629 36.3796 54.1629 36.7902V38.6564C54.1629 39.0669 53.827 39.4029 53.4164 39.4029Z" fill="#37474F"/>
<path d="M52.6664 68.1424C52.2558 68.1424 51.9199 67.8065 51.9199 67.3959V49.8537C51.9199 49.4431 52.2558 49.1072 52.6664 49.1072C53.077 49.1072 53.4129 49.4431 53.4129 49.8537V67.3959C53.4129 67.8065 53.077 68.1424 52.6664 68.1424Z" fill="#37474F"/>
<path d="M52.2926 55.0789H50.0531C49.6426 55.0789 49.3066 54.743 49.3066 54.3324C49.3066 53.9219 49.6426 53.5859 50.0531 53.5859H52.2926C52.7031 53.5859 53.039 53.9219 53.039 54.3324C53.039 54.743 52.7031 55.0789 52.2926 55.0789Z" fill="#37474F"/>
<path d="M52.2926 58.8118H50.0531C49.6426 58.8118 49.3066 58.4759 49.3066 58.0653C49.3066 57.6548 49.6426 57.3188 50.0531 57.3188H52.2926C52.7031 57.3188 53.039 57.6548 53.039 58.0653C53.039 58.4759 52.7031 58.8118 52.2926 58.8118Z" fill="#37474F"/>
<path d="M52.2926 62.5437H50.0531C49.6426 62.5437 49.3066 62.2078 49.3066 61.7973C49.3066 61.3867 49.6426 61.0508 50.0531 61.0508H52.2926C52.7031 61.0508 53.039 61.3867 53.039 61.7973C53.039 62.2078 52.7031 62.5437 52.2926 62.5437Z" fill="#37474F"/>
<path d="M52.2926 66.2766H50.0531C49.6426 66.2766 49.3066 65.9407 49.3066 65.5302C49.3066 65.1196 49.6426 64.7837 50.0531 64.7837H52.2926C52.7031 64.7837 53.039 65.1196 53.039 65.5302C53.039 65.9407 52.7031 66.2766 52.2926 66.2766Z" fill="#37474F"/>
</svg>
