<svg width="162" height="40" viewBox="0 0 162 40" fill="none" xmlns="http://www.w3.org/2000/svg">
<g clip-path="url(#clip0_1221_1138)">
<path d="M16.1766 34.7886C13.9661 34.7886 11.8052 34.1331 9.96718 32.905C8.12917 31.6769 6.69662 29.9313 5.85068 27.889C5.00474 25.8468 4.7834 23.5995 5.21466 21.4314C5.64592 19.2633 6.7104 17.2718 8.2735 15.7087C9.83659 14.1456 11.8281 13.0812 13.9962 12.6499C16.1642 12.2186 18.4115 12.44 20.4538 13.2859C22.4961 14.1319 24.2417 15.5644 25.4698 17.4024C26.6979 19.2404 27.3534 21.4013 27.3534 23.6119" stroke="#52EBAB" stroke-width="9.71891"/>
<path d="M16.1768 5.6319H34.1567V23.6119" stroke="#348E7B" stroke-width="9.71891"/>
<path d="M51.4448 29C51.2763 29 51.1247 28.941 50.9899 28.8231C50.8551 28.6883 50.7878 28.5283 50.7878 28.343V11.9686C50.7878 11.7833 50.8551 11.6317 50.9899 11.5137C51.1247 11.379 51.2763 11.3116 51.4448 11.3116H54.8056C55.1088 11.3116 55.3278 11.3874 55.4626 11.539C55.5973 11.6738 55.69 11.7749 55.7405 11.8422L60.946 20.2063V11.9686C60.946 11.7833 61.0133 11.6317 61.1481 11.5137C61.2829 11.379 61.4345 11.3116 61.603 11.3116H65.4186C65.6039 11.3116 65.7555 11.379 65.8735 11.5137C66.0082 11.6317 66.0756 11.7833 66.0756 11.9686V28.343C66.0756 28.5283 66.0082 28.6883 65.8735 28.8231C65.7555 28.941 65.6039 29 65.4186 29H62.0831C61.763 29 61.5356 28.9326 61.4008 28.7978C61.266 28.6462 61.1734 28.5367 61.1228 28.4693L55.9174 20.5854V28.343C55.9174 28.5283 55.85 28.6883 55.7152 28.8231C55.5973 28.941 55.4457 29 55.2604 29H51.4448ZM72.6574 29.2527C71.7477 29.2527 70.9139 29.0421 70.1558 28.621C69.4146 28.1998 68.8249 27.5681 68.3869 26.7258C67.9489 25.8835 67.7299 24.8222 67.7299 23.5419V16.517C67.7299 16.3317 67.7889 16.1801 67.9068 16.0622C68.0416 15.9274 68.2016 15.86 68.3869 15.86H72.3795C72.5648 15.86 72.7164 15.9274 72.8343 16.0622C72.9691 16.1801 73.0365 16.3317 73.0365 16.517V23.365C73.0365 24.6621 73.6177 25.3107 74.78 25.3107C75.336 25.3107 75.7655 25.1422 76.0688 24.8053C76.3888 24.4684 76.5489 23.9883 76.5489 23.365V16.517C76.5489 16.3317 76.6078 16.1801 76.7258 16.0622C76.8605 15.9274 77.0206 15.86 77.2059 15.86H81.1984C81.3669 15.86 81.5185 15.9274 81.6533 16.0622C81.788 16.1801 81.8554 16.3317 81.8554 16.517V28.343C81.8554 28.5283 81.788 28.6883 81.6533 28.8231C81.5185 28.941 81.3669 29 81.1984 29H77.5091C77.3238 29 77.1638 28.941 77.029 28.8231C76.9111 28.6883 76.8521 28.5283 76.8521 28.343V27.4333C76.431 28.0566 75.8582 28.5199 75.1338 28.8231C74.4094 29.1095 73.584 29.2527 72.6574 29.2527ZM83.9837 29C83.7984 29 83.6384 28.941 83.5036 28.8231C83.3857 28.6883 83.3267 28.5283 83.3267 28.343V16.517C83.3267 16.3317 83.3857 16.1801 83.5036 16.0622C83.6384 15.9274 83.7984 15.86 83.9837 15.86H87.4456C87.6309 15.86 87.7825 15.9274 87.9005 16.0622C88.0352 16.1801 88.1026 16.3317 88.1026 16.517V17.3509C88.4227 16.9466 88.886 16.5676 89.4924 16.2138C90.0989 15.8432 90.8148 15.641 91.6403 15.6073C93.6113 15.5568 94.9421 16.2643 95.6328 17.73C96.0203 17.1235 96.5678 16.6181 97.2753 16.2138C97.9997 15.8095 98.7662 15.6073 99.5748 15.6073C100.451 15.6073 101.234 15.8095 101.925 16.2138C102.632 16.6013 103.197 17.2077 103.618 18.0332C104.039 18.8418 104.25 19.9031 104.25 21.2171V28.343C104.25 28.5283 104.182 28.6883 104.047 28.8231C103.93 28.941 103.778 29 103.593 29H99.9033C99.718 29 99.558 28.941 99.4232 28.8231C99.3053 28.6883 99.2463 28.5283 99.2463 28.343V21.3687C99.2463 20.9307 99.1789 20.5854 99.0442 20.3327C98.9094 20.0631 98.7325 19.8694 98.5135 19.7515C98.3114 19.6167 98.0671 19.5493 97.7807 19.5493C97.5112 19.5493 97.2669 19.6167 97.0479 19.7515C96.8289 19.8694 96.652 20.0631 96.5173 20.3327C96.3993 20.5854 96.3404 20.9307 96.3404 21.3687V28.343C96.3404 28.5283 96.273 28.6883 96.1382 28.8231C96.0203 28.941 95.8687 29 95.6834 29H91.9941C91.8088 29 91.6487 28.941 91.514 28.8231C91.396 28.6883 91.3371 28.5283 91.3371 28.343V21.3687C91.3371 20.9307 91.2697 20.5854 91.1349 20.3327C91.0001 20.0631 90.8233 19.8694 90.6043 19.7515C90.4021 19.6167 90.1578 19.5493 89.8715 19.5493C89.6019 19.5493 89.3577 19.6167 89.1387 19.7515C88.9197 19.8863 88.7428 20.08 88.608 20.3327C88.4732 20.5854 88.4058 20.9307 88.4058 21.3687V28.343C88.4058 28.5283 88.3385 28.6883 88.2037 28.8231C88.0858 28.941 87.9342 29 87.7488 29H83.9837ZM114.326 29.2527C113.416 29.2527 112.65 29.1095 112.026 28.8231C111.42 28.5199 110.906 28.124 110.485 27.6355V28.343C110.485 28.5283 110.418 28.6883 110.283 28.8231C110.165 28.941 110.013 29 109.828 29H106.265C106.08 29 105.92 28.941 105.785 28.8231C105.667 28.6883 105.608 28.5283 105.608 28.343V11.7159C105.608 11.5306 105.667 11.379 105.785 11.261C105.92 11.1263 106.08 11.0589 106.265 11.0589H110.156C110.325 11.0589 110.477 11.1263 110.611 11.261C110.746 11.379 110.813 11.5306 110.813 11.7159V16.9466C111.218 16.5423 111.706 16.2222 112.279 15.9864C112.869 15.7337 113.551 15.6073 114.326 15.6073C115.118 15.6073 115.834 15.7421 116.474 16.0116C117.114 16.2643 117.67 16.635 118.142 17.1235C118.613 17.612 118.984 18.2269 119.253 18.9681C119.523 19.6925 119.675 20.5264 119.708 21.4698C119.725 21.8236 119.733 22.1352 119.733 22.4047C119.733 22.6743 119.725 22.9944 119.708 23.365C119.658 24.3589 119.498 25.2265 119.228 25.9677C118.959 26.7089 118.588 27.3238 118.116 27.8123C117.645 28.3009 117.089 28.6631 116.449 28.8989C115.825 29.1348 115.118 29.2527 114.326 29.2527ZM112.608 25.3107C113.046 25.3107 113.383 25.2265 113.618 25.058C113.871 24.8727 114.048 24.6284 114.149 24.3252C114.267 24.0051 114.343 23.6429 114.376 23.2386C114.427 22.6996 114.427 22.1605 114.376 21.6214C114.343 21.2171 114.267 20.8633 114.149 20.5601C114.048 20.24 113.871 19.9958 113.618 19.8273C113.383 19.642 113.046 19.5493 112.608 19.5493C112.186 19.5493 111.85 19.6336 111.597 19.802C111.344 19.9705 111.15 20.1895 111.016 20.459C110.898 20.7286 110.83 21.0402 110.813 21.394C110.797 21.7477 110.788 22.0594 110.788 22.3289C110.788 22.5985 110.797 22.9186 110.813 23.2892C110.83 23.6598 110.889 23.9967 110.99 24.2999C111.108 24.6032 111.294 24.8474 111.546 25.0327C111.816 25.218 112.17 25.3107 112.608 25.3107ZM127.251 29.2527C125.145 29.2527 123.469 28.7136 122.222 27.6355C120.992 26.5405 120.361 24.8727 120.327 22.6322C120.327 22.5648 120.327 22.4806 120.327 22.3795C120.327 22.2616 120.327 22.1773 120.327 22.1268C120.377 20.7286 120.681 19.5493 121.237 18.5891C121.809 17.612 122.601 16.8708 123.612 16.3654C124.64 15.86 125.844 15.6073 127.225 15.6073C128.775 15.6073 130.056 15.919 131.066 16.5423C132.094 17.1488 132.86 17.9658 133.366 18.9934C133.871 20.0042 134.124 21.1413 134.124 22.4047V23.1123C134.124 23.2807 134.057 23.4324 133.922 23.5671C133.787 23.7019 133.627 23.7693 133.442 23.7693H125.659C125.659 23.7693 125.659 23.7861 125.659 23.8198C125.659 23.8535 125.659 23.8872 125.659 23.9209C125.659 24.3252 125.709 24.6874 125.81 25.0075C125.928 25.3107 126.105 25.555 126.341 25.7403C126.577 25.9087 126.863 25.993 127.2 25.993C127.419 25.993 127.604 25.9593 127.756 25.8919C127.908 25.8245 128.034 25.7403 128.135 25.6392C128.253 25.5213 128.354 25.4118 128.438 25.3107C128.59 25.1591 128.716 25.0664 128.817 25.0327C128.918 24.9822 129.07 24.9569 129.272 24.9569H133.239C133.391 24.9569 133.517 25.0075 133.619 25.1085C133.736 25.2096 133.787 25.336 133.77 25.4876C133.753 25.7908 133.61 26.1614 133.341 26.5994C133.071 27.0206 132.667 27.4333 132.128 27.8376C131.605 28.2419 130.932 28.5788 130.106 28.8484C129.281 29.1179 128.329 29.2527 127.251 29.2527ZM125.659 20.9391H128.792V20.8886C128.792 20.4338 128.733 20.0463 128.615 19.7262C128.497 19.4061 128.32 19.1703 128.085 19.0187C127.849 18.8502 127.562 18.766 127.225 18.766C126.888 18.766 126.602 18.8502 126.366 19.0187C126.13 19.1703 125.954 19.4061 125.836 19.7262C125.718 20.0463 125.659 20.4338 125.659 20.8886V20.9391ZM135.725 29C135.54 29 135.38 28.941 135.245 28.8231C135.127 28.6883 135.068 28.5283 135.068 28.343V16.517C135.068 16.3317 135.127 16.1801 135.245 16.0622C135.38 15.9274 135.54 15.86 135.725 15.86H139.389C139.575 15.86 139.726 15.9274 139.844 16.0622C139.979 16.1801 140.046 16.3317 140.046 16.517V17.452C140.552 16.9635 141.124 16.576 141.765 16.2896C142.422 16.0032 143.138 15.86 143.913 15.86H145.05C145.235 15.86 145.395 15.9274 145.53 16.0622C145.665 16.1801 145.732 16.3317 145.732 16.517V19.7768C145.732 19.9621 145.665 20.1221 145.53 20.2569C145.395 20.3916 145.235 20.459 145.05 20.459H142.219C141.613 20.459 141.15 20.6191 140.83 20.9391C140.51 21.2424 140.35 21.6972 140.35 22.3037V28.343C140.35 28.5283 140.282 28.6883 140.147 28.8231C140.03 28.941 139.878 29 139.693 29H135.725ZM153.296 29.3032C151.611 29.3032 150.204 29.0505 149.076 28.5452C147.947 28.0229 147.096 27.3491 146.524 26.5236C145.951 25.6813 145.648 24.78 145.614 23.8198C145.614 23.6682 145.664 23.5419 145.765 23.4408C145.883 23.3229 146.018 23.2639 146.17 23.2639H150.39C150.642 23.2639 150.836 23.3144 150.971 23.4155C151.106 23.5166 151.198 23.6177 151.249 23.7187C151.417 24.0051 151.594 24.2494 151.78 24.4515C151.965 24.6369 152.184 24.78 152.437 24.8811C152.689 24.9654 152.984 25.0075 153.321 25.0075C153.692 25.0075 154.037 24.9317 154.357 24.78C154.677 24.6116 154.93 24.3757 155.115 24.0725C155.317 23.7524 155.418 23.365 155.418 22.9101C155.418 22.5227 155.326 22.1857 155.14 21.8994C154.972 21.5961 154.728 21.3519 154.408 21.1666C154.104 20.9813 153.742 20.8886 153.321 20.8886C152.984 20.8886 152.706 20.9307 152.487 21.0149C152.285 21.0823 152.116 21.1666 151.982 21.2676C151.847 21.3687 151.721 21.4614 151.603 21.5456C151.502 21.613 151.384 21.6467 151.249 21.6467H147.079C146.928 21.6467 146.793 21.5961 146.675 21.4951C146.574 21.3771 146.524 21.2424 146.524 21.0908L147.484 12.1202C147.517 11.8507 147.619 11.6485 147.787 11.5137C147.972 11.379 148.174 11.3116 148.393 11.3116H159.108C159.293 11.3116 159.445 11.379 159.562 11.5137C159.697 11.6317 159.765 11.7833 159.765 11.9686V14.9503C159.765 15.1188 159.697 15.2704 159.562 15.4052C159.445 15.54 159.293 15.6073 159.108 15.6073H151.754L151.502 18.1343C151.923 17.8479 152.369 17.6373 152.841 17.5025C153.329 17.3509 154.003 17.2751 154.862 17.2751C155.654 17.2751 156.412 17.4183 157.137 17.7047C157.878 17.9742 158.535 18.3701 159.108 18.8923C159.697 19.3977 160.16 20.0042 160.497 20.7117C160.834 21.4192 161.003 22.2026 161.003 23.0617C161.003 24.2073 160.708 25.2517 160.118 26.1951C159.529 27.1385 158.661 27.8966 157.516 28.4693C156.37 29.0253 154.963 29.3032 153.296 29.3032Z" fill="#1A3235"/>
<g clip-path="url(#clip1_1221_1138)">
<path d="M16.1766 34.7886C13.9661 34.7886 11.8052 34.1331 9.96718 32.905C8.12917 31.6769 6.69662 29.9313 5.85068 27.889C5.00474 25.8468 4.7834 23.5995 5.21466 21.4314C5.64592 19.2633 6.7104 17.2718 8.2735 15.7087C9.83659 14.1456 11.8281 13.0812 13.9962 12.6499C16.1642 12.2186 18.4115 12.44 20.4538 13.2859C22.4961 14.1319 24.2417 15.5644 25.4698 17.4024C26.6979 19.2404 27.3534 21.4013 27.3534 23.6119" stroke="#52EBAB" stroke-width="9.71891"/>
<path d="M16.1768 5.6319H34.1567V23.6119" stroke="#348E7B" stroke-width="9.71891"/>
<path d="M51.4448 29C51.2763 29 51.1247 28.941 50.9899 28.8231C50.8551 28.6883 50.7878 28.5283 50.7878 28.343V11.9686C50.7878 11.7833 50.8551 11.6317 50.9899 11.5137C51.1247 11.379 51.2763 11.3116 51.4448 11.3116H54.8056C55.1088 11.3116 55.3278 11.3874 55.4626 11.539C55.5973 11.6738 55.69 11.7749 55.7405 11.8422L60.946 20.2063V11.9686C60.946 11.7833 61.0133 11.6317 61.1481 11.5137C61.2829 11.379 61.4345 11.3116 61.603 11.3116H65.4186C65.6039 11.3116 65.7555 11.379 65.8735 11.5137C66.0082 11.6317 66.0756 11.7833 66.0756 11.9686V28.343C66.0756 28.5283 66.0082 28.6883 65.8735 28.8231C65.7555 28.941 65.6039 29 65.4186 29H62.0831C61.763 29 61.5356 28.9326 61.4008 28.7978C61.266 28.6462 61.1734 28.5367 61.1228 28.4693L55.9174 20.5854V28.343C55.9174 28.5283 55.85 28.6883 55.7152 28.8231C55.5973 28.941 55.4457 29 55.2604 29H51.4448ZM72.6574 29.2527C71.7477 29.2527 70.9139 29.0421 70.1558 28.621C69.4146 28.1998 68.8249 27.5681 68.3869 26.7258C67.9489 25.8835 67.7299 24.8222 67.7299 23.5419V16.517C67.7299 16.3317 67.7889 16.1801 67.9068 16.0622C68.0416 15.9274 68.2016 15.86 68.3869 15.86H72.3795C72.5648 15.86 72.7164 15.9274 72.8343 16.0622C72.9691 16.1801 73.0365 16.3317 73.0365 16.517V23.365C73.0365 24.6621 73.6177 25.3107 74.78 25.3107C75.336 25.3107 75.7655 25.1422 76.0688 24.8053C76.3888 24.4684 76.5489 23.9883 76.5489 23.365V16.517C76.5489 16.3317 76.6078 16.1801 76.7258 16.0622C76.8605 15.9274 77.0206 15.86 77.2059 15.86H81.1984C81.3669 15.86 81.5185 15.9274 81.6533 16.0622C81.788 16.1801 81.8554 16.3317 81.8554 16.517V28.343C81.8554 28.5283 81.788 28.6883 81.6533 28.8231C81.5185 28.941 81.3669 29 81.1984 29H77.5091C77.3238 29 77.1638 28.941 77.029 28.8231C76.9111 28.6883 76.8521 28.5283 76.8521 28.343V27.4333C76.431 28.0566 75.8582 28.5199 75.1338 28.8231C74.4094 29.1095 73.584 29.2527 72.6574 29.2527ZM83.9837 29C83.7984 29 83.6384 28.941 83.5036 28.8231C83.3857 28.6883 83.3267 28.5283 83.3267 28.343V16.517C83.3267 16.3317 83.3857 16.1801 83.5036 16.0622C83.6384 15.9274 83.7984 15.86 83.9837 15.86H87.4456C87.6309 15.86 87.7825 15.9274 87.9005 16.0622C88.0352 16.1801 88.1026 16.3317 88.1026 16.517V17.3509C88.4227 16.9466 88.886 16.5676 89.4924 16.2138C90.0989 15.8432 90.8148 15.641 91.6403 15.6073C93.6113 15.5568 94.9421 16.2643 95.6328 17.73C96.0203 17.1235 96.5678 16.6181 97.2753 16.2138C97.9997 15.8095 98.7662 15.6073 99.5748 15.6073C100.451 15.6073 101.234 15.8095 101.925 16.2138C102.632 16.6013 103.197 17.2077 103.618 18.0332C104.039 18.8418 104.25 19.9031 104.25 21.2171V28.343C104.25 28.5283 104.182 28.6883 104.047 28.8231C103.93 28.941 103.778 29 103.593 29H99.9033C99.718 29 99.558 28.941 99.4232 28.8231C99.3053 28.6883 99.2463 28.5283 99.2463 28.343V21.3687C99.2463 20.9307 99.1789 20.5854 99.0442 20.3327C98.9094 20.0631 98.7325 19.8694 98.5135 19.7515C98.3114 19.6167 98.0671 19.5493 97.7807 19.5493C97.5112 19.5493 97.2669 19.6167 97.0479 19.7515C96.8289 19.8694 96.652 20.0631 96.5173 20.3327C96.3993 20.5854 96.3404 20.9307 96.3404 21.3687V28.343C96.3404 28.5283 96.273 28.6883 96.1382 28.8231C96.0203 28.941 95.8687 29 95.6834 29H91.9941C91.8088 29 91.6487 28.941 91.514 28.8231C91.396 28.6883 91.3371 28.5283 91.3371 28.343V21.3687C91.3371 20.9307 91.2697 20.5854 91.1349 20.3327C91.0001 20.0631 90.8233 19.8694 90.6043 19.7515C90.4021 19.6167 90.1578 19.5493 89.8715 19.5493C89.6019 19.5493 89.3577 19.6167 89.1387 19.7515C88.9197 19.8863 88.7428 20.08 88.608 20.3327C88.4732 20.5854 88.4058 20.9307 88.4058 21.3687V28.343C88.4058 28.5283 88.3385 28.6883 88.2037 28.8231C88.0858 28.941 87.9342 29 87.7488 29H83.9837ZM114.326 29.2527C113.416 29.2527 112.65 29.1095 112.026 28.8231C111.42 28.5199 110.906 28.124 110.485 27.6355V28.343C110.485 28.5283 110.418 28.6883 110.283 28.8231C110.165 28.941 110.013 29 109.828 29H106.265C106.08 29 105.92 28.941 105.785 28.8231C105.667 28.6883 105.608 28.5283 105.608 28.343V11.7159C105.608 11.5306 105.667 11.379 105.785 11.261C105.92 11.1263 106.08 11.0589 106.265 11.0589H110.156C110.325 11.0589 110.477 11.1263 110.611 11.261C110.746 11.379 110.813 11.5306 110.813 11.7159V16.9466C111.218 16.5423 111.706 16.2222 112.279 15.9864C112.869 15.7337 113.551 15.6073 114.326 15.6073C115.118 15.6073 115.834 15.7421 116.474 16.0116C117.114 16.2643 117.67 16.635 118.142 17.1235C118.613 17.612 118.984 18.2269 119.253 18.9681C119.523 19.6925 119.675 20.5264 119.708 21.4698C119.725 21.8236 119.733 22.1352 119.733 22.4047C119.733 22.6743 119.725 22.9944 119.708 23.365C119.658 24.3589 119.498 25.2265 119.228 25.9677C118.959 26.7089 118.588 27.3238 118.116 27.8123C117.645 28.3009 117.089 28.6631 116.449 28.8989C115.825 29.1348 115.118 29.2527 114.326 29.2527ZM112.608 25.3107C113.046 25.3107 113.383 25.2265 113.618 25.058C113.871 24.8727 114.048 24.6284 114.149 24.3252C114.267 24.0051 114.343 23.6429 114.376 23.2386C114.427 22.6996 114.427 22.1605 114.376 21.6214C114.343 21.2171 114.267 20.8633 114.149 20.5601C114.048 20.24 113.871 19.9958 113.618 19.8273C113.383 19.642 113.046 19.5493 112.608 19.5493C112.186 19.5493 111.85 19.6336 111.597 19.802C111.344 19.9705 111.15 20.1895 111.016 20.459C110.898 20.7286 110.83 21.0402 110.813 21.394C110.797 21.7477 110.788 22.0594 110.788 22.3289C110.788 22.5985 110.797 22.9186 110.813 23.2892C110.83 23.6598 110.889 23.9967 110.99 24.2999C111.108 24.6032 111.294 24.8474 111.546 25.0327C111.816 25.218 112.17 25.3107 112.608 25.3107ZM127.251 29.2527C125.145 29.2527 123.469 28.7136 122.222 27.6355C120.992 26.5405 120.361 24.8727 120.327 22.6322C120.327 22.5648 120.327 22.4806 120.327 22.3795C120.327 22.2616 120.327 22.1773 120.327 22.1268C120.377 20.7286 120.681 19.5493 121.237 18.5891C121.809 17.612 122.601 16.8708 123.612 16.3654C124.64 15.86 125.844 15.6073 127.225 15.6073C128.775 15.6073 130.056 15.919 131.066 16.5423C132.094 17.1488 132.86 17.9658 133.366 18.9934C133.871 20.0042 134.124 21.1413 134.124 22.4047V23.1123C134.124 23.2807 134.057 23.4324 133.922 23.5671C133.787 23.7019 133.627 23.7693 133.442 23.7693H125.659C125.659 23.7693 125.659 23.7861 125.659 23.8198C125.659 23.8535 125.659 23.8872 125.659 23.9209C125.659 24.3252 125.709 24.6874 125.81 25.0075C125.928 25.3107 126.105 25.555 126.341 25.7403C126.577 25.9087 126.863 25.993 127.2 25.993C127.419 25.993 127.604 25.9593 127.756 25.8919C127.908 25.8245 128.034 25.7403 128.135 25.6392C128.253 25.5213 128.354 25.4118 128.438 25.3107C128.59 25.1591 128.716 25.0664 128.817 25.0327C128.918 24.9822 129.07 24.9569 129.272 24.9569H133.239C133.391 24.9569 133.517 25.0075 133.619 25.1085C133.736 25.2096 133.787 25.336 133.77 25.4876C133.753 25.7908 133.61 26.1614 133.341 26.5994C133.071 27.0206 132.667 27.4333 132.128 27.8376C131.605 28.2419 130.932 28.5788 130.106 28.8484C129.281 29.1179 128.329 29.2527 127.251 29.2527ZM125.659 20.9391H128.792V20.8886C128.792 20.4338 128.733 20.0463 128.615 19.7262C128.497 19.4061 128.32 19.1703 128.085 19.0187C127.849 18.8502 127.562 18.766 127.225 18.766C126.888 18.766 126.602 18.8502 126.366 19.0187C126.13 19.1703 125.954 19.4061 125.836 19.7262C125.718 20.0463 125.659 20.4338 125.659 20.8886V20.9391ZM135.725 29C135.54 29 135.38 28.941 135.245 28.8231C135.127 28.6883 135.068 28.5283 135.068 28.343V16.517C135.068 16.3317 135.127 16.1801 135.245 16.0622C135.38 15.9274 135.54 15.86 135.725 15.86H139.389C139.575 15.86 139.726 15.9274 139.844 16.0622C139.979 16.1801 140.046 16.3317 140.046 16.517V17.452C140.552 16.9635 141.124 16.576 141.765 16.2896C142.422 16.0032 143.138 15.86 143.913 15.86H145.05C145.235 15.86 145.395 15.9274 145.53 16.0622C145.665 16.1801 145.732 16.3317 145.732 16.517V19.7768C145.732 19.9621 145.665 20.1221 145.53 20.2569C145.395 20.3916 145.235 20.459 145.05 20.459H142.219C141.613 20.459 141.15 20.6191 140.83 20.9391C140.51 21.2424 140.35 21.6972 140.35 22.3037V28.343C140.35 28.5283 140.282 28.6883 140.147 28.8231C140.03 28.941 139.878 29 139.693 29H135.725ZM153.296 29.3032C151.611 29.3032 150.204 29.0505 149.076 28.5452C147.947 28.0229 147.096 27.3491 146.524 26.5236C145.951 25.6813 145.648 24.78 145.614 23.8198C145.614 23.6682 145.664 23.5419 145.765 23.4408C145.883 23.3229 146.018 23.2639 146.17 23.2639H150.39C150.642 23.2639 150.836 23.3144 150.971 23.4155C151.106 23.5166 151.198 23.6177 151.249 23.7187C151.417 24.0051 151.594 24.2494 151.78 24.4515C151.965 24.6369 152.184 24.78 152.437 24.8811C152.689 24.9654 152.984 25.0075 153.321 25.0075C153.692 25.0075 154.037 24.9317 154.357 24.78C154.677 24.6116 154.93 24.3757 155.115 24.0725C155.317 23.7524 155.418 23.365 155.418 22.9101C155.418 22.5227 155.326 22.1857 155.14 21.8994C154.972 21.5961 154.728 21.3519 154.408 21.1666C154.104 20.9813 153.742 20.8886 153.321 20.8886C152.984 20.8886 152.706 20.9307 152.487 21.0149C152.285 21.0823 152.116 21.1666 151.982 21.2676C151.847 21.3687 151.721 21.4614 151.603 21.5456C151.502 21.613 151.384 21.6467 151.249 21.6467H147.079C146.928 21.6467 146.793 21.5961 146.675 21.4951C146.574 21.3771 146.524 21.2424 146.524 21.0908L147.484 12.1202C147.517 11.8507 147.619 11.6485 147.787 11.5137C147.972 11.379 148.174 11.3116 148.393 11.3116H159.108C159.293 11.3116 159.445 11.379 159.562 11.5137C159.697 11.6317 159.765 11.7833 159.765 11.9686V14.9503C159.765 15.1188 159.697 15.2704 159.562 15.4052C159.445 15.54 159.293 15.6073 159.108 15.6073H151.754L151.502 18.1343C151.923 17.8479 152.369 17.6373 152.841 17.5025C153.329 17.3509 154.003 17.2751 154.862 17.2751C155.654 17.2751 156.412 17.4183 157.137 17.7047C157.878 17.9742 158.535 18.3701 159.108 18.8923C159.697 19.3977 160.16 20.0042 160.497 20.7117C160.834 21.4192 161.003 22.2026 161.003 23.0617C161.003 24.2073 160.708 25.2517 160.118 26.1951C159.529 27.1385 158.661 27.8966 157.516 28.4693C156.37 29.0253 154.963 29.3032 153.296 29.3032Z" fill="#1A3235"/>
</g>
</g>
<defs>
<clipPath id="clip0_1221_1138">
<rect width="162" height="40" fill="white"/>
</clipPath>
<clipPath id="clip1_1221_1138">
<rect width="162" height="40" fill="white"/>
</clipPath>
</defs>
</svg>
