<svg width="56" height="56" viewBox="0 0 56 56" fill="none" xmlns="http://www.w3.org/2000/svg">
<path d="M40 16.8967C31.1634 16.8967 24 9.75984 24 0.956055L56 0.956055C56 9.75984 48.8366 16.8967 40 16.8967Z" fill="#FBE0E0"/>
<path d="M43.75 29.75H54.25" stroke="#1F1F1F" stroke-width="3" stroke-linecap="round" stroke-linejoin="round"/>
<path d="M49 24.5V35" stroke="#1F1F1F" stroke-width="3" stroke-linecap="round" stroke-linejoin="round"/>
<path d="M23.625 35C30.8737 35 36.75 29.1237 36.75 21.875C36.75 14.6263 30.8737 8.75 23.625 8.75C16.3763 8.75 10.5 14.6263 10.5 21.875C10.5 29.1237 16.3763 35 23.625 35Z" stroke="#1F1F1F" stroke-width="3" stroke-miterlimit="10"/>
<path d="M4.85645 43.75C7.15607 41.0092 10.0281 38.8053 13.2706 37.2932C16.5131 35.7811 20.0474 34.9976 23.6252 34.9976C27.203 34.9976 30.7373 35.7811 33.9798 37.2932C37.2223 38.8053 40.0943 41.0092 42.394 43.75" stroke="#1F1F1F" stroke-width="3" stroke-linecap="round" stroke-linejoin="round"/>
</svg>
