<svg width="59" height="64" viewBox="0 0 59 64" fill="none" xmlns="http://www.w3.org/2000/svg">
<path d="M43 1.39876e-06C34.1634 2.17128e-06 27 7.13688 27 15.9407L27 31.8813L43 31.8813C51.8366 31.8813 59 24.7444 59 15.9407C59 7.13688 51.8366 6.26248e-07 43 1.39876e-06Z" fill="#D4E2FC"/>
<path d="M49 46.7844V25.2157C48.9983 24.9041 48.9145 24.5985 48.7571 24.3297C48.5996 24.0608 48.374 23.8383 48.1031 23.6844L28.8531 12.8563C28.5937 12.7065 28.2995 12.6277 28 12.6277C27.7005 12.6277 27.4063 12.7065 27.1469 12.8563L7.89687 23.6844C7.62595 23.8383 7.40039 24.0608 7.24293 24.3297C7.08547 24.5985 7.00167 24.9041 7 25.2157V46.7844C7.00167 47.096 7.08547 47.4016 7.24293 47.6704C7.40039 47.9392 7.62595 48.1618 7.89687 48.3157L27.1469 59.1438C27.4063 59.2935 27.7005 59.3724 28 59.3724C28.2995 59.3724 28.5937 59.2935 28.8531 59.1438L48.1031 48.3157C48.374 48.1618 48.5996 47.9392 48.7571 47.6704C48.9145 47.4016 48.9983 47.096 49 46.7844V46.7844Z" stroke="#1F1F1F" stroke-width="3" stroke-linecap="round" stroke-linejoin="round"/>
<path d="M38.7188 41.3594V29.9844L17.5 18.2812" stroke="#1F1F1F" stroke-width="3" stroke-linecap="round" stroke-linejoin="round"/>
<path d="M48.7595 24.3188L28.197 36.0001L7.24072 24.3188" stroke="#1F1F1F" stroke-width="3" stroke-linecap="round" stroke-linejoin="round"/>
<path d="M28.1969 36L28 59.3625" stroke="#1F1F1F" stroke-width="3" stroke-linecap="round" stroke-linejoin="round"/>
</svg>
