<svg width="132" height="36" viewBox="0 0 132 36" fill="none" xmlns="http://www.w3.org/2000/svg">
<path d="M16.8014 36H5.10904L16.8014 18.2857H28.4937L16.8014 36Z" fill="#181818"/>
<path d="M12.523 0H24.5005L12.523 18.2858H0.545471L12.523 0Z" fill="#181818"/>
<path d="M52.3456 15.4103C52.3456 16.4966 52.0842 17.515 51.5615 18.4656C51.058 19.4161 50.2545 20.1824 49.1508 20.7643C48.0665 21.3463 46.6918 21.6373 45.0266 21.6373H41.6285V29.4356H37.5624V9.12501H45.0266C46.595 9.12501 47.931 9.3966 49.0347 9.93977C50.1383 10.4829 50.9612 11.2298 51.5034 12.1803C52.0649 13.1309 52.3456 14.2075 52.3456 15.4103ZM44.8524 18.3492C45.9754 18.3492 46.808 18.097 47.3501 17.5926C47.8923 17.0689 48.1633 16.3414 48.1633 15.4103C48.1633 13.4316 47.0597 12.4422 44.8524 12.4422H41.6285V18.3492H44.8524Z" fill="#181818"/>
<path d="M58.1369 15.8176C58.6597 14.9641 59.3374 14.2948 60.17 13.8098C61.0219 13.3249 61.99 13.0824 63.0743 13.0824V17.3598H61.9997C60.7218 17.3598 59.7537 17.6605 59.0953 18.2619C58.4564 18.8633 58.1369 19.9108 58.1369 21.4045V29.4356H54.0708V13.3152H58.1369V15.8176Z" fill="#181818"/>
<path d="M71.796 29.6975C70.2471 29.6975 68.853 29.358 67.6138 28.6791C66.3746 27.9807 65.3968 27.0011 64.6803 25.7402C63.9833 24.4792 63.6348 23.0243 63.6348 21.3754C63.6348 19.7265 63.993 18.2716 64.7094 17.0107C65.4452 15.7497 66.4423 14.7798 67.7009 14.1008C68.9594 13.4025 70.3632 13.0533 71.9122 13.0533C73.4612 13.0533 74.865 13.4025 76.1236 14.1008C77.3821 14.7798 78.3696 15.7497 79.086 17.0107C79.8218 18.2716 80.1897 19.7265 80.1897 21.3754C80.1897 23.0243 79.8121 24.4792 79.057 25.7402C78.3212 27.0011 77.3144 27.9807 76.0364 28.6791C74.7779 29.358 73.3644 29.6975 71.796 29.6975ZM71.796 26.1475C72.5318 26.1475 73.2192 25.9729 73.8582 25.6238C74.5165 25.2552 75.0393 24.712 75.4265 23.9943C75.8138 23.2765 76.0074 22.4035 76.0074 21.3754C76.0074 19.8429 75.6008 18.6693 74.7875 17.8545C73.9937 17.0204 73.0159 16.6033 71.8541 16.6033C70.6924 16.6033 69.7146 17.0204 68.9207 17.8545C68.1462 18.6693 67.759 19.8429 67.759 21.3754C67.759 22.9079 68.1365 24.0912 68.8917 24.9254C69.6662 25.7402 70.6343 26.1475 71.796 26.1475Z" fill="#181818"/>
<path d="M86.0767 26.2057H90.4431V29.4356H82.0106V6.62256H86.0767V26.2057Z" fill="#181818"/>
<path d="M93.5974 11.3947C92.881 11.3947 92.2808 11.1716 91.7967 10.7254C91.332 10.2598 91.0997 9.68758 91.0997 9.00862C91.0997 8.32966 91.332 7.76709 91.7967 7.32092C92.2808 6.85535 92.881 6.62256 93.5974 6.62256C94.3138 6.62256 94.9044 6.85535 95.3691 7.32092C95.8531 7.76709 96.0952 8.32966 96.0952 9.00862C96.0952 9.68758 95.8531 10.2598 95.3691 10.7254C94.9044 11.1716 94.3138 11.3947 93.5974 11.3947ZM95.6014 13.3152V29.4356H91.5353V13.3152H95.6014Z" fill="#181818"/>
<path d="M107.373 13.0824C109.29 13.0824 110.839 13.6934 112.02 14.9156C113.202 16.1183 113.792 17.806 113.792 19.9787V29.4356H109.726V20.5316C109.726 19.2512 109.406 18.2716 108.768 17.5926C108.129 16.8943 107.257 16.5451 106.154 16.5451C105.031 16.5451 104.14 16.8943 103.482 17.5926C102.843 18.2716 102.523 19.2512 102.523 20.5316V29.4356H98.457V13.3152H102.523V15.323C103.065 14.6246 103.753 14.0814 104.585 13.6934C105.437 13.2861 106.367 13.0824 107.373 13.0824Z" fill="#181818"/>
<path d="M131.454 21.0262C131.454 21.6082 131.416 22.132 131.338 22.5975H119.576C119.672 23.7615 120.079 24.6732 120.795 25.3328C121.512 25.9923 122.393 26.3221 123.438 26.3221C124.949 26.3221 126.023 25.6723 126.662 24.3725H131.048C130.583 25.9244 129.693 27.2048 128.376 28.2135C127.059 29.2029 125.442 29.6975 123.526 29.6975C121.977 29.6975 120.582 29.358 119.343 28.6791C118.123 27.9807 117.165 27.0011 116.468 25.7402C115.79 24.4792 115.451 23.0243 115.451 21.3754C115.451 19.7071 115.79 18.2425 116.468 16.9816C117.146 15.7206 118.094 14.7507 119.314 14.0717C120.534 13.3928 121.938 13.0533 123.526 13.0533C125.055 13.0533 126.42 13.3831 127.621 14.0426C128.841 14.7022 129.78 15.643 130.438 16.8652C131.116 18.0679 131.454 19.4549 131.454 21.0262ZM127.243 19.8623C127.224 18.8148 126.846 17.9806 126.11 17.3598C125.375 16.7197 124.474 16.3996 123.409 16.3996C122.403 16.3996 121.551 16.71 120.854 17.3307C120.176 17.9321 119.76 18.776 119.605 19.8623H127.243Z" fill="#181818"/>
</svg>
