<svg width="194" height="30" viewBox="0 0 194 30" fill="none" xmlns="http://www.w3.org/2000/svg">
<path d="M38.037 4.02785C37.5386 4.02875 37.0506 4.17338 36.6298 4.44493C36.209 4.71649 35.8726 5.10383 35.6597 5.56197V2.68523C35.6597 1.97306 35.3814 1.29007 34.886 0.786487C34.3906 0.282908 33.7188 0 33.0182 0C32.3176 0 31.6458 0.282908 31.1504 0.786487C30.655 1.29007 30.3767 1.97306 30.3767 2.68523V12.0835H10.3017V2.68523C10.3017 1.97306 10.0234 1.29007 9.52805 0.786487C9.03268 0.282908 8.36082 0 7.66026 0C6.9597 0 6.28784 0.282908 5.79247 0.786487C5.2971 1.29007 5.01881 1.97306 5.01881 2.68523V5.56197C4.76264 5.0113 4.32955 4.56579 3.79093 4.29887C3.25231 4.03195 2.6403 3.95956 2.05578 4.09362C1.47126 4.22769 0.949117 4.56021 0.575416 5.03638C0.201715 5.51254 -0.00123892 6.10394 5.83857e-06 6.71308V22.8245C-0.00125489 23.4336 0.201692 24.025 0.575395 24.5012C0.949097 24.9774 1.47125 25.3099 2.05578 25.444C2.64031 25.5781 3.25234 25.5057 3.79097 25.2387C4.3296 24.9718 4.76268 24.5263 5.01884 23.9756V26.8523C5.01884 27.5645 5.29713 28.2475 5.7925 28.7511C6.28787 29.2546 6.95973 29.5375 7.66029 29.5375C8.36085 29.5375 9.03272 29.2546 9.52809 28.7511C10.0235 28.2475 10.3017 27.5645 10.3017 26.8523V17.454H30.3767V26.8523C30.3767 27.5645 30.655 28.2475 31.1504 28.7511C31.6458 29.2546 32.3176 29.5375 33.0182 29.5375C33.7188 29.5375 34.3906 29.2546 34.886 28.7511C35.3814 28.2475 35.6597 27.5645 35.6597 26.8523V23.9756C35.9158 24.5262 36.3489 24.9718 36.8875 25.2387C37.4262 25.5056 38.0382 25.578 38.6227 25.4439C39.2072 25.3099 39.7293 24.9773 40.103 24.5012C40.4767 24.025 40.6797 23.4336 40.6785 22.8245V6.71308C40.6785 6.00091 40.4002 5.31791 39.9048 4.81433C39.4094 4.31076 38.7376 4.02785 38.037 4.02785Z" fill="#D7FB00"/>
<path d="M63.7472 12.3381C63.6252 11.907 63.4539 11.5261 63.2331 11.1955C63.0124 10.8589 62.7423 10.5754 62.4228 10.3451C62.1091 10.1089 61.749 9.92883 61.3424 9.80482C60.9416 9.68082 60.4972 9.61882 60.0093 9.61882C59.0973 9.61882 58.2957 9.84911 57.6044 10.3097C56.919 10.7703 56.3846 11.4405 56.0012 12.3204C55.6178 13.1943 55.4261 14.2631 55.4261 15.5268C55.4261 16.7905 55.6149 17.8652 55.9925 18.7509C56.3701 19.6367 56.9045 20.3128 57.5957 20.7793C58.287 21.2399 59.1031 21.4702 60.0441 21.4702C60.898 21.4702 61.627 21.3167 62.2311 21.0096C62.841 20.6966 63.3057 20.2567 63.6252 19.6898C63.9505 19.1229 64.1132 18.4527 64.1132 17.6792L64.8799 17.7943H60.2794V14.9068H67.7465V17.192C67.7465 18.7864 67.4154 20.1563 66.7532 21.3019C66.091 22.4416 65.1791 23.3214 64.0173 23.9414C62.8556 24.5556 61.5253 24.8626 60.0267 24.8626C58.3538 24.8626 56.8841 24.4877 55.6178 23.7377C54.3515 22.9819 53.364 21.9101 52.6554 20.5224C51.9525 19.1289 51.6011 17.4754 51.6011 15.5622C51.6011 14.0919 51.8102 12.781 52.2284 11.6295C52.6525 10.4721 53.245 9.49186 54.0059 8.68878C54.7669 7.88569 55.6527 7.27452 56.6634 6.85527C57.6741 6.43601 58.7691 6.22638 59.9483 6.22638C60.959 6.22638 61.9 6.37696 62.7713 6.67811C63.6426 6.97337 64.4152 7.39262 65.089 7.93588C65.7687 8.47915 66.3234 9.12575 66.7532 9.87568C67.1831 10.6197 67.459 11.4405 67.581 12.3381H63.7472Z" fill="white"/>
<path d="M70.5805 6.47439H75.2333L80.1475 18.6624H80.3566L85.2709 6.47439H89.9237V24.6146H86.2641V12.8075H86.116L81.4981 24.526H79.0061L74.3881 12.7632H74.24V24.6146H70.5805V6.47439Z" fill="white"/>
<path d="M98.0312 9.63653V6.47439H112.687V9.63653H107.224V24.6146H103.494V9.63653H98.0312Z" fill="white"/>
<path d="M113.641 24.6146V11.0094H117.239V13.3833H117.379C117.623 12.5388 118.032 11.9011 118.607 11.47C119.182 11.0331 119.845 10.8146 120.594 10.8146C120.78 10.8146 120.98 10.8264 121.195 10.85C121.41 10.8736 121.599 10.9061 121.761 10.9474V14.2956C121.587 14.2424 121.346 14.1952 121.038 14.1539C120.73 14.1125 120.449 14.0919 120.193 14.0919C119.647 14.0919 119.159 14.2129 118.729 14.455C118.305 14.6912 117.968 15.0219 117.719 15.4471C117.475 15.8722 117.353 16.3624 117.353 16.9174V24.6146H113.641Z" fill="white"/>
<path d="M127.114 24.8715C126.26 24.8715 125.499 24.7209 124.831 24.4198C124.163 24.1127 123.634 23.661 123.245 23.0646C122.862 22.4622 122.67 21.7123 122.67 20.8147C122.67 20.0589 122.806 19.4241 123.079 18.9104C123.352 18.3966 123.724 17.9833 124.195 17.6703C124.665 17.3573 125.2 17.1211 125.798 16.9617C126.402 16.8023 127.035 16.6901 127.697 16.6251C128.476 16.5425 129.103 16.4657 129.579 16.3948C130.056 16.3181 130.401 16.2059 130.616 16.0582C130.831 15.9106 130.939 15.6921 130.939 15.4028V15.3496C130.939 14.7887 130.764 14.3546 130.416 14.0476C130.073 13.7405 129.585 13.587 128.952 13.587C128.284 13.587 127.753 13.7376 127.358 14.0387C126.963 14.334 126.701 14.706 126.573 15.1548L123.14 14.8713C123.315 14.0446 123.657 13.3301 124.168 12.7278C124.68 12.1196 125.339 11.6531 126.146 11.3283C126.96 10.9976 127.901 10.8323 128.969 10.8323C129.713 10.8323 130.425 10.9209 131.104 11.098C131.79 11.2752 132.397 11.5498 132.925 11.9218C133.46 12.2938 133.881 12.7721 134.189 13.3567C134.497 13.9354 134.65 14.6292 134.65 15.4382V24.6146H131.13V22.728H131.026C130.811 23.1531 130.523 23.5281 130.163 23.8529C129.803 24.1717 129.37 24.4227 128.865 24.6058C128.36 24.7829 127.776 24.8715 127.114 24.8715ZM128.177 22.2674C128.723 22.2674 129.205 22.1581 129.623 21.9396C130.041 21.7153 130.369 21.4141 130.608 21.0362C130.846 20.6583 130.965 20.2301 130.965 19.7518V18.3081C130.849 18.3848 130.689 18.4557 130.486 18.5206C130.288 18.5797 130.064 18.6358 129.815 18.6889C129.565 18.7362 129.315 18.7805 129.065 18.8218C128.816 18.8572 128.589 18.8897 128.386 18.9192C127.95 18.9842 127.57 19.0875 127.244 19.2292C126.919 19.371 126.666 19.5629 126.486 19.805C126.306 20.0412 126.216 20.3364 126.216 20.6907C126.216 21.2045 126.399 21.5972 126.765 21.8688C127.137 22.1345 127.607 22.2674 128.177 22.2674Z" fill="white"/>
<path d="M137.53 24.6146V11.0094H141.242V24.6146H137.53ZM139.395 9.25566C138.843 9.25566 138.369 9.06965 137.974 8.69763C137.585 8.31971 137.391 7.86798 137.391 7.34243C137.391 6.82279 137.585 6.37696 137.974 6.00494C138.369 5.62702 138.843 5.43806 139.395 5.43806C139.947 5.43806 140.417 5.62702 140.806 6.00494C141.201 6.37696 141.399 6.82279 141.399 7.34243C141.399 7.86798 141.201 8.31971 140.806 8.69763C140.417 9.06965 139.947 9.25566 139.395 9.25566Z" fill="white"/>
<path d="M147.927 16.7491V24.6146H144.215V11.0094H147.753V13.4098H147.91C148.206 12.6186 148.703 11.9926 149.4 11.532C150.097 11.0655 150.942 10.8323 151.935 10.8323C152.865 10.8323 153.675 11.039 154.366 11.4523C155.057 11.8657 155.595 12.4562 155.978 13.2238C156.361 13.9856 156.553 14.895 156.553 15.952V24.6146H152.841V16.6251C152.847 15.7925 152.638 15.143 152.214 14.6765C151.79 14.2041 151.206 13.9679 150.463 13.9679C149.963 13.9679 149.522 14.0771 149.138 14.2956C148.761 14.5141 148.464 14.833 148.249 15.2522C148.04 15.6656 147.933 16.1645 147.927 16.7491Z" fill="white"/>
<path d="M159.479 24.6146V11.0094H163.19V24.6146H159.479ZM161.343 9.25566C160.791 9.25566 160.318 9.06965 159.923 8.69763C159.534 8.31971 159.339 7.86798 159.339 7.34243C159.339 6.82279 159.534 6.37696 159.923 6.00494C160.318 5.62702 160.791 5.43806 161.343 5.43806C161.895 5.43806 162.365 5.62702 162.755 6.00494C163.15 6.37696 163.347 6.82279 163.347 7.34243C163.347 7.86798 163.15 8.31971 162.755 8.69763C162.365 9.06965 161.895 9.25566 161.343 9.25566Z" fill="white"/>
<path d="M169.875 16.7491V24.6146H166.164V11.0094H169.701V13.4098H169.858C170.154 12.6186 170.651 11.9926 171.348 11.532C172.045 11.0655 172.89 10.8323 173.884 10.8323C174.813 10.8323 175.623 11.039 176.314 11.4523C177.006 11.8657 177.543 12.4562 177.926 13.2238C178.31 13.9856 178.501 14.895 178.501 15.952V24.6146H174.79V16.6251C174.796 15.7925 174.586 15.143 174.162 14.6765C173.738 14.2041 173.155 13.9679 172.411 13.9679C171.911 13.9679 171.47 14.0771 171.087 14.2956C170.709 14.5141 170.413 14.833 170.198 15.2522C169.989 15.6656 169.881 16.1645 169.875 16.7491Z" fill="white"/>
<path d="M187.456 30C186.254 30 185.223 29.8317 184.363 29.4951C183.509 29.1644 182.83 28.7127 182.324 28.1399C181.819 27.5671 181.491 26.9235 181.34 26.209L184.773 25.7395C184.877 26.0112 185.043 26.2651 185.269 26.5013C185.496 26.7375 185.795 26.9264 186.167 27.0682C186.544 27.2158 187.003 27.2896 187.544 27.2896C188.351 27.2896 189.016 27.0888 189.539 26.6873C190.067 26.2916 190.332 25.6273 190.332 24.6943V22.2054H190.175C190.012 22.5833 189.768 22.9405 189.443 23.2771C189.118 23.6137 188.699 23.8883 188.188 24.1009C187.677 24.3135 187.067 24.4198 186.359 24.4198C185.354 24.4198 184.439 24.1836 183.614 23.7112C182.795 23.2328 182.141 22.5036 181.653 21.5233C181.171 20.5372 180.93 19.2912 180.93 17.7855C180.93 16.2443 181.177 14.957 181.671 13.9236C182.165 12.8902 182.821 12.1166 183.64 11.6029C184.465 11.0892 185.368 10.8323 186.35 10.8323C187.099 10.8323 187.727 10.9622 188.232 11.222C188.737 11.4759 189.144 11.7948 189.452 12.1786C189.765 12.5566 190.006 12.9286 190.175 13.2947H190.314V11.0094H194V24.7475C194 25.9049 193.721 26.8733 193.164 27.6528C192.606 28.4322 191.833 29.0168 190.846 29.4065C189.864 29.8022 188.734 30 187.456 30ZM187.535 21.5853C188.133 21.5853 188.639 21.4348 189.051 21.1336C189.469 20.8265 189.789 20.3896 190.009 19.8227C190.236 19.2499 190.349 18.5649 190.349 17.7677C190.349 16.9706 190.239 16.2797 190.018 15.6951C189.797 15.1046 189.478 14.6469 189.06 14.3222C188.641 13.9974 188.133 13.835 187.535 13.835C186.925 13.835 186.411 14.0033 185.993 14.3399C185.574 14.6706 185.258 15.1312 185.043 15.7217C184.828 16.3122 184.721 16.9942 184.721 17.7677C184.721 18.5531 184.828 19.2322 185.043 19.805C185.264 20.3719 185.58 20.8118 185.993 21.1248C186.411 21.4318 186.925 21.5853 187.535 21.5853Z" fill="white"/>
</svg>
