<svg width="104" height="56" viewBox="0 0 104 56" fill="none" xmlns="http://www.w3.org/2000/svg">
<g clip-path="url(#clip0_182_469)">
<path d="M67.0768 12.7264V8.15149C67.0768 7.16629 66.2859 7.41783 65.311 7.41783H65.2591C64.2868 7.41783 63.4959 7.16891 63.4959 8.15149V9.78388L51.6046 0L33.4642 15.4697C33.7831 23.4824 39.0624 30.1927 46.2838 32.5562V26.6397C44.2017 26.5008 42.2777 25.7148 40.8153 24.2396C38.9613 22.3661 38.2041 19.7407 38.466 16.9921C41.1835 16.7248 43.7842 17.4925 45.6382 19.366C47.4921 21.2395 48.2493 23.8649 47.9874 26.6135V33.0252C49.0116 33.2531 50.0669 33.3868 51.1482 33.4366V21.208C49.5483 19.5547 48.5915 17.469 48.5915 15.1999C48.5915 12.5508 49.8932 10.1507 52.0013 8.39779C54.1094 10.1507 55.4136 12.5508 55.4136 15.1999C55.4136 17.469 54.4568 19.5547 52.857 21.2106V33.4392C53.9356 33.3894 54.9936 33.2558 56.0178 33.0252V26.6135C55.7559 23.8675 56.513 21.2395 58.367 19.366C60.221 17.4925 62.8217 16.7248 65.5366 16.9921C65.801 19.7381 65.0439 22.3661 63.1873 24.2396C61.7275 25.7174 59.8035 26.5008 57.7214 26.6397V32.5562C64.9117 30.2006 70.178 23.5374 70.5358 15.5693L67.0794 12.7264H67.0768ZM46.8594 17.7886C45.8845 16.8034 44.6762 16.0907 43.3252 15.6794C42.8585 14.4033 42.9026 12.9779 43.3823 11.6049C44.8421 11.8224 46.136 12.4748 47.041 13.536C46.9191 14.1072 46.8569 14.6915 46.8569 15.2863C46.8569 16.3999 47.0876 17.5004 47.5207 18.5406C47.3158 18.2786 47.098 18.0297 46.862 17.7913L46.8594 17.7886ZM60.6748 15.6794C59.3264 16.0907 58.1155 16.8034 57.1405 17.7886C56.9046 18.0271 56.6868 18.2786 56.4819 18.538C56.9175 17.4978 57.1483 16.3973 57.1483 15.2837C57.1483 14.6915 57.0861 14.1046 56.9642 13.5334C57.8692 12.4748 59.1656 11.8198 60.6229 11.6023C61.1 12.9727 61.1441 14.4007 60.6773 15.6767L60.6748 15.6794Z" fill="#4F985B"/>
</g>
<path d="M0 51.831V38.1302H2.64981V51.831H0ZM1.70207 51.831V49.3845H8.60706V51.831H1.70207Z" fill="#192E04"/>
<path d="M15.2434 51.831L15.1467 49.8542V46.8792C15.1467 46.292 15.0822 45.7961 14.9532 45.3916C14.8243 44.9741 14.6244 44.6609 14.3537 44.4522C14.0958 44.2303 13.7476 44.1194 13.3092 44.1194C12.9224 44.1194 12.5742 44.2042 12.2648 44.3739C11.9553 44.5435 11.6909 44.8175 11.4717 45.1959L9.15074 44.3934C9.33126 43.9759 9.5956 43.5714 9.94375 43.1799C10.2919 42.7754 10.7432 42.4492 11.2977 42.2013C11.865 41.9403 12.5549 41.8099 13.3672 41.8099C14.3343 41.8099 15.1402 41.986 15.7849 42.3383C16.4426 42.6906 16.9325 43.2126 17.2549 43.9041C17.5773 44.5826 17.732 45.4177 17.7191 46.4094L17.6611 51.831H15.2434ZM12.5742 52.0659C11.4137 52.0659 10.5111 51.8049 9.86638 51.283C9.23455 50.7611 8.91864 50.0238 8.91864 49.0713C8.91864 48.0274 9.26034 47.2445 9.94375 46.7226C10.64 46.1876 11.6136 45.9201 12.8643 45.9201H15.3207V47.8382H13.7541C12.9159 47.8382 12.3357 47.9426 12.0133 48.1514C11.6909 48.3471 11.5298 48.6276 11.5298 48.993C11.5298 49.2801 11.6587 49.5084 11.9166 49.678C12.1745 49.8346 12.5355 49.9129 12.9997 49.9129C13.4124 49.9129 13.7799 49.8151 14.1022 49.6193C14.4246 49.4106 14.676 49.1496 14.8565 48.8364C15.05 48.5102 15.1467 48.1775 15.1467 47.8382H15.8236C15.8236 49.1692 15.5657 50.2065 15.05 50.9503C14.5471 51.694 13.7218 52.0659 12.5742 52.0659Z" fill="#192E04"/>
<path d="M19.1737 51.831V42.0447H21.572L21.7268 43.8454V51.831H19.1737ZM25.5758 51.831V46.8204L28.1289 46.2333V51.831H25.5758ZM25.5758 46.8204C25.5758 46.155 25.4984 45.6396 25.3437 45.2742C25.2018 44.9089 24.9955 44.6479 24.7247 44.4913C24.4539 44.3217 24.138 44.2369 23.777 44.2369C23.1194 44.2238 22.61 44.4261 22.249 44.8436C21.9008 45.2612 21.7268 45.881 21.7268 46.703H20.8757C20.8757 45.6591 21.024 44.7784 21.3206 44.0607C21.6301 43.33 22.0556 42.7754 22.5971 42.397C23.1387 42.0056 23.777 41.8099 24.512 41.8099C25.6854 41.8099 26.5815 42.1752 27.2005 42.9059C27.8323 43.6236 28.1418 44.7327 28.1289 46.2333L25.5758 46.8204Z" fill="#192E04"/>
<path d="M36.4721 51.831L36.3367 50.0108V38.1302H38.8898V51.831H36.4721ZM33.4354 52.0659C32.5457 52.0659 31.7721 51.8571 31.1144 51.4396C30.4697 51.022 29.9668 50.4283 29.6058 49.6585C29.2447 48.8886 29.0642 47.9818 29.0642 46.9379C29.0642 45.881 29.2447 44.9741 29.6058 44.2173C29.9668 43.4474 30.4697 42.8537 31.1144 42.4362C31.7721 42.0186 32.5457 41.8099 33.4354 41.8099C34.2478 41.8099 34.9312 42.0186 35.4857 42.4362C36.053 42.8537 36.485 43.4474 36.7816 44.2173C37.0781 44.9741 37.2264 45.881 37.2264 46.9379C37.2264 47.9818 37.0781 48.8886 36.7816 49.6585C36.485 50.4283 36.053 51.022 35.4857 51.4396C34.9312 51.8571 34.2478 52.0659 33.4354 52.0659ZM34.0931 49.6976C34.5315 49.6976 34.9183 49.5802 35.2536 49.3453C35.6017 49.1104 35.8725 48.7842 36.0659 48.3667C36.2593 47.9491 36.356 47.4729 36.356 46.9379C36.356 46.4029 36.2593 45.9266 36.0659 45.5091C35.8725 45.0915 35.6017 44.7718 35.2536 44.55C34.9183 44.3151 34.525 44.1977 34.0737 44.1977C33.6095 44.1977 33.2033 44.3151 32.8552 44.55C32.507 44.7718 32.2298 45.0915 32.0235 45.5091C31.8172 45.9266 31.714 46.4029 31.714 46.9379C31.714 47.4729 31.8172 47.9491 32.0235 48.3667C32.2298 48.7842 32.507 49.1104 32.8552 49.3453C33.2162 49.5802 33.6289 49.6976 34.0931 49.6976Z" fill="#192E04"/>
<path d="M44.1261 52.0659C43.5072 52.0659 42.9269 51.9746 42.3854 51.7919C41.8438 51.5962 41.3667 51.3221 40.9541 50.9698C40.5415 50.6045 40.2191 50.1608 39.987 49.6389L42.1726 48.6211C42.366 48.9343 42.6304 49.2083 42.9656 49.4432C43.3009 49.665 43.6877 49.7759 44.1261 49.7759C44.5516 49.7759 44.8804 49.7172 45.1125 49.5998C45.3446 49.4693 45.4607 49.2866 45.4607 49.0517C45.4607 48.8169 45.364 48.6472 45.1706 48.5428C44.99 48.4254 44.7386 48.3275 44.4162 48.2492L43.5265 48.0144C42.5981 47.7665 41.8631 47.375 41.3216 46.84C40.7929 46.292 40.5286 45.6657 40.5286 44.961C40.5286 43.9563 40.8445 43.1799 41.4763 42.6319C42.121 42.0839 43.0301 41.8099 44.2035 41.8099C44.8095 41.8099 45.3704 41.9012 45.8862 42.0839C46.4149 42.2665 46.8662 42.521 47.2401 42.8472C47.6141 43.1734 47.872 43.5518 48.0138 43.9824L45.9056 44.961C45.8153 44.7001 45.5961 44.4913 45.2479 44.3347C44.8998 44.1651 44.5516 44.0803 44.2035 44.0803C43.8553 44.0803 43.5845 44.1586 43.3911 44.3151C43.2106 44.4587 43.1203 44.6609 43.1203 44.9219C43.1203 45.0915 43.2106 45.2351 43.3911 45.3525C43.5717 45.4569 43.8295 45.5482 44.1648 45.6265L45.422 45.9397C46.0538 46.0963 46.5567 46.3507 46.9307 46.703C47.3175 47.0423 47.5947 47.4272 47.7624 47.8578C47.9429 48.2753 48.0331 48.6864 48.0331 49.0909C48.0331 49.678 47.8591 50.2 47.5109 50.6567C47.1757 51.1003 46.7115 51.4461 46.1183 51.694C45.5381 51.9419 44.874 52.0659 44.1261 52.0659Z" fill="#192E04"/>
<path d="M53.6001 52.0659C52.5943 52.0659 51.6981 51.8506 50.9116 51.42C50.125 50.9764 49.5125 50.3696 49.0741 49.5998C48.6357 48.8169 48.4165 47.9296 48.4165 46.9379C48.4165 45.9332 48.6357 45.0459 49.0741 44.276C49.5125 43.5061 50.1186 42.9059 50.8922 42.4753C51.6659 42.0317 52.5556 41.8099 53.5614 41.8099C54.5285 41.8099 55.4117 42.0512 56.2112 42.534C57.0107 43.0168 57.5909 43.7149 57.952 44.6283L55.5536 45.4895C55.3731 45.1111 55.0894 44.811 54.7025 44.5892C54.3286 44.3543 53.9095 44.2369 53.4453 44.2369C52.9682 44.2369 52.5492 44.3543 52.1881 44.5892C51.8271 44.811 51.5434 45.1242 51.3371 45.5287C51.1308 45.9332 51.0276 46.4029 51.0276 46.9379C51.0276 47.4729 51.1308 47.9426 51.3371 48.3471C51.5434 48.7386 51.8335 49.0517 52.2075 49.2866C52.5814 49.5215 53.0069 49.6389 53.484 49.6389C53.9482 49.6389 54.3673 49.5149 54.7412 49.267C55.1281 49.0191 55.4117 48.6929 55.5923 48.2884L58.01 49.1496C57.636 50.076 57.0493 50.7937 56.2499 51.3026C55.4633 51.8115 54.5801 52.0659 53.6001 52.0659Z" fill="#192E04"/>
<path d="M64.7196 51.831L64.6229 49.8542V46.8792C64.6229 46.292 64.5584 45.7961 64.4295 45.3916C64.3005 44.9741 64.1006 44.6609 63.8299 44.4522C63.572 44.2303 63.2238 44.1194 62.7854 44.1194C62.3986 44.1194 62.0504 44.2042 61.741 44.3739C61.4315 44.5435 61.1672 44.8175 60.948 45.1959L58.6269 44.3934C58.8075 43.9759 59.0718 43.5714 59.42 43.1799C59.7681 42.7754 60.2194 42.4492 60.7739 42.2013C61.3412 41.9403 62.0311 41.8099 62.8434 41.8099C63.8105 41.8099 64.6164 41.986 65.2612 42.3383C65.9188 42.6906 66.4088 43.2126 66.7311 43.9041C67.0535 44.5826 67.2082 45.4177 67.1953 46.4094L67.1373 51.831H64.7196ZM62.0504 52.0659C60.8899 52.0659 59.9873 51.8049 59.3426 51.283C58.7108 50.7611 58.3949 50.0238 58.3949 49.0713C58.3949 48.0274 58.7366 47.2445 59.42 46.7226C60.1163 46.1876 61.0898 45.9201 62.3406 45.9201H64.797V47.8382H63.2303C62.3921 47.8382 61.8119 47.9426 61.4895 48.1514C61.1672 48.3471 61.006 48.6276 61.006 48.993C61.006 49.2801 61.1349 49.5084 61.3928 49.678C61.6507 49.8346 62.0117 49.9129 62.4759 49.9129C62.8886 49.9129 63.2561 49.8151 63.5784 49.6193C63.9008 49.4106 64.1522 49.1496 64.3327 48.8364C64.5262 48.5102 64.6229 48.1775 64.6229 47.8382H65.2998C65.2998 49.1692 65.0419 50.2065 64.5262 50.9503C64.0233 51.694 63.198 52.0659 62.0504 52.0659Z" fill="#192E04"/>
<path d="M68.7466 55.7456V42.0447H71.145L71.2997 43.8454V55.7456H68.7466ZM74.2203 52.0659C73.4079 52.0659 72.7181 51.8571 72.1507 51.4396C71.5963 51.022 71.1707 50.4283 70.8742 49.6585C70.5776 48.8886 70.4293 47.9818 70.4293 46.9379C70.4293 45.881 70.5776 44.9741 70.8742 44.2173C71.1707 43.4474 71.5963 42.8537 72.1507 42.4362C72.7181 42.0186 73.4079 41.8099 74.2203 41.8099C75.11 41.8099 75.8772 42.0186 76.5219 42.4362C77.1796 42.8537 77.6889 43.4474 78.0499 44.2173C78.411 44.9741 78.5915 45.881 78.5915 46.9379C78.5915 47.9818 78.411 48.8886 78.0499 49.6585C77.6889 50.4283 77.1796 51.022 76.5219 51.4396C75.8772 51.8571 75.11 52.0659 74.2203 52.0659ZM73.5627 49.6976C74.0269 49.6976 74.433 49.5802 74.7812 49.3453C75.1422 49.1104 75.4259 48.7842 75.6322 48.3667C75.8385 47.9491 75.9417 47.4729 75.9417 46.9379C75.9417 46.4029 75.8385 45.9266 75.6322 45.5091C75.4388 45.0915 75.1616 44.7718 74.8005 44.55C74.4524 44.3151 74.0462 44.1977 73.582 44.1977C73.1436 44.1977 72.7503 44.3151 72.4022 44.55C72.054 44.7849 71.7832 45.1111 71.5898 45.5287C71.3964 45.9332 71.2997 46.4029 71.2997 46.9379C71.2997 47.4729 71.3964 47.9491 71.5898 48.3667C71.7832 48.7842 72.0476 49.1104 72.3828 49.3453C72.731 49.5802 73.1243 49.6976 73.5627 49.6976Z" fill="#192E04"/>
<path d="M79.8407 51.831V42.0447H82.3938V51.831H79.8407ZM81.1173 40.4593C80.7304 40.4593 80.3887 40.3158 80.0921 40.0287C79.7956 39.7286 79.6473 39.3763 79.6473 38.9718C79.6473 38.5673 79.7956 38.2215 80.0921 37.9345C80.3887 37.6344 80.7304 37.4843 81.1173 37.4843C81.517 37.4843 81.8587 37.6344 82.1424 37.9345C82.4389 38.2215 82.5872 38.5673 82.5872 38.9718C82.5872 39.3763 82.4389 39.7286 82.1424 40.0287C81.8587 40.3158 81.517 40.4593 81.1173 40.4593Z" fill="#192E04"/>
<path d="M84.1678 51.831V42.0447H86.5662L86.7209 43.8454V51.831H84.1678ZM90.5699 51.831V46.8204L93.123 46.2333V51.831H90.5699ZM90.5699 46.8204C90.5699 46.155 90.4925 45.6396 90.3378 45.2742C90.196 44.9089 89.9897 44.6479 89.7189 44.4913C89.4481 44.3217 89.1322 44.2369 88.7711 44.2369C88.1135 44.2238 87.6042 44.4261 87.2431 44.8436C86.895 45.2612 86.7209 45.881 86.7209 46.703H85.8699C85.8699 45.6591 86.0182 44.7784 86.3147 44.0607C86.6242 43.33 87.0497 42.7754 87.5913 42.397C88.1329 42.0056 88.7711 41.8099 89.5061 41.8099C90.6795 41.8099 91.5757 42.1752 92.1946 42.9059C92.8264 43.6236 93.1359 44.7327 93.123 46.2333L90.5699 46.8204Z" fill="#192E04"/>
<path d="M98.9325 56C98.1975 56 97.5463 55.9478 96.979 55.8434C96.4116 55.739 95.9345 55.602 95.5477 55.4324C95.1609 55.2628 94.8449 55.0931 94.5999 54.9235L95.6057 52.8488C95.7862 52.9532 96.0248 53.0706 96.3214 53.2011C96.6179 53.3446 96.9725 53.4621 97.3851 53.5534C97.7978 53.6578 98.2749 53.71 98.8164 53.71C99.3322 53.71 99.7835 53.6056 100.17 53.3968C100.57 53.2011 100.88 52.888 101.099 52.4574C101.331 52.0398 101.447 51.5048 101.447 50.8524V42.0447H104V50.7741C104 51.8702 103.794 52.8097 103.381 53.5926C102.968 54.3885 102.382 54.9887 101.621 55.3932C100.873 55.7978 99.9769 56 98.9325 56ZM98.4296 51.557C97.5399 51.557 96.7662 51.3613 96.1086 50.9698C95.4639 50.5784 94.961 50.0304 94.5999 49.3257C94.2389 48.6211 94.0584 47.786 94.0584 46.8204C94.0584 45.8027 94.2389 44.9219 94.5999 44.1781C94.961 43.4213 95.4639 42.8407 96.1086 42.4362C96.7662 42.0186 97.5399 41.8099 98.4296 41.8099C99.2033 41.8099 99.8738 42.0186 100.441 42.4362C101.008 42.8407 101.447 43.4213 101.756 44.1781C102.066 44.9349 102.221 45.8353 102.221 46.8792C102.221 47.8186 102.066 48.6407 101.756 49.3453C101.447 50.0499 101.008 50.598 100.441 50.9894C99.8738 51.3678 99.2033 51.557 98.4296 51.557ZM99.1646 49.3845C99.603 49.3845 99.9834 49.2735 100.306 49.0517C100.641 48.8169 100.899 48.5037 101.079 48.1122C101.26 47.7077 101.35 47.251 101.35 46.7422C101.35 46.2202 101.253 45.7635 101.06 45.3721C100.88 44.9806 100.622 44.674 100.286 44.4522C99.964 44.2303 99.5836 44.1194 99.1452 44.1194C98.6939 44.1194 98.2942 44.2303 97.9461 44.4522C97.5979 44.674 97.3271 44.9806 97.1337 45.3721C96.9403 45.7635 96.8371 46.2202 96.8242 46.7422C96.8371 47.251 96.9403 47.7077 97.1337 48.1122C97.3271 48.5037 97.5979 48.8169 97.9461 49.0517C98.3071 49.2735 98.7133 49.3845 99.1646 49.3845Z" fill="#192E04"/>
<defs>
<clipPath id="clip0_182_469">
<rect width="37.0716" height="33.4366" fill="white" transform="translate(33.4642)"/>
</clipPath>
</defs>
</svg>
