<svg width="64" height="56" viewBox="0 0 64 56" fill="none" xmlns="http://www.w3.org/2000/svg">
<path d="M48 18.8967C39.1634 18.8967 32 11.7598 32 2.95605L64 2.95605C64 11.7598 56.8366 18.8967 48 18.8967Z" fill="#FBE0E0"/>
<path d="M40.25 17.5H8.75C7.7835 17.5 7 18.2835 7 19.25V43.75C7 44.7165 7.7835 45.5 8.75 45.5H40.25C41.2165 45.5 42 44.7165 42 43.75V19.25C42 18.2835 41.2165 17.5 40.25 17.5Z" stroke="black" stroke-width="3" stroke-linecap="round" stroke-linejoin="round"/>
<path d="M14 10.5H47.25C47.7141 10.5 48.1592 10.6844 48.4874 11.0126C48.8156 11.3408 49 11.7859 49 12.25V38.5" stroke="black" stroke-width="3" stroke-linecap="round" stroke-linejoin="round"/>
</svg>
