<svg width="99" height="28" viewBox="0 0 99 28" fill="none" xmlns="http://www.w3.org/2000/svg">
<path d="M46.7574 16.8967V26.8327H49.9858V16.251C49.9858 14.9119 49.6988 13.7282 49.1249 12.6999C48.551 11.6716 47.7618 10.8705 46.7574 10.2966C45.777 9.72266 44.6411 9.4357 43.3498 9.4357C42.0585 9.4357 40.8987 9.73461 39.8704 10.3325C39.0958 10.7648 38.4502 11.3192 37.9334 11.9957V1.22144H34.7051V26.8327H37.9334V16.8967C37.9334 16.0358 38.1247 15.2706 38.5073 14.601C38.8899 13.9314 39.416 13.4053 40.0856 13.0227C40.7552 12.6401 41.5204 12.4488 42.3813 12.4488C43.6726 12.4488 44.7248 12.8673 45.5379 13.7042C46.3509 14.5412 46.7574 15.6054 46.7574 16.8967Z" fill="white"/>
<path d="M55.6479 26.2588C56.7718 26.8805 58.0392 27.1914 59.4501 27.1914C60.8849 27.1914 62.1404 26.8805 63.2165 26.2588C64.3165 25.6131 65.1774 24.7283 65.7992 23.6044C66.4209 22.4805 66.7318 21.1772 66.7318 19.6946V9.7944H63.5035V19.5511C63.5035 20.962 63.1448 22.0739 62.4274 22.887C61.71 23.6761 60.7176 24.0707 59.4501 24.0707C58.6132 24.0707 57.8838 23.8914 57.2621 23.5327C56.6403 23.174 56.162 22.6598 55.8273 21.9902C55.5164 21.2968 55.3609 20.4837 55.3609 19.5511V9.7944H52.1326V19.6946C52.1326 21.1772 52.4435 22.4805 53.0653 23.6044C53.687 24.7283 54.5479 25.6131 55.6479 26.2588Z" fill="white"/>
<path fill-rule="evenodd" clip-rule="evenodd" d="M77.1565 27.1914C75.4587 27.1914 73.9282 26.8088 72.5652 26.0436C71.2021 25.2544 70.126 24.1903 69.3368 22.8511C68.5477 21.512 68.1531 19.9935 68.1531 18.2956C68.1531 16.6217 68.5357 15.1151 69.301 13.776C70.0901 12.4368 71.1423 11.3846 72.4575 10.6194C73.7967 9.83027 75.2913 9.4357 76.9413 9.4357C78.5196 9.4357 79.9066 9.7944 81.1023 10.5118C82.3218 11.2292 83.2664 12.2216 83.936 13.489C84.6295 14.7564 84.9762 16.1912 84.9762 17.7934C84.9762 18.0326 84.9643 18.2956 84.9404 18.5826C84.9164 18.8456 84.8686 19.1565 84.7969 19.5152H71.4536C71.5672 20.1787 71.7703 20.7885 72.063 21.3446C72.5412 22.2294 73.2228 22.9229 74.1076 23.425C74.9924 23.9033 76.0087 24.1425 77.1565 24.1425C78.1131 24.1425 78.9859 23.9751 79.7751 23.6403C80.5881 23.3055 81.2816 22.8033 81.8555 22.1337L83.936 24.2501C83.1229 25.2066 82.1186 25.936 80.9229 26.4381C79.7511 26.9403 78.4957 27.1914 77.1565 27.1914ZM72.0271 15.139C71.7591 15.6469 71.5701 16.2089 71.4602 16.8249H81.8298C81.7416 16.1197 81.5589 15.498 81.2816 14.9597C80.8751 14.1466 80.3012 13.5249 79.5598 13.0944C78.8185 12.6401 77.9218 12.4129 76.8696 12.4129C75.7696 12.4129 74.8011 12.6521 73.9641 13.1303C73.1271 13.6086 72.4815 14.2782 72.0271 15.139Z" fill="white"/>
<path d="M87.0615 25.7566C87.7789 26.211 88.556 26.5697 89.393 26.8327C90.2539 27.0718 91.1626 27.1914 92.1191 27.1914C94.0322 27.1914 95.5507 26.7251 96.6747 25.7925C97.8225 24.8599 98.3964 23.5924 98.3964 21.9902C98.3964 20.9381 98.1692 20.0891 97.7149 19.4435C97.2844 18.7978 96.7225 18.2837 96.029 17.901C95.3355 17.5184 94.6061 17.2195 93.8409 17.0043C93.0757 16.7652 92.3344 16.538 91.617 16.3228C90.9235 16.1075 90.3615 15.8445 89.9311 15.5336C89.5006 15.2227 89.2854 14.7803 89.2854 14.2064C89.2854 13.6325 89.5245 13.1901 90.0028 12.8792C90.505 12.5444 91.2224 12.377 92.155 12.377C93.0398 12.377 93.829 12.5444 94.5224 12.8792C95.2398 13.214 95.8377 13.6923 96.316 14.314L98.3964 12.2336C97.7268 11.3009 96.866 10.6075 95.8138 10.1531C94.7855 9.67483 93.6018 9.4357 92.2626 9.4357C90.9952 9.4357 89.9072 9.63896 88.9984 10.0455C88.1136 10.452 87.4202 11.0379 86.918 11.8031C86.4158 12.5444 86.1647 13.4292 86.1647 14.4575C86.1647 15.4858 86.3799 16.3108 86.8104 16.9326C87.2647 17.5543 87.8386 18.0445 88.5321 18.4032C89.2256 18.7619 89.955 19.0608 90.7202 19.3C91.5094 19.5152 92.2507 19.7424 92.9442 19.9815C93.6376 20.1967 94.1996 20.4837 94.6301 20.8424C95.0844 21.1772 95.3116 21.6555 95.3116 22.2772C95.3116 22.899 95.0366 23.3892 94.4866 23.7479C93.9366 24.0827 93.1594 24.2501 92.155 24.2501C91.1507 24.2501 90.2419 24.0707 89.4289 23.712C88.6158 23.3294 87.8984 22.7555 87.2767 21.9902L85.1962 24.0707C85.7223 24.7164 86.3441 25.2783 87.0615 25.7566Z" fill="white"/>
<path d="M95.3742 4.07356V4.70925H94.6089V6.6433H93.8825V4.70925H93.1172V4.07356H95.3742Z" fill="white"/>
<path d="M98.3568 4.03503V6.65485H97.6304V5.38347L97.0982 5.98064H96.8807L96.3485 5.38347V6.65485H95.622V4.03503H95.8784L96.9894 5.15231L98.1004 4.03503H98.3568Z" fill="white"/>
<path d="M3.7457 8.25476C4.75102 11.4782 8.17909 13.2763 11.4025 12.271C14.6259 11.2657 22.2606 6.01731 21.2553 2.79389C20.2499 -0.429536 10.9854 -0.407374 7.76193 0.597945C4.53851 1.60326 2.74038 5.03133 3.7457 8.25476Z" fill="white"/>
<path d="M1.79789 25.9301C3.68988 27.822 6.75706 27.822 8.64904 25.9301C10.541 24.0381 13.9664 17.5452 12.0748 15.6532C10.1828 13.7614 3.68988 17.1869 1.79789 19.0787C-0.0940899 20.9707 -0.0940899 24.0381 1.79789 25.9301Z" fill="white"/>
<path d="M19.901 27.7902C23.1626 28.664 26.515 26.7286 27.389 23.467C28.2627 20.2055 27.9098 10.9477 24.6482 10.0737C21.3867 9.19987 16.4521 17.0408 15.5781 20.3023C14.704 23.5637 16.6395 26.9162 19.901 27.7902Z" fill="white"/>
</svg>
