<svg width="320" height="40" viewBox="0 0 320 40" fill="none" xmlns="http://www.w3.org/2000/svg">
<path d="M0 39.0988V4.95927H6.53527L26.6776 29.5397H23.5075V4.95927H31.3108V39.0988H24.8243L4.63322 14.5183H7.80331V39.0988H0Z" fill="white"/>
<path d="M54.5557 39.684C49.7112 39.684 45.9233 38.3347 43.1922 35.636C40.461 32.9374 39.0954 29.0845 39.0954 24.0774V4.95927H46.9963V23.7848C46.9963 27.0361 47.6628 29.3771 48.9959 30.8077C50.3289 32.2383 52.1985 32.9536 54.6045 32.9536C57.0105 32.9536 58.8801 32.2383 60.2131 30.8077C61.5462 29.3771 62.2127 27.0361 62.2127 23.7848V4.95927H70.016V24.0774C70.016 29.0845 68.6505 32.9374 65.9193 35.636C63.1882 38.3347 59.4003 39.684 54.5557 39.684Z" fill="white"/>
<path d="M77.8235 39.0988V4.95927H92.6011C95.6574 4.95927 98.291 5.46323 100.502 6.47116C102.713 7.44657 104.42 8.86092 105.623 10.7142C106.826 12.5675 107.427 14.7784 107.427 17.347C107.427 19.8831 106.826 22.0778 105.623 23.9311C104.42 25.7518 102.713 27.1499 100.502 28.1253C98.291 29.1008 95.6574 29.5885 92.6011 29.5885H82.2129L85.7244 26.1257V39.0988H77.8235ZM99.5265 39.0988L90.9916 26.711H99.429L108.061 39.0988H99.5265ZM85.7244 27.0036L82.2129 23.297H92.1621C94.6007 23.297 96.4214 22.7768 97.6245 21.7364C98.8275 20.6634 99.429 19.2003 99.429 17.347C99.429 15.4612 98.8275 13.9981 97.6245 12.9577C96.4214 11.9172 94.6007 11.397 92.1621 11.397H82.2129L85.7244 7.64166V27.0036Z" fill="white"/>
<path d="M124.904 39.684C122.173 39.684 119.556 39.3263 117.052 38.611C114.549 37.8632 112.533 36.9041 111.005 35.7336L113.687 29.7836C115.15 30.824 116.874 31.6856 118.857 32.3684C120.873 33.0187 122.905 33.3438 124.953 33.3438C126.514 33.3438 127.766 33.1975 128.709 32.9049C129.684 32.5797 130.399 32.1408 130.854 31.5881C131.31 31.0353 131.537 30.4013 131.537 29.686C131.537 28.7756 131.18 28.0603 130.464 27.5401C129.749 26.9874 128.806 26.5484 127.636 26.2233C126.465 25.8656 125.165 25.5405 123.734 25.2479C122.336 24.9227 120.921 24.5326 119.491 24.0774C118.093 23.6222 116.808 23.0369 115.638 22.3216C114.467 21.6063 113.508 20.6634 112.761 19.4929C112.045 18.3224 111.688 16.8268 111.688 15.006C111.688 13.0552 112.208 11.2832 113.248 9.69003C114.321 8.06434 115.914 6.78004 118.028 5.83714C120.174 4.86173 122.856 4.37402 126.075 4.37402C128.221 4.37402 130.334 4.63413 132.415 5.15435C134.496 5.64206 136.333 6.38988 137.926 7.3978L135.488 13.3966C133.894 12.4862 132.301 11.8197 130.708 11.397C129.115 10.9418 127.554 10.7142 126.026 10.7142C124.498 10.7142 123.246 10.893 122.271 11.2507C121.295 11.6083 120.596 12.0798 120.174 12.665C119.751 13.2178 119.54 13.868 119.54 14.6159C119.54 15.4937 119.897 16.209 120.613 16.7618C121.328 17.282 122.271 17.7047 123.441 18.0298C124.612 18.355 125.896 18.6801 127.294 19.0052C128.725 19.3304 130.139 19.7043 131.537 20.127C132.968 20.5496 134.268 21.1186 135.439 21.8339C136.609 22.5492 137.552 23.4921 138.268 24.6626C139.015 25.8331 139.389 27.3125 139.389 29.1008C139.389 31.0191 138.853 32.7748 137.78 34.368C136.707 35.9612 135.097 37.2455 132.952 38.2209C130.838 39.1963 128.156 39.684 124.904 39.684Z" fill="white"/>
<path d="M152.055 18.7126H168.491V24.8577H152.055V18.7126ZM152.64 32.7586H171.222V39.0988H144.788V4.95927H170.588V11.2995H152.64V32.7586Z" fill="white"/>
<path d="M177.508 39.0988V4.95927H192.286C195.342 4.95927 197.976 5.46323 200.187 6.47116C202.397 7.44657 204.104 8.86092 205.307 10.7142C206.51 12.5675 207.112 14.7784 207.112 17.347C207.112 19.8831 206.51 22.0778 205.307 23.9311C204.104 25.7518 202.397 27.1499 200.187 28.1253C197.976 29.1008 195.342 29.5885 192.286 29.5885H181.898L185.409 26.1257V39.0988H177.508ZM199.211 39.0988L190.676 26.711H199.114L207.746 39.0988H199.211ZM185.409 27.0036L181.898 23.297H191.847C194.285 23.297 196.106 22.7768 197.309 21.7364C198.512 20.6634 199.114 19.2003 199.114 17.347C199.114 15.4612 198.512 13.9981 197.309 12.9577C196.106 11.9172 194.285 11.397 191.847 11.397H181.898L185.409 7.64166V27.0036Z" fill="white"/>
<path d="M213.372 39.0988V4.95927H221.273V39.0988H213.372Z" fill="white"/>
<path d="M236.69 20.322H253.077V26.6622H236.69V20.322ZM237.275 39.0988H229.375V4.95927H255.174V11.2995H237.275V39.0988Z" fill="white"/>
<path d="M269.009 39.0988V25.1503L270.814 29.9299L255.792 4.95927H264.181L275.691 24.1261H270.863L282.421 4.95927H290.176L275.154 29.9299L276.91 25.1503V39.0988H269.009Z" fill="white"/>
<path d="M296.265 28.4133L295.986 28.4711L295.887 28.2038L295.443 26.9989C294.403 24.1816 292.227 17.1863 292.168 12.2224C292.131 9.03727 292.981 6.21213 294.716 4.3775C296.553 2.43625 299.171 1.84202 301.886 2.88305C304.97 4.06515 306.595 6.84595 306.91 9.78281C307.491 9.47029 308.115 9.1591 308.757 8.87893C309.813 8.41849 310.988 8.0109 312.174 7.82424C313.354 7.63843 314.663 7.65319 315.895 8.1712C317.598 8.8873 318.655 10.4762 318.875 12.3229C319.094 14.1557 318.506 16.1983 317.125 18.159C314.37 22.0672 308.315 25.9179 297.523 28.1529L296.265 28.4133ZM302.509 16.7307L301.781 17.1822L302.016 16.3587L303.074 12.6465C303.881 9.81216 302.739 7.11525 300.581 6.28786C299.866 6.0136 299.255 5.96589 298.735 6.07762C298.216 6.18919 297.761 6.46539 297.365 6.88348C296.493 7.80535 295.784 9.57846 295.814 12.1794C295.857 15.8175 297.283 21.0381 298.343 24.2396C307.662 22.0705 312.256 18.7381 314.144 16.0584C315.135 14.6525 315.343 13.4951 315.255 12.755C315.168 12.0314 314.818 11.6739 314.481 11.5325C314.083 11.3651 313.517 11.3041 312.741 11.4263C311.97 11.5477 311.108 11.8319 310.215 12.2215C308.636 12.9099 307.174 13.8268 306.175 14.4537C306.037 14.54 305.908 14.6211 305.789 14.6951L302.509 16.7307Z" fill="#FF9458" stroke="#FF9458" stroke-width="0.662067" stroke-linecap="round"/>
</svg>
