<svg width="112" height="36" viewBox="0 0 112 36" fill="none" xmlns="http://www.w3.org/2000/svg">
<path d="M51.9766 28.521C50.6338 28.521 49.4271 28.2299 48.3564 27.6478C47.304 27.0475 46.4602 26.1835 45.8251 25.0557C45.2081 23.9096 44.8996 22.509 44.8996 20.8536V16.3241C44.8996 13.8502 45.5892 11.9584 46.9683 10.6486C48.3474 9.3207 50.1983 8.65674 52.521 8.65674C54.8437 8.65674 56.6311 9.28432 57.8832 10.5395C59.1353 11.7764 59.7613 13.45 59.7613 15.5601V15.6693H56.5494V15.451C56.5494 14.7233 56.4043 14.0685 56.1139 13.4864C55.8236 12.9043 55.379 12.4495 54.7802 12.1221C54.1814 11.7764 53.4283 11.6036 52.521 11.6036C51.1782 11.6036 50.1166 12.022 49.3363 12.8588C48.5742 13.6774 48.1931 14.8143 48.1931 16.2695V20.9082C48.1931 22.3452 48.5742 23.4913 49.3363 24.3462C50.1166 25.2012 51.1963 25.6287 52.5754 25.6287C53.9545 25.6287 54.9616 25.2558 55.5968 24.5099C56.2319 23.7641 56.5494 22.8091 56.5494 21.6449V21.3175H51.7316V18.5343H59.7613V28.139H56.7672V26.2562H56.3045C56.1593 26.5837 55.9325 26.9293 55.624 27.2931C55.3155 27.6387 54.8709 27.9298 54.2902 28.1663C53.7277 28.4027 52.9565 28.521 51.9766 28.521Z" fill="#0A0F0D"/>
<path d="M63.4667 33.5962V14.6597H66.5425V16.4333H67.0052C67.3137 15.8694 67.8037 15.3691 68.4751 14.9325C69.1646 14.496 70.1445 14.2777 71.4148 14.2777C72.5035 14.2777 73.5107 14.5505 74.4361 15.0962C75.3797 15.6238 76.1328 16.406 76.6953 17.4428C77.2578 18.4797 77.5391 19.7258 77.5391 21.181V21.6176C77.5391 23.0729 77.2578 24.3189 76.6953 25.3558C76.1328 26.3927 75.3888 27.184 74.4633 27.7297C73.5379 28.2572 72.5217 28.521 71.4148 28.521C70.5619 28.521 69.8451 28.4209 69.2644 28.2208C68.7019 28.0207 68.2392 27.757 67.8763 27.4295C67.5315 27.1021 67.2593 26.7747 67.0597 26.4472H66.597V33.5962H63.4667ZM70.4893 25.7924C71.6325 25.7924 72.567 25.4286 73.2929 24.7009C74.0369 23.9551 74.4089 22.9001 74.4089 21.5358V21.2629C74.4089 19.8804 74.0369 18.8253 73.2929 18.0977C72.5489 17.3701 71.6144 17.0063 70.4893 17.0063C69.3643 17.0063 68.4206 17.3701 67.6585 18.0977C66.9145 18.8253 66.5425 19.8804 66.5425 21.2629V21.5358C66.5425 22.9001 66.9145 23.9551 67.6585 24.7009C68.4206 25.4286 69.3643 25.7924 70.4893 25.7924Z" fill="#0A0F0D"/>
<path d="M80.8509 28.139V14.6597H83.9267V16.215H84.3894C84.589 15.6511 84.9247 15.2418 85.3965 14.9871C85.8683 14.7324 86.4309 14.6051 87.0841 14.6051H88.7173V17.3883H87.0297C86.1224 17.3883 85.3875 17.6339 84.8249 18.125C84.2624 18.598 83.9811 19.3347 83.9811 20.3352V28.139H80.8509Z" fill="#0A0F0D"/>
<path d="M91.4834 28.139V14.6597H94.6137V28.139H91.4834ZM93.0349 12.9406C92.4724 12.9406 91.9825 12.7587 91.5651 12.3949C91.1659 12.0129 90.9663 11.5127 90.9663 10.8942C90.9663 10.2757 91.1659 9.78456 91.5651 9.42075C91.9825 9.03874 92.4724 8.84774 93.0349 8.84774C93.6338 8.84774 94.1237 9.03874 94.5048 9.42075C94.904 9.78456 95.1036 10.2757 95.1036 10.8942C95.1036 11.5127 94.904 12.0129 94.5048 12.3949C94.1237 12.7587 93.6338 12.9406 93.0349 12.9406Z" fill="#0A0F0D"/>
<path d="M97.9274 21.4539V21.0446C97.9274 19.6257 98.2086 18.416 98.7712 17.4156C99.3337 16.3969 100.087 15.6238 101.03 15.0962C101.974 14.5505 103.008 14.2777 104.133 14.2777C105.404 14.2777 106.365 14.505 107.019 14.9598C107.69 15.4146 108.18 15.9057 108.488 16.4333H108.951V14.6597H112V30.7039C112 31.5952 111.746 32.2956 111.238 32.8049C110.73 33.3324 110.04 33.5962 109.169 33.5962H100.132V30.8676H108.107C108.634 30.8676 108.897 30.5947 108.897 30.049V26.1471H108.434C108.234 26.4563 107.962 26.7747 107.617 27.1021C107.273 27.4114 106.819 27.6751 106.256 27.8934C105.694 28.1117 104.986 28.2208 104.133 28.2208C103.008 28.2208 101.974 27.9571 101.03 27.4295C100.087 26.8838 99.3337 26.1107 98.7712 25.1102C98.2086 24.0915 97.9274 22.8728 97.9274 21.4539ZM105.004 25.4649C106.129 25.4649 107.064 25.1102 107.808 24.4008C108.552 23.6732 108.924 22.6636 108.924 21.372V21.0992C108.924 19.7894 108.552 18.7799 107.808 18.0704C107.082 17.361 106.148 17.0063 105.004 17.0063C103.879 17.0063 102.936 17.361 102.174 18.0704C101.43 18.7799 101.058 19.7894 101.058 21.0992V21.372C101.058 22.6636 101.43 23.6732 102.174 24.4008C102.936 25.1102 103.879 25.4649 105.004 25.4649Z" fill="#0A0F0D"/>
<path fill-rule="evenodd" clip-rule="evenodd" d="M34.9252 20.8344C36.5282 17.6387 35.971 13.7797 33.53 11.1707L29.3837 6.73897L25.0751 2.46564C22.5386 -0.0501639 18.7053 -0.711495 15.4757 0.809517L9.98994 3.3931L4.6043 6.18031C1.43365 7.82121 -0.37833 11.2715 0.0666995 14.8205L0.822624 20.849L1.80268 26.8449C2.37966 30.3748 5.09309 33.1686 8.59772 33.841L14.5507 34.9832L20.542 35.9017C24.0693 36.4424 27.5582 34.7187 29.2792 31.5852L32.2024 26.2627L34.9252 20.8344ZM16.5613 29.5183C14.9479 29.5183 13.4963 29.1937 12.2104 28.5443C10.9445 27.8747 9.93016 26.9109 9.16741 25.6529C8.42663 24.3745 8.05524 22.8121 8.05524 20.9656V15.9131C8.05524 13.1535 8.88388 11.0433 10.5412 9.58229C12.1984 8.10104 14.4228 7.36042 17.2142 7.36042C20.0076 7.36042 22.1541 8.06046 23.6596 9.46055C25.1942 10.867 25.822 12.7574 25.9076 14.7072C25.9191 14.9696 25.689 15.1826 25.4067 15.1826H22.5674C22.2851 15.1826 22.0584 14.9695 22.0431 14.7073C22.0035 14.0291 21.8672 13.3686 21.5331 12.7477C21.1837 12.0984 20.6505 11.5911 19.9297 11.2259C19.2109 10.8403 18.3064 10.6476 17.2142 10.6476C15.6008 10.6476 14.3249 11.1143 13.3885 12.0477C12.472 12.9608 12.0127 14.229 12.0127 15.8522V21.0265C12.0127 22.6295 12.472 23.9078 13.3885 24.8615C14.0694 25.5546 14.9399 25.9959 16.0022 26.1852V18.8541C16.0022 18.5914 16.231 18.3785 16.5133 18.3785H25.4067C25.689 18.3785 25.9179 18.5914 25.9179 18.8541V29.0922L25.9079 29.3401C25.9079 29.4452 25.818 29.5303 25.7042 29.5303C24.1806 29.5303 22.6559 29.5273 21.1314 29.5243C19.6073 29.5213 18.0835 29.5183 16.5613 29.5183Z" fill="#0A0F0D"/>
</svg>
