<svg width="99" height="24" viewBox="0 0 99 24" fill="none" xmlns="http://www.w3.org/2000/svg">
<path d="M18.18 1.59V23.55H14.22V14.43H3.93V23.55H0V1.59H3.93V10.62H14.22V1.59H18.18Z" fill="#131313"/>
<path d="M28.7334 23.88C27.5334 23.88 26.4434 23.64 25.4634 23.16C24.4834 22.66 23.7034 21.91 23.1234 20.91C22.5634 19.91 22.2834 18.64 22.2834 17.1C22.2834 15.64 22.5734 14.39 23.1534 13.35C23.7534 12.29 24.5434 11.47 25.5234 10.89C26.5034 10.31 27.5534 10.02 28.6734 10.02C29.9334 10.02 30.9134 10.25 31.6134 10.71C32.3334 11.15 32.9034 11.66 33.3234 12.24L33.1434 12.75L33.5034 10.62H37.0434V23.55H33.2334V20.58L33.5634 21.45C33.5034 21.49 33.3634 21.64 33.1434 21.9C32.9234 22.16 32.6134 22.45 32.2134 22.77C31.8134 23.07 31.3234 23.33 30.7434 23.55C30.1634 23.77 29.4934 23.88 28.7334 23.88ZM29.8134 20.79C30.6534 20.79 31.3634 20.59 31.9434 20.19C32.5234 19.79 32.9534 19.22 33.2334 18.48V15.48C32.9934 14.78 32.5534 14.21 31.9134 13.77C31.2734 13.33 30.5334 13.11 29.6934 13.11C29.0534 13.11 28.4634 13.28 27.9234 13.62C27.3834 13.94 26.9534 14.39 26.6334 14.97C26.3134 15.53 26.1534 16.18 26.1534 16.92C26.1534 17.64 26.3134 18.3 26.6334 18.9C26.9734 19.48 27.4234 19.94 27.9834 20.28C28.5434 20.62 29.1534 20.79 29.8134 20.79Z" fill="#131313"/>
<path d="M41.4968 0H45.3068V23.55H41.4968V0Z" fill="#131313"/>
<path d="M58.1278 23.88C57.0078 23.88 56.0578 23.68 55.2778 23.28C54.4978 22.88 53.8378 22.36 53.2978 21.72L53.5978 20.82V23.55H49.7878V0H53.5978V13.05L53.5678 11.79C54.0678 11.27 54.7578 10.85 55.6378 10.53C56.5178 10.19 57.5178 10.02 58.6378 10.02C59.7778 10.02 60.8078 10.29 61.7278 10.83C62.6678 11.37 63.4178 12.15 63.9778 13.17C64.5578 14.17 64.8478 15.39 64.8478 16.83C64.8478 18.29 64.5278 19.55 63.8878 20.61C63.2678 21.67 62.4478 22.48 61.4278 23.04C60.4078 23.6 59.3078 23.88 58.1278 23.88ZM57.2878 20.67C57.9678 20.67 58.5878 20.51 59.1478 20.19C59.7078 19.85 60.1478 19.39 60.4678 18.81C60.8078 18.21 60.9778 17.54 60.9778 16.8C60.9778 16.08 60.8078 15.44 60.4678 14.88C60.1278 14.3 59.6778 13.85 59.1178 13.53C58.5778 13.19 57.9678 13.02 57.2878 13.02C56.4078 13.02 55.6378 13.24 54.9778 13.68C54.3178 14.1 53.8578 14.66 53.5978 15.36V18.39C53.9378 19.11 54.4078 19.67 55.0078 20.07C55.6278 20.47 56.3878 20.67 57.2878 20.67Z" fill="#131313"/>
<path d="M67.2248 16.95C67.2248 15.63 67.5348 14.45 68.1548 13.41C68.7748 12.37 69.6348 11.55 70.7348 10.95C71.8548 10.35 73.1348 10.05 74.5748 10.05C76.0348 10.05 77.3048 10.35 78.3848 10.95C79.4648 11.55 80.2948 12.37 80.8748 13.41C81.4548 14.45 81.7448 15.63 81.7448 16.95C81.7448 18.25 81.4448 19.43 80.8448 20.49C80.2648 21.53 79.4348 22.36 78.3548 22.98C77.2948 23.58 76.0148 23.88 74.5148 23.88C73.1148 23.88 71.8648 23.61 70.7648 23.07C69.6648 22.51 68.7948 21.71 68.1548 20.67C67.5348 19.63 67.2248 18.39 67.2248 16.95ZM71.0648 16.98C71.0648 17.68 71.2148 18.32 71.5148 18.9C71.8148 19.48 72.2148 19.94 72.7148 20.28C73.2348 20.62 73.8148 20.79 74.4548 20.79C75.4948 20.79 76.3248 20.43 76.9448 19.71C77.5848 18.97 77.9048 18.06 77.9048 16.98C77.9048 15.88 77.5848 14.97 76.9448 14.25C76.3248 13.51 75.4948 13.14 74.4548 13.14C73.8148 13.14 73.2348 13.31 72.7148 13.65C72.2148 13.99 71.8148 14.45 71.5148 15.03C71.2148 15.61 71.0648 16.26 71.0648 16.98Z" fill="#131313"/>
<path d="M88.5984 10.62L88.9584 14.22L88.8684 13.71C89.2284 12.93 89.7284 12.27 90.3684 11.73C91.0284 11.19 91.6784 10.77 92.3184 10.47C92.9784 10.17 93.4984 10.02 93.8784 10.02L93.6984 13.83C92.7384 13.73 91.8984 13.9 91.1784 14.34C90.4784 14.76 89.9384 15.33 89.5584 16.05C89.1784 16.75 88.9884 17.49 88.9884 18.27V23.55H85.1784V10.62H88.5984Z" fill="#131313"/>
<path d="M94.3397 21.57C94.3397 20.99 94.5497 20.51 94.9697 20.13C95.3897 19.73 95.8497 19.53 96.3497 19.53C96.8097 19.53 97.2497 19.73 97.6697 20.13C98.0897 20.51 98.2997 20.98 98.2997 21.54C98.2997 22.16 98.0897 22.65 97.6697 23.01C97.2497 23.37 96.8097 23.55 96.3497 23.55C95.8497 23.55 95.3897 23.37 94.9697 23.01C94.5497 22.65 94.3397 22.17 94.3397 21.57Z" fill="#131313"/>
</svg>
