<svg width="112" height="28" viewBox="0 0 112 28" fill="none" xmlns="http://www.w3.org/2000/svg">
<path d="M35.632 25.68V8.28H39.28V9.912H39.448C39.528 9.8 39.704 9.592 39.976 9.288C40.264 8.984 40.672 8.704 41.2 8.448C41.728 8.176 42.4 8.04 43.216 8.04C44.16 8.04 44.976 8.232 45.664 8.616C46.368 8.984 46.952 9.488 47.416 10.128C47.88 10.752 48.224 11.456 48.448 12.24C48.688 13.024 48.808 13.824 48.808 14.64C48.808 15.456 48.688 16.256 48.448 17.04C48.224 17.824 47.88 18.536 47.416 19.176C46.952 19.8 46.368 20.304 45.664 20.688C44.976 21.056 44.16 21.24 43.216 21.24C42.4 21.24 41.728 21.112 41.2 20.856C40.672 20.584 40.264 20.296 39.976 19.992C39.704 19.688 39.528 19.48 39.448 19.368H39.28V25.68H35.632ZM39.208 14.64C39.208 15.232 39.312 15.808 39.52 16.368C39.744 16.928 40.072 17.392 40.504 17.76C40.952 18.112 41.504 18.288 42.16 18.288C42.816 18.288 43.36 18.112 43.792 17.76C44.24 17.392 44.568 16.928 44.776 16.368C45 15.808 45.112 15.232 45.112 14.64C45.112 14.048 45 13.472 44.776 12.912C44.568 12.352 44.24 11.896 43.792 11.544C43.36 11.176 42.816 10.992 42.16 10.992C41.504 10.992 40.952 11.176 40.504 11.544C40.072 11.896 39.744 12.352 39.52 12.912C39.312 13.472 39.208 14.048 39.208 14.64ZM56.7301 8.04C57.5461 8.04 58.2181 8.176 58.7461 8.448C59.2741 8.704 59.6741 8.984 59.9461 9.288C60.2341 9.592 60.4101 9.8 60.4741 9.912H60.6661V8.28H64.3141V21H60.6661V19.368H60.4741C60.4101 19.48 60.2341 19.688 59.9461 19.992C59.6741 20.296 59.2741 20.584 58.7461 20.856C58.2181 21.112 57.5461 21.24 56.7301 21.24C55.7861 21.24 54.9621 21.056 54.2581 20.688C53.5701 20.304 52.9941 19.8 52.5301 19.176C52.0661 18.536 51.7141 17.824 51.4741 17.04C51.2501 16.256 51.1381 15.456 51.1381 14.64C51.1381 13.824 51.2501 13.024 51.4741 12.24C51.7141 11.456 52.0661 10.752 52.5301 10.128C52.9941 9.488 53.5701 8.984 54.2581 8.616C54.9621 8.232 55.7861 8.04 56.7301 8.04ZM57.7861 10.992C57.1301 10.992 56.5781 11.176 56.1301 11.544C55.6981 11.896 55.3701 12.352 55.1461 12.912C54.9381 13.472 54.8341 14.048 54.8341 14.64C54.8341 15.232 54.9381 15.808 55.1461 16.368C55.3701 16.928 55.6981 17.392 56.1301 17.76C56.5781 18.112 57.1301 18.288 57.7861 18.288C58.4421 18.288 58.9861 18.112 59.4181 17.76C59.8661 17.392 60.1941 16.928 60.4021 16.368C60.6261 15.808 60.7381 15.232 60.7381 14.64C60.7381 14.048 60.6261 13.472 60.4021 12.912C60.1941 12.352 59.8661 11.896 59.4181 11.544C58.9861 11.176 58.4421 10.992 57.7861 10.992ZM67.1029 21V8.28H70.7269V10.128H70.8469C70.9909 9.792 71.1909 9.464 71.4469 9.144C71.7029 8.824 72.0549 8.56 72.5029 8.352C72.9509 8.144 73.5269 8.04 74.2309 8.04C74.5829 8.04 74.8629 8.064 75.0709 8.112C75.2789 8.144 75.3829 8.16 75.3829 8.16V11.76C75.3829 11.76 75.2629 11.736 75.0229 11.688C74.7989 11.64 74.5029 11.616 74.1349 11.616C72.9989 11.616 72.1509 11.928 71.5909 12.552C71.0309 13.16 70.7509 14.16 70.7509 15.552V21H67.1029ZM77.632 21V2.76H81.28V21H77.632ZM90.5014 21.24C89.3814 21.24 88.4134 21.056 87.5974 20.688C86.7814 20.304 86.1094 19.8 85.5814 19.176C85.0534 18.536 84.6534 17.824 84.3814 17.04C84.1254 16.256 83.9974 15.448 83.9974 14.616C83.9974 13.816 84.1174 13.032 84.3574 12.264C84.6134 11.48 84.9974 10.768 85.5094 10.128C86.0374 9.488 86.7014 8.984 87.5014 8.616C88.3174 8.232 89.2774 8.04 90.3814 8.04C91.5494 8.04 92.5814 8.296 93.4774 8.808C94.3894 9.32 95.1014 10.08 95.6134 11.088C96.1254 12.08 96.3814 13.288 96.3814 14.712V15.6H87.6694C87.7174 16.368 87.9814 17.032 88.4614 17.592C88.9574 18.152 89.6374 18.432 90.5014 18.432C90.9974 18.432 91.3974 18.36 91.7014 18.216C92.0214 18.056 92.2694 17.88 92.4454 17.688C92.6214 17.48 92.7414 17.296 92.8054 17.136C92.8694 16.976 92.9014 16.896 92.9014 16.896H96.2614C96.2614 16.896 96.2214 17.048 96.1414 17.352C96.0774 17.64 95.9334 18 95.7094 18.432C95.4854 18.864 95.1574 19.296 94.7254 19.728C94.3094 20.16 93.7574 20.52 93.0694 20.808C92.3814 21.096 91.5254 21.24 90.5014 21.24ZM87.6694 13.392H92.8774C92.8294 12.512 92.5654 11.856 92.0854 11.424C91.6054 10.992 91.0134 10.776 90.3094 10.776C89.6054 10.776 89.0054 11.008 88.5094 11.472C88.0134 11.92 87.7334 12.56 87.6694 13.392ZM99.3303 25.68C98.8983 25.68 98.5543 25.664 98.2983 25.632C98.0423 25.6 97.9143 25.584 97.9143 25.584V22.656C97.9143 22.656 98.0183 22.664 98.2263 22.68C98.4503 22.696 98.7223 22.704 99.0423 22.704C99.8103 22.704 100.442 22.592 100.938 22.368C101.434 22.16 101.866 21.744 102.234 21.12L97.5303 8.28H101.178L104.13 16.896L107.01 8.28H110.682L106.122 20.496C105.706 21.664 105.202 22.632 104.61 23.4C104.034 24.168 103.322 24.736 102.474 25.104C101.626 25.488 100.578 25.68 99.3303 25.68Z" fill="#081120"/>
<rect y="2" width="26" height="26" rx="4" fill="#FF7A01"/>
<path d="M8 16H18V21C18 23.7614 15.7614 26 13 26C10.2386 26 8 23.7614 8 21V16Z" fill="white"/>
<path d="M8 14H18V9C18 6.23858 15.7614 4 13 4C10.2386 4 8 6.23858 8 9V14Z" fill="white"/>
</svg>
