<svg width="131" height="59" viewBox="0 0 131 59" fill="none" xmlns="http://www.w3.org/2000/svg">
<path d="M0 54.7884L2.90682 42.5424H6.7852L9.67622 54.7884H7.16435L4.84206 44.1094H4.85786L2.51187 54.7884H0ZM2.08532 51.9529V49.9464H7.61459V51.9529H2.08532Z" fill="white"/>
<path d="M10.7579 58.4117V45.9832H13.2145V58.4117H10.7579ZM15.8053 54.9874C15.1418 54.9874 14.5336 54.8022 13.9807 54.4319C13.4277 54.056 12.9854 53.553 12.6536 52.9229C12.3219 52.2873 12.156 51.5742 12.156 50.7838C12.156 50.7617 12.156 50.7424 12.156 50.7258C12.156 50.7037 12.156 50.6788 12.156 50.6511L13.2145 50.6263C13.2145 50.6429 13.2145 50.6594 13.2145 50.676C13.2145 50.6926 13.2145 50.7092 13.2145 50.7258C13.2145 51.1348 13.3092 51.4941 13.4988 51.8036C13.6884 52.1076 13.9333 52.3425 14.2334 52.5084C14.5336 52.6742 14.8469 52.7571 15.1734 52.7571C15.7105 52.7571 16.1766 52.5636 16.5715 52.1767C16.9717 51.7843 17.1718 51.1735 17.1718 50.3444C17.1718 49.5153 16.9744 48.9128 16.5794 48.5369C16.1845 48.1555 15.7158 47.9648 15.1734 47.9648C14.8469 47.9648 14.5336 48.0477 14.2334 48.2136C13.9333 48.3738 13.6884 48.6032 13.4988 48.9017C13.3092 49.2002 13.2145 49.5567 13.2145 49.9713L12.156 49.9049C12.156 49.109 12.3219 48.407 12.6536 47.799C12.9854 47.1855 13.4277 46.7018 13.9807 46.348C14.5336 45.9943 15.1418 45.8174 15.8053 45.8174C16.4846 45.8174 17.1192 45.9943 17.709 46.348C18.2988 46.6963 18.7753 47.2076 19.1387 47.8819C19.5073 48.5563 19.6916 49.3771 19.6916 50.3444C19.6916 51.3559 19.5126 52.2071 19.1545 52.898C18.7964 53.589 18.3225 54.1113 17.7327 54.4651C17.1429 54.8133 16.5004 54.9874 15.8053 54.9874Z" fill="white"/>
<path d="M20.9019 58.4117V45.9832H23.3584V58.4117H20.9019ZM25.9493 54.9874C25.2858 54.9874 24.6776 54.8022 24.1246 54.4319C23.5717 54.056 23.1294 53.553 22.7976 52.9229C22.4659 52.2873 22.3 51.5742 22.3 50.7838C22.3 50.7617 22.3 50.7424 22.3 50.7258C22.3 50.7037 22.3 50.6788 22.3 50.6511L23.3584 50.6263C23.3584 50.6429 23.3584 50.6594 23.3584 50.676C23.3584 50.6926 23.3584 50.7092 23.3584 50.7258C23.3584 51.1348 23.4532 51.4941 23.6428 51.8036C23.8324 52.1076 24.0773 52.3425 24.3774 52.5084C24.6776 52.6742 24.9909 52.7571 25.3174 52.7571C25.8545 52.7571 26.3206 52.5636 26.7155 52.1767C27.1157 51.7843 27.3158 51.1735 27.3158 50.3444C27.3158 49.5153 27.1184 48.9128 26.7234 48.5369C26.3285 48.1555 25.8598 47.9648 25.3174 47.9648C24.9909 47.9648 24.6776 48.0477 24.3774 48.2136C24.0773 48.3738 23.8324 48.6032 23.6428 48.9017C23.4532 49.2002 23.3584 49.5567 23.3584 49.9713L22.3 49.9049C22.3 49.109 22.4659 48.407 22.7976 47.799C23.1294 47.1855 23.5717 46.7018 24.1246 46.348C24.6776 45.9943 25.2858 45.8174 25.9493 45.8174C26.6286 45.8174 27.2632 45.9943 27.853 46.348C28.4427 46.6963 28.9193 47.2076 29.2827 47.8819C29.6513 48.5563 29.8356 49.3771 29.8356 50.3444C29.8356 51.3559 29.6566 52.2071 29.2985 52.898C28.9404 53.589 28.4664 54.1113 27.8767 54.4651C27.2869 54.8133 26.6444 54.9874 25.9493 54.9874Z" fill="white"/>
<path d="M33.5814 41.8294V54.7884H31.1643V41.8294H33.5814Z" fill="white"/>
<path d="M35.1246 54.7884V45.9832H37.5495V54.7884H35.1246ZM36.3331 44.5489C35.954 44.5489 35.6222 44.4438 35.3378 44.2338C35.0587 44.0238 34.9192 43.728 34.9192 43.3467C34.9192 42.9597 35.0587 42.6613 35.3378 42.4512C35.6222 42.2412 35.954 42.1361 36.3331 42.1361C36.7175 42.1361 37.0493 42.2412 37.3284 42.4512C37.6127 42.6613 37.7549 42.9597 37.7549 43.3467C37.7549 43.7336 37.6127 44.0321 37.3284 44.2421C37.0493 44.4466 36.7175 44.5489 36.3331 44.5489Z" fill="white"/>
<path d="M41.8816 54.9708C41.2708 54.9708 40.7257 54.8686 40.2465 54.6641C39.7726 54.4595 39.4014 54.1638 39.1328 53.7769C38.8642 53.39 38.7299 52.9202 38.7299 52.3674C38.7299 51.7428 38.8932 51.2343 39.2197 50.8418C39.5462 50.4494 39.978 50.1509 40.5151 49.9464C41.0575 49.7364 41.6447 49.5982 42.2766 49.5318C43.1981 49.4379 43.8327 49.3522 44.1802 49.2748C44.533 49.1974 44.7095 49.062 44.7095 48.8686C44.7095 48.863 44.7095 48.8575 44.7095 48.852C44.7095 48.5259 44.5594 48.2688 44.2592 48.0809C43.9643 47.893 43.5509 47.799 43.0191 47.799C42.4556 47.799 42.0238 47.9068 41.7236 48.1224C41.4288 48.3324 41.2813 48.6557 41.2813 49.0924H38.8721C38.8721 48.3849 39.0538 47.7879 39.4172 47.3015C39.7858 46.8151 40.2834 46.4475 40.9101 46.1988C41.5367 45.9445 42.245 45.8174 43.0349 45.8174C43.7721 45.8174 44.4541 45.9363 45.0807 46.1739C45.7074 46.4061 46.2103 46.7571 46.5894 47.2269C46.9738 47.6967 47.166 48.2937 47.166 49.0178C47.166 49.1339 47.166 49.2499 47.166 49.366C47.166 49.4766 47.166 49.5899 47.166 49.706V52.8234C47.166 53.0501 47.1713 53.2684 47.1818 53.4784C47.1976 53.6829 47.2292 53.8709 47.2766 54.0422C47.3293 54.2357 47.3951 54.396 47.4741 54.5231C47.5531 54.6502 47.6189 54.7387 47.6716 54.7884H45.2624C45.2255 54.7497 45.1676 54.6696 45.0886 54.548C45.0149 54.4264 44.9517 54.2854 44.899 54.1251C44.8358 53.9317 44.7884 53.7382 44.7568 53.5448C44.7305 53.3458 44.7173 53.1136 44.7173 52.8483L45.2229 53.2131C45.0754 53.5779 44.8358 53.893 44.5041 54.1583C44.1776 54.4181 43.7879 54.6198 43.335 54.7636C42.8874 54.9017 42.403 54.9708 41.8816 54.9708ZM42.5372 53.0473C42.9217 53.0473 43.2797 52.9754 43.6115 52.8317C43.9485 52.6825 44.2223 52.4503 44.433 52.1353C44.6436 51.8202 44.7489 51.4084 44.7489 50.8999V50.0127L45.3572 50.6346C45.0096 50.7672 44.6068 50.8778 44.1486 50.9662C43.6958 51.0491 43.2429 51.1155 42.79 51.1652C42.2529 51.2205 41.85 51.3172 41.5815 51.4554C41.3182 51.588 41.1865 51.8147 41.1865 52.1353C41.1865 52.4393 41.2997 52.6687 41.5262 52.8234C41.7526 52.9727 42.0896 53.0473 42.5372 53.0473Z" fill="white"/>
<path d="M54.5504 54.7884V51.0491C54.5504 50.8391 54.5504 50.6484 54.5504 50.477C54.5504 50.3057 54.5504 50.1509 54.5504 50.0127C54.5504 49.6479 54.5057 49.3163 54.4162 49.0178C54.3266 48.7138 54.166 48.4706 53.9343 48.2882C53.7026 48.1058 53.3682 48.0146 52.9312 48.0146C52.552 48.0146 52.2229 48.1058 51.9438 48.2882C51.67 48.4706 51.4593 48.7248 51.3119 49.051C51.1644 49.3771 51.0907 49.7529 51.0907 50.1786L50.4114 49.6645C50.4114 48.9017 50.5694 48.2329 50.8853 47.658C51.2013 47.0832 51.6278 46.6327 52.165 46.3066C52.7074 45.9805 53.3077 45.8174 53.9659 45.8174C54.6558 45.8174 55.2219 45.9639 55.6642 46.2568C56.1118 46.5443 56.4436 46.9478 56.6595 47.4674C56.8806 47.9814 56.9912 48.5839 56.9912 49.2748C56.9912 49.5567 56.9912 49.8718 56.9912 50.22C56.9912 50.5682 56.9912 50.9248 56.9912 51.2896V54.7884H54.5504ZM48.642 54.7884V45.9832H51.0907V54.7884H48.642Z" fill="white"/>
<path d="M62.7343 54.9874C61.8127 54.9874 61.0044 54.794 60.3093 54.407C59.6142 54.0146 59.0744 53.4701 58.69 52.7737C58.3108 52.0772 58.1213 51.273 58.1213 50.361C58.1213 49.4379 58.3108 48.6392 58.69 47.9648C59.0744 47.2849 59.6142 46.7571 60.3093 46.3812C61.0044 46.0053 61.8127 45.8174 62.7343 45.8174C63.4241 45.8174 64.035 45.9252 64.5668 46.1408C65.0987 46.3508 65.5437 46.6299 65.9017 46.9782C66.2598 47.3264 66.531 47.7078 66.7153 48.1224C66.8996 48.5369 66.9918 48.9487 66.9918 49.3577C66.9918 49.3633 66.9918 49.3743 66.9918 49.3909C66.9918 49.4019 66.9918 49.413 66.9918 49.4241H64.5668C64.5668 49.3909 64.5642 49.3605 64.5589 49.3329C64.5589 49.2997 64.5536 49.2665 64.5431 49.2334C64.501 49.0012 64.4088 48.7829 64.2667 48.5784C64.1245 48.3738 63.9244 48.208 63.6663 48.0809C63.4136 47.9482 63.0976 47.8819 62.7185 47.8819C62.313 47.8819 61.9496 47.9759 61.6284 48.1638C61.3124 48.3517 61.0623 48.6309 60.878 49.0012C60.6937 49.366 60.6015 49.8193 60.6015 50.361C60.6015 50.8916 60.6937 51.3504 60.878 51.7373C61.0623 52.1187 61.3124 52.4116 61.6284 52.6161C61.9496 52.8207 62.313 52.9229 62.7185 52.9229C63.1345 52.9229 63.4741 52.8566 63.7374 52.7239C64.0007 52.5857 64.1982 52.4033 64.3298 52.1767C64.4615 51.9446 64.5405 51.6903 64.5668 51.4139H66.9918C66.9918 51.823 66.8996 52.2403 66.7153 52.6659C66.5363 53.086 66.2677 53.4701 65.9096 53.8184C65.5568 54.1666 65.1145 54.4485 64.5826 54.6641C64.0508 54.8796 63.4346 54.9874 62.7343 54.9874Z" fill="white"/>
<path d="M69.1449 51.1569V49.4572H74.7057L74.4688 49.8884C74.4688 49.8441 74.4688 49.8027 74.4688 49.764C74.4688 49.7198 74.4688 49.6783 74.4688 49.6396C74.4688 49.3246 74.3977 49.0233 74.2555 48.7359C74.1133 48.4429 73.8921 48.2053 73.592 48.0229C73.2971 47.8349 72.9179 47.741 72.4545 47.741C71.9911 47.741 71.5909 47.846 71.2539 48.056C70.9221 48.2605 70.6667 48.5563 70.4877 48.9432C70.3139 49.3301 70.227 49.7972 70.227 50.3444C70.227 50.9082 70.3113 51.3918 70.4798 51.7953C70.6536 52.1933 70.909 52.5001 71.246 52.7156C71.5883 52.9312 72.0122 53.039 72.5177 53.039C72.8442 53.039 73.126 53.0086 73.3629 52.9478C73.5999 52.8815 73.7921 52.7986 73.9395 52.6991C74.0923 52.5996 74.2081 52.489 74.2871 52.3674C74.3661 52.2458 74.4135 52.127 74.4293 52.0109H76.8464C76.8148 52.3812 76.6937 52.746 76.483 53.1053C76.2724 53.4591 75.9801 53.7797 75.6062 54.0671C75.2323 54.349 74.7768 54.5729 74.2397 54.7387C73.7078 54.9045 73.0996 54.9874 72.415 54.9874C71.4882 54.9874 70.6799 54.794 69.9901 54.407C69.3002 54.0146 68.7657 53.4757 68.3866 52.7903C68.0074 52.0993 67.8179 51.3034 67.8179 50.4024C67.8179 49.4904 68.0101 48.6917 68.3945 48.0063C68.7842 47.3153 69.3239 46.7792 70.0138 46.3978C70.7089 46.0109 71.5119 45.8174 72.4229 45.8174C73.355 45.8174 74.1607 46.0136 74.84 46.4061C75.5193 46.793 76.0433 47.3375 76.4119 48.0394C76.7805 48.7359 76.9648 49.5484 76.9648 50.477C76.9648 50.6152 76.9622 50.7479 76.9569 50.875C76.9517 51.0021 76.9438 51.0961 76.9333 51.1569H69.1449Z" fill="white"/>
<path d="M81.8206 54.7884V42.559H86.5442C87.7659 42.559 88.6769 42.852 89.2772 43.4379C89.8828 44.0182 90.1856 44.8556 90.1856 45.9501C90.1856 46.5802 90.0697 47.1191 89.838 47.5668C89.6116 48.009 89.3299 48.3517 88.9929 48.5949C88.6611 48.8382 88.3399 48.9736 88.0292 49.0012C88.3504 49.0233 88.6532 49.109 88.9376 49.2582C89.2272 49.4019 89.4642 49.6313 89.6485 49.9464C89.8328 50.2615 89.9249 50.6843 89.9249 51.2149C89.9249 51.6074 89.9249 51.9943 89.9249 52.3757C89.9249 52.7571 89.9249 53.1468 89.9249 53.5448C89.9249 53.8156 89.9434 54.0671 89.9802 54.2992C90.0223 54.5259 90.0829 54.6889 90.1619 54.7884H87.7053C87.6369 54.6779 87.5816 54.5121 87.5394 54.291C87.4973 54.0643 87.4763 53.8156 87.4763 53.5448C87.4763 53.191 87.4763 52.8538 87.4763 52.5332C87.4763 52.2071 87.4763 51.8672 87.4763 51.5134C87.4763 51.0325 87.3578 50.6622 87.1208 50.4024C86.8838 50.1371 86.5047 50.0044 85.9834 50.0044H83.5663L84.2219 49.1836V54.7884H81.8206ZM84.2219 48.9515L83.5663 48.0146H86.0149C86.3309 48.0146 86.6126 47.9399 86.8601 47.7907C87.1076 47.6415 87.3025 47.4287 87.4447 47.1523C87.5921 46.8759 87.6658 46.5526 87.6658 46.1822C87.6658 45.6626 87.5157 45.2591 87.2156 44.9717C86.9207 44.6843 86.5047 44.5406 85.9676 44.5406H83.511L84.2219 43.7032V48.9515Z" fill="white"/>
<path d="M92.3721 51.1569V49.4572H97.933L97.696 49.8884C97.696 49.8441 97.696 49.8027 97.696 49.764C97.696 49.7198 97.696 49.6783 97.696 49.6396C97.696 49.3246 97.6249 49.0233 97.4828 48.7359C97.3406 48.4429 97.1194 48.2053 96.8192 48.0229C96.5243 47.8349 96.1452 47.741 95.6818 47.741C95.2184 47.741 94.8182 47.846 94.4811 48.056C94.1494 48.2605 93.894 48.5563 93.7149 48.9432C93.5412 49.3301 93.4543 49.7972 93.4543 50.3444C93.4543 50.9082 93.5385 51.3918 93.7071 51.7953C93.8808 52.1933 94.1362 52.5001 94.4733 52.7156C94.8155 52.9312 95.2394 53.039 95.745 53.039C96.0715 53.039 96.3532 53.0086 96.5902 52.9478C96.8271 52.8815 97.0193 52.7986 97.1668 52.6991C97.3195 52.5996 97.4354 52.489 97.5143 52.3674C97.5933 52.2458 97.6407 52.127 97.6565 52.0109H100.074C100.042 52.3812 99.9209 52.746 99.7103 53.1053C99.4996 53.4591 99.2074 53.7797 98.8335 54.0671C98.4596 54.349 98.0041 54.5729 97.467 54.7387C96.9351 54.9045 96.3269 54.9874 95.6423 54.9874C94.7155 54.9874 93.9072 54.794 93.2173 54.407C92.5275 54.0146 91.993 53.4757 91.6138 52.7903C91.2347 52.0993 91.0451 51.3034 91.0451 50.4024C91.0451 49.4904 91.2373 48.6917 91.6217 48.0063C92.0114 47.3153 92.5512 46.7792 93.241 46.3978C93.9361 46.0109 94.7392 45.8174 95.6502 45.8174C96.5823 45.8174 97.388 46.0136 98.0673 46.4061C98.7466 46.793 99.2705 47.3375 99.6392 48.0394C100.008 48.7359 100.192 49.5484 100.192 50.477C100.192 50.6152 100.189 50.7479 100.184 50.875C100.179 51.0021 100.171 51.0961 100.161 51.1569H92.3721Z" fill="white"/>
<path d="M101.406 58.4117V45.9832H103.863V58.4117H101.406ZM106.454 54.9874C105.79 54.9874 105.182 54.8022 104.629 54.4319C104.076 54.056 103.634 53.553 103.302 52.9229C102.97 52.2873 102.805 51.5742 102.805 50.7838C102.805 50.7617 102.805 50.7424 102.805 50.7258C102.805 50.7037 102.805 50.6788 102.805 50.6511L103.863 50.6263C103.863 50.6429 103.863 50.6594 103.863 50.676C103.863 50.6926 103.863 50.7092 103.863 50.7258C103.863 51.1348 103.958 51.4941 104.147 51.8036C104.337 52.1076 104.582 52.3425 104.882 52.5084C105.182 52.6742 105.495 52.7571 105.822 52.7571C106.359 52.7571 106.825 52.5636 107.22 52.1767C107.62 51.7843 107.82 51.1735 107.82 50.3444C107.82 49.5153 107.623 48.9128 107.228 48.5369C106.833 48.1555 106.364 47.9648 105.822 47.9648C105.495 47.9648 105.182 48.0477 104.882 48.2136C104.582 48.3738 104.337 48.6032 104.147 48.9017C103.958 49.2002 103.863 49.5567 103.863 49.9713L102.805 49.9049C102.805 49.109 102.97 48.407 103.302 47.799C103.634 47.1855 104.076 46.7018 104.629 46.348C105.182 45.9943 105.79 45.8174 106.454 45.8174C107.133 45.8174 107.768 45.9943 108.358 46.348C108.947 46.6963 109.424 47.2076 109.787 47.8819C110.156 48.5563 110.34 49.3771 110.34 50.3444C110.34 51.3559 110.161 52.2071 109.803 52.898C109.445 53.589 108.971 54.1113 108.381 54.4651C107.791 54.8133 107.149 54.9874 106.454 54.9874Z" fill="white"/>
<path d="M114.394 54.9708C113.783 54.9708 113.238 54.8686 112.759 54.6641C112.285 54.4595 111.914 54.1638 111.645 53.7769C111.377 53.39 111.242 52.9202 111.242 52.3674C111.242 51.7428 111.406 51.2343 111.732 50.8418C112.059 50.4494 112.49 50.1509 113.028 49.9464C113.57 49.7364 114.157 49.5982 114.789 49.5318C115.711 49.4379 116.345 49.3522 116.693 49.2748C117.045 49.1974 117.222 49.062 117.222 48.8686C117.222 48.863 117.222 48.8575 117.222 48.852C117.222 48.5259 117.072 48.2688 116.772 48.0809C116.477 47.893 116.063 47.799 115.531 47.799C114.968 47.799 114.536 47.9068 114.236 48.1224C113.941 48.3324 113.794 48.6557 113.794 49.0924H111.385C111.385 48.3849 111.566 47.7879 111.93 47.3015C112.298 46.8151 112.796 46.4475 113.422 46.1988C114.049 45.9445 114.757 45.8174 115.547 45.8174C116.285 45.8174 116.966 45.9363 117.593 46.1739C118.22 46.4061 118.723 46.7571 119.102 47.2269C119.486 47.6967 119.678 48.2937 119.678 49.0178C119.678 49.1339 119.678 49.2499 119.678 49.366C119.678 49.4766 119.678 49.5899 119.678 49.706V52.8234C119.678 53.0501 119.684 53.2684 119.694 53.4784C119.71 53.6829 119.742 53.8709 119.789 54.0422C119.842 54.2357 119.908 54.396 119.987 54.5231C120.065 54.6502 120.131 54.7387 120.184 54.7884H117.775C117.738 54.7497 117.68 54.6696 117.601 54.548C117.527 54.4264 117.464 54.2854 117.411 54.1251C117.348 53.9317 117.301 53.7382 117.269 53.5448C117.243 53.3458 117.23 53.1136 117.23 52.8483L117.735 53.2131C117.588 53.5779 117.348 53.893 117.016 54.1583C116.69 54.4181 116.3 54.6198 115.847 54.7636C115.4 54.9017 114.915 54.9708 114.394 54.9708ZM115.05 53.0473C115.434 53.0473 115.792 52.9754 116.124 52.8317C116.461 52.6825 116.735 52.4503 116.945 52.1353C117.156 51.8202 117.261 51.4084 117.261 50.8999V50.0127L117.87 50.6346C117.522 50.7672 117.119 50.8778 116.661 50.9662C116.208 51.0491 115.755 51.1155 115.302 51.1652C114.765 51.2205 114.362 51.3172 114.094 51.4554C113.831 51.588 113.699 51.8147 113.699 52.1353C113.699 52.4393 113.812 52.6687 114.039 52.8234C114.265 52.9727 114.602 53.0473 115.05 53.0473Z" fill="white"/>
<path d="M121.06 54.7884V45.9832H123.485V54.7884H121.06ZM122.268 44.5489C121.889 44.5489 121.557 44.4438 121.273 44.2338C120.994 44.0238 120.854 43.728 120.854 43.3467C120.854 42.9597 120.994 42.6613 121.273 42.4512C121.557 42.2412 121.889 42.1361 122.268 42.1361C122.653 42.1361 122.984 42.2412 123.263 42.4512C123.548 42.6613 123.69 42.9597 123.69 43.3467C123.69 43.7336 123.548 44.0321 123.263 44.2421C122.984 44.4466 122.653 44.5489 122.268 44.5489Z" fill="white"/>
<path d="M124.973 54.7884V45.9832H127.43V49.0178L126.924 48.6861C126.982 48.2716 127.087 47.8902 127.24 47.542C127.393 47.1937 127.59 46.8925 127.833 46.6382C128.075 46.3784 128.362 46.1767 128.694 46.033C129.031 45.8893 129.415 45.8174 129.847 45.8174C130.184 45.8174 130.447 45.8451 130.637 45.9003C130.831 45.9501 130.953 45.9888 131 46.0164L130.597 48.3213C130.55 48.2937 130.444 48.2495 130.281 48.1887C130.118 48.1279 129.907 48.0975 129.649 48.0975C129.228 48.0975 128.875 48.1721 128.591 48.3213C128.306 48.4706 128.077 48.6696 127.904 48.9183C127.735 49.1615 127.614 49.4324 127.54 49.7308C127.467 50.0293 127.43 50.3306 127.43 50.6346V54.7884H124.973Z" fill="white"/>
<path fill-rule="evenodd" clip-rule="evenodd" d="M82.7339 0H45.8548C44.1377 0 42.7376 1.3573 42.7376 3.02109V27.2106C42.7376 28.8755 44.1377 30.2328 45.8548 30.2328H54.386L59.5882 38.1392V25.885C55.2056 24.0989 52.1281 19.8979 52.1281 14.9998C52.1281 10.1016 55.2056 5.90216 59.5882 4.11494V16.0374L61.9454 17.3566L62.9016 17.8922V30.2328H65.7062V17.891L66.6612 17.3566L69.0196 16.0374V4.11494C73.4014 5.90102 76.4801 10.1024 76.4801 14.9998C76.4801 19.8972 73.4014 24.0985 69.0196 25.885V30.2328H82.7335C84.4506 30.2328 85.8511 28.8755 85.8511 27.2106V3.02109C85.8511 1.35768 84.4506 0 82.7335 0" fill="white"/>
</svg>
