<svg width="147" height="46" viewBox="0 0 147 46" fill="none" xmlns="http://www.w3.org/2000/svg">
<path d="M7.9296 30.8113C8.27229 30.8435 8.6617 30.8756 9.09785 30.9078C9.56514 30.9078 10.1103 30.9078 10.7334 30.9078C14.3783 30.9078 17.073 29.9595 18.8176 28.0629C20.5933 26.1663 21.4812 23.5465 21.4812 20.2034C21.4812 16.6995 20.6401 14.0475 18.9578 12.2474C17.2755 10.4472 14.6119 9.54717 10.967 9.54717C10.4686 9.54717 9.95456 9.56324 9.42495 9.59539C8.89535 9.59539 8.3969 9.62753 7.9296 9.69182V30.8113ZM29.0047 20.2034C29.0047 23.0964 28.5686 25.6198 27.6963 27.7736C26.824 29.9273 25.5779 31.7114 23.9579 33.1258C22.3691 34.5402 20.422 35.601 18.1167 36.3082C15.8113 37.0154 13.2256 37.369 10.3595 37.369C9.05112 37.369 7.52461 37.3047 5.78004 37.1761C4.03546 37.0797 2.32204 36.8546 0.639771 36.501V3.95388C2.32204 3.63243 4.06661 3.42348 5.8735 3.32704C7.71153 3.19846 9.28476 3.13417 10.5932 3.13417C13.3658 3.13417 15.8737 3.45563 18.1167 4.09853C20.3909 4.74144 22.3379 5.75402 23.9579 7.13627C25.5779 8.51852 26.824 10.2865 27.6963 12.4403C28.5686 14.594 29.0047 17.1817 29.0047 20.2034Z" fill="white"/>
<path d="M48.0379 17.9371C47.4149 17.7764 46.6828 17.6157 45.8416 17.4549C45.0005 17.2621 44.097 17.1656 43.1313 17.1656C42.6952 17.1656 42.1656 17.2138 41.5425 17.3103C40.9506 17.3746 40.4989 17.4549 40.1873 17.5514V36.935H33.2246V12.9224C34.4707 12.4724 35.9349 12.0545 37.6172 11.6688C39.3306 11.2509 41.231 11.0419 43.3182 11.0419C43.6921 11.0419 44.1438 11.0741 44.6734 11.1384C45.203 11.1705 45.7326 11.2348 46.2622 11.3312C46.7918 11.3955 47.3214 11.492 47.851 11.6205C48.3806 11.717 48.8323 11.8456 49.2062 12.0063L48.0379 17.9371Z" fill="white"/>
<path d="M58.4995 36.935H51.5368V11.5723H58.4995V36.935ZM59.1537 4.24319C59.1537 5.56115 58.7332 6.60587 57.892 7.37736C57.0821 8.1167 56.1163 8.48637 54.9948 8.48637C53.8733 8.48637 52.892 8.1167 52.0508 7.37736C51.2408 6.60587 50.8359 5.56115 50.8359 4.24319C50.8359 2.92523 51.2408 1.89658 52.0508 1.15723C52.892 0.385744 53.8733 0 54.9948 0C56.1163 0 57.0821 0.385744 57.892 1.15723C58.7332 1.89658 59.1537 2.92523 59.1537 4.24319Z" fill="white"/>
<path d="M69.5949 36.935C68.0061 33.7205 66.3861 29.9595 64.735 25.652C63.1151 21.3445 61.573 16.6513 60.1088 11.5723H67.4921C67.8036 12.826 68.1619 14.1922 68.5669 15.6709C69.003 17.1174 69.4391 18.5961 69.8753 20.1069C70.3426 21.5856 70.7943 23.0321 71.2305 24.4465C71.6978 25.8609 72.1495 27.1468 72.5856 28.304C72.9906 27.1468 73.4268 25.8609 73.894 24.4465C74.3613 23.0321 74.8131 21.5856 75.2492 20.1069C75.7165 18.5961 76.1526 17.1174 76.5576 15.6709C76.9938 14.1922 77.3676 12.826 77.6791 11.5723H84.8755C83.4113 16.6513 81.8537 21.3445 80.2026 25.652C78.5826 29.9595 76.9782 33.7205 75.3894 36.935H69.5949Z" fill="white"/>
<path d="M94.1656 36.935H87.2029V11.5723H94.1656V36.935ZM94.8198 4.24319C94.8198 5.56115 94.3992 6.60587 93.5581 7.37736C92.7481 8.1167 91.7824 8.48637 90.6609 8.48637C89.5394 8.48637 88.558 8.1167 87.7169 7.37736C86.9069 6.60587 86.5019 5.56115 86.5019 4.24319C86.5019 2.92523 86.9069 1.89658 87.7169 1.15723C88.558 0.385744 89.5394 0 90.6609 0C91.7824 0 92.7481 0.385744 93.5581 1.15723C94.3992 1.89658 94.8198 2.92523 94.8198 4.24319Z" fill="white"/>
<path d="M99.3088 12.4403C100.493 12.0867 102.019 11.7652 103.888 11.4759C105.757 11.1544 107.72 10.9937 109.776 10.9937C111.863 10.9937 113.592 11.283 114.963 11.8616C116.365 12.4081 117.471 13.1957 118.281 14.2243C119.091 15.253 119.667 16.4745 120.01 17.8889C120.353 19.3033 120.524 20.8784 120.524 22.6143V36.935H113.561V23.4822C113.561 21.1677 113.265 19.5283 112.673 18.5639C112.082 17.5996 110.976 17.1174 109.356 17.1174C108.857 17.1174 108.328 17.1495 107.767 17.2138C107.206 17.246 106.708 17.2942 106.272 17.3585V36.935H99.3088V12.4403Z" fill="white"/>
<path d="M131.359 23.434C131.359 27.4521 132.932 29.4612 136.079 29.4612C136.795 29.4612 137.465 29.3648 138.088 29.1719C138.711 28.979 139.241 28.754 139.677 28.4969V17.021C139.334 16.9567 138.929 16.9085 138.462 16.8763C137.995 16.812 137.45 16.7799 136.827 16.7799C134.988 16.7799 133.618 17.4067 132.714 18.6604C131.811 19.914 131.359 21.5052 131.359 23.434ZM146.64 33.7526C146.64 37.8994 145.612 40.9693 143.556 42.9623C141.531 44.9874 138.384 46 134.116 46C132.621 46 131.126 45.8554 129.63 45.566C128.135 45.3089 126.748 44.9553 125.471 44.5052L126.686 38.478C127.777 38.928 128.914 39.2816 130.097 39.5388C131.312 39.796 132.683 39.9245 134.21 39.9245C136.203 39.9245 137.605 39.4745 138.415 38.5744C139.256 37.6744 139.677 36.5171 139.677 35.1027V34.1866C138.929 34.5402 138.151 34.8134 137.341 35.0063C136.562 35.167 135.705 35.2474 134.77 35.2474C131.375 35.2474 128.773 34.2187 126.967 32.1614C125.16 30.072 124.256 27.1628 124.256 23.434C124.256 21.5695 124.537 19.8819 125.097 18.3711C125.658 16.8281 126.468 15.5101 127.527 14.4172C128.618 13.3242 129.942 12.4885 131.499 11.9099C133.057 11.2991 134.817 10.9937 136.78 10.9937C137.621 10.9937 138.478 11.0419 139.35 11.1384C140.253 11.2027 141.141 11.2991 142.014 11.4277C142.886 11.5563 143.711 11.717 144.49 11.9099C145.3 12.0706 146.017 12.2474 146.64 12.4403V33.7526Z" fill="white"/>
</svg>
