<svg width="159" height="36" viewBox="0 0 159 36" fill="none" xmlns="http://www.w3.org/2000/svg">
<path d="M69.2445 5.37563C69.7958 5.95454 70.6367 6.244 71.7669 6.244C72.8972 6.244 73.7242 5.95454 74.248 5.37563C74.7717 4.76915 75.0336 4.02483 75.0336 3.14267C75.0336 2.20539 74.7717 1.44728 74.248 0.868371C73.7242 0.289456 72.8972 0 71.7669 0C70.6367 0 69.7958 0.289456 69.2445 0.868371C68.7207 1.44728 68.4588 2.20539 68.4588 3.14267C68.4588 4.02483 68.7207 4.76915 69.2445 5.37563Z" fill="#181818"/>
<path d="M42.9944 8.93181L50.0241 31.3854H59.2454L65.324 8.93181H59.7829L55.2092 26.6714H54.2328L48.9076 8.93181H42.9944Z" fill="#181818"/>
<path d="M88.1086 32.0883C85.0211 32.0883 82.5952 31.4405 80.8308 30.1449C79.0941 28.8216 78.1844 27.0022 78.1017 24.6865H83.2706C83.3533 25.4584 83.7805 26.1614 84.5524 26.7954C85.3243 27.4295 86.5373 27.7465 88.1913 27.7465C89.5697 27.7465 90.6586 27.4984 91.458 27.0022C92.2851 26.506 92.6986 25.8306 92.6986 24.976C92.6986 24.2317 92.3815 23.639 91.7475 23.1979C91.141 22.7568 90.0935 22.4674 88.6048 22.3295L86.62 22.1228C84.1114 21.8471 82.1816 21.1303 80.8308 19.9725C79.48 18.8147 78.8046 17.2709 78.8046 15.3412C78.8046 13.7974 79.1906 12.5018 79.9625 11.4542C80.7344 10.4067 81.7957 9.62099 83.1465 9.09721C84.5249 8.54587 86.0962 8.27019 87.8605 8.27019C90.6172 8.27019 92.8502 8.87667 94.5594 10.0896C96.2685 11.3026 97.1645 13.0807 97.2472 15.4239H92.0783C92.0232 14.652 91.6372 13.9904 90.9205 13.4391C90.2037 12.8877 89.17 12.612 87.8192 12.612C86.6062 12.612 85.6689 12.8464 85.0073 13.315C84.3457 13.7837 84.0149 14.3901 84.0149 15.1345C84.0149 15.8512 84.2768 16.4025 84.8005 16.7885C85.3519 17.1744 86.234 17.4363 87.447 17.5742L89.4319 17.7809C92.0783 18.0566 94.1459 18.7871 95.6345 19.9725C97.1507 21.1579 97.9088 22.7568 97.9088 24.7692C97.9088 26.2579 97.4953 27.5535 96.6683 28.6562C95.8688 29.7313 94.7386 30.5721 93.2775 31.1786C91.8164 31.7851 90.0935 32.0883 88.1086 32.0883Z" fill="#181818"/>
<path d="M101.251 5.37563C101.802 5.95454 102.643 6.244 103.774 6.244C104.904 6.244 105.731 5.95454 106.255 5.37563C106.778 4.76915 107.04 4.02483 107.04 3.14267C107.04 2.20539 106.778 1.44728 106.255 0.868371C105.731 0.289456 104.904 0 103.774 0C102.643 0 101.802 0.289456 101.251 0.868371C100.727 1.44728 100.465 2.20539 100.465 3.14267C100.465 4.02483 100.727 4.76915 101.251 5.37563Z" fill="#181818"/>
<path fill-rule="evenodd" clip-rule="evenodd" d="M122.762 32.1711C120.777 32.1711 119.026 31.854 117.51 31.22C115.994 30.5859 114.712 29.7313 113.664 28.6562C112.617 27.5535 111.817 26.313 111.266 24.9346C110.742 23.5563 110.48 22.1228 110.48 20.6341V19.7658C110.48 18.222 110.756 16.7609 111.307 15.3826C111.886 13.9766 112.7 12.7361 113.747 11.661C114.822 10.5583 116.118 9.70369 117.634 9.09721C119.15 8.46316 120.86 8.14614 122.762 8.14614C124.664 8.14614 126.373 8.46316 127.889 9.09721C129.405 9.70369 130.687 10.5583 131.735 11.661C132.81 12.7361 133.623 13.9766 134.175 15.3826C134.726 16.7609 135.002 18.222 135.002 19.7658V20.6341C135.002 22.1228 134.726 23.5563 134.175 24.9346C133.651 26.313 132.865 27.5535 131.818 28.6562C130.77 29.7313 129.488 30.5859 127.972 31.22C126.456 31.854 124.719 32.1711 122.762 32.1711ZM122.762 27.2503C124.168 27.2503 125.353 26.947 126.318 26.3406C127.283 25.7065 128.013 24.8657 128.509 23.8182C129.006 22.743 129.254 21.5301 129.254 20.1793C129.254 18.8009 128.992 17.5879 128.468 16.5404C127.972 15.4653 127.228 14.6245 126.235 14.018C125.27 13.3839 124.112 13.0669 122.762 13.0669C121.411 13.0669 120.239 13.3839 119.247 14.018C118.282 14.6245 117.538 15.4653 117.014 16.5404C116.49 17.5879 116.228 18.8009 116.228 20.1793C116.228 21.5301 116.476 22.743 116.973 23.8182C117.496 24.8657 118.241 25.7065 119.206 26.3406C120.17 26.947 121.356 27.2503 122.762 27.2503Z" fill="#181818"/>
<path d="M143.012 12.8602C142.814 13.3541 142.649 13.8891 142.516 14.465V8.93181H137.967V31.3854H143.715V18.1944C143.715 16.7334 144.142 15.5755 144.997 14.7209C145.879 13.8388 147.023 13.3977 148.429 13.3977C149.807 13.3977 150.882 13.825 151.654 14.6796C152.454 15.5342 152.853 16.6507 152.853 18.029V31.3854H158.601V18.5252C158.601 15.1069 157.912 12.5431 156.533 10.834C155.155 9.09721 153.129 8.22884 150.455 8.22884H150.207C148.415 8.22884 146.912 8.61478 145.7 9.38667C144.514 10.1586 143.618 11.3164 143.012 12.8602Z" fill="#181818"/>
<path d="M69.658 13.2323V31.3854H75.4058V8.93181H66.5153V13.2323H69.658Z" fill="#181818"/>
<path d="M101.665 13.2323V31.3854H107.412V8.93181H98.522V13.2323H101.665Z" fill="#181818"/>
<mask id="path-2-inside-1_11_13330" fill="white">
<path fill-rule="evenodd" clip-rule="evenodd" d="M18.1346 36C28.0757 36 36.1346 27.9411 36.1346 18C36.1346 8.05887 28.0757 0 18.1346 0C8.19346 0 0.134583 8.05887 0.134583 18C0.134583 27.9411 8.19346 36 18.1346 36ZM31.3819 16.1318C29.7034 18.0944 27.3393 19.3167 24.72 19.3167C19.6282 19.3167 15.5005 14.6976 15.5005 8.99967C15.5005 7.56614 15.7618 6.2009 16.2339 4.96033C9.85345 5.92939 4.96417 11.4385 4.96417 18.0896C4.96417 20.0302 5.3804 21.8736 6.12845 23.5353C6.88728 22.8293 7.95375 22.39 9.1349 22.39C11.4383 22.39 13.3056 24.0608 13.3056 26.1217C13.3056 27.5057 12.4637 28.7136 11.2131 29.3579C13.2522 30.6331 15.6624 31.3701 18.2447 31.3701C25.5793 31.3701 31.5252 25.4242 31.5252 18.0896C31.5252 17.4244 31.4763 16.7707 31.3819 16.1318Z"/>
</mask>
<path fill-rule="evenodd" clip-rule="evenodd" d="M18.1346 36C28.0757 36 36.1346 27.9411 36.1346 18C36.1346 8.05887 28.0757 0 18.1346 0C8.19346 0 0.134583 8.05887 0.134583 18C0.134583 27.9411 8.19346 36 18.1346 36ZM31.3819 16.1318C29.7034 18.0944 27.3393 19.3167 24.72 19.3167C19.6282 19.3167 15.5005 14.6976 15.5005 8.99967C15.5005 7.56614 15.7618 6.2009 16.2339 4.96033C9.85345 5.92939 4.96417 11.4385 4.96417 18.0896C4.96417 20.0302 5.3804 21.8736 6.12845 23.5353C6.88728 22.8293 7.95375 22.39 9.1349 22.39C11.4383 22.39 13.3056 24.0608 13.3056 26.1217C13.3056 27.5057 12.4637 28.7136 11.2131 29.3579C13.2522 30.6331 15.6624 31.3701 18.2447 31.3701C25.5793 31.3701 31.5252 25.4242 31.5252 18.0896C31.5252 17.4244 31.4763 16.7707 31.3819 16.1318Z" fill="#181818"/>
<path d="M31.3819 16.1318L34.0267 15.741L33.168 9.92941L29.35 14.3942L31.3819 16.1318ZM16.2339 4.96033L18.7326 5.9113L20.3624 1.62909L15.8325 2.31709L16.2339 4.96033ZM6.12845 23.5353L3.69053 24.6328L5.22054 28.0316L7.94952 25.4927L6.12845 23.5353ZM11.2131 29.3579L9.98862 26.9813L5.81143 29.1333L9.79556 31.6247L11.2131 29.3579ZM33.461 18C33.461 26.4646 26.5991 33.3265 18.1346 33.3265V38.6735C29.5523 38.6735 38.8081 29.4177 38.8081 18H33.461ZM18.1346 2.67355C26.5991 2.67355 33.461 9.53543 33.461 18H38.8081C38.8081 6.58232 29.5523 -2.67355 18.1346 -2.67355V2.67355ZM2.80813 18C2.80813 9.53543 9.67002 2.67355 18.1346 2.67355V-2.67355C6.7169 -2.67355 -2.53896 6.58232 -2.53896 18H2.80813ZM18.1346 33.3265C9.67002 33.3265 2.80813 26.4646 2.80813 18H-2.53896C-2.53896 29.4177 6.7169 38.6735 18.1346 38.6735V33.3265ZM24.72 21.9903C28.2073 21.9903 31.2864 20.357 33.4137 17.8693L29.35 14.3942C28.1205 15.8319 26.4713 16.6432 24.72 16.6432V21.9903ZM12.827 8.99967C12.827 15.8835 17.8768 21.9903 24.72 21.9903V16.6432C21.3796 16.6432 18.174 13.5118 18.174 8.99967H12.827ZM13.7352 4.00935C13.1477 5.55306 12.827 7.24052 12.827 8.99967H18.174C18.174 7.89176 18.3758 6.84875 18.7326 5.9113L13.7352 4.00935ZM7.63772 18.0896C7.63772 12.7799 11.5417 8.37718 16.6354 7.60356L15.8325 2.31709C8.16517 3.4816 2.29063 10.0971 2.29063 18.0896H7.63772ZM8.56637 22.4379C7.97058 21.1143 7.63772 19.6444 7.63772 18.0896H2.29063C2.29063 20.4159 2.79022 22.6328 3.69053 24.6328L8.56637 22.4379ZM9.1349 19.7165C7.29201 19.7165 5.57106 20.4022 4.30738 21.5779L7.94952 25.4927C8.2035 25.2565 8.6155 25.0636 9.1349 25.0636V19.7165ZM15.9792 26.1217C15.9792 22.3123 12.6275 19.7165 9.1349 19.7165V25.0636C9.64096 25.0636 10.0458 25.2468 10.3014 25.4755C10.5522 25.6999 10.6321 25.9325 10.6321 26.1217H15.9792ZM12.4375 31.7346C14.4403 30.7028 15.9792 28.6528 15.9792 26.1217H10.6321C10.6321 26.3586 10.4871 26.7244 9.98862 26.9813L12.4375 31.7346ZM18.2447 28.6965C16.1781 28.6965 14.2571 28.1082 12.6306 27.0911L9.79556 31.6247C12.2473 33.1579 15.1467 34.0436 18.2447 34.0436V28.6965ZM28.8516 18.0896C28.8516 23.9476 24.1027 28.6965 18.2447 28.6965V34.0436C27.0558 34.0436 34.1987 26.9008 34.1987 18.0896H28.8516ZM28.737 16.5225C28.8124 17.0325 28.8516 17.5556 28.8516 18.0896H34.1987C34.1987 17.2932 34.1401 16.5089 34.0267 15.741L28.737 16.5225Z" fill="#181818" mask="url(#path-2-inside-1_11_13330)"/>
</svg>
