<svg width="170" height="76" viewBox="0 0 170 76" fill="none" xmlns="http://www.w3.org/2000/svg">
<path opacity="0.8" d="M48.7251 34.0348H58.4208L48.7251 19.3729H39.0293L48.7251 34.0348Z" fill="#9CA3AF"/>
<path opacity="0.9" d="M38.7984 34.0348H29.1026L38.7984 19.3729H48.4941L38.7984 34.0348Z" fill="#9CA3AF"/>
<path opacity="0.6" d="M48.7285 48.697L48.7285 34.0351L58.4243 34.0351L58.4243 48.697L48.7285 48.697Z" fill="#9CA3AF"/>
<path d="M29.0996 48.697L29.0996 34.0351L38.7954 34.0351L38.7954 48.697L29.0996 48.697Z" fill="#9CA3AF"/>
<path d="M83.2125 28.7636V48.7155H79.2107V40.226H70.6639V48.7155H66.6621V28.7636H70.6639V36.9673H79.2107V28.7636H83.2125Z" fill="#9CA3AF"/>
<path d="M93.0397 48.9728C91.5152 48.9728 90.1432 48.6393 88.9236 47.9724C87.704 47.2863 86.7416 46.324 86.0365 45.0853C85.3505 43.8467 85.0075 42.4174 85.0075 40.7977C85.0075 39.1779 85.36 37.7487 86.0651 36.51C86.7893 35.2713 87.7707 34.3185 89.0093 33.6515C90.248 32.9655 91.6296 32.6225 93.1541 32.6225C94.6786 32.6225 96.0602 32.9655 97.2988 33.6515C98.5375 34.3185 99.5093 35.2713 100.214 36.51C100.939 37.7487 101.301 39.1779 101.301 40.7977C101.301 42.4174 100.929 43.8467 100.186 45.0853C99.4617 46.324 98.4708 47.2863 97.2131 47.9724C95.9744 48.6393 94.5833 48.9728 93.0397 48.9728ZM93.0397 45.4855C93.7639 45.4855 94.4404 45.314 95.0692 44.971C95.7171 44.6089 96.2317 44.0753 96.6128 43.3703C96.9939 42.6652 97.1845 41.8076 97.1845 40.7977C97.1845 39.2922 96.7843 38.1393 95.9839 37.3389C95.2026 36.5195 94.2403 36.1098 93.0969 36.1098C91.9535 36.1098 90.9912 36.5195 90.2099 37.3389C89.4476 38.1393 89.0665 39.2922 89.0665 40.7977C89.0665 42.3031 89.4381 43.4655 90.1813 44.285C90.9435 45.0853 91.8964 45.4855 93.0397 45.4855Z" fill="#9CA3AF"/>
<path d="M122.759 32.6511C124.703 32.6511 126.265 33.2514 127.447 34.4519C128.647 35.6334 129.247 37.2913 129.247 39.4256V48.7155H125.246V39.9687C125.246 38.7301 124.931 37.7868 124.302 37.1388C123.674 36.4719 122.816 36.1384 121.73 36.1384C120.644 36.1384 119.777 36.4719 119.129 37.1388C118.5 37.7868 118.185 38.7301 118.185 39.9687V48.7155H114.184V39.9687C114.184 38.7301 113.869 37.7868 113.24 37.1388C112.611 36.4719 111.754 36.1384 110.668 36.1384C109.562 36.1384 108.686 36.4719 108.038 37.1388C107.409 37.7868 107.095 38.7301 107.095 39.9687V48.7155H103.093V32.8798H107.095V34.7949C107.609 34.128 108.267 33.6039 109.067 33.2228C109.886 32.8417 110.782 32.6511 111.754 32.6511C112.992 32.6511 114.098 32.9179 115.07 33.4515C116.041 33.966 116.794 34.7092 117.328 35.681C117.842 34.7663 118.586 34.0327 119.557 33.48C120.548 32.9274 121.615 32.6511 122.759 32.6511Z" fill="#9CA3AF"/>
<path d="M146.623 40.4546C146.623 41.0263 146.584 41.5409 146.508 41.9982H134.932C135.027 43.1416 135.427 44.0372 136.132 44.6851C136.837 45.3331 137.704 45.657 138.733 45.657C140.22 45.657 141.277 45.0186 141.906 43.7419H146.222C145.765 45.2664 144.888 46.5241 143.593 47.515C142.297 48.4869 140.706 48.9728 138.819 48.9728C137.295 48.9728 135.922 48.6393 134.703 47.9724C133.502 47.2863 132.559 46.324 131.873 45.0853C131.206 43.8467 130.873 42.4174 130.873 40.7977C130.873 39.1588 131.206 37.7201 131.873 36.4814C132.54 35.2427 133.474 34.2899 134.674 33.623C135.875 32.956 137.256 32.6225 138.819 32.6225C140.324 32.6225 141.668 32.9465 142.849 33.5944C144.05 34.2423 144.974 35.1665 145.622 36.3671C146.289 37.5486 146.623 38.9111 146.623 40.4546ZM142.478 39.3113C142.459 38.2822 142.087 37.4628 141.363 36.853C140.639 36.2241 139.753 35.9097 138.705 35.9097C137.714 35.9097 136.875 36.2146 136.189 36.8244C135.522 37.4152 135.113 38.2441 134.96 39.3113H142.478Z" fill="#9CA3AF"/>
<path d="M163.55 32.8798L153.745 56.2047H149.486L152.917 48.3154L146.571 32.8798H151.059L155.146 43.9419L159.291 32.8798H163.55Z" fill="#9CA3AF"/>
</svg>
