<svg width="139" height="28" viewBox="0 0 139 28" fill="none" xmlns="http://www.w3.org/2000/svg">
<path d="M44.416 6.30173L44.7265 6.42116L44.8501 6.11227L44.9565 5.84626L45.0893 5.51427L44.7501 5.40119C42.9098 4.78775 41.0915 4.47944 39.2966 4.47944C37.5126 4.47944 36.1117 4.89752 35.1567 5.79318C34.2119 6.66153 33.7455 7.80113 33.7455 9.17924C33.7455 10.922 34.4746 12.2873 35.9172 13.2371C36.5361 13.6556 37.2165 14.0364 37.9577 14.3798L37.9577 14.3799L37.964 14.3826C38.6922 14.7024 39.4117 15.0133 40.1223 15.3153L40.1251 15.3164C40.8393 15.6126 41.4899 15.9337 42.0778 16.2795C43.3358 17.0244 43.9339 18.0291 43.9339 19.3144C43.9339 20.5024 43.4711 21.3772 42.5437 21.985C41.5974 22.599 40.4407 22.9143 39.0571 22.9143C38.1163 22.9143 37.1927 22.7777 36.2854 22.5042C35.3917 22.2117 34.6773 21.847 34.1317 21.4171L33.8364 21.1845L33.6371 21.5033L33.5041 21.7161L33.3347 21.9873L33.5965 22.1708C35.2047 23.2984 37.137 23.8546 39.3764 23.8546C40.5712 23.8546 41.6256 23.719 42.5342 23.4408L42.5342 23.4409L42.5383 23.4396C43.4931 23.134 44.3014 22.5609 44.9605 21.7322C45.5416 21.0018 45.8679 20.1448 45.9463 19.173V23.4909V23.828H46.2834H48.1455H48.4827V23.4909V14.0473C48.4827 13.4778 48.8517 12.763 49.7382 11.8939L49.7406 11.8916C50.5906 11.0416 51.5275 10.6337 52.5614 10.6337C53.0728 10.6337 53.4786 10.7158 53.7922 10.8634C54.3444 11.1641 54.6982 11.8878 54.6982 13.2493V21.6022V21.6121L54.6988 21.622L54.7253 22.0731C54.7253 22.0733 54.7253 22.0734 54.7253 22.0736C54.7505 22.5235 55.0224 22.9206 55.4277 23.268L55.4277 23.2681L55.4337 23.273C55.9057 23.6592 56.5517 23.828 57.3231 23.828H58.9457H59.2829V23.4909V23.2781V22.9409H58.9457H58.1515L57.8888 22.8931L57.8727 22.8902L57.8565 22.8889C57.7795 22.8825 57.6456 22.8258 57.4613 22.5985C57.3233 22.3921 57.2346 22.0726 57.2346 21.6022V13.2759C57.2346 12.3482 56.9969 11.5586 56.4948 10.9361L56.4949 10.9361L56.4903 10.9306C56.1485 10.5247 55.628 10.2414 54.9739 10.0537C54.3253 9.84485 53.4991 9.74655 52.5082 9.74655C51.4483 9.74655 50.4787 10.1149 49.6084 10.8332C49.164 11.1909 48.7875 11.5681 48.4827 11.9655V10.1901V9.85295H48.1455H46.2834H45.9463V10.1901V18.1004C45.8893 17.2095 45.7009 16.4415 45.3684 15.8075C44.9734 15.0368 44.45 14.424 43.7949 13.9809C43.1736 13.5606 42.4905 13.1874 41.7464 12.8608C41.0125 12.5386 40.2781 12.2519 39.5433 12.0008C38.8467 11.7394 38.2041 11.4614 37.615 11.167C36.3565 10.5036 35.7765 9.60487 35.7765 8.461C35.7765 7.49479 36.132 6.76412 36.8396 6.22946C37.5591 5.68583 38.5864 5.39315 39.9616 5.39315C41.3492 5.39315 42.8332 5.69294 44.416 6.30173ZM59.4609 11.6808L59.4592 11.6825C58.1745 12.9861 57.5533 14.8013 57.5533 17.0799C57.5533 19.3524 58.154 21.1004 59.4193 22.2507C60.6626 23.3809 62.2648 23.9344 64.195 23.9344C66.1554 23.9344 67.7877 23.293 69.0632 21.9991C70.3658 20.6958 70.9963 18.8803 70.9963 16.6011C70.9963 14.3286 70.3956 12.5806 69.1302 11.4303C67.8864 10.2995 66.275 9.74655 64.328 9.74655C62.384 9.74655 60.7529 10.3888 59.4609 11.6808ZM61.2996 12.3071L61.301 12.3051C62.1323 11.1746 63.1536 10.6337 64.3812 10.6337C65.6293 10.6337 66.6126 11.1034 67.3624 12.0489C68.1092 12.9905 68.5131 14.4867 68.5131 16.6011C68.5131 18.6862 68.0783 20.2735 67.2492 21.4016C66.4189 22.5136 65.3977 23.0473 64.1684 23.0473C62.9203 23.0473 61.937 22.5776 61.1871 21.6321C60.4401 20.6901 60.0365 19.2024 60.0365 17.1065C60.0365 15.002 60.4719 13.4161 61.2996 12.3071ZM88.7305 10.1113L88.4843 10.3575L88.7383 10.5957C88.9341 10.7792 89.0574 11.0676 89.0574 11.5202C89.0574 11.9875 88.961 12.3708 88.7826 12.683L88.7753 12.6957L88.7692 12.7089L85.2527 20.3241L81.4643 10.0732L81.3829 9.85295H81.1481H79.2859H78.8034L78.9694 10.3061L79.9058 12.8623L76.4736 20.3226L72.6858 10.0732L72.6044 9.85295H72.3695H70.5074H70.0223L70.1914 10.3077L75.1393 23.6084L75.221 23.828H75.4553H75.7213H75.9384L76.0282 23.6304L80.372 14.0791L83.9179 23.6084L83.9996 23.828H84.2338H84.4999H84.7169L84.8067 23.6305L89.6482 12.9899L89.6483 12.9899L89.6512 12.9831C89.8797 12.4499 89.9977 11.9172 89.9977 11.3872C89.9977 11.2369 89.9771 11.0824 89.9389 10.9247C89.9084 10.7185 89.8102 10.5173 89.6776 10.3258C89.6213 10.2328 89.5646 10.1495 89.5072 10.0807C89.4521 10.0145 89.3765 9.93715 89.2793 9.88855L89.062 9.77988L88.8901 9.9517L88.7305 10.1113Z" fill="white" stroke="white" stroke-width="0.674298"/>
<path d="M94.0813 5.18693C94.5093 4.53055 95.1759 4.01631 96.0906 3.9008L95.859 21.784H95.859V21.7883C95.859 21.9991 95.9242 22.2113 96.0276 22.4179C96.5255 23.4137 97.6891 23.828 99.2819 23.828H100.107H100.444V23.4908V23.278V22.9409H100.107H99.3123L99.0496 22.8931L99.0335 22.8902L99.0173 22.8888C98.9403 22.8824 98.8064 22.8257 98.6221 22.5985C98.4842 22.392 98.3954 22.0725 98.3954 21.6021V3.56628V3.2346L98.0637 3.22917L96.4379 3.20257L96.0997 3.19703L96.0995 3.21002C94.3604 3.27314 93.0216 3.70804 92.1519 4.57687C91.2228 5.48713 90.8016 6.97367 90.8016 8.93979V9.85291H90.5801H90.2429V10.1901V10.6199V10.957H90.5801H90.8016V23.4908V23.828H91.1387H93.0008H93.338V23.4908V10.957H95.1023H95.4395V10.6199V10.1901V9.85291H95.1023H93.338V8.93979C93.338 7.12877 93.6049 5.90145 94.0794 5.18977L94.0794 5.18978L94.0813 5.18693ZM107.826 12.7799V16.7431C107.525 16.7251 107.203 16.7161 106.86 16.7161C106.37 16.7161 105.838 16.7432 105.264 16.7969C104.11 16.8687 103.146 17.0037 102.378 17.2061C101.614 17.4073 101.013 17.6831 100.616 18.0588C100.261 18.3948 100.005 18.7398 99.9103 19.0945C99.8332 19.3836 99.7925 19.6613 99.7925 19.9262C99.7925 20.1569 99.8116 20.3873 99.8498 20.6172C100.01 21.6882 100.434 22.5318 101.15 23.1027C101.863 23.6709 102.822 23.9344 103.987 23.9344C104.991 23.9344 105.878 23.7272 106.634 23.2987C107.123 23.0214 107.549 22.6558 107.914 22.2061C108.032 22.4915 108.258 22.7703 108.537 23.0381C109.082 23.6001 110.028 23.828 111.249 23.828H112.074H112.136H112.411H112.473H114.335H114.673V23.4908V17.2061L115.021 16.8063L119.696 23.6804L119.797 23.828H119.975H121.837H122.474L122.116 23.3012L116.544 15.112L120.706 10.4136L121.203 9.85291H120.454H120.188H120.036L119.936 9.96632L114.673 15.8991V3.53967V3.20252H114.335H112.473H112.136V3.53967V22.9409H112.074H111.279L111.017 22.8931L111.001 22.8902L110.984 22.8888C110.907 22.8824 110.774 22.8257 110.589 22.5985C110.451 22.392 110.363 22.0725 110.363 21.6021V12.6906C110.363 12.023 110.089 11.4052 109.585 10.8432C109.234 10.4501 108.719 10.1786 108.079 10.0044C107.437 9.8298 106.647 9.7465 105.716 9.7465C104.033 9.7465 102.38 10.122 100.76 10.8681L100.426 11.0221L100.608 11.3416L100.715 11.5278L100.881 11.8192L101.173 11.654C101.543 11.4452 102.148 11.2234 103.009 10.9948L103.009 10.9948L103.014 10.9935C103.882 10.7505 104.621 10.6336 105.237 10.6336C105.867 10.6336 106.348 10.7194 106.699 10.8717L106.699 10.8719L106.71 10.8764C107.088 11.0243 107.302 11.1872 107.407 11.3396C107.551 11.5474 107.661 11.7606 107.739 11.9794L107.744 11.9936L107.751 12.0072C107.841 12.2021 107.847 12.3166 107.835 12.375C107.816 12.453 107.8 12.5379 107.8 12.6175C107.8 12.6577 107.803 12.7169 107.826 12.7799ZM106.72 22.1709C106.033 22.7594 105.268 23.0473 104.412 23.0473C103.785 23.0473 103.335 22.844 103.015 22.4627C102.683 22.0676 102.458 21.4416 102.381 20.5361L102.381 20.5361L102.38 20.5311C102.364 20.3622 102.355 20.2141 102.355 20.0858C102.355 19.3644 102.543 18.8431 102.878 18.4786C103.029 18.3146 103.292 18.1521 103.704 18.0106C104.112 17.8704 104.643 17.759 105.302 17.6808C105.768 17.6291 106.234 17.6032 106.7 17.6032C107.081 17.6032 107.456 17.6138 107.826 17.635V20.5223C107.779 20.992 107.45 21.5426 106.72 22.1709ZM123.619 15.8475H132.81H133.147V15.5104V15.5098V15.5093V15.5088V15.5083V15.5078V15.5073V15.5067V15.5062V15.5057V15.5052V15.5047V15.5041V15.5036V15.5031V15.5026V15.5021V15.5015V15.501V15.5005V15.5V15.4995V15.4989V15.4984V15.4979V15.4974V15.4969V15.4963V15.4958V15.4953V15.4948V15.4943V15.4937V15.4932V15.4927V15.4922V15.4917V15.4911V15.4906V15.4901V15.4896V15.4891V15.4885V15.488V15.4875V15.487V15.4865V15.4859V15.4854V15.4849V15.4844V15.4839V15.4834V15.4828V15.4823V15.4818V15.4813V15.4808V15.4802V15.4797V15.4792V15.4787V15.4782V15.4776V15.4771V15.4766V15.4761V15.4756V15.475V15.4745V15.474V15.4735V15.473V15.4724V15.4719V15.4714V15.4709V15.4704V15.4698V15.4693V15.4688V15.4683V15.4678V15.4672V15.4667V15.4662V15.4657V15.4652V15.4646V15.4641V15.4636V15.4631V15.4626V15.462V15.4615V15.461V15.4605V15.46V15.4595V15.4589V15.4584V15.4579V15.4574V15.4569V15.4563V15.4558V15.4553V15.4548V15.4543V15.4537V15.4532V15.4527V15.4522V15.4517V15.4511V15.4506V15.4501V15.4496V15.4491V15.4485V15.448V15.4475V15.447V15.4465V15.4459V15.4454V15.4449V15.4444V15.4439V15.4433V15.4428V15.4423V15.4418V15.4413V15.4407V15.4402V15.4397V15.4392V15.4387V15.4381V15.4376V15.4371V15.4366V15.4361V15.4356V15.435V15.4345V15.434V15.4335V15.433V15.4324V15.4319V15.4314V15.4309V15.4304V15.4298V15.4293V15.4288V15.4283V15.4278V15.4272V15.4267V15.4262V15.4257V15.4252V15.4246V15.4241V15.4236V15.4231V15.4226V15.422V15.4215V15.421V15.4205V15.42V15.4194V15.4189V15.4184V15.4179V15.4174V15.4168V15.4163V15.4158V15.4153V15.4148V15.4142V15.4137V15.4132V15.4127V15.4122V15.4117V15.4111V15.4106V15.4101V15.4096V15.4091V15.4085V15.408V15.4075V15.407V15.4065V15.4059V15.4054V15.4049V15.4044V15.4039V15.4033V15.4028V15.4023V15.4018V15.4013V15.4007V15.4002V15.3997V15.3992V15.3987V15.3981V15.3976V15.3971V15.3966V15.3961V15.3955V15.395V15.3945V15.394V15.3935V15.3929V15.3924V15.3919V15.3914V15.3909V15.3904V15.3898V15.3893V15.3888V15.3883V15.3878V15.3872V15.3867V15.3862V15.3857V15.3852V15.3846V15.3841V15.3836V15.3831V15.3826V15.382V15.3815V15.381V15.3805V15.38V15.3794V15.3789V15.3784V15.3779V15.3774V15.3768V15.3763V15.3758V15.3753V15.3748V15.3742V15.3737V15.3732V15.3727V15.3722V15.3716V15.3711V15.3706V15.3701V15.3696V15.369V15.3685V15.368V15.3675V15.367V15.3665V15.3659V15.3654V15.3649V15.3644V15.3639V15.3633V15.3628V15.3623V15.3618V15.3613V15.3607V15.3602V15.3597V15.3592V15.3587V15.3581V15.3576V15.3571V15.3566V15.3561V15.3555V15.355V15.3545V15.354V15.3535V15.3529V15.3524V15.3519V15.3514V15.3509V15.3503V15.3498V15.3493V15.3488V15.3483V15.3477V15.3472V15.3467V15.3462V15.3457V15.3451V15.3446V15.3441V15.3436V15.3431V15.3426V15.342V15.3415V15.341V15.3405V15.34V15.3394V15.3389V15.3384V15.3379V15.3374V15.3368V15.3363V15.3358V15.3353V15.3348V15.3342V15.3337V15.3332V15.3327V15.3322V15.3316V15.3311V15.3306V15.3301V15.3296V15.329V15.3285V15.328V15.3275V15.327V15.3264V15.3259V15.3254V15.3249V15.3244V15.3238V15.3233V15.3228V15.3223V15.3218V15.3212V15.3207V15.3202V15.3197V15.3192V15.3187V15.3181V15.3176V15.3171V15.3166V15.3161V15.3155V15.315V15.3145V15.314V15.3135V15.3129V15.3124V15.3119V15.3114V15.3109V15.3103V15.3098V15.3093V15.3088V15.3083V15.3077V15.3072V15.3067V15.3062V15.3057V15.3051V15.3046V15.3041V15.3036V15.3031V15.3025V15.302V15.3015V15.301V15.3005V15.2999V15.2994V15.2989V15.2984V15.2979V15.2973V15.2968V15.2963V15.2958V15.2953V15.2948V15.2942V15.2937V15.2932V15.2927V15.2922V15.2916V15.2911V15.2906V15.2901V15.2896V15.289V15.2885V15.288V15.2875V15.287V15.2864V15.2859V15.2854V15.2849V15.2844V15.2838V15.2833V15.2828V15.2823V15.2818V15.2812V15.2807V15.2802V15.2797V15.2792V15.2786V15.2781V15.2776V15.2771V15.2766V15.276V15.2755V15.275V15.2745V15.274V15.2734V15.2729V15.2724V15.2719V15.2714V15.2709V15.2703V15.2698V15.2693V15.2688V15.2683V15.2677V15.2672V15.2667V15.2662V15.2657V15.2651V15.2646V15.2641V15.2636V15.2631V15.2625V15.262V15.2615V15.261V15.2605V15.2599V15.2594V15.2589V15.2584V15.2579V15.2573V15.2568V15.2563V15.2558V15.2553V15.2547V15.2542V15.2537V15.2532V15.2527V15.2521V15.2516V15.2511V15.2506V15.2501V15.2495V15.249V15.2485V15.248V15.2475V15.247V15.2464V15.2459V15.2454V15.2449V15.2444C133.147 13.4748 132.628 12.0839 131.542 11.1334C130.481 10.205 129.176 9.7465 127.649 9.7465C125.755 9.7465 124.175 10.3911 122.936 11.6861C121.689 12.99 121.087 14.804 121.087 17.0799C121.087 19.3481 121.659 21.0941 122.868 22.2453C124.057 23.378 125.59 23.9344 127.436 23.9344C129.262 23.9344 130.909 23.6542 132.373 23.087L132.699 22.9608L132.561 22.6398L132.481 22.4536L132.353 22.1552L132.05 22.2717C130.712 22.7863 129.176 23.0473 127.436 23.0473C126.286 23.0473 125.365 22.5853 124.647 21.6393C123.949 20.6973 123.57 19.1722 123.57 17.0001C123.57 16.6044 123.587 16.2202 123.619 15.8475ZM129.751 11.7279C130.283 12.4077 130.6 13.4687 130.656 14.9604H123.733C123.964 13.6318 124.42 12.6028 125.081 11.8508C125.827 11.022 126.645 10.6336 127.543 10.6336C128.447 10.6336 129.175 10.9914 129.751 11.7279Z" fill="white" stroke="white" stroke-width="0.674298"/>
<path d="M135.265 3.26043V3.96321H134.466V6.10136H133.707V3.96321H132.908V3.26043H135.265Z" fill="white"/>
<path d="M138.379 3.21783V6.11414H137.621V4.70858L137.065 5.36876H136.838L136.282 4.70858V6.11414H135.524V3.21783H135.791L136.951 4.45302L138.111 3.21783H138.379Z" fill="white"/>
<path fill-rule="evenodd" clip-rule="evenodd" d="M13.0277 18.8622L13.0161 27.9976L14.9469 28L14.9586 18.8228L18.4811 27.2971L20.2641 26.556L16.7661 18.1407L23.2019 24.593L24.569 23.2294L18.1057 16.7496L26.5583 20.2575L27.2984 18.4742L18.8438 14.9654H27.9976V13.0345H18.8662L27.3065 9.54867L26.5695 7.76402L18.1655 11.2349L24.6279 4.83851L23.2696 3.46618L16.7255 9.94335L20.2518 1.43831L18.4682 0.698786L14.9708 9.13401L14.9824 0.00244706L13.0516 0L13.0399 9.17673L9.51758 0.703009L7.73461 1.44415L11.2325 9.85893L4.79688 3.40699L3.42981 4.77058L9.8938 11.251L1.43934 7.74227L0.699214 9.52566L9.15401 13.0345H0V14.9654H9.13277L0.692003 18.4514L1.42907 20.2361L9.83324 16.7652L3.37087 23.1614L4.72916 24.5338L11.2701 18.0597L7.74517 26.5615L9.52881 27.301L13.0277 18.8622Z" fill="white"/>
</svg>
