<svg width="145" height="18" viewBox="0 0 145 18" fill="none" xmlns="http://www.w3.org/2000/svg">
<path d="M0 17.5722V2.10275H2.9613L12.0883 13.2408H10.6519V2.10275H14.1877V17.5722H11.2485L2.09943 6.43421H3.53589V17.5722H0Z" fill="#002633"/>
<path d="M24.7206 17.8374C22.5254 17.8374 20.8091 17.226 19.5715 16.0032C18.3339 14.7804 17.7152 13.0345 17.7152 10.7657V2.10275H21.2953V10.6331C21.2953 12.1064 21.5973 13.1671 22.2013 13.8154C22.8054 14.4636 23.6525 14.7877 24.7427 14.7877C25.833 14.7877 26.6801 14.4636 27.2842 13.8154C27.8882 13.1671 28.1902 12.1064 28.1902 10.6331V2.10275H31.7261V10.7657C31.7261 13.0345 31.1073 14.7804 29.8698 16.0032C28.6322 17.226 26.9158 17.8374 24.7206 17.8374Z" fill="#002633"/>
<path d="M35.2639 17.5722V2.10275H41.96C43.3449 2.10275 44.5382 2.33111 45.5401 2.78782C46.5419 3.22981 47.3154 3.87069 47.8605 4.71046C48.4056 5.55023 48.6782 6.55207 48.6782 7.71597C48.6782 8.86513 48.4056 9.8596 47.8605 10.6994C47.3154 11.5244 46.5419 12.1579 45.5401 12.5999C44.5382 13.0419 43.3449 13.2629 41.96 13.2629H37.2528L38.844 11.6938V17.5722H35.2639ZM45.0981 17.5722L41.2307 11.959H45.0539L48.9655 17.5722H45.0981ZM38.844 12.0916L37.2528 10.4121H41.7611C42.8661 10.4121 43.6911 10.1764 44.2362 9.7049C44.7813 9.21872 45.0539 8.55574 45.0539 7.71597C45.0539 6.86146 44.7813 6.19848 44.2362 5.72703C43.6911 5.25558 42.8661 5.01985 41.7611 5.01985H37.2528L38.844 3.31821V12.0916Z" fill="#002633"/>
<path d="M56.5975 17.8374C55.3599 17.8374 54.1739 17.6754 53.0395 17.3513C51.9051 17.0124 50.9916 16.5778 50.2992 16.0474L51.5146 13.3513C52.1776 13.8227 52.9585 14.2132 53.8572 14.5225C54.7706 14.8172 55.6914 14.9645 56.6196 14.9645C57.3268 14.9645 57.894 14.8982 58.3212 14.7656C58.7632 14.6183 59.0873 14.4194 59.2936 14.169C59.4999 13.9185 59.603 13.6312 59.603 13.3071C59.603 12.8946 59.4409 12.5704 59.1168 12.3347C58.7927 12.0843 58.3654 11.8854 57.835 11.738C57.3047 11.576 56.7153 11.4286 56.0671 11.296C55.4336 11.1487 54.7927 10.9719 54.1445 10.7657C53.5109 10.5594 52.929 10.2942 52.3986 9.97009C51.8682 9.64597 51.4336 9.21872 51.0948 8.68833C50.7706 8.15795 50.6086 7.48024 50.6086 6.6552C50.6086 5.77123 50.8443 4.96829 51.3158 4.24638C51.8019 3.50973 52.5238 2.92779 53.4815 2.50053C54.4538 2.05855 55.6693 1.83755 57.1279 1.83755C58.1002 1.83755 59.0579 1.95542 60.0008 2.19114C60.9437 2.41214 61.7761 2.75099 62.498 3.20771L61.393 5.92592C60.6711 5.5134 59.9492 5.21138 59.2273 5.01985C58.5054 4.81359 57.7982 4.71046 57.1058 4.71046C56.4133 4.71046 55.8461 4.79149 55.4041 4.95355C54.9621 5.11562 54.6454 5.32924 54.4539 5.59443C54.2623 5.84489 54.1666 6.13955 54.1666 6.4784C54.1666 6.87619 54.3286 7.20031 54.6527 7.45077C54.9769 7.6865 55.4041 7.87803 55.9345 8.02535C56.4649 8.17268 57.0468 8.32001 57.6803 8.46734C58.3286 8.61467 58.9695 8.7841 59.603 8.97562C60.2512 9.16715 60.8405 9.42498 61.3709 9.7491C61.9013 10.0732 62.3286 10.5005 62.6527 11.0309C62.9915 11.5612 63.161 12.2316 63.161 13.0419C63.161 13.9111 62.9179 14.7067 62.4317 15.4286C61.9455 16.1505 61.2162 16.7325 60.2439 17.1745C59.2862 17.6164 58.0708 17.8374 56.5975 17.8374Z" fill="#002633"/>
<path d="M68.9001 8.33475H76.3475V11.1193H68.9001V8.33475ZM69.1652 14.6993H77.5851V17.5722H65.6073V2.10275H77.2978V4.97565H69.1652V14.6993Z" fill="#002633"/>
<path d="M80.4336 17.5722V2.10275H87.1297C88.5146 2.10275 89.708 2.33111 90.7098 2.78782C91.7116 3.22981 92.4851 3.87069 93.0302 4.71046C93.5753 5.55023 93.8479 6.55207 93.8479 7.71597C93.8479 8.86513 93.5753 9.8596 93.0302 10.6994C92.4851 11.5244 91.7116 12.1579 90.7098 12.5999C89.708 13.0419 88.5146 13.2629 87.1297 13.2629H82.4226L84.0137 11.6938V17.5722H80.4336ZM90.2678 17.5722L86.4004 11.959H90.2236L94.1352 17.5722H90.2678ZM84.0137 12.0916L82.4226 10.4121H86.9308C88.0358 10.4121 88.8608 10.1764 89.4059 9.7049C89.9511 9.21872 90.2236 8.55574 90.2236 7.71597C90.2236 6.86146 89.9511 6.19848 89.4059 5.72703C88.8608 5.25558 88.0358 5.01985 86.9308 5.01985H82.4226L84.0137 3.31821V12.0916Z" fill="#002633"/>
<path d="M96.6844 17.5722V2.10275H100.264V17.5722H96.6844Z" fill="#002633"/>
<path d="M107.251 9.06402H114.676V11.9369H107.251V9.06402ZM107.516 17.5722H103.936V2.10275H115.626V4.97565H107.516V17.5722Z" fill="#002633"/>
<path d="M121.895 17.5722V11.2519L122.713 13.4176L115.906 2.10275H119.707L124.923 10.7878H122.735L127.972 2.10275H131.486L124.68 13.4176L125.475 11.2519V17.5722H121.895Z" fill="#002633"/>
<path d="M134.246 12.7303L134.12 12.7565L134.075 12.6354L133.874 12.0894C133.402 10.8128 132.416 7.64304 132.39 5.39374C132.373 3.95048 132.758 2.67034 133.544 1.83902C134.377 0.959387 135.563 0.690128 136.793 1.16185C138.19 1.69749 138.927 2.95754 139.07 4.28831C139.333 4.1467 139.616 4.00569 139.907 3.87874C140.385 3.6701 140.917 3.48541 141.455 3.40083C141.989 3.31664 142.583 3.32332 143.141 3.55805C143.913 3.88253 144.392 4.60249 144.491 5.43929C144.591 6.26977 144.324 7.19536 143.698 8.08376C142.45 9.85468 139.706 11.5995 134.816 12.6123L134.246 12.7303ZM137.075 7.43657L136.746 7.64119L136.852 7.26802L137.331 5.5859C137.697 4.30161 137.18 3.07957 136.202 2.70466C135.878 2.58038 135.601 2.55876 135.365 2.60939C135.13 2.65995 134.924 2.7851 134.745 2.97455C134.349 3.39227 134.028 4.19571 134.042 5.37426C134.061 7.02281 134.707 9.38837 135.188 10.8391C139.41 9.8562 141.492 8.34619 142.348 7.13196C142.797 6.4949 142.891 5.97044 142.851 5.63507C142.812 5.30721 142.653 5.1452 142.5 5.08113C142.32 5.00528 142.063 4.97766 141.712 5.03303C141.362 5.08802 140.972 5.21683 140.567 5.39334C139.852 5.7053 139.189 6.12076 138.736 6.40481C138.674 6.44393 138.616 6.48069 138.562 6.5142L137.075 7.43657Z" fill="#FF9458" stroke="#FF9458" stroke-width="0.3" stroke-linecap="round"/>
</svg>
