<svg width="75" height="24" viewBox="0 0 75 24" fill="none" xmlns="http://www.w3.org/2000/svg">
<path d="M9.44 17.852V5.252H17.198V6.62H10.952V10.832H16.694V12.2H10.952V16.484H17.288V17.852H9.44Z" fill="white"/>
<path d="M23.1466 18.104C21.6466 18.104 20.4526 17.672 19.5646 16.808C18.6766 15.932 18.2326 14.66 18.2326 12.992V10.112C18.2326 8.444 18.6766 7.178 19.5646 6.314C20.4526 5.438 21.6466 5 23.1466 5C24.6346 5 25.7746 5.414 26.5666 6.242C27.3706 7.07 27.7726 8.204 27.7726 9.644V9.734H26.2786V9.59C26.2786 8.642 26.0206 7.868 25.5046 7.268C25.0006 6.656 24.2146 6.35 23.1466 6.35C22.0786 6.35 21.2446 6.68 20.6446 7.34C20.0446 7.988 19.7446 8.9 19.7446 10.076V13.028C19.7446 14.204 20.0446 15.122 20.6446 15.782C21.2446 16.43 22.0786 16.754 23.1466 16.754C24.2146 16.754 25.0006 16.454 25.5046 15.854C26.0206 15.242 26.2786 14.462 26.2786 13.514V13.226H27.7726V13.46C27.7726 14.9 27.3706 16.034 26.5666 16.862C25.7746 17.69 24.6346 18.104 23.1466 18.104Z" fill="white"/>
<path d="M32.1466 17.852V13.046L27.6646 5.252H29.3926L32.7766 11.3H33.0286L36.4126 5.252H38.1406L33.6586 13.046V17.852H32.1466Z" fill="white"/>
<path d="M42.9107 18.104C41.4107 18.104 40.2167 17.672 39.3287 16.808C38.4407 15.932 37.9967 14.66 37.9967 12.992V10.112C37.9967 8.444 38.4407 7.178 39.3287 6.314C40.2167 5.438 41.4107 5 42.9107 5C44.3987 5 45.5387 5.414 46.3307 6.242C47.1347 7.07 47.5367 8.204 47.5367 9.644V9.734H46.0427V9.59C46.0427 8.642 45.7847 7.868 45.2687 7.268C44.7647 6.656 43.9787 6.35 42.9107 6.35C41.8427 6.35 41.0087 6.68 40.4087 7.34C39.8087 7.988 39.5087 8.9 39.5087 10.076V13.028C39.5087 14.204 39.8087 15.122 40.4087 15.782C41.0087 16.43 41.8427 16.754 42.9107 16.754C43.9787 16.754 44.7647 16.454 45.2687 15.854C45.7847 15.242 46.0427 14.462 46.0427 13.514V13.226H47.5367V13.46C47.5367 14.9 47.1347 16.034 46.3307 16.862C45.5387 17.69 44.3987 18.104 42.9107 18.104Z" fill="white"/>
<path d="M48.9156 17.852V5.252H50.4276V16.484H56.7996V17.852H48.9156Z" fill="white"/>
<path d="M57.7517 17.852V5.252H65.5097V6.62H59.2637V10.832H65.0057V12.2H59.2637V16.484H65.5997V17.852H57.7517Z" fill="white"/>
<path d="M67.7323 18.104C67.3843 18.104 67.0903 17.99 66.8503 17.762C66.6223 17.534 66.5083 17.24 66.5083 16.88C66.5083 16.52 66.6223 16.226 66.8503 15.998C67.0903 15.77 67.3843 15.656 67.7323 15.656C68.0923 15.656 68.3863 15.77 68.6143 15.998C68.8423 16.226 68.9563 16.52 68.9563 16.88C68.9563 17.24 68.8423 17.534 68.6143 17.762C68.3863 17.99 68.0923 18.104 67.7323 18.104Z" fill="white"/>
</svg>
