<svg width="120" height="77" viewBox="0 0 120 77" fill="none" xmlns="http://www.w3.org/2000/svg">
<path fill-rule="evenodd" clip-rule="evenodd" d="M44 61C44.1552 69.8635 51.2592 77 60 77C68.7408 77 75.8448 69.8635 76 61H44Z" fill="#FFB930"/>
<path d="M34.686 25.4163C34.8507 22.7419 34.9331 19.9758 34.9331 17.1177C34.9331 16.199 34.6963 15.4845 34.2226 14.9742C33.7696 14.4434 33.1621 14.178 32.4001 14.178C31.7 14.178 31.0925 14.4842 30.5776 15.0967C30.0834 15.7091 29.8363 16.5971 29.8363 17.7608V17.7301C29.8363 21.3435 29.8877 23.9056 29.9907 25.4163H23.0405C23.164 22.4153 23.2258 19.6491 23.2258 17.1177C23.2258 16.2195 22.9993 15.5049 22.5462 14.9742C22.1138 14.4434 21.5578 14.178 20.8782 14.178C20.1574 14.178 19.5499 14.4842 19.0557 15.0967C18.582 15.6887 18.304 16.5053 18.2217 17.5464C18.1805 19.0979 18.1599 20.2003 18.1599 20.8536C18.1599 22.2418 18.2011 23.7627 18.2834 25.4163H10.9008C11.0655 22.4766 11.1479 19.7002 11.1479 17.0871C11.1479 14.474 11.0655 11.6772 10.9008 8.69665C12.2599 8.75789 13.2999 8.78852 14.0206 8.78852C14.7826 8.78852 15.8225 8.75789 17.1405 8.69665L18.0672 13.2287C18.5409 11.5751 19.2925 10.3604 20.3222 9.58469C21.3518 8.78852 22.5359 8.39043 23.8745 8.39043C25.4808 8.39043 26.7885 8.82935 27.7975 9.70718C28.8272 10.585 29.4656 11.7282 29.7127 13.1368C30.1863 11.6874 30.9792 10.534 32.0912 9.67656C33.2033 8.81914 34.4697 8.39043 35.8907 8.39043C37.7441 8.39043 39.1959 9.01308 40.2462 10.2584C41.2964 11.4833 41.8215 13.1675 41.8215 15.311V20.3943C41.8215 22.7011 41.8421 24.3751 41.8833 25.4163H34.686Z" fill="#2B2721"/>
<path d="M48.792 6.88995C47.4947 6.88995 46.5268 6.57352 45.8884 5.94067C45.2706 5.30781 44.9617 4.48102 44.9617 3.46029C44.9617 2.45997 45.2706 1.63317 45.8884 0.979904C46.5268 0.326635 47.4947 0 48.792 0C50.0276 0 50.9749 0.336842 51.6339 1.01053C52.2929 1.6638 52.6224 2.48038 52.6224 3.46029C52.6224 4.48102 52.3032 5.30781 51.6648 5.94067C51.0264 6.57352 50.0688 6.88995 48.792 6.88995ZM45.2088 25.4163C45.353 22.1295 45.425 19.4144 45.425 17.2708C45.425 14.719 45.3427 11.8609 45.1779 8.69665H52.5915C52.4268 11.7384 52.3444 14.5965 52.3444 17.2708C52.3444 19.5164 52.4165 22.2316 52.5606 25.4163H45.2088Z" fill="#2B2721"/>
<path d="M79.3315 25.4163C79.4963 22.7419 79.5786 19.9758 79.5786 17.1177C79.5786 16.199 79.3418 15.4845 78.8682 14.9742C78.4151 14.4434 77.8076 14.178 77.0457 14.178C76.3455 14.178 75.738 14.4842 75.2232 15.0967C74.7289 15.7091 74.4818 16.5971 74.4818 17.7608V17.7301C74.4818 21.3435 74.5333 23.9056 74.6363 25.4163H67.686C67.8096 22.4153 67.8714 19.6491 67.8714 17.1177C67.8714 16.2195 67.6448 15.5049 67.1918 14.9742C66.7593 14.4434 66.2033 14.178 65.5237 14.178C64.803 14.178 64.1955 14.4842 63.7012 15.0967C63.2276 15.6887 62.9496 16.5053 62.8672 17.5464C62.826 19.0979 62.8054 20.2003 62.8054 20.8536C62.8054 22.2418 62.8466 23.7627 62.929 25.4163H55.5463C55.711 22.4766 55.7934 19.7002 55.7934 17.0871C55.7934 14.474 55.711 11.6772 55.5463 8.69665C56.9055 8.75789 57.9454 8.78852 58.6662 8.78852C59.4281 8.78852 60.4681 8.75789 61.7861 8.69665L62.7128 13.2287C63.1864 11.5751 63.9381 10.3604 64.9677 9.58469C65.9974 8.78852 67.1815 8.39043 68.5201 8.39043C70.1263 8.39043 71.434 8.82935 72.4431 9.70718C73.4727 10.585 74.1111 11.7282 74.3583 13.1368C74.8319 11.6874 75.6247 10.534 76.7368 9.67656C77.8488 8.81914 79.1153 8.39043 80.5362 8.39043C82.3896 8.39043 83.8415 9.01308 84.8917 10.2584C85.942 11.4833 86.4671 13.1675 86.4671 15.311V20.3943C86.4671 22.7011 86.4877 24.3751 86.5289 25.4163H79.3315Z" fill="#2B2721"/>
<path d="M99.2449 25.7225C95.7234 25.7225 93.1287 24.9263 91.4606 23.334C89.8132 21.7212 88.9894 19.6083 88.9894 16.9952C88.9894 14.4434 89.8132 12.3713 91.4606 10.7789C93.1287 9.1866 95.7234 8.39043 99.2449 8.39043C101.613 8.39043 103.59 8.77831 105.176 9.55407C106.782 10.3094 107.966 11.3403 108.728 12.6469C109.49 13.933 109.871 15.3825 109.871 16.9952C109.871 19.6287 108.985 21.7416 107.214 23.334C105.464 24.9263 102.808 25.7225 99.2449 25.7225ZM99.3684 20.5167C100.707 20.5167 101.706 20.2003 102.365 19.5675C103.024 18.9346 103.353 18.0874 103.353 17.0258C103.353 16.0255 103.024 15.2089 102.365 14.5761C101.706 13.9228 100.707 13.5962 99.3684 13.5962C98.0299 13.5962 97.0517 13.9126 96.4339 14.5455C95.8161 15.1783 95.5072 16.0051 95.5072 17.0258C95.5072 18.0874 95.8161 18.9346 96.4339 19.5675C97.0517 20.2003 98.0299 20.5167 99.3684 20.5167Z" fill="#2B2721"/>
<path d="M20.5109 32.2143C20.3873 36.0115 20.3256 39.9821 20.3256 44.1263C20.3256 48.2297 20.3873 52.2003 20.5109 56.0383H13.5298L13.6224 52.3636C13.0252 53.7314 12.1603 54.7419 11.0277 55.3952C9.89506 56.0281 8.5565 56.3445 7.01201 56.3445C5.67344 56.3445 4.46874 55.9668 3.39789 55.2115C2.32704 54.4561 1.49301 53.4354 0.895807 52.1493C0.298602 50.8427 0 49.4137 0 47.8622C0 46.3311 0.298602 44.8919 0.895807 43.5445C1.49301 42.1767 2.32704 41.0845 3.39789 40.2679C4.48933 39.4309 5.72493 39.0124 7.10468 39.0124C8.71095 39.0124 10.0804 39.3493 11.213 40.023C12.3663 40.6762 13.2209 41.697 13.7769 43.0852C13.7769 41.9215 13.7357 40.0536 13.6533 37.4813C13.571 34.9907 13.5298 33.2351 13.5298 32.2143H20.5109ZM10.2554 51.2C11.2645 51.2 12.0882 50.9244 12.7266 50.3732C13.365 49.8016 13.6842 48.9033 13.6842 47.6785C13.6842 46.5965 13.365 45.8003 12.7266 45.2899C12.0882 44.7796 11.2851 44.5244 10.3172 44.5244C9.39053 44.5244 8.60798 44.8204 7.96959 45.4124C7.3518 45.984 7.0429 46.7394 7.0429 47.6785C7.0429 48.7196 7.3312 49.5668 7.90781 50.2201C8.48442 50.8734 9.26697 51.2 10.2554 51.2Z" fill="#2B2721"/>
<path d="M39.3344 48.3828H29.2643C29.4291 49.281 29.8306 50.0159 30.469 50.5876C31.128 51.1388 32.0547 51.4144 33.2491 51.4144C34.114 51.4144 34.9275 51.251 35.6894 50.9244C36.4514 50.5773 37.0589 50.0976 37.5119 49.4852C38.8917 50.1588 40.7245 50.8836 43.0103 51.6593C42.3719 53.0884 41.2084 54.2316 39.5198 55.089C37.8517 55.926 35.6688 56.3445 32.9711 56.3445C29.4702 56.3445 26.8755 55.5483 25.1868 53.956C23.5188 52.3432 22.6848 50.2303 22.6848 47.6172C22.6848 45.0654 23.5188 42.9933 25.1868 41.401C26.8549 39.8086 29.4497 39.0124 32.9711 39.0124C35.0716 39.0124 36.8941 39.3595 38.4386 40.0536C39.9831 40.7477 41.1672 41.7174 41.991 42.9627C42.8147 44.1876 43.2265 45.5962 43.2265 47.1885C43.2265 47.7193 43.206 48.1174 43.1648 48.3828H39.3344ZM33.4036 43.6364C32.3739 43.6364 31.5296 43.8303 30.8706 44.2182C30.2116 44.6061 29.7483 45.1368 29.4805 45.8105H36.7706C36.5234 45.1573 36.1219 44.6367 35.5659 44.2488C35.0098 43.8405 34.2891 43.6364 33.4036 43.6364Z" fill="#2B2721"/>
<path d="M55.3542 56.3445C53.6244 56.3445 51.8637 56.1097 50.072 55.6402C48.301 55.1502 46.633 54.4153 45.0679 53.4354L48.3113 49.0565C49.2586 49.7301 50.4015 50.2609 51.7401 50.6488C53.0787 51.0163 54.2319 51.2 55.1998 51.2C56.1265 51.2 56.8369 51.0775 57.3312 50.8325C57.846 50.5671 58.1034 50.2303 58.1034 49.822C58.1034 49.4954 57.9799 49.2402 57.7327 49.0565C57.4856 48.8727 57.1458 48.7809 56.7134 48.7809C56.4457 48.7809 56.1368 48.7911 55.7867 48.8115C55.4572 48.8319 55.1895 48.8523 54.9835 48.8727C53.9127 48.9952 52.8109 49.0565 51.6783 49.0565C49.8455 49.0565 48.3525 48.7196 47.1993 48.0459C46.0666 47.3518 45.5003 46.229 45.5003 44.6775C45.5003 42.881 46.355 41.4928 48.0642 40.5129C49.7734 39.5126 52.2858 39.0124 55.6013 39.0124C57.2282 39.0124 58.8654 39.2472 60.5128 39.7167C62.1809 40.1659 63.6533 40.8498 64.9301 41.7684L61.3777 45.3206C60.2039 44.7081 59.1022 44.2794 58.0725 44.0345C57.0634 43.7691 56.0441 43.6364 55.0144 43.6364C54.2937 43.6364 53.6759 43.7793 53.161 44.0651C52.6462 44.3509 52.3888 44.6775 52.3888 45.045C52.3888 45.3308 52.4917 45.5553 52.6977 45.7187C52.9242 45.882 53.2125 45.9636 53.5626 45.9636C53.9127 45.9636 54.3966 45.933 55.0144 45.8718C56.5177 45.7697 57.6401 45.7187 58.3814 45.7187C60.5231 45.7187 62.1809 46.0759 63.3547 46.7904C64.5285 47.5049 65.1154 48.5971 65.1154 50.067C65.1154 52.2718 64.2505 53.8743 62.5207 54.8746C60.7908 55.8545 58.402 56.3445 55.3542 56.3445Z" fill="#2B2721"/>
<path d="M71.4165 37.512C70.1191 37.512 69.1512 37.1955 68.5128 36.5627C67.895 35.9298 67.5861 35.103 67.5861 34.0823C67.5861 33.082 67.895 32.2552 68.5128 31.6019C69.1512 30.9486 70.1191 30.622 71.4165 30.622C72.6521 30.622 73.5994 30.9589 74.2583 31.6325C74.9173 32.2858 75.2468 33.1024 75.2468 34.0823C75.2468 35.103 74.9276 35.9298 74.2892 36.5627C73.6508 37.1955 72.6933 37.512 71.4165 37.512ZM67.8332 56.0383C67.9774 52.7515 68.0495 50.0364 68.0495 47.8928C68.0495 45.341 67.9671 42.4829 67.8024 39.3187H75.2159C75.0512 42.3604 74.9688 45.2185 74.9688 47.8928C74.9688 50.1384 75.0409 52.8536 75.185 56.0383H67.8332Z" fill="#2B2721"/>
<path d="M92.5963 39.3187H98.5272C98.4242 42.6667 98.3727 47.4233 98.3727 53.5885C98.3727 56.0179 97.8785 58.0083 96.89 59.5598C95.9221 61.1113 94.6351 62.2341 93.0288 62.9282C91.4225 63.6427 89.6309 64 87.6539 64C85.6976 64 83.9472 63.7142 82.4027 63.1426C80.8582 62.5914 79.6843 61.8462 78.8812 60.9072L80.2712 56.222C81.3833 56.8549 82.4335 57.304 83.422 57.5694C84.4105 57.8552 85.4402 57.9981 86.511 57.9981C90.0119 57.9981 91.7623 56.5282 91.7623 53.5885C91.7623 53.1598 91.7726 52.8536 91.7932 52.6699C91.7932 52.5474 91.7932 52.384 91.7932 52.1799C91.8138 51.9758 91.8138 51.7104 91.7932 51.3837C90.7429 54.2826 88.5189 55.7321 85.121 55.7321C83.7412 55.7321 82.5056 55.3646 81.4142 54.6297C80.3433 53.8947 79.5093 52.9046 78.9121 51.6593C78.3149 50.3936 78.0163 49.0054 78.0163 47.4947C78.0163 45.9432 78.3149 44.5244 78.9121 43.2383C79.5093 41.9317 80.3433 40.9008 81.4142 40.1455C82.485 39.3901 83.6897 39.0124 85.0283 39.0124C88.5086 39.0124 90.7738 40.2271 91.8241 42.6565L92.5963 39.3187ZM88.3335 50.8325C88.8072 50.8325 89.3014 50.7305 89.8162 50.5263C90.3311 50.3018 90.7738 49.9547 91.1445 49.4852C91.5152 48.9952 91.7005 48.393 91.7005 47.6785C91.7005 46.4128 91.4122 45.5145 90.8356 44.9837C90.259 44.4325 89.4044 44.1569 88.2717 44.1569C87.2833 44.1569 86.5007 44.4836 85.9241 45.1368C85.3475 45.7901 85.0592 46.6373 85.0592 47.6785C85.0592 48.6175 85.3681 49.3831 85.9859 49.9751C86.6243 50.5467 87.4068 50.8325 88.3335 50.8325Z" fill="#2B2721"/>
<path d="M113.05 56.0383C113.173 53.0373 113.235 50.2711 113.235 47.7397C113.235 46.8415 113.009 46.1269 112.556 45.5962C112.123 45.0654 111.567 44.8 110.887 44.8C110.208 44.8 109.631 45.1062 109.158 45.7187C108.684 46.3107 108.406 47.1273 108.324 48.1684C108.282 49.7199 108.262 50.8223 108.262 51.4756C108.262 52.8638 108.303 54.3847 108.385 56.0383H101.003C101.167 53.0986 101.25 50.3222 101.25 47.7091C101.25 45.096 101.167 42.2992 101.003 39.3187C102.362 39.3799 103.402 39.4105 104.123 39.4105C104.885 39.4105 105.925 39.3799 107.242 39.3187L108.138 43.8201C108.612 42.1869 109.353 40.9825 110.362 40.2067C111.371 39.4105 112.545 39.0124 113.884 39.0124C115.119 39.0124 116.19 39.288 117.096 39.8392C118.002 40.37 118.682 41.0947 119.135 42.0134C119.609 42.9321 119.846 43.963 119.846 45.1062V49.5158C119.846 52.2309 119.897 54.4051 120 56.0383H113.05Z" fill="#2B2721"/>
</svg>
