<svg width="58" height="61" viewBox="0 0 58 61" fill="none" xmlns="http://www.w3.org/2000/svg">
<path d="M58 31.8809C53.7977 31.8809 49.6366 31.0564 45.7541 29.4541C41.8717 27.8517 38.3441 25.5033 35.3726 22.5428C32.4011 19.5823 30.044 16.0677 28.4359 12.1999C26.8277 8.33203 26 4.18617 26 -0.000483387L58 -0.000483007L58 31.8809Z" fill="#FFEED9"/>
<path d="M45.5 17.25H10.5C8.567 17.25 7 18.817 7 20.75V45.25C7 47.183 8.567 48.75 10.5 48.75H45.5C47.433 48.75 49 47.183 49 45.25V20.75C49 18.817 47.433 17.25 45.5 17.25Z" stroke="black" stroke-width="3" stroke-linecap="round" stroke-linejoin="round"/>
<path d="M7 31.25H19.425C19.828 31.2478 20.2192 31.3865 20.5307 31.6422C20.8423 31.8978 21.0547 32.2543 21.1312 32.65C21.4654 34.224 22.33 35.6354 23.5804 36.6481C24.8307 37.6609 26.391 38.2135 28 38.2135C29.609 38.2135 31.1693 37.6609 32.4196 36.6481C33.67 35.6354 34.5346 34.224 34.8687 32.65C34.9453 32.2543 35.1577 31.8978 35.4693 31.6422C35.7808 31.3865 36.172 31.2478 36.575 31.25H49" stroke="black" stroke-width="3" stroke-linecap="round" stroke-linejoin="round"/>
<path d="M7 24.25H49" stroke="black" stroke-width="3" stroke-linecap="round" stroke-linejoin="round"/>
</svg>
