<svg width="153" height="24" viewBox="0 0 153 24" fill="none" xmlns="http://www.w3.org/2000/svg">
<path d="M9.096 20.376C7.8 20.376 6.592 20.168 5.472 19.752C4.368 19.32 3.408 18.712 2.592 17.928C1.776 17.144 1.136 16.224 0.672 15.168C0.224 14.112 0 12.952 0 11.688C0 10.424 0.224 9.264 0.672 8.208C1.136 7.152 1.776 6.232 2.592 5.448C3.424 4.664 4.392 4.064 5.496 3.648C6.6 3.216 7.808 3 9.12 3C10.576 3 11.888 3.256 13.056 3.768C14.24 4.264 15.232 5 16.032 5.976L13.536 8.28C12.96 7.624 12.32 7.136 11.616 6.816C10.912 6.48 10.144 6.312 9.312 6.312C8.528 6.312 7.808 6.44 7.152 6.696C6.496 6.952 5.928 7.32 5.448 7.8C4.968 8.28 4.592 8.848 4.32 9.504C4.064 10.16 3.936 10.888 3.936 11.688C3.936 12.488 4.064 13.216 4.32 13.872C4.592 14.528 4.968 15.096 5.448 15.576C5.928 16.056 6.496 16.424 7.152 16.68C7.808 16.936 8.528 17.064 9.312 17.064C10.144 17.064 10.912 16.904 11.616 16.584C12.32 16.248 12.96 15.744 13.536 15.072L16.032 17.376C15.232 18.352 14.24 19.096 13.056 19.608C11.888 20.12 10.568 20.376 9.096 20.376Z" fill="#0A99BF"/>
<path d="M18.6576 20.088V3.288H22.5456V16.92H30.9696V20.088H18.6576Z" fill="#0A99BF"/>
<path d="M36.7179 10.056H44.8059V13.08H36.7179V10.056ZM37.0059 16.968H46.1499V20.088H33.1419V3.288H45.8379V6.408H37.0059V16.968Z" fill="#0A99BF"/>
<path d="M47.0355 20.088L54.5235 3.288H58.3635L65.8755 20.088H61.7955L55.6515 5.256H57.1875L51.0195 20.088H47.0355ZM50.7795 16.488L51.8115 13.536H60.4515L61.5075 16.488H50.7795Z" fill="#0A99BF"/>
<path d="M67.6185 20.088V3.288H70.8345L80.7465 15.384H79.1865V3.288H83.0265V20.088H79.8345L69.8985 7.992H71.4585V20.088H67.6185Z" fill="#0A99BF"/>
<path d="M95.1613 20.376C93.8333 20.376 92.6013 20.16 91.4653 19.728C90.3453 19.296 89.3693 18.688 88.5373 17.904C87.7213 17.12 87.0813 16.2 86.6173 15.144C86.1693 14.088 85.9453 12.936 85.9453 11.688C85.9453 10.44 86.1693 9.288 86.6173 8.232C87.0813 7.176 87.7293 6.256 88.5613 5.472C89.3933 4.688 90.3693 4.08 91.4893 3.648C92.6093 3.216 93.8253 3 95.1373 3C96.4653 3 97.6813 3.216 98.7853 3.648C99.9053 4.08 100.873 4.688 101.689 5.472C102.521 6.256 103.169 7.176 103.633 8.232C104.097 9.272 104.329 10.424 104.329 11.688C104.329 12.936 104.097 14.096 103.633 15.168C103.169 16.224 102.521 17.144 101.689 17.928C100.873 18.696 99.9053 19.296 98.7853 19.728C97.6813 20.16 96.4733 20.376 95.1613 20.376ZM95.1373 17.064C95.8893 17.064 96.5773 16.936 97.2013 16.68C97.8413 16.424 98.4013 16.056 98.8813 15.576C99.3613 15.096 99.7293 14.528 99.9853 13.872C100.257 13.216 100.393 12.488 100.393 11.688C100.393 10.888 100.257 10.16 99.9853 9.504C99.7293 8.848 99.3613 8.28 98.8813 7.8C98.4173 7.32 97.8653 6.952 97.2253 6.696C96.5853 6.44 95.8893 6.312 95.1373 6.312C94.3853 6.312 93.6893 6.44 93.0493 6.696C92.4253 6.952 91.8733 7.32 91.3933 7.8C90.9133 8.28 90.5373 8.848 90.2653 9.504C90.0093 10.16 89.8813 10.888 89.8813 11.688C89.8813 12.472 90.0093 13.2 90.2653 13.872C90.5373 14.528 90.9053 15.096 91.3693 15.576C91.8493 16.056 92.4093 16.424 93.0493 16.68C93.6893 16.936 94.3853 17.064 95.1373 17.064Z" fill="#0A99BF"/>
<path d="M106.007 20.088V17.568L116.399 5.04L116.879 6.456H106.199V3.288H120.335V5.808L109.967 18.336L109.487 16.92H120.695V20.088H106.007Z" fill="#0A99BF"/>
<path d="M126.431 1.13571C126.929 -0.378571 129.071 -0.378572 129.569 1.13571L130.124 2.82298C130.288 3.32129 130.679 3.71213 131.177 3.87602L132.864 4.43093C134.379 4.92895 134.379 7.07105 132.864 7.56907L131.177 8.12398C130.679 8.28787 130.288 8.67871 130.124 9.17702L129.569 10.8643C129.071 12.3786 126.929 12.3786 126.431 10.8643L125.876 9.17702C125.712 8.67871 125.321 8.28787 124.823 8.12398L123.136 7.56907C121.621 7.07105 121.621 4.92895 123.136 4.43093L124.823 3.87602C125.321 3.71213 125.712 3.32129 125.876 2.82298L126.431 1.13571Z" fill="#0A99BF"/>
<path d="M126.431 1.13571C126.929 -0.378571 129.071 -0.378572 129.569 1.13571L130.124 2.82298C130.288 3.32129 130.679 3.71213 131.177 3.87602L132.864 4.43093C134.379 4.92895 134.379 7.07105 132.864 7.56907L131.177 8.12398C130.679 8.28787 130.288 8.67871 130.124 9.17702L129.569 10.8643C129.071 12.3786 126.929 12.3786 126.431 10.8643L125.876 9.17702C125.712 8.67871 125.321 8.28787 124.823 8.12398L123.136 7.56907C121.621 7.07105 121.621 4.92895 123.136 4.43093L124.823 3.87602C125.321 3.71213 125.712 3.32129 125.876 2.82298L126.431 1.13571Z" fill="#83C04D"/>
<path d="M137.215 0.567857C137.464 -0.189286 138.536 -0.189286 138.785 0.567857L139.062 1.41149C139.144 1.66065 139.339 1.85607 139.589 1.93801L140.432 2.21546C141.189 2.46447 141.189 3.53553 140.432 3.78454L139.589 4.06199C139.339 4.14393 139.144 4.33935 139.062 4.58851L138.785 5.43214C138.536 6.18929 137.464 6.18929 137.215 5.43214L136.938 4.58851C136.856 4.33935 136.661 4.14393 136.411 4.06199L135.568 3.78454C134.811 3.53553 134.811 2.46447 135.568 2.21546L136.411 1.93801C136.661 1.85607 136.856 1.66065 136.938 1.41149L137.215 0.567857Z" fill="#0A99BF"/>
<path d="M137.215 0.567857C137.464 -0.189286 138.536 -0.189286 138.785 0.567857L139.062 1.41149C139.144 1.66065 139.339 1.85607 139.589 1.93801L140.432 2.21546C141.189 2.46447 141.189 3.53553 140.432 3.78454L139.589 4.06199C139.339 4.14393 139.144 4.33935 139.062 4.58851L138.785 5.43214C138.536 6.18929 137.464 6.18929 137.215 5.43214L136.938 4.58851C136.856 4.33935 136.661 4.14393 136.411 4.06199L135.568 3.78454C134.811 3.53553 134.811 2.46447 135.568 2.21546L136.411 1.93801C136.661 1.85607 136.856 1.66065 136.938 1.41149L137.215 0.567857Z" fill="#83C04D"/>
<path d="M133.215 12.5679C133.464 11.8107 134.536 11.8107 134.785 12.5679L135.062 13.4115C135.144 13.6606 135.339 13.8561 135.589 13.938L136.432 14.2155C137.189 14.4645 137.189 15.5355 136.432 15.7845L135.589 16.062C135.339 16.1439 135.144 16.3394 135.062 16.5885L134.785 17.4321C134.536 18.1893 133.464 18.1893 133.215 17.4321L132.938 16.5885C132.856 16.3394 132.661 16.1439 132.411 16.062L131.568 15.7845C130.811 15.5355 130.811 14.4645 131.568 14.2155L132.411 13.938C132.661 13.8561 132.856 13.6606 132.938 13.4115L133.215 12.5679Z" fill="#0A99BF"/>
<path d="M133.215 12.5679C133.464 11.8107 134.536 11.8107 134.785 12.5679L135.062 13.4115C135.144 13.6606 135.339 13.8561 135.589 13.938L136.432 14.2155C137.189 14.4645 137.189 15.5355 136.432 15.7845L135.589 16.062C135.339 16.1439 135.144 16.3394 135.062 16.5885L134.785 17.4321C134.536 18.1893 133.464 18.1893 133.215 17.4321L132.938 16.5885C132.856 16.3394 132.661 16.1439 132.411 16.062L131.568 15.7845C130.811 15.5355 130.811 14.4645 131.568 14.2155L132.411 13.938C132.661 13.8561 132.856 13.6606 132.938 13.4115L133.215 12.5679Z" fill="#83C04D"/>
</svg>
