<svg width="103" height="28" viewBox="0 0 103 28" fill="none" xmlns="http://www.w3.org/2000/svg">
<path d="M12.8117 28H3.70058L12.8117 14.2222H21.9229L12.8117 28Z" fill="white"/>
<path d="M9.47887 0H18.8122L9.47887 14.2223H0.145508L9.47887 0Z" fill="white"/>
<path d="M40.5109 11.9859C40.5109 12.8308 40.3072 13.6229 39.8998 14.3622C39.5076 15.1015 38.8814 15.6975 38.0214 16.1502C37.1765 16.6028 36.1052 16.8291 34.8076 16.8291H32.1597V22.8945H28.9912V7.09736H34.8076C36.0298 7.09736 37.0708 7.30859 37.9309 7.73105C38.7909 8.15352 39.4321 8.7344 39.8546 9.47372C40.2921 10.213 40.5109 11.0504 40.5109 11.9859ZM34.6718 14.2717C35.547 14.2717 36.1957 14.0756 36.6182 13.6833C37.0407 13.2759 37.2519 12.7101 37.2519 11.9859C37.2519 10.4469 36.3919 9.67741 34.6718 9.67741H32.1597V14.2717H34.6718Z" fill="white"/>
<path d="M45.0237 12.3027C45.4311 11.6388 45.9592 11.1183 46.6079 10.7411C47.2718 10.3639 48.0262 10.1753 48.8711 10.1753V13.5022H48.0338C47.0379 13.5022 46.2835 13.7361 45.7706 14.2038C45.2726 14.6715 45.0237 15.4863 45.0237 16.6481V22.8945H41.8552V10.3564H45.0237V12.3027Z" fill="white"/>
<path d="M55.6675 23.0982C54.4604 23.0982 53.3741 22.8342 52.4085 22.3061C51.4428 21.7629 50.6809 21.001 50.1226 20.0202C49.5795 19.0395 49.3079 17.9079 49.3079 16.6254C49.3079 15.343 49.587 14.2114 50.1453 13.2306C50.7186 12.2499 51.4956 11.4955 52.4764 10.9674C53.4571 10.4243 54.551 10.1527 55.758 10.1527C56.965 10.1527 58.0589 10.4243 59.0396 10.9674C60.0204 11.4955 60.7898 12.2499 61.3481 13.2306C61.9214 14.2114 62.2081 15.343 62.2081 16.6254C62.2081 17.9079 61.9139 19.0395 61.3255 20.0202C60.7521 21.001 59.9676 21.7629 58.9717 22.3061C57.991 22.8342 56.8896 23.0982 55.6675 23.0982ZM55.6675 20.3371C56.2408 20.3371 56.7764 20.2013 57.2743 19.9297C57.7873 19.643 58.1947 19.2206 58.4965 18.6623C58.7982 18.1041 58.9491 17.4251 58.9491 16.6254C58.9491 15.4335 58.6323 14.5207 57.9986 13.887C57.38 13.2382 56.618 12.9138 55.7127 12.9138C54.8074 12.9138 54.0455 13.2382 53.4269 13.887C52.8234 14.5207 52.5216 15.4335 52.5216 16.6254C52.5216 17.8174 52.8158 18.7378 53.4043 19.3865C54.0078 20.0202 54.7622 20.3371 55.6675 20.3371Z" fill="white"/>
<path d="M66.7955 20.3824H70.198V22.8945H63.627V5.151H66.7955V20.3824Z" fill="white"/>
<path d="M72.656 8.86265C72.0977 8.86265 71.63 8.68914 71.2528 8.34212C70.8907 7.98 70.7096 7.53491 70.7096 7.00683C70.7096 6.47875 70.8907 6.04119 71.2528 5.69417C71.63 5.33206 72.0977 5.151 72.656 5.151C73.2142 5.151 73.6744 5.33206 74.0365 5.69417C74.4137 6.04119 74.6023 6.47875 74.6023 7.00683C74.6023 7.53491 74.4137 7.98 74.0365 8.34212C73.6744 8.68914 73.2142 8.86265 72.656 8.86265ZM74.2176 10.3564V22.8945H71.0491V10.3564H74.2176Z" fill="white"/>
<path d="M83.3908 10.1753C84.8845 10.1753 86.0916 10.6506 87.0119 11.6011C87.9323 12.5366 88.3925 13.8492 88.3925 15.5391V22.8945H85.224V15.9691C85.224 14.9733 84.975 14.2114 84.4771 13.6833C83.9792 13.1401 83.3003 12.8685 82.4403 12.8685C81.5652 12.8685 80.8711 13.1401 80.3581 13.6833C79.8602 14.2114 79.6113 14.9733 79.6113 15.9691V22.8945H76.4428V10.3564H79.6113V11.918C80.0337 11.3748 80.5693 10.9523 81.2181 10.6506C81.882 10.3337 82.6062 10.1753 83.3908 10.1753Z" fill="white"/>
<path d="M102.156 16.3539C102.156 16.8065 102.126 17.2139 102.065 17.576H92.8993C92.9747 18.4813 93.2915 19.1904 93.8498 19.7034C94.4081 20.2164 95.0946 20.4729 95.9093 20.4729C97.0862 20.4729 97.9236 19.9674 98.4215 18.9565H101.839C101.477 20.1636 100.783 21.1594 99.7568 21.944C98.7308 22.7134 97.4709 23.0982 95.9772 23.0982C94.7702 23.0982 93.6838 22.8342 92.7182 22.3061C91.7677 21.7629 91.0208 21.001 90.4776 20.0202C89.9496 19.0395 89.6855 17.9079 89.6855 16.6254C89.6855 15.3279 89.9496 14.1887 90.4776 13.208C91.0057 12.2273 91.745 11.4729 92.6956 10.9448C93.6461 10.4167 94.74 10.1527 95.9772 10.1527C97.1692 10.1527 98.2329 10.4092 99.1683 10.9222C100.119 11.4352 100.851 12.1669 101.364 13.1175C101.892 14.0529 102.156 15.1317 102.156 16.3539ZM98.8741 15.4486C98.859 14.6338 98.5648 13.985 97.9915 13.5022C97.4181 13.0043 96.7165 12.7554 95.8867 12.7554C95.1021 12.7554 94.4382 12.9968 93.8951 13.4796C93.367 13.9473 93.0426 14.6036 92.9219 15.4486H98.8741Z" fill="white"/>
</svg>
