<svg width="199" height="36" viewBox="0 0 199 36" fill="none" xmlns="http://www.w3.org/2000/svg">
<path d="M63.9825 32.1619C61.1322 32.1619 58.6127 31.602 56.4241 30.4822C54.2354 29.337 52.5431 27.721 51.347 25.6342C50.1509 23.5473 49.5528 21.0915 49.5528 18.2666C49.5528 15.4418 50.1509 12.9859 51.347 10.8991C52.5431 8.7868 54.2354 7.17078 56.4241 6.05101C58.6127 4.9058 61.1322 4.33319 63.9825 4.33319C65.9166 4.33319 67.6217 4.53678 69.0978 4.94397C70.5993 5.32571 71.9735 5.93649 73.2206 6.77631V12.3115C72.1008 11.3953 70.8156 10.7337 69.365 10.3265C67.9398 9.89384 66.3111 9.67752 64.4788 9.67752C62.7737 9.67752 61.234 10.0338 59.8597 10.7464C58.5109 11.4335 57.442 12.426 56.6531 13.7239C55.8642 15.0219 55.4697 16.5361 55.4697 18.2666C55.4697 20.0226 55.826 21.5623 56.5386 22.8857C57.2766 24.1836 58.3073 25.1888 59.6307 25.9014C60.954 26.614 62.481 26.9703 64.2115 26.9703C65.7894 26.9703 67.1636 26.6903 68.3343 26.1304V20.977H64.0207V16.7015H73.9459V29.5661C71.4264 31.2966 68.1053 32.1619 63.9825 32.1619Z" fill="#181818"/>
<path d="M75.2858 13.2659H80.8592V15.8999C81.5972 15.0091 82.6279 14.3347 83.9513 13.8766C85.2746 13.3931 86.7761 13.1513 88.4558 13.1513V17.5413C86.6998 17.5413 85.1474 17.8085 83.7986 18.343C82.4752 18.8774 81.559 19.6918 81.0501 20.7861V31.5893H75.2858V13.2659Z" fill="#181818"/>
<path d="M99.533 32.1619C96.021 32.1619 93.2598 31.3221 91.2493 29.6424C89.2388 27.9373 88.2336 25.5578 88.2336 22.5039C88.2336 19.4755 89.1243 17.0832 90.9058 15.3272C92.7127 13.5712 95.283 12.6933 98.6169 12.6933C100.805 12.6933 102.663 13.1004 104.19 13.9148C105.717 14.7292 106.875 15.8617 107.664 17.3123C108.453 18.7374 108.847 20.3535 108.847 22.1604V24.489H93.7306C94.1378 26.8303 96.3264 28.0009 100.297 28.0009C101.467 28.0009 102.676 27.8992 103.923 27.6956C105.17 27.492 106.252 27.212 107.168 26.8557V30.9022C106.277 31.2839 105.132 31.5893 103.732 31.8183C102.332 32.0474 100.933 32.1619 99.533 32.1619ZM103.389 20.7479C103.312 19.5264 102.854 18.5847 102.014 17.9231C101.175 17.2359 100.017 16.8924 98.5405 16.8924C97.0899 16.8924 95.9447 17.2359 95.1049 17.9231C94.265 18.6102 93.807 19.5518 93.7306 20.7479H103.389Z" fill="#181818"/>
<path d="M120.663 32.1619C117.151 32.1619 114.39 31.3221 112.379 29.6424C110.369 27.9373 109.363 25.5578 109.363 22.5039C109.363 19.4755 110.254 17.0832 112.036 15.3272C113.842 13.5712 116.413 12.6933 119.747 12.6933C121.935 12.6933 123.793 13.1004 125.32 13.9148C126.847 14.7292 128.005 15.8617 128.794 17.3123C129.583 18.7374 129.977 20.3535 129.977 22.1604V24.489H114.86C115.268 26.8303 117.456 28.0009 121.426 28.0009C122.597 28.0009 123.806 27.8992 125.053 27.6956C126.3 27.492 127.381 27.212 128.298 26.8557V30.9022C127.407 31.2839 126.262 31.5893 124.862 31.8183C123.462 32.0474 122.063 32.1619 120.663 32.1619ZM124.518 20.7479C124.442 19.5264 123.984 18.5847 123.144 17.9231C122.304 17.2359 121.146 16.8924 119.67 16.8924C118.22 16.8924 117.075 17.2359 116.235 17.9231C115.395 18.6102 114.937 19.5518 114.86 20.7479H124.518Z" fill="#181818"/>
<path d="M131.257 13.2659H136.83V15.5181C137.67 14.5765 138.662 13.8766 139.808 13.4186C140.978 12.935 142.2 12.6933 143.472 12.6933C145.966 12.6933 147.824 13.3677 149.046 14.7165C150.293 16.0398 150.916 17.834 150.916 20.099V31.5893H145.152V20.7479C145.152 18.3812 144.058 17.1978 141.869 17.1978C140.902 17.1978 139.998 17.4395 139.159 17.9231C138.319 18.3812 137.606 19.0683 137.021 19.9845V31.5893H131.257V13.2659Z" fill="#181818"/>
<path d="M156.002 10.441C155.112 10.441 154.361 10.1483 153.75 9.563C153.139 8.97767 152.834 8.23964 152.834 7.34892C152.834 6.48365 153.139 5.75835 153.75 5.17301C154.361 4.56223 155.112 4.25684 156.002 4.25684C156.893 4.25684 157.644 4.56223 158.254 5.17301C158.865 5.75835 159.171 6.48365 159.171 7.34892C159.171 8.23964 158.865 8.97767 158.254 9.563C157.644 10.1483 156.893 10.441 156.002 10.441ZM153.101 13.2659H158.903V31.5893H153.101V13.2659Z" fill="#181818"/>
<path d="M168.734 32.1619C167.36 32.1619 165.884 32.0092 164.306 31.7038C162.754 31.4239 161.532 31.0167 160.642 30.4822V25.9777C161.66 26.5885 162.881 27.0848 164.306 27.4665C165.731 27.8483 167.055 28.0391 168.276 28.0391C169.32 28.0391 170.083 27.9501 170.567 27.7719C171.05 27.5938 171.292 27.2629 171.292 26.7794C171.292 26.3976 171.152 26.0923 170.872 25.8632C170.592 25.6087 170.16 25.3924 169.574 25.2143C169.014 25.0107 168.073 24.718 166.749 24.3363C165.197 23.8782 163.975 23.4201 163.085 22.962C162.219 22.4785 161.558 21.8804 161.1 21.1678C160.667 20.4553 160.451 19.5391 160.451 18.4193C160.451 16.5106 161.201 15.0855 162.703 14.1439C164.23 13.1768 166.291 12.6933 168.887 12.6933C170.16 12.6933 171.47 12.8332 172.819 13.1132C174.193 13.3677 175.249 13.7112 175.987 14.1439V18.5338C175.249 18.0503 174.282 17.6558 173.086 17.3505C171.916 17.0451 170.77 16.8924 169.651 16.8924C168.607 16.8924 167.793 16.9942 167.207 17.1978C166.648 17.4014 166.368 17.7831 166.368 18.343C166.368 18.8265 166.635 19.1955 167.169 19.45C167.729 19.7045 168.76 20.0226 170.261 20.4044L171.025 20.5952C172.628 21.0279 173.875 21.5114 174.766 22.0458C175.657 22.5548 176.28 23.1783 176.636 23.9164C177.018 24.6289 177.209 25.5324 177.209 26.6267C177.209 28.3063 176.484 29.6551 175.033 30.6731C173.582 31.6656 171.483 32.1619 168.734 32.1619Z" fill="#181818"/>
<path d="M178.541 3.37885H184.306V15.3654C185.171 14.4747 186.151 13.813 187.245 13.3804C188.339 12.9223 189.51 12.6933 190.757 12.6933C193.251 12.6933 195.109 13.3677 196.33 14.7165C197.577 16.0398 198.201 17.834 198.201 20.099V31.5893H192.437V20.7479C192.437 18.3812 191.342 17.1978 189.154 17.1978C188.187 17.1978 187.283 17.4395 186.443 17.9231C185.604 18.3812 184.891 19.0683 184.306 19.9845V31.5893H178.541V3.37885Z" fill="#181818"/>
<path fill-rule="evenodd" clip-rule="evenodd" d="M29.868 8.77997C29.868 13.629 25.9371 17.5599 21.088 17.5599C16.239 17.5599 12.308 13.629 12.308 8.77997C12.308 3.93093 16.239 0 21.088 0C25.9371 0 29.868 3.93093 29.868 8.77997ZM0.664829 16.9219C10.2304 16.2771 18.5671 23.4389 19.3436 33.0246C19.4241 34.018 19.4202 34.9987 19.338 35.9597C9.77248 36.6045 1.43578 29.4428 0.659276 19.857C0.578811 18.8636 0.582658 17.883 0.664829 16.9219ZM25.5271 35.6241C35.1128 34.8476 42.2745 26.5109 41.6298 16.9454C40.6688 16.8632 39.6881 16.8594 38.6947 16.9399C29.109 17.7164 21.9473 26.053 22.592 35.6186C23.5531 35.7007 24.5338 35.7046 25.5271 35.6241Z" fill="#181818"/>
</svg>
