<svg width="76" height="80" viewBox="0 0 76 80" fill="none" xmlns="http://www.w3.org/2000/svg">
<path d="M16.0941 50.58H16.8425C17.3969 50.58 17.8127 50.5 18.0899 50.34C18.3856 50.18 18.5334 49.93 18.5334 49.59V31.41C18.5334 31.07 18.3856 30.82 18.0899 30.66C17.8127 30.5 17.3969 30.42 16.8425 30.42H16.0941V30H21.8599V30.42H21.1114C20.557 30.42 20.132 30.5 19.8363 30.66C19.5591 30.82 19.4205 31.07 19.4205 31.41V49.29C19.4205 49.63 19.5591 49.88 19.8363 50.04C20.132 50.2 20.557 50.28 21.1114 50.28H26.7386C27.4409 50.28 27.9583 49.82 28.291 48.9C28.6421 47.96 28.8454 47 28.9008 46.02H29.2612L28.8731 51H16.0941V50.58Z" fill="white"/>
<path d="M44.1855 46.02L43.7974 51H30.3808V50.58H31.1292C31.6837 50.58 32.0995 50.5 32.3767 50.34C32.6723 50.18 32.8202 49.93 32.8202 49.59V31.41C32.8202 31.07 32.6723 30.82 32.3767 30.66C32.0995 30.5 31.6837 30.42 31.1292 30.42H30.3808V30H43.7974V34.62H43.437C43.4001 33.58 43.2522 32.67 42.9935 31.89C42.7348 31.11 42.2451 30.72 41.5243 30.72H33.7072V39.45H39.6116C40.1476 39.45 40.4987 39.2 40.665 38.7C40.8313 38.2 40.9514 37.42 41.0254 36.36H41.4134V43.26H41.0254C40.9514 42.2 40.8313 41.42 40.665 40.92C40.4987 40.42 40.1476 40.17 39.6116 40.17H33.7072V50.28H41.6629C42.3652 50.28 42.8826 49.82 43.2153 48.9C43.5664 47.96 43.7697 47 43.8251 46.02H44.1855Z" fill="white"/>
<path d="M59.6427 46.02L59.2547 51H45.8381V50.58H46.5865C47.1409 50.58 47.5567 50.5 47.8339 50.34C48.1296 50.18 48.2775 49.93 48.2775 49.59V31.41C48.2775 31.07 48.1296 30.82 47.8339 30.66C47.5567 30.5 47.1409 30.42 46.5865 30.42H45.8381V30H59.2547V34.62H58.8943C58.8573 33.58 58.7095 32.67 58.4508 31.89C58.1921 31.11 57.7023 30.72 56.9816 30.72H49.1645V39.45H55.0689C55.6048 39.45 55.956 39.2 56.1223 38.7C56.2886 38.2 56.4087 37.42 56.4826 36.36H56.8707V43.26H56.4826C56.4087 42.2 56.2886 41.42 56.1223 40.92C55.956 40.42 55.6048 40.17 55.0689 40.17H49.1645V50.28H57.1202C57.8224 50.28 58.3399 49.82 58.6725 48.9C59.0237 47.96 59.2269 47 59.2824 46.02H59.6427Z" fill="white"/>
<rect x="0.5" y="0.5" width="74.7368" height="79" rx="37.3684" stroke="white" stroke-dasharray="4 4"/>
</svg>
