<svg width="72" height="26" viewBox="0 0 72 26" fill="none" xmlns="http://www.w3.org/2000/svg">
<path d="M7.8335 16.4792L10.8752 15.7083L12.146 19.625L7.8335 16.4792ZM14.8335 11.4167H9.47933L7.8335 6.375L6.18766 11.4167H0.833496L5.16683 14.5417L3.52099 19.5833L7.85433 16.4583L10.521 14.5417L14.8335 11.4167Z" fill="#219653"/>
<path d="M23.4097 8.46875V17H21.6577V8.46875H23.4097ZM26.0347 8.46875V9.8457H19.0737V8.46875H26.0347ZM28.2085 12.043V17H26.521V10.6602H28.1089L28.2085 12.043ZM30.1187 10.6191L30.0894 12.1836C30.0073 12.1719 29.9077 12.1621 29.7905 12.1543C29.6772 12.1426 29.5737 12.1367 29.48 12.1367C29.2417 12.1367 29.0347 12.168 28.8589 12.2305C28.687 12.2891 28.5425 12.377 28.4253 12.4941C28.312 12.6113 28.2261 12.7539 28.1675 12.9219C28.1128 13.0898 28.0815 13.2812 28.0737 13.4961L27.7339 13.3906C27.7339 12.9805 27.7749 12.6035 27.8569 12.2598C27.939 11.9121 28.0581 11.6094 28.2144 11.3516C28.3745 11.0938 28.5698 10.8945 28.8003 10.7539C29.0308 10.6133 29.2944 10.543 29.5913 10.543C29.6851 10.543 29.7808 10.5508 29.8784 10.5664C29.9761 10.5781 30.0562 10.5957 30.1187 10.6191ZM34.6655 15.4824V10.6602H36.353V17H34.7651L34.6655 15.4824ZM34.853 14.1816L35.3511 14.1699C35.3511 14.5918 35.3022 14.9844 35.2046 15.3477C35.1069 15.707 34.9604 16.0195 34.7651 16.2852C34.5698 16.5469 34.3237 16.752 34.0269 16.9004C33.73 17.0449 33.3804 17.1172 32.978 17.1172C32.6694 17.1172 32.3843 17.0742 32.1226 16.9883C31.8647 16.8984 31.6421 16.7598 31.4546 16.5723C31.271 16.3809 31.1265 16.1367 31.021 15.8398C30.9194 15.5391 30.8687 15.1777 30.8687 14.7559V10.6602H32.5562V14.7676C32.5562 14.9551 32.5776 15.1133 32.6206 15.2422C32.6675 15.3711 32.7319 15.4766 32.814 15.5586C32.896 15.6406 32.9917 15.6992 33.1011 15.7344C33.2144 15.7695 33.3394 15.7871 33.4761 15.7871C33.8237 15.7871 34.0972 15.7168 34.2964 15.5762C34.4995 15.4355 34.6421 15.2441 34.7241 15.002C34.8101 14.7559 34.853 14.4824 34.853 14.1816ZM41.0698 15.248C41.0698 15.127 41.0347 15.0176 40.9644 14.9199C40.894 14.8223 40.7632 14.7324 40.5718 14.6504C40.3843 14.5645 40.1128 14.4863 39.7573 14.416C39.437 14.3457 39.1382 14.2578 38.8608 14.1523C38.5874 14.043 38.3491 13.9121 38.146 13.7598C37.9468 13.6074 37.7905 13.4277 37.6772 13.2207C37.564 13.0098 37.5073 12.7695 37.5073 12.5C37.5073 12.2344 37.564 11.9844 37.6772 11.75C37.7944 11.5156 37.9604 11.3086 38.1753 11.1289C38.394 10.9453 38.6597 10.8027 38.9722 10.7012C39.2886 10.5957 39.644 10.543 40.0386 10.543C40.5894 10.543 41.062 10.6309 41.4565 10.8066C41.855 10.9824 42.1597 11.2246 42.3706 11.5332C42.5854 11.8379 42.6929 12.1855 42.6929 12.5762H41.0054C41.0054 12.4121 40.9702 12.2656 40.8999 12.1367C40.8335 12.0039 40.728 11.9004 40.5835 11.8262C40.4429 11.748 40.2593 11.709 40.0327 11.709C39.8452 11.709 39.6831 11.7422 39.5464 11.8086C39.4097 11.8711 39.3042 11.957 39.23 12.0664C39.1597 12.1719 39.1245 12.2891 39.1245 12.418C39.1245 12.5156 39.144 12.6035 39.1831 12.6816C39.2261 12.7559 39.2944 12.8242 39.3882 12.8867C39.4819 12.9492 39.603 13.0078 39.7515 13.0625C39.9038 13.1133 40.0913 13.1602 40.314 13.2031C40.771 13.2969 41.1792 13.4199 41.5386 13.5723C41.8979 13.7207 42.1831 13.9238 42.394 14.1816C42.605 14.4355 42.7104 14.7695 42.7104 15.1836C42.7104 15.4648 42.6479 15.7227 42.5229 15.957C42.3979 16.1914 42.2183 16.3965 41.9839 16.5723C41.7495 16.7441 41.4683 16.8789 41.1401 16.9766C40.8159 17.0703 40.4507 17.1172 40.0444 17.1172C39.4546 17.1172 38.9546 17.0117 38.5444 16.8008C38.1382 16.5898 37.8296 16.3223 37.6187 15.998C37.4116 15.6699 37.3081 15.334 37.3081 14.9902H38.9077C38.9155 15.2207 38.9741 15.4062 39.0835 15.5469C39.1968 15.6875 39.3394 15.7891 39.5112 15.8516C39.687 15.9141 39.8765 15.9453 40.0796 15.9453C40.2983 15.9453 40.48 15.916 40.6245 15.8574C40.769 15.7949 40.8784 15.7129 40.9526 15.6113C41.0308 15.5059 41.0698 15.3848 41.0698 15.248ZM46.9116 10.6602V11.8555H43.2202V10.6602H46.9116ZM44.1343 9.0957H45.8218V15.0898C45.8218 15.2734 45.8452 15.4141 45.8921 15.5117C45.9429 15.6094 46.0171 15.6777 46.1147 15.7168C46.2124 15.752 46.3354 15.7695 46.4839 15.7695C46.5894 15.7695 46.6831 15.7656 46.7651 15.7578C46.8511 15.7461 46.9233 15.7344 46.9819 15.7227L46.9878 16.9648C46.8433 17.0117 46.687 17.0488 46.519 17.0762C46.3511 17.1035 46.1655 17.1172 45.9624 17.1172C45.5913 17.1172 45.2671 17.0566 44.9897 16.9355C44.7163 16.8105 44.5054 16.6113 44.3569 16.3379C44.2085 16.0645 44.1343 15.7051 44.1343 15.2598V9.0957ZM49.5601 11.8789V19.4375H47.8726V10.6602H49.437L49.5601 11.8789ZM53.5737 13.7598V13.8828C53.5737 14.3438 53.519 14.7715 53.4097 15.166C53.3042 15.5605 53.1479 15.9043 52.9409 16.1973C52.7339 16.4863 52.4761 16.7129 52.1675 16.877C51.8628 17.0371 51.5112 17.1172 51.1128 17.1172C50.7261 17.1172 50.3901 17.0391 50.105 16.8828C49.8198 16.7266 49.5796 16.5078 49.3843 16.2266C49.1929 15.9414 49.0386 15.6113 48.9214 15.2363C48.8042 14.8613 48.7144 14.459 48.6519 14.0293V13.707C48.7144 13.2461 48.8042 12.8242 48.9214 12.4414C49.0386 12.0547 49.1929 11.7207 49.3843 11.4395C49.5796 11.1543 49.8179 10.9336 50.0991 10.7773C50.3843 10.6211 50.7183 10.543 51.1011 10.543C51.5034 10.543 51.8569 10.6191 52.1616 10.7715C52.4702 10.9238 52.728 11.1426 52.9351 11.4277C53.146 11.7129 53.3042 12.0527 53.4097 12.4473C53.519 12.8418 53.5737 13.2793 53.5737 13.7598ZM51.8804 13.8828V13.7598C51.8804 13.4902 51.8569 13.2422 51.8101 13.0156C51.7671 12.7852 51.6968 12.584 51.5991 12.4121C51.5054 12.2402 51.3804 12.1074 51.2241 12.0137C51.0718 11.916 50.8862 11.8672 50.6675 11.8672C50.437 11.8672 50.2397 11.9043 50.0757 11.9785C49.9155 12.0527 49.7847 12.1602 49.6831 12.3008C49.5815 12.4414 49.5054 12.6094 49.4546 12.8047C49.4038 13 49.3726 13.2207 49.3608 13.4668V14.2812C49.3804 14.5703 49.4351 14.8301 49.5249 15.0605C49.6147 15.2871 49.7534 15.4668 49.9409 15.5996C50.1284 15.7324 50.3745 15.7988 50.6792 15.7988C50.9019 15.7988 51.0894 15.75 51.2417 15.6523C51.394 15.5508 51.5171 15.4121 51.6108 15.2363C51.7085 15.0605 51.7769 14.8574 51.8159 14.627C51.8589 14.3965 51.8804 14.1484 51.8804 13.8828ZM56.4038 10.6602V17H54.7104V10.6602H56.4038ZM54.605 9.00781C54.605 8.76172 54.6909 8.55859 54.8628 8.39844C55.0347 8.23828 55.2651 8.1582 55.5542 8.1582C55.8394 8.1582 56.0679 8.23828 56.2397 8.39844C56.4155 8.55859 56.5034 8.76172 56.5034 9.00781C56.5034 9.25391 56.4155 9.45703 56.2397 9.61719C56.0679 9.77734 55.8394 9.85742 55.5542 9.85742C55.2651 9.85742 55.0347 9.77734 54.8628 9.61719C54.6909 9.45703 54.605 9.25391 54.605 9.00781ZM59.5796 8V17H57.8862V8H59.5796ZM60.7046 13.8945V13.7715C60.7046 13.3066 60.771 12.8789 60.9038 12.4883C61.0366 12.0938 61.23 11.752 61.4839 11.4629C61.7378 11.1738 62.0503 10.9492 62.4214 10.7891C62.7925 10.625 63.2183 10.543 63.6987 10.543C64.1792 10.543 64.6069 10.625 64.9819 10.7891C65.3569 10.9492 65.6714 11.1738 65.9253 11.4629C66.1831 11.752 66.3784 12.0938 66.5112 12.4883C66.644 12.8789 66.7104 13.3066 66.7104 13.7715V13.8945C66.7104 14.3555 66.644 14.7832 66.5112 15.1777C66.3784 15.5684 66.1831 15.9102 65.9253 16.2031C65.6714 16.4922 65.3589 16.7168 64.9878 16.877C64.6167 17.0371 64.1909 17.1172 63.7104 17.1172C63.23 17.1172 62.8022 17.0371 62.4272 16.877C62.0562 16.7168 61.7417 16.4922 61.4839 16.2031C61.23 15.9102 61.0366 15.5684 60.9038 15.1777C60.771 14.7832 60.7046 14.3555 60.7046 13.8945ZM62.3921 13.7715V13.8945C62.3921 14.1602 62.4155 14.4082 62.4624 14.6387C62.5093 14.8691 62.5835 15.0723 62.6851 15.248C62.7905 15.4199 62.9272 15.5547 63.0952 15.6523C63.2632 15.75 63.4683 15.7988 63.7104 15.7988C63.9448 15.7988 64.146 15.75 64.314 15.6523C64.4819 15.5547 64.6167 15.4199 64.7183 15.248C64.8198 15.0723 64.894 14.8691 64.9409 14.6387C64.9917 14.4082 65.0171 14.1602 65.0171 13.8945V13.7715C65.0171 13.5137 64.9917 13.2715 64.9409 13.0449C64.894 12.8145 64.8179 12.6113 64.7124 12.4355C64.6108 12.2559 64.4761 12.1152 64.3081 12.0137C64.1401 11.9121 63.937 11.8613 63.6987 11.8613C63.4604 11.8613 63.2573 11.9121 63.0894 12.0137C62.9253 12.1152 62.7905 12.2559 62.6851 12.4355C62.5835 12.6113 62.5093 12.8145 62.4624 13.0449C62.4155 13.2715 62.3921 13.5137 62.3921 13.7715ZM70.853 10.6602V11.8555H67.1616V10.6602H70.853ZM68.0757 9.0957H69.7632V15.0898C69.7632 15.2734 69.7866 15.4141 69.8335 15.5117C69.8843 15.6094 69.9585 15.6777 70.0562 15.7168C70.1538 15.752 70.2769 15.7695 70.4253 15.7695C70.5308 15.7695 70.6245 15.7656 70.7065 15.7578C70.7925 15.7461 70.8647 15.7344 70.9233 15.7227L70.9292 16.9648C70.7847 17.0117 70.6284 17.0488 70.4604 17.0762C70.2925 17.1035 70.1069 17.1172 69.9038 17.1172C69.5327 17.1172 69.2085 17.0566 68.9312 16.9355C68.6577 16.8105 68.4468 16.6113 68.2983 16.3379C68.1499 16.0645 68.0757 15.7051 68.0757 15.2598V9.0957Z" fill="#1A2E35"/>
</svg>
