<svg width="58" height="61" viewBox="0 0 58 61" fill="none" xmlns="http://www.w3.org/2000/svg">
<path d="M58 31.8818C53.7977 31.8818 49.6366 31.0574 45.7541 29.455C41.8717 27.8527 38.3441 25.5043 35.3726 22.5438C32.4011 19.5833 30.044 16.0687 28.4359 12.2008C26.8277 8.333 26 4.18715 26 0.000493176L58 0.000493556L58 31.8818Z" fill="#FFEED9"/>
<path d="M19.25 40C25.5322 40 30.625 34.9072 30.625 28.625C30.625 22.3428 25.5322 17.25 19.25 17.25C12.9678 17.25 7.875 22.3428 7.875 28.625C7.875 34.9072 12.9678 40 19.25 40Z" stroke="black" stroke-width="3" stroke-miterlimit="10"/>
<path d="M33.9937 17.6656C34.9992 17.3929 36.0362 17.2532 37.078 17.25C40.0949 17.25 42.9881 18.4484 45.1214 20.5817C47.2546 22.7149 48.453 25.6082 48.453 28.625C48.453 31.6418 47.2546 34.5351 45.1214 36.6683C42.9881 38.8016 40.0949 40 37.078 40" stroke="black" stroke-width="3" stroke-linecap="round" stroke-linejoin="round"/>
<path d="M3.5 48.1811C5.27613 45.6536 7.63446 43.5907 10.3758 42.1666C13.1171 40.7425 16.1609 39.999 19.25 39.999C22.3391 39.999 25.3829 40.7425 28.1242 42.1666C30.8655 43.5907 33.2239 45.6536 35 48.1811" stroke="black" stroke-width="3" stroke-linecap="round" stroke-linejoin="round"/>
<path d="M37.0781 40C40.1675 39.9981 43.2119 40.7406 45.9535 42.1647C48.6951 43.5888 51.0532 45.6526 52.8281 48.1813" stroke="black" stroke-width="3" stroke-linecap="round" stroke-linejoin="round"/>
</svg>
