<svg width="97" height="97" viewBox="0 0 97 97" fill="none" xmlns="http://www.w3.org/2000/svg">
<circle cx="48.334" cy="48.3389" r="48" fill="#FCF1DE"/>
<path d="M49.18 35.0728L47.5684 41.9517L49.8089 41.6765" fill="#FFECB3"/>
<path d="M46.5449 42.8954L48.4317 34.9159C48.5496 34.4835 48.9427 34.2476 49.3751 34.3263C49.8075 34.4442 50.0434 34.8373 49.9647 35.2697L48.5889 41.0873L49.7289 40.93C50.1613 40.8907 50.5544 41.1659 50.5937 41.5983C50.633 42.0307 50.3578 42.4237 49.9254 42.4631L46.5449 42.8954Z" fill="#37474F"/>
<path d="M64.2754 32.6755L68.1276 41.5592L66.1229 42.2274" fill="#FFECB3"/>
<path d="M66.1233 43.0136C65.8089 43.0136 65.4944 42.817 65.3765 42.5026C65.2193 42.1095 65.4551 41.6378 65.8482 41.5199L67.0274 41.1268L63.529 33.0293C63.3718 32.6362 63.529 32.1645 63.9221 32.0073C64.3152 31.85 64.7869 32.0073 64.9441 32.4004L69.1108 42.0702L66.3199 43.0136C66.3199 43.0136 66.202 43.0136 66.1233 43.0136Z" fill="#37474F"/>
<path d="M42.3838 54.2164C42.3838 49.4994 44.5851 45.2935 48.0049 42.5419C45.4498 40.4979 42.2266 39.2793 38.7281 39.2793C30.4734 39.2793 23.791 45.9617 23.791 54.2164C23.791 62.4711 30.4734 69.1535 38.7281 69.1535C42.2266 69.1535 45.4498 67.935 48.0049 65.891C44.5851 63.1787 42.3838 58.9727 42.3838 54.2164Z" fill="#FFAB00"/>
<path d="M38.7291 69.9397C30.0813 69.9397 23.0059 62.9036 23.0059 54.2164C23.0059 45.5686 30.042 38.4932 38.7291 38.4932C42.3062 38.4932 45.6867 39.6724 48.5169 41.913L49.303 42.5419L48.5169 43.1708C45.1364 45.8831 43.171 49.8925 43.171 54.2164C43.171 58.5403 45.0971 62.5891 48.5169 65.2621L49.303 65.891L48.5169 66.5199C45.6867 68.7605 42.3062 69.9397 38.7291 69.9397ZM38.7291 40.1048C30.9461 40.1048 24.5782 46.4334 24.5782 54.2558C24.5782 62.0388 30.9068 68.4067 38.7291 68.4067C41.6379 68.4067 44.3895 67.5419 46.748 65.891C43.4461 62.9036 41.5986 58.7369 41.5986 54.2558C41.5986 49.7746 43.4854 45.6079 46.748 42.6205C44.3895 40.9696 41.6379 40.1048 38.7291 40.1048Z" fill="#37474F"/>
<path d="M57.2787 39.3186C53.7803 39.3186 50.557 40.5372 48.002 42.5812C51.4218 45.3328 53.623 49.5387 53.623 54.2557C53.623 58.9727 51.4218 63.1787 48.002 65.9303C50.557 67.9743 53.7803 69.1928 57.2787 69.1928C65.5334 69.1928 72.2158 62.5104 72.2158 54.2557C72.2158 46.001 65.5334 39.3186 57.2787 39.3186Z" fill="#FFECB3"/>
<path d="M57.277 69.9397C53.7 69.9397 50.3195 68.7605 47.4893 66.5199L46.7031 65.891L47.4893 65.2621C50.8698 62.5498 52.8352 58.5403 52.8352 54.2164C52.8352 49.8925 50.9091 45.8438 47.4893 43.1708L46.7031 42.5419L47.4893 41.913C50.2802 39.6724 53.6607 38.4932 57.277 38.4932C65.9248 38.4932 73.0003 45.5293 73.0003 54.2164C73.0003 62.9036 65.9641 69.9397 57.277 69.9397ZM49.2582 65.8517C51.6166 67.5026 54.3682 68.3674 57.277 68.3674C65.0601 68.3674 71.428 62.0388 71.428 54.2164C71.428 46.4334 65.0994 40.0655 57.277 40.0655C54.3682 40.0655 51.6166 40.9303 49.2582 42.5812C52.56 45.5686 54.4075 49.7353 54.4075 54.2164C54.4075 58.6976 52.56 62.8643 49.2582 65.8517Z" fill="#37474F"/>
<path d="M39.043 45.1753C43.3632 45.1753 46.8654 41.0747 46.8654 36.0165C46.8654 30.9582 43.3632 26.8577 39.043 26.8577C34.7229 26.8577 31.2207 30.9582 31.2207 36.0165C31.2207 41.0747 34.7229 45.1753 39.043 45.1753Z" fill="#FFECB3"/>
<path d="M39.0421 46.001C34.2858 46.001 30.4336 41.5199 30.4336 36.0561C30.4336 30.5529 34.2858 26.1111 39.0421 26.1111C43.7984 26.1111 47.6506 30.5922 47.6506 36.0561C47.6506 41.5199 43.7591 46.001 39.0421 46.001ZM39.0421 27.6441C35.1506 27.6441 32.0059 31.4177 32.0059 36.0168C32.0059 40.6551 35.1506 44.3894 39.0421 44.3894C42.9336 44.3894 46.0783 40.6158 46.0783 36.0168C46.0783 31.4177 42.8943 27.6441 39.0421 27.6441Z" fill="#37474F"/>
<path d="M31.2207 36.0165C31.2207 36.0165 38.5713 36.6062 40.5761 31.5747C40.5761 31.5747 42.1091 35.9379 46.8654 36.0165" fill="#FFAB00"/>
<path d="M31.9287 36.8418C31.4963 36.8418 31.1818 36.8025 31.1425 36.8025C30.7101 36.7632 30.3956 36.3701 30.435 35.9377C30.4743 35.5053 30.828 35.1909 31.2604 35.2302C31.339 35.2302 38.0608 35.7019 39.8296 31.26C39.9475 30.9456 40.262 30.749 40.5765 30.749C40.8909 30.749 41.2054 30.9456 41.284 31.26C41.3233 31.4173 42.7384 35.1122 46.8265 35.1908C47.2589 35.1908 47.6126 35.5446 47.6126 35.977C47.6126 36.4094 47.2589 36.7239 46.8265 36.7632C43.4067 36.6846 41.4806 34.6405 40.5372 33.2254C38.2966 36.488 33.7762 36.8418 31.9287 36.8418Z" fill="#37474F"/>
<path d="M56.9649 45.1753C61.2851 45.1753 64.7872 41.0747 64.7872 36.0165C64.7872 30.9582 61.2851 26.8577 56.9649 26.8577C52.6448 26.8577 49.1426 30.9582 49.1426 36.0165C49.1426 41.0747 52.6448 45.1753 56.9649 45.1753Z" fill="#FFECB3"/>
<path d="M56.964 46.001C52.2077 46.001 48.3555 41.5199 48.3555 36.0561C48.3555 30.5529 52.2077 26.1111 56.964 26.1111C61.7203 26.1111 65.5725 30.5922 65.5725 36.0561C65.5725 41.5199 61.7203 46.001 56.964 46.001ZM56.964 27.6441C53.0725 27.6441 49.9278 31.4177 49.9278 36.0168C49.9278 40.6551 53.0725 44.3894 56.964 44.3894C60.8555 44.3894 64.0001 40.6158 64.0001 36.0168C64.0001 31.4177 60.8555 27.6441 56.964 27.6441Z" fill="#37474F"/>
<path d="M64.7892 36.0163C64.7892 36.0163 57.4386 36.6059 55.4338 31.5745C55.4338 31.5745 53.9008 35.9377 49.1445 36.0163" fill="#FFAB00"/>
<path d="M64.0805 36.8418C62.233 36.8418 57.7518 36.488 55.472 33.2647C54.5286 34.7192 52.6418 36.7632 49.1826 36.8025C48.7503 36.8025 48.3965 36.4487 48.3965 36.0163C48.3965 35.5839 48.7503 35.2302 49.1826 35.2302C53.31 35.1515 54.6858 31.4566 54.7251 31.2993C54.843 30.9849 55.1182 30.7883 55.4327 30.7883C55.7471 30.7883 56.0223 30.9849 56.1795 31.26C57.9484 35.6625 64.6701 35.2302 64.7487 35.2302C65.1811 35.1908 65.5742 35.5053 65.5742 35.9377C65.6135 36.3701 65.299 36.7632 64.8666 36.7632C64.788 36.8418 64.5128 36.8418 64.0805 36.8418Z" fill="#37474F"/>
<path d="M46.5882 51.4646C47.1779 51.4646 47.6889 51.8577 47.8854 52.408C47.8854 52.4473 47.964 52.4866 48.0033 52.4866C48.0426 52.4866 48.1212 52.4866 48.1212 52.408C48.3178 51.8577 48.8288 51.4646 49.4184 51.4646C50.1653 51.4646 50.7942 52.0542 50.7942 52.8404C50.7942 53.1155 50.7156 53.3907 50.5584 53.5872L48.0033 57.0071L45.4876 53.5872C45.3304 53.3514 45.2517 53.1155 45.2517 52.8404C45.2124 52.0542 45.8414 51.4646 46.5882 51.4646Z" fill="#FFAB00"/>
<path d="M48.0028 58.304L44.7796 53.9801C44.5437 53.6263 44.4258 53.2333 44.4258 52.8009C44.4258 51.6216 45.3692 50.6389 46.5877 50.6389C47.138 50.6389 47.6097 50.8355 48.0028 51.1892C48.3959 50.8355 48.8676 50.6389 49.4179 50.6389C50.5972 50.6389 51.5799 51.5823 51.5799 52.8009C51.5799 53.1939 51.4619 53.587 51.2654 53.9015L51.2261 54.0194L51.1082 54.098L48.0028 58.304ZM46.116 53.1546L48.0028 55.6704L49.9289 53.1153C49.9682 53.0367 50.0075 52.9188 50.0075 52.8009C50.0075 52.4864 49.7324 52.2112 49.4179 52.2112C49.1821 52.2112 48.9462 52.3685 48.8676 52.6043C48.7497 52.9581 48.3959 53.2333 48.0028 53.2333H47.8849C47.5311 53.194 47.2167 52.9581 47.0987 52.6043C47.0201 52.3685 46.8236 52.2112 46.5484 52.2112C46.234 52.2112 45.9588 52.4864 45.9588 52.8009C45.9588 52.8402 45.9588 52.8795 45.9588 52.9581L46.116 53.1546Z" fill="#37474F"/>
<path d="M45.8023 58.2648C45.6844 57.7145 45.4092 57.2035 45.0161 56.8104C44.3872 56.2208 43.4831 55.985 42.579 56.1029C39.8275 54.1768 36.0146 54.4912 33.6561 57.007C31.0617 59.7585 31.219 64.1218 33.9705 66.7161C36.5649 69.1532 40.535 69.1925 43.1687 66.8733C44.4658 69.2711 48.0036 67.4629 51.6199 68.6029C56.1404 70.018 57.9485 64.5541 57.0445 61.9205" fill="white"/>
<path d="M53.037 69.6252C52.4867 69.6252 51.9364 69.5465 51.3861 69.35C50.0103 68.9176 48.5952 68.9569 47.3373 68.9569C45.7257 68.9962 44.114 69.0355 43.0527 67.9742C40.1046 70.0182 36.1345 69.7824 33.4615 67.2667C30.3955 64.3972 30.2383 59.5229 33.1078 56.4569C35.6235 53.7839 39.7508 53.2729 42.8169 55.2777C43.8782 55.199 44.8609 55.5528 45.5685 56.2211C46.0795 56.6928 46.4332 57.361 46.5905 58.0685C46.6691 58.5009 46.3939 58.894 46.0008 59.0119C45.5685 59.0906 45.1754 58.8154 45.0574 58.4223C44.9788 57.9899 44.7823 57.6755 44.5071 57.4003C44.0747 56.9679 43.4458 56.8107 42.7383 56.8893C42.5417 56.9286 42.3452 56.85 42.1879 56.7714C39.7115 55.0418 36.331 55.3956 34.287 57.5968C32.0071 60.034 32.125 63.8862 34.5622 66.166C36.842 68.328 40.3405 68.3673 42.699 66.3233C42.8955 66.166 43.1313 66.0874 43.3672 66.1267C43.603 66.166 43.7996 66.3233 43.9175 66.5198C44.4285 67.4632 45.4505 67.4632 47.3373 67.4239C48.7131 67.3846 50.2854 67.3453 51.8971 67.8563C53.1942 68.2494 54.2556 68.0528 55.1203 67.188C56.3782 65.8909 56.7713 63.4931 56.3389 62.1959C56.1817 61.8028 56.4175 61.3311 56.8106 61.2132C57.2037 61.056 57.6754 61.2918 57.7933 61.6849C58.3829 63.4538 57.9505 66.5198 56.221 68.2887C55.3562 69.1535 54.2556 69.6252 53.037 69.6252Z" fill="#37474F"/>
<path d="M64.1953 62.5496C64.1953 66.048 61.3651 68.8389 57.8274 68.8389H41.5931C38.0946 68.8389 43.0082 66.048 43.0082 62.5496C43.0082 59.0511 45.8384 56.2603 49.3761 56.2603H57.8667C61.3651 56.2603 64.1953 59.0511 64.1953 62.5496Z" fill="#B0BEC5"/>
<path d="M57.8674 69.6251H41.5938C40.8863 69.6251 40.0215 69.5465 39.6677 68.8389C39.2746 68.0527 39.8249 67.2666 40.5718 66.2446C41.3187 65.1832 42.2621 63.8861 42.2621 62.5496C42.2621 58.6581 45.446 55.4741 49.4161 55.4741H57.9067C61.8375 55.4741 65.0608 58.6581 65.0608 62.5496C64.9822 66.4411 61.7982 69.6251 57.8674 69.6251ZM41.24 68.0527C41.3187 68.0527 41.4366 68.0527 41.5938 68.0527H57.8674C60.9334 68.0527 63.4492 65.5763 63.4492 62.5496C63.4492 59.5229 60.9728 57.0464 57.8674 57.0464H49.3768C46.3108 57.0464 43.7951 59.5229 43.7951 62.5496C43.7951 64.3971 42.6551 66.0087 41.8297 67.1487C41.6331 67.4238 41.3973 67.7776 41.24 68.0527Z" fill="#37474F"/>
<path d="M39.1959 63.689C38.0952 63.689 37.2305 62.785 37.2305 61.7236L39.1959 63.689Z" fill="#FFECB3"/>
<path d="M39.1949 64.4755C37.6619 64.4755 36.4434 63.2176 36.4434 61.7239C36.4434 61.2915 36.7971 60.9377 37.2295 60.9377C37.6619 60.9377 38.0157 61.2915 38.0157 61.7239C38.0157 62.3921 38.566 62.9032 39.1949 62.9032C39.6273 62.9032 39.9811 63.2569 39.9811 63.6893C39.9811 64.1217 39.6273 64.4755 39.1949 64.4755Z" fill="#37474F"/>
</svg>
