<svg width="156" height="86" viewBox="0 0 156 86" fill="none" xmlns="http://www.w3.org/2000/svg">
<g id="Group">
<path id="Vector" d="M88.2316 51.0404C87.8301 50.6698 87.4341 50.265 87.0514 49.8337C86.2804 48.9422 85.6212 48.0307 85.202 47.4246C85.1478 47.3417 85.0947 47.2609 85.0405 47.1802H86.8512L88.2316 51.0404Z" fill="#191919"/>
<path id="Vector_2" d="M101.588 79.0812C101.558 80.08 101.862 80.8697 102.104 81.3365C101.739 81.2746 101.241 81.1728 100.659 81.0157L100.48 80.966C99.0538 80.5644 97.7951 80.0147 96.7354 79.3245L102.151 76.7031C101.704 77.5438 101.604 78.5304 101.588 79.0812Z" fill="#191919"/>
<path id="Vector_3" d="M104.864 79.2512C104.863 79.2755 104.63 81.606 103.405 81.606C103.236 81.606 103.044 81.5596 102.835 81.4733C102.677 81.2576 102.102 80.3694 102.142 79.0996C102.16 78.5588 102.304 76.7437 103.452 76.0724L103.657 75.974C103.682 75.9673 103.735 75.9585 103.803 75.9585C103.967 75.9585 104.208 76.0072 104.421 76.2405C104.725 76.5735 105.049 77.3686 104.864 79.2512Z" fill="#191919"/>
<path id="Vector_4" d="M116.751 73.3475C116.655 73.9293 116.203 75.5895 115.443 75.5895C115.312 75.5895 115.168 75.5408 115.011 75.4457C114.434 74.8031 114.394 73.8297 114.434 72.9592C114.525 70.9528 115.866 70.0878 116.086 69.9595C116.13 69.9551 116.237 69.9606 116.345 70.0789C116.524 70.2659 116.919 70.9683 116.751 73.3475Z" fill="#191919"/>
<path id="Vector_5" d="M114.242 75.2926C113.559 75.1831 112.407 74.9663 111.152 74.6013C110.233 74.3204 109.356 73.9874 108.544 73.6092L114.584 70.6836C114.156 71.334 113.918 72.0905 113.88 72.9323C113.856 73.4377 113.811 74.4465 114.242 75.2926Z" fill="#191919"/>
<path id="Vector_6" d="M131.442 40.5804L129.385 52.0771C127.144 52.1756 124.168 52.3304 120.532 52.5406L127.555 39.6813C127.724 39.6658 127.898 39.6592 128.07 39.6592C129.677 39.6592 130.988 40.3227 131.442 40.5804Z" fill="#191919"/>
<path id="Vector_7" d="M148.465 56.4175C148.128 58.7258 141.724 59.2302 140.719 59.2966L140.099 58.3653C143.928 57.4207 145.274 56.1243 145.728 55.1984C145.908 54.8301 145.961 54.4961 145.961 54.2439C146.932 54.8379 147.774 55.568 148.465 56.4175Z" fill="#191919"/>
<path id="Vector_8" d="M121.293 66.815L103.487 75.438C103.385 75.4789 103.289 75.5264 103.203 75.5762L83.466 85.1316C82.9915 85.0774 79.9654 84.6494 78.0693 82.3299L104.26 65.7885C106.874 65.0507 109.452 64.678 111.925 64.678C115.398 64.678 118.043 65.4235 119.648 66.0484C120.222 66.2807 120.775 66.5373 121.292 66.8149L121.293 66.815Z" fill="#191919"/>
<path id="Vector_9" d="M155.999 62.1458C155.887 62.4776 154.005 66.9152 133.19 66.9152C129.795 66.9152 126.022 66.7958 121.984 66.5602C121.767 66.4241 121.073 66.0149 119.936 65.568C117.562 64.5958 114.881 64.1025 111.963 64.1025C107.835 64.1025 104.565 65.1057 104.111 65.2506C103.365 65.1986 91.545 64.2783 83.8621 58.894L83.7349 58.8055L73.8643 62.9954L71.4409 61.7411L79.866 56.5016L79.9323 56.4606L76.2779 41.7476L82.2904 43.1855C82.4763 43.6401 83.0514 44.9884 84.0248 46.6233H84.017L84.3345 47.1254C84.7139 47.7326 85.111 48.3144 85.5191 48.8553C86.0168 49.5179 86.5455 50.1417 87.0831 50.7047C87.6461 51.3119 88.1869 51.8119 88.6891 52.1868L88.9004 52.3439C88.98 52.4036 89.0574 52.4633 89.1393 52.5231C91.1214 53.972 93.2241 54.7087 95.3897 54.7087C95.9593 54.7087 96.5422 54.66 97.1096 54.5594C97.6262 54.524 109.877 53.7077 120.219 53.1137L129.576 52.6248L130.771 52.5762L130.847 52.5717C132.804 52.4954 134.021 52.4799 134.412 52.5197L134.45 52.5242L134.491 52.5175C134.503 52.5164 135.845 52.272 137.76 52.272C140.704 52.272 143.331 52.8383 145.363 53.9079C145.406 54.0627 145.472 54.4598 145.219 54.9708C144.797 55.8192 143.476 57.0215 139.582 57.9196L139.191 58.0103L140.429 59.8685L140.587 59.8619C140.905 59.8464 148.261 59.4714 148.975 56.6798C150.386 57.0768 156.036 58.8764 156 62.1461L155.999 62.1458Z" fill="#191919"/>
<path id="Vector_10" d="M80.1843 77.1927C80.1843 77.1927 80.0682 77.1817 79.8447 77.1629C79.6246 77.1385 79.2961 77.1054 78.8681 77.06C78.0164 76.9616 76.7721 76.8034 75.197 76.5557C73.6219 76.3046 71.7184 75.9694 69.5471 75.5126C67.3781 75.0514 64.9402 74.4851 62.3099 73.7573C59.6797 73.0306 56.8527 72.1656 53.9093 71.1127C52.4349 70.5961 50.9372 70.0143 49.4119 69.406C47.8954 68.78 46.3481 68.1307 44.8041 67.4095C41.7038 65.9904 38.5792 64.3511 35.5075 62.5129C32.4293 60.6834 29.4329 58.6084 26.5736 56.363C23.7112 54.121 21.03 51.649 18.5688 49.053C16.1089 46.4538 13.8845 43.7107 11.9611 40.9012C10.0298 38.0962 8.38167 35.237 7.01034 32.4363C6.67851 31.7306 6.33785 31.0404 6.02926 30.3491C5.73062 29.6534 5.43639 28.9676 5.1455 28.294C4.88115 27.6105 4.62011 26.938 4.36572 26.2765C4.30267 26.1117 4.23852 25.9469 4.17658 25.7832C4.11906 25.6162 4.06376 25.4514 4.00735 25.2888C3.89453 24.9603 3.78392 24.6351 3.67331 24.3132C3.56381 23.9914 3.4543 23.6728 3.34703 23.3587C3.2508 23.0401 3.15568 22.726 3.06056 22.4141C2.87474 21.7914 2.6845 21.1841 2.51636 20.5869C2.36151 19.9874 2.20888 19.4023 2.06175 18.8348C1.98875 18.5506 1.91243 18.2718 1.84607 17.9942C1.78413 17.7166 1.7244 17.4423 1.66578 17.1724C1.54632 16.6338 1.43129 16.1117 1.31956 15.6073C1.20563 15.1052 1.13263 14.6118 1.04193 14.1418C0.956766 13.6728 0.873808 13.2204 0.796382 12.7912C0.712318 12.361 0.668079 11.9462 0.606136 11.5546C0.495529 10.7693 0.386026 10.0703 0.30749 9.45973C0.241124 8.84806 0.185821 8.3271 0.139366 7.90568C0.0475611 7.06173 0 6.61157 0 6.61157C0 6.61157 0.0541976 7.06063 0.154851 7.90347C0.205732 8.3249 0.267672 8.84364 0.340673 9.45531C0.42584 10.0647 0.541981 10.7616 0.662537 11.5447C0.728904 11.9351 0.778677 12.3499 0.866056 12.778C0.949013 13.2082 1.03529 13.6562 1.1282 14.1263C1.22332 14.5942 1.30296 15.0842 1.42132 15.5852C1.53856 16.0862 1.65913 16.6061 1.783 17.1437C1.84494 17.4113 1.90798 17.6845 1.97324 17.9622C2.04292 18.2376 2.12256 18.5152 2.19888 18.7983C2.35263 19.3624 2.51081 19.9443 2.6734 20.5415C2.84816 21.1344 3.04394 21.7372 3.2364 22.3566C3.33484 22.6663 3.43328 22.9793 3.53283 23.2957C3.64344 23.6076 3.75626 23.925 3.86908 24.2436C3.98301 24.5621 4.09694 24.8862 4.21306 25.2125C4.27058 25.3762 4.3292 25.5388 4.38782 25.7036C4.45308 25.8651 4.51613 26.0288 4.58138 26.1936C4.84353 26.8484 5.10899 27.5165 5.38108 28.1945C5.67751 28.8626 5.97726 29.5428 6.28364 30.2319C6.59888 30.9166 6.94617 31.6001 7.28465 32.2992C8.68274 35.071 10.3529 37.8972 12.303 40.6633C14.2475 43.4352 16.4861 46.1339 18.9561 48.6857C21.4282 51.2352 24.1149 53.6565 26.9785 55.8499C29.8409 58.0443 32.833 60.0695 35.9055 61.8483C38.9727 63.6368 42.0885 65.2275 45.1766 66.5999C46.7163 67.299 48.256 67.9239 49.7669 68.5278C51.2855 69.1129 52.7754 69.6726 54.2433 70.1692C57.1723 71.1813 59.9849 72.0087 62.5998 72.6988C65.2135 73.3912 67.6346 73.9266 69.7883 74.3591C71.9419 74.7871 73.8321 75.0979 75.3883 75.3291C76.9468 75.5559 78.1745 75.6985 79.0096 75.7859C79.4266 75.8257 79.7474 75.8556 79.963 75.8744C80.1754 75.8921 80.2849 75.8999 80.2849 75.8999L80.296 75.901C80.651 75.9297 80.9176 76.2405 80.8888 76.5956C80.8601 76.9506 80.5493 77.2172 80.1942 77.1884C80.1909 77.194 80.1865 77.1927 80.1843 77.1927Z" fill="#191919"/>
<path id="Vector_11" d="M85.4881 72.4101C85.4881 72.4101 85.0236 72.3736 84.1752 72.2785C83.3257 72.1822 82.0825 72.0252 80.5097 71.7774C78.9369 71.5285 77.0323 71.1956 74.8642 70.7399C72.6963 70.282 70.2606 69.7168 67.6315 68.9923C65.0023 68.2689 62.1762 67.4062 59.2342 66.3565C57.7598 65.8411 56.2645 65.2604 54.7402 64.6564C53.2238 64.0315 51.6788 63.3867 50.1333 62.6644C47.033 61.2486 43.9095 59.6139 40.8378 57.7811C37.7619 55.956 34.7644 53.8854 31.904 51.6445C29.0415 49.4058 26.3603 46.9382 23.8983 44.3456C21.4373 41.7518 19.2129 39.0109 17.286 36.2048C15.3526 33.4031 13.7035 30.5474 12.3296 27.7489C11.9978 27.0433 11.656 26.3553 11.3463 25.664C11.0466 24.9683 10.7512 24.2825 10.4615 23.61C10.1971 22.9264 9.93495 22.2539 9.67946 21.5947C9.61641 21.4299 9.55226 21.2651 9.48921 21.1014C9.4317 20.9366 9.37529 20.7718 9.31998 20.607C9.20937 20.2818 9.09877 19.9566 8.98705 19.6347C8.87644 19.3129 8.76694 18.9954 8.65853 18.6802C8.5623 18.3616 8.46497 18.0475 8.37206 17.7356C8.18624 17.1129 7.996 16.5056 7.82676 15.9106C7.66969 15.3111 7.51704 14.7282 7.36994 14.1596C7.29694 13.8754 7.22062 13.5966 7.15315 13.319C7.09121 13.0414 7.03148 12.7671 6.97065 12.4972C6.85119 11.9586 6.73616 11.4365 6.62333 10.9332C6.5094 10.4311 6.43419 9.93775 6.34459 9.46986C6.25943 9.0009 6.17647 8.5485 6.09683 8.11935C6.01277 7.68909 5.96631 7.27429 5.90548 6.88274C5.79266 6.09744 5.68316 5.39838 5.60573 4.79005C5.53936 4.17838 5.48185 3.65743 5.4365 3.236C5.3447 2.39206 5.29492 1.94189 5.29492 1.94189C5.29492 1.94189 5.34912 2.39206 5.44867 3.2338C5.49955 3.65522 5.56149 4.17396 5.63228 4.78563C5.71634 5.39507 5.83248 6.09192 5.95304 6.87501C6.0183 7.26546 6.06696 7.68025 6.15656 8.1083C6.23951 8.53856 6.32579 8.98654 6.41648 9.45661C6.51161 9.92447 6.59125 10.4145 6.70847 10.9166C6.82461 11.4188 6.94518 11.9375 7.07015 12.4751C7.13209 12.7428 7.19514 13.016 7.25929 13.2936C7.32897 13.569 7.40861 13.8466 7.48272 14.1309C7.63646 14.6972 7.79354 15.2768 7.95502 15.8752C8.12979 16.468 8.32446 17.072 8.51582 17.6925C8.61204 18.0022 8.7127 18.3152 8.81115 18.6315C8.92175 18.9435 9.03347 19.2609 9.1474 19.5817C9.26022 19.9024 9.37414 20.2243 9.49027 20.5506C9.54778 20.7143 9.60641 20.8769 9.66503 21.0417C9.73029 21.2032 9.79334 21.3669 9.85859 21.5317C10.1207 22.1865 10.3862 22.8546 10.6561 23.5326C10.9514 24.2018 11.2523 24.8809 11.5564 25.5722C11.8706 26.2591 12.2179 26.9404 12.5552 27.6417C13.9511 30.4168 15.619 33.2439 17.5679 36.0135C19.5102 38.7886 21.7479 41.4909 24.2164 44.0469C26.6874 46.5997 29.373 49.0265 32.2366 51.2232C35.097 53.4221 38.0922 55.4508 41.1636 57.2346C44.2308 59.0265 47.3478 60.6215 50.4381 61.9985C51.9778 62.6997 53.5186 63.3269 55.0307 63.933C56.5493 64.5192 58.0403 65.0811 59.5079 65.5788C62.438 66.5942 65.2529 67.4249 67.8676 68.1173C70.4823 68.813 72.9058 69.3506 75.0603 69.7852C77.2149 70.2166 79.1052 70.5285 80.6659 70.7608C82.2266 70.9887 83.4555 71.1335 84.2929 71.222C85.1335 71.3094 85.5704 71.3382 85.5704 71.3382C85.8668 71.3592 86.0925 71.6158 86.0715 71.9122C86.0504 72.2086 85.7938 72.4343 85.4974 72.4133H85.493L85.4881 72.4101Z" fill="#191919"/>
<path id="Vector_12" d="M124.385 41.7556C124.385 41.7556 117.39 41.7556 106.989 40.5976C104.39 40.3056 101.579 39.9494 98.6185 39.4937C95.6564 39.0402 92.5417 38.4982 89.3394 37.8512C86.1364 37.1997 82.8436 36.4431 79.5241 35.5682C76.2047 34.6944 72.8643 33.689 69.5627 32.5662C66.2611 31.4435 63.0048 30.1892 59.8646 28.8033C56.7232 27.4207 53.696 25.9143 50.8534 24.3017C48.0074 22.6935 45.3528 20.9712 42.9395 19.1938C40.526 17.4197 38.3568 15.5893 36.4622 13.7884C34.572 11.9811 32.9639 10.198 31.6177 8.55764C31.2848 8.14398 30.964 7.74246 30.6532 7.35533C30.3579 6.95602 30.0747 6.57223 29.8016 6.20059C29.6655 6.01477 29.5317 5.83447 29.4 5.65639C29.2717 5.47721 29.1556 5.29692 29.0373 5.12216C28.8028 4.77374 28.5771 4.44083 28.3648 4.12449C27.5419 2.84145 26.9202 1.81722 26.5364 1.09613C26.1405 0.382717 25.9292 0 25.9292 0C25.9292 0 26.1416 0.380507 26.5397 1.09282C26.9269 1.81288 27.5518 2.83598 28.3792 4.11353C28.5937 4.42877 28.8183 4.7606 29.0561 5.10899C29.1755 5.28154 29.2928 5.46294 29.4222 5.64212C29.5538 5.81799 29.6865 5.99938 29.8248 6.183C30.0991 6.55133 30.3845 6.93513 30.6798 7.33222C30.9917 7.71715 31.3136 8.11753 31.6487 8.52901C33.0015 10.1638 34.6142 11.9379 36.5088 13.7365C38.408 15.5284 40.5826 17.3468 42.9993 19.11C45.4161 20.8753 48.0741 22.5843 50.9212 24.1791C53.7672 25.7773 56.7944 27.2694 59.9358 28.6376C63.076 30.0092 66.3323 31.2491 69.6316 32.3563C72.931 33.4646 76.2702 34.4557 79.5885 35.315C82.9057 36.1745 86.1963 36.9178 89.3962 37.556C92.5973 38.1898 95.7086 38.7185 98.6673 39.1609C101.626 39.6044 104.433 39.9484 107.028 40.2316C112.22 40.7913 116.565 41.0622 119.605 41.1939C122.648 41.3266 124.385 41.3188 124.385 41.3188C124.504 41.3188 124.6 41.414 124.6 41.5334C124.6 41.6529 124.505 41.7491 124.386 41.7491L124.385 41.7513L124.385 41.7556Z" fill="#191919"/>
<path id="Vector_13" d="M121.927 45.8897C121.927 45.8897 121.489 45.8831 120.67 45.8709C119.851 45.8521 118.651 45.8134 117.126 45.7404C114.076 45.5933 109.722 45.3012 104.523 44.7139C101.924 44.4186 99.1109 44.0602 96.1488 43.6012C93.1867 43.1444 90.072 42.6002 86.8678 41.9487C83.6647 41.2939 80.3719 40.533 77.0513 39.6558C73.7319 38.7787 70.3895 37.7699 67.0899 36.6428C63.7883 35.5168 60.532 34.2591 57.3918 32.8688C54.2504 31.4829 51.2232 29.9722 48.3806 28.357C45.5357 26.7455 42.88 25.0212 40.4678 23.2404C38.0543 21.4629 35.8863 19.6301 33.994 17.8273C32.1059 16.0178 30.4987 14.2338 29.1526 12.5912C28.8208 12.1775 28.4989 11.776 28.1903 11.3877C27.8972 10.9884 27.6129 10.6024 27.3408 10.233C27.2048 10.0472 27.071 9.86689 26.9415 9.68881C26.8132 9.50963 26.6971 9.32934 26.5787 9.15458C26.3443 8.80615 26.1186 8.47101 25.9063 8.1558C25.0844 6.87276 24.4628 5.84742 24.0812 5.12518C23.6864 4.40956 23.4751 4.02905 23.4751 4.02905C23.4751 4.02905 23.6875 4.40956 24.0868 5.12186C24.4739 5.83972 25.0999 6.86282 25.9295 8.14144C26.1441 8.45668 26.3708 8.78851 26.6064 9.13581C26.7259 9.30836 26.8442 9.48975 26.9725 9.66893C27.1042 9.8448 27.2391 10.0262 27.3752 10.2098C27.6495 10.5781 27.9348 10.9619 28.2312 11.3579C28.5432 11.7429 28.8672 12.141 29.2002 12.5536C30.5529 14.1873 32.1668 15.9591 34.0637 17.7543C35.965 19.5451 38.1386 21.3601 40.5576 23.1199C42.9744 24.8819 45.6335 26.5874 48.4814 28.1802C51.3274 29.7751 54.3558 31.264 57.4971 32.63C60.6373 33.9982 63.8936 35.2337 67.193 36.3376C70.4923 37.4426 73.8305 38.4292 77.1476 39.2853C80.4648 40.1414 83.7554 40.8802 86.9531 41.5162C90.153 42.1478 93.2643 42.6721 96.2208 43.1112C99.1783 43.5525 101.984 43.8943 104.58 44.1719C109.77 44.7272 114.114 44.9937 117.153 45.1221C118.674 45.1873 119.867 45.2172 120.682 45.2316C121.493 45.2393 121.926 45.2437 121.926 45.2437H121.934C122.113 45.2448 122.255 45.3909 122.254 45.57C122.253 45.7492 122.107 45.8919 121.928 45.8908L121.927 45.8897Z" fill="#191919"/>
</g>
</svg>
