<svg width="148" height="76" viewBox="0 0 148 76" fill="none" xmlns="http://www.w3.org/2000/svg">
<path d="M53.6722 27.321C53.6722 29.9274 51.5593 32.0403 48.9529 32.0403C46.3465 32.0403 44.2336 29.9274 44.2336 27.321C44.2336 24.7146 46.3465 22.6017 48.9529 22.6017C51.5593 22.6017 53.6722 24.7146 53.6722 27.321Z" fill="#9CA3AF"/>
<path d="M46.4091 48.0936C37.8244 48.0936 30.8652 41.1344 30.8652 32.5498V25.0888C39.4498 25.0888 46.4094 32.048 46.4094 40.6326L46.4091 48.0936Z" fill="#9CA3AF"/>
<path d="M63.5075 30.0628C54.9229 30.0628 47.9637 37.022 47.9637 45.6066V53.0676C56.5483 53.0676 63.5075 46.1084 63.5075 37.5238V30.0628Z" fill="#9CA3AF"/>
<path d="M92.249 27.2391V45.9533H88.4955V33.781L83.4818 45.9533H80.6398L75.5993 33.781V45.9533H71.8457V27.2391H76.1087L82.0608 41.1541L88.0129 27.2391H92.249Z" fill="#9CA3AF"/>
<path d="M96.7912 29.3303C96.1299 29.3303 95.5758 29.1248 95.1289 28.7137C94.7 28.2847 94.4855 27.7574 94.4855 27.1318C94.4855 26.5062 94.7 25.9879 95.1289 25.5768C95.5758 25.1478 96.1299 24.9333 96.7912 24.9333C97.4526 24.9333 97.9977 25.1478 98.4267 25.5768C98.8736 25.9879 99.097 26.5062 99.097 27.1318C99.097 27.7574 98.8736 28.2847 98.4267 28.7137C97.9977 29.1248 97.4526 29.3303 96.7912 29.3303ZM98.6412 31.0999V45.9533H94.8876V31.0999H98.6412Z" fill="#9CA3AF"/>
<path d="M109.508 30.8854C111.278 30.8854 112.708 31.4484 113.798 32.5745C114.888 33.6827 115.434 35.2377 115.434 37.2396V45.9533H111.68V37.7491C111.68 36.5694 111.385 35.6667 110.795 35.0411C110.205 34.3977 109.401 34.0759 108.382 34.0759C107.346 34.0759 106.523 34.3977 105.916 35.0411C105.326 35.6667 105.031 36.5694 105.031 37.7491V45.9533H101.277V31.0999H105.031V32.9498C105.531 32.3064 106.166 31.8059 106.934 31.4484C107.721 31.0731 108.579 30.8854 109.508 30.8854Z" fill="#9CA3AF"/>
<path d="M122.301 34.1832V41.3686C122.301 41.869 122.417 42.2355 122.649 42.4678C122.9 42.6823 123.311 42.7896 123.883 42.7896H125.625V45.9533H123.266C120.102 45.9533 118.52 44.4161 118.52 41.3418V34.1832H115.735V31.0999H118.52V27.4267H122.301V31.0999V34.1832Z" fill="#9CA3AF"/>
<path d="M139.698 31.0999L130.502 52.9778H126.507L129.725 45.5779L123.773 31.0999H127.982L131.816 41.4758L135.704 31.0999H139.698Z" fill="#9CA3AF"/>
</svg>
