<svg width="178" height="76" viewBox="0 0 178 76" fill="none" xmlns="http://www.w3.org/2000/svg">
<path d="M52.9844 27.3193C52.9844 23.525 56.0603 20.4491 59.8545 20.4491C63.6488 20.4491 66.7247 23.525 66.7247 27.3193C66.7247 31.1136 63.6488 34.1894 59.8545 34.1894C56.0603 34.1894 52.9844 31.1136 52.9844 27.3193Z" fill="#9CA3AF"/>
<path d="M60.2701 37.2341V42.1781C60.2701 44.3685 60.2688 45.9179 60.1683 47.1284C60.0693 48.3207 59.8819 49.0468 59.586 49.6164C59.0096 50.7261 58.1048 51.6309 56.9951 52.2073C56.4254 52.5032 55.6993 52.6906 54.5071 52.7896C53.2966 52.8902 51.7471 52.8914 49.5567 52.8914H44.9952C42.8048 52.8914 41.2554 52.8902 40.0449 52.7896C38.8526 52.6906 38.1266 52.5032 37.5569 52.2073C36.4472 51.6309 35.5424 50.7261 34.966 49.6164C34.6701 49.0468 34.4827 48.3207 34.3837 47.1284C34.2832 45.9179 34.2819 44.3685 34.2819 42.1781V37.6166C34.2819 35.4262 34.2832 33.8767 34.3837 32.6662C34.4827 31.474 34.6701 30.7479 34.966 30.1783C35.5424 29.0686 36.4472 28.1638 37.5569 27.5873C38.1266 27.2914 38.8526 27.104 40.0449 27.005C41.2554 26.9045 42.8048 26.9033 44.9952 26.9033H49.9392C49.9833 25.833 50.1969 24.8065 50.5539 23.8499L44.9273 23.8499C42.8201 23.8498 41.1439 23.8498 39.7922 23.9621C38.4077 24.0771 37.2275 24.3176 36.1494 24.8777C34.482 25.7438 33.1225 27.1033 32.2563 28.7707C31.6963 29.8488 31.4557 31.029 31.3407 32.4135C31.2285 33.7652 31.2285 35.4415 31.2285 37.5487V42.246C31.2285 44.3532 31.2285 46.0294 31.3407 47.3811C31.4557 48.7656 31.6963 49.9458 32.2563 51.0239C33.1225 52.6913 34.482 54.0508 36.1494 54.917C37.2275 55.477 38.4077 55.7176 39.7922 55.8326C41.1439 55.9448 42.8201 55.9448 44.9272 55.9448H49.6246C51.7318 55.9448 53.4081 55.9448 54.7598 55.8326C56.1443 55.7176 57.3245 55.477 58.4026 54.917C60.07 54.0508 61.4295 52.6913 62.2956 51.0239C62.8557 49.9458 63.0963 48.7656 63.2112 47.3811C63.3235 46.0295 63.3235 44.3533 63.3235 42.2461V36.6193C62.3668 36.9763 61.3403 37.19 60.2701 37.2341Z" fill="#9CA3AF"/>
<path d="M86.3741 36.9723C86.3741 37.9097 86.1482 38.7885 85.6962 39.6087C85.261 40.4289 84.5663 41.0901 83.6122 41.5923C82.6748 42.0945 81.4863 42.3456 80.0467 42.3456H77.109V49.0747H73.5938V31.5488H80.0467C81.4026 31.5488 82.5576 31.7831 83.5117 32.2518C84.4659 32.7205 85.1773 33.365 85.646 34.1852C86.1314 35.0054 86.3741 35.9344 86.3741 36.9723ZM79.8961 39.5083C80.8669 39.5083 81.5867 39.2907 82.0554 38.8554C82.5241 38.4035 82.7585 37.7758 82.7585 36.9723C82.7585 35.2649 81.8043 34.4112 79.8961 34.4112H77.109V39.5083H79.8961Z" fill="#9CA3AF"/>
<path d="M91.3808 37.3238C91.8328 36.5873 92.4186 36.0098 93.1384 35.5913C93.8749 35.1728 94.7119 34.9636 95.6493 34.9636V38.6546H94.7203C93.6155 38.6546 92.7785 38.914 92.2094 39.4329C91.657 39.9519 91.3808 40.8558 91.3808 42.1447V49.0747H87.8656V35.1644H91.3808V37.3238Z" fill="#9CA3AF"/>
<path d="M103.189 49.3007C101.85 49.3007 100.645 49.0078 99.5737 48.4219C98.5024 47.8193 97.6571 46.974 97.0377 45.8859C96.4351 44.7979 96.1338 43.5424 96.1338 42.1196C96.1338 40.6968 96.4435 39.4413 97.0629 38.3533C97.6989 37.2652 98.561 36.4283 99.6491 35.8424C100.737 35.2398 101.951 34.9385 103.29 34.9385C104.629 34.9385 105.843 35.2398 106.931 35.8424C108.019 36.4283 108.872 37.2652 109.492 38.3533C110.128 39.4413 110.446 40.6968 110.446 42.1196C110.446 43.5424 110.119 44.7979 109.467 45.8859C108.831 46.974 107.96 47.8193 106.855 48.4219C105.767 49.0078 104.545 49.3007 103.189 49.3007ZM103.189 46.2374C103.826 46.2374 104.42 46.0868 104.972 45.7855C105.541 45.4674 105.993 44.9987 106.328 44.3794C106.663 43.76 106.83 43.0068 106.83 42.1196C106.83 40.7972 106.479 39.7845 105.776 39.0814C105.089 38.3616 104.244 38.0017 103.24 38.0017C102.235 38.0017 101.39 38.3616 100.704 39.0814C100.034 39.7845 99.6993 40.7972 99.6993 42.1196C99.6993 43.442 100.026 44.4631 100.679 45.1829C101.348 45.8859 102.185 46.2374 103.189 46.2374Z" fill="#9CA3AF"/>
<path d="M111.116 42.0694C111.116 40.6633 111.392 39.4162 111.945 38.3282C112.514 37.2401 113.284 36.4031 114.255 35.8173C115.226 35.2314 116.305 34.9385 117.494 34.9385C118.398 34.9385 119.26 35.1393 120.08 35.5411C120.9 35.9261 121.553 36.445 122.038 37.0978V30.4942H125.604V49.0747H122.038V47.0158C121.603 47.7021 120.992 48.2545 120.206 48.673C119.419 49.0915 118.507 49.3007 117.469 49.3007C116.297 49.3007 115.226 48.9994 114.255 48.3968C113.284 47.7942 112.514 46.9489 111.945 45.8608C111.392 44.756 111.116 43.4922 111.116 42.0694ZM122.064 42.1196C122.064 41.2659 121.896 40.5377 121.561 39.9351C121.227 39.3158 120.775 38.8471 120.206 38.529C119.636 38.1942 119.025 38.0268 118.373 38.0268C117.72 38.0268 117.117 38.1859 116.565 38.5039C116.012 38.822 115.56 39.2907 115.209 39.91C114.874 40.5126 114.707 41.2324 114.707 42.0694C114.707 42.9063 114.874 43.6429 115.209 44.2789C115.56 44.8983 116.012 45.3754 116.565 45.7102C117.134 46.0449 117.737 46.2123 118.373 46.2123C119.025 46.2123 119.636 46.0533 120.206 45.7353C120.775 45.4005 121.227 44.9318 121.561 44.3292C121.896 43.7098 122.064 42.9733 122.064 42.1196Z" fill="#9CA3AF"/>
<path d="M141.165 35.1644V49.0747H137.624V47.3171C137.172 47.9197 136.578 48.3968 135.842 48.7483C135.122 49.0831 134.335 49.2505 133.481 49.2505C132.393 49.2505 131.431 49.0245 130.594 48.5726C129.757 48.1039 129.096 47.4259 128.61 46.5387C128.142 45.6348 127.907 44.5635 127.907 43.3248V35.1644H131.423V42.8226C131.423 43.9274 131.699 44.7811 132.251 45.3837C132.804 45.9696 133.557 46.2625 134.511 46.2625C135.482 46.2625 136.243 45.9696 136.796 45.3837C137.348 44.7811 137.624 43.9274 137.624 42.8226V35.1644H141.165Z" fill="#9CA3AF"/>
<path d="M142.725 42.1196C142.725 40.68 143.018 39.4246 143.604 38.3533C144.19 37.2652 145.001 36.4283 146.039 35.8424C147.077 35.2398 148.266 34.9385 149.605 34.9385C151.329 34.9385 152.752 35.3737 153.873 36.2441C155.011 37.0978 155.773 38.303 156.158 39.8598H152.367C152.166 39.2572 151.823 38.7885 151.337 38.4537C150.868 38.1022 150.283 37.9264 149.58 37.9264C148.575 37.9264 147.78 38.2947 147.194 39.0312C146.608 39.751 146.315 40.7805 146.315 42.1196C146.315 43.442 146.608 44.4714 147.194 45.208C147.78 45.9278 148.575 46.2877 149.58 46.2877C151.002 46.2877 151.931 45.6516 152.367 44.3794H156.158C155.773 45.8859 155.011 47.0828 153.873 47.9699C152.735 48.8571 151.312 49.3007 149.605 49.3007C148.266 49.3007 147.077 49.0078 146.039 48.4219C145.001 47.8193 144.19 46.9823 143.604 45.911C143.018 44.823 142.725 43.5592 142.725 42.1196Z" fill="#9CA3AF"/>
<path d="M161.822 38.052V44.7811C161.822 45.2498 161.93 45.593 162.148 45.8106C162.382 46.0115 162.767 46.1119 163.303 46.1119H164.935V49.0747H162.726C159.763 49.0747 158.281 47.6352 158.281 44.756V38.052H156.624V35.1644H158.281V31.7245H161.822V35.1644H164.935V38.052H161.822Z" fill="#9CA3AF"/>
<path d="M168.017 49.2507C167.38 49.2507 166.853 49.0582 166.435 48.6732C166.033 48.2714 165.832 47.7776 165.832 47.1917C165.832 46.6059 166.033 46.1204 166.435 45.7354C166.853 45.3337 167.38 45.1328 168.017 45.1328C168.636 45.1328 169.146 45.3337 169.548 45.7354C169.95 46.1204 170.151 46.6059 170.151 47.1917C170.151 47.7776 169.95 48.2714 169.548 48.6732C169.146 49.0582 168.636 49.2507 168.017 49.2507Z" fill="#9CA3AF"/>
</svg>
