<?xml version="1.0" encoding="UTF-8"?>
<svg fill="none" viewBox="0 0 720 489" xmlns="http://www.w3.org/2000/svg">
<path d="m180 229c99.411 0 180 80.589 180 180h-360c0-99.411 80.589-180 180-180z" fill="#FF7917"/>
<path d="m180 229c-99.411 0-180-80.589-180-180h360c0 99.411-80.589 180-180 180z" fill="#FFEED9"/>
<path d="m720 229c0-99.411-80.589-180-180-180h-180v180c0 99.411 80.589 180 180 180s180-80.589 180-180z" fill="#EDF7FF"/>
<g filter="url(#a)">
<rect x="112" y="70" width="476" height="317" rx="21.275" fill="#fff"/>
</g>
<rect x="358.5" y="99.785" width="199.75" height="120.2" rx="17.02" fill="#FFEED9"/>
<path d="m448.67 129v21.333h21.333v2.667h-24v-24h2.667zm19.92 3.92 2.826 2.827-8.08 8.082-4-4-5.253 5.254-2.827-2.83 8.08-8.08 4 4 5.254-5.253z" fill="#FF7917"/>
<path d="m445.65 171.13h-1.551c-0.06-0.331-0.171-0.623-0.334-0.875-0.162-0.252-0.361-0.465-0.596-0.641s-0.499-0.308-0.791-0.398c-0.288-0.089-0.595-0.134-0.919-0.134-0.587 0-1.112 0.147-1.576 0.442-0.461 0.295-0.826 0.728-1.094 1.298-0.265 0.57-0.398 1.266-0.398 2.088 0 0.829 0.133 1.528 0.398 2.098 0.268 0.57 0.635 1.001 1.099 1.293 0.464 0.291 0.986 0.437 1.566 0.437 0.321 0 0.626-0.043 0.914-0.129 0.292-0.09 0.556-0.22 0.791-0.393 0.235-0.172 0.434-0.383 0.597-0.631 0.165-0.252 0.28-0.54 0.343-0.865l1.551 5e-3c-0.083 0.5-0.244 0.961-0.483 1.382-0.235 0.417-0.538 0.779-0.909 1.084-0.368 0.301-0.789 0.535-1.263 0.701-0.474 0.165-0.991 0.248-1.551 0.248-0.882 0-1.667-0.209-2.357-0.626-0.689-0.421-1.233-1.023-1.63-1.805-0.395-0.782-0.592-1.715-0.592-2.799 0-1.087 0.199-2.02 0.596-2.799 0.398-0.782 0.942-1.382 1.631-1.8 0.69-0.421 1.473-0.631 2.352-0.631 0.54 0 1.044 0.078 1.511 0.234 0.471 0.152 0.893 0.377 1.268 0.676 0.374 0.295 0.684 0.656 0.93 1.084 0.245 0.424 0.411 0.909 0.497 1.456z" fill="#1F1F1F"/>
<path d="m449.09 173.47v4.534h-1.487v-10.182h1.467v3.789h0.095c0.179-0.411 0.452-0.738 0.82-0.98s0.848-0.363 1.442-0.363c0.523 0 0.981 0.108 1.372 0.323 0.394 0.216 0.699 0.537 0.915 0.965 0.218 0.424 0.328 0.954 0.328 1.591v4.857h-1.487v-4.678c0-0.56-0.144-0.995-0.432-1.303-0.289-0.311-0.69-0.467-1.203-0.467-0.352 0-0.667 0.074-0.945 0.224-0.275 0.149-0.492 0.367-0.651 0.656-0.156 0.285-0.234 0.63-0.234 1.034z" fill="#1F1F1F"/>
<path d="m459.55 178.15c-0.752 0-1.4-0.161-1.944-0.482-0.54-0.325-0.957-0.781-1.252-1.367-0.292-0.59-0.438-1.281-0.438-2.073 0-0.783 0.146-1.472 0.438-2.069 0.295-0.596 0.706-1.062 1.233-1.397 0.53-0.334 1.15-0.502 1.859-0.502 0.431 0 0.848 0.071 1.253 0.214 0.404 0.142 0.767 0.366 1.089 0.671 0.321 0.305 0.575 0.701 0.76 1.188 0.186 0.484 0.279 1.073 0.279 1.765v0.527h-6.071v-1.113h4.614c0-0.391-0.08-0.738-0.239-1.039-0.159-0.305-0.382-0.546-0.671-0.721-0.285-0.176-0.62-0.264-1.004-0.264-0.418 0-0.782 0.103-1.094 0.308-0.308 0.203-0.547 0.468-0.716 0.796-0.165 0.325-0.248 0.678-0.248 1.059v0.87c0 0.51 0.089 0.944 0.268 1.302 0.182 0.358 0.436 0.632 0.761 0.821 0.325 0.185 0.704 0.278 1.138 0.278 0.282 0 0.539-0.04 0.771-0.119 0.232-0.083 0.432-0.206 0.601-0.368 0.169-0.163 0.299-0.363 0.388-0.602l1.407 0.254c-0.112 0.414-0.315 0.777-0.606 1.089-0.289 0.308-0.652 0.548-1.089 0.721-0.434 0.169-0.93 0.253-1.487 0.253z" fill="#1F1F1F"/>
<path d="m467.93 178.15c-0.739 0-1.375-0.167-1.909-0.502-0.53-0.338-0.938-0.804-1.223-1.397s-0.427-1.273-0.427-2.038c0-0.776 0.146-1.46 0.437-2.054 0.292-0.596 0.703-1.062 1.233-1.397 0.531-0.334 1.155-0.502 1.875-0.502 0.58 0 1.097 0.108 1.551 0.323 0.454 0.212 0.82 0.511 1.098 0.895 0.282 0.385 0.449 0.834 0.503 1.348h-1.447c-0.08-0.358-0.262-0.667-0.547-0.925-0.282-0.259-0.66-0.388-1.134-0.388-0.414 0-0.777 0.109-1.088 0.328-0.309 0.216-0.549 0.524-0.721 0.925-0.173 0.398-0.259 0.868-0.259 1.412 0 0.557 0.085 1.037 0.254 1.442 0.169 0.404 0.407 0.717 0.716 0.939 0.311 0.222 0.677 0.333 1.098 0.333 0.282 0 0.537-0.051 0.766-0.154 0.232-0.106 0.426-0.257 0.582-0.452 0.159-0.196 0.27-0.431 0.333-0.706h1.447c-0.054 0.494-0.214 0.934-0.483 1.322-0.268 0.388-0.628 0.693-1.079 0.915-0.447 0.222-0.972 0.333-1.576 0.333z" fill="#1F1F1F"/>
<path d="m474.26 175.41-0.01-1.815h0.259l3.042-3.231h1.78l-3.47 3.679h-0.234l-1.367 1.367zm-1.367 2.59v-10.182h1.487v10.182h-1.487zm4.822 0-2.734-3.629 1.024-1.039 3.535 4.668h-1.825z" fill="#1F1F1F"/>
<path d="m433.72 193h-1.631l3.664-10.182h1.775l3.664 10.182h-1.631l-2.878-8.332h-0.08l-2.883 8.332zm0.273-3.987h5.29v1.292h-5.29v-1.292z" fill="#1F1F1F"/>
<path d="m445.87 193.15c-0.739 0-1.375-0.167-1.909-0.502-0.53-0.338-0.938-0.804-1.223-1.397s-0.427-1.273-0.427-2.038c0-0.776 0.146-1.46 0.437-2.054 0.292-0.596 0.703-1.062 1.233-1.397 0.531-0.334 1.155-0.502 1.875-0.502 0.58 0 1.097 0.108 1.551 0.323 0.454 0.212 0.82 0.511 1.098 0.895 0.282 0.385 0.449 0.834 0.503 1.348h-1.447c-0.08-0.358-0.262-0.667-0.547-0.925-0.282-0.259-0.66-0.388-1.134-0.388-0.414 0-0.777 0.109-1.088 0.328-0.309 0.216-0.549 0.524-0.721 0.925-0.173 0.398-0.259 0.868-0.259 1.412 0 0.557 0.085 1.037 0.254 1.442 0.169 0.404 0.407 0.717 0.716 0.939 0.311 0.222 0.677 0.333 1.098 0.333 0.282 0 0.537-0.051 0.766-0.154 0.232-0.106 0.426-0.257 0.582-0.452 0.159-0.196 0.27-0.431 0.333-0.706h1.447c-0.054 0.494-0.214 0.934-0.483 1.322-0.268 0.388-0.628 0.693-1.079 0.915-0.447 0.222-0.972 0.333-1.576 0.333z" fill="#1F1F1F"/>
<path d="m454.4 185.36v1.193h-4.172v-1.193h4.172zm-3.053-1.83h1.487v7.224c0 0.288 0.043 0.505 0.129 0.651 0.086 0.143 0.197 0.24 0.333 0.293 0.139 0.05 0.29 0.075 0.452 0.075 0.12 0 0.224-8e-3 0.314-0.025 0.089-0.016 0.159-0.03 0.208-0.04l0.269 1.228c-0.086 0.033-0.209 0.067-0.368 0.1-0.159 0.036-0.358 0.056-0.597 0.059-0.391 7e-3 -0.755-0.063-1.093-0.208-0.338-0.146-0.612-0.372-0.821-0.677-0.209-0.304-0.313-0.687-0.313-1.148v-7.532z" fill="#1F1F1F"/>
<path d="m456.28 193v-7.636h1.486v7.636h-1.486zm0.751-8.815c-0.259 0-0.481-0.086-0.667-0.258-0.182-0.176-0.273-0.385-0.273-0.627 0-0.245 0.091-0.454 0.273-0.626 0.186-0.176 0.408-0.264 0.667-0.264 0.258 0 0.478 0.088 0.661 0.264 0.185 0.172 0.278 0.381 0.278 0.626 0 0.242-0.093 0.451-0.278 0.627-0.183 0.172-0.403 0.258-0.661 0.258z" fill="#1F1F1F"/>
<path d="m466.53 185.36-2.769 7.636h-1.591l-2.775-7.636h1.596l1.934 5.876h0.08l1.929-5.876h1.596z" fill="#1F1F1F"/>
<path d="m468.16 193v-7.636h1.486v7.636h-1.486zm0.75-8.815c-0.258 0-0.48-0.086-0.666-0.258-0.182-0.176-0.273-0.385-0.273-0.627 0-0.245 0.091-0.454 0.273-0.626 0.186-0.176 0.408-0.264 0.666-0.264 0.259 0 0.479 0.088 0.661 0.264 0.186 0.172 0.279 0.381 0.279 0.626 0 0.242-0.093 0.451-0.279 0.627-0.182 0.172-0.402 0.258-0.661 0.258z" fill="#1F1F1F"/>
<path d="m475.45 185.36v1.193h-4.171v-1.193h4.171zm-3.052-1.83h1.486v7.224c0 0.288 0.043 0.505 0.13 0.651 0.086 0.143 0.197 0.24 0.333 0.293 0.139 0.05 0.29 0.075 0.452 0.075 0.119 0 0.224-8e-3 0.313-0.025 0.09-0.016 0.159-0.03 0.209-0.04l0.269 1.228c-0.087 0.033-0.209 0.067-0.368 0.1-0.159 0.036-0.358 0.056-0.597 0.059-0.391 7e-3 -0.756-0.063-1.094-0.208-0.338-0.146-0.611-0.372-0.82-0.677-0.209-0.304-0.313-0.687-0.313-1.148v-7.532z" fill="#1F1F1F"/>
<path d="m478.27 195.86c-0.222 0-0.424-0.019-0.606-0.055-0.183-0.033-0.319-0.07-0.408-0.109l0.358-1.218c0.272 0.072 0.514 0.104 0.726 0.094s0.399-0.09 0.562-0.239c0.165-0.149 0.311-0.392 0.437-0.73l0.184-0.508-2.794-7.735h1.591l1.934 5.926h0.079l1.934-5.926h1.596l-3.147 8.655c-0.146 0.398-0.331 0.734-0.557 1.009-0.225 0.279-0.493 0.488-0.805 0.627s-0.673 0.209-1.084 0.209z" fill="#1F1F1F"/>
<rect x="141.75" y="99.785" width="199.75" height="120.2" rx="17.02" fill="#DEEEFD"/>
<path d="m240.67 133.73v14.6h14.6c-0.668 6.738-6.354 12-13.267 12-7.364 0-13.333-5.969-13.333-13.333 0-6.913 5.262-12.599 12-13.267zm2.666 0c3.06 0.309 5.92 1.665 8.094 3.84 2.175 2.174 3.531 5.034 3.84 8.094h-11.934v-11.934z" fill="#276EF1"/>
<path d="m191.28 174.36h2.131l3.705 9.045h0.136l3.705-9.045h2.13v11.636h-1.67v-8.42h-0.108l-3.432 8.403h-1.386l-3.432-8.409h-0.108v8.426h-1.671v-11.636z" fill="#1F1F1F"/>
<path d="m208.28 186.19c-0.553 0-1.053-0.102-1.5-0.307-0.447-0.208-0.801-0.509-1.062-0.903-0.258-0.394-0.387-0.877-0.387-1.449 0-0.492 0.095-0.898 0.284-1.216 0.19-0.318 0.445-0.57 0.767-0.755 0.322-0.186 0.682-0.326 1.08-0.421s0.803-0.167 1.216-0.216c0.522-0.06 0.947-0.11 1.272-0.148 0.326-0.041 0.563-0.108 0.711-0.198 0.147-0.091 0.221-0.239 0.221-0.444v-0.039c0-0.497-0.14-0.881-0.42-1.154-0.277-0.273-0.69-0.409-1.239-0.409-0.572 0-1.023 0.127-1.352 0.381-0.326 0.25-0.551 0.528-0.676 0.835l-1.597-0.364c0.19-0.53 0.466-0.958 0.83-1.284 0.367-0.329 0.79-0.568 1.267-0.716 0.477-0.151 0.979-0.227 1.505-0.227 0.349 0 0.718 0.042 1.108 0.125 0.394 0.08 0.762 0.227 1.103 0.443 0.344 0.216 0.627 0.525 0.846 0.926 0.22 0.398 0.33 0.915 0.33 1.552v5.795h-1.659v-1.193h-0.068c-0.11 0.22-0.275 0.435-0.495 0.648-0.219 0.212-0.502 0.388-0.846 0.528-0.345 0.14-0.758 0.21-1.239 0.21zm0.369-1.363c0.47 0 0.872-0.093 1.205-0.279 0.337-0.185 0.593-0.428 0.767-0.727 0.178-0.303 0.267-0.627 0.267-0.972v-1.125c-0.061 0.061-0.178 0.118-0.352 0.171-0.171 0.049-0.366 0.093-0.586 0.13-0.219 0.035-0.433 0.067-0.642 0.097-0.208 0.027-0.382 0.049-0.522 0.068-0.33 0.042-0.631 0.112-0.904 0.21-0.269 0.099-0.485 0.241-0.647 0.427-0.16 0.181-0.239 0.424-0.239 0.727 0 0.42 0.155 0.738 0.466 0.954 0.31 0.212 0.706 0.319 1.187 0.319z" fill="#1F1F1F"/>
<path d="m216.78 180.82v5.182h-1.699v-8.727h1.631v1.42h0.108c0.201-0.462 0.515-0.833 0.943-1.113 0.432-0.281 0.976-0.421 1.631-0.421 0.595 0 1.115 0.125 1.562 0.375 0.447 0.246 0.794 0.614 1.04 1.102 0.246 0.489 0.37 1.093 0.37 1.813v5.551h-1.699v-5.347c0-0.632-0.165-1.126-0.495-1.483-0.329-0.359-0.782-0.539-1.358-0.539-0.394 0-0.744 0.085-1.051 0.255-0.303 0.171-0.543 0.421-0.721 0.75-0.175 0.326-0.262 0.72-0.262 1.182z" fill="#1F1F1F"/>
<path d="m227.42 186.19c-0.553 0-1.053-0.102-1.5-0.307-0.447-0.208-0.802-0.509-1.063-0.903-0.257-0.394-0.386-0.877-0.386-1.449 0-0.492 0.094-0.898 0.284-1.216 0.189-0.318 0.445-0.57 0.767-0.755 0.322-0.186 0.682-0.326 1.079-0.421 0.398-0.095 0.803-0.167 1.216-0.216 0.523-0.06 0.947-0.11 1.273-0.148 0.326-0.041 0.563-0.108 0.71-0.198 0.148-0.091 0.222-0.239 0.222-0.444v-0.039c0-0.497-0.14-0.881-0.421-1.154-0.276-0.273-0.689-0.409-1.238-0.409-0.572 0-1.023 0.127-1.353 0.381-0.325 0.25-0.551 0.528-0.676 0.835l-1.596-0.364c0.189-0.53 0.466-0.958 0.829-1.284 0.368-0.329 0.79-0.568 1.267-0.716 0.478-0.151 0.98-0.227 1.506-0.227 0.349 0 0.718 0.042 1.108 0.125 0.394 0.08 0.761 0.227 1.102 0.443 0.345 0.216 0.627 0.525 0.847 0.926 0.22 0.398 0.329 0.915 0.329 1.552v5.795h-1.659v-1.193h-0.068c-0.11 0.22-0.274 0.435-0.494 0.648-0.22 0.212-0.502 0.388-0.847 0.528-0.344 0.14-0.757 0.21-1.238 0.21zm0.369-1.363c0.47 0 0.871-0.093 1.204-0.279 0.338-0.185 0.593-0.428 0.767-0.727 0.179-0.303 0.268-0.627 0.268-0.972v-1.125c-0.061 0.061-0.178 0.118-0.353 0.171-0.17 0.049-0.365 0.093-0.585 0.13-0.22 0.035-0.434 0.067-0.642 0.097-0.208 0.027-0.383 0.049-0.523 0.068-0.329 0.042-0.63 0.112-0.903 0.21-0.269 0.099-0.485 0.241-0.648 0.427-0.159 0.181-0.239 0.424-0.239 0.727 0 0.42 0.156 0.738 0.466 0.954 0.311 0.212 0.707 0.319 1.188 0.319z" fill="#1F1F1F"/>
<path d="m237.88 189.46c-0.693 0-1.29-0.091-1.79-0.273-0.496-0.182-0.901-0.423-1.216-0.722-0.314-0.299-0.549-0.627-0.704-0.983l1.46-0.602c0.102 0.167 0.239 0.343 0.409 0.528 0.174 0.19 0.409 0.351 0.705 0.483 0.299 0.133 0.683 0.199 1.153 0.199 0.644 0 1.176-0.157 1.597-0.471 0.42-0.311 0.63-0.807 0.63-1.489v-1.716h-0.108c-0.102 0.186-0.25 0.392-0.443 0.619-0.189 0.228-0.45 0.425-0.784 0.591-0.333 0.167-0.767 0.25-1.301 0.25-0.689 0-1.311-0.161-1.864-0.483-0.549-0.325-0.984-0.805-1.306-1.437-0.319-0.636-0.478-1.419-0.478-2.347s0.158-1.723 0.472-2.386c0.318-0.663 0.754-1.171 1.307-1.523 0.553-0.356 1.18-0.534 1.88-0.534 0.542 0 0.98 0.091 1.313 0.273 0.333 0.178 0.593 0.386 0.778 0.625 0.19 0.238 0.336 0.449 0.438 0.631h0.125v-1.415h1.665v8.92c0 0.75-0.175 1.366-0.523 1.847-0.349 0.481-0.82 0.837-1.415 1.068-0.591 0.231-1.257 0.347-2 0.347zm-0.017-4.995c0.489 0 0.902-0.113 1.239-0.341 0.341-0.231 0.598-0.56 0.772-0.988 0.178-0.432 0.267-0.949 0.267-1.551 0-0.588-0.087-1.105-0.261-1.552s-0.43-0.795-0.767-1.045c-0.337-0.254-0.754-0.381-1.25-0.381-0.511 0-0.937 0.133-1.278 0.398-0.341 0.261-0.599 0.617-0.773 1.068-0.171 0.451-0.256 0.955-0.256 1.512 0 0.572 0.087 1.073 0.262 1.505 0.174 0.432 0.431 0.769 0.772 1.012 0.345 0.242 0.769 0.363 1.273 0.363z" fill="#1F1F1F"/>
<path d="m248.1 186.18c-0.86 0-1.6-0.184-2.221-0.551-0.618-0.371-1.095-0.892-1.432-1.562-0.333-0.675-0.5-1.465-0.5-2.37 0-0.894 0.167-1.682 0.5-2.363 0.337-0.682 0.807-1.214 1.409-1.597 0.606-0.383 1.314-0.574 2.125-0.574 0.492 0 0.97 0.082 1.432 0.244 0.462 0.163 0.877 0.419 1.244 0.767 0.367 0.349 0.657 0.802 0.869 1.358 0.213 0.553 0.319 1.226 0.319 2.017v0.603h-6.938v-1.273h5.273c0-0.447-0.091-0.843-0.273-1.187-0.182-0.349-0.437-0.624-0.767-0.824-0.326-0.201-0.708-0.301-1.148-0.301-0.477 0-0.894 0.117-1.25 0.352-0.352 0.231-0.625 0.534-0.818 0.909-0.189 0.371-0.284 0.774-0.284 1.21v0.994c0 0.584 0.102 1.08 0.307 1.489 0.208 0.409 0.498 0.722 0.869 0.938 0.371 0.212 0.805 0.318 1.301 0.318 0.322 0 0.616-0.046 0.881-0.137 0.265-0.094 0.494-0.234 0.687-0.42 0.194-0.186 0.341-0.415 0.444-0.688l1.608 0.29c-0.129 0.474-0.36 0.888-0.694 1.245-0.329 0.352-0.744 0.626-1.244 0.823-0.496 0.194-1.062 0.29-1.699 0.29z" fill="#1F1F1F"/>
<path d="m253.96 186v-8.727h1.631v1.42h0.108c0.182-0.481 0.479-0.856 0.892-1.125 0.413-0.273 0.907-0.409 1.483-0.409 0.583 0 1.072 0.136 1.466 0.409 0.398 0.273 0.691 0.648 0.881 1.125h0.091c0.208-0.466 0.539-0.837 0.994-1.113 0.454-0.281 0.996-0.421 1.625-0.421 0.791 0 1.437 0.248 1.937 0.744 0.504 0.497 0.756 1.245 0.756 2.245v5.852h-1.699v-5.693c0-0.591-0.161-1.019-0.483-1.284s-0.706-0.398-1.153-0.398c-0.553 0-0.983 0.17-1.29 0.511-0.307 0.337-0.46 0.771-0.46 1.302v5.562h-1.693v-5.801c0-0.474-0.148-0.854-0.444-1.142-0.295-0.288-0.68-0.432-1.153-0.432-0.322 0-0.619 0.085-0.892 0.256-0.269 0.166-0.487 0.399-0.653 0.699-0.163 0.299-0.245 0.645-0.245 1.039v5.381h-1.699z" fill="#1F1F1F"/>
<path d="m272.1 186.18c-0.86 0-1.6-0.184-2.221-0.551-0.618-0.371-1.095-0.892-1.432-1.562-0.334-0.675-0.5-1.465-0.5-2.37 0-0.894 0.166-1.682 0.5-2.363 0.337-0.682 0.807-1.214 1.409-1.597 0.606-0.383 1.314-0.574 2.125-0.574 0.492 0 0.97 0.082 1.432 0.244 0.462 0.163 0.877 0.419 1.244 0.767 0.367 0.349 0.657 0.802 0.869 1.358 0.212 0.553 0.319 1.226 0.319 2.017v0.603h-6.938v-1.273h5.273c0-0.447-0.091-0.843-0.273-1.187-0.182-0.349-0.437-0.624-0.767-0.824-0.326-0.201-0.708-0.301-1.148-0.301-0.477 0-0.894 0.117-1.25 0.352-0.352 0.231-0.625 0.534-0.818 0.909-0.189 0.371-0.284 0.774-0.284 1.21v0.994c0 0.584 0.102 1.08 0.307 1.489 0.208 0.409 0.498 0.722 0.869 0.938 0.371 0.212 0.805 0.318 1.301 0.318 0.322 0 0.616-0.046 0.881-0.137 0.265-0.094 0.494-0.234 0.687-0.42 0.194-0.186 0.341-0.415 0.444-0.688l1.608 0.29c-0.129 0.474-0.36 0.888-0.694 1.245-0.329 0.352-0.744 0.626-1.244 0.823-0.496 0.194-1.062 0.29-1.699 0.29z" fill="#1F1F1F"/>
<path d="m279.66 180.82v5.182h-1.699v-8.727h1.631v1.42h0.108c0.201-0.462 0.515-0.833 0.943-1.113 0.432-0.281 0.976-0.421 1.631-0.421 0.595 0 1.115 0.125 1.562 0.375 0.447 0.246 0.794 0.614 1.04 1.102 0.246 0.489 0.369 1.093 0.369 1.813v5.551h-1.698v-5.347c0-0.632-0.165-1.126-0.495-1.483-0.329-0.359-0.782-0.539-1.358-0.539-0.394 0-0.744 0.085-1.051 0.255-0.303 0.171-0.543 0.421-0.721 0.75-0.175 0.326-0.262 0.72-0.262 1.182z" fill="#1F1F1F"/>
<path d="m291.84 177.27v1.363h-4.768v-1.363h4.768zm-3.489-2.091h1.699v8.256c0 0.329 0.049 0.577 0.147 0.744 0.099 0.163 0.226 0.274 0.381 0.335 0.159 0.057 0.332 0.085 0.517 0.085 0.137 0 0.256-9e-3 0.358-0.028s0.182-0.034 0.239-0.046l0.307 1.404c-0.099 0.038-0.239 0.076-0.421 0.113-0.182 0.042-0.409 0.065-0.682 0.069-0.447 7e-3 -0.863-0.072-1.25-0.239-0.386-0.167-0.699-0.424-0.937-0.773-0.239-0.348-0.358-0.786-0.358-1.312v-8.608z" fill="#1F1F1F"/>
<rect x="141.75" y="237.01" width="199.75" height="120.2" rx="17.02" fill="#FFEED9"/>
<path d="m242 273.67c1.768 0 3.464 0.702 4.714 1.952s1.953 2.946 1.953 4.714v8h-13.334v-8c0-1.768 0.703-3.464 1.953-4.714s2.946-1.952 4.714-1.952zm-8.949 4.008c-0.213 0.715-0.338 1.454-0.374 2.2l-0.01 0.458v8h-4v-6c-1e-3 -1.15 0.424-2.259 1.191-3.115 0.768-0.857 1.824-1.4 2.967-1.525l0.227-0.018h-1e-3zm17.898 0c1.187 0.072 2.301 0.594 3.116 1.46 0.814 0.866 1.268 2.01 1.268 3.198v6h-4v-8c0-0.924-0.133-1.816-0.384-2.658zm-17.616-8.008c0.884 0 1.732 0.351 2.357 0.976s0.977 1.473 0.977 2.357-0.352 1.732-0.977 2.357-1.473 0.976-2.357 0.976-1.732-0.351-2.357-0.976-0.976-1.473-0.976-2.357 0.351-1.732 0.976-2.357 1.473-0.976 2.357-0.976zm17.334 0c0.884 0 1.732 0.351 2.357 0.976s0.976 1.473 0.976 2.357-0.351 1.732-0.976 2.357-1.473 0.976-2.357 0.976-1.732-0.351-2.357-0.976-0.977-1.473-0.977-2.357 0.352-1.732 0.977-2.357 1.473-0.976 2.357-0.976zm-8.667-8c1.415 0 2.771 0.562 3.771 1.562s1.562 2.356 1.562 3.771c0 1.414-0.562 2.771-1.562 3.771s-2.356 1.562-3.771 1.562c-1.414 0-2.771-0.562-3.771-1.562s-1.562-2.357-1.562-3.771c0-1.415 0.562-2.771 1.562-3.771s2.357-1.562 3.771-1.562z" fill="#FF7917"/>
<path d="m220.83 303.88v-1.511h9.006v1.511h-3.631v10.125h-1.75v-10.125h-3.625z" fill="#1F1F1F"/>
<path d="m234.42 314.18c-0.86 0-1.6-0.184-2.221-0.551-0.618-0.371-1.095-0.892-1.432-1.562-0.333-0.675-0.5-1.465-0.5-2.37 0-0.894 0.167-1.682 0.5-2.363 0.337-0.682 0.807-1.214 1.409-1.597 0.606-0.383 1.314-0.574 2.125-0.574 0.492 0 0.97 0.082 1.432 0.244 0.462 0.163 0.877 0.419 1.244 0.767 0.368 0.349 0.657 0.802 0.869 1.358 0.213 0.553 0.319 1.226 0.319 2.017v0.603h-6.938v-1.273h5.273c0-0.447-0.091-0.843-0.273-1.187-0.182-0.349-0.437-0.624-0.767-0.824-0.326-0.201-0.708-0.301-1.148-0.301-0.477 0-0.894 0.117-1.25 0.352-0.352 0.231-0.625 0.534-0.818 0.909-0.189 0.371-0.284 0.774-0.284 1.21v0.994c0 0.584 0.102 1.08 0.307 1.489 0.208 0.409 0.498 0.722 0.869 0.938 0.371 0.212 0.805 0.318 1.301 0.318 0.322 0 0.616-0.046 0.881-0.137 0.265-0.094 0.494-0.234 0.688-0.42 0.193-0.186 0.34-0.415 0.443-0.688l1.608 0.29c-0.129 0.474-0.36 0.888-0.693 1.245-0.33 0.352-0.745 0.626-1.245 0.823-0.496 0.194-1.062 0.29-1.699 0.29z" fill="#1F1F1F"/>
<path d="m242.83 314.19c-0.553 0-1.053-0.102-1.5-0.307-0.447-0.208-0.801-0.509-1.062-0.903-0.258-0.394-0.387-0.877-0.387-1.449 0-0.492 0.095-0.898 0.284-1.216 0.19-0.318 0.446-0.57 0.767-0.755 0.322-0.186 0.682-0.326 1.08-0.421s0.803-0.167 1.216-0.216c0.523-0.06 0.947-0.11 1.273-0.148 0.325-0.041 0.562-0.108 0.71-0.198 0.148-0.091 0.221-0.239 0.221-0.444v-0.039c0-0.497-0.14-0.881-0.42-1.154-0.276-0.273-0.689-0.409-1.239-0.409-0.572 0-1.022 0.127-1.352 0.381-0.326 0.25-0.551 0.528-0.676 0.835l-1.597-0.364c0.19-0.53 0.466-0.958 0.83-1.284 0.367-0.329 0.79-0.568 1.267-0.716 0.477-0.151 0.979-0.227 1.506-0.227 0.348 0 0.717 0.042 1.108 0.125 0.394 0.08 0.761 0.227 1.102 0.443 0.345 0.216 0.627 0.525 0.846 0.926 0.22 0.398 0.33 0.915 0.33 1.552v5.795h-1.659v-1.193h-0.068c-0.11 0.22-0.275 0.435-0.495 0.648-0.219 0.212-0.501 0.388-0.846 0.528s-0.758 0.21-1.239 0.21zm0.37-1.363c0.469 0 0.871-0.093 1.204-0.279 0.337-0.185 0.593-0.428 0.767-0.727 0.178-0.303 0.267-0.627 0.267-0.972v-1.125c-0.06 0.061-0.178 0.118-0.352 0.171-0.171 0.049-0.366 0.093-0.585 0.13-0.22 0.035-0.434 0.067-0.642 0.097-0.209 0.027-0.383 0.049-0.523 0.068-0.33 0.042-0.631 0.112-0.904 0.21-0.268 0.099-0.484 0.241-0.647 0.427-0.159 0.181-0.239 0.424-0.239 0.727 0 0.42 0.155 0.738 0.466 0.954 0.311 0.212 0.706 0.319 1.188 0.319z" fill="#1F1F1F"/>
<path d="m249.64 314v-8.727h1.63v1.42h0.108c0.182-0.481 0.479-0.856 0.892-1.125 0.413-0.273 0.908-0.409 1.483-0.409 0.584 0 1.072 0.136 1.466 0.409 0.398 0.273 0.692 0.648 0.881 1.125h0.091c0.208-0.466 0.54-0.837 0.994-1.113 0.455-0.281 0.996-0.421 1.625-0.421 0.792 0 1.438 0.248 1.938 0.744 0.503 0.497 0.755 1.245 0.755 2.245v5.852h-1.699v-5.693c0-0.591-0.161-1.019-0.483-1.284-0.321-0.265-0.706-0.398-1.153-0.398-0.553 0-0.983 0.17-1.29 0.511-0.307 0.337-0.46 0.771-0.46 1.302v5.562h-1.693v-5.801c0-0.474-0.148-0.854-0.443-1.142-0.296-0.288-0.68-0.432-1.154-0.432-0.322 0-0.619 0.085-0.892 0.256-0.269 0.166-0.486 0.399-0.653 0.699-0.163 0.299-0.244 0.645-0.244 1.039v5.381h-1.699z" fill="#1F1F1F"/>
<path d="m199.8 324.15h-1.772c-0.068-0.379-0.195-0.712-0.381-1s-0.413-0.532-0.682-0.733-0.57-0.352-0.903-0.455c-0.33-0.102-0.68-0.153-1.051-0.153-0.671 0-1.271 0.168-1.801 0.506-0.527 0.337-0.944 0.831-1.25 1.482-0.303 0.652-0.455 1.447-0.455 2.387 0 0.947 0.152 1.746 0.455 2.398 0.306 0.651 0.725 1.143 1.255 1.477 0.531 0.333 1.127 0.5 1.79 0.5 0.367 0 0.716-0.049 1.045-0.148 0.334-0.102 0.635-0.252 0.904-0.449s0.496-0.437 0.682-0.721c0.189-0.288 0.32-0.618 0.392-0.989l1.772 6e-3c-0.094 0.572-0.278 1.098-0.551 1.579-0.269 0.478-0.615 0.89-1.039 1.239-0.421 0.345-0.902 0.612-1.444 0.801-0.541 0.189-1.132 0.284-1.772 0.284-1.008 0-1.906-0.239-2.694-0.716-0.787-0.481-1.409-1.168-1.863-2.062-0.451-0.894-0.676-1.961-0.676-3.199 0-1.243 0.227-2.309 0.682-3.199 0.454-0.894 1.075-1.58 1.863-2.057 0.788-0.481 1.684-0.721 2.688-0.721 0.617 0 1.193 0.089 1.727 0.267 0.538 0.174 1.021 0.431 1.449 0.772 0.428 0.337 0.782 0.75 1.062 1.239 0.281 0.485 0.47 1.04 0.568 1.665z" fill="#1F1F1F"/>
<path d="m205.68 332.18c-0.818 0-1.532-0.187-2.142-0.562s-1.083-0.9-1.421-1.574c-0.337-0.674-0.505-1.462-0.505-2.364 0-0.905 0.168-1.697 0.505-2.375 0.338-0.678 0.811-1.204 1.421-1.579s1.324-0.563 2.142-0.563 1.532 0.188 2.142 0.563 1.083 0.901 1.42 1.579c0.338 0.678 0.506 1.47 0.506 2.375 0 0.902-0.168 1.69-0.506 2.364-0.337 0.674-0.81 1.199-1.42 1.574s-1.324 0.562-2.142 0.562zm6e-3 -1.426c0.53 0 0.969-0.14 1.318-0.42 0.348-0.281 0.606-0.654 0.773-1.12 0.17-0.466 0.255-0.979 0.255-1.54 0-0.556-0.085-1.068-0.255-1.534-0.167-0.469-0.425-0.846-0.773-1.13-0.349-0.284-0.788-0.426-1.318-0.426-0.534 0-0.978 0.142-1.33 0.426-0.348 0.284-0.608 0.661-0.778 1.13-0.167 0.466-0.25 0.978-0.25 1.534 0 0.561 0.083 1.074 0.25 1.54 0.17 0.466 0.43 0.839 0.778 1.12 0.352 0.28 0.796 0.42 1.33 0.42z" fill="#1F1F1F"/>
<path d="m213.58 320.36v11.636h-1.699v-11.636h1.699z" fill="#1F1F1F"/>
<path d="m217.8 320.36v11.636h-1.698v-11.636h1.698z" fill="#1F1F1F"/>
<path d="m222.86 332.19c-0.554 0-1.054-0.102-1.5-0.307-0.447-0.208-0.802-0.509-1.063-0.903-0.258-0.394-0.386-0.877-0.386-1.449 0-0.492 0.094-0.898 0.284-1.216 0.189-0.318 0.445-0.57 0.767-0.755 0.322-0.186 0.682-0.326 1.079-0.421 0.398-0.095 0.803-0.167 1.216-0.216 0.523-0.06 0.947-0.11 1.273-0.148 0.326-0.041 0.562-0.108 0.71-0.198 0.148-0.091 0.222-0.239 0.222-0.444v-0.039c0-0.497-0.14-0.881-0.421-1.154-0.276-0.273-0.689-0.409-1.238-0.409-0.572 0-1.023 0.127-1.353 0.381-0.325 0.25-0.551 0.528-0.676 0.835l-1.596-0.364c0.189-0.53 0.466-0.958 0.829-1.284 0.368-0.329 0.79-0.568 1.267-0.716 0.478-0.151 0.979-0.227 1.506-0.227 0.348 0 0.718 0.042 1.108 0.125 0.394 0.08 0.761 0.227 1.102 0.443 0.345 0.216 0.627 0.525 0.847 0.926 0.219 0.398 0.329 0.915 0.329 1.552v5.795h-1.659v-1.193h-0.068c-0.11 0.22-0.275 0.435-0.494 0.648-0.22 0.212-0.502 0.388-0.847 0.528s-0.757 0.21-1.238 0.21zm0.369-1.363c0.47 0 0.871-0.093 1.204-0.279 0.338-0.185 0.593-0.428 0.767-0.727 0.178-0.303 0.267-0.627 0.267-0.972v-1.125c-0.06 0.061-0.178 0.118-0.352 0.171-0.17 0.049-0.365 0.093-0.585 0.13-0.22 0.035-0.434 0.067-0.642 0.097-0.208 0.027-0.383 0.049-0.523 0.068-0.329 0.042-0.63 0.112-0.903 0.21-0.269 0.099-0.485 0.241-0.648 0.427-0.159 0.181-0.239 0.424-0.239 0.727 0 0.42 0.156 0.738 0.466 0.954 0.311 0.212 0.707 0.319 1.188 0.319z" fill="#1F1F1F"/>
<path d="m229.8 332v-11.636h1.699v4.324h0.102c0.099-0.182 0.241-0.393 0.427-0.631 0.185-0.239 0.443-0.447 0.772-0.625 0.33-0.182 0.765-0.273 1.307-0.273 0.705 0 1.333 0.178 1.887 0.534 0.553 0.356 0.986 0.87 1.301 1.54 0.318 0.67 0.477 1.477 0.477 2.42 0 0.944-0.157 1.752-0.472 2.427-0.314 0.67-0.746 1.187-1.295 1.551-0.549 0.36-1.176 0.539-1.881 0.539-0.53 0-0.964-0.089-1.301-0.267-0.333-0.178-0.595-0.386-0.784-0.625-0.189-0.238-0.335-0.45-0.438-0.636h-0.142v1.358h-1.659zm1.665-4.364c0 0.614 0.089 1.152 0.267 1.614s0.436 0.824 0.773 1.085c0.337 0.258 0.75 0.387 1.239 0.387 0.507 0 0.931-0.135 1.272-0.404 0.341-0.273 0.599-0.642 0.773-1.108 0.178-0.466 0.267-0.99 0.267-1.574 0-0.575-0.087-1.092-0.261-1.551-0.171-0.458-0.428-0.82-0.773-1.085-0.341-0.265-0.767-0.398-1.278-0.398-0.493 0-0.91 0.127-1.25 0.381-0.338 0.254-0.593 0.608-0.768 1.062-0.174 0.455-0.261 0.985-0.261 1.591z" fill="#1F1F1F"/>
<path d="m243.59 332.18c-0.819 0-1.533-0.187-2.142-0.562-0.61-0.375-1.084-0.9-1.421-1.574s-0.506-1.462-0.506-2.364c0-0.905 0.169-1.697 0.506-2.375s0.811-1.204 1.421-1.579c0.609-0.375 1.323-0.563 2.142-0.563 0.818 0 1.532 0.188 2.142 0.563 0.609 0.375 1.083 0.901 1.42 1.579s0.506 1.47 0.506 2.375c0 0.902-0.169 1.69-0.506 2.364s-0.811 1.199-1.42 1.574c-0.61 0.375-1.324 0.562-2.142 0.562zm5e-3 -1.426c0.531 0 0.97-0.14 1.318-0.42 0.349-0.281 0.607-0.654 0.773-1.12 0.171-0.466 0.256-0.979 0.256-1.54 0-0.556-0.085-1.068-0.256-1.534-0.166-0.469-0.424-0.846-0.773-1.13-0.348-0.284-0.787-0.426-1.318-0.426-0.534 0-0.977 0.142-1.329 0.426-0.349 0.284-0.608 0.661-0.779 1.13-0.166 0.466-0.25 0.978-0.25 1.534 0 0.561 0.084 1.074 0.25 1.54 0.171 0.466 0.43 0.839 0.779 1.12 0.352 0.28 0.795 0.42 1.329 0.42z" fill="#1F1F1F"/>
<path d="m249.79 332v-8.727h1.642v1.386h0.091c0.159-0.47 0.439-0.839 0.841-1.108 0.405-0.273 0.863-0.409 1.375-0.409 0.106 0 0.231 4e-3 0.375 0.011 0.148 8e-3 0.263 0.017 0.346 0.029v1.625c-0.068-0.019-0.189-0.04-0.363-0.063-0.175-0.026-0.349-0.039-0.523-0.039-0.401 0-0.759 0.085-1.074 0.255-0.31 0.167-0.557 0.4-0.738 0.699-0.182 0.296-0.273 0.633-0.273 1.011v5.33h-1.699z" fill="#1F1F1F"/>
<path d="m258.63 332.19c-0.553 0-1.053-0.102-1.5-0.307-0.447-0.208-0.801-0.509-1.062-0.903-0.258-0.394-0.387-0.877-0.387-1.449 0-0.492 0.095-0.898 0.284-1.216 0.19-0.318 0.445-0.57 0.767-0.755 0.322-0.186 0.682-0.326 1.08-0.421s0.803-0.167 1.216-0.216c0.522-0.06 0.947-0.11 1.272-0.148 0.326-0.041 0.563-0.108 0.711-0.198 0.147-0.091 0.221-0.239 0.221-0.444v-0.039c0-0.497-0.14-0.881-0.42-1.154-0.277-0.273-0.69-0.409-1.239-0.409-0.572 0-1.022 0.127-1.352 0.381-0.326 0.25-0.551 0.528-0.676 0.835l-1.597-0.364c0.19-0.53 0.466-0.958 0.83-1.284 0.367-0.329 0.79-0.568 1.267-0.716 0.477-0.151 0.979-0.227 1.505-0.227 0.349 0 0.718 0.042 1.108 0.125 0.394 0.08 0.762 0.227 1.103 0.443 0.344 0.216 0.627 0.525 0.846 0.926 0.22 0.398 0.33 0.915 0.33 1.552v5.795h-1.659v-1.193h-0.068c-0.11 0.22-0.275 0.435-0.495 0.648-0.219 0.212-0.502 0.388-0.846 0.528-0.345 0.14-0.758 0.21-1.239 0.21zm0.369-1.363c0.47 0 0.872-0.093 1.205-0.279 0.337-0.185 0.593-0.428 0.767-0.727 0.178-0.303 0.267-0.627 0.267-0.972v-1.125c-0.061 0.061-0.178 0.118-0.352 0.171-0.171 0.049-0.366 0.093-0.586 0.13-0.219 0.035-0.433 0.067-0.642 0.097-0.208 0.027-0.382 0.049-0.522 0.068-0.33 0.042-0.631 0.112-0.904 0.21-0.269 0.099-0.485 0.241-0.647 0.427-0.16 0.181-0.239 0.424-0.239 0.727 0 0.42 0.155 0.738 0.466 0.954 0.31 0.212 0.706 0.319 1.187 0.319z" fill="#1F1F1F"/>
<path d="m269.51 323.27v1.363h-4.767v-1.363h4.767zm-3.488-2.091h1.699v8.256c0 0.329 0.049 0.577 0.147 0.744 0.099 0.163 0.226 0.274 0.381 0.335 0.159 0.057 0.331 0.085 0.517 0.085 0.136 0 0.256-9e-3 0.358-0.028s0.182-0.034 0.239-0.046l0.306 1.404c-0.098 0.038-0.238 0.076-0.42 0.113-0.182 0.042-0.409 0.065-0.682 0.069-0.447 7e-3 -0.863-0.072-1.25-0.239-0.386-0.167-0.699-0.424-0.937-0.773-0.239-0.348-0.358-0.786-0.358-1.312v-8.608z" fill="#1F1F1F"/>
<path d="m271.62 332v-8.727h1.699v8.727h-1.699zm0.858-10.074c-0.295 0-0.549-0.098-0.761-0.295-0.208-0.201-0.312-0.44-0.312-0.716 0-0.281 0.104-0.519 0.312-0.716 0.212-0.201 0.466-0.301 0.761-0.301 0.296 0 0.548 0.1 0.756 0.301 0.212 0.197 0.318 0.435 0.318 0.716 0 0.276-0.106 0.515-0.318 0.716-0.208 0.197-0.46 0.295-0.756 0.295z" fill="#1F1F1F"/>
<path d="m279.52 332.18c-0.818 0-1.532-0.187-2.142-0.562s-1.084-0.9-1.421-1.574-0.505-1.462-0.505-2.364c0-0.905 0.168-1.697 0.505-2.375s0.811-1.204 1.421-1.579 1.324-0.563 2.142-0.563 1.532 0.188 2.142 0.563 1.083 0.901 1.42 1.579 0.506 1.47 0.506 2.375c0 0.902-0.169 1.69-0.506 2.364s-0.81 1.199-1.42 1.574-1.324 0.562-2.142 0.562zm6e-3 -1.426c0.53 0 0.969-0.14 1.318-0.42 0.348-0.281 0.606-0.654 0.772-1.12 0.171-0.466 0.256-0.979 0.256-1.54 0-0.556-0.085-1.068-0.256-1.534-0.166-0.469-0.424-0.846-0.772-1.13-0.349-0.284-0.788-0.426-1.318-0.426-0.535 0-0.978 0.142-1.33 0.426-0.349 0.284-0.608 0.661-0.778 1.13-0.167 0.466-0.25 0.978-0.25 1.534 0 0.561 0.083 1.074 0.25 1.54 0.17 0.466 0.429 0.839 0.778 1.12 0.352 0.28 0.795 0.42 1.33 0.42z" fill="#1F1F1F"/>
<path d="m287.42 326.82v5.182h-1.699v-8.727h1.631v1.42h0.108c0.201-0.462 0.515-0.833 0.943-1.113 0.432-0.281 0.975-0.421 1.631-0.421 0.594 0 1.115 0.125 1.562 0.375 0.447 0.246 0.794 0.614 1.04 1.102 0.246 0.489 0.369 1.093 0.369 1.813v5.551h-1.699v-5.347c0-0.632-0.164-1.126-0.494-1.483-0.329-0.359-0.782-0.539-1.358-0.539-0.394 0-0.744 0.085-1.051 0.255-0.303 0.171-0.544 0.421-0.722 0.75-0.174 0.326-0.261 0.72-0.261 1.182z" fill="#1F1F1F"/>
<rect x="358.5" y="237.01" width="199.75" height="120.2" rx="17.02" fill="#DEEEFD"/>
<path d="m458 270.33 10.956 2.435c0.609 0.136 1.044 0.676 1.044 1.301v13.316c0 2.675-1.337 5.174-3.563 6.656l-8.437 5.626-8.437-5.626c-2.227-1.484-3.563-3.981-3.563-6.654v-13.318c0-0.625 0.435-1.165 1.044-1.301l10.956-2.435zm5.936 9.63-6.6 6.598-3.771-3.77-1.885 1.885 5.657 5.657 8.486-8.485-1.887-1.885z" fill="#276EF1"/>
<path d="m416.61 322v-10.182h3.629c0.792 0 1.448 0.144 1.969 0.433 0.52 0.288 0.909 0.682 1.168 1.183 0.258 0.497 0.388 1.057 0.388 1.68 0 0.627-0.131 1.19-0.393 1.691-0.259 0.497-0.65 0.891-1.173 1.183-0.521 0.288-1.175 0.432-1.964 0.432h-2.496v-1.302h2.357c0.5 0 0.906-0.086 1.218-0.259 0.311-0.175 0.54-0.414 0.686-0.716 0.146-0.301 0.219-0.644 0.219-1.029 0-0.384-0.073-0.725-0.219-1.024-0.146-0.298-0.376-0.532-0.691-0.701-0.312-0.169-0.723-0.253-1.233-0.253h-1.929v8.864h-1.536z" fill="#000"/>
<path d="m425.68 322v-7.636h1.437v1.213h0.08c0.139-0.411 0.384-0.734 0.735-0.97 0.355-0.238 0.756-0.358 1.203-0.358 0.093 0 0.203 4e-3 0.329 0.01 0.129 7e-3 0.23 0.015 0.303 0.025v1.422c-0.06-0.017-0.166-0.035-0.318-0.055-0.153-0.023-0.305-0.035-0.458-0.035-0.351 0-0.664 0.075-0.939 0.224-0.272 0.146-0.488 0.35-0.647 0.612-0.159 0.258-0.238 0.553-0.238 0.885v4.663h-1.487z" fill="#000"/>
<path d="m434.23 322.15c-0.716 0-1.34-0.164-1.874-0.492s-0.948-0.787-1.243-1.377-0.442-1.28-0.442-2.068c0-0.793 0.147-1.485 0.442-2.078 0.295-0.594 0.709-1.054 1.243-1.383 0.534-0.328 1.158-0.492 1.874-0.492s1.341 0.164 1.875 0.492c0.533 0.329 0.947 0.789 1.242 1.383 0.295 0.593 0.443 1.285 0.443 2.078 0 0.788-0.148 1.478-0.443 2.068s-0.709 1.049-1.242 1.377c-0.534 0.328-1.159 0.492-1.875 0.492zm5e-3 -1.248c0.464 0 0.849-0.122 1.154-0.368 0.305-0.245 0.53-0.571 0.676-0.979 0.149-0.408 0.223-0.857 0.223-1.347 0-0.488-0.074-0.935-0.223-1.343-0.146-0.411-0.371-0.74-0.676-0.989s-0.69-0.373-1.154-0.373c-0.467 0-0.855 0.124-1.163 0.373-0.305 0.249-0.532 0.578-0.681 0.989-0.146 0.408-0.219 0.855-0.219 1.343 0 0.49 0.073 0.939 0.219 1.347 0.149 0.408 0.376 0.734 0.681 0.979 0.308 0.246 0.696 0.368 1.163 0.368z" fill="#000"/>
<path d="m439.68 314.36h1.487v8.133c0 0.511-0.093 0.941-0.279 1.293-0.182 0.351-0.454 0.618-0.815 0.8-0.358 0.183-0.801 0.274-1.328 0.274h-0.149c-0.049 0-0.101-2e-3 -0.154-5e-3v-1.278h0.124 0.115c0.351 0 0.605-0.094 0.76-0.283 0.159-0.186 0.239-0.456 0.239-0.811v-8.123zm0.736-1.179c-0.259 0-0.481-0.086-0.666-0.258-0.183-0.176-0.274-0.385-0.274-0.627 0-0.245 0.091-0.454 0.274-0.626 0.185-0.176 0.407-0.263 0.666-0.263 0.258 0 0.479 0.087 0.661 0.263 0.186 0.172 0.278 0.381 0.278 0.626 0 0.242-0.092 0.451-0.278 0.627-0.182 0.172-0.403 0.258-0.661 0.258z" fill="#000"/>
<path d="m446.7 322.15c-0.752 0-1.4-0.161-1.943-0.482-0.541-0.325-0.958-0.781-1.253-1.367-0.292-0.59-0.438-1.281-0.438-2.073 0-0.783 0.146-1.472 0.438-2.069 0.295-0.596 0.706-1.062 1.233-1.397 0.53-0.334 1.15-0.502 1.859-0.502 0.431 0 0.848 0.071 1.253 0.214 0.404 0.143 0.767 0.366 1.089 0.671 0.321 0.305 0.575 0.701 0.76 1.188 0.186 0.484 0.279 1.073 0.279 1.765v0.527h-6.071v-1.113h4.614c0-0.391-0.08-0.738-0.239-1.039-0.159-0.305-0.382-0.546-0.671-0.721-0.285-0.176-0.62-0.264-1.004-0.264-0.418 0-0.782 0.103-1.094 0.308-0.308 0.203-0.547 0.468-0.716 0.796-0.165 0.325-0.248 0.678-0.248 1.059v0.87c0 0.51 0.089 0.944 0.268 1.302 0.182 0.358 0.436 0.632 0.761 0.821 0.325 0.185 0.704 0.278 1.138 0.278 0.282 0 0.539-0.04 0.771-0.119 0.232-0.083 0.432-0.206 0.601-0.368 0.17-0.162 0.299-0.363 0.388-0.602l1.407 0.254c-0.112 0.414-0.315 0.777-0.606 1.089-0.289 0.308-0.652 0.548-1.089 0.721-0.434 0.169-0.93 0.253-1.487 0.253z" fill="#000"/>
<path d="m455.08 322.15c-0.739 0-1.375-0.167-1.909-0.502-0.53-0.338-0.938-0.804-1.223-1.397s-0.427-1.273-0.427-2.038c0-0.776 0.146-1.46 0.437-2.054 0.292-0.596 0.703-1.062 1.233-1.397 0.531-0.334 1.155-0.502 1.875-0.502 0.58 0 1.097 0.108 1.551 0.323 0.454 0.212 0.82 0.511 1.098 0.895 0.282 0.385 0.45 0.834 0.503 1.348h-1.447c-0.08-0.358-0.262-0.667-0.547-0.925-0.282-0.259-0.66-0.388-1.134-0.388-0.414 0-0.777 0.109-1.088 0.328-0.309 0.216-0.549 0.524-0.721 0.925-0.173 0.398-0.259 0.868-0.259 1.412 0 0.557 0.085 1.037 0.254 1.442 0.169 0.404 0.407 0.717 0.716 0.939 0.311 0.222 0.677 0.333 1.098 0.333 0.282 0 0.537-0.051 0.766-0.154 0.232-0.106 0.426-0.257 0.582-0.452 0.159-0.196 0.27-0.431 0.333-0.706h1.447c-0.053 0.494-0.214 0.934-0.483 1.322-0.268 0.388-0.628 0.693-1.079 0.915-0.447 0.222-0.972 0.333-1.576 0.333z" fill="#000"/>
<path d="m463.6 314.36v1.193h-4.171v-1.193h4.171zm-3.053-1.83h1.487v7.224c0 0.288 0.043 0.505 0.129 0.651 0.086 0.143 0.197 0.24 0.333 0.293 0.139 0.05 0.29 0.075 0.452 0.075 0.12 0 0.224-8e-3 0.314-0.025 0.089-0.016 0.159-0.03 0.208-0.04l0.269 1.228c-0.086 0.033-0.209 0.067-0.368 0.1-0.159 0.036-0.358 0.056-0.597 0.059-0.391 7e-3 -0.755-0.063-1.093-0.208-0.338-0.146-0.612-0.372-0.821-0.677-0.208-0.304-0.313-0.687-0.313-1.148v-7.532z" fill="#000"/>
<path d="m476.44 315.04c-0.096-0.302-0.226-0.572-0.388-0.811-0.159-0.242-0.35-0.447-0.572-0.616-0.222-0.172-0.475-0.303-0.76-0.393-0.282-0.089-0.592-0.134-0.93-0.134-0.573 0-1.091 0.147-1.551 0.442-0.461 0.295-0.826 0.728-1.094 1.298-0.265 0.567-0.398 1.261-0.398 2.083 0 0.825 0.135 1.523 0.403 2.093s0.636 1.003 1.104 1.298c0.467 0.295 0.999 0.442 1.596 0.442 0.553 0 1.035-0.112 1.446-0.338 0.415-0.225 0.734-0.543 0.96-0.954 0.229-0.415 0.343-0.902 0.343-1.462l0.398 0.075h-2.914v-1.268h4.002v1.158c0 0.855-0.182 1.598-0.547 2.227-0.361 0.627-0.861 1.111-1.501 1.452-0.636 0.342-1.365 0.512-2.187 0.512-0.922 0-1.731-0.212-2.427-0.636-0.692-0.424-1.233-1.026-1.62-1.805-0.388-0.782-0.582-1.71-0.582-2.784 0-0.812 0.113-1.541 0.338-2.187 0.225-0.647 0.542-1.195 0.95-1.646 0.411-0.454 0.893-0.8 1.446-1.039 0.557-0.242 1.165-0.363 1.825-0.363 0.55 0 1.062 0.081 1.536 0.244 0.477 0.162 0.902 0.392 1.273 0.691 0.374 0.298 0.684 0.653 0.93 1.064 0.245 0.407 0.411 0.86 0.497 1.357h-1.576z" fill="#000"/>
<path d="m483.36 322.15c-0.716 0-1.341-0.164-1.875-0.492-0.533-0.328-0.948-0.787-1.243-1.377s-0.442-1.28-0.442-2.068c0-0.793 0.147-1.485 0.442-2.078 0.295-0.594 0.71-1.054 1.243-1.383 0.534-0.328 1.159-0.492 1.875-0.492s1.34 0.164 1.874 0.492c0.534 0.329 0.948 0.789 1.243 1.383 0.295 0.593 0.442 1.285 0.442 2.078 0 0.788-0.147 1.478-0.442 2.068s-0.709 1.049-1.243 1.377-1.158 0.492-1.874 0.492zm5e-3 -1.248c0.464 0 0.848-0.122 1.153-0.368 0.305-0.245 0.53-0.571 0.676-0.979 0.149-0.408 0.224-0.857 0.224-1.347 0-0.488-0.075-0.935-0.224-1.343-0.146-0.411-0.371-0.74-0.676-0.989s-0.689-0.373-1.153-0.373c-0.468 0-0.856 0.124-1.164 0.373-0.305 0.249-0.532 0.578-0.681 0.989-0.146 0.408-0.219 0.855-0.219 1.343 0 0.49 0.073 0.939 0.219 1.347 0.149 0.408 0.376 0.734 0.681 0.979 0.308 0.246 0.696 0.368 1.164 0.368z" fill="#000"/>
<path d="m491.04 322.17c-0.484 0-0.922-0.089-1.313-0.268-0.391-0.183-0.701-0.446-0.929-0.791-0.226-0.345-0.339-0.767-0.339-1.268 0-0.431 0.083-0.785 0.249-1.064 0.166-0.278 0.389-0.498 0.671-0.661 0.282-0.162 0.597-0.285 0.945-0.368s0.702-0.146 1.064-0.189c0.457-0.053 0.828-0.096 1.113-0.129 0.285-0.036 0.493-0.094 0.622-0.174 0.129-0.079 0.194-0.209 0.194-0.388v-0.034c0-0.435-0.123-0.771-0.368-1.01-0.242-0.238-0.603-0.358-1.084-0.358-0.5 0-0.895 0.111-1.183 0.333-0.285 0.219-0.482 0.463-0.592 0.731l-1.397-0.318c0.166-0.464 0.408-0.838 0.726-1.124 0.321-0.288 0.691-0.497 1.109-0.626 0.417-0.132 0.856-0.199 1.317-0.199 0.305 0 0.628 0.037 0.97 0.11 0.344 0.069 0.666 0.198 0.964 0.387 0.302 0.189 0.549 0.459 0.741 0.811 0.192 0.348 0.288 0.8 0.288 1.357v5.071h-1.452v-1.044h-0.059c-0.096 0.192-0.24 0.381-0.433 0.567-0.192 0.185-0.439 0.339-0.74 0.462-0.302 0.123-0.663 0.184-1.084 0.184zm0.323-1.193c0.411 0 0.762-0.081 1.054-0.244 0.295-0.162 0.519-0.374 0.671-0.636 0.156-0.265 0.234-0.549 0.234-0.85v-0.985c-0.053 0.053-0.156 0.103-0.309 0.15-0.149 0.043-0.319 0.081-0.512 0.114-0.192 0.03-0.379 0.058-0.561 0.084-0.183 0.024-0.335 0.043-0.458 0.06-0.288 0.037-0.552 0.098-0.79 0.184-0.236 0.086-0.425 0.21-0.567 0.373-0.139 0.159-0.209 0.371-0.209 0.636 0 0.368 0.136 0.647 0.408 0.835 0.272 0.186 0.618 0.279 1.039 0.279z" fill="#000"/>
<path d="m498.51 311.82v10.182h-1.486v-10.182h1.486z" fill="#000"/>
<defs>
<filter id="a" x="26.899" y=".8557" width="646.2" height="487.2" color-interpolation-filters="sRGB" filterUnits="userSpaceOnUse">
<feFlood flood-opacity="0" result="BackgroundImageFix"/>
<feColorMatrix in="SourceAlpha" result="hardAlpha" values="0 0 0 0 0 0 0 0 0 0 0 0 0 0 0 0 0 0 127 0"/>
<feOffset dy="15.9564"/>
<feGaussianBlur stdDeviation="42.5503"/>
<feComposite in2="hardAlpha" operator="out"/>
<feColorMatrix values="0 0 0 0 0.184314 0 0 0 0 0.254902 0 0 0 0 0.345098 0 0 0 0.1 0"/>
<feBlend in2="BackgroundImageFix" result="effect1_dropShadow_803_323"/>
<feBlend in="SourceGraphic" in2="effect1_dropShadow_803_323" result="shape"/>
</filter>
</defs>
</svg>
