<svg width="128" height="36" viewBox="0 0 128 36" fill="none" xmlns="http://www.w3.org/2000/svg">
<path d="M60.6152 21.7244V34.4993H64.7658V20.8942C64.7658 19.1725 64.3969 17.6506 63.659 16.3285C62.9211 15.0064 61.9065 13.9764 60.6152 13.2385C59.3546 12.5006 57.8942 12.1317 56.2339 12.1317C54.5736 12.1317 53.0824 12.516 51.7604 13.2847C50.7645 13.8405 49.9344 14.5533 49.2699 15.4232V1.5705H45.1193V34.4993H49.2699V21.7244C49.2699 20.6175 49.5159 19.6337 50.0078 18.7728C50.4998 17.9119 51.1762 17.2355 52.0371 16.7436C52.898 16.2516 53.8818 16.0057 54.9887 16.0057C56.6489 16.0057 58.0018 16.5437 59.0471 17.6198C60.0925 18.6959 60.6152 20.0641 60.6152 21.7244Z" fill="#181818"/>
<path d="M72.0458 33.7614C73.4908 34.5608 75.1203 34.9605 76.9343 34.9605C78.7791 34.9605 80.3932 34.5608 81.7768 33.7614C83.1911 32.9312 84.298 31.7936 85.0974 30.3486C85.8968 28.9035 86.2964 27.2279 86.2964 25.3216V12.5929H82.1458V25.1372C82.1458 26.9512 81.6846 28.3809 80.7622 29.4262C79.8398 30.4408 78.5639 30.9481 76.9343 30.9481C75.8582 30.9481 74.9205 30.7175 74.1211 30.2564C73.3217 29.7952 72.7068 29.1341 72.2764 28.2732C71.8767 27.3816 71.6768 26.3363 71.6768 25.1372V12.5929H67.5261V25.3216C67.5261 27.2279 67.9258 28.9035 68.7252 30.3486C69.5246 31.7936 70.6315 32.9312 72.0458 33.7614Z" fill="#181818"/>
<path fill-rule="evenodd" clip-rule="evenodd" d="M99.6997 34.9605C97.5168 34.9605 95.549 34.4685 93.7965 33.4847C92.044 32.4701 90.6604 31.1019 89.6458 29.3801C88.6312 27.6583 88.1239 25.706 88.1239 23.523C88.1239 21.3708 88.6158 19.4338 89.5997 17.7121C90.6143 15.9903 91.9671 14.6375 93.6581 13.6536C95.3799 12.639 97.3015 12.1317 99.423 12.1317C101.452 12.1317 103.235 12.5929 104.773 13.5153C106.341 14.4376 107.555 15.7136 108.416 17.3431C109.308 18.9726 109.754 20.8174 109.754 22.8774C109.754 23.1848 109.738 23.523 109.707 23.892C109.677 24.2302 109.615 24.6299 109.523 25.0911H92.3674C92.5134 25.9442 92.7746 26.7282 93.1508 27.4431C93.7658 28.5807 94.642 29.4723 95.7796 30.118C96.9172 30.7329 98.2239 31.0404 99.6997 31.0404C100.93 31.0404 102.052 30.8252 103.066 30.3947C104.112 29.9643 105.003 29.3186 105.741 28.4577L108.416 31.1787C107.371 32.4086 106.079 33.3463 104.542 33.992C103.036 34.6376 101.421 34.9605 99.6997 34.9605ZM93.1047 19.4646C92.7601 20.1175 92.5171 20.8401 92.3758 21.6321H105.708C105.595 20.7255 105.36 19.9261 105.003 19.234C104.481 18.1886 103.743 17.3892 102.79 16.8358C101.837 16.2516 100.684 15.9595 99.3308 15.9595C97.9165 15.9595 96.6712 16.267 95.5951 16.8819C94.519 17.4968 93.6889 18.3577 93.1047 19.4646Z" fill="#181818"/>
<path d="M112.435 33.1157C113.357 33.6999 114.356 34.1611 115.432 34.4993C116.539 34.8067 117.708 34.9605 118.937 34.9605C121.397 34.9605 123.349 34.3609 124.794 33.1618C126.27 31.9627 127.008 30.3332 127.008 28.2732C127.008 26.9204 126.716 25.829 126.132 24.9988C125.578 24.1687 124.856 23.5076 123.964 23.0157C123.073 22.5238 122.135 22.1395 121.151 21.8627C120.167 21.5553 119.214 21.2632 118.292 20.9865C117.4 20.7098 116.678 20.3716 116.124 19.9719C115.571 19.5722 115.294 19.0034 115.294 18.2655C115.294 17.5276 115.601 16.9588 116.216 16.5591C116.862 16.1286 117.784 15.9134 118.983 15.9134C120.121 15.9134 121.136 16.1286 122.027 16.5591C122.95 16.9895 123.718 17.6044 124.333 18.4038L127.008 15.729C126.147 14.5299 125.04 13.6382 123.688 13.0541C122.366 12.4391 120.844 12.1317 119.122 12.1317C117.492 12.1317 116.093 12.393 114.925 12.9157C113.787 13.4384 112.896 14.1917 112.25 15.1755C111.604 16.1286 111.282 17.2662 111.282 18.5883C111.282 19.9104 111.558 20.9711 112.112 21.7705C112.696 22.5699 113.434 23.2002 114.325 23.6614C115.217 24.1226 116.155 24.5069 117.139 24.8143C118.153 25.0911 119.106 25.3831 119.998 25.6906C120.89 25.9673 121.612 26.3363 122.166 26.7974C122.75 27.2279 123.042 27.8428 123.042 28.6422C123.042 29.4416 122.688 30.0719 121.981 30.5331C121.274 30.9635 120.275 31.1787 118.983 31.1787C117.692 31.1787 116.524 30.9481 115.478 30.4869C114.433 29.995 113.511 29.2571 112.711 28.2732L110.036 30.9481C110.713 31.7783 111.512 32.5008 112.435 33.1157Z" fill="#181818"/>
<path d="M123.123 5.23801V6.05533H122.139V8.54196H121.205V6.05533H120.221V5.23801H123.123Z" fill="#181818"/>
<path d="M126.958 5.18848V8.55682H126.024V6.92218L125.339 7.68996H125.06L124.375 6.92218V8.55682H123.441V5.18848H123.771L125.199 6.62497L126.628 5.18848H126.958Z" fill="#181818"/>
<path d="M5.31391 10.6133C6.60646 14.7577 11.014 17.0695 15.1584 15.777C19.3028 14.4844 29.1188 7.73654 27.8262 3.59214C26.5337 -0.552261 14.622 -0.523766 10.4776 0.768786C6.33324 2.06134 4.02136 6.46886 5.31391 10.6133Z" fill="#181818"/>
<path d="M2.81038 33.3386C5.24293 35.7711 9.18644 35.7711 11.619 33.3386C14.0515 30.906 18.4556 22.558 16.0235 20.1254C13.591 17.6931 5.24293 22.0974 2.81038 24.5297C0.377824 26.9623 0.377824 30.906 2.81038 33.3386Z" fill="#181818"/>
<path d="M26.085 35.7301C30.2785 36.8536 34.5887 34.3652 35.7125 30.1718C36.8358 25.9783 36.382 14.0755 32.1886 12.9518C27.9952 11.8283 21.6507 21.9094 20.5269 26.1029C19.4032 30.2961 21.8916 34.6063 26.085 35.7301Z" fill="#181818"/>
</svg>
