<svg width="65" height="56" viewBox="0 0 65 56" fill="none" xmlns="http://www.w3.org/2000/svg">
<path d="M48.4559 18.8967C39.6429 18.8967 32.4985 11.7598 32.4985 2.95605L64.4132 2.95605C64.4132 11.7598 57.2689 18.8967 48.4559 18.8967Z" fill="#FBE0E0"/>
<g clip-path="url(#clip0_726_1988)">
<path d="M8 45.5V14C8 13.5359 8.18437 13.0908 8.51256 12.7626C8.84075 12.4344 9.28587 12.25 9.75 12.25H21.4094C21.7878 12.2516 22.1557 12.3742 22.4594 12.6L28.5406 17.15C28.8443 17.3758 29.2122 17.4984 29.5906 17.5H44.75C45.2141 17.5 45.6592 17.6844 45.9874 18.0126C46.3156 18.3408 46.5 18.7859 46.5 19.25V24.5" stroke="black" stroke-width="3" stroke-linecap="round" stroke-linejoin="round"/>
<path d="M8 45.5L14.5625 29.0938C14.6905 28.7694 14.9136 28.4914 15.2025 28.2962C15.4914 28.101 15.8326 27.9977 16.1813 28H26.725C27.066 27.9964 27.3993 27.8979 27.6875 27.7156L32.0625 24.7844C32.3507 24.6021 32.684 24.5036 33.025 24.5H51.0719C51.3486 24.5 51.6214 24.5656 51.8678 24.6914C52.1143 24.8173 52.3274 24.9997 52.4896 25.2239C52.6519 25.4481 52.7587 25.7075 52.8012 25.981C52.8438 26.2544 52.8209 26.534 52.7344 26.7969L46.5 45.5H8Z" stroke="black" stroke-width="3" stroke-linecap="round" stroke-linejoin="round"/>
</g>
<defs>
<clipPath id="clip0_726_1988">
<rect width="55.8507" height="56" fill="white" transform="translate(0.583984)"/>
</clipPath>
</defs>
</svg>
