<svg width="96" height="97" viewBox="0 0 96 97" fill="none" xmlns="http://www.w3.org/2000/svg">
<circle cx="48" cy="48.3389" r="48" fill="#FCF1DE"/>
<path d="M31.7807 51.2925C29.1195 51.2925 26.9551 49.3764 26.9551 47.0345C26.9551 44.6927 29.1195 42.7766 31.7807 42.7766" fill="#FFECB3"/>
<path d="M31.7795 52.0021C28.7279 52.0021 26.2441 49.7667 26.2441 47.0345C26.2441 44.3023 28.7279 42.0669 31.7795 42.0669C32.1698 42.0669 32.4891 42.3862 32.4891 42.7765C32.4891 43.1669 32.1698 43.4862 31.7795 43.4862C29.5086 43.4862 27.6635 45.0829 27.6635 47.0345C27.6635 48.986 29.5086 50.6182 31.7795 50.6182C32.1698 50.6182 32.4891 50.9376 32.4891 51.3279C32.4891 51.7182 32.1698 52.0021 31.7795 52.0021Z" fill="#37474F"/>
<path d="M64.4629 42.7415C67.1241 42.7415 69.2885 44.6575 69.2885 46.9994C69.2885 49.3412 67.1241 51.2928 64.4629 51.2928" fill="#FFECB3"/>
<path d="M64.4616 52.0024C64.0713 52.0024 63.752 51.683 63.752 51.2927C63.752 50.9024 64.0713 50.5831 64.4616 50.5831C66.7325 50.5831 68.5776 48.9864 68.5776 46.9993C68.5776 45.0478 66.7325 43.451 64.4616 43.451C64.0713 43.451 63.752 43.1317 63.752 42.7414C63.752 42.3511 64.0713 42.0317 64.4616 42.0317C67.5131 42.0317 69.9969 44.2672 69.9969 46.9993C69.9969 49.767 67.5131 52.0024 64.4616 52.0024Z" fill="#37474F"/>
<path d="M66.0641 48.3833C66.0641 57.1831 58.045 64.2796 48.1454 64.2796C38.2457 64.2796 30.2266 57.1476 30.2266 48.3833C30.2266 39.6191 38.2457 32.4871 48.1454 32.4871C58.045 32.4871 66.0641 39.6191 66.0641 48.3833Z" fill="#FFECB3"/>
<path d="M48.1441 64.9892C37.8541 64.9892 29.5156 57.5378 29.5156 48.3833C29.5156 39.2287 37.8541 31.7773 48.1441 31.7773C58.4341 31.7773 66.7725 39.2287 66.7725 48.3833C66.7725 57.5378 58.3986 64.9892 48.1441 64.9892ZM48.1441 33.1967C38.6702 33.1967 30.9349 40.0093 30.9349 48.3833C30.9349 56.7572 38.6702 63.5699 48.1441 63.5699C57.618 63.5699 65.3532 56.7572 65.3532 48.3833C65.3532 40.0093 57.618 33.1967 48.1441 33.1967Z" fill="#37474F"/>
<path d="M42.3975 46.4671C42.3975 47.1058 41.9008 47.6026 41.2621 47.6026C40.6589 47.6026 40.1621 47.1058 40.1621 46.4671C40.1621 45.8639 40.6589 45.3672 41.2621 45.3672C41.9008 45.3317 42.3975 45.8639 42.3975 46.4671Z" fill="#37474F"/>
<path d="M41.2979 48.3122C40.3044 48.3122 39.4883 47.4961 39.4883 46.4671C39.4883 45.4736 40.3044 44.6575 41.2979 44.6575C42.2914 44.6575 43.143 45.4736 43.143 46.4671C43.1075 47.4606 42.2914 48.3122 41.2979 48.3122ZM41.2979 46.0413C41.085 46.0413 40.9076 46.2187 40.9076 46.4316C40.9076 46.6445 41.085 46.8574 41.2979 46.8574C41.5108 46.8574 41.7237 46.68 41.7237 46.4316C41.6882 46.2542 41.5108 46.0413 41.2979 46.0413Z" fill="#37474F"/>
<path d="M56.0951 46.4671C56.0951 47.1058 55.5984 47.6026 54.9597 47.6026C54.3565 47.6026 53.8242 47.1058 53.8242 46.4671C53.8242 45.8639 54.321 45.3672 54.9597 45.3672C55.5984 45.3317 56.0951 45.8639 56.0951 46.4671Z" fill="#37474F"/>
<path d="M54.9584 48.3122C53.9649 48.3122 53.1133 47.4961 53.1133 46.4671C53.1133 45.4736 53.9294 44.6575 54.9584 44.6575C55.9519 44.6575 56.8035 45.4736 56.8035 46.4671C56.8035 47.4606 55.9874 48.3122 54.9584 48.3122ZM54.9584 46.0413C54.7455 46.0413 54.5326 46.2187 54.5326 46.4316C54.5326 46.6445 54.71 46.8574 54.9584 46.8574C55.1713 46.8574 55.3842 46.68 55.3842 46.4316C55.3842 46.2542 55.2068 46.0413 54.9584 46.0413Z" fill="#37474F"/>
<path d="M48.6379 43.4869C46.5799 43.4869 44.6993 42.0321 44.2381 39.9386C43.8123 37.9161 45.0897 35.9291 47.1122 35.5033C47.9283 35.3259 48.7799 35.4678 49.4895 35.9291C50.1992 36.3903 50.6604 37.0645 50.8379 37.8806C50.9798 38.5548 50.8733 39.2644 50.483 39.8676C50.0927 40.4708 49.4895 40.8612 48.8153 41.0386C48.425 41.1095 48.0702 40.8612 47.9638 40.5063C47.8928 40.116 48.1412 39.7612 48.496 39.6547C48.8153 39.5838 49.0992 39.4064 49.2766 39.1225C49.454 38.8386 49.525 38.5193 49.454 38.2C49.3476 37.7387 49.0992 37.3838 48.7089 37.1355C48.3186 36.8871 47.8573 36.8161 47.4315 36.8871C46.1896 37.1355 45.3735 38.3774 45.6574 39.6547C46.0122 41.3224 47.6444 42.3869 49.3121 41.9966C51.4765 41.5353 52.8604 39.4064 52.3991 37.2419C51.7959 34.4388 49.0282 32.6292 46.2251 33.2324C45.8348 33.3033 45.48 33.055 45.3735 32.7001C45.3025 32.3098 45.5509 31.955 45.9058 31.8485C49.454 31.0679 53.0023 33.3743 53.7829 36.9226C54.4216 39.8676 52.541 42.7417 49.596 43.3804C49.2766 43.4514 48.9573 43.4869 48.6379 43.4869Z" fill="#37474F"/>
<path d="M48.1102 58.5669C45.2361 58.5669 40.375 57.9992 40.375 55.9057C40.375 55.5154 40.6943 55.196 41.0847 55.196C41.475 55.196 41.7588 55.4799 41.7943 55.8702C42.0072 56.2605 44.1007 57.1476 48.1102 57.1476C52.1198 57.1476 54.2133 56.2605 54.4262 55.8702C54.4617 55.4799 54.7455 55.196 55.1358 55.196C55.5261 55.196 55.8455 55.5154 55.8455 55.9057C55.881 57.9992 51.0198 58.5669 48.1102 58.5669Z" fill="#37474F"/>
</svg>
