<svg width="117" height="40" viewBox="0 0 117 40" fill="none" xmlns="http://www.w3.org/2000/svg">
<path d="M6.16211 12.9448H10.3684V27.2959H6.16211V12.9448Z" fill="#8778FF"/>
<circle cx="5.18415" cy="27.2959" r="5.18415" fill="#8778FF"/>
<path d="M19.0664 10.6652H23.2727V25.0163H19.0664V10.6652Z" fill="#8778FF"/>
<circle cx="18.0845" cy="25.0163" r="5.18415" fill="#8778FF"/>
<path d="M23.2688 5.51993L6.16211 10.4839V12.6307V16.1635V18.3103L23.2688 13.3496V5.51993Z" fill="#8778FF"/>
<path d="M52.6751 8.80255V9.36167C52.0787 9.3803 51.6221 9.45485 51.3053 9.58531C50.9884 9.69714 50.7741 9.92078 50.6623 10.2563C50.5691 10.5731 50.5225 11.0763 50.5225 11.7659V25.6319C50.5225 26.3029 50.5784 26.8061 50.6902 27.1415C50.8021 27.477 51.0071 27.7006 51.3053 27.8125C51.6221 27.9243 52.0787 27.9988 52.6751 28.0361V28.5952C52.1905 28.558 51.5755 28.5393 50.83 28.5393C50.0845 28.5207 49.3297 28.5114 48.5656 28.5114C47.7269 28.5114 46.9348 28.5207 46.1894 28.5393C45.4625 28.5393 44.8754 28.558 44.4281 28.5952V28.0361C45.0618 27.9988 45.5371 27.9243 45.8539 27.8125C46.1894 27.7006 46.413 27.477 46.5248 27.1415C46.6366 26.8061 46.6926 26.3029 46.6926 25.6319V10.424L46.8883 10.4519L39.9552 28.6791H39.5079L32.1276 10.5917V24.4578C32.1276 25.3524 32.1835 26.0513 32.2953 26.5545C32.4072 27.039 32.6494 27.3931 33.0222 27.6168C33.4136 27.8218 34.0006 27.9616 34.7834 28.0361V28.5952C34.4293 28.558 33.9727 28.5393 33.4136 28.5393C32.8545 28.5207 32.3233 28.5114 31.8201 28.5114C31.3728 28.5114 30.9162 28.5207 30.4503 28.5393C30.003 28.5393 29.6302 28.558 29.332 28.5952V28.0361C29.9471 27.9616 30.4037 27.8218 30.7019 27.6168C31.0187 27.4118 31.2237 27.0763 31.3169 26.6104C31.4287 26.1444 31.4846 25.5015 31.4846 24.6814V11.7659C31.4846 11.0763 31.4287 10.5731 31.3169 10.2563C31.2237 9.92078 31.0187 9.69714 30.7019 9.58531C30.4037 9.45485 29.9471 9.3803 29.332 9.36167V8.80255C29.6302 8.82119 30.003 8.83983 30.4503 8.85846C30.9162 8.8771 31.3728 8.88642 31.8201 8.88642C32.5097 8.88642 33.1806 8.8771 33.8329 8.85846C34.4852 8.83983 35.063 8.82119 35.5662 8.80255L41.5767 23.8148L40.9616 24.318L46.8044 8.88642C47.0839 8.88642 47.3728 8.88642 47.671 8.88642C47.9878 8.88642 48.286 8.88642 48.5656 8.88642C49.3297 8.88642 50.0845 8.8771 50.83 8.85846C51.5755 8.83983 52.1905 8.82119 52.6751 8.80255Z" fill="#241D5C"/>
<path d="M67.6164 13.8346V25.576C67.6164 26.4147 67.7561 27.039 68.0357 27.449C68.3153 27.8404 68.8091 28.0361 69.5173 28.0361V28.6232C68.9396 28.5673 68.3618 28.5393 67.7841 28.5393C67.0945 28.5393 66.4329 28.5673 65.7992 28.6232C65.1842 28.6791 64.6158 28.7816 64.0939 28.9307V26.1351C63.628 27.1602 62.985 27.8963 62.165 28.3436C61.3636 28.7723 60.497 28.9866 59.5651 28.9866C58.8382 28.9866 58.2232 28.8841 57.72 28.6791C57.2355 28.4927 56.8441 28.2318 56.5459 27.8963C56.229 27.5422 56.0054 27.0763 55.8749 26.4985C55.7445 25.9208 55.6792 25.1753 55.6792 24.2621V17.1893C55.6792 16.3506 55.5395 15.7356 55.2599 15.3442C54.999 14.9342 54.5051 14.7292 53.7783 14.7292V14.1421C54.3746 14.198 54.9524 14.226 55.5115 14.226C56.2011 14.226 56.8534 14.198 57.4684 14.1421C58.1021 14.0676 58.6798 13.965 59.2017 13.8346V25.2405C59.2017 25.7437 59.2389 26.191 59.3135 26.5824C59.4067 26.9738 59.5837 27.2906 59.8447 27.5329C60.1056 27.7566 60.497 27.8684 61.0188 27.8684C61.5965 27.8684 62.1184 27.7006 62.5843 27.3652C63.0503 27.0297 63.4137 26.5731 63.6746 25.9953C63.9542 25.4176 64.0939 24.7653 64.0939 24.0384V17.1893C64.0939 16.3506 63.9542 15.7356 63.6746 15.3442C63.4137 14.9342 62.9198 14.7292 62.1929 14.7292V14.1421C62.7893 14.198 63.3671 14.226 63.9262 14.226C64.6158 14.226 65.2681 14.198 65.8831 14.1421C66.5168 14.0676 67.0945 13.965 67.6164 13.8346Z" fill="#241D5C"/>
<path d="M76.1339 13.7507C76.9167 13.7507 77.5876 13.8625 78.1467 14.0862C78.7058 14.3098 79.1159 14.5055 79.3768 14.6733C80.0104 15.1392 80.3925 14.841 80.523 13.7787H81.138C81.1007 14.3192 81.0728 14.9621 81.0541 15.7076C81.0355 16.4345 81.0262 17.4129 81.0262 18.643H80.4111C80.318 17.9534 80.1409 17.2825 79.88 16.6302C79.6191 15.9779 79.237 15.4374 78.7338 15.0087C78.2306 14.5614 77.569 14.3378 76.7489 14.3378C76.1712 14.3378 75.6866 14.5055 75.2952 14.841C74.9225 15.1765 74.7361 15.6517 74.7361 16.2667C74.7361 16.8259 74.9039 17.3197 75.2393 17.7484C75.5748 18.1584 76.0035 18.5498 76.5253 18.9225C77.0658 19.2766 77.6249 19.668 78.2026 20.0967C78.8736 20.544 79.47 21.0006 79.9918 21.4665C80.5136 21.9138 80.933 22.417 81.2498 22.9761C81.5666 23.5166 81.7251 24.1596 81.7251 24.9051C81.7251 25.7624 81.4828 26.4986 80.9982 27.1136C80.5323 27.71 79.9079 28.1759 79.1252 28.5114C78.361 28.8282 77.5131 28.9866 76.5812 28.9866C76.078 28.9866 75.6214 28.94 75.2114 28.8468C74.8014 28.7536 74.4379 28.6325 74.1211 28.4834C73.8788 28.3529 73.6552 28.2318 73.4502 28.12C73.2638 28.0082 73.0681 27.915 72.8631 27.8404C72.6767 27.7472 72.509 27.7845 72.3599 27.9522C72.2294 28.12 72.1269 28.3995 72.0524 28.7909H71.4373C71.4746 28.1945 71.5026 27.4677 71.5212 26.6104C71.5398 25.7531 71.5492 24.6162 71.5492 23.1998H72.1642C72.2947 24.2248 72.4903 25.1287 72.7513 25.9115C73.0308 26.6756 73.4315 27.2813 73.9534 27.7286C74.4752 28.1573 75.1461 28.3716 75.9662 28.3716C76.3203 28.3716 76.6558 28.297 76.9726 28.1479C77.3081 27.9988 77.5783 27.7659 77.7833 27.449C78.0069 27.1322 78.1188 26.7036 78.1188 26.1631C78.1188 25.343 77.8392 24.6628 77.2801 24.1223C76.721 23.5818 76.0221 23.0041 75.1834 22.3891C74.5498 21.9231 73.9534 21.4665 73.3942 21.0192C72.8538 20.5719 72.4065 20.0687 72.0524 19.5096C71.7169 18.9505 71.5492 18.2889 71.5492 17.5247C71.5492 16.6861 71.7635 15.9965 72.1922 15.456C72.6208 14.8969 73.1799 14.4776 73.8695 14.198C74.5777 13.8998 75.3325 13.7507 76.1339 13.7507Z" fill="#241D5C"/>
<path d="M87.0375 7.01338C87.7085 7.01338 88.2583 7.19975 88.6869 7.5725C89.1156 7.94524 89.3299 8.43913 89.3299 9.05415C89.3299 9.66918 89.1156 10.1631 88.6869 10.5358C88.2583 10.9086 87.7085 11.0949 87.0375 11.0949C86.3666 11.0949 85.8168 10.9086 85.3881 10.5358C84.9595 10.1631 84.7452 9.66918 84.7452 9.05415C84.7452 8.43913 84.9595 7.94524 85.3881 7.5725C85.8168 7.19975 86.3666 7.01338 87.0375 7.01338ZM88.9944 13.8346V25.9953C88.9944 26.7781 89.1342 27.3093 89.4138 27.5888C89.712 27.8684 90.2059 28.0082 90.8954 28.0082V28.5952C90.56 28.5766 90.0474 28.558 89.3579 28.5393C88.6683 28.502 87.9694 28.4834 87.2612 28.4834C86.5716 28.4834 85.8727 28.502 85.1645 28.5393C84.4563 28.558 83.9251 28.5766 83.571 28.5952V28.0082C84.2606 28.0082 84.7452 27.8684 85.0247 27.5888C85.3229 27.3093 85.472 26.7781 85.472 25.9953V17.2172C85.472 16.3599 85.3322 15.7356 85.0527 15.3442C84.7918 14.9342 84.2979 14.7292 83.571 14.7292V14.1421C84.1674 14.198 84.7452 14.226 85.3043 14.226C85.9938 14.226 86.6462 14.198 87.2612 14.1421C87.8948 14.0676 88.4726 13.965 88.9944 13.8346Z" fill="#241D5C"/>
<path d="M99.3274 13.7507C100.017 13.7507 100.651 13.8346 101.228 14.0023C101.825 14.1514 102.337 14.3657 102.766 14.6453C103.213 14.9249 103.567 15.279 103.828 15.7076C104.089 16.1176 104.22 16.5743 104.22 17.0775C104.22 17.6925 104.033 18.1864 103.661 18.5591C103.288 18.9319 102.822 19.1182 102.263 19.1182C101.685 19.1182 101.21 18.9505 100.837 18.615C100.483 18.2796 100.306 17.8323 100.306 17.2731C100.306 16.7327 100.464 16.2854 100.781 15.9313C101.098 15.5772 101.48 15.3442 101.927 15.2324C101.76 14.9901 101.499 14.7944 101.144 14.6453C100.79 14.4776 100.399 14.3937 99.9703 14.3937C99.4112 14.3937 98.908 14.5428 98.4607 14.841C98.0134 15.1206 97.6221 15.5492 97.2866 16.127C96.9698 16.6861 96.7182 17.385 96.5318 18.2236C96.3641 19.0437 96.2802 19.9942 96.2802 21.0751C96.2802 22.5847 96.4572 23.7775 96.8113 24.6535C97.1841 25.5294 97.6593 26.1538 98.2371 26.5265C98.8148 26.8806 99.4299 27.0577 100.082 27.0577C100.474 27.0577 100.893 26.9831 101.34 26.834C101.787 26.6849 102.225 26.4333 102.654 26.0792C103.101 25.7251 103.502 25.2219 103.856 24.5696L104.387 24.7653C104.182 25.4176 103.847 26.0699 103.381 26.7222C102.934 27.3745 102.347 27.915 101.62 28.3436C100.893 28.7723 100.008 28.9866 98.9639 28.9866C97.7712 28.9866 96.6902 28.7164 95.7211 28.1759C94.7519 27.6168 93.9785 26.7781 93.4007 25.6599C92.8416 24.5416 92.5621 23.1532 92.5621 21.4945C92.5621 19.8544 92.8509 18.4659 93.4287 17.3291C94.0064 16.1736 94.8079 15.2883 95.8329 14.6733C96.8766 14.0582 98.0414 13.7507 99.3274 13.7507Z" fill="#241D5C"/>
<path d="M111.716 8.41117C112.667 8.41117 113.543 8.60686 114.344 8.99824C115.146 9.37098 115.789 9.9301 116.273 10.6756C116.758 11.4211 117 12.3529 117 13.4712C117 14.5708 116.758 15.5026 116.273 16.2667C115.789 17.0122 115.146 17.5807 114.344 17.972C113.543 18.3448 112.667 18.5312 111.716 18.5312C110.766 18.5312 109.89 18.3448 109.089 17.972C108.287 17.5807 107.644 17.0122 107.16 16.2667C106.675 15.5026 106.433 14.5708 106.433 13.4712C106.433 12.3529 106.675 11.4211 107.16 10.6756C107.644 9.9301 108.287 9.37098 109.089 8.99824C109.89 8.60686 110.766 8.41117 111.716 8.41117ZM111.716 8.91437C111.157 8.91437 110.673 9.26848 110.263 9.97669C109.871 10.6849 109.676 11.8497 109.676 13.4712C109.676 15.0926 109.871 16.2574 110.263 16.9656C110.673 17.6738 111.157 18.028 111.716 18.028C112.275 18.028 112.751 17.6738 113.142 16.9656C113.533 16.2574 113.729 15.0926 113.729 13.4712C113.729 11.8497 113.533 10.6849 113.142 9.97669C112.751 9.26848 112.275 8.91437 111.716 8.91437Z" fill="#241D5C"/>
</svg>
