<svg width="121" height="36" viewBox="0 0 121 36" fill="none" xmlns="http://www.w3.org/2000/svg">
<path d="M0 4.79945C0 2.14855 2.06178 0 4.60596 0H29.9395C32.4837 0 34.5455 2.14855 34.5455 4.79945V31.1989C34.5455 33.8498 32.4837 35.9984 29.9395 35.9984H4.60596C2.06178 36 0 33.8515 0 31.2005V4.79945Z" fill="#3080E3"/>
<path d="M19.3164 19.0428C19.3164 16.8811 20.9993 15.127 23.0738 15.127C25.1483 15.127 26.8311 16.8795 26.8311 19.0428V20.0115C26.8311 22.1731 25.1483 23.9273 23.0738 23.9273C20.9993 23.9273 19.3164 22.1748 19.3164 20.0115V19.0428Z" fill="white"/>
<path fill-rule="evenodd" clip-rule="evenodd" d="M16.4054 19.6561V7.16906H17.59V6.81396H7.71094V7.16906H8.89069V20.8294C8.84452 24.9776 11.4428 32.1874 22.2055 27.8412C18.6694 27.8412 16.4054 26.4061 16.4054 19.6578V19.6561Z" fill="white"/>
<path d="M52.4149 27.0734C51.2224 27.0734 50.1414 26.8917 49.1734 26.5268C48.2419 26.1856 47.3923 25.6432 46.6817 24.9363C46.0051 24.2408 45.4813 23.4112 45.1103 22.4506C44.7394 21.4721 44.5547 20.3872 44.5547 19.1943V8.92773H49.3915V18.9701C49.3915 19.6999 49.5125 20.3283 49.7545 20.8601C50.0124 21.3739 50.3675 21.7797 50.818 22.0776C51.2861 22.359 51.8258 22.4997 52.4388 22.4997C53.0518 22.4997 53.5835 22.359 54.0341 22.0776C54.4957 21.7859 54.8651 21.3631 55.0976 20.8601C55.3555 20.3299 55.4845 19.6999 55.4845 18.9701V8.92773H60.3213V19.1943C60.3213 20.3872 60.1366 21.4737 59.7657 22.4506C59.4112 23.3864 58.8668 24.2337 58.1688 24.9363C57.4582 25.6432 56.6086 26.1856 55.6771 26.5268C54.7091 26.8917 53.6217 27.0734 52.4117 27.0734H52.4149ZM62.7413 26.5759V8.92773H67.5781V26.5759H62.7413ZM70.108 26.5759V8.92773H74.9448V15.2916H81.0394V8.92773H85.8762V26.5759H81.0394V19.6656H74.9448V26.5759H70.108ZM96.1469 27.0734C94.9544 27.0734 93.8733 26.8917 92.9069 26.5268C91.9754 26.1856 91.1258 25.6432 90.4153 24.9363C89.7301 24.2281 89.1951 23.3818 88.8439 22.4506C88.4729 21.4721 88.2882 20.3872 88.2882 19.1943V8.92773H93.125V18.9701C93.125 19.6999 93.246 20.3283 93.488 20.8601C93.746 21.3739 94.101 21.7797 94.5516 22.0776C95.0196 22.359 95.5594 22.4997 96.1723 22.4997C96.7853 22.4997 97.3171 22.359 97.7692 22.0776C98.2308 21.7859 98.6002 21.3631 98.8327 20.8601C99.0907 20.3299 99.2196 19.6999 99.2196 18.9701V8.92773H104.056V19.1943C104.056 20.3872 103.872 21.4737 103.501 22.4506C103.13 23.4112 102.598 24.2408 101.904 24.9363C101.193 25.6432 100.344 26.1856 99.4123 26.5268C98.4443 26.8917 97.3569 27.0734 96.1469 27.0734ZM110.512 26.5759V13.3017H105.989V8.92773H119.871V13.3034H115.349V26.5776H110.512V26.5759Z" fill="white"/>
</svg>
