<svg width="59" height="64" viewBox="0 0 59 64" fill="none" xmlns="http://www.w3.org/2000/svg">
<path d="M43 1.39876e-06C34.1634 2.17128e-06 27 7.13688 27 15.9407L27 31.8813L43 31.8813C51.8366 31.8813 59 24.7444 59 15.9407C59 7.13688 51.8366 6.26248e-07 43 1.39876e-06Z" fill="#D4E2FC"/>
<path d="M28 16.75V55.25" stroke="#1F1F1F" stroke-width="3" stroke-linecap="round" stroke-linejoin="round"/>
<path d="M22.75 55.25H33.25" stroke="#1F1F1F" stroke-width="3" stroke-linecap="round" stroke-linejoin="round"/>
<path d="M12.25 27.25L43.75 20.25" stroke="#1F1F1F" stroke-width="3" stroke-linecap="round" stroke-linejoin="round"/>
<path d="M5.25 44.75C5.25 48.6219 9.625 50 12.25 50C14.875 50 19.25 48.6219 19.25 44.75L12.25 27.25L5.25 44.75Z" stroke="#1F1F1F" stroke-width="3" stroke-linecap="round" stroke-linejoin="round"/>
<path d="M36.75 37.75C36.75 41.6219 41.125 43 43.75 43C46.375 43 50.75 41.6219 50.75 37.75L43.75 20.25L36.75 37.75Z" stroke="#1F1F1F" stroke-width="3" stroke-linecap="round" stroke-linejoin="round"/>
</svg>
