<svg width="59" height="64" viewBox="0 0 59 64" fill="none" xmlns="http://www.w3.org/2000/svg">
<path d="M43 1.39876e-06C34.1634 2.17128e-06 27 7.13688 27 15.9407L27 31.8813L43 31.8813C51.8366 31.8813 59 24.7444 59 15.9407C59 7.13688 51.8366 6.26248e-07 43 1.39876e-06Z" fill="#D4E2FC"/>
<path d="M10.5 50L45.5 50C47.433 50 49 48.433 49 46.5V22C49 20.067 47.433 18.5 45.5 18.5L10.5 18.5C8.56701 18.5 7 20.067 7 22V46.5C7 48.433 8.56701 50 10.5 50Z" stroke="#1F1F1F" stroke-width="3" stroke-linecap="round" stroke-linejoin="round"/>
<path d="M35 57H21" stroke="#1F1F1F" stroke-width="3" stroke-linecap="round" stroke-linejoin="round"/>
<path d="M7 41.25H49" stroke="#1F1F1F" stroke-width="3" stroke-linecap="round" stroke-linejoin="round"/>
<path d="M28 50V57" stroke="#1F1F1F" stroke-width="3" stroke-linecap="round" stroke-linejoin="round"/>
</svg>
