<svg width="58" height="62" viewBox="0 0 58 62" fill="none" xmlns="http://www.w3.org/2000/svg">
<path d="M58 31.8813C53.7977 31.8813 49.6366 31.0569 45.7541 29.4545C41.8717 27.8522 38.3441 25.5038 35.3726 22.5433C32.4011 19.5828 30.044 16.0682 28.4359 12.2004C26.8277 8.33251 26 4.18666 26 5.72205e-06L58 6.10223e-06L58 31.8813Z" fill="#FFEED9"/>
<path d="M8.75 17.2612H47.25V43.5112C47.25 43.9754 47.0656 44.4205 46.7374 44.7487C46.4092 45.0769 45.9641 45.2612 45.5 45.2612H36.75C36.2859 45.2612 35.8408 45.0769 35.5126 44.7487C35.1844 44.4205 35 43.9754 35 43.5112V38.2612H21V50.5112C21 50.9754 20.8156 51.4205 20.4874 51.7487C20.1592 52.0769 19.7141 52.2612 19.25 52.2612H10.5C10.0359 52.2612 9.59075 52.0769 9.26256 51.7487C8.93437 51.4205 8.75 50.9754 8.75 50.5112V17.2612Z" stroke="#1F1F1F" stroke-width="3" stroke-linecap="round" stroke-linejoin="round"/>
<path d="M21 31.2612H8.75" stroke="#1F1F1F" stroke-width="3" stroke-linecap="round" stroke-linejoin="round"/>
<path d="M21 17.2612V38.2612" stroke="#1F1F1F" stroke-width="3" stroke-linecap="round" stroke-linejoin="round"/>
<path d="M35 31.2612H47.25" stroke="#1F1F1F" stroke-width="3" stroke-linecap="round" stroke-linejoin="round"/>
<path d="M35 17.2612V38.2612" stroke="#1F1F1F" stroke-width="3" stroke-linecap="round" stroke-linejoin="round"/>
</svg>
