<svg width="81" height="19" viewBox="0 0 81 19" fill="none" xmlns="http://www.w3.org/2000/svg">
<path d="M0.174716 18V0.545454H3.33665V7.93466H11.4247V0.545454H14.5952V18H11.4247V10.5852H3.33665V18H0.174716ZM21.6648 18.2642C20.8352 18.2642 20.0881 18.1165 19.4233 17.821C18.7642 17.5199 18.2415 17.0767 17.8551 16.4915C17.4744 15.9062 17.2841 15.1847 17.2841 14.3267C17.2841 13.5881 17.4205 12.9773 17.6932 12.4943C17.9659 12.0114 18.3381 11.625 18.8097 11.3352C19.2813 11.0455 19.8125 10.8267 20.4034 10.679C21 10.5256 21.6165 10.4148 22.2528 10.3466C23.0199 10.267 23.642 10.196 24.1193 10.1335C24.5966 10.0653 24.9432 9.96307 25.1591 9.8267C25.3807 9.68466 25.4915 9.46591 25.4915 9.17045V9.11932C25.4915 8.47727 25.3011 7.98011 24.9205 7.62784C24.5398 7.27557 23.9915 7.09943 23.2756 7.09943C22.5199 7.09943 21.9205 7.2642 21.4773 7.59375C21.0398 7.9233 20.7443 8.3125 20.5909 8.76136L17.7102 8.35227C17.9375 7.55682 18.3125 6.89205 18.8352 6.35795C19.358 5.81818 19.9972 5.41477 20.7528 5.14773C21.5085 4.875 22.3438 4.73864 23.2585 4.73864C23.8892 4.73864 24.517 4.8125 25.142 4.96023C25.767 5.10795 26.3381 5.35227 26.8551 5.69318C27.3722 6.02841 27.7869 6.4858 28.0994 7.06534C28.4176 7.64489 28.5767 8.36932 28.5767 9.23864V18H25.6108V16.2017H25.5085C25.321 16.5653 25.0568 16.9062 24.7159 17.2244C24.3807 17.5369 23.9574 17.7898 23.446 17.983C22.9403 18.1705 22.3466 18.2642 21.6648 18.2642ZM22.4659 15.9972C23.0852 15.9972 23.6222 15.875 24.0767 15.6307C24.5313 15.3807 24.8807 15.0511 25.125 14.642C25.375 14.233 25.5 13.7869 25.5 13.304V11.7614C25.4034 11.8409 25.2386 11.9148 25.0057 11.983C24.7784 12.0511 24.5227 12.1108 24.2386 12.1619C23.9545 12.2131 23.6733 12.2585 23.3949 12.2983C23.1165 12.3381 22.875 12.3722 22.6705 12.4006C22.2102 12.4631 21.7983 12.5653 21.4347 12.7074C21.071 12.8494 20.7841 13.0483 20.5739 13.304C20.3636 13.554 20.2585 13.8778 20.2585 14.2756C20.2585 14.8438 20.4659 15.2727 20.8807 15.5625C21.2955 15.8523 21.8239 15.9972 22.4659 15.9972ZM34.7642 0.545454V18H31.679V0.545454H34.7642ZM38.0732 18V0.545454H41.1584V7.07386H41.2862C41.4453 6.75568 41.6697 6.41761 41.9595 6.05966C42.2493 5.69602 42.6413 5.38636 43.1357 5.13068C43.63 4.86932 44.2607 4.73864 45.0277 4.73864C46.0391 4.73864 46.951 4.99716 47.7635 5.5142C48.5817 6.02557 49.2294 6.78409 49.7067 7.78977C50.1896 8.78977 50.4311 10.017 50.4311 11.4716C50.4311 12.9091 50.1953 14.1307 49.7237 15.1364C49.2521 16.142 48.6101 16.9091 47.7976 17.4375C46.9851 17.9659 46.0646 18.2301 45.0362 18.2301C44.2862 18.2301 43.6641 18.1051 43.1697 17.8551C42.6754 17.6051 42.2777 17.304 41.9766 16.9517C41.6811 16.5937 41.451 16.2557 41.2862 15.9375H41.1072V18H38.0732ZM41.0987 11.4545C41.0987 12.3011 41.218 13.0426 41.4567 13.679C41.701 14.3153 42.0504 14.8125 42.505 15.1705C42.9652 15.5227 43.522 15.6989 44.1754 15.6989C44.8572 15.6989 45.4283 15.517 45.8885 15.1534C46.3487 14.7841 46.6953 14.2812 46.9283 13.6449C47.1669 13.0028 47.2862 12.2727 47.2862 11.4545C47.2862 10.642 47.1697 9.92045 46.9368 9.28977C46.7038 8.65909 46.3572 8.16477 45.897 7.80682C45.4368 7.44886 44.8629 7.26989 44.1754 7.26989C43.5163 7.26989 42.9567 7.44318 42.4964 7.78977C42.0362 8.13636 41.6868 8.62216 41.4482 9.24716C41.2152 9.87216 41.0987 10.608 41.0987 11.4545ZM58.7642 18.2557C57.4858 18.2557 56.3778 17.9744 55.4403 17.4119C54.5028 16.8494 53.7756 16.0625 53.2585 15.0511C52.7472 14.0398 52.4915 12.858 52.4915 11.5057C52.4915 10.1534 52.7472 8.96875 53.2585 7.9517C53.7756 6.93466 54.5028 6.14489 55.4403 5.58239C56.3778 5.01989 57.4858 4.73864 58.7642 4.73864C60.0426 4.73864 61.1506 5.01989 62.0881 5.58239C63.0256 6.14489 63.75 6.93466 64.2614 7.9517C64.7784 8.96875 65.0369 10.1534 65.0369 11.5057C65.0369 12.858 64.7784 14.0398 64.2614 15.0511C63.75 16.0625 63.0256 16.8494 62.0881 17.4119C61.1506 17.9744 60.0426 18.2557 58.7642 18.2557ZM58.7812 15.7841C59.4744 15.7841 60.054 15.5937 60.5199 15.2131C60.9858 14.8267 61.3324 14.3097 61.5597 13.6619C61.7926 13.0142 61.9091 12.2926 61.9091 11.4972C61.9091 10.696 61.7926 9.97159 61.5597 9.32386C61.3324 8.67045 60.9858 8.15057 60.5199 7.7642C60.054 7.37784 59.4744 7.18466 58.7812 7.18466C58.071 7.18466 57.4801 7.37784 57.0085 7.7642C56.5426 8.15057 56.1932 8.67045 55.9602 9.32386C55.733 9.97159 55.6193 10.696 55.6193 11.4972C55.6193 12.2926 55.733 13.0142 55.9602 13.6619C56.1932 14.3097 56.5426 14.8267 57.0085 15.2131C57.4801 15.5937 58.071 15.7841 58.7812 15.7841ZM67.6555 18V4.90909H70.647V7.09091H70.7834C71.022 6.33523 71.4311 5.75284 72.0107 5.34375C72.5959 4.92898 73.2635 4.72159 74.0135 4.72159C74.1839 4.72159 74.3743 4.73011 74.5845 4.74716C74.8004 4.75852 74.9794 4.77841 75.1214 4.80682V7.64489C74.9908 7.59943 74.7834 7.55966 74.4993 7.52557C74.2209 7.4858 73.951 7.46591 73.6896 7.46591C73.1271 7.46591 72.6214 7.58807 72.1726 7.83239C71.7294 8.07102 71.38 8.40341 71.1243 8.82955C70.8686 9.25568 70.7408 9.74716 70.7408 10.304V18H67.6555Z" fill="white"/>
<path d="M79.0717 18.1875C78.5547 18.1875 78.1115 18.0057 77.7422 17.642C77.3729 17.2784 77.1911 16.8352 77.1967 16.3125C77.1911 15.8011 77.3729 15.3636 77.7422 15C78.1115 14.6364 78.5547 14.4545 79.0717 14.4545C79.5717 14.4545 80.0064 14.6364 80.3757 15C80.7507 15.3636 80.9411 15.8011 80.9467 16.3125C80.9411 16.6591 80.8501 16.9744 80.674 17.2585C80.5036 17.5426 80.2763 17.7699 79.9922 17.9403C79.7138 18.1051 79.407 18.1875 79.0717 18.1875Z" fill="#4DED3B"/>
</svg>
