<svg width="141" height="36" viewBox="0 0 141 36" fill="none" xmlns="http://www.w3.org/2000/svg">
<path d="M47.7147 27.9427C49.1348 28.6428 50.835 28.9928 52.8151 28.9928C54.8953 28.9928 56.6855 28.6028 58.1856 27.8227C59.6857 27.0426 60.8658 26.0026 61.7259 24.7024C62.586 23.4023 63.116 21.9722 63.316 20.4121H59.0257C58.7856 21.8722 58.0956 23.0123 56.9555 23.8324C55.8354 24.6324 54.4553 25.0325 52.8151 25.0325C51.695 25.0325 50.705 24.8425 49.8449 24.4624C49.0048 24.0824 48.2948 23.5523 47.7147 22.8723C47.1347 22.1722 46.6946 21.3622 46.3946 20.4421C46.1146 19.522 45.9746 18.5219 45.9746 17.4418C45.9746 16.3217 46.1146 15.3017 46.3946 14.3816C46.6946 13.4615 47.1247 12.6614 47.6847 11.9814C48.2448 11.3013 48.9448 10.7813 49.7849 10.4212C50.625 10.0412 51.585 9.8512 52.6651 9.8512C53.7252 9.8512 54.6753 10.0312 55.5154 10.3912C56.3554 10.7313 57.0455 11.2513 57.5855 11.9514C58.1456 12.6314 58.5056 13.4715 58.6656 14.4716H62.956C62.776 12.7514 62.2459 11.2513 61.3659 9.97121C60.4858 8.6711 59.3057 7.67102 57.8256 6.97096C56.3654 6.2509 54.6453 5.89087 52.6651 5.89087C50.765 5.89087 49.1148 6.2209 47.7147 6.88095C46.3346 7.52101 45.1945 8.38108 44.2944 9.46117C43.3944 10.5413 42.7243 11.7414 42.2843 13.0615C41.8642 14.3816 41.6542 15.7217 41.6542 17.0818V17.7419C41.6542 18.962 41.8642 20.2321 42.2843 21.5522C42.7043 22.8723 43.3543 24.0924 44.2344 25.2125C45.1345 26.3326 46.2946 27.2427 47.7147 27.9427Z" fill="#181818"/>
<path fill-rule="evenodd" clip-rule="evenodd" d="M74.4418 26.4426C74.648 26.093 74.818 25.7073 74.9518 25.2853V28.4228H78.2521V18.3119C78.2521 16.7918 77.9621 15.5617 77.382 14.6216C76.822 13.6815 75.9819 12.9915 74.8618 12.5514C73.7617 12.1114 72.3716 11.8914 70.6915 11.8914C70.1514 11.8914 69.5714 11.9014 68.9513 11.9214C68.3513 11.9214 67.7612 11.9414 67.1812 11.9814C66.6011 12.0214 66.0811 12.0614 65.6211 12.1014V15.6417C66.1811 15.6017 66.8112 15.5717 67.5112 15.5517C68.2313 15.5117 68.9413 15.4817 69.6414 15.4617C70.3414 15.4417 70.9415 15.4317 71.4415 15.4317C72.4016 15.4317 73.1117 15.6617 73.5717 16.1217C74.0318 16.5818 74.2618 17.2818 74.2618 18.2219V18.3719H70.9315C69.4914 18.3719 68.2313 18.5619 67.1512 18.942C66.0911 19.322 65.261 19.892 64.661 20.6521C64.0809 21.4122 63.7909 22.3923 63.7909 23.5924C63.7909 24.6924 64.0309 25.6325 64.511 26.4126C65.011 27.1926 65.7011 27.7927 66.5811 28.2127C67.4812 28.6328 68.5213 28.8428 69.7014 28.8428C70.8415 28.8428 71.8016 28.6428 72.5816 28.2427C73.3817 27.8227 74.0018 27.2227 74.4418 26.4426ZM73.6917 24.4924C74.0318 23.9724 74.2218 23.2723 74.2618 22.3922V20.8621H70.8715C69.9114 20.8621 69.1714 21.1021 68.6513 21.5822C68.1513 22.0422 67.9012 22.6423 67.9012 23.3823C67.9012 24.1224 68.1513 24.7224 68.6513 25.1825C69.1714 25.6425 69.9114 25.8725 70.8715 25.8725C71.4515 25.8725 71.9816 25.7725 72.4616 25.5725C72.9617 25.3525 73.3717 24.9925 73.6917 24.4924Z" fill="#181818"/>
<path d="M88.4497 28.9928C87.0296 28.9928 85.7995 28.7528 84.7594 28.2727C83.7393 27.7927 82.8792 27.1526 82.1792 26.3526C81.4991 25.5525 80.9891 24.6524 80.649 23.6524C80.309 22.6523 80.139 21.6322 80.139 20.5921V20.0221C80.139 18.922 80.309 17.8719 80.649 16.8718C81.0091 15.8517 81.5391 14.9516 82.2392 14.1716C82.9392 13.3715 83.7993 12.7414 84.8194 12.2814C85.8595 11.8014 87.0596 11.5613 88.4197 11.5613C89.8398 11.5613 91.1099 11.8414 92.23 12.4014C93.3501 12.9415 94.2402 13.7015 94.9002 14.6816C95.5803 15.6617 95.9603 16.8018 96.0403 18.1019H91.99C91.89 17.2618 91.5299 16.5618 90.9099 16.0017C90.3098 15.4417 89.4798 15.1616 88.4197 15.1616C87.4996 15.1616 86.7295 15.3817 86.1095 15.8217C85.5094 16.2617 85.0594 16.8718 84.7594 17.6519C84.4593 18.4119 84.3093 19.292 84.3093 20.2921C84.3093 21.2522 84.4493 22.1222 84.7294 22.9023C85.0294 23.6824 85.4794 24.2924 86.0795 24.7324C86.6995 25.1725 87.4896 25.3925 88.4497 25.3925C89.1697 25.3925 89.7898 25.2625 90.3098 25.0025C90.8299 24.7424 91.2399 24.3824 91.5399 23.9224C91.86 23.4623 92.06 22.9423 92.14 22.3622H96.1903C96.1103 23.6824 95.7203 24.8425 95.0202 25.8425C94.3402 26.8226 93.4301 27.5927 92.29 28.1527C91.1699 28.7128 89.8898 28.9928 88.4497 28.9928Z" fill="#181818"/>
<path d="M101.391 28.0627C102.371 28.4428 103.611 28.6328 105.112 28.6328H107.452V25.0625H104.902C104.102 25.0625 103.481 24.8525 103.041 24.4324C102.621 23.9924 102.411 23.3723 102.411 22.5723L102.426 15.1916H107.452V12.1314H102.432L102.441 7.54101H98.5411L98.5317 12.1314H95.9308V15.1916H98.5255L98.5111 22.3022C98.5111 23.8824 98.7511 25.1425 99.2311 26.0826C99.7112 27.0026 100.431 27.6627 101.391 28.0627Z" fill="#181818"/>
<path d="M115.002 28.9328C113.122 28.9328 111.662 28.3127 110.622 27.0726C109.602 25.8325 109.092 23.9924 109.092 21.5522V12.1014H113.262V21.9122C113.262 22.9123 113.542 23.7124 114.102 24.3124C114.662 24.8925 115.422 25.1825 116.382 25.1825C117.343 25.1825 118.123 24.8725 118.723 24.2524C119.343 23.6324 119.653 22.7923 119.653 21.7322V12.1014H123.823V28.4228H120.523V24.629C120.439 24.9741 120.339 25.2986 120.223 25.6025C119.803 26.7026 119.173 27.5327 118.333 28.0927C117.493 28.6528 116.442 28.9328 115.182 28.9328H115.002Z" fill="#181818"/>
<path d="M127.744 27.5227C129.024 28.4628 130.784 28.9328 133.024 28.9328C134.464 28.9328 135.714 28.7128 136.774 28.2727C137.834 27.8327 138.654 27.2227 139.235 26.4426C139.835 25.6425 140.135 24.7024 140.135 23.6224C140.135 22.1622 139.585 21.0021 138.484 20.1421C137.404 19.282 135.904 18.7519 133.984 18.5519L132.544 18.4019C131.664 18.3019 131.024 18.1119 130.624 17.8319C130.244 17.5518 130.054 17.1518 130.054 16.6318C130.054 16.0917 130.294 15.6517 130.774 15.3117C131.254 14.9716 131.934 14.8016 132.814 14.8016C133.794 14.8016 134.544 15.0016 135.064 15.4017C135.584 15.8017 135.864 16.2817 135.904 16.8418H139.655C139.595 15.1416 138.945 13.8515 137.704 12.9715C136.464 12.0914 134.844 11.6514 132.844 11.6514C131.564 11.6514 130.424 11.8514 129.424 12.2514C128.444 12.6314 127.674 13.2015 127.114 13.9615C126.553 14.7216 126.273 15.6617 126.273 16.7818C126.273 18.1819 126.763 19.302 127.744 20.1421C128.724 20.9821 130.124 21.5022 131.944 21.7022L133.384 21.8522C134.464 21.9522 135.224 22.1622 135.664 22.4823C136.124 22.8023 136.354 23.2323 136.354 23.7724C136.354 24.3924 136.054 24.8825 135.454 25.2425C134.874 25.6025 134.084 25.7825 133.084 25.7825C131.884 25.7825 131.004 25.5525 130.444 25.0925C129.884 24.6324 129.574 24.1224 129.514 23.5623H125.763C125.823 25.2425 126.483 26.5626 127.744 27.5227Z" fill="#181818"/>
<path fill-rule="evenodd" clip-rule="evenodd" d="M18.0083 0C8.0672 0 0.0083313 8.05888 0.0083313 18C0.0083313 27.9411 8.0672 36 18.0083 36C27.9495 36 36.0083 27.9411 36.0083 18C36.0083 8.05888 27.9495 0 18.0083 0ZM4.04453 18C4.04453 10.288 10.2963 4.0362 18.0083 4.0362C25.7203 4.0362 31.9721 10.288 31.9721 18C31.9721 25.0381 26.7651 30.8601 19.9933 31.8238V28.7437L23.5773 27.4206C25.6487 26.6559 27.0243 24.6817 27.0243 22.4738V16.4091C27.0243 15.2945 26.1207 14.391 25.0062 14.391C23.8916 14.391 22.9881 15.2945 22.9881 16.4091V22.4738C22.9881 22.9917 22.6654 23.4548 22.1795 23.6341L19.9933 24.4412V8.46698C19.9933 7.35241 19.0897 6.44888 17.9752 6.44888C16.8606 6.44888 15.9571 7.35241 15.9571 8.46698V17.126L13.8361 16.343C13.3502 16.1637 13.0276 15.7006 13.0276 15.1827V12.5683C13.0276 11.4537 12.124 10.5502 11.0095 10.5502C9.8949 10.5502 8.99136 11.4537 8.99136 12.5683V15.1827C8.99136 17.3907 10.367 19.3648 12.4383 20.1295L15.9571 21.4285V31.8142C9.21756 30.8221 4.04453 25.0151 4.04453 18Z" fill="#181818"/>
</svg>
