<svg width="148" height="32" viewBox="0 0 148 32" fill="none" xmlns="http://www.w3.org/2000/svg">
<path fill-rule="evenodd" clip-rule="evenodd" d="M2.79404 5H6.5121C8.06312 5 9.30614 6.26502 9.30614 7.81714V11.5671C9.30614 13.1291 8.06312 14.3831 6.5121 14.3831H2.79404C1.25402 14.3831 0 13.1291 0 11.5671V7.81714C0 6.26502 1.25402 5 2.79404 5ZM2.79404 17.6169H6.5121C8.06312 17.6169 9.30614 18.872 9.30614 20.434V24.184C9.30614 25.735 8.06312 27 6.5121 27H2.79404C1.25402 27 0 25.735 0 24.184V20.434C0 18.872 1.25402 17.6169 2.79404 17.6169ZM19.2061 5H15.488C13.937 5 12.694 6.26502 12.694 7.81714V11.5671C12.694 13.1291 13.937 14.3831 15.488 14.3831H19.2061C20.7461 14.3831 22.0001 13.1291 22.0001 11.5671V7.81714C22.0001 6.26502 20.7461 5 19.2061 5ZM15.488 17.6169H19.2061C20.7461 17.6169 22.0001 18.872 22.0001 20.434V24.184C22.0001 25.735 20.7461 27 19.2061 27H15.488C13.937 27 12.694 25.735 12.694 24.184V20.434C12.694 18.872 13.937 17.6169 15.488 17.6169Z" fill="#FFC224"/>
<path d="M32.6421 25L28.2421 8.61H31.4541L34.9081 22.58H34.0721L37.6801 8.61H40.7821L44.3681 22.58H43.5321L46.9861 8.61H50.1981L45.7981 25H42.3661L38.7361 11.404H39.7041L36.0741 25H32.6421ZM56.9148 25.264C55.7415 25.264 54.6708 24.9927 53.7028 24.45C52.7495 23.9073 51.9868 23.1667 51.4148 22.228C50.8575 21.2893 50.5788 20.2187 50.5788 19.016C50.5788 17.8133 50.8575 16.7427 51.4148 15.804C51.9868 14.8653 52.7495 14.1247 53.7028 13.582C54.6562 13.0393 55.7268 12.768 56.9148 12.768C58.0882 12.768 59.1515 13.0393 60.1048 13.582C61.0582 14.1247 61.8135 14.8653 62.3708 15.804C62.9428 16.728 63.2288 17.7987 63.2288 19.016C63.2288 20.2187 62.9428 21.2893 62.3708 22.228C61.7988 23.1667 61.0362 23.9073 60.0828 24.45C59.1295 24.9927 58.0735 25.264 56.9148 25.264ZM56.9148 22.624C57.5602 22.624 58.1248 22.47 58.6088 22.162C59.1075 21.854 59.4962 21.4287 59.7748 20.886C60.0682 20.3287 60.2148 19.7053 60.2148 19.016C60.2148 18.312 60.0682 17.696 59.7748 17.168C59.4962 16.6253 59.1075 16.2 58.6088 15.892C58.1248 15.5693 57.5602 15.408 56.9148 15.408C56.2548 15.408 55.6755 15.5693 55.1768 15.892C54.6782 16.2 54.2822 16.6253 53.9888 17.168C53.7102 17.696 53.5708 18.312 53.5708 19.016C53.5708 19.7053 53.7102 20.3287 53.9888 20.886C54.2822 21.4287 54.6782 21.854 55.1768 22.162C55.6755 22.47 56.2548 22.624 56.9148 22.624ZM65.4144 25V13.032H68.1204V15.694L67.9004 15.298C68.1791 14.4033 68.6117 13.78 69.1984 13.428C69.7997 13.076 70.5184 12.9 71.3544 12.9H72.0584V15.452H71.0244C70.2031 15.452 69.5431 15.7087 69.0444 16.222C68.5457 16.7207 68.2964 17.4247 68.2964 18.334V25H65.4144ZM73.6429 25V8.346H76.5249V19.258L75.4249 18.928L81.0569 13.032H84.6429L80.2209 17.85L84.7309 25H81.4309L77.5149 18.796L79.2309 18.444L75.6229 22.316L76.5249 20.556V25H73.6429ZM92.4342 25.264C91.3929 25.264 90.4249 25.0733 89.5302 24.692C88.6502 24.3107 87.8875 23.7827 87.2422 23.108C86.6115 22.4187 86.1495 21.6193 85.8562 20.71L88.3422 19.632C88.7382 20.5707 89.3102 21.3113 90.0582 21.854C90.8062 22.382 91.6495 22.646 92.5882 22.646C93.1162 22.646 93.5709 22.5653 93.9522 22.404C94.3482 22.228 94.6489 21.9933 94.8542 21.7C95.0742 21.4067 95.1842 21.0547 95.1842 20.644C95.1842 20.16 95.0375 19.764 94.7442 19.456C94.4655 19.1333 94.0402 18.884 93.4682 18.708L90.3222 17.696C89.0462 17.3 88.0855 16.706 87.4402 15.914C86.7949 15.122 86.4722 14.1907 86.4722 13.12C86.4722 12.1813 86.6995 11.3527 87.1542 10.634C87.6235 9.91533 88.2689 9.358 89.0902 8.962C89.9262 8.55133 90.8795 8.346 91.9502 8.346C92.9329 8.346 93.8349 8.522 94.6562 8.874C95.4775 9.21133 96.1815 9.688 96.7682 10.304C97.3695 10.9053 97.8169 11.6167 98.1102 12.438L95.6462 13.538C95.3235 12.7167 94.8395 12.086 94.1942 11.646C93.5489 11.1913 92.8009 10.964 91.9502 10.964C91.4515 10.964 91.0115 11.052 90.6302 11.228C90.2489 11.3893 89.9482 11.624 89.7282 11.932C89.5229 12.2253 89.4202 12.5773 89.4202 12.988C89.4202 13.4427 89.5669 13.846 89.8602 14.198C90.1535 14.5353 90.6009 14.7993 91.2022 14.99L94.2162 15.936C95.5215 16.3613 96.4969 16.948 97.1422 17.696C97.8022 18.444 98.1322 19.368 98.1322 20.468C98.1322 21.4067 97.8902 22.2353 97.4062 22.954C96.9222 23.6727 96.2549 24.2373 95.4042 24.648C94.5535 25.0587 93.5635 25.264 92.4342 25.264ZM100.584 25V8.346H103.466V15.386L103.07 14.968C103.349 14.2493 103.804 13.7067 104.434 13.34C105.08 12.9587 105.828 12.768 106.678 12.768C107.558 12.768 108.336 12.9587 109.01 13.34C109.7 13.7213 110.235 14.2567 110.616 14.946C110.998 15.6207 111.188 16.4053 111.188 17.3V25H108.306V17.982C108.306 17.454 108.204 16.9993 107.998 16.618C107.793 16.2367 107.507 15.9433 107.14 15.738C106.788 15.518 106.37 15.408 105.886 15.408C105.417 15.408 104.999 15.518 104.632 15.738C104.266 15.9433 103.98 16.2367 103.774 16.618C103.569 16.9993 103.466 17.454 103.466 17.982V25H100.584ZM119.477 25.264C118.304 25.264 117.233 24.9927 116.265 24.45C115.312 23.9073 114.549 23.1667 113.977 22.228C113.42 21.2893 113.141 20.2187 113.141 19.016C113.141 17.8133 113.42 16.7427 113.977 15.804C114.549 14.8653 115.312 14.1247 116.265 13.582C117.219 13.0393 118.289 12.768 119.477 12.768C120.651 12.768 121.714 13.0393 122.667 13.582C123.621 14.1247 124.376 14.8653 124.933 15.804C125.505 16.728 125.791 17.7987 125.791 19.016C125.791 20.2187 125.505 21.2893 124.933 22.228C124.361 23.1667 123.599 23.9073 122.645 24.45C121.692 24.9927 120.636 25.264 119.477 25.264ZM119.477 22.624C120.123 22.624 120.687 22.47 121.171 22.162C121.67 21.854 122.059 21.4287 122.337 20.886C122.631 20.3287 122.777 19.7053 122.777 19.016C122.777 18.312 122.631 17.696 122.337 17.168C122.059 16.6253 121.67 16.2 121.171 15.892C120.687 15.5693 120.123 15.408 119.477 15.408C118.817 15.408 118.238 15.5693 117.739 15.892C117.241 16.2 116.845 16.6253 116.551 17.168C116.273 17.696 116.133 18.312 116.133 19.016C116.133 19.7053 116.273 20.3287 116.551 20.886C116.845 21.4287 117.241 21.854 117.739 22.162C118.238 22.47 118.817 22.624 119.477 22.624ZM127.977 29.4V13.032H130.683V15.408L130.419 14.814C130.83 14.1687 131.387 13.67 132.091 13.318C132.795 12.9513 133.609 12.768 134.533 12.768C135.662 12.768 136.682 13.0467 137.591 13.604C138.5 14.1613 139.219 14.9093 139.747 15.848C140.29 16.7867 140.561 17.8427 140.561 19.016C140.561 20.1747 140.297 21.2307 139.769 22.184C139.241 23.1373 138.522 23.8927 137.613 24.45C136.704 24.9927 135.67 25.264 134.511 25.264C133.646 25.264 132.846 25.0953 132.113 24.758C131.394 24.406 130.822 23.9073 130.397 23.262L130.859 22.69V29.4H127.977ZM134.181 22.624C134.841 22.624 135.428 22.47 135.941 22.162C136.454 21.854 136.85 21.4287 137.129 20.886C137.422 20.3433 137.569 19.72 137.569 19.016C137.569 18.312 137.422 17.696 137.129 17.168C136.85 16.6253 136.454 16.2 135.941 15.892C135.428 15.5693 134.841 15.408 134.181 15.408C133.55 15.408 132.978 15.562 132.465 15.87C131.966 16.178 131.57 16.6107 131.277 17.168C130.998 17.7107 130.859 18.3267 130.859 19.016C130.859 19.72 130.998 20.3433 131.277 20.886C131.57 21.4287 131.966 21.854 132.465 22.162C132.978 22.47 133.55 22.624 134.181 22.624Z" fill="white"/>
</svg>
