<svg width="172" height="76" viewBox="0 0 172 76" fill="none" xmlns="http://www.w3.org/2000/svg">
<path fill-rule="evenodd" clip-rule="evenodd" d="M60.439 27.1995H47.0645V21.5254H66.1131V40.574H60.439V27.1995Z" fill="#9CA3AF"/>
<path fill-rule="evenodd" clip-rule="evenodd" d="M49.9911 38.4899C49.1247 37.9109 48.106 37.6019 47.0639 37.6019V31.9279C49.2282 31.9279 51.3439 32.5696 53.1434 33.7721C54.943 34.9745 56.3456 36.6835 57.1738 38.6831C58.002 40.6826 58.2187 42.8828 57.7965 45.0055C57.3743 47.1282 56.3321 49.0781 54.8017 50.6085C53.2713 52.1388 51.3215 53.181 49.1988 53.6033C47.0761 54.0255 44.8758 53.8088 42.8763 52.9806C40.8767 52.1523 39.1677 50.7497 37.9653 48.9502C36.7629 47.1507 36.1211 45.035 36.1211 42.8707L41.7952 42.8707C41.7952 43.9127 42.1042 44.9314 42.6831 45.7979C43.262 46.6643 44.0849 47.3396 45.0477 47.7384C46.0104 48.1372 47.0698 48.2415 48.0918 48.0382C49.1139 47.8349 50.0527 47.3331 50.7895 46.5963C51.5264 45.8594 52.0282 44.9206 52.2315 43.8986C52.4348 42.8765 52.3304 41.8172 51.9316 40.8544C51.5329 39.8917 50.8576 39.0688 49.9911 38.4899Z" fill="#9CA3AF"/>
<path d="M75.0293 49.3684V25.5627H83.8374C85.7419 25.5627 87.3176 25.8802 88.5645 26.515C89.8115 27.1498 90.7411 28.0227 91.3532 29.1336C91.9654 30.2445 92.2714 31.4915 92.2714 32.8745C92.2714 34.1895 91.9767 35.4024 91.3872 36.5134C90.7977 37.6016 89.8795 38.4858 88.6326 39.166C87.3856 39.8235 85.7872 40.1522 83.8374 40.1522H79.3823V49.3684H75.0293ZM79.3823 36.6154H83.5653C85.0844 36.6154 86.1726 36.2866 86.8301 35.6292C87.5103 34.949 87.8504 34.0308 87.8504 32.8745C87.8504 31.6955 87.5103 30.7773 86.8301 30.1198C86.1726 29.4397 85.0844 29.0996 83.5653 29.0996H79.3823V36.6154Z" fill="#9CA3AF"/>
<path d="M101.217 49.7765C99.5162 49.7765 98.0085 49.4138 96.6936 48.6883C95.3786 47.9628 94.347 46.9425 93.5988 45.6276C92.8506 44.3126 92.4765 42.7935 92.4765 41.0705C92.4765 39.3247 92.8393 37.7717 93.5648 36.4113C94.313 35.051 95.3332 33.9968 96.6255 33.2486C97.9405 32.4777 99.4822 32.0923 101.251 32.0923C102.906 32.0923 104.368 32.4551 105.638 33.1806C106.907 33.9061 107.894 34.9036 108.596 36.1733C109.322 37.4203 109.685 38.8146 109.685 40.3563C109.685 40.6057 109.673 40.8664 109.651 41.1385C109.651 41.4105 109.639 41.6939 109.617 41.9887H96.7956C96.8863 43.3037 97.3397 44.3352 98.1559 45.0834C98.9948 45.8316 100.004 46.2057 101.183 46.2057C102.067 46.2057 102.804 46.013 103.393 45.6276C104.005 45.2195 104.459 44.698 104.753 44.0632H109.175C108.857 45.1288 108.324 46.1037 107.576 46.9879C106.851 47.8494 105.944 48.5296 104.856 49.0284C103.79 49.5272 102.577 49.7765 101.217 49.7765ZM101.251 35.6292C100.185 35.6292 99.2442 35.9352 98.428 36.5474C97.6118 37.1369 97.0903 38.0437 96.8636 39.268H105.264C105.196 38.1571 104.787 37.2729 104.039 36.6154C103.291 35.9579 102.362 35.6292 101.251 35.6292Z" fill="#9CA3AF"/>
<path d="M111.645 49.3684V32.5004H115.488L115.828 35.3571C116.35 34.3595 117.098 33.566 118.073 32.9765C119.071 32.387 120.238 32.0923 121.576 32.0923C123.662 32.0923 125.283 32.7498 126.439 34.0648C127.595 35.3798 128.173 37.3069 128.173 39.8462V49.3684H123.82V40.2543C123.82 38.8033 123.526 37.6923 122.936 36.9215C122.347 36.1506 121.428 35.7652 120.181 35.7652C118.957 35.7652 117.948 36.196 117.155 37.0575C116.384 37.919 115.998 39.1207 115.998 40.6624V49.3684H111.645Z" fill="#9CA3AF"/>
<path d="M138.151 49.3684C136.383 49.3684 134.966 48.9377 133.9 48.0761C132.835 47.2146 132.302 45.6842 132.302 43.485V36.1393H129.411V32.5004H132.302L132.812 27.9773H136.655V32.5004H141.212V36.1393H136.655V43.519C136.655 44.3352 136.825 44.902 137.165 45.2195C137.528 45.5142 138.14 45.6616 139.002 45.6616H141.11V49.3684H138.151Z" fill="#9CA3AF"/>
<path d="M149.065 49.7765C147.613 49.7765 146.423 49.5498 145.494 49.0964C144.564 48.6203 143.873 47.9968 143.419 47.2259C142.966 46.4551 142.739 45.6049 142.739 44.6753C142.739 43.1109 143.351 41.8413 144.575 40.8664C145.8 39.8915 147.636 39.4041 150.085 39.4041H154.37V38.996C154.37 37.8397 154.041 36.9895 153.384 36.4454C152.726 35.9012 151.91 35.6292 150.935 35.6292C150.051 35.6292 149.28 35.8445 148.622 36.2753C147.965 36.6834 147.557 37.2956 147.398 38.1118H143.147C143.26 36.8875 143.669 35.8219 144.371 34.915C145.097 34.0081 146.026 33.3166 147.16 32.8405C148.294 32.3417 149.563 32.0923 150.969 32.0923C153.372 32.0923 155.265 32.6931 156.648 33.8947C158.031 35.0964 158.723 36.7968 158.723 38.996V49.3684H155.016L154.608 46.6478C154.109 47.5547 153.406 48.3029 152.499 48.8923C151.615 49.4818 150.47 49.7765 149.065 49.7765ZM150.051 46.3757C151.298 46.3757 152.261 45.9676 152.941 45.1514C153.644 44.3352 154.086 43.3263 154.268 42.1247H150.561C149.405 42.1247 148.577 42.3401 148.078 42.7709C147.579 43.179 147.33 43.6891 147.33 44.3012C147.33 44.9587 147.579 45.4688 148.078 45.8316C148.577 46.1944 149.235 46.3757 150.051 46.3757Z" fill="#9CA3AF"/>
</svg>
