<svg width="95" height="30" viewBox="0 0 95 30" fill="none" xmlns="http://www.w3.org/2000/svg">
<path d="M4.73985 20.0943C4.96267 20.1153 5.21587 20.1363 5.49945 20.1572C5.80328 20.1572 6.15776 20.1572 6.56287 20.1572C8.9328 20.1572 10.6849 19.5388 11.8193 18.3019C12.9738 17.065 13.5511 15.3564 13.5511 13.1761C13.5511 10.891 13.0042 9.16142 11.9104 7.98742C10.8166 6.81342 9.08472 6.22642 6.71479 6.22642C6.3907 6.22642 6.05648 6.2369 5.71213 6.25786C5.36778 6.25786 5.04369 6.27883 4.73985 6.32076V20.0943ZM18.4429 13.1761C18.4429 15.0629 18.1593 16.7086 17.5921 18.1132C17.025 19.5178 16.2148 20.6813 15.1615 21.6038C14.1284 22.5262 12.8624 23.218 11.3635 23.6792C9.86457 24.1405 8.18334 24.3711 6.31981 24.3711C5.46906 24.3711 4.47653 24.3291 3.3422 24.2453C2.20788 24.1824 1.09381 24.0356 0 23.805V2.57862C1.09381 2.36897 2.22814 2.23271 3.40297 2.16981C4.59806 2.08595 5.62098 2.04402 6.47172 2.04402C8.27449 2.04402 9.90508 2.25367 11.3635 2.67296C12.8422 3.09224 14.1082 3.75262 15.1615 4.65409C16.2148 5.55556 17.025 6.7086 17.5921 8.11321C18.1593 9.51782 18.4429 11.2055 18.4429 13.1761Z" fill="white"/>
<path d="M30.8183 11.6981C30.4132 11.5933 29.9372 11.4885 29.3903 11.3836C28.8434 11.2579 28.256 11.195 27.628 11.195C27.3444 11.195 27.0001 11.2264 26.595 11.2893C26.2101 11.3312 25.9164 11.3836 25.7139 11.4465V24.0881H21.1867V8.42767C21.9969 8.13417 22.9489 7.86164 24.0427 7.61006C25.1568 7.33753 26.3924 7.20126 27.7496 7.20126C27.9926 7.20126 28.2863 7.22222 28.6307 7.26415C28.975 7.28511 29.3194 7.32704 29.6637 7.38994C30.0081 7.43187 30.3524 7.49476 30.6968 7.57862C31.0411 7.64151 31.3348 7.72537 31.5779 7.83019L30.8183 11.6981Z" fill="white"/>
<path d="M37.6205 24.0881H33.0933V7.54717H37.6205V24.0881ZM38.0458 2.7673C38.0458 3.62683 37.7724 4.30818 37.2255 4.81132C36.6988 5.2935 36.0709 5.53459 35.3417 5.53459C34.6125 5.53459 33.9744 5.2935 33.4275 4.81132C32.9009 4.30818 32.6375 3.62683 32.6375 2.7673C32.6375 1.90776 32.9009 1.2369 33.4275 0.754717C33.9744 0.251572 34.6125 0 35.3417 0C36.0709 0 36.6988 0.251572 37.2255 0.754717C37.7724 1.2369 38.0458 1.90776 38.0458 2.7673Z" fill="white"/>
<path d="M44.8347 24.0881C43.8016 21.9916 42.7483 19.5388 41.6748 16.7296C40.6215 13.9203 39.6188 10.8595 38.6668 7.54717H43.4674C43.67 8.36478 43.9029 9.25577 44.1662 10.2201C44.4498 11.1635 44.7334 12.1279 45.017 13.1132C45.3208 14.0776 45.6145 15.021 45.8981 15.9434C46.2019 16.8658 46.4957 17.7044 46.7792 18.4591C47.0426 17.7044 47.3261 16.8658 47.63 15.9434C47.9338 15.021 48.2275 14.0776 48.5111 13.1132C48.8149 12.1279 49.0985 11.1635 49.3618 10.2201C49.6454 9.25577 49.8885 8.36478 50.0911 7.54717H54.7701C53.8181 10.8595 52.8053 13.9203 51.7318 16.7296C50.6785 19.5388 49.6353 21.9916 48.6023 24.0881H44.8347Z" fill="white"/>
<path d="M60.8106 24.0881H56.2834V7.54717H60.8106V24.0881ZM61.2359 2.7673C61.2359 3.62683 60.9625 4.30818 60.4156 4.81132C59.8889 5.2935 59.261 5.53459 58.5318 5.53459C57.8026 5.53459 57.1645 5.2935 56.6176 4.81132C56.091 4.30818 55.8276 3.62683 55.8276 2.7673C55.8276 1.90776 56.091 1.2369 56.6176 0.754717C57.1645 0.251572 57.8026 0 58.5318 0C59.261 0 59.8889 0.251572 60.4156 0.754717C60.9625 1.2369 61.2359 1.90776 61.2359 2.7673Z" fill="white"/>
<path d="M64.1547 8.11321C64.9244 7.8826 65.9169 7.67296 67.1323 7.48428C68.3476 7.27463 69.6237 7.16981 70.9606 7.16981C72.3177 7.16981 73.4419 7.35849 74.3332 7.73585C75.2447 8.09224 75.9638 8.60587 76.4904 9.27673C77.0171 9.94759 77.3918 10.7442 77.6146 11.6667C77.8374 12.5891 77.9489 13.6164 77.9489 14.7484V24.0881H73.4217V15.3145C73.4217 13.805 73.2292 12.7358 72.8444 12.1069C72.4595 11.478 71.7405 11.1635 70.6872 11.1635C70.3631 11.1635 70.0187 11.1845 69.6541 11.2264C69.2895 11.2474 68.9654 11.2788 68.6818 11.3208V24.0881H64.1547V8.11321Z" fill="white"/>
<path d="M84.9938 15.283C84.9938 17.9036 86.0167 19.2138 88.0626 19.2138C88.5285 19.2138 88.964 19.1509 89.3691 19.0252C89.7742 18.8994 90.1185 18.7526 90.4021 18.5849V11.1006C90.1793 11.0587 89.916 11.0273 89.6122 11.0063C89.3083 10.9644 88.9538 10.9434 88.5487 10.9434C87.3536 10.9434 86.4624 11.3522 85.875 12.1698C85.2875 12.9874 84.9938 14.0252 84.9938 15.283ZM94.9293 22.0126C94.9293 24.717 94.2609 26.7191 92.924 28.0189C91.6073 29.3396 89.5615 30 86.7865 30C85.8142 30 84.8419 29.9057 83.8696 29.717C82.8974 29.5493 81.996 29.3187 81.1655 29.0252L81.9555 25.0943C82.6644 25.3878 83.4037 25.6185 84.1735 25.7862C84.9634 25.9539 85.8547 26.0377 86.8472 26.0377C88.1436 26.0377 89.0551 25.7442 89.5818 25.1572C90.1287 24.5702 90.4021 23.8155 90.4021 22.8931V22.2956C89.916 22.5262 89.4096 22.7044 88.8829 22.8302C88.3765 22.935 87.8195 22.9874 87.2118 22.9874C85.004 22.9874 83.3126 22.3166 82.1378 20.9748C80.9629 19.6122 80.3755 17.7149 80.3755 15.283C80.3755 14.0671 80.5578 12.9665 80.9224 11.9811C81.287 10.9748 81.8137 10.1153 82.5024 9.40252C83.2113 8.68973 84.0722 8.14465 85.085 7.76729C86.0978 7.36897 87.2422 7.16981 88.5183 7.16981C89.0652 7.16981 89.6223 7.20126 90.1894 7.26415C90.7769 7.30608 91.3541 7.36897 91.9213 7.45283C92.4885 7.53669 93.0252 7.64151 93.5316 7.76729C94.0583 7.87212 94.5242 7.98742 94.9293 8.11321V22.0126Z" fill="white"/>
</svg>
