<svg width="109" height="34" viewBox="0 0 109 34" fill="none" xmlns="http://www.w3.org/2000/svg">
<path d="M40.8638 25C39.6158 25 38.6158 24.696 37.8638 24.088C37.1118 23.48 36.7358 22.4 36.7358 20.848V15.664H34.6958V13.096H36.7358L37.0958 9.904H39.8078V13.096H43.0238V15.664H39.8078V20.872C39.8078 21.448 39.9278 21.848 40.1678 22.072C40.4238 22.28 40.8558 22.384 41.4638 22.384H42.9518V25H40.8638ZM49.7653 25.288C48.7413 25.288 47.9013 25.128 47.2453 24.808C46.5893 24.472 46.1013 24.032 45.7813 23.488C45.4613 22.944 45.3013 22.344 45.3013 21.688C45.3013 20.584 45.7333 19.688 46.5973 19C47.4613 18.312 48.7573 17.968 50.4853 17.968H53.5093V17.68C53.5093 16.864 53.2773 16.264 52.8133 15.88C52.3493 15.496 51.7733 15.304 51.0853 15.304C50.4613 15.304 49.9173 15.456 49.4533 15.76C48.9893 16.048 48.7013 16.48 48.5893 17.056H45.5893C45.6693 16.192 45.9573 15.44 46.4533 14.8C46.9653 14.16 47.6213 13.672 48.4213 13.336C49.2213 12.984 50.1173 12.808 51.1093 12.808C52.8053 12.808 54.1413 13.232 55.1173 14.08C56.0933 14.928 56.5813 16.128 56.5813 17.68V25H53.9653L53.6773 23.08C53.3253 23.72 52.8293 24.248 52.1893 24.664C51.5653 25.08 50.7573 25.288 49.7653 25.288ZM50.4613 22.888C51.3413 22.888 52.0213 22.6 52.5013 22.024C52.9973 21.448 53.3093 20.736 53.4373 19.888H50.8213C50.0053 19.888 49.4213 20.04 49.0693 20.344C48.7173 20.632 48.5413 20.992 48.5413 21.424C48.5413 21.888 48.7173 22.248 49.0693 22.504C49.4213 22.76 49.8853 22.888 50.4613 22.888ZM62.3773 25L58.0093 13.096H61.2253L64.2493 22.096L67.2733 13.096H70.4893L66.0973 25H62.3773ZM77.625 25.288C76.425 25.288 75.361 25.032 74.433 24.52C73.505 24.008 72.777 23.288 72.249 22.36C71.721 21.432 71.457 20.36 71.457 19.144C71.457 17.912 71.713 16.816 72.225 15.856C72.753 14.896 73.473 14.152 74.385 13.624C75.313 13.08 76.401 12.808 77.649 12.808C78.817 12.808 79.849 13.064 80.745 13.576C81.641 14.088 82.337 14.792 82.833 15.688C83.345 16.568 83.601 17.552 83.601 18.64C83.601 18.816 83.593 19 83.577 19.192C83.577 19.384 83.569 19.584 83.553 19.792H74.505C74.569 20.72 74.889 21.448 75.465 21.976C76.057 22.504 76.769 22.768 77.601 22.768C78.225 22.768 78.745 22.632 79.161 22.36C79.593 22.072 79.913 21.704 80.121 21.256H83.241C83.017 22.008 82.641 22.696 82.113 23.32C81.601 23.928 80.961 24.408 80.193 24.76C79.441 25.112 78.585 25.288 77.625 25.288ZM77.649 15.304C76.897 15.304 76.233 15.52 75.657 15.952C75.081 16.368 74.713 17.008 74.553 17.872H80.481C80.433 17.088 80.145 16.464 79.617 16C79.089 15.536 78.433 15.304 77.649 15.304ZM86.1848 25V13.096H88.9208L89.2088 15.328C89.6408 14.56 90.2248 13.952 90.9608 13.504C91.7128 13.04 92.5928 12.808 93.6008 12.808V16.048H92.7368C92.0648 16.048 91.4648 16.152 90.9368 16.36C90.4088 16.568 89.9928 16.928 89.6888 17.44C89.4008 17.952 89.2568 18.664 89.2568 19.576V25H86.1848ZM95.7004 25V13.096H98.4124L98.6524 15.112C99.0204 14.408 99.5484 13.848 100.236 13.432C100.94 13.016 101.764 12.808 102.708 12.808C104.18 12.808 105.324 13.272 106.14 14.2C106.956 15.128 107.364 16.488 107.364 18.28V25H104.292V18.568C104.292 17.544 104.084 16.76 103.668 16.216C103.252 15.672 102.604 15.4 101.724 15.4C100.86 15.4 100.148 15.704 99.5884 16.312C99.0444 16.92 98.7724 17.768 98.7724 18.856V25H95.7004Z" fill="#121110"/>
<circle cx="18.296" cy="22.7779" r="5.72222" stroke="#121110" stroke-width="3"/>
<circle cx="4.81457" cy="15.5555" r="3.31482" stroke="#121110" stroke-width="3"/>
<circle cx="21.1847" cy="8.81482" r="3.31482" stroke="#121110" stroke-width="3"/>
</svg>
