<svg width="97" height="97" viewBox="0 0 97 97" fill="none" xmlns="http://www.w3.org/2000/svg">
<circle cx="48.668" cy="48.3389" r="48" fill="#FCF1DE"/>
<path d="M75.2643 54.6521H22.8301V65.3245H75.2643V54.6521Z" fill="#FFAB00"/>
<path d="M75.263 65.9737H22.8288C22.4576 65.9737 22.1328 65.6489 22.1328 65.2777V54.6052C22.1328 54.234 22.4576 53.9092 22.8288 53.9092H75.263C75.6343 53.9092 75.9591 54.234 75.9591 54.6052V65.2777C75.9591 65.6953 75.6343 65.9737 75.263 65.9737ZM23.5249 64.5816H74.567V55.3012H23.5249V64.5816Z" fill="#37474F"/>
<path d="M25.8457 59.2925H26.5417V60.4061" fill="white"/>
<path d="M26.5405 61.1483C26.1693 61.1483 25.8445 60.8235 25.8445 60.4523V59.9882C25.4733 59.9882 25.1484 59.6634 25.1484 59.2922C25.1484 58.921 25.4733 58.5962 25.8445 58.5962H26.5405C26.9117 58.5962 27.2365 58.921 27.2365 59.2922V60.4523C27.2365 60.8235 26.9117 61.1483 26.5405 61.1483Z" fill="#37474F"/>
<path d="M28.6309 59.2925H29.3269V60.4061" fill="white"/>
<path d="M29.3257 61.1483C28.9544 61.1483 28.6296 60.8235 28.6296 60.4523V59.9882C28.2584 59.9882 27.9336 59.6634 27.9336 59.2922C27.9336 58.921 28.2584 58.5962 28.6296 58.5962H29.3257C29.6969 58.5962 30.0217 58.921 30.0217 59.2922V60.4523C30.0217 60.8235 29.6969 61.1483 29.3257 61.1483Z" fill="#37474F"/>
<path d="M31.4082 59.2925H32.1042V60.4061" fill="white"/>
<path d="M32.103 61.1483C31.7318 61.1483 31.407 60.8235 31.407 60.4523V59.9882C31.0358 59.9882 30.7109 59.6634 30.7109 59.2922C30.7109 58.921 31.0358 58.5962 31.407 58.5962H32.103C32.4742 58.5962 32.799 58.921 32.799 59.2922V60.4523C32.799 60.8235 32.4742 61.1483 32.103 61.1483Z" fill="#37474F"/>
<path d="M34.1953 59.2925H34.8913V60.4061" fill="white"/>
<path d="M34.8901 61.1483C34.5189 61.1483 34.1941 60.8235 34.1941 60.4523V59.9882C33.8229 59.9882 33.498 59.6634 33.498 59.2922C33.498 58.921 33.8229 58.5962 34.1941 58.5962H34.8901C35.2613 58.5962 35.5861 58.921 35.5861 59.2922V60.4523C35.5861 60.8235 35.2613 61.1483 34.8901 61.1483Z" fill="#37474F"/>
<path d="M62.9629 59.2922H63.6589V60.4059" fill="white"/>
<path d="M63.6577 61.1481C63.2865 61.1481 62.9617 60.8232 62.9617 60.452V59.988C62.5904 59.988 62.2656 59.6632 62.2656 59.292C62.2656 58.9208 62.5904 58.5959 62.9617 58.5959H63.6577C64.0289 58.5959 64.3537 58.9208 64.3537 59.292V60.452C64.3537 60.8232 64.0289 61.1481 63.6577 61.1481Z" fill="#37474F"/>
<path d="M65.7461 59.2925H66.4421V60.4061" fill="white"/>
<path d="M66.4409 61.1483C66.0697 61.1483 65.7449 60.8235 65.7449 60.4523V59.9882C65.3736 59.9882 65.0488 59.6634 65.0488 59.2922C65.0488 58.921 65.3736 58.5962 65.7449 58.5962H66.4409C66.8121 58.5962 67.1369 58.921 67.1369 59.2922V60.4523C67.1369 60.8235 66.8121 61.1483 66.4409 61.1483Z" fill="#37474F"/>
<path d="M68.5312 59.2922H69.2273V60.4059" fill="white"/>
<path d="M69.226 61.1481C68.8548 61.1481 68.53 60.8232 68.53 60.452V59.988C68.1588 59.988 67.834 59.6632 67.834 59.292C67.834 58.9208 68.1588 58.5959 68.53 58.5959H69.226C69.5973 58.5959 69.9221 58.9208 69.9221 59.292V60.452C69.9221 60.8232 69.5973 61.1481 69.226 61.1481Z" fill="#37474F"/>
<path d="M71.3184 59.2925H72.0144V60.4061" fill="white"/>
<path d="M72.0132 61.1483C71.6419 61.1483 71.3171 60.8235 71.3171 60.4523V59.9882C70.9459 59.9882 70.6211 59.6634 70.6211 59.2922C70.6211 58.921 70.9459 58.5962 71.3171 58.5962H72.0132C72.3844 58.5962 72.7092 58.921 72.7092 59.2922V60.4523C72.7092 60.8235 72.3844 61.1483 72.0132 61.1483Z" fill="#37474F"/>
<path d="M77.3037 54.187H20.6934L27.004 46.7627H70.9931L77.3037 54.187Z" fill="#FFECB3"/>
<path d="M77.3038 54.8366H20.6935C20.415 54.8366 20.183 54.6974 20.0438 54.419C19.9046 54.1406 19.951 53.8622 20.1366 53.6766L26.4009 46.2523C26.5401 46.1131 26.7257 46.0203 26.9113 46.0203H70.9004C71.086 46.0203 71.318 46.1131 71.4108 46.2523L77.7679 53.6302C77.9071 53.7694 77.9999 53.955 77.9999 54.1406C77.9999 54.5582 77.6751 54.8366 77.3038 54.8366ZM22.2247 53.4446H75.819L70.7148 47.4123H27.3289L22.2247 53.4446Z" fill="#37474F"/>
<path d="M72.1055 54.1877H25.9355L31.0398 46.7634H66.9549L72.1055 54.1877Z" fill="#FFECB3"/>
<path d="M72.1072 54.8371H25.9373C25.6589 54.8371 25.4269 54.6979 25.3341 54.4659C25.1948 54.2339 25.2412 53.9555 25.3805 53.7699L30.5311 46.3455C30.6703 46.1599 30.8559 46.0671 31.0879 46.0671H67.003C67.235 46.0671 67.467 46.1599 67.5598 46.3455L72.6176 53.6771C72.7568 53.8163 72.8032 53.9555 72.8032 54.1411C72.8032 54.5587 72.4784 54.8371 72.1072 54.8371ZM27.2365 53.445H70.7616L66.5854 47.4128H31.4127L27.2365 53.445Z" fill="#37474F"/>
<path d="M67.0959 54.1873H30.9023L34.9393 46.7629H63.0589L67.0959 54.1873Z" fill="#FFECB3"/>
<path d="M67.0945 54.8369H30.901C30.669 54.8369 30.437 54.6977 30.2978 54.5121C30.1586 54.3265 30.1586 54.048 30.2978 53.816L34.3347 46.3917C34.4739 46.1597 34.7059 46.0205 34.938 46.0205H63.0575C63.336 46.0205 63.568 46.1597 63.6608 46.3917L67.6049 53.7232C67.6977 53.8624 67.7441 54.0016 67.7441 54.1408C67.7905 54.5585 67.4657 54.8369 67.0945 54.8369ZM32.1074 53.4448H65.9345L62.6863 47.4126H35.3556L32.1074 53.4448Z" fill="#37474F"/>
<path d="M59.9534 51.8677H38.1445V68.5724H59.9534V51.8677Z" fill="white"/>
<path d="M59.9522 69.222H38.1433C37.7721 69.222 37.4473 68.8972 37.4473 68.526V51.8213C37.4473 51.4501 37.7721 51.1252 38.1433 51.1252H59.9522C60.3234 51.1252 60.6482 51.4501 60.6482 51.8213V68.526C60.6482 68.9436 60.3234 69.222 59.9522 69.222ZM38.8393 67.8299H59.2562V52.5173H38.8393V67.8299Z" fill="#37474F"/>
<path d="M63.8952 69.2221H34.198C33.8268 69.2221 33.502 68.8973 33.502 68.5261C33.502 68.1549 33.8268 67.8301 34.198 67.8301H63.8952C64.2664 67.8301 64.5913 68.1549 64.5913 68.5261C64.5913 68.8973 64.2664 69.2221 63.8952 69.2221Z" fill="#37474F"/>
<path d="M51.6003 57.4363H46.4961V68.1087H51.6003V57.4363Z" fill="#FFAB00"/>
<path d="M51.5991 68.7584H46.4949C46.1236 68.7584 45.7988 68.4335 45.7988 68.0623V57.3899C45.7988 57.0187 46.1236 56.6938 46.4949 56.6938H51.5991C51.9703 56.6938 52.2951 57.0187 52.2951 57.3899V68.0623C52.2951 68.4799 51.9703 68.7584 51.5991 68.7584ZM47.1909 67.3663H50.903V58.0859H47.1909V67.3663Z" fill="#37474F"/>
<path d="M40.2383 57.4368H41.3983V58.5504" fill="#FFAB00"/>
<path d="M41.3971 59.2926C41.0259 59.2926 40.7011 58.9678 40.7011 58.5966V58.1325H40.237C39.8658 58.1325 39.541 57.8077 39.541 57.4365C39.541 57.0653 39.8658 56.7405 40.237 56.7405H41.3971C41.7683 56.7405 42.0931 57.0653 42.0931 57.4365V58.5966C42.0931 58.9678 41.7683 59.2926 41.3971 59.2926Z" fill="#37474F"/>
<path d="M43.0234 57.4368H44.1835V58.5504" fill="#FFAB00"/>
<path d="M44.1822 59.2926C43.811 59.2926 43.4862 58.9678 43.4862 58.5966V58.1325H43.0222C42.651 58.1325 42.3262 57.8077 42.3262 57.4365C42.3262 57.0653 42.651 56.7405 43.0222 56.7405H44.1822C44.5535 56.7405 44.8783 57.0653 44.8783 57.4365V58.5966C44.8783 58.9678 44.5535 59.2926 44.1822 59.2926Z" fill="#37474F"/>
<path d="M40.2383 61.1494H41.3983V62.2631" fill="#FFAB00"/>
<path d="M41.3971 63.0052C41.0259 63.0052 40.7011 62.6804 40.7011 62.3092V61.8452H40.237C39.8658 61.8452 39.541 61.5204 39.541 61.1492C39.541 60.7779 39.8658 60.4531 40.237 60.4531H41.3971C41.7683 60.4531 42.0931 60.7779 42.0931 61.1492V62.3092C42.0931 62.6804 41.7683 63.0052 41.3971 63.0052Z" fill="#37474F"/>
<path d="M43.0234 61.1494H44.1835V62.2631" fill="#FFAB00"/>
<path d="M44.1822 63.0052C43.811 63.0052 43.4862 62.6804 43.4862 62.3092V61.8452H43.0222C42.651 61.8452 42.3262 61.5204 42.3262 61.1492C42.3262 60.7779 42.651 60.4531 43.0222 60.4531H44.1822C44.5535 60.4531 44.8783 60.7779 44.8783 61.1492V62.3092C44.8783 62.6804 44.5535 63.0052 44.1822 63.0052Z" fill="#37474F"/>
<path d="M40.2383 64.8611H41.3983V65.9747" fill="#FFAB00"/>
<path d="M41.3971 66.7169C41.0259 66.7169 40.7011 66.3921 40.7011 66.0209V65.5569H40.237C39.8658 65.5569 39.541 65.232 39.541 64.8608C39.541 64.4896 39.8658 64.1648 40.237 64.1648H41.3971C41.7683 64.1648 42.0931 64.4896 42.0931 64.8608V66.0209C42.0931 66.3921 41.7683 66.7169 41.3971 66.7169Z" fill="#37474F"/>
<path d="M43.0234 64.8611H44.1835V65.9747" fill="#FFAB00"/>
<path d="M44.1822 66.7169C43.811 66.7169 43.4862 66.3921 43.4862 66.0209V65.5569H43.0222C42.651 65.5569 42.3262 65.232 42.3262 64.8608C42.3262 64.4896 42.651 64.1648 43.0222 64.1648H44.1822C44.5535 64.1648 44.8783 64.4896 44.8783 64.8608V66.0209C44.8783 66.3921 44.5535 66.7169 44.1822 66.7169Z" fill="#37474F"/>
<path d="M53.6934 57.4368H54.8534V58.5504" fill="#FFAB00"/>
<path d="M54.8522 59.2926C54.481 59.2926 54.1561 58.9678 54.1561 58.5966V58.1325H53.6921C53.3209 58.1325 52.9961 57.8077 52.9961 57.4365C52.9961 57.0653 53.3209 56.7405 53.6921 56.7405H54.8522C55.2234 56.7405 55.5482 57.0653 55.5482 57.4365V58.5966C55.5482 58.9678 55.2234 59.2926 54.8522 59.2926Z" fill="#37474F"/>
<path d="M56.4785 57.4363H57.6386V58.5499" fill="#FFAB00"/>
<path d="M57.6373 59.2926C57.2661 59.2926 56.9413 58.9678 56.9413 58.5966V58.1325H56.4773C56.1061 58.1325 55.7812 57.8077 55.7812 57.4365C55.7812 57.0653 56.1061 56.7405 56.4773 56.7405H57.6373C58.0085 56.7405 58.3334 57.0653 58.3334 57.4365V58.5966C58.3334 58.9678 58.0085 59.2926 57.6373 59.2926Z" fill="#37474F"/>
<path d="M53.6934 61.1492H54.8534V62.2628" fill="#FFAB00"/>
<path d="M54.8522 63.005C54.481 63.005 54.1561 62.6802 54.1561 62.309V61.8449H53.6921C53.3209 61.8449 52.9961 61.5201 52.9961 61.1489C52.9961 60.7777 53.3209 60.4529 53.6921 60.4529H54.8522C55.2234 60.4529 55.5482 60.7777 55.5482 61.1489V62.309C55.5482 62.6802 55.2234 63.005 54.8522 63.005Z" fill="#37474F"/>
<path d="M56.4785 61.1492H57.6386V62.2628" fill="#FFAB00"/>
<path d="M57.6373 63.005C57.2661 63.005 56.9413 62.6802 56.9413 62.309V61.8449H56.4773C56.1061 61.8449 55.7812 61.5201 55.7812 61.1489C55.7812 60.7777 56.1061 60.4529 56.4773 60.4529H57.6373C58.0085 60.4529 58.3334 60.7777 58.3334 61.1489V62.309C58.3334 62.6802 58.0085 63.005 57.6373 63.005Z" fill="#37474F"/>
<path d="M53.6934 64.8611H54.8534V65.9747" fill="#FFAB00"/>
<path d="M54.8522 66.7169C54.481 66.7169 54.1561 66.3921 54.1561 66.0209V65.5569H53.6921C53.3209 65.5569 52.9961 65.232 52.9961 64.8608C52.9961 64.4896 53.3209 64.1648 53.6921 64.1648H54.8522C55.2234 64.1648 55.5482 64.4896 55.5482 64.8608V66.0209C55.5482 66.3921 55.2234 66.7169 54.8522 66.7169Z" fill="#37474F"/>
<path d="M56.4785 64.8606H57.6386V65.9742" fill="#FFAB00"/>
<path d="M57.6373 66.7169C57.2661 66.7169 56.9413 66.3921 56.9413 66.0209V65.5569H56.4773C56.1061 65.5569 55.7812 65.232 55.7812 64.8608C55.7812 64.4896 56.1061 64.1648 56.4773 64.1648H57.6373C58.0085 64.1648 58.3334 64.4896 58.3334 64.8608V66.0209C58.3334 66.3921 58.0085 66.7169 57.6373 66.7169Z" fill="#37474F"/>
<path d="M49.9301 63.3755C49.9301 63.6539 49.698 63.9323 49.3732 63.9323C49.0948 63.9323 48.8164 63.7003 48.8164 63.3755C48.8164 63.0507 49.0484 62.865 49.3732 62.865C49.698 62.8186 49.9301 63.0507 49.9301 63.3755Z" fill="#37474F"/>
<path d="M44.4102 54.6057C44.4102 55.0233 44.0854 55.3481 43.6677 55.3481C43.2501 55.3481 42.8789 54.9769 42.8789 54.6057C42.8789 54.1881 43.2037 53.8633 43.6677 53.8633C44.0854 53.8633 44.4102 54.1881 44.4102 54.6057Z" fill="#37474F"/>
<path d="M43.6673 55.6266C43.1105 55.6266 42.6465 55.1626 42.6465 54.6522C42.6465 54.0954 43.1105 53.6777 43.6673 53.6777C44.2242 53.6777 44.6418 54.1418 44.6418 54.6522C44.6418 55.1626 44.2242 55.6266 43.6673 55.6266ZM43.6673 54.0954C43.3889 54.0954 43.1105 54.3274 43.1105 54.6058C43.1105 54.8842 43.3425 55.1162 43.6673 55.1162C43.9457 55.1162 44.1777 54.8842 44.1777 54.6058C44.1777 54.3274 43.9457 54.0954 43.6673 54.0954Z" fill="#37474F"/>
<path d="M49.793 54.6057C49.793 55.0233 49.4218 55.3481 49.0041 55.3481C48.5865 55.3481 48.2617 54.9769 48.2617 54.6057C48.2617 54.1881 48.5865 53.8633 49.0041 53.8633C49.4218 53.8633 49.793 54.1881 49.793 54.6057Z" fill="#37474F"/>
<path d="M49.0037 55.6266C48.4469 55.6266 48.0293 55.1626 48.0293 54.6522C48.0293 54.0954 48.4933 53.6777 49.0037 53.6777C49.5606 53.6777 50.0246 54.1418 50.0246 54.6522C50.0246 55.1626 49.5606 55.6266 49.0037 55.6266ZM49.0037 54.0954C48.7253 54.0954 48.4933 54.3274 48.4933 54.6058C48.4933 54.8842 48.7253 55.1162 49.0037 55.1162C49.2821 55.1162 49.5606 54.8842 49.5606 54.6058C49.5606 54.3274 49.2821 54.0954 49.0037 54.0954Z" fill="#37474F"/>
<path d="M55.1231 54.6057C55.1231 55.0233 54.7982 55.3481 54.3806 55.3481C53.963 55.3481 53.5918 55.0233 53.5918 54.6057C53.5918 54.1881 53.9166 53.8633 54.3806 53.8633C54.7518 53.8633 55.1231 54.1881 55.1231 54.6057Z" fill="#37474F"/>
<path d="M54.3353 55.6266C53.7785 55.6266 53.3145 55.209 53.3145 54.6522C53.3145 54.0954 53.7785 53.6777 54.3353 53.6777C54.8457 53.6777 55.3097 54.1418 55.3097 54.6522C55.3561 55.1626 54.8921 55.6266 54.3353 55.6266ZM54.3353 54.0954C54.0569 54.0954 53.7785 54.3274 53.7785 54.6058C53.7785 54.8842 54.0105 55.1162 54.3353 55.1162C54.6137 55.1162 54.8457 54.8842 54.8457 54.6058C54.8921 54.3274 54.6137 54.0954 54.3353 54.0954Z" fill="#37474F"/>
<path d="M33.6895 52.3322L49.0021 40.6389L64.3147 52.3322H33.6895Z" fill="#FFAB00"/>
<path d="M64.3608 52.9816H33.6891C33.4107 52.9816 33.1323 52.796 33.0395 52.5176C32.9467 52.2392 33.0395 51.9143 33.2715 51.7287L48.5841 40.0354C48.8161 39.8498 49.1873 39.8498 49.4194 40.0354L64.6856 51.6823C64.8712 51.8215 65.0568 52.0071 65.0568 52.2856C65.0568 52.7032 64.732 52.9816 64.3608 52.9816ZM35.7308 51.5895H62.2727L49.0017 41.5203L35.7308 51.5895Z" fill="#37474F"/>
<path d="M40.5059 52.3315L48.9974 45.8352L57.489 52.3315H40.5059Z" fill="#78909C"/>
<path d="M59.5792 52.9814H38.4199L48.9996 44.9539L59.5792 52.9814ZM42.5497 51.5893H55.4494L48.9996 46.7171L42.5497 51.5893Z" fill="#37474F"/>
<path d="M48.8132 41.1949C48.442 41.1949 48.1172 40.8701 48.1172 40.4989V21.4741C48.1172 21.1029 48.442 20.7781 48.8132 20.7781C49.1844 20.7781 49.5092 21.1029 49.5092 21.4741V40.4989C49.5092 40.8701 49.1844 41.1949 48.8132 41.1949Z" fill="#37474F"/>
<path d="M57.8164 26.4391L48.8145 30.9865V22.2166L57.8164 26.4391Z" fill="#FFAB00"/>
<path d="M48.8132 31.6825C48.674 31.6825 48.5812 31.6361 48.442 31.5897C48.2564 31.4505 48.1172 31.2185 48.1172 30.9865V22.2165C48.1172 21.9845 48.2564 21.7525 48.442 21.6133C48.6276 21.4741 48.906 21.4741 49.0916 21.5669L58.14 25.7431C58.372 25.8359 58.5576 26.1143 58.5576 26.3463C58.5576 26.6247 58.4184 26.8567 58.1864 26.9959L49.138 31.5897C48.9988 31.6825 48.906 31.6825 48.8132 31.6825ZM49.5092 23.3301V29.8728L56.2375 26.4391L49.5092 23.3301Z" fill="#37474F"/>
</svg>
