<svg width="64" height="64" viewBox="0 0 64 64" fill="none" xmlns="http://www.w3.org/2000/svg">
<path d="M13.6 40.464H14.2324C14.7009 40.464 15.0523 40.4 15.2865 40.272C15.5364 40.144 15.6613 39.944 15.6613 39.672V25.128C15.6613 24.856 15.5364 24.656 15.2865 24.528C15.0523 24.4 14.7009 24.336 14.2324 24.336H13.6V24H18.4723V24.336H17.8398C17.3713 24.336 17.0121 24.4 16.7623 24.528C16.528 24.656 16.4109 24.856 16.4109 25.128V39.432C16.4109 39.704 16.528 39.904 16.7623 40.032C17.0121 40.16 17.3713 40.224 17.8398 40.224H22.595C23.1884 40.224 23.6256 39.856 23.9067 39.12C24.2034 38.368 24.3752 37.6 24.4221 36.816H24.7266L24.3987 40.8H13.6V40.464Z" fill="black"/>
<path d="M37.3381 36.816L37.0102 40.8H25.6727V40.464H26.3052C26.7737 40.464 27.125 40.4 27.3593 40.272C27.6091 40.144 27.7341 39.944 27.7341 39.672V25.128C27.7341 24.856 27.6091 24.656 27.3593 24.528C27.125 24.4 26.7737 24.336 26.3052 24.336H25.6727V24H37.0102V27.696H36.7056C36.6744 26.864 36.5495 26.136 36.3309 25.512C36.1122 24.888 35.6984 24.576 35.0894 24.576H28.4837V31.56H33.4731C33.9259 31.56 34.2226 31.36 34.3632 30.96C34.5037 30.56 34.6052 29.936 34.6677 29.088H34.9957V34.608H34.6677C34.6052 33.76 34.5037 33.136 34.3632 32.736C34.2226 32.336 33.9259 32.136 33.4731 32.136H28.4837V40.224H35.2065C35.7999 40.224 36.2372 39.856 36.5182 39.12C36.815 38.368 36.9867 37.6 37.0336 36.816H37.3381Z" fill="black"/>
<path d="M50.4 36.816L50.072 40.8H38.7346V40.464H39.3671C39.8356 40.464 40.1869 40.4 40.4212 40.272C40.671 40.144 40.796 39.944 40.796 39.672V25.128C40.796 24.856 40.671 24.656 40.4212 24.528C40.1869 24.4 39.8356 24.336 39.3671 24.336H38.7346V24H50.072V27.696H49.7675C49.7363 26.864 49.6114 26.136 49.3927 25.512C49.1741 24.888 48.7603 24.576 48.1512 24.576H41.5455V31.56H46.5349C46.9878 31.56 47.2845 31.36 47.4251 30.96C47.5656 30.56 47.6671 29.936 47.7296 29.088H48.0575V34.608H47.7296C47.6671 33.76 47.5656 33.136 47.4251 32.736C47.2845 32.336 46.9878 32.136 46.5349 32.136H41.5455V40.224H48.2684C48.8618 40.224 49.299 39.856 49.5801 39.12C49.8768 38.368 50.0486 37.6 50.0955 36.816H50.4Z" fill="black"/>
<rect x="0.5" y="0.5" width="63" height="63" rx="31.5" stroke="black" stroke-dasharray="4 4"/>
</svg>
