<svg width="80" height="71" viewBox="0 0 80 71" fill="none" xmlns="http://www.w3.org/2000/svg">
<path d="M40 43.7272L35.5491 1.99829C33.714 1.91992 31.9961 1.7436 30.3953 1.46933C28.7555 1.15587 27.1352 0.940369 25.5344 0.822824C25.5344 0.862006 25.593 1.27342 25.7101 2.05706C25.8272 2.80152 25.9834 3.80066 26.1786 5.05449C26.3738 6.26913 26.5886 7.6601 26.8228 9.22738C27.0571 10.7555 27.4085 12.8713 27.877 15.5749C28.3065 18.2784 28.8921 22.0203 29.634 26.8006H28.7555C27.7404 23.1958 26.9009 20.2571 26.2372 17.9846C25.5735 15.6728 25.0464 13.8117 24.6559 12.4011C24.2265 10.9514 23.836 9.56043 23.4846 8.22824C23.0942 6.89605 22.7428 5.66181 22.4305 4.52553C22.0791 3.38925 21.8058 2.42929 21.6105 1.64565H21.0835C20.3807 1.64565 19.6779 1.60647 18.9751 1.5281C18.2333 1.44974 17.55 1.37137 16.9253 1.29301C16.2616 1.17546 15.5783 1.03832 14.8756 0.881596C14.9536 1.23424 15.0512 1.9591 15.1684 3.0562C15.2465 4.1533 15.3636 5.48549 15.5198 7.05278C15.6759 8.58088 15.8321 10.2853 15.9883 12.166C16.1445 14.0076 16.3006 15.8296 16.4568 17.6319C16.613 19.3951 16.7692 21.08 16.9253 22.6864C17.0425 24.2929 17.1596 25.6643 17.2767 26.8006H16.2225L10.6589 1.5281C9.33138 1.33219 8.02343 1.15587 6.735 0.999142C5.60274 0.842413 4.43143 0.685686 3.22109 0.528959C2.01074 0.37223 0.937042 0.19591 0 0C0.585651 1.64565 1.1713 3.48721 1.75696 5.52467C2.34261 7.52296 2.94778 9.63879 3.57247 11.8722C4.19717 14.1056 4.80235 16.3585 5.388 18.6311C5.93461 20.9036 6.48121 23.0978 7.02782 25.2137C8.27721 30.229 9.48756 35.3814 10.6589 40.671L23.8946 42.9044L21.3177 20.218H22.0205L27.8184 41.5526L40 43.7272Z" fill="#AB1616"/>
<path d="M40 43.7272L44.451 1.99829C46.286 1.91992 48.0039 1.7436 49.6047 1.46933C51.2445 1.15587 52.8648 0.940369 54.4656 0.822824C54.4656 0.862006 54.407 1.27342 54.2899 2.05706C54.1728 2.80152 54.0166 3.80066 53.8214 5.05449C53.6262 6.26913 53.4114 7.6601 53.1772 9.22738C52.9429 10.7555 52.5915 12.8713 52.123 15.5749C51.6935 18.2784 51.1079 22.0203 50.366 26.8006H51.2445C52.2596 23.1958 53.0991 20.2571 53.7628 17.9846C54.4266 15.6728 54.9536 13.8117 55.3441 12.4011C55.7735 10.9514 56.164 9.56043 56.5154 8.22824C56.9058 6.89605 57.2572 5.66181 57.5695 4.52553C57.9209 3.38925 58.1942 2.42929 58.3895 1.64565H58.9165C59.6193 1.64565 60.3221 1.60647 61.0249 1.5281C61.7667 1.44974 62.45 1.37137 63.0747 1.29301C63.7384 1.17546 64.4217 1.03832 65.1245 0.881596C65.0464 1.23424 64.9488 1.9591 64.8316 3.0562C64.7535 4.1533 64.6364 5.48549 64.4802 7.05278C64.3241 8.58088 64.1679 10.2853 64.0117 12.166C63.8555 14.0076 63.6994 15.8296 63.5432 17.6319C63.387 19.3951 63.2308 21.08 63.0747 22.6864C62.9575 24.2929 62.8404 25.6643 62.7233 26.8006H63.7775L69.3411 1.5281C70.6686 1.33219 71.9766 1.15587 73.265 0.999142C74.3973 0.842413 75.5686 0.685686 76.7789 0.528959C77.9893 0.37223 79.063 0.19591 80 0C79.4144 1.64565 78.8287 3.48721 78.243 5.52467C77.6574 7.52296 77.0522 9.63879 76.4275 11.8722C75.8028 14.1056 75.1977 16.3585 74.612 18.6311C74.0654 20.9036 73.5188 23.0978 72.9722 25.2137C71.7228 30.229 70.5125 35.3814 69.3411 40.671L56.1054 42.9044L58.6823 20.218H57.9795L52.1816 41.5526L40 43.7272Z" fill="#AB1616"/>
<path d="M24.8802 58.222L22.8229 50.0412H24.7545L26.366 56.9892L25.966 56.7315H27.0061L26.5604 56.9892L27.8062 50.3438H29.3606L27.7262 58.222H24.8802ZM29.8521 58.222L28.0919 50.3438H29.7263L31.1665 56.9892L30.7321 56.7315H31.7265L31.3493 56.9892L32.7552 50.0412H34.5839L32.7552 58.222H29.8521Z" fill="white"/>
<path d="M34.3342 58.222L37.0887 50.0412H40.1176L42.975 58.222H41.0319L38.7232 51.3075L39.3175 51.5429H37.8431L38.4603 51.3075L36.2087 58.222H34.3342ZM36.4258 56.1936L36.9973 54.6695H40.2662L40.8491 56.1936H36.4258Z" fill="white"/>
<path d="M45.4806 58.2668V56.5522H47.035C47.4236 56.5522 47.7741 56.4961 48.0865 56.3841C48.399 56.2645 48.6656 56.1002 48.8866 55.891C49.1076 55.6743 49.2752 55.4166 49.3895 55.1177C49.5038 54.8114 49.561 54.4752 49.561 54.1092C49.561 53.7281 49.5038 53.3882 49.3895 53.0894C49.2752 52.7905 49.1076 52.5365 48.8866 52.3273C48.6656 52.1181 48.399 51.9613 48.0865 51.8567C47.7741 51.7446 47.4236 51.6886 47.035 51.6886H45.4806V49.974H46.9322C47.6865 49.974 48.3456 50.0823 48.9095 50.299C49.4733 50.5156 49.9457 50.8107 50.3267 51.1843C50.7077 51.5578 50.9896 51.9874 51.1725 52.473C51.363 52.9512 51.4583 53.4555 51.4583 53.9859V54.2324C51.4583 54.7255 51.363 55.2149 51.1725 55.7005C50.9896 56.1786 50.7077 56.6119 50.3267 57.0004C49.9457 57.3815 49.4733 57.6878 48.9095 57.9194C48.3456 58.151 47.6865 58.2668 46.9322 58.2668H45.4806ZM43.8348 58.2668V49.974H45.7092V58.2668H43.8348Z" fill="white"/>
<path d="M52.5355 58.222V50.0412H54.3642V58.222H52.5355ZM54.1356 58.222V56.6979H57.7817V58.222H54.1356ZM54.1356 54.8264V53.3023H57.5188V54.8264H54.1356ZM54.1356 51.5653V50.0412H57.7016V51.5653H54.1356Z" fill="white"/>
<path d="M16.6028 70.7965L14.5455 62.6157H16.477L18.0886 69.5637L17.6886 69.306H18.7287L18.2829 69.5637L19.5287 62.9183H21.0832L19.4487 70.7965H16.6028ZM21.5746 70.7965L19.8145 62.9183H21.4489L22.889 69.5637L22.4547 69.306H23.4491L23.0719 69.5637L24.4777 62.6157H26.3064L24.4777 70.7965H21.5746Z" fill="white"/>
<path d="M26.0568 70.7965L28.8113 62.6157H31.8401L34.6975 70.7965H32.7545L30.4457 63.882L31.0401 64.1174H29.5657L30.1828 63.882L27.9312 70.7965H26.0568ZM28.1484 68.7681L28.7199 67.244H31.9887L32.5716 68.7681H28.1484Z" fill="white"/>
<path d="M35.5573 70.7965V62.5485H37.4318V70.7965H35.5573ZM40.6206 70.7965L38.1747 67.2776H40.232L42.7922 70.7965H40.6206ZM36.9289 68.1741V66.7285H38.9862C39.2605 66.7285 39.4967 66.6762 39.6948 66.5716C39.9005 66.4595 40.0568 66.3064 40.1634 66.1121C40.2777 65.9104 40.3349 65.6788 40.3349 65.4173C40.3349 65.1559 40.2777 64.928 40.1634 64.7337C40.0568 64.532 39.9005 64.3789 39.6948 64.2743C39.4967 64.1622 39.2605 64.1062 38.9862 64.1062H36.9289V62.5485H38.8376C39.531 62.5485 40.1329 62.6531 40.6435 62.8623C41.154 63.064 41.5464 63.3665 41.8207 63.77C42.095 64.1734 42.2322 64.6814 42.2322 65.2941V65.4734C42.2322 66.0785 42.0912 66.5828 41.8093 66.9862C41.535 67.3822 41.1426 67.6811 40.632 67.8828C40.1291 68.077 39.531 68.1741 38.8376 68.1741H36.9289Z" fill="white"/>
<path d="M43.6777 70.7965V62.5485H45.5521V70.7965H43.6777ZM48.7409 70.7965L46.295 67.2776H48.3523L50.9126 70.7965H48.7409ZM45.0492 68.1741V66.7285H47.1065C47.3808 66.7285 47.617 66.6762 47.8151 66.5716C48.0209 66.4595 48.1771 66.3064 48.2838 66.1121C48.398 65.9104 48.4552 65.6788 48.4552 65.4173C48.4552 65.1559 48.398 64.928 48.2838 64.7337C48.1771 64.532 48.0209 64.3789 47.8151 64.2743C47.617 64.1622 47.3808 64.1062 47.1065 64.1062H45.0492V62.5485H46.9579C47.6513 62.5485 48.2533 62.6531 48.7638 62.8623C49.2743 63.064 49.6667 63.3665 49.941 63.77C50.2153 64.1734 50.3525 64.6814 50.3525 65.2941V65.4734C50.3525 66.0785 50.2115 66.5828 49.9296 66.9862C49.6553 67.3822 49.2629 67.6811 48.7524 67.8828C48.2495 68.077 47.6513 68.1741 46.9579 68.1741H45.0492Z" fill="white"/>
<path d="M51.798 70.7965V62.6157H53.6267V70.7965H51.798ZM53.3981 70.7965V69.2724H57.0441V70.7965H53.3981ZM53.3981 67.4009V65.8768H56.7813V67.4009H53.3981ZM53.3981 64.1398V62.6157H56.9641V64.1398H53.3981Z" fill="white"/>
<path d="M58.3557 70.7965V62.6157H61.4302L64.5733 69.306H64.962L64.7334 69.5077V62.6157H66.4935V70.7965H63.3961L60.253 64.1062H59.8644L60.093 63.9045V70.7965H58.3557Z" fill="white"/>
</svg>
