<svg width="58" height="61" viewBox="0 0 58 61" fill="none" xmlns="http://www.w3.org/2000/svg">
<path d="M58 31.8814C53.7977 31.8814 49.6366 31.057 45.7541 29.4546C41.8717 27.8522 38.3441 25.5039 35.3726 22.5434C32.4011 19.5829 30.044 16.0683 28.4359 12.2004C26.8277 8.33257 26 4.18672 26 6.67572e-05L58 6.71374e-05L58 31.8814Z" fill="#FFEED9"/>
<path d="M19.25 15.5V50.5" stroke="#1F1F1F" stroke-width="3" stroke-linecap="round" stroke-linejoin="round"/>
<path d="M47.25 15.5H8.75C7.7835 15.5 7 16.2835 7 17.25V48.75C7 49.7165 7.7835 50.5 8.75 50.5H47.25C48.2165 50.5 49 49.7165 49 48.75V17.25C49 16.2835 48.2165 15.5 47.25 15.5Z" stroke="#1F1F1F" stroke-width="3" stroke-linecap="round" stroke-linejoin="round"/>
</svg>
