<svg width="91" height="28" viewBox="0 0 91 28" fill="none" xmlns="http://www.w3.org/2000/svg">
<path d="M17.2451 21.5937C17.3845 23.2582 16.8212 24.9711 15.5532 26.2504C14.2851 27.5297 12.5772 28.1081 10.9116 27.9834C10.7722 26.3189 11.3355 24.606 12.6035 23.3267C13.8716 22.0474 15.5794 21.469 17.2451 21.5937Z" fill="white"/>
<path d="M14.228 19.2806C12.5656 21.0584 10.1641 22.1241 7.54217 22.0044C4.92054 21.8846 2.62638 20.6047 1.13297 18.6832C2.79533 16.9054 5.19686 15.8397 7.81877 15.9595C10.4404 16.0792 12.7346 17.3591 14.228 19.2806Z" fill="white"/>
<path d="M0.155762 13.5595C0.50302 9.39677 2.60318 5.40649 6.2614 2.77808C9.91948 0.149779 14.3711 -0.567525 18.4269 0.431345C18.0796 4.59404 15.9795 8.58433 12.3213 11.2127C8.66318 13.841 4.21157 14.5583 0.155762 13.5595Z" fill="white"/>
<path d="M67.5885 8.45472V10.9896H69.1094V24.2417H71.8132V10.9896H75.362V8.45472H71.8132V5.8609C71.8132 5.11729 71.8808 4.52028 72.016 4.06957C72.1512 3.61896 72.3314 3.30354 72.5568 3.12321C72.8046 2.92047 73.0976 2.8191 73.4355 2.8191C73.7059 2.8191 73.9876 2.87544 74.2805 2.98802C74.5959 3.07818 74.8663 3.31474 75.0916 3.69781L76.5787 1.46717C76.421 1.24181 76.1957 1.02776 75.9028 0.825024C75.6324 0.622185 75.3057 0.453168 74.9226 0.317975C74.5396 0.182781 74.1002 0.115234 73.6045 0.115234C72.6582 0.115234 71.847 0.317975 71.171 0.723555C70.5176 1.10662 70.0106 1.69242 69.6501 2.48107C69.2896 3.26971 69.1094 4.28361 69.1094 5.52287V8.45472H67.5885Z" fill="white"/>
<path d="M25.1284 3.2869L25.1284 24.2417H37.2957V21.5378H28.0012V3.2869H25.1284Z" fill="white"/>
<path fill-rule="evenodd" clip-rule="evenodd" d="M44.5012 24.5796C46.1686 24.5796 47.6107 24.2529 48.8274 23.5995C50.0667 22.9236 51.0919 21.9321 51.9031 20.6253L49.7061 19.2395C49.1428 20.1859 48.4557 20.8957 47.6445 21.3688C46.8334 21.8194 45.8982 22.0448 44.8393 22.0448C43.7802 22.0448 42.8789 21.8194 42.1354 21.3688C41.3919 20.9182 40.8285 20.2647 40.4455 19.4085C40.1544 18.7579 39.9739 18.003 39.9041 17.1441H52.1396V16.8399C52.1621 16.6596 52.1734 16.4906 52.1734 16.3329C52.1734 14.6881 51.8804 13.2686 51.2946 12.0744C50.7088 10.8801 49.8638 9.96761 48.7598 9.33668C47.6782 8.68332 46.3714 8.3566 44.8393 8.3566C43.3071 8.3566 41.9552 8.69453 40.7835 9.3705C39.6344 10.0465 38.7331 10.9928 38.0796 12.2096C37.4488 13.4263 37.1334 14.8458 37.1334 16.4681C37.1334 18.0679 37.4375 19.4761 38.0459 20.6928C38.6767 21.9096 39.5442 22.8672 40.6483 23.5657C41.7749 24.2417 43.0592 24.5796 44.5012 24.5796ZM40.4793 13.2911C40.2633 13.7485 40.1047 14.2667 40.0034 14.8458H49.2179C49.166 14.1053 48.9794 13.452 48.6584 12.8855C48.2979 12.2096 47.7909 11.6801 47.1375 11.297C46.4841 10.914 45.718 10.7224 44.8393 10.7224C43.8028 10.7224 42.9127 10.9478 42.1692 11.3984C41.4481 11.8265 40.8848 12.4574 40.4793 13.2911Z" fill="white"/>
<path fill-rule="evenodd" clip-rule="evenodd" d="M63.1797 15.7176C62.7547 15.4389 62.214 15.1934 61.5573 14.981C60.8138 14.7106 59.8788 14.5754 58.7521 14.5754C56.8369 14.5754 55.3385 15.0373 54.257 15.9612C53.198 16.8624 52.6685 18.0679 52.6685 19.5776C52.6685 20.6365 52.9164 21.5378 53.412 22.2813C53.9077 23.0249 54.5612 23.5995 55.3724 24.005C56.206 24.3881 57.096 24.5796 58.0424 24.5796C58.8986 24.5796 59.7548 24.4219 60.611 24.1065C61.4898 23.791 62.2221 23.3066 62.8079 22.6532C62.9479 22.5027 63.0718 22.3433 63.1797 22.175V24.2417H65.8835V13.0883C65.8835 12.0744 65.6243 11.2182 65.1062 10.5197C64.6104 9.82121 63.9007 9.29165 62.9769 8.9312C62.0756 8.54813 61.0166 8.3566 59.7998 8.3566C58.3578 8.3566 57.1186 8.57065 56.082 8.99874C55.0681 9.42684 54.2683 9.85494 53.6824 10.283L55.0005 12.2771C55.2484 12.0969 55.5864 11.8828 56.0145 11.635C56.4426 11.3871 56.9609 11.173 57.5692 10.9928C58.2001 10.8126 58.8986 10.7224 59.6647 10.7224C60.1378 10.7224 60.5885 10.7675 61.0166 10.8576C61.4447 10.9478 61.8165 11.0942 62.1319 11.297C62.4699 11.4998 62.729 11.7815 62.9093 12.1419C63.0895 12.4799 63.1797 12.9194 63.1797 13.4601V15.7176ZM55.8117 17.9891C55.5413 18.3946 55.4061 18.8791 55.4061 19.4424C55.4061 20.0282 55.5413 20.5351 55.8117 20.9632C56.1047 21.3913 56.4989 21.718 56.9947 21.9434C57.5128 22.1461 58.0987 22.2476 58.7521 22.2476C59.5858 22.2476 60.3294 22.0786 60.9828 21.7405C61.6588 21.4026 62.1883 20.9294 62.5713 20.3211C62.9769 19.6901 63.1797 18.9691 63.1797 18.158V17.5733C62.7467 17.3626 62.3074 17.1969 61.8615 17.0764C61.0279 16.8287 60.1378 16.7047 59.1915 16.7047C58.3128 16.7047 57.5917 16.8173 57.0284 17.0427C56.4876 17.268 56.082 17.5835 55.8117 17.9891Z" fill="white"/>
<path fill-rule="evenodd" clip-rule="evenodd" d="M87.0944 23.5995C85.8777 24.2529 84.4356 24.5796 82.7682 24.5796C81.3262 24.5796 80.0418 24.2417 78.9152 23.5657C77.8112 22.8672 76.9437 21.9096 76.3129 20.6928C75.7044 19.4761 75.4003 18.0679 75.4003 16.4681C75.4003 14.8458 75.7157 13.4263 76.3466 12.2096C77 10.9928 77.9013 10.0465 79.0504 9.3705C80.2221 8.69453 81.5741 8.3566 83.1062 8.3566C84.6384 8.3566 85.9452 8.68332 87.0268 9.33668C88.1308 9.96761 88.9758 10.8801 89.5616 12.0744C90.1475 13.2686 90.4404 14.6881 90.4404 16.3329C90.4404 16.4906 90.4291 16.6596 90.4066 16.8399V17.1441H78.171C78.2409 18.003 78.4214 18.7579 78.7125 19.4085C79.0956 20.2647 79.6589 20.9182 80.4024 21.3688C81.1459 21.8194 82.0472 22.0448 83.1062 22.0448C84.1652 22.0448 85.1003 21.8194 85.9115 21.3688C86.7226 20.8957 87.4098 20.1859 87.9731 19.2395L90.17 20.6253C89.3589 21.9321 88.3337 22.9236 87.0944 23.5995ZM78.2703 14.8458C78.3717 14.2667 78.5304 13.7485 78.7463 13.2911C79.1518 12.4574 79.7152 11.8265 80.4362 11.3984C81.1797 10.9478 82.0697 10.7224 83.1062 10.7224C83.985 10.7224 84.7511 10.914 85.4044 11.297C86.0579 11.6801 86.5648 12.2096 86.9254 12.8855C87.2464 13.452 87.4329 14.1053 87.4849 14.8458H78.2703Z" fill="white"/>
</svg>
