<svg width="56" height="56" viewBox="0 0 56 56" fill="none" xmlns="http://www.w3.org/2000/svg">
<g clip-path="url(#clip0_726_1872)">
<path d="M58 28.8813C53.7977 28.8813 49.6366 28.0569 45.7541 26.4545C41.8717 24.8522 38.3441 22.5038 35.3726 19.5433C32.4011 16.5828 30.044 13.0682 28.4359 9.20036C26.8277 5.33251 26 1.18666 26 -2.99999L58 -2.99999L58 28.8813Z" fill="#FFEED9"/>
<path d="M9.625 31.3469V11.375C9.625 10.9109 9.80937 10.4658 10.1376 10.1376C10.4658 9.80937 10.9109 9.625 11.375 9.625H44.625C45.0891 9.625 45.5342 9.80937 45.8624 10.1376C46.1906 10.4658 46.375 10.9109 46.375 11.375V44.625C46.375 45.0891 46.1906 45.5342 45.8624 45.8624C45.5342 46.1906 45.0891 46.375 44.625 46.375H29.6625" stroke="#1F1F1F" stroke-width="3" stroke-linecap="round" stroke-linejoin="round"/>
<path d="M28 33.25L14 47.25L7 40.25" stroke="#1F1F1F" stroke-width="3" stroke-linecap="round" stroke-linejoin="round"/>
</g>
<defs>
<clipPath id="clip0_726_1872">
<rect width="56" height="56" fill="white"/>
</clipPath>
</defs>
</svg>
