<svg width="118" height="32" viewBox="0 0 118 32" fill="none" xmlns="http://www.w3.org/2000/svg">
<path fill-rule="evenodd" clip-rule="evenodd" d="M2.79404 5H6.5121C8.06312 5 9.30614 6.26502 9.30614 7.81714V11.5671C9.30614 13.1291 8.06312 14.3831 6.5121 14.3831H2.79404C1.25402 14.3831 0 13.1291 0 11.5671V7.81714C0 6.26502 1.25402 5 2.79404 5ZM2.79404 17.6169H6.5121C8.06312 17.6169 9.30614 18.872 9.30614 20.434V24.184C9.30614 25.735 8.06312 27 6.5121 27H2.79404C1.25402 27 0 25.735 0 24.184V20.434C0 18.872 1.25402 17.6169 2.79404 17.6169ZM19.2061 5H15.488C13.937 5 12.694 6.26502 12.694 7.81714V11.5671C12.694 13.1291 13.937 14.3831 15.488 14.3831H19.2061C20.7461 14.3831 22.0001 13.1291 22.0001 11.5671V7.81714C22.0001 6.26502 20.7461 5 19.2061 5ZM15.488 17.6169H19.2061C20.7461 17.6169 22.0001 18.872 22.0001 20.434V24.184C22.0001 25.735 20.7461 27 19.2061 27H15.488C13.937 27 12.694 25.735 12.694 24.184V20.434C12.694 18.872 13.937 17.6169 15.488 17.6169Z" fill="#FF7316"/>
<path d="M29.584 25V8.61H31.916L40.936 20.754L39.726 20.996V8.61H42.718V25H40.364L31.476 12.768L32.576 12.526V25H29.584ZM51.3246 25.264C50.0926 25.264 49.0146 24.9853 48.0906 24.428C47.1666 23.8707 46.448 23.1153 45.9346 22.162C45.4213 21.2087 45.1646 20.1527 45.1646 18.994C45.1646 17.7913 45.4213 16.728 45.9346 15.804C46.4626 14.8653 47.174 14.1247 48.0686 13.582C48.978 13.0393 49.99 12.768 51.1046 12.768C52.0433 12.768 52.8646 12.922 53.5686 13.23C54.2873 13.538 54.896 13.9633 55.3946 14.506C55.8933 15.0487 56.2746 15.672 56.5386 16.376C56.8026 17.0653 56.9346 17.8133 56.9346 18.62C56.9346 18.8253 56.92 19.038 56.8906 19.258C56.876 19.478 56.8393 19.6687 56.7806 19.83H47.5406V17.63H55.1526L53.7886 18.664C53.9206 17.9893 53.884 17.388 53.6786 16.86C53.488 16.332 53.1653 15.914 52.7106 15.606C52.2706 15.298 51.7353 15.144 51.1046 15.144C50.5033 15.144 49.968 15.298 49.4986 15.606C49.0293 15.8993 48.67 16.3393 48.4206 16.926C48.186 17.498 48.098 18.1947 48.1566 19.016C48.098 19.7493 48.1933 20.402 48.4426 20.974C48.7066 21.5313 49.088 21.964 49.5866 22.272C50.1 22.58 50.6866 22.734 51.3466 22.734C52.0066 22.734 52.564 22.5947 53.0186 22.316C53.488 22.0373 53.8546 21.6633 54.1186 21.194L56.4506 22.338C56.216 22.91 55.8493 23.416 55.3506 23.856C54.852 24.296 54.258 24.6407 53.5686 24.89C52.894 25.1393 52.146 25.264 51.3246 25.264ZM63.6733 25.264C62.3973 25.264 61.2827 24.9633 60.3293 24.362C59.3907 23.746 58.7453 22.9173 58.3933 21.876L60.5493 20.842C60.8573 21.5167 61.2827 22.0447 61.8253 22.426C62.3827 22.8073 62.9987 22.998 63.6733 22.998C64.2013 22.998 64.6193 22.8807 64.9273 22.646C65.2353 22.4113 65.3893 22.1033 65.3893 21.722C65.3893 21.4873 65.3233 21.2967 65.1913 21.15C65.074 20.9887 64.9053 20.8567 64.6853 20.754C64.48 20.6367 64.2527 20.5413 64.0033 20.468L62.0453 19.918C61.0333 19.6247 60.2633 19.1773 59.7353 18.576C59.222 17.9747 58.9653 17.2633 58.9653 16.442C58.9653 15.7087 59.1487 15.0707 59.5153 14.528C59.8967 13.9707 60.4173 13.538 61.0773 13.23C61.752 12.922 62.522 12.768 63.3873 12.768C64.5167 12.768 65.514 13.0393 66.3793 13.582C67.2447 14.1247 67.8607 14.8873 68.2273 15.87L66.0273 16.904C65.822 16.3613 65.4773 15.9287 64.9933 15.606C64.5093 15.2833 63.9667 15.122 63.3653 15.122C62.8813 15.122 62.5 15.232 62.2213 15.452C61.9427 15.672 61.8033 15.958 61.8033 16.31C61.8033 16.53 61.862 16.7207 61.9793 16.882C62.0967 17.0433 62.258 17.1753 62.4633 17.278C62.6833 17.3807 62.9327 17.476 63.2113 17.564L65.1253 18.136C66.108 18.4293 66.8633 18.8693 67.3913 19.456C67.934 20.0427 68.2053 20.7613 68.2053 21.612C68.2053 22.3307 68.0147 22.9687 67.6333 23.526C67.252 24.0687 66.724 24.494 66.0493 24.802C65.3747 25.11 64.5827 25.264 63.6733 25.264ZM75.8761 25.132C74.5268 25.132 73.4781 24.7653 72.7301 24.032C71.9968 23.284 71.6301 22.2353 71.6301 20.886V15.606H69.5621V13.032H69.7821C70.3688 13.032 70.8235 12.878 71.1461 12.57C71.4688 12.262 71.6301 11.8147 71.6301 11.228V10.304H74.5121V13.032H77.2621V15.606H74.5121V20.732C74.5121 21.128 74.5781 21.4653 74.7101 21.744C74.8568 22.0227 75.0768 22.2353 75.3701 22.382C75.6781 22.5287 76.0668 22.602 76.5361 22.602C76.6388 22.602 76.7561 22.5947 76.8881 22.58C77.0348 22.5653 77.1741 22.5507 77.3061 22.536V25C77.1008 25.0293 76.8661 25.0587 76.6021 25.088C76.3381 25.1173 76.0961 25.132 75.8761 25.132ZM79.75 25V8.61H82.082L91.102 20.754L89.892 20.996V8.61H92.884V25H90.53L81.642 12.768L82.742 12.526V25H79.75ZM101.491 25.264C100.259 25.264 99.1807 24.9853 98.2567 24.428C97.3327 23.8707 96.614 23.1153 96.1007 22.162C95.5873 21.2087 95.3307 20.1527 95.3307 18.994C95.3307 17.7913 95.5873 16.728 96.1007 15.804C96.6287 14.8653 97.34 14.1247 98.2347 13.582C99.144 13.0393 100.156 12.768 101.271 12.768C102.209 12.768 103.031 12.922 103.735 13.23C104.453 13.538 105.062 13.9633 105.561 14.506C106.059 15.0487 106.441 15.672 106.705 16.376C106.969 17.0653 107.101 17.8133 107.101 18.62C107.101 18.8253 107.086 19.038 107.057 19.258C107.042 19.478 107.005 19.6687 106.947 19.83H97.7067V17.63H105.319L103.955 18.664C104.087 17.9893 104.05 17.388 103.845 16.86C103.654 16.332 103.331 15.914 102.877 15.606C102.437 15.298 101.901 15.144 101.271 15.144C100.669 15.144 100.134 15.298 99.6647 15.606C99.1953 15.8993 98.836 16.3393 98.5867 16.926C98.352 17.498 98.264 18.1947 98.3227 19.016C98.264 19.7493 98.3593 20.402 98.6087 20.974C98.8727 21.5313 99.254 21.964 99.7527 22.272C100.266 22.58 100.853 22.734 101.513 22.734C102.173 22.734 102.73 22.5947 103.185 22.316C103.654 22.0373 104.021 21.6633 104.285 21.194L106.617 22.338C106.382 22.91 106.015 23.416 105.517 23.856C105.018 24.296 104.424 24.6407 103.735 24.89C103.06 25.1393 102.312 25.264 101.491 25.264ZM114.741 25.132C113.392 25.132 112.343 24.7653 111.595 24.032C110.862 23.284 110.495 22.2353 110.495 20.886V15.606H108.427V13.032H108.647C109.234 13.032 109.689 12.878 110.011 12.57C110.334 12.262 110.495 11.8147 110.495 11.228V10.304H113.377V13.032H116.127V15.606H113.377V20.732C113.377 21.128 113.443 21.4653 113.575 21.744C113.722 22.0227 113.942 22.2353 114.235 22.382C114.543 22.5287 114.932 22.602 115.401 22.602C115.504 22.602 115.621 22.5947 115.753 22.58C115.9 22.5653 116.039 22.5507 116.171 22.536V25C115.966 25.0293 115.731 25.0587 115.467 25.088C115.203 25.1173 114.961 25.132 114.741 25.132Z" fill="#0C0E12"/>
</svg>
