<svg width="58" height="61" viewBox="0 0 58 61" fill="none" xmlns="http://www.w3.org/2000/svg">
<path d="M58 31.8813C53.7977 31.8813 49.6366 31.0569 45.7541 29.4545C41.8717 27.8522 38.3441 25.5038 35.3726 22.5433C32.4011 19.5828 30.044 16.0682 28.4359 12.2004C26.8277 8.33251 26 4.18666 26 5.72205e-06L58 6.10223e-06L58 31.8813Z" fill="#FFEED9"/>
<path d="M28 33V12" stroke="#1F1F1F" stroke-width="3" stroke-linecap="round" stroke-linejoin="round"/>
<path d="M46.178 22.5L9.82178 43.5" stroke="#1F1F1F" stroke-width="3" stroke-linecap="round" stroke-linejoin="round"/>
<path d="M7.34997 36.85C7.11123 35.5807 6.99403 34.2915 6.99997 33C6.99721 28.6569 8.34248 24.42 10.8501 20.8741C13.3578 17.3281 16.9042 14.6478 21 13.2031V28.9531L7.34997 36.85Z" stroke="#1F1F1F" stroke-width="3" stroke-linecap="round" stroke-linejoin="round"/>
<path d="M27.9999 12C31.6797 12.0004 35.2947 12.9677 38.4829 14.805C41.6711 16.6423 44.3206 19.2851 46.166 22.4687C48.0113 25.6522 48.9878 29.2648 48.9975 32.9445C49.0072 36.6243 48.0499 40.2419 46.2214 43.4352C44.3928 46.6285 41.7574 49.2852 38.5789 51.1393C35.4004 52.9935 31.7906 53.9798 28.1109 53.9997C24.4312 54.0195 20.8109 53.0722 17.6126 51.2525C14.4143 49.4328 11.7503 46.8046 9.88745 43.6313" stroke="#1F1F1F" stroke-width="4" stroke-linecap="round" stroke-linejoin="round"/>
</svg>
