<svg width="61" height="64" viewBox="0 0 61 64" fill="none" xmlns="http://www.w3.org/2000/svg">
<path d="M45 1.39876e-06C36.1634 2.17128e-06 29 7.13688 29 15.9407L29 31.8813L45 31.8813C53.8366 31.8813 61 24.7444 61 15.9407C61 7.13688 53.8366 6.26248e-07 45 1.39876e-06Z" fill="#D4E2FC"/>
<path d="M26.7535 23.6188L31.0848 19.2875C32.9186 17.6161 35.3259 16.7155 37.8064 16.773C40.287 16.8304 42.65 17.8414 44.4045 19.5959C46.159 21.3504 47.17 23.7134 47.2274 26.194C47.2849 28.6745 46.3843 31.0818 44.7129 32.9156L38.5223 39.0844C37.6301 39.9799 36.5698 40.6905 35.4024 41.1754C34.2349 41.6602 32.9833 41.9098 31.7191 41.9098C30.455 41.9098 29.2033 41.6602 28.0359 41.1754C26.8684 40.6905 25.8082 39.9799 24.916 39.0844" stroke="#1F1F1F" stroke-width="3" stroke-linecap="round" stroke-linejoin="round"/>
<path d="M29.247 48.3812L24.9158 52.7125C23.082 54.3839 20.6747 55.2845 18.1941 55.227C15.7136 55.1696 13.3505 54.1586 11.596 52.4041C9.84153 50.6496 8.83052 48.2866 8.77309 45.806C8.71567 43.3255 9.61623 40.9182 11.2876 39.0844L17.4783 32.9156C18.3705 32.0201 19.4307 31.3095 20.5981 30.8246C21.7656 30.3398 23.0173 30.0902 24.2814 30.0902C25.5455 30.0902 26.7972 30.3398 27.9647 30.8246C29.1321 31.3095 30.1923 32.0201 31.0845 32.9156" stroke="#1F1F1F" stroke-width="3" stroke-linecap="round" stroke-linejoin="round"/>
</svg>
