<svg width="64" height="56" viewBox="0 0 64 56" fill="none" xmlns="http://www.w3.org/2000/svg">
<path d="M48 18.8967C39.1634 18.8967 32 11.7598 32 2.95605L64 2.95605C64 11.7598 56.8366 18.8967 48 18.8967Z" fill="#FBE0E0"/>
<path d="M16.9313 44.1656L9.86562 50.0719C9.61067 50.2829 9.30113 50.4172 8.9729 50.4594C8.64467 50.5015 8.31122 50.4498 8.01122 50.3101C7.71123 50.1704 7.45699 49.9485 7.278 49.6701C7.09902 49.3918 7.00262 49.0684 7 48.7375V14C7 13.5359 7.18437 13.0908 7.51256 12.7626C7.84075 12.4344 8.28587 12.25 8.75 12.25H47.25C47.7141 12.25 48.1592 12.4344 48.4874 12.7626C48.8156 13.0908 49 13.5359 49 14V42C49 42.4641 48.8156 42.9093 48.4874 43.2374C48.1592 43.5656 47.7141 43.75 47.25 43.75H18.0469C17.6372 43.7501 17.2412 43.8976 16.9313 44.1656V44.1656Z" stroke="black" stroke-width="3" stroke-linecap="round" stroke-linejoin="round"/>
<path d="M28 30.625C29.4497 30.625 30.625 29.4497 30.625 28C30.625 26.5503 29.4497 25.375 28 25.375C26.5503 25.375 25.375 26.5503 25.375 28C25.375 29.4497 26.5503 30.625 28 30.625Z" fill="black"/>
<path d="M17.5 30.625C18.9497 30.625 20.125 29.4497 20.125 28C20.125 26.5503 18.9497 25.375 17.5 25.375C16.0503 25.375 14.875 26.5503 14.875 28C14.875 29.4497 16.0503 30.625 17.5 30.625Z" fill="black"/>
<path d="M38.5 30.625C39.9497 30.625 41.125 29.4497 41.125 28C41.125 26.5503 39.9497 25.375 38.5 25.375C37.0503 25.375 35.875 26.5503 35.875 28C35.875 29.4497 37.0503 30.625 38.5 30.625Z" fill="black"/>
</svg>
