<svg width="136" height="24" viewBox="0 0 136 24" fill="none" xmlns="http://www.w3.org/2000/svg">
<mask id="path-1-outside-1_1706_4926" maskUnits="userSpaceOnUse" x="0" y="-0.311996" width="136" height="24" fill="black">
<rect fill="white" y="-0.311996" width="136" height="24"/>
<path d="M7.48096 2.04117C10.3139 2.04117 12.4188 2.75336 13.7957 4.17775C15.1726 5.58631 15.8611 7.6121 15.8611 10.2551C15.8611 11.9802 15.5208 13.4917 14.8403 14.7894C14.1756 16.0714 13.2022 17.0684 11.9203 17.7806C10.6383 18.4928 9.08735 18.8489 7.2673 18.8489C7.0299 18.8489 6.71337 18.841 6.31771 18.8252C5.92205 18.8094 5.51056 18.8014 5.08324 18.8014C4.67175 18.7856 4.29191 18.7777 3.94373 18.7777C3.3898 18.7777 2.84379 18.7856 2.30569 18.8014C1.76759 18.8014 1.33236 18.8173 1 18.8489V18.3741C1.5381 18.3425 1.94168 18.2792 2.21073 18.1842C2.49561 18.0893 2.68552 17.8993 2.78048 17.6145C2.87544 17.3296 2.92292 16.9023 2.92292 16.3325V4.55759C2.92292 3.972 2.87544 3.54469 2.78048 3.27564C2.68552 2.99076 2.49561 2.80084 2.21073 2.70588C1.94168 2.5951 1.5381 2.53179 1 2.51597V2.04117C1.33236 2.057 1.76759 2.08074 2.30569 2.11239C2.84379 2.12822 3.37398 2.12822 3.89625 2.11239C4.45018 2.09656 5.07533 2.08074 5.77169 2.06491C6.46806 2.04908 7.03781 2.04117 7.48096 2.04117ZM6.88746 2.46849C6.15944 2.46849 5.68465 2.60301 5.46308 2.87206C5.24151 3.14111 5.13072 3.68713 5.13072 4.51011V16.38C5.13072 17.203 5.24151 17.749 5.46308 18.018C5.70047 18.2871 6.18318 18.4216 6.9112 18.4216C8.63629 18.4216 9.97363 18.113 10.9232 17.4958C11.8728 16.8627 12.5375 15.9448 12.9174 14.7419C13.2972 13.5391 13.4871 12.0752 13.4871 10.3501C13.4871 8.57752 13.2735 7.11357 12.8461 5.95823C12.4347 4.78707 11.7462 3.91661 10.7808 3.34686C9.83119 2.76128 8.53342 2.46849 6.88746 2.46849Z"/>
<path d="M21.1022 19.0151C20.4533 19.0151 19.8915 18.8964 19.4167 18.659C18.9419 18.4058 18.5779 18.0576 18.3247 17.6145C18.0873 17.1713 17.9686 16.657 17.9686 16.0714C17.9686 15.375 18.1268 14.8053 18.4433 14.3621C18.7757 13.919 19.1951 13.5629 19.7016 13.2938C20.208 13.0248 20.7382 12.8032 21.2921 12.6291C21.8619 12.4392 22.4 12.2651 22.9064 12.1068C23.4129 11.9327 23.8244 11.7349 24.1409 11.5133C24.4733 11.2918 24.6394 10.999 24.6394 10.635V9.1631C24.6394 8.49839 24.5366 7.99194 24.3308 7.64376C24.1409 7.29557 23.8798 7.06609 23.5474 6.9553C23.215 6.82869 22.8431 6.76538 22.4316 6.76538C22.036 6.76538 21.6087 6.82078 21.1497 6.93156C20.7065 7.04235 20.3504 7.27183 20.0814 7.62002C20.3821 7.68332 20.6432 7.84159 20.8648 8.09481C21.0864 8.34804 21.1972 8.67248 21.1972 9.06814C21.1972 9.4638 21.0706 9.78034 20.8173 10.0177C20.5641 10.2393 20.2397 10.3501 19.844 10.3501C19.385 10.3501 19.0448 10.2077 18.8232 9.92277C18.6174 9.62207 18.5146 9.28971 18.5146 8.9257C18.5146 8.51421 18.6174 8.18186 18.8232 7.92863C19.0289 7.67541 19.2901 7.43801 19.6066 7.21644C19.9706 6.96322 20.4375 6.74956 21.0072 6.57547C21.5928 6.38555 22.2496 6.29059 22.9776 6.29059C23.6265 6.29059 24.1805 6.36972 24.6394 6.52799C25.0984 6.67042 25.4782 6.88408 25.7789 7.16896C26.1904 7.5488 26.4595 8.01568 26.5861 8.56961C26.7127 9.10771 26.776 9.7566 26.776 10.5163V17.1159C26.776 17.5116 26.8314 17.7965 26.9422 17.9706C27.0688 18.1446 27.2587 18.2317 27.5119 18.2317C27.686 18.2317 27.8522 18.1921 28.0105 18.113C28.1687 18.0339 28.3587 17.9072 28.5802 17.7332L28.8414 18.1367C28.509 18.39 28.1925 18.6036 27.8918 18.7777C27.5911 18.936 27.1875 19.0151 26.681 19.0151C26.2221 19.0151 25.8422 18.936 25.5415 18.7777C25.2408 18.6194 25.0114 18.39 24.8531 18.0893C24.7106 17.7727 24.6394 17.3771 24.6394 16.9023C24.2121 17.6145 23.6978 18.1446 23.0963 18.4928C22.5108 18.841 21.8461 19.0151 21.1022 19.0151ZM21.9568 18.0655C22.4791 18.0655 22.9618 17.9152 23.405 17.6145C23.8639 17.3138 24.2754 16.8627 24.6394 16.2613V11.6083C24.4495 11.8773 24.1726 12.1068 23.8085 12.2968C23.4445 12.4708 23.0489 12.6528 22.6215 12.8428C22.1942 13.0169 21.7827 13.2305 21.3871 13.4837C21.0072 13.7211 20.6907 14.0377 20.4375 14.4333C20.1843 14.829 20.0577 15.3434 20.0577 15.9764C20.0577 16.6095 20.2238 17.1159 20.5562 17.4958C20.9044 17.8756 21.3713 18.0655 21.9568 18.0655Z"/>
<path d="M37.5312 6.29059C38.1326 6.29059 38.6312 6.36972 39.0268 6.52799C39.4383 6.68625 39.7786 6.90782 40.0476 7.1927C40.3484 7.50923 40.562 7.90489 40.6886 8.37969C40.8152 8.85448 40.8785 9.49546 40.8785 10.3026V16.6411C40.8785 17.3058 41.0131 17.7569 41.2821 17.9943C41.567 18.2317 42.0339 18.3504 42.6828 18.3504V18.8489C42.4137 18.8331 42.0022 18.8173 41.4483 18.8014C40.8944 18.7698 40.3563 18.754 39.834 18.754C39.3117 18.754 38.7974 18.7698 38.2909 18.8014C37.8003 18.8173 37.4284 18.8331 37.1751 18.8489V18.3504C37.7449 18.3504 38.1485 18.2317 38.3859 17.9943C38.6233 17.7569 38.742 17.3058 38.742 16.6411V9.78033C38.742 9.28971 38.7024 8.83866 38.6233 8.42717C38.5441 8.01568 38.3621 7.68332 38.0772 7.4301C37.8082 7.17687 37.3888 7.05026 36.819 7.05026C36.1543 7.05026 35.5687 7.24018 35.0623 7.62002C34.5717 7.99985 34.1839 8.52213 33.8991 9.18684C33.63 9.83573 33.4955 10.5637 33.4955 11.3709V16.6411C33.4955 17.3058 33.6142 17.7569 33.8516 17.9943C34.089 18.2317 34.4925 18.3504 35.0623 18.3504V18.8489C34.8091 18.8331 34.4292 18.8173 33.9228 18.8014C33.4322 18.7698 32.9257 18.754 32.4034 18.754C31.8812 18.754 31.3431 18.7698 30.7891 18.8014C30.2352 18.8173 29.8237 18.8331 29.5547 18.8489V18.3504C30.2036 18.3504 30.6625 18.2317 30.9316 17.9943C31.2165 17.7569 31.3589 17.3058 31.3589 16.6411V9.21058C31.3589 8.49839 31.2323 7.97611 30.9791 7.64376C30.7258 7.29557 30.251 7.12148 29.5547 7.12148V6.62295C30.0611 6.67043 30.5517 6.69417 31.0265 6.69417C31.4855 6.69417 31.9207 6.67043 32.3322 6.62295C32.7595 6.55964 33.1473 6.47259 33.4955 6.36181V9.1631C33.907 8.0869 34.4767 7.34305 35.2047 6.93156C35.9486 6.50425 36.7241 6.29059 37.5312 6.29059Z"/>
<path d="M49.6547 6.29059C50.1611 6.29059 50.6517 6.35389 51.1265 6.48051C51.6013 6.60712 52.0286 6.79704 52.4085 7.05026C52.7725 7.28766 53.0494 7.56462 53.2394 7.88115C53.4293 8.18186 53.5242 8.51421 53.5242 8.87822C53.5242 9.30554 53.4055 9.6379 53.1681 9.87529C52.9307 10.0969 52.63 10.2077 52.266 10.2077C51.9178 10.2077 51.6092 10.1048 51.3402 9.89903C51.0869 9.69329 50.9603 9.4005 50.9603 9.02066C50.9603 8.65665 51.0553 8.36386 51.2452 8.14229C51.451 7.92072 51.6884 7.77828 51.9574 7.71498C51.7991 7.4301 51.5143 7.1927 51.1028 7.00278C50.7071 6.81286 50.2798 6.7179 49.8208 6.7179C49.4252 6.7179 49.0295 6.81286 48.6338 7.00278C48.2382 7.1927 47.8742 7.50923 47.5418 7.95237C47.2095 8.37969 46.9404 8.97318 46.7347 9.73286C46.5289 10.4767 46.426 11.4105 46.426 12.5341C46.426 13.9269 46.5843 15.0347 46.9008 15.8577C47.2174 16.6807 47.6289 17.2742 48.1353 17.6382C48.6576 17.9864 49.2273 18.1605 49.8446 18.1605C50.2561 18.1605 50.6755 18.0813 51.1028 17.9231C51.5301 17.7648 51.9337 17.5116 52.3135 17.1634C52.6933 16.7994 53.0178 16.3167 53.2868 15.7153L53.7379 15.8815C53.5796 16.3879 53.3185 16.9023 52.9545 17.4245C52.5905 17.931 52.1157 18.3504 51.5301 18.6827C50.9445 19.0151 50.2244 19.1813 49.3698 19.1813C48.3885 19.1813 47.5022 18.9281 46.7109 18.4216C45.9196 17.9152 45.2865 17.1951 44.8117 16.2613C44.3528 15.3117 44.1233 14.188 44.1233 12.8902C44.1233 11.5925 44.3528 10.453 44.8117 9.47172C45.2865 8.47465 45.9433 7.69915 46.7821 7.14522C47.6209 6.57547 48.5784 6.29059 49.6547 6.29059Z"/>
<path d="M57.9714 0.688004C58.3829 0.688004 58.7389 0.838355 59.0396 1.13906C59.3404 1.43976 59.4907 1.79586 59.4907 2.20735C59.4907 2.61884 59.3404 2.97494 59.0396 3.27564C58.7389 3.57634 58.3829 3.72669 57.9714 3.72669C57.5599 3.72669 57.2038 3.57634 56.9031 3.27564C56.6024 2.97494 56.452 2.61884 56.452 2.20735C56.452 1.79586 56.6024 1.43976 56.9031 1.13906C57.2038 0.838355 57.5599 0.688004 57.9714 0.688004ZM59.2058 6.36181V16.6411C59.2058 17.3058 59.3404 17.7569 59.6094 17.9943C59.8943 18.2317 60.3612 18.3504 61.01 18.3504V18.8489C60.741 18.8331 60.3295 18.8173 59.7756 18.8014C59.2375 18.7698 58.6915 18.754 58.1375 18.754C57.5994 18.754 57.0534 18.7698 56.4995 18.8014C55.9456 18.8173 55.5341 18.8331 55.265 18.8489V18.3504C55.9139 18.3504 56.3729 18.2317 56.6419 17.9943C56.9268 17.7569 57.0692 17.3058 57.0692 16.6411V9.21058C57.0692 8.49839 56.9426 7.97611 56.6894 7.64376C56.4362 7.29557 55.9614 7.12148 55.265 7.12148V6.62295C55.7715 6.67043 56.2621 6.69417 56.7369 6.69417C57.1959 6.69417 57.6311 6.67043 58.0426 6.62295C58.4699 6.55964 58.8576 6.47259 59.2058 6.36181Z"/>
<path d="M70.1966 6.29059C70.798 6.29059 71.2965 6.36972 71.6922 6.52799C72.1037 6.68625 72.444 6.90782 72.713 7.1927C73.0137 7.50923 73.2274 7.90489 73.354 8.37969C73.4806 8.85448 73.5439 9.49546 73.5439 10.3026V16.6411C73.5439 17.3058 73.6784 17.7569 73.9475 17.9943C74.2324 18.2317 74.6992 18.3504 75.3481 18.3504V18.8489C75.0791 18.8331 74.6676 18.8173 74.1137 18.8014C73.5597 18.7698 73.0216 18.754 72.4994 18.754C71.9771 18.754 71.4627 18.7698 70.9563 18.8014C70.4657 18.8173 70.0937 18.8331 69.8405 18.8489V18.3504C70.4103 18.3504 70.8138 18.2317 71.0512 17.9943C71.2886 17.7569 71.4073 17.3058 71.4073 16.6411V9.78033C71.4073 9.28971 71.3678 8.83866 71.2886 8.42717C71.2095 8.01568 71.0275 7.68332 70.7426 7.4301C70.4736 7.17687 70.0542 7.05026 69.4844 7.05026C68.8197 7.05026 68.2341 7.24018 67.7277 7.62002C67.237 7.99985 66.8493 8.52213 66.5644 9.18684C66.2954 9.83573 66.1608 10.5637 66.1608 11.3709V16.6411C66.1608 17.3058 66.2795 17.7569 66.5169 17.9943C66.7543 18.2317 67.1579 18.3504 67.7277 18.3504V18.8489C67.4744 18.8331 67.0946 18.8173 66.5882 18.8014C66.0975 18.7698 65.5911 18.754 65.0688 18.754C64.5465 18.754 64.0084 18.7698 63.4545 18.8014C62.9006 18.8173 62.4891 18.8331 62.22 18.8489V18.3504C62.8689 18.3504 63.3279 18.2317 63.5969 17.9943C63.8818 17.7569 64.0243 17.3058 64.0243 16.6411V9.21058C64.0243 8.49839 63.8976 7.97611 63.6444 7.64376C63.3912 7.29557 62.9164 7.12148 62.22 7.12148V6.62295C62.7265 6.67043 63.2171 6.69417 63.6919 6.69417C64.1509 6.69417 64.5861 6.67043 64.9976 6.62295C65.4249 6.55964 65.8127 6.47259 66.1608 6.36181V9.1631C66.5723 8.0869 67.1421 7.34305 67.8701 6.93156C68.6139 6.50425 69.3894 6.29059 70.1966 6.29059Z"/>
<path d="M80.5214 23.312C79.6826 23.312 78.8912 23.225 78.1474 23.0509C77.4035 22.8768 76.8021 22.5998 76.3432 22.22C75.9 21.856 75.6784 21.3891 75.6784 20.8193C75.6784 20.2654 75.9 19.7906 76.3432 19.3949C76.7863 18.9993 77.3877 18.6986 78.1474 18.4928L78.2898 18.8727C77.9416 18.9835 77.6647 19.205 77.4589 19.5374C77.2532 19.8697 77.1503 20.2417 77.1503 20.6531C77.1503 21.3812 77.4827 21.9351 78.1474 22.3149C78.8279 22.7106 79.7063 22.9084 80.7825 22.9084C81.4947 22.9084 82.1911 22.8135 82.8716 22.6236C83.5521 22.4495 84.114 22.1488 84.5571 21.7214C85.0003 21.2941 85.2218 20.7323 85.2218 20.0359C85.2218 19.5136 85.0319 19.0863 84.6521 18.754C84.2881 18.4058 83.5601 18.2317 82.468 18.2317H80.7113C80.2048 18.2317 79.7142 18.1921 79.2394 18.113C78.7646 18.0339 78.3769 17.8677 78.0762 17.6145C77.7755 17.3612 77.6251 16.9735 77.6251 16.4512C77.6251 15.9131 77.8467 15.3987 78.2898 14.9081C78.733 14.4017 79.548 13.8873 80.735 13.365L81.0199 13.5787C80.4818 13.8636 80.0149 14.1564 79.6192 14.4571C79.2236 14.7419 79.0258 15.0822 79.0258 15.4779C79.0258 15.9843 79.4056 16.2376 80.1653 16.2376H83.1327C83.7974 16.2376 84.4068 16.3325 84.9607 16.5224C85.5304 16.7123 85.9894 17.0131 86.3376 17.4245C86.6858 17.836 86.8599 18.3741 86.8599 19.0388C86.8599 19.7827 86.6225 20.4791 86.1477 21.1279C85.6729 21.7768 84.9607 22.2991 84.0111 22.6948C83.0773 23.1063 81.9141 23.312 80.5214 23.312ZM80.6401 13.7924C79.8646 13.7924 79.1603 13.6657 78.5272 13.4125C77.8942 13.1435 77.3956 12.732 77.0316 12.1781C76.6676 11.6241 76.4856 10.9119 76.4856 10.0415C76.4856 9.17101 76.6676 8.45882 77.0316 7.90489C77.3956 7.35097 77.8942 6.94739 78.5272 6.69417C79.1603 6.42511 79.8646 6.29059 80.6401 6.29059C81.4314 6.29059 82.1357 6.42511 82.7529 6.69417C83.386 6.94739 83.8845 7.35097 84.2485 7.90489C84.6125 8.45882 84.7945 9.17101 84.7945 10.0415C84.7945 10.9119 84.6125 11.6241 84.2485 12.1781C83.8845 12.732 83.386 13.1435 82.7529 13.4125C82.1357 13.6657 81.4314 13.7924 80.6401 13.7924ZM80.6401 13.365C81.2415 13.365 81.7083 13.1276 82.0407 12.6528C82.3889 12.1781 82.563 11.3076 82.563 10.0415C82.563 8.77535 82.3889 7.90489 82.0407 7.4301C81.7083 6.9553 81.2415 6.7179 80.6401 6.7179C80.0545 6.7179 79.5876 6.9553 79.2394 7.4301C78.8912 7.90489 78.7171 8.77535 78.7171 10.0415C78.7171 11.3076 78.8912 12.1781 79.2394 12.6528C79.5876 13.1276 80.0545 13.365 80.6401 13.365ZM84.0586 8.26099L83.6313 8.09481C83.8528 7.55671 84.2327 7.08191 84.7708 6.67043C85.3089 6.25894 85.8707 6.05319 86.4563 6.05319C86.8678 6.05319 87.2001 6.17189 87.4534 6.40929C87.7066 6.63086 87.8332 6.97113 87.8332 7.4301C87.8332 7.92072 87.6987 8.2689 87.4296 8.47465C87.1764 8.66457 86.9153 8.75953 86.6462 8.75953C86.4088 8.75953 86.1872 8.68039 85.9815 8.52213C85.7758 8.34803 85.6571 8.07899 85.6254 7.71498C85.5938 7.35097 85.7045 6.88408 85.9578 6.31433L86.2664 6.38555C85.6017 6.63877 85.1269 6.90782 84.842 7.1927C84.5571 7.46175 84.296 7.81785 84.0586 8.26099Z"/>
<path d="M103.913 2.04117V2.51597C103.375 2.53179 102.963 2.61092 102.678 2.75336C102.409 2.8958 102.227 3.12529 102.132 3.44182C102.037 3.75835 101.99 4.2094 101.99 4.79498V18.9676C101.895 18.9676 101.8 18.9676 101.705 18.9676C101.626 18.9676 101.539 18.9676 101.444 18.9676L91.473 3.56052V16.0951C91.473 16.6649 91.5205 17.1159 91.6154 17.4483C91.7262 17.7648 91.932 17.9943 92.2327 18.1367C92.5492 18.2633 93.0161 18.3425 93.6333 18.3741V18.8489C93.3484 18.8173 92.9765 18.8014 92.5175 18.8014C92.0586 18.7856 91.6233 18.7777 91.2119 18.7777C90.8162 18.7777 90.4126 18.7856 90.0011 18.8014C89.6055 18.8014 89.2731 18.8173 89.0041 18.8489V18.3741C89.5422 18.3425 89.9457 18.2633 90.2148 18.1367C90.4997 17.9943 90.6896 17.7648 90.7845 17.4483C90.8795 17.1159 90.927 16.6649 90.927 16.0951V4.55759C90.927 3.972 90.8795 3.54469 90.7845 3.27564C90.6896 2.99076 90.4997 2.80084 90.2148 2.70588C89.9457 2.5951 89.5422 2.53179 89.0041 2.51597V2.04117C89.2731 2.057 89.6055 2.07282 90.0011 2.08865C90.4126 2.10448 90.8162 2.11239 91.2119 2.11239C91.56 2.11239 91.8924 2.10448 92.2089 2.08865C92.5255 2.07282 92.8103 2.057 93.0636 2.04117L101.444 14.9556V4.79498C101.444 4.2094 101.388 3.75835 101.278 3.44182C101.183 3.12529 100.977 2.8958 100.66 2.75336C100.36 2.61092 99.9006 2.53179 99.2834 2.51597V2.04117C99.5683 2.057 99.9402 2.07282 100.399 2.08865C100.874 2.10448 101.309 2.11239 101.705 2.11239C102.116 2.11239 102.52 2.10448 102.916 2.08865C103.327 2.07282 103.659 2.057 103.913 2.04117Z"/>
<path d="M110.856 6.29059C111.869 6.29059 112.779 6.51216 113.586 6.9553C114.393 7.39844 115.034 8.09481 115.509 9.0444C116 9.99399 116.245 11.2285 116.245 12.7478C116.245 14.2672 116 15.5016 115.509 16.4512C115.034 17.385 114.393 18.0734 113.586 18.5166C112.779 18.9597 111.869 19.1813 110.856 19.1813C109.859 19.1813 108.949 18.9597 108.126 18.5166C107.319 18.0734 106.67 17.385 106.179 16.4512C105.704 15.5016 105.467 14.2672 105.467 12.7478C105.467 11.2285 105.704 9.99399 106.179 9.0444C106.67 8.09481 107.319 7.39844 108.126 6.9553C108.949 6.51216 109.859 6.29059 110.856 6.29059ZM110.856 6.76538C109.954 6.76538 109.21 7.23227 108.624 8.16603C108.055 9.09979 107.77 10.6271 107.77 12.7478C107.77 14.8686 108.055 16.3958 108.624 17.3296C109.21 18.2475 109.954 18.7065 110.856 18.7065C111.758 18.7065 112.494 18.2475 113.064 17.3296C113.649 16.3958 113.942 14.8686 113.942 12.7478C113.942 10.6271 113.649 9.09979 113.064 8.16603C112.494 7.23227 111.758 6.76538 110.856 6.76538Z"/>
<path d="M122.37 6.62295V7.12148C121.974 7.12148 121.626 7.15313 121.326 7.21644C121.025 7.26392 120.827 7.42218 120.732 7.69124C120.637 7.96029 120.708 8.43508 120.946 9.11562L123.415 16.1901L123.248 16.1663L126.738 6.52799L127.213 6.7179L122.869 18.9676C122.805 18.9676 122.742 18.9676 122.679 18.9676C122.615 18.9676 122.544 18.9676 122.465 18.9676L118.572 8.45091C118.319 7.81785 118.065 7.43801 117.812 7.3114C117.575 7.18479 117.369 7.12148 117.195 7.12148V6.62295C117.511 6.67043 117.836 6.70999 118.168 6.74164C118.516 6.75747 118.888 6.76538 119.284 6.76538C119.775 6.76538 120.289 6.74956 120.827 6.7179C121.381 6.68625 121.895 6.6546 122.37 6.62295ZM135.403 6.62295V7.09774C135.103 7.12939 134.818 7.26392 134.549 7.50132C134.295 7.72289 134.066 8.14229 133.86 8.75953L130.418 18.9676C130.355 18.9676 130.291 18.9676 130.228 18.9676C130.165 18.9676 130.093 18.9676 130.014 18.9676L126.192 9.25806L126.738 6.52799C126.833 6.52799 126.92 6.52799 126.999 6.52799C127.094 6.52799 127.189 6.52799 127.284 6.52799L130.988 16.3325L130.798 16.4749L133.148 9.32928C133.322 8.79118 133.385 8.37178 133.338 8.07107C133.306 7.75454 133.148 7.52506 132.863 7.38262C132.594 7.22435 132.175 7.12939 131.605 7.09774V6.62295C131.89 6.63877 132.135 6.6546 132.341 6.67043C132.547 6.67043 132.744 6.67834 132.934 6.69417C133.14 6.69417 133.362 6.69417 133.599 6.69417C133.963 6.69417 134.287 6.68625 134.572 6.67043C134.873 6.6546 135.15 6.63877 135.403 6.62295Z"/>
</mask>
<path d="M7.48096 2.04117C10.3139 2.04117 12.4188 2.75336 13.7957 4.17775C15.1726 5.58631 15.8611 7.6121 15.8611 10.2551C15.8611 11.9802 15.5208 13.4917 14.8403 14.7894C14.1756 16.0714 13.2022 17.0684 11.9203 17.7806C10.6383 18.4928 9.08735 18.8489 7.2673 18.8489C7.0299 18.8489 6.71337 18.841 6.31771 18.8252C5.92205 18.8094 5.51056 18.8014 5.08324 18.8014C4.67175 18.7856 4.29191 18.7777 3.94373 18.7777C3.3898 18.7777 2.84379 18.7856 2.30569 18.8014C1.76759 18.8014 1.33236 18.8173 1 18.8489V18.3741C1.5381 18.3425 1.94168 18.2792 2.21073 18.1842C2.49561 18.0893 2.68552 17.8993 2.78048 17.6145C2.87544 17.3296 2.92292 16.9023 2.92292 16.3325V4.55759C2.92292 3.972 2.87544 3.54469 2.78048 3.27564C2.68552 2.99076 2.49561 2.80084 2.21073 2.70588C1.94168 2.5951 1.5381 2.53179 1 2.51597V2.04117C1.33236 2.057 1.76759 2.08074 2.30569 2.11239C2.84379 2.12822 3.37398 2.12822 3.89625 2.11239C4.45018 2.09656 5.07533 2.08074 5.77169 2.06491C6.46806 2.04908 7.03781 2.04117 7.48096 2.04117ZM6.88746 2.46849C6.15944 2.46849 5.68465 2.60301 5.46308 2.87206C5.24151 3.14111 5.13072 3.68713 5.13072 4.51011V16.38C5.13072 17.203 5.24151 17.749 5.46308 18.018C5.70047 18.2871 6.18318 18.4216 6.9112 18.4216C8.63629 18.4216 9.97363 18.113 10.9232 17.4958C11.8728 16.8627 12.5375 15.9448 12.9174 14.7419C13.2972 13.5391 13.4871 12.0752 13.4871 10.3501C13.4871 8.57752 13.2735 7.11357 12.8461 5.95823C12.4347 4.78707 11.7462 3.91661 10.7808 3.34686C9.83119 2.76128 8.53342 2.46849 6.88746 2.46849Z" fill="#D25C33"/>
<path d="M21.1022 19.0151C20.4533 19.0151 19.8915 18.8964 19.4167 18.659C18.9419 18.4058 18.5779 18.0576 18.3247 17.6145C18.0873 17.1713 17.9686 16.657 17.9686 16.0714C17.9686 15.375 18.1268 14.8053 18.4433 14.3621C18.7757 13.919 19.1951 13.5629 19.7016 13.2938C20.208 13.0248 20.7382 12.8032 21.2921 12.6291C21.8619 12.4392 22.4 12.2651 22.9064 12.1068C23.4129 11.9327 23.8244 11.7349 24.1409 11.5133C24.4733 11.2918 24.6394 10.999 24.6394 10.635V9.1631C24.6394 8.49839 24.5366 7.99194 24.3308 7.64376C24.1409 7.29557 23.8798 7.06609 23.5474 6.9553C23.215 6.82869 22.8431 6.76538 22.4316 6.76538C22.036 6.76538 21.6087 6.82078 21.1497 6.93156C20.7065 7.04235 20.3504 7.27183 20.0814 7.62002C20.3821 7.68332 20.6432 7.84159 20.8648 8.09481C21.0864 8.34804 21.1972 8.67248 21.1972 9.06814C21.1972 9.4638 21.0706 9.78034 20.8173 10.0177C20.5641 10.2393 20.2397 10.3501 19.844 10.3501C19.385 10.3501 19.0448 10.2077 18.8232 9.92277C18.6174 9.62207 18.5146 9.28971 18.5146 8.9257C18.5146 8.51421 18.6174 8.18186 18.8232 7.92863C19.0289 7.67541 19.2901 7.43801 19.6066 7.21644C19.9706 6.96322 20.4375 6.74956 21.0072 6.57547C21.5928 6.38555 22.2496 6.29059 22.9776 6.29059C23.6265 6.29059 24.1805 6.36972 24.6394 6.52799C25.0984 6.67042 25.4782 6.88408 25.7789 7.16896C26.1904 7.5488 26.4595 8.01568 26.5861 8.56961C26.7127 9.10771 26.776 9.7566 26.776 10.5163V17.1159C26.776 17.5116 26.8314 17.7965 26.9422 17.9706C27.0688 18.1446 27.2587 18.2317 27.5119 18.2317C27.686 18.2317 27.8522 18.1921 28.0105 18.113C28.1687 18.0339 28.3587 17.9072 28.5802 17.7332L28.8414 18.1367C28.509 18.39 28.1925 18.6036 27.8918 18.7777C27.5911 18.936 27.1875 19.0151 26.681 19.0151C26.2221 19.0151 25.8422 18.936 25.5415 18.7777C25.2408 18.6194 25.0114 18.39 24.8531 18.0893C24.7106 17.7727 24.6394 17.3771 24.6394 16.9023C24.2121 17.6145 23.6978 18.1446 23.0963 18.4928C22.5108 18.841 21.8461 19.0151 21.1022 19.0151ZM21.9568 18.0655C22.4791 18.0655 22.9618 17.9152 23.405 17.6145C23.8639 17.3138 24.2754 16.8627 24.6394 16.2613V11.6083C24.4495 11.8773 24.1726 12.1068 23.8085 12.2968C23.4445 12.4708 23.0489 12.6528 22.6215 12.8428C22.1942 13.0169 21.7827 13.2305 21.3871 13.4837C21.0072 13.7211 20.6907 14.0377 20.4375 14.4333C20.1843 14.829 20.0577 15.3434 20.0577 15.9764C20.0577 16.6095 20.2238 17.1159 20.5562 17.4958C20.9044 17.8756 21.3713 18.0655 21.9568 18.0655Z" fill="#D25C33"/>
<path d="M37.5312 6.29059C38.1326 6.29059 38.6312 6.36972 39.0268 6.52799C39.4383 6.68625 39.7786 6.90782 40.0476 7.1927C40.3484 7.50923 40.562 7.90489 40.6886 8.37969C40.8152 8.85448 40.8785 9.49546 40.8785 10.3026V16.6411C40.8785 17.3058 41.0131 17.7569 41.2821 17.9943C41.567 18.2317 42.0339 18.3504 42.6828 18.3504V18.8489C42.4137 18.8331 42.0022 18.8173 41.4483 18.8014C40.8944 18.7698 40.3563 18.754 39.834 18.754C39.3117 18.754 38.7974 18.7698 38.2909 18.8014C37.8003 18.8173 37.4284 18.8331 37.1751 18.8489V18.3504C37.7449 18.3504 38.1485 18.2317 38.3859 17.9943C38.6233 17.7569 38.742 17.3058 38.742 16.6411V9.78033C38.742 9.28971 38.7024 8.83866 38.6233 8.42717C38.5441 8.01568 38.3621 7.68332 38.0772 7.4301C37.8082 7.17687 37.3888 7.05026 36.819 7.05026C36.1543 7.05026 35.5687 7.24018 35.0623 7.62002C34.5717 7.99985 34.1839 8.52213 33.8991 9.18684C33.63 9.83573 33.4955 10.5637 33.4955 11.3709V16.6411C33.4955 17.3058 33.6142 17.7569 33.8516 17.9943C34.089 18.2317 34.4925 18.3504 35.0623 18.3504V18.8489C34.8091 18.8331 34.4292 18.8173 33.9228 18.8014C33.4322 18.7698 32.9257 18.754 32.4034 18.754C31.8812 18.754 31.3431 18.7698 30.7891 18.8014C30.2352 18.8173 29.8237 18.8331 29.5547 18.8489V18.3504C30.2036 18.3504 30.6625 18.2317 30.9316 17.9943C31.2165 17.7569 31.3589 17.3058 31.3589 16.6411V9.21058C31.3589 8.49839 31.2323 7.97611 30.9791 7.64376C30.7258 7.29557 30.251 7.12148 29.5547 7.12148V6.62295C30.0611 6.67043 30.5517 6.69417 31.0265 6.69417C31.4855 6.69417 31.9207 6.67043 32.3322 6.62295C32.7595 6.55964 33.1473 6.47259 33.4955 6.36181V9.1631C33.907 8.0869 34.4767 7.34305 35.2047 6.93156C35.9486 6.50425 36.7241 6.29059 37.5312 6.29059Z" fill="#D25C33"/>
<path d="M49.6547 6.29059C50.1611 6.29059 50.6517 6.35389 51.1265 6.48051C51.6013 6.60712 52.0286 6.79704 52.4085 7.05026C52.7725 7.28766 53.0494 7.56462 53.2394 7.88115C53.4293 8.18186 53.5242 8.51421 53.5242 8.87822C53.5242 9.30554 53.4055 9.6379 53.1681 9.87529C52.9307 10.0969 52.63 10.2077 52.266 10.2077C51.9178 10.2077 51.6092 10.1048 51.3402 9.89903C51.0869 9.69329 50.9603 9.4005 50.9603 9.02066C50.9603 8.65665 51.0553 8.36386 51.2452 8.14229C51.451 7.92072 51.6884 7.77828 51.9574 7.71498C51.7991 7.4301 51.5143 7.1927 51.1028 7.00278C50.7071 6.81286 50.2798 6.7179 49.8208 6.7179C49.4252 6.7179 49.0295 6.81286 48.6338 7.00278C48.2382 7.1927 47.8742 7.50923 47.5418 7.95237C47.2095 8.37969 46.9404 8.97318 46.7347 9.73286C46.5289 10.4767 46.426 11.4105 46.426 12.5341C46.426 13.9269 46.5843 15.0347 46.9008 15.8577C47.2174 16.6807 47.6289 17.2742 48.1353 17.6382C48.6576 17.9864 49.2273 18.1605 49.8446 18.1605C50.2561 18.1605 50.6755 18.0813 51.1028 17.9231C51.5301 17.7648 51.9337 17.5116 52.3135 17.1634C52.6933 16.7994 53.0178 16.3167 53.2868 15.7153L53.7379 15.8815C53.5796 16.3879 53.3185 16.9023 52.9545 17.4245C52.5905 17.931 52.1157 18.3504 51.5301 18.6827C50.9445 19.0151 50.2244 19.1813 49.3698 19.1813C48.3885 19.1813 47.5022 18.9281 46.7109 18.4216C45.9196 17.9152 45.2865 17.1951 44.8117 16.2613C44.3528 15.3117 44.1233 14.188 44.1233 12.8902C44.1233 11.5925 44.3528 10.453 44.8117 9.47172C45.2865 8.47465 45.9433 7.69915 46.7821 7.14522C47.6209 6.57547 48.5784 6.29059 49.6547 6.29059Z" fill="#D25C33"/>
<path d="M57.9714 0.688004C58.3829 0.688004 58.7389 0.838355 59.0396 1.13906C59.3404 1.43976 59.4907 1.79586 59.4907 2.20735C59.4907 2.61884 59.3404 2.97494 59.0396 3.27564C58.7389 3.57634 58.3829 3.72669 57.9714 3.72669C57.5599 3.72669 57.2038 3.57634 56.9031 3.27564C56.6024 2.97494 56.452 2.61884 56.452 2.20735C56.452 1.79586 56.6024 1.43976 56.9031 1.13906C57.2038 0.838355 57.5599 0.688004 57.9714 0.688004ZM59.2058 6.36181V16.6411C59.2058 17.3058 59.3404 17.7569 59.6094 17.9943C59.8943 18.2317 60.3612 18.3504 61.01 18.3504V18.8489C60.741 18.8331 60.3295 18.8173 59.7756 18.8014C59.2375 18.7698 58.6915 18.754 58.1375 18.754C57.5994 18.754 57.0534 18.7698 56.4995 18.8014C55.9456 18.8173 55.5341 18.8331 55.265 18.8489V18.3504C55.9139 18.3504 56.3729 18.2317 56.6419 17.9943C56.9268 17.7569 57.0692 17.3058 57.0692 16.6411V9.21058C57.0692 8.49839 56.9426 7.97611 56.6894 7.64376C56.4362 7.29557 55.9614 7.12148 55.265 7.12148V6.62295C55.7715 6.67043 56.2621 6.69417 56.7369 6.69417C57.1959 6.69417 57.6311 6.67043 58.0426 6.62295C58.4699 6.55964 58.8576 6.47259 59.2058 6.36181Z" fill="#D25C33"/>
<path d="M70.1966 6.29059C70.798 6.29059 71.2965 6.36972 71.6922 6.52799C72.1037 6.68625 72.444 6.90782 72.713 7.1927C73.0137 7.50923 73.2274 7.90489 73.354 8.37969C73.4806 8.85448 73.5439 9.49546 73.5439 10.3026V16.6411C73.5439 17.3058 73.6784 17.7569 73.9475 17.9943C74.2324 18.2317 74.6992 18.3504 75.3481 18.3504V18.8489C75.0791 18.8331 74.6676 18.8173 74.1137 18.8014C73.5597 18.7698 73.0216 18.754 72.4994 18.754C71.9771 18.754 71.4627 18.7698 70.9563 18.8014C70.4657 18.8173 70.0937 18.8331 69.8405 18.8489V18.3504C70.4103 18.3504 70.8138 18.2317 71.0512 17.9943C71.2886 17.7569 71.4073 17.3058 71.4073 16.6411V9.78033C71.4073 9.28971 71.3678 8.83866 71.2886 8.42717C71.2095 8.01568 71.0275 7.68332 70.7426 7.4301C70.4736 7.17687 70.0542 7.05026 69.4844 7.05026C68.8197 7.05026 68.2341 7.24018 67.7277 7.62002C67.237 7.99985 66.8493 8.52213 66.5644 9.18684C66.2954 9.83573 66.1608 10.5637 66.1608 11.3709V16.6411C66.1608 17.3058 66.2795 17.7569 66.5169 17.9943C66.7543 18.2317 67.1579 18.3504 67.7277 18.3504V18.8489C67.4744 18.8331 67.0946 18.8173 66.5882 18.8014C66.0975 18.7698 65.5911 18.754 65.0688 18.754C64.5465 18.754 64.0084 18.7698 63.4545 18.8014C62.9006 18.8173 62.4891 18.8331 62.22 18.8489V18.3504C62.8689 18.3504 63.3279 18.2317 63.5969 17.9943C63.8818 17.7569 64.0243 17.3058 64.0243 16.6411V9.21058C64.0243 8.49839 63.8976 7.97611 63.6444 7.64376C63.3912 7.29557 62.9164 7.12148 62.22 7.12148V6.62295C62.7265 6.67043 63.2171 6.69417 63.6919 6.69417C64.1509 6.69417 64.5861 6.67043 64.9976 6.62295C65.4249 6.55964 65.8127 6.47259 66.1608 6.36181V9.1631C66.5723 8.0869 67.1421 7.34305 67.8701 6.93156C68.6139 6.50425 69.3894 6.29059 70.1966 6.29059Z" fill="#D25C33"/>
<path d="M80.5214 23.312C79.6826 23.312 78.8912 23.225 78.1474 23.0509C77.4035 22.8768 76.8021 22.5998 76.3432 22.22C75.9 21.856 75.6784 21.3891 75.6784 20.8193C75.6784 20.2654 75.9 19.7906 76.3432 19.3949C76.7863 18.9993 77.3877 18.6986 78.1474 18.4928L78.2898 18.8727C77.9416 18.9835 77.6647 19.205 77.4589 19.5374C77.2532 19.8697 77.1503 20.2417 77.1503 20.6531C77.1503 21.3812 77.4827 21.9351 78.1474 22.3149C78.8279 22.7106 79.7063 22.9084 80.7825 22.9084C81.4947 22.9084 82.1911 22.8135 82.8716 22.6236C83.5521 22.4495 84.114 22.1488 84.5571 21.7214C85.0003 21.2941 85.2218 20.7323 85.2218 20.0359C85.2218 19.5136 85.0319 19.0863 84.6521 18.754C84.2881 18.4058 83.5601 18.2317 82.468 18.2317H80.7113C80.2048 18.2317 79.7142 18.1921 79.2394 18.113C78.7646 18.0339 78.3769 17.8677 78.0762 17.6145C77.7755 17.3612 77.6251 16.9735 77.6251 16.4512C77.6251 15.9131 77.8467 15.3987 78.2898 14.9081C78.733 14.4017 79.548 13.8873 80.735 13.365L81.0199 13.5787C80.4818 13.8636 80.0149 14.1564 79.6192 14.4571C79.2236 14.7419 79.0258 15.0822 79.0258 15.4779C79.0258 15.9843 79.4056 16.2376 80.1653 16.2376H83.1327C83.7974 16.2376 84.4068 16.3325 84.9607 16.5224C85.5304 16.7123 85.9894 17.0131 86.3376 17.4245C86.6858 17.836 86.8599 18.3741 86.8599 19.0388C86.8599 19.7827 86.6225 20.4791 86.1477 21.1279C85.6729 21.7768 84.9607 22.2991 84.0111 22.6948C83.0773 23.1063 81.9141 23.312 80.5214 23.312ZM80.6401 13.7924C79.8646 13.7924 79.1603 13.6657 78.5272 13.4125C77.8942 13.1435 77.3956 12.732 77.0316 12.1781C76.6676 11.6241 76.4856 10.9119 76.4856 10.0415C76.4856 9.17101 76.6676 8.45882 77.0316 7.90489C77.3956 7.35097 77.8942 6.94739 78.5272 6.69417C79.1603 6.42511 79.8646 6.29059 80.6401 6.29059C81.4314 6.29059 82.1357 6.42511 82.7529 6.69417C83.386 6.94739 83.8845 7.35097 84.2485 7.90489C84.6125 8.45882 84.7945 9.17101 84.7945 10.0415C84.7945 10.9119 84.6125 11.6241 84.2485 12.1781C83.8845 12.732 83.386 13.1435 82.7529 13.4125C82.1357 13.6657 81.4314 13.7924 80.6401 13.7924ZM80.6401 13.365C81.2415 13.365 81.7083 13.1276 82.0407 12.6528C82.3889 12.1781 82.563 11.3076 82.563 10.0415C82.563 8.77535 82.3889 7.90489 82.0407 7.4301C81.7083 6.9553 81.2415 6.7179 80.6401 6.7179C80.0545 6.7179 79.5876 6.9553 79.2394 7.4301C78.8912 7.90489 78.7171 8.77535 78.7171 10.0415C78.7171 11.3076 78.8912 12.1781 79.2394 12.6528C79.5876 13.1276 80.0545 13.365 80.6401 13.365ZM84.0586 8.26099L83.6313 8.09481C83.8528 7.55671 84.2327 7.08191 84.7708 6.67043C85.3089 6.25894 85.8707 6.05319 86.4563 6.05319C86.8678 6.05319 87.2001 6.17189 87.4534 6.40929C87.7066 6.63086 87.8332 6.97113 87.8332 7.4301C87.8332 7.92072 87.6987 8.2689 87.4296 8.47465C87.1764 8.66457 86.9153 8.75953 86.6462 8.75953C86.4088 8.75953 86.1872 8.68039 85.9815 8.52213C85.7758 8.34803 85.6571 8.07899 85.6254 7.71498C85.5938 7.35097 85.7045 6.88408 85.9578 6.31433L86.2664 6.38555C85.6017 6.63877 85.1269 6.90782 84.842 7.1927C84.5571 7.46175 84.296 7.81785 84.0586 8.26099Z" fill="#D25C33"/>
<path d="M103.913 2.04117V2.51597C103.375 2.53179 102.963 2.61092 102.678 2.75336C102.409 2.8958 102.227 3.12529 102.132 3.44182C102.037 3.75835 101.99 4.2094 101.99 4.79498V18.9676C101.895 18.9676 101.8 18.9676 101.705 18.9676C101.626 18.9676 101.539 18.9676 101.444 18.9676L91.473 3.56052V16.0951C91.473 16.6649 91.5205 17.1159 91.6154 17.4483C91.7262 17.7648 91.932 17.9943 92.2327 18.1367C92.5492 18.2633 93.0161 18.3425 93.6333 18.3741V18.8489C93.3484 18.8173 92.9765 18.8014 92.5175 18.8014C92.0586 18.7856 91.6233 18.7777 91.2119 18.7777C90.8162 18.7777 90.4126 18.7856 90.0011 18.8014C89.6055 18.8014 89.2731 18.8173 89.0041 18.8489V18.3741C89.5422 18.3425 89.9457 18.2633 90.2148 18.1367C90.4997 17.9943 90.6896 17.7648 90.7845 17.4483C90.8795 17.1159 90.927 16.6649 90.927 16.0951V4.55759C90.927 3.972 90.8795 3.54469 90.7845 3.27564C90.6896 2.99076 90.4997 2.80084 90.2148 2.70588C89.9457 2.5951 89.5422 2.53179 89.0041 2.51597V2.04117C89.2731 2.057 89.6055 2.07282 90.0011 2.08865C90.4126 2.10448 90.8162 2.11239 91.2119 2.11239C91.56 2.11239 91.8924 2.10448 92.2089 2.08865C92.5255 2.07282 92.8103 2.057 93.0636 2.04117L101.444 14.9556V4.79498C101.444 4.2094 101.388 3.75835 101.278 3.44182C101.183 3.12529 100.977 2.8958 100.66 2.75336C100.36 2.61092 99.9006 2.53179 99.2834 2.51597V2.04117C99.5683 2.057 99.9402 2.07282 100.399 2.08865C100.874 2.10448 101.309 2.11239 101.705 2.11239C102.116 2.11239 102.52 2.10448 102.916 2.08865C103.327 2.07282 103.659 2.057 103.913 2.04117Z" fill="#D25C33"/>
<path d="M110.856 6.29059C111.869 6.29059 112.779 6.51216 113.586 6.9553C114.393 7.39844 115.034 8.09481 115.509 9.0444C116 9.99399 116.245 11.2285 116.245 12.7478C116.245 14.2672 116 15.5016 115.509 16.4512C115.034 17.385 114.393 18.0734 113.586 18.5166C112.779 18.9597 111.869 19.1813 110.856 19.1813C109.859 19.1813 108.949 18.9597 108.126 18.5166C107.319 18.0734 106.67 17.385 106.179 16.4512C105.704 15.5016 105.467 14.2672 105.467 12.7478C105.467 11.2285 105.704 9.99399 106.179 9.0444C106.67 8.09481 107.319 7.39844 108.126 6.9553C108.949 6.51216 109.859 6.29059 110.856 6.29059ZM110.856 6.76538C109.954 6.76538 109.21 7.23227 108.624 8.16603C108.055 9.09979 107.77 10.6271 107.77 12.7478C107.77 14.8686 108.055 16.3958 108.624 17.3296C109.21 18.2475 109.954 18.7065 110.856 18.7065C111.758 18.7065 112.494 18.2475 113.064 17.3296C113.649 16.3958 113.942 14.8686 113.942 12.7478C113.942 10.6271 113.649 9.09979 113.064 8.16603C112.494 7.23227 111.758 6.76538 110.856 6.76538Z" fill="#D25C33"/>
<path d="M122.37 6.62295V7.12148C121.974 7.12148 121.626 7.15313 121.326 7.21644C121.025 7.26392 120.827 7.42218 120.732 7.69124C120.637 7.96029 120.708 8.43508 120.946 9.11562L123.415 16.1901L123.248 16.1663L126.738 6.52799L127.213 6.7179L122.869 18.9676C122.805 18.9676 122.742 18.9676 122.679 18.9676C122.615 18.9676 122.544 18.9676 122.465 18.9676L118.572 8.45091C118.319 7.81785 118.065 7.43801 117.812 7.3114C117.575 7.18479 117.369 7.12148 117.195 7.12148V6.62295C117.511 6.67043 117.836 6.70999 118.168 6.74164C118.516 6.75747 118.888 6.76538 119.284 6.76538C119.775 6.76538 120.289 6.74956 120.827 6.7179C121.381 6.68625 121.895 6.6546 122.37 6.62295ZM135.403 6.62295V7.09774C135.103 7.12939 134.818 7.26392 134.549 7.50132C134.295 7.72289 134.066 8.14229 133.86 8.75953L130.418 18.9676C130.355 18.9676 130.291 18.9676 130.228 18.9676C130.165 18.9676 130.093 18.9676 130.014 18.9676L126.192 9.25806L126.738 6.52799C126.833 6.52799 126.92 6.52799 126.999 6.52799C127.094 6.52799 127.189 6.52799 127.284 6.52799L130.988 16.3325L130.798 16.4749L133.148 9.32928C133.322 8.79118 133.385 8.37178 133.338 8.07107C133.306 7.75454 133.148 7.52506 132.863 7.38262C132.594 7.22435 132.175 7.12939 131.605 7.09774V6.62295C131.89 6.63877 132.135 6.6546 132.341 6.67043C132.547 6.67043 132.744 6.67834 132.934 6.69417C133.14 6.69417 133.362 6.69417 133.599 6.69417C133.963 6.69417 134.287 6.68625 134.572 6.67043C134.873 6.6546 135.15 6.63877 135.403 6.62295Z" fill="#D25C33"/>
<path d="M7.48096 2.04117C10.3139 2.04117 12.4188 2.75336 13.7957 4.17775C15.1726 5.58631 15.8611 7.6121 15.8611 10.2551C15.8611 11.9802 15.5208 13.4917 14.8403 14.7894C14.1756 16.0714 13.2022 17.0684 11.9203 17.7806C10.6383 18.4928 9.08735 18.8489 7.2673 18.8489C7.0299 18.8489 6.71337 18.841 6.31771 18.8252C5.92205 18.8094 5.51056 18.8014 5.08324 18.8014C4.67175 18.7856 4.29191 18.7777 3.94373 18.7777C3.3898 18.7777 2.84379 18.7856 2.30569 18.8014C1.76759 18.8014 1.33236 18.8173 1 18.8489V18.3741C1.5381 18.3425 1.94168 18.2792 2.21073 18.1842C2.49561 18.0893 2.68552 17.8993 2.78048 17.6145C2.87544 17.3296 2.92292 16.9023 2.92292 16.3325V4.55759C2.92292 3.972 2.87544 3.54469 2.78048 3.27564C2.68552 2.99076 2.49561 2.80084 2.21073 2.70588C1.94168 2.5951 1.5381 2.53179 1 2.51597V2.04117C1.33236 2.057 1.76759 2.08074 2.30569 2.11239C2.84379 2.12822 3.37398 2.12822 3.89625 2.11239C4.45018 2.09656 5.07533 2.08074 5.77169 2.06491C6.46806 2.04908 7.03781 2.04117 7.48096 2.04117ZM6.88746 2.46849C6.15944 2.46849 5.68465 2.60301 5.46308 2.87206C5.24151 3.14111 5.13072 3.68713 5.13072 4.51011V16.38C5.13072 17.203 5.24151 17.749 5.46308 18.018C5.70047 18.2871 6.18318 18.4216 6.9112 18.4216C8.63629 18.4216 9.97363 18.113 10.9232 17.4958C11.8728 16.8627 12.5375 15.9448 12.9174 14.7419C13.2972 13.5391 13.4871 12.0752 13.4871 10.3501C13.4871 8.57752 13.2735 7.11357 12.8461 5.95823C12.4347 4.78707 11.7462 3.91661 10.7808 3.34686C9.83119 2.76128 8.53342 2.46849 6.88746 2.46849Z" stroke="#D25C33" stroke-width="0.6" mask="url(#path-1-outside-1_1706_4926)"/>
<path d="M21.1022 19.0151C20.4533 19.0151 19.8915 18.8964 19.4167 18.659C18.9419 18.4058 18.5779 18.0576 18.3247 17.6145C18.0873 17.1713 17.9686 16.657 17.9686 16.0714C17.9686 15.375 18.1268 14.8053 18.4433 14.3621C18.7757 13.919 19.1951 13.5629 19.7016 13.2938C20.208 13.0248 20.7382 12.8032 21.2921 12.6291C21.8619 12.4392 22.4 12.2651 22.9064 12.1068C23.4129 11.9327 23.8244 11.7349 24.1409 11.5133C24.4733 11.2918 24.6394 10.999 24.6394 10.635V9.1631C24.6394 8.49839 24.5366 7.99194 24.3308 7.64376C24.1409 7.29557 23.8798 7.06609 23.5474 6.9553C23.215 6.82869 22.8431 6.76538 22.4316 6.76538C22.036 6.76538 21.6087 6.82078 21.1497 6.93156C20.7065 7.04235 20.3504 7.27183 20.0814 7.62002C20.3821 7.68332 20.6432 7.84159 20.8648 8.09481C21.0864 8.34804 21.1972 8.67248 21.1972 9.06814C21.1972 9.4638 21.0706 9.78034 20.8173 10.0177C20.5641 10.2393 20.2397 10.3501 19.844 10.3501C19.385 10.3501 19.0448 10.2077 18.8232 9.92277C18.6174 9.62207 18.5146 9.28971 18.5146 8.9257C18.5146 8.51421 18.6174 8.18186 18.8232 7.92863C19.0289 7.67541 19.2901 7.43801 19.6066 7.21644C19.9706 6.96322 20.4375 6.74956 21.0072 6.57547C21.5928 6.38555 22.2496 6.29059 22.9776 6.29059C23.6265 6.29059 24.1805 6.36972 24.6394 6.52799C25.0984 6.67042 25.4782 6.88408 25.7789 7.16896C26.1904 7.5488 26.4595 8.01568 26.5861 8.56961C26.7127 9.10771 26.776 9.7566 26.776 10.5163V17.1159C26.776 17.5116 26.8314 17.7965 26.9422 17.9706C27.0688 18.1446 27.2587 18.2317 27.5119 18.2317C27.686 18.2317 27.8522 18.1921 28.0105 18.113C28.1687 18.0339 28.3587 17.9072 28.5802 17.7332L28.8414 18.1367C28.509 18.39 28.1925 18.6036 27.8918 18.7777C27.5911 18.936 27.1875 19.0151 26.681 19.0151C26.2221 19.0151 25.8422 18.936 25.5415 18.7777C25.2408 18.6194 25.0114 18.39 24.8531 18.0893C24.7106 17.7727 24.6394 17.3771 24.6394 16.9023C24.2121 17.6145 23.6978 18.1446 23.0963 18.4928C22.5108 18.841 21.8461 19.0151 21.1022 19.0151ZM21.9568 18.0655C22.4791 18.0655 22.9618 17.9152 23.405 17.6145C23.8639 17.3138 24.2754 16.8627 24.6394 16.2613V11.6083C24.4495 11.8773 24.1726 12.1068 23.8085 12.2968C23.4445 12.4708 23.0489 12.6528 22.6215 12.8428C22.1942 13.0169 21.7827 13.2305 21.3871 13.4837C21.0072 13.7211 20.6907 14.0377 20.4375 14.4333C20.1843 14.829 20.0577 15.3434 20.0577 15.9764C20.0577 16.6095 20.2238 17.1159 20.5562 17.4958C20.9044 17.8756 21.3713 18.0655 21.9568 18.0655Z" stroke="#D25C33" stroke-width="0.6" mask="url(#path-1-outside-1_1706_4926)"/>
<path d="M37.5312 6.29059C38.1326 6.29059 38.6312 6.36972 39.0268 6.52799C39.4383 6.68625 39.7786 6.90782 40.0476 7.1927C40.3484 7.50923 40.562 7.90489 40.6886 8.37969C40.8152 8.85448 40.8785 9.49546 40.8785 10.3026V16.6411C40.8785 17.3058 41.0131 17.7569 41.2821 17.9943C41.567 18.2317 42.0339 18.3504 42.6828 18.3504V18.8489C42.4137 18.8331 42.0022 18.8173 41.4483 18.8014C40.8944 18.7698 40.3563 18.754 39.834 18.754C39.3117 18.754 38.7974 18.7698 38.2909 18.8014C37.8003 18.8173 37.4284 18.8331 37.1751 18.8489V18.3504C37.7449 18.3504 38.1485 18.2317 38.3859 17.9943C38.6233 17.7569 38.742 17.3058 38.742 16.6411V9.78033C38.742 9.28971 38.7024 8.83866 38.6233 8.42717C38.5441 8.01568 38.3621 7.68332 38.0772 7.4301C37.8082 7.17687 37.3888 7.05026 36.819 7.05026C36.1543 7.05026 35.5687 7.24018 35.0623 7.62002C34.5717 7.99985 34.1839 8.52213 33.8991 9.18684C33.63 9.83573 33.4955 10.5637 33.4955 11.3709V16.6411C33.4955 17.3058 33.6142 17.7569 33.8516 17.9943C34.089 18.2317 34.4925 18.3504 35.0623 18.3504V18.8489C34.8091 18.8331 34.4292 18.8173 33.9228 18.8014C33.4322 18.7698 32.9257 18.754 32.4034 18.754C31.8812 18.754 31.3431 18.7698 30.7891 18.8014C30.2352 18.8173 29.8237 18.8331 29.5547 18.8489V18.3504C30.2036 18.3504 30.6625 18.2317 30.9316 17.9943C31.2165 17.7569 31.3589 17.3058 31.3589 16.6411V9.21058C31.3589 8.49839 31.2323 7.97611 30.9791 7.64376C30.7258 7.29557 30.251 7.12148 29.5547 7.12148V6.62295C30.0611 6.67043 30.5517 6.69417 31.0265 6.69417C31.4855 6.69417 31.9207 6.67043 32.3322 6.62295C32.7595 6.55964 33.1473 6.47259 33.4955 6.36181V9.1631C33.907 8.0869 34.4767 7.34305 35.2047 6.93156C35.9486 6.50425 36.7241 6.29059 37.5312 6.29059Z" stroke="#D25C33" stroke-width="0.6" mask="url(#path-1-outside-1_1706_4926)"/>
<path d="M49.6547 6.29059C50.1611 6.29059 50.6517 6.35389 51.1265 6.48051C51.6013 6.60712 52.0286 6.79704 52.4085 7.05026C52.7725 7.28766 53.0494 7.56462 53.2394 7.88115C53.4293 8.18186 53.5242 8.51421 53.5242 8.87822C53.5242 9.30554 53.4055 9.6379 53.1681 9.87529C52.9307 10.0969 52.63 10.2077 52.266 10.2077C51.9178 10.2077 51.6092 10.1048 51.3402 9.89903C51.0869 9.69329 50.9603 9.4005 50.9603 9.02066C50.9603 8.65665 51.0553 8.36386 51.2452 8.14229C51.451 7.92072 51.6884 7.77828 51.9574 7.71498C51.7991 7.4301 51.5143 7.1927 51.1028 7.00278C50.7071 6.81286 50.2798 6.7179 49.8208 6.7179C49.4252 6.7179 49.0295 6.81286 48.6338 7.00278C48.2382 7.1927 47.8742 7.50923 47.5418 7.95237C47.2095 8.37969 46.9404 8.97318 46.7347 9.73286C46.5289 10.4767 46.426 11.4105 46.426 12.5341C46.426 13.9269 46.5843 15.0347 46.9008 15.8577C47.2174 16.6807 47.6289 17.2742 48.1353 17.6382C48.6576 17.9864 49.2273 18.1605 49.8446 18.1605C50.2561 18.1605 50.6755 18.0813 51.1028 17.9231C51.5301 17.7648 51.9337 17.5116 52.3135 17.1634C52.6933 16.7994 53.0178 16.3167 53.2868 15.7153L53.7379 15.8815C53.5796 16.3879 53.3185 16.9023 52.9545 17.4245C52.5905 17.931 52.1157 18.3504 51.5301 18.6827C50.9445 19.0151 50.2244 19.1813 49.3698 19.1813C48.3885 19.1813 47.5022 18.9281 46.7109 18.4216C45.9196 17.9152 45.2865 17.1951 44.8117 16.2613C44.3528 15.3117 44.1233 14.188 44.1233 12.8902C44.1233 11.5925 44.3528 10.453 44.8117 9.47172C45.2865 8.47465 45.9433 7.69915 46.7821 7.14522C47.6209 6.57547 48.5784 6.29059 49.6547 6.29059Z" stroke="#D25C33" stroke-width="0.6" mask="url(#path-1-outside-1_1706_4926)"/>
<path d="M57.9714 0.688004C58.3829 0.688004 58.7389 0.838355 59.0396 1.13906C59.3404 1.43976 59.4907 1.79586 59.4907 2.20735C59.4907 2.61884 59.3404 2.97494 59.0396 3.27564C58.7389 3.57634 58.3829 3.72669 57.9714 3.72669C57.5599 3.72669 57.2038 3.57634 56.9031 3.27564C56.6024 2.97494 56.452 2.61884 56.452 2.20735C56.452 1.79586 56.6024 1.43976 56.9031 1.13906C57.2038 0.838355 57.5599 0.688004 57.9714 0.688004ZM59.2058 6.36181V16.6411C59.2058 17.3058 59.3404 17.7569 59.6094 17.9943C59.8943 18.2317 60.3612 18.3504 61.01 18.3504V18.8489C60.741 18.8331 60.3295 18.8173 59.7756 18.8014C59.2375 18.7698 58.6915 18.754 58.1375 18.754C57.5994 18.754 57.0534 18.7698 56.4995 18.8014C55.9456 18.8173 55.5341 18.8331 55.265 18.8489V18.3504C55.9139 18.3504 56.3729 18.2317 56.6419 17.9943C56.9268 17.7569 57.0692 17.3058 57.0692 16.6411V9.21058C57.0692 8.49839 56.9426 7.97611 56.6894 7.64376C56.4362 7.29557 55.9614 7.12148 55.265 7.12148V6.62295C55.7715 6.67043 56.2621 6.69417 56.7369 6.69417C57.1959 6.69417 57.6311 6.67043 58.0426 6.62295C58.4699 6.55964 58.8576 6.47259 59.2058 6.36181Z" stroke="#D25C33" stroke-width="0.6" mask="url(#path-1-outside-1_1706_4926)"/>
<path d="M70.1966 6.29059C70.798 6.29059 71.2965 6.36972 71.6922 6.52799C72.1037 6.68625 72.444 6.90782 72.713 7.1927C73.0137 7.50923 73.2274 7.90489 73.354 8.37969C73.4806 8.85448 73.5439 9.49546 73.5439 10.3026V16.6411C73.5439 17.3058 73.6784 17.7569 73.9475 17.9943C74.2324 18.2317 74.6992 18.3504 75.3481 18.3504V18.8489C75.0791 18.8331 74.6676 18.8173 74.1137 18.8014C73.5597 18.7698 73.0216 18.754 72.4994 18.754C71.9771 18.754 71.4627 18.7698 70.9563 18.8014C70.4657 18.8173 70.0937 18.8331 69.8405 18.8489V18.3504C70.4103 18.3504 70.8138 18.2317 71.0512 17.9943C71.2886 17.7569 71.4073 17.3058 71.4073 16.6411V9.78033C71.4073 9.28971 71.3678 8.83866 71.2886 8.42717C71.2095 8.01568 71.0275 7.68332 70.7426 7.4301C70.4736 7.17687 70.0542 7.05026 69.4844 7.05026C68.8197 7.05026 68.2341 7.24018 67.7277 7.62002C67.237 7.99985 66.8493 8.52213 66.5644 9.18684C66.2954 9.83573 66.1608 10.5637 66.1608 11.3709V16.6411C66.1608 17.3058 66.2795 17.7569 66.5169 17.9943C66.7543 18.2317 67.1579 18.3504 67.7277 18.3504V18.8489C67.4744 18.8331 67.0946 18.8173 66.5882 18.8014C66.0975 18.7698 65.5911 18.754 65.0688 18.754C64.5465 18.754 64.0084 18.7698 63.4545 18.8014C62.9006 18.8173 62.4891 18.8331 62.22 18.8489V18.3504C62.8689 18.3504 63.3279 18.2317 63.5969 17.9943C63.8818 17.7569 64.0243 17.3058 64.0243 16.6411V9.21058C64.0243 8.49839 63.8976 7.97611 63.6444 7.64376C63.3912 7.29557 62.9164 7.12148 62.22 7.12148V6.62295C62.7265 6.67043 63.2171 6.69417 63.6919 6.69417C64.1509 6.69417 64.5861 6.67043 64.9976 6.62295C65.4249 6.55964 65.8127 6.47259 66.1608 6.36181V9.1631C66.5723 8.0869 67.1421 7.34305 67.8701 6.93156C68.6139 6.50425 69.3894 6.29059 70.1966 6.29059Z" stroke="#D25C33" stroke-width="0.6" mask="url(#path-1-outside-1_1706_4926)"/>
<path d="M80.5214 23.312C79.6826 23.312 78.8912 23.225 78.1474 23.0509C77.4035 22.8768 76.8021 22.5998 76.3432 22.22C75.9 21.856 75.6784 21.3891 75.6784 20.8193C75.6784 20.2654 75.9 19.7906 76.3432 19.3949C76.7863 18.9993 77.3877 18.6986 78.1474 18.4928L78.2898 18.8727C77.9416 18.9835 77.6647 19.205 77.4589 19.5374C77.2532 19.8697 77.1503 20.2417 77.1503 20.6531C77.1503 21.3812 77.4827 21.9351 78.1474 22.3149C78.8279 22.7106 79.7063 22.9084 80.7825 22.9084C81.4947 22.9084 82.1911 22.8135 82.8716 22.6236C83.5521 22.4495 84.114 22.1488 84.5571 21.7214C85.0003 21.2941 85.2218 20.7323 85.2218 20.0359C85.2218 19.5136 85.0319 19.0863 84.6521 18.754C84.2881 18.4058 83.5601 18.2317 82.468 18.2317H80.7113C80.2048 18.2317 79.7142 18.1921 79.2394 18.113C78.7646 18.0339 78.3769 17.8677 78.0762 17.6145C77.7755 17.3612 77.6251 16.9735 77.6251 16.4512C77.6251 15.9131 77.8467 15.3987 78.2898 14.9081C78.733 14.4017 79.548 13.8873 80.735 13.365L81.0199 13.5787C80.4818 13.8636 80.0149 14.1564 79.6192 14.4571C79.2236 14.7419 79.0258 15.0822 79.0258 15.4779C79.0258 15.9843 79.4056 16.2376 80.1653 16.2376H83.1327C83.7974 16.2376 84.4068 16.3325 84.9607 16.5224C85.5304 16.7123 85.9894 17.0131 86.3376 17.4245C86.6858 17.836 86.8599 18.3741 86.8599 19.0388C86.8599 19.7827 86.6225 20.4791 86.1477 21.1279C85.6729 21.7768 84.9607 22.2991 84.0111 22.6948C83.0773 23.1063 81.9141 23.312 80.5214 23.312ZM80.6401 13.7924C79.8646 13.7924 79.1603 13.6657 78.5272 13.4125C77.8942 13.1435 77.3956 12.732 77.0316 12.1781C76.6676 11.6241 76.4856 10.9119 76.4856 10.0415C76.4856 9.17101 76.6676 8.45882 77.0316 7.90489C77.3956 7.35097 77.8942 6.94739 78.5272 6.69417C79.1603 6.42511 79.8646 6.29059 80.6401 6.29059C81.4314 6.29059 82.1357 6.42511 82.7529 6.69417C83.386 6.94739 83.8845 7.35097 84.2485 7.90489C84.6125 8.45882 84.7945 9.17101 84.7945 10.0415C84.7945 10.9119 84.6125 11.6241 84.2485 12.1781C83.8845 12.732 83.386 13.1435 82.7529 13.4125C82.1357 13.6657 81.4314 13.7924 80.6401 13.7924ZM80.6401 13.365C81.2415 13.365 81.7083 13.1276 82.0407 12.6528C82.3889 12.1781 82.563 11.3076 82.563 10.0415C82.563 8.77535 82.3889 7.90489 82.0407 7.4301C81.7083 6.9553 81.2415 6.7179 80.6401 6.7179C80.0545 6.7179 79.5876 6.9553 79.2394 7.4301C78.8912 7.90489 78.7171 8.77535 78.7171 10.0415C78.7171 11.3076 78.8912 12.1781 79.2394 12.6528C79.5876 13.1276 80.0545 13.365 80.6401 13.365ZM84.0586 8.26099L83.6313 8.09481C83.8528 7.55671 84.2327 7.08191 84.7708 6.67043C85.3089 6.25894 85.8707 6.05319 86.4563 6.05319C86.8678 6.05319 87.2001 6.17189 87.4534 6.40929C87.7066 6.63086 87.8332 6.97113 87.8332 7.4301C87.8332 7.92072 87.6987 8.2689 87.4296 8.47465C87.1764 8.66457 86.9153 8.75953 86.6462 8.75953C86.4088 8.75953 86.1872 8.68039 85.9815 8.52213C85.7758 8.34803 85.6571 8.07899 85.6254 7.71498C85.5938 7.35097 85.7045 6.88408 85.9578 6.31433L86.2664 6.38555C85.6017 6.63877 85.1269 6.90782 84.842 7.1927C84.5571 7.46175 84.296 7.81785 84.0586 8.26099Z" stroke="#D25C33" stroke-width="0.6" mask="url(#path-1-outside-1_1706_4926)"/>
<path d="M103.913 2.04117V2.51597C103.375 2.53179 102.963 2.61092 102.678 2.75336C102.409 2.8958 102.227 3.12529 102.132 3.44182C102.037 3.75835 101.99 4.2094 101.99 4.79498V18.9676C101.895 18.9676 101.8 18.9676 101.705 18.9676C101.626 18.9676 101.539 18.9676 101.444 18.9676L91.473 3.56052V16.0951C91.473 16.6649 91.5205 17.1159 91.6154 17.4483C91.7262 17.7648 91.932 17.9943 92.2327 18.1367C92.5492 18.2633 93.0161 18.3425 93.6333 18.3741V18.8489C93.3484 18.8173 92.9765 18.8014 92.5175 18.8014C92.0586 18.7856 91.6233 18.7777 91.2119 18.7777C90.8162 18.7777 90.4126 18.7856 90.0011 18.8014C89.6055 18.8014 89.2731 18.8173 89.0041 18.8489V18.3741C89.5422 18.3425 89.9457 18.2633 90.2148 18.1367C90.4997 17.9943 90.6896 17.7648 90.7845 17.4483C90.8795 17.1159 90.927 16.6649 90.927 16.0951V4.55759C90.927 3.972 90.8795 3.54469 90.7845 3.27564C90.6896 2.99076 90.4997 2.80084 90.2148 2.70588C89.9457 2.5951 89.5422 2.53179 89.0041 2.51597V2.04117C89.2731 2.057 89.6055 2.07282 90.0011 2.08865C90.4126 2.10448 90.8162 2.11239 91.2119 2.11239C91.56 2.11239 91.8924 2.10448 92.2089 2.08865C92.5255 2.07282 92.8103 2.057 93.0636 2.04117L101.444 14.9556V4.79498C101.444 4.2094 101.388 3.75835 101.278 3.44182C101.183 3.12529 100.977 2.8958 100.66 2.75336C100.36 2.61092 99.9006 2.53179 99.2834 2.51597V2.04117C99.5683 2.057 99.9402 2.07282 100.399 2.08865C100.874 2.10448 101.309 2.11239 101.705 2.11239C102.116 2.11239 102.52 2.10448 102.916 2.08865C103.327 2.07282 103.659 2.057 103.913 2.04117Z" stroke="#D25C33" stroke-width="0.6" mask="url(#path-1-outside-1_1706_4926)"/>
<path d="M110.856 6.29059C111.869 6.29059 112.779 6.51216 113.586 6.9553C114.393 7.39844 115.034 8.09481 115.509 9.0444C116 9.99399 116.245 11.2285 116.245 12.7478C116.245 14.2672 116 15.5016 115.509 16.4512C115.034 17.385 114.393 18.0734 113.586 18.5166C112.779 18.9597 111.869 19.1813 110.856 19.1813C109.859 19.1813 108.949 18.9597 108.126 18.5166C107.319 18.0734 106.67 17.385 106.179 16.4512C105.704 15.5016 105.467 14.2672 105.467 12.7478C105.467 11.2285 105.704 9.99399 106.179 9.0444C106.67 8.09481 107.319 7.39844 108.126 6.9553C108.949 6.51216 109.859 6.29059 110.856 6.29059ZM110.856 6.76538C109.954 6.76538 109.21 7.23227 108.624 8.16603C108.055 9.09979 107.77 10.6271 107.77 12.7478C107.77 14.8686 108.055 16.3958 108.624 17.3296C109.21 18.2475 109.954 18.7065 110.856 18.7065C111.758 18.7065 112.494 18.2475 113.064 17.3296C113.649 16.3958 113.942 14.8686 113.942 12.7478C113.942 10.6271 113.649 9.09979 113.064 8.16603C112.494 7.23227 111.758 6.76538 110.856 6.76538Z" stroke="#D25C33" stroke-width="0.6" mask="url(#path-1-outside-1_1706_4926)"/>
<path d="M122.37 6.62295V7.12148C121.974 7.12148 121.626 7.15313 121.326 7.21644C121.025 7.26392 120.827 7.42218 120.732 7.69124C120.637 7.96029 120.708 8.43508 120.946 9.11562L123.415 16.1901L123.248 16.1663L126.738 6.52799L127.213 6.7179L122.869 18.9676C122.805 18.9676 122.742 18.9676 122.679 18.9676C122.615 18.9676 122.544 18.9676 122.465 18.9676L118.572 8.45091C118.319 7.81785 118.065 7.43801 117.812 7.3114C117.575 7.18479 117.369 7.12148 117.195 7.12148V6.62295C117.511 6.67043 117.836 6.70999 118.168 6.74164C118.516 6.75747 118.888 6.76538 119.284 6.76538C119.775 6.76538 120.289 6.74956 120.827 6.7179C121.381 6.68625 121.895 6.6546 122.37 6.62295ZM135.403 6.62295V7.09774C135.103 7.12939 134.818 7.26392 134.549 7.50132C134.295 7.72289 134.066 8.14229 133.86 8.75953L130.418 18.9676C130.355 18.9676 130.291 18.9676 130.228 18.9676C130.165 18.9676 130.093 18.9676 130.014 18.9676L126.192 9.25806L126.738 6.52799C126.833 6.52799 126.92 6.52799 126.999 6.52799C127.094 6.52799 127.189 6.52799 127.284 6.52799L130.988 16.3325L130.798 16.4749L133.148 9.32928C133.322 8.79118 133.385 8.37178 133.338 8.07107C133.306 7.75454 133.148 7.52506 132.863 7.38262C132.594 7.22435 132.175 7.12939 131.605 7.09774V6.62295C131.89 6.63877 132.135 6.6546 132.341 6.67043C132.547 6.67043 132.744 6.67834 132.934 6.69417C133.14 6.69417 133.362 6.69417 133.599 6.69417C133.963 6.69417 134.287 6.68625 134.572 6.67043C134.873 6.6546 135.15 6.63877 135.403 6.62295Z" stroke="#D25C33" stroke-width="0.6" mask="url(#path-1-outside-1_1706_4926)"/>
</svg>
