<svg width="177" height="52" viewBox="0 0 177 52" fill="none" xmlns="http://www.w3.org/2000/svg">
<path d="M69.932 4.27397C71.6606 4.27397 73.1779 4.56752 74.484 5.15463C75.79 5.74174 76.904 6.61293 77.8259 7.7682L75.6076 10.2965C74.8201 9.31172 73.9558 8.59204 73.0147 8.13751C72.0928 7.66403 71.0172 7.4273 69.788 7.4273C68.9813 7.4273 68.3091 7.53146 67.7713 7.73979C67.2527 7.94812 66.8686 8.22273 66.6189 8.56363C66.3884 8.90453 66.2732 9.28331 66.2732 9.69997C66.2732 10.2113 66.4748 10.6469 66.8782 11.0068C67.2815 11.3477 67.973 11.6317 68.9525 11.859L72.4961 12.6544C74.3783 13.0711 75.7228 13.6961 76.5295 14.5294C77.3554 15.3438 77.7683 16.4043 77.7683 17.7111C77.7683 18.9422 77.4418 20.0027 76.7888 20.8929C76.1357 21.764 75.2234 22.4364 74.0518 22.9098C72.8802 23.3644 71.5358 23.5917 70.0185 23.5917C68.6932 23.5917 67.4736 23.4401 66.3596 23.1371C65.2648 22.8152 64.2853 22.3796 63.421 21.8303C62.5567 21.2811 61.8365 20.6467 61.2603 19.927L63.5074 17.285C63.9492 17.891 64.4966 18.4308 65.1496 18.9043C65.8026 19.3777 66.5421 19.7565 67.3679 20.0406C68.213 20.3058 69.0965 20.4383 70.0185 20.4383C70.8059 20.4383 71.4685 20.3531 72.0063 20.1826C72.5633 19.9933 72.9763 19.7376 73.2452 19.4156C73.5333 19.0747 73.6773 18.6675 73.6773 18.1941C73.6773 17.7017 73.5044 17.285 73.1587 16.9441C72.8322 16.5843 72.2176 16.3096 71.3149 16.1203L67.4544 15.268C66.3404 15.0029 65.3801 14.662 64.5734 14.2453C63.7859 13.8097 63.1809 13.2605 62.7584 12.5976C62.355 11.9158 62.1534 11.1109 62.1534 10.1829C62.1534 9.06551 62.4607 8.06175 63.0753 7.17162C63.6899 6.2815 64.5734 5.58076 65.7258 5.06941C66.8974 4.53912 68.2995 4.27397 69.932 4.27397Z" fill="white"/>
<path d="M80.1775 23.3076V9.10339H83.7211L83.9516 13.3646L83.4618 12.9101C83.6923 11.9821 84.0572 11.2151 84.5566 10.609C85.056 10.003 85.661 9.55792 86.3716 9.27384C87.1015 8.97082 87.8985 8.81931 88.7628 8.81931C89.7616 8.81931 90.6451 9.0087 91.4133 9.38748C92.2008 9.76625 92.8154 10.3439 93.2572 11.1204C93.7181 11.8779 93.9486 12.8344 93.9486 13.9896V23.3076H90.0017V15.0976C90.0017 13.8855 89.7616 13.0522 89.2814 12.5976C88.8013 12.1241 88.177 11.8874 87.4088 11.8874C86.871 11.8874 86.3428 12.02 85.8242 12.2851C85.3249 12.5313 84.9119 12.9385 84.5854 13.5067C84.2781 14.0749 84.1245 14.8324 84.1245 15.7794V23.3076H80.1775Z" fill="white"/>
<path d="M103.719 8.81931C105.179 8.81931 106.456 9.11286 107.551 9.69997C108.665 10.2871 109.529 11.1299 110.144 12.2283C110.778 13.3268 111.094 14.6525 111.094 16.2055C111.094 17.7395 110.778 19.0653 110.144 20.1826C109.529 21.2811 108.665 22.1239 107.551 22.711C106.456 23.2981 105.179 23.5917 103.719 23.5917C102.279 23.5917 101.001 23.2981 99.8875 22.711C98.7735 22.1239 97.8996 21.2811 97.2658 20.1826C96.6512 19.0653 96.3439 17.7395 96.3439 16.2055C96.3439 14.6525 96.6512 13.3268 97.2658 12.2283C97.8996 11.1299 98.7735 10.2871 99.8875 9.69997C101.001 9.11286 102.279 8.81931 103.719 8.81931ZM103.719 11.717C102.989 11.717 102.365 11.8874 101.847 12.2283C101.347 12.5503 100.963 13.0427 100.694 13.7055C100.425 14.3684 100.291 15.2017 100.291 16.2055C100.291 17.2092 100.425 18.0426 100.694 18.7054C100.963 19.3683 101.347 19.8702 101.847 20.2111C102.365 20.533 102.989 20.694 103.719 20.694C104.43 20.694 105.035 20.533 105.534 20.2111C106.053 19.8702 106.447 19.3683 106.715 18.7054C106.984 18.0426 107.119 17.2092 107.119 16.2055C107.119 15.2017 106.984 14.3684 106.715 13.7055C106.447 13.0427 106.053 12.5503 105.534 12.2283C105.035 11.8874 104.43 11.717 103.719 11.717Z" fill="white"/>
<path d="M131.721 9.10339H135.927L131.318 23.3076H126.766L123.626 13.6487L120.601 23.3076H116.049L111.439 9.10339H115.645L118.526 19.9838L121.724 9.10339H125.642L128.869 19.9838L131.721 9.10339Z" fill="white"/>
<path d="M71.3725 32.9664C73.5236 32.9664 75.2138 33.4778 76.443 34.5005C77.6723 35.5232 78.2869 36.8962 78.2869 38.6197C78.2869 40.4567 77.6723 41.8677 76.443 42.8525C75.2138 43.8184 73.5333 44.3013 71.4013 44.3013L70.998 44.5286H66.907V51.7159H62.9889V32.9664H71.3725ZM70.9116 41.5457C72.0255 41.5457 72.8514 41.3279 73.3892 40.8923C73.9462 40.4378 74.2247 39.7465 74.2247 38.8185C74.2247 37.8905 73.9462 37.2087 73.3892 36.7731C72.8514 36.3186 72.0255 36.0913 70.9116 36.0913H66.907V41.5457H70.9116ZM73.2452 42.3696L79.4105 51.7159H74.9449L69.8456 43.5059L73.2452 42.3696Z" fill="white"/>
<path d="M87.7054 52C86.1881 52 84.8629 51.7064 83.7297 51.1193C82.6157 50.5322 81.7514 49.6895 81.1368 48.591C80.5222 47.4925 80.2149 46.1668 80.2149 44.6138C80.2149 43.0608 80.5222 41.7351 81.1368 40.6367C81.7514 39.5382 82.6061 38.6954 83.7009 38.1083C84.8148 37.5212 86.0825 37.2277 87.5038 37.2277C88.9635 37.2277 90.2023 37.5212 91.2202 38.1083C92.2382 38.6765 93.016 39.4624 93.5538 40.4662C94.0916 41.451 94.3605 42.5779 94.3605 43.8468C94.3605 44.2256 94.3509 44.5854 94.3317 44.9263C94.3125 45.2672 94.2837 45.5702 94.2453 45.8354H82.7501V43.1366H92.5167L90.6152 43.8184C90.6152 42.6252 90.3367 41.7067 89.7797 41.0628C89.242 40.4189 88.4737 40.0969 87.4749 40.0969C86.7451 40.0969 86.1113 40.2674 85.5735 40.6083C85.0549 40.9492 84.6612 41.4605 84.3923 42.1423C84.1234 42.8052 83.989 43.6479 83.989 44.6706C83.989 45.6744 84.133 46.5077 84.4211 47.1706C84.7284 47.8145 85.151 48.2974 85.6887 48.6194C86.2457 48.9414 86.9084 49.1023 87.6766 49.1023C88.5217 49.1023 89.2035 48.9414 89.7221 48.6194C90.2407 48.2974 90.644 47.8524 90.9321 47.2842L94.0724 48.4774C93.7651 49.216 93.2945 49.8504 92.6607 50.3807C92.0461 50.911 91.3067 51.3182 90.4424 51.6023C89.5973 51.8674 88.685 52 87.7054 52Z" fill="white"/>
<path d="M96.8411 51.7159V37.5117H100.385L100.529 40.0685C101.009 39.1216 101.662 38.4113 102.488 37.9379C103.333 37.4644 104.264 37.2277 105.282 37.2277C106.319 37.2277 107.251 37.4644 108.077 37.9379C108.922 38.4113 109.556 39.1121 109.978 40.0401C110.286 39.4151 110.699 38.8943 111.217 38.4776C111.736 38.061 112.312 37.7485 112.946 37.5401C113.58 37.3318 114.223 37.2277 114.876 37.2277C115.817 37.2277 116.672 37.417 117.44 37.7958C118.228 38.1746 118.852 38.7428 119.313 39.5003C119.774 40.2579 120.004 41.2238 120.004 42.398V51.7159H116.057V43.165C116.057 42.1234 115.827 41.3847 115.366 40.9492C114.905 40.5136 114.309 40.2958 113.58 40.2958C113.003 40.2958 112.466 40.4378 111.966 40.7219C111.486 41.006 111.102 41.4321 110.814 42.0003C110.545 42.5495 110.41 43.2408 110.41 44.0741V51.7159H106.464V43.165C106.464 42.1234 106.223 41.3847 105.743 40.9492C105.282 40.5136 104.687 40.2958 103.957 40.2958C103.458 40.2958 102.958 40.4283 102.459 40.6935C101.979 40.9586 101.575 41.3753 101.249 41.9434C100.942 42.5116 100.788 43.2597 100.788 44.1877V51.7159H96.8411Z" fill="white"/>
<path d="M129.78 37.2277C131.239 37.2277 132.517 37.5212 133.611 38.1083C134.725 38.6954 135.59 39.5382 136.204 40.6367C136.838 41.7351 137.155 43.0608 137.155 44.6138C137.155 46.1479 136.838 47.4736 136.204 48.591C135.59 49.6895 134.725 50.5322 133.611 51.1193C132.517 51.7064 131.239 52 129.78 52C128.339 52 127.062 51.7064 125.948 51.1193C124.834 50.5322 123.96 49.6895 123.326 48.591C122.712 47.4736 122.404 46.1479 122.404 44.6138C122.404 43.0608 122.712 41.7351 123.326 40.6367C123.96 39.5382 124.834 38.6954 125.948 38.1083C127.062 37.5212 128.339 37.2277 129.78 37.2277ZM129.78 40.1253C129.05 40.1253 128.426 40.2958 127.907 40.6367C127.408 40.9586 127.024 41.451 126.755 42.1139C126.486 42.7768 126.351 43.6101 126.351 44.6138C126.351 45.6176 126.486 46.4509 126.755 47.1138C127.024 47.7766 127.408 48.2785 127.907 48.6194C128.426 48.9414 129.05 49.1023 129.78 49.1023C130.49 49.1023 131.095 48.9414 131.595 48.6194C132.113 48.2785 132.507 47.7766 132.776 47.1138C133.045 46.4509 133.179 45.6176 133.179 44.6138C133.179 43.6101 133.045 42.7768 132.776 42.1139C132.507 41.451 132.113 40.9586 131.595 40.6367C131.095 40.2958 130.49 40.1253 129.78 40.1253Z" fill="white"/>
<path d="M148.874 37.5117H152.965L147.491 51.7159H142.939L137.465 37.5117H141.672L145.244 48.733L148.874 37.5117Z" fill="white"/>
<path d="M162.189 42.6537C162.189 41.8393 161.949 41.2048 161.468 40.7503C161.008 40.2958 160.393 40.0685 159.625 40.0685C158.914 40.0685 158.29 40.2484 157.752 40.6083C157.214 40.9681 156.82 41.5647 156.571 42.398L153.2 41.3753C153.527 40.1253 154.237 39.1215 155.332 38.364C156.446 37.6064 157.934 37.2277 159.797 37.2277C161.065 37.2277 162.169 37.4265 163.111 37.8242C164.052 38.203 164.782 38.7806 165.3 39.5571C165.838 40.3336 166.107 41.309 166.107 42.4832V48.2501C166.107 48.9698 166.453 49.3296 167.144 49.3296C167.47 49.3296 167.778 49.2823 168.066 49.1876L167.835 51.6023C167.336 51.8485 166.712 51.9716 165.963 51.9716C165.291 51.9716 164.686 51.858 164.148 51.6307C163.61 51.4034 163.187 51.0625 162.88 50.608C162.573 50.1345 162.419 49.5474 162.419 48.8467V48.733L163.111 48.6194C162.995 49.3391 162.678 49.9546 162.16 50.466C161.641 50.9584 161.007 51.3371 160.258 51.6023C159.529 51.8674 158.77 52 157.982 52C157.003 52 156.158 51.858 155.447 51.5739C154.737 51.2709 154.189 50.8353 153.805 50.2671C153.421 49.6989 153.229 48.9982 153.229 48.1649C153.229 47.1043 153.575 46.2426 154.266 45.5797C154.957 44.8979 155.947 44.4339 157.233 44.1877L162.65 43.1082L162.621 45.5229L159.164 46.2047C158.511 46.3373 158.011 46.5172 157.666 46.7445C157.339 46.9528 157.176 47.3032 157.176 47.7956C157.176 48.269 157.349 48.6289 157.694 48.8751C158.059 49.1213 158.491 49.2444 158.991 49.2444C159.394 49.2444 159.788 49.197 160.172 49.1023C160.556 49.0077 160.902 48.8561 161.209 48.6478C161.516 48.4395 161.757 48.1554 161.929 47.7956C162.102 47.4357 162.189 47.0001 162.189 46.4888V42.6537Z" fill="white"/>
<path d="M173.546 31.2903V47.341C173.546 48.0039 173.661 48.4679 173.892 48.733C174.122 48.9982 174.506 49.1308 175.044 49.1308C175.371 49.1308 175.64 49.1118 175.851 49.0739C176.062 49.0171 176.331 48.9414 176.658 48.8467L176.312 51.4034C175.985 51.5928 175.572 51.7349 175.073 51.8296C174.593 51.9432 174.113 52 173.632 52C172.23 52 171.203 51.6686 170.55 51.0057C169.916 50.3239 169.599 49.2444 169.599 47.7672V31.2903H173.546Z" fill="white"/>
<g clip-path="url(#clip0_151_434)">
<path d="M56.2251 52.2726H2.18585C2.61139 49.886 4.38539 47.9648 6.69331 47.3282C6.68988 47.2529 6.6876 47.1776 6.6876 47.1012C6.6876 43.6319 9.49977 40.8197 12.9679 40.8197C13.8886 40.8197 14.7602 41.0194 15.5485 41.3753C16.6848 39.1106 18.801 37.4245 21.3417 36.8747C21.9235 36.7481 22.527 36.6819 23.1465 36.6819C24.0398 36.6819 24.9011 36.8199 25.7088 37.0755C26.2313 37.2409 26.7321 37.4542 27.2045 37.7132C28.3384 38.3304 29.3161 39.1987 30.0623 40.2424C30.2881 40.5586 30.4925 40.8893 30.6737 41.235C30.8449 41.5613 30.9955 41.8989 31.1244 42.248C32.1797 41.381 33.5213 40.8482 34.9895 40.8208C35.0295 40.8197 35.0705 40.8197 35.1105 40.8197C35.6193 40.8197 36.1133 40.8801 36.5867 40.9954C38.1805 41.3786 39.5368 42.3723 40.397 43.7128C40.4553 43.8029 40.5111 43.8954 40.5648 43.9888C41.6783 42.9838 43.1522 42.3711 44.7711 42.3711C47.7236 42.3711 50.1991 44.411 50.8712 47.157C53.5818 47.5142 55.7494 49.6007 56.2251 52.2726Z" fill="white"/>
<path d="M40.1028 6.1234L34.7397 30.3868L31.5339 29.6783L36.8959 5.41494L40.1028 6.1234Z" fill="white"/>
<path d="M39.8107 32.6753L34.4944 31.5002L31.2875 30.7918L25.9723 29.6178C24.3854 29.2665 22.7997 30.2784 22.4483 31.8653L21.6098 35.6631C22.1117 35.5821 22.6251 35.5411 23.1465 35.5411C24.1139 35.5411 25.0585 35.6871 25.9552 35.9632L26.2701 34.5383C26.3648 34.1082 26.7915 33.8368 27.2216 33.9315C27.6528 34.0262 27.9243 34.4527 27.8296 34.8829L27.4577 36.5668C28.5632 37.1212 29.5569 37.8845 30.3783 38.8143L31.0879 35.6038C31.1837 35.1727 31.6104 34.9012 32.0405 34.9959C32.4707 35.0917 32.7432 35.5171 32.6474 35.9485L31.6309 40.546C32.6964 39.9813 33.8932 39.679 35.1105 39.679C35.1538 39.679 35.1972 39.679 35.2406 39.6813L35.9069 36.6683C36.0027 36.2382 36.4294 35.9657 36.8595 36.0615C37.2897 36.1562 37.5622 36.5828 37.4664 37.013L36.832 39.8845C38.339 40.245 39.7035 41.0732 40.7212 42.2472L42.0583 36.1996C42.4084 34.6124 41.3976 33.0267 39.8107 32.6753Z" fill="white"/>
<path d="M39.8107 32.6753L34.4944 31.5002L31.2875 30.7918L25.9723 29.6178C24.3854 29.2665 22.7997 30.2784 22.4483 31.8653L21.6098 35.6631C22.1117 35.5821 22.6251 35.5411 23.1465 35.5411C24.1139 35.5411 25.0585 35.6871 25.9552 35.9632L26.2701 34.5383C26.3648 34.1082 26.7915 33.8368 27.2216 33.9315C27.6528 34.0262 27.9243 34.4527 27.8296 34.8829L27.4577 36.5668C28.5632 37.1212 29.5569 37.8845 30.3783 38.8143L31.0879 35.6038C31.1837 35.1727 31.6104 34.9012 32.0405 34.9959C32.4707 35.0917 32.7432 35.5171 32.6474 35.9485L31.6309 40.546C32.6964 39.9813 33.8932 39.679 35.1105 39.679C35.1538 39.679 35.1972 39.679 35.2406 39.6813L35.9069 36.6683C36.0027 36.2382 36.4294 35.9657 36.8595 36.0615C37.2897 36.1562 37.5622 36.5828 37.4664 37.013L36.832 39.8845C38.339 40.245 39.7035 41.0732 40.7212 42.2472L42.0583 36.1996C42.4084 34.6124 41.3976 33.0267 39.8107 32.6753Z" fill="white"/>
<path d="M43.4899 2.21145L42.7541 5.54156L40.3492 5.00993L37.1423 4.30147L34.7374 3.76984L35.4744 0.439728L43.4899 2.21145Z" fill="white"/>
</g>
<defs>
<clipPath id="clip0_151_434">
<rect width="58.411" height="52" fill="white"/>
</clipPath>
</defs>
</svg>
