<svg width="216" height="76" viewBox="0 0 216 76" fill="none" xmlns="http://www.w3.org/2000/svg">
<path d="M34.543 44.1058L46.5297 38.7708L53.429 42.772L54.8228 55.8989L46.3206 55.8287L47.575 46.7031L46.1115 45.8607L38.9334 51.4765L34.543 44.1058Z" fill="#9CA3AF"/>
<path d="M54.1953 42.2099L64.7882 50.0018L68.9696 42.4907L60.4674 39.0511V37.3663L68.9696 33.8565L64.7882 26.4156L54.1953 34.2075V42.2099Z" fill="#9CA3AF"/>
<path d="M53.429 33.576L54.8228 20.4492L46.3206 20.5896L47.575 29.7152L46.1115 30.5575L38.8638 24.9418L34.543 32.2423L46.5297 37.5772L53.429 33.576Z" fill="#9CA3AF"/>
<path d="M97.3358 36.6008V48.8988H101.911V33.2261H95.2476V36.6008H97.3358Z" fill="#9CA3AF"/>
<path d="M97.1925 31.024C97.6121 31.4625 98.2509 31.6817 99.1089 31.6817C99.9669 31.6817 100.596 31.4625 100.996 31.024C101.416 30.5662 101.625 29.9942 101.625 29.308C101.625 28.6025 101.416 28.0305 100.996 27.592C100.596 27.1345 99.9669 26.9056 99.1089 26.9056C98.2509 26.9056 97.6121 27.1345 97.1925 27.592C96.7923 28.0305 96.592 28.6025 96.592 29.308C96.592 29.9942 96.7923 30.5662 97.1925 31.024Z" fill="#9CA3AF"/>
<path d="M81.4059 48.5555C82.7023 49.1466 84.2944 49.4423 86.1818 49.4423C87.9549 49.4423 89.4802 49.1657 90.7578 48.6128C92.0353 48.0599 93.0172 47.2876 93.7034 46.2963C94.409 45.2856 94.7618 44.113 94.7618 42.7784C94.7618 41.4819 94.4283 40.3856 93.761 39.4894C93.1125 38.5743 92.2071 37.8593 91.0438 37.3446C89.8809 36.8106 88.5365 36.4769 87.0112 36.3436L85.4099 36.2006C84.4565 36.1241 83.7699 35.8669 83.3503 35.4282C82.9312 34.9898 82.7212 34.4749 82.7212 33.884C82.7212 33.4262 82.8359 33.0069 83.0643 32.6256C83.2932 32.2251 83.6363 31.9106 84.0941 31.6817C84.5708 31.453 85.1524 31.3386 85.8387 31.3386C86.5631 31.3386 87.1636 31.4719 87.6403 31.739C87.7453 31.7954 87.8448 31.8558 87.9388 31.9198L87.9613 31.9357C87.9963 31.9599 88.0309 31.985 88.064 32.0103C88.3537 32.2316 88.5844 32.4939 88.7558 32.7971C89.0035 33.2167 89.1279 33.6837 89.1279 34.1986H93.7034C93.7034 32.8257 93.3889 31.634 92.7598 30.6236C92.1307 29.594 91.2252 28.8028 90.043 28.2497C88.8796 27.6777 87.4782 27.3917 85.8387 27.3917C84.2751 27.3917 82.9215 27.6588 81.7775 28.1926C80.6335 28.7075 79.7373 29.451 79.0893 30.4232C78.4598 31.3957 78.1452 32.5494 78.1452 33.884C78.1452 35.7334 78.7651 37.2205 80.0044 38.3456C81.2438 39.4705 82.9027 40.1187 84.9807 40.2903L86.5539 40.4333C87.831 40.5477 88.7558 40.8051 89.3278 41.2054C89.8998 41.5867 90.1858 42.111 90.1858 42.7784C90.1858 43.0851 90.1356 43.3727 90.0352 43.6414C89.9606 43.8408 89.8583 44.0299 89.7284 44.2084C89.4231 44.6088 88.975 44.9234 88.3841 45.1523C87.7932 45.3809 87.0591 45.4954 86.1818 45.4954C85.2095 45.4954 84.4183 45.362 83.8081 45.0949C83.1979 44.8089 82.7405 44.4373 82.4352 43.9797C82.1492 43.5219 82.0064 43.0264 82.0064 42.4924H77.459C77.459 43.8461 77.7924 45.0473 78.4598 46.0959C79.1271 47.1257 80.1094 47.9455 81.4059 48.5555Z" fill="#9CA3AF"/>
<path d="M112.121 49.0989C110.539 49.0989 109.261 48.9083 108.289 48.5269C107.316 48.1265 106.602 47.4688 106.144 46.5537C105.705 45.6193 105.486 44.361 105.486 42.7784V36.5722H103.112V33.2261H105.486V28.9935H109.748V33.2261H114.324V36.5722H109.748V42.9501C109.748 43.6937 109.938 44.2657 110.32 44.6659C110.72 45.0473 111.282 45.2379 112.007 45.2379H114.324V49.0989H112.121Z" fill="#9CA3AF"/>
<path fill-rule="evenodd" clip-rule="evenodd" d="M119.833 48.7558C120.862 49.2134 122.045 49.4423 123.379 49.4423C124.695 49.4423 125.858 49.2134 126.868 48.7558C127.879 48.2983 128.718 47.6595 129.385 46.8397C130.053 46.0197 130.501 45.0855 130.729 44.0368H126.525C126.335 44.5135 125.972 44.9139 125.438 45.2379C124.905 45.5621 124.218 45.7243 123.379 45.7243C122.86 45.7243 122.395 45.6628 121.986 45.5398C121.675 45.4463 121.396 45.3171 121.148 45.1523C120.576 44.7709 120.157 44.2369 119.89 43.5507C119.816 43.3552 119.752 43.1507 119.699 42.9377C119.645 42.7219 119.601 42.4974 119.568 42.2637H131.015V40.7193C131.015 39.2893 130.71 37.9737 130.1 36.7726C129.49 35.5521 128.603 34.5702 127.44 33.8267C126.296 33.064 124.885 32.6827 123.208 32.6827C121.93 32.6827 120.786 32.9116 119.776 33.3691C118.784 33.8076 117.955 34.4081 117.288 35.1708C116.62 35.9335 116.105 36.8011 115.743 37.7736C115.4 38.7267 115.229 39.7277 115.229 40.7764V41.3484C115.229 42.359 115.4 43.3504 115.743 44.3228C116.105 45.2761 116.62 46.1436 117.288 46.9254C117.974 47.688 118.822 48.2983 119.833 48.7558ZM119.647 39.4357C119.659 39.3751 119.673 39.3155 119.688 39.2568C119.727 39.0951 119.773 38.9402 119.825 38.7921C119.854 38.7078 119.886 38.6256 119.919 38.5457C120.205 37.8401 120.624 37.3064 121.177 36.9441C121.384 36.8087 121.608 36.6987 121.848 36.6139C122.253 36.4718 122.706 36.4007 123.208 36.4007C123.99 36.4007 124.638 36.5819 125.152 36.9441C125.686 37.2872 126.087 37.7925 126.354 38.4598C126.375 38.5137 126.396 38.5685 126.416 38.624C126.447 38.7124 126.476 38.8031 126.504 38.8962C126.544 39.0346 126.58 39.1778 126.61 39.3259C126.633 39.435 126.653 39.5467 126.67 39.6611H119.603C119.616 39.5847 119.631 39.5096 119.647 39.4357Z" fill="#9CA3AF"/>
<path d="M132.903 48.8988V33.2261H136.536V37.1735C136.585 36.9388 136.641 36.7136 136.704 36.4976C136.758 36.3157 136.816 36.1403 136.879 35.9717C137.28 34.9039 137.88 34.1033 138.681 33.5692C139.481 33.0164 140.463 32.74 141.627 32.74H141.827C143.009 32.74 143.991 33.0164 144.773 33.5692C145.573 34.1033 146.174 34.9039 146.574 35.9717L146.606 36.0523L146.633 36.126C146.651 36.0739 146.67 36.0226 146.689 35.9717C147.108 34.9039 147.718 34.1033 148.519 33.5692C149.32 33.0164 150.302 32.74 151.465 32.74H151.665C152.847 32.74 153.839 33.0164 154.639 33.5692C155.459 34.1033 156.079 34.9039 156.498 35.9717C156.918 37.0395 157.128 38.3741 157.128 39.9757V48.8988H152.552V39.7183C152.552 38.8603 152.323 38.1644 151.865 37.6306C151.427 37.0966 150.798 36.8297 149.978 36.8297C149.158 36.8297 148.51 37.1063 148.033 37.6591C147.556 38.1929 147.318 38.9079 147.318 39.8041V48.8988H142.713V39.7183C142.713 38.8603 142.485 38.1644 142.027 37.6306C141.588 37.0966 140.969 36.8297 140.168 36.8297C139.329 36.8297 138.671 37.1063 138.195 37.6591C137.718 38.1929 137.479 38.9079 137.479 39.8041V48.8988H132.903Z" fill="#9CA3AF"/>
<path fill-rule="evenodd" clip-rule="evenodd" d="M169.351 45.879V48.8988H172.983V39.2893C172.983 37.8401 172.697 36.6581 172.125 35.7428C171.553 34.8086 170.714 34.1127 169.609 33.6551C168.522 33.1976 167.177 32.9687 165.576 32.9687C165.229 32.9687 164.866 32.9724 164.489 32.98C164.265 32.9846 164.036 32.9903 163.802 32.9972C163.173 33.0164 162.563 33.0449 161.972 33.0831L161.521 33.1135C161.289 33.1297 161.071 33.1455 160.866 33.1617C160.712 33.1736 160.566 33.1856 160.428 33.1976V37.0586C161.019 37.0204 161.677 36.9821 162.402 36.9441C162.604 36.9335 162.805 36.9236 163.004 36.9144C163.292 36.9011 163.576 36.8896 163.857 36.8794C164.079 36.8714 164.299 36.8642 164.518 36.8582C165.204 36.8391 165.757 36.8297 166.177 36.8297C167.015 36.8297 167.625 37.0298 168.007 37.4302C168.388 37.8307 168.579 38.4313 168.579 39.2321V39.2893H165.747C164.356 39.2893 163.126 39.4705 162.058 39.8327C160.99 40.1758 160.161 40.7193 159.57 41.4628C158.979 42.1875 158.684 43.1217 158.684 44.2657C158.684 45.3144 158.922 46.22 159.398 46.9827C159.875 47.7263 160.533 48.2983 161.372 48.6985C162.23 49.0989 163.221 49.2993 164.346 49.2993C165.433 49.2993 166.348 49.0989 167.092 48.6985C167.854 48.2983 168.445 47.7263 168.865 46.9827C168.939 46.8574 169.008 46.7273 169.072 46.5924C169.162 46.4013 169.243 46.2005 169.315 45.99L169.351 45.879ZM168.579 43.0931V41.8347H165.719C164.918 41.8347 164.299 42.0348 163.86 42.4353C163.44 42.8166 163.23 43.3409 163.23 44.0083C163.23 44.3223 163.283 44.6079 163.388 44.8651C163.493 45.123 163.65 45.3521 163.86 45.5527C164.299 45.934 164.918 46.1247 165.719 46.1247C165.871 46.1247 166.019 46.1171 166.161 46.1021C166.277 46.0899 166.39 46.0727 166.499 46.0503C166.709 46.0077 166.907 45.9467 167.092 45.8673C167.511 45.6766 167.854 45.362 168.121 44.9234C168.388 44.4849 168.541 43.8747 168.579 43.0931Z" fill="#9CA3AF"/>
<path d="M175.721 48.8988V33.2261H179.354V38.3992C179.528 36.9225 179.966 35.7317 180.67 34.8277C181.623 33.6266 182.995 33.026 184.788 33.026H185.388V36.9727H184.244C182.986 36.9727 182.013 37.3158 181.327 38.0022C180.641 38.6696 180.297 39.642 180.297 40.9194V48.8988H175.721Z" fill="#9CA3AF"/>
<path d="M191.191 41.5773H192.707L197.655 48.8988H202.803L196.529 39.9071L201.687 33.2261H196.883L191.191 40.6783V28.021H186.615V48.8988H191.191V41.5773Z" fill="#9CA3AF"/>
</svg>
