<svg width="64" height="56" viewBox="0 0 64 56" fill="none" xmlns="http://www.w3.org/2000/svg">
<path d="M48 18.8967C39.1634 18.8967 32 11.7598 32 2.95605L64 2.95605C64 11.7598 56.8366 18.8967 48 18.8967Z" fill="#FBE0E0"/>
<path d="M7 45.5V14C7 13.5359 7.18437 13.0908 7.51256 12.7626C7.84075 12.4344 8.28587 12.25 8.75 12.25H20.4094C20.7878 12.2516 21.1557 12.3742 21.4594 12.6L27.5406 17.15C27.8443 17.3758 28.2122 17.4984 28.5906 17.5H43.75C44.2141 17.5 44.6592 17.6844 44.9874 18.0126C45.3156 18.3408 45.5 18.7859 45.5 19.25V24.5" stroke="black" stroke-width="3" stroke-linecap="round" stroke-linejoin="round"/>
<path d="M7 45.5L13.5625 29.0938C13.6905 28.7694 13.9136 28.4914 14.2025 28.2962C14.4914 28.101 14.8326 27.9977 15.1813 28H25.725C26.066 27.9964 26.3993 27.8979 26.6875 27.7156L31.0625 24.7844C31.3507 24.6021 31.684 24.5036 32.025 24.5H50.0719C50.3486 24.5 50.6214 24.5656 50.8678 24.6914C51.1143 24.8173 51.3274 24.9997 51.4896 25.2239C51.6519 25.4481 51.7587 25.7075 51.8012 25.981C51.8438 26.2544 51.8209 26.534 51.7344 26.7969L45.5 45.5H7Z" stroke="black" stroke-width="3" stroke-linecap="round" stroke-linejoin="round"/>
</svg>
