<svg width="166" height="40" viewBox="0 0 166 40" fill="none" xmlns="http://www.w3.org/2000/svg">
<path d="M0 20C0 31.0453 8.81627 40 19.6908 40C23.6529 40 27.341 38.8128 30.4298 36.7662L40 40L36.6427 30.1804C38.3837 27.1973 39.3817 23.7157 39.3817 19.9972C39.3844 8.95468 30.5681 -1.90735e-06 19.6908 -1.90735e-06C8.81356 -1.90735e-06 0 8.95468 0 20Z" fill="#1F25B4"/>
<circle cx="12" cy="20" r="3" fill="white"/>
<circle cx="20" cy="20" r="3" fill="white"/>
<circle cx="28" cy="20" r="3" fill="white"/>
<path d="M52 30.4456V8.99998H56.1191V30.4456H52ZM64.9376 30.4456L58.4398 21.1671H63.0521L69.7529 30.4456H64.9376ZM54.9008 23.3262V19.9708H60.2963C61.0505 19.9708 61.6984 19.8152 62.2398 19.504C62.8007 19.1927 63.2358 18.7551 63.5452 18.191C63.8546 17.6269 64.0093 16.9849 64.0093 16.2652C64.0093 15.5261 63.8546 14.8744 63.5452 14.3103C63.2358 13.7462 62.8007 13.3086 62.2398 12.9973C61.6984 12.6861 61.0505 12.5305 60.2963 12.5305H54.9008V8.99998H59.8612C61.563 8.99998 63.0327 9.25285 64.2704 9.7586C65.5274 10.2643 66.4944 11.0327 67.1712 12.0636C67.8481 13.0946 68.1865 14.3881 68.1865 15.9443V16.4111C68.1865 17.9867 67.8384 19.2803 67.1422 20.2918C66.4653 21.3032 65.5081 22.0619 64.2704 22.5676C63.0327 23.0734 61.563 23.3262 59.8612 23.3262H54.9008Z" fill="#424858"/>
<path d="M78.7443 31C77.3906 31 76.2012 30.7666 75.1763 30.2997C74.1707 29.8329 73.3294 29.2104 72.6526 28.4323C71.9951 27.6348 71.4923 26.7498 71.1442 25.7772C70.8154 24.8046 70.651 23.8125 70.651 22.801V22.2467C70.651 21.1963 70.8154 20.1848 71.1442 19.2122C71.4923 18.2201 71.9951 17.3448 72.6526 16.5862C73.3294 15.8081 74.161 15.1954 75.1473 14.748C76.1336 14.2811 77.2745 14.0477 78.5702 14.0477C80.272 14.0477 81.6934 14.427 82.8344 15.1857C83.9947 15.9248 84.865 16.9071 85.4451 18.1326C86.0253 19.3386 86.3154 20.6419 86.3154 22.0424V23.5013H72.3625V21.0212H83.7917L82.5443 22.2467C82.5443 21.2352 82.3993 20.3696 82.1092 19.6498C81.8191 18.9301 81.3743 18.3758 80.7748 17.9867C80.1947 17.5977 79.4598 17.4032 78.5702 17.4032C77.6806 17.4032 76.9264 17.6074 76.3076 18.0159C75.6888 18.4244 75.215 19.0177 74.8862 19.7957C74.5768 20.5544 74.4221 21.4686 74.4221 22.5384C74.4221 23.5305 74.5768 24.4155 74.8862 25.1936C75.1956 25.9522 75.6694 26.5552 76.3076 27.0026C76.9458 27.4306 77.758 27.6445 78.7443 27.6445C79.7306 27.6445 80.5331 27.45 81.1519 27.061C81.7708 26.6525 82.1672 26.1565 82.3413 25.5729H86.0543C85.8222 26.6622 85.3775 27.6154 84.7199 28.4323C84.0624 29.2493 83.2212 29.8815 82.1962 30.3289C81.1906 30.7763 80.04 31 78.7443 31Z" fill="#424858"/>
<path d="M98.6472 30.4456V25.748H97.98V20.5252C97.98 19.6109 97.7576 18.9301 97.3128 18.4827C96.868 18.0353 96.1815 17.8116 95.2533 17.8116C94.7698 17.8116 94.1896 17.8214 93.5128 17.8408C92.8359 17.8603 92.1494 17.8895 91.4532 17.9284C90.7763 17.9478 90.1672 17.977 89.6257 18.0159V14.5729C90.0705 14.534 90.5733 14.4951 91.1341 14.4562C91.6949 14.4173 92.2654 14.3979 92.8456 14.3979C93.4451 14.3784 94.0059 14.3687 94.528 14.3687C96.1525 14.3687 97.4965 14.5826 98.5602 15.0106C99.6431 15.4385 100.455 16.1096 100.997 17.0239C101.558 17.9381 101.838 19.1344 101.838 20.6127V30.4456H98.6472ZM93.5708 30.8541C92.4298 30.8541 91.4242 30.6498 90.554 30.2414C89.703 29.8329 89.0359 29.2493 88.5524 28.4907C88.0883 27.7321 87.8562 26.8178 87.8562 25.748C87.8562 24.5809 88.1366 23.6277 88.6974 22.8886C89.2776 22.1494 90.0802 21.595 91.1051 21.2254C92.1494 20.8559 93.3677 20.6711 94.7601 20.6711H98.4151V23.0928H94.7021C93.7738 23.0928 93.0583 23.3262 92.5555 23.7931C92.072 24.2405 91.8303 24.824 91.8303 25.5437C91.8303 26.2635 92.072 26.847 92.5555 27.2944C93.0583 27.7418 93.7738 27.9655 94.7021 27.9655C95.2629 27.9655 95.7754 27.8682 96.2395 27.6737C96.723 27.4597 97.1194 27.1096 97.4289 26.6233C97.7576 26.1176 97.9413 25.4368 97.98 24.5809L98.9663 25.7188C98.8696 26.8276 98.5989 27.7612 98.1541 28.5199C97.7286 29.2785 97.1291 29.862 96.3556 30.2705C95.6013 30.6596 94.6731 30.8541 93.5708 30.8541Z" fill="#424858"/>
<path d="M105.78 30.4456V9.14587H109.812V30.4456H105.78ZM103.807 12.1803V9.14587H109.812V12.1803H103.807Z" fill="#424858"/>
<path d="M120.681 30.6498C119.231 30.6498 118.032 30.4651 117.084 30.0955C116.156 29.7064 115.46 29.0645 114.995 28.1697C114.531 27.2555 114.299 26.03 114.299 24.4933L114.328 10.1379H118.099L118.07 24.7559C118.07 25.534 118.273 26.137 118.68 26.565C119.105 26.9735 119.704 27.1777 120.478 27.1777H122.944V30.6498H120.681ZM111.805 17.5782V14.6021H122.944V17.5782H111.805Z" fill="#424858"/>
<path d="M135.235 30.4456V25.748H134.568V20.5252C134.568 19.6109 134.345 18.9301 133.9 18.4827C133.456 18.0353 132.769 17.8116 131.841 17.8116C131.357 17.8116 130.777 17.8214 130.1 17.8408C129.423 17.8603 128.737 17.8895 128.041 17.9284C127.364 17.9478 126.755 17.977 126.213 18.0159V14.5729C126.658 14.534 127.161 14.4951 127.722 14.4562C128.282 14.4173 128.853 14.3979 129.433 14.3979C130.033 14.3784 130.593 14.3687 131.116 14.3687C132.74 14.3687 134.084 14.5826 135.148 15.0106C136.231 15.4385 137.043 16.1096 137.584 17.0239C138.145 17.9381 138.426 19.1344 138.426 20.6127V30.4456H135.235ZM130.158 30.8541C129.017 30.8541 128.012 30.6498 127.141 30.2414C126.291 29.8329 125.623 29.2493 125.14 28.4907C124.676 27.7321 124.444 26.8178 124.444 25.748C124.444 24.5809 124.724 23.6277 125.285 22.8886C125.865 22.1494 126.668 21.595 127.693 21.2254C128.737 20.8559 129.955 20.6711 131.348 20.6711H135.003V23.0928H131.29C130.361 23.0928 129.646 23.3262 129.143 23.7931C128.66 24.2405 128.418 24.824 128.418 25.5437C128.418 26.2635 128.66 26.847 129.143 27.2944C129.646 27.7418 130.361 27.9655 131.29 27.9655C131.85 27.9655 132.363 27.8682 132.827 27.6737C133.311 27.4597 133.707 27.1096 134.016 26.6233C134.345 26.1176 134.529 25.4368 134.568 24.5809L135.554 25.7188C135.457 26.8276 135.186 27.7612 134.742 28.5199C134.316 29.2785 133.717 29.862 132.943 30.2705C132.189 30.6596 131.261 30.8541 130.158 30.8541Z" fill="#424858"/>
<path d="M142.368 30.4456V9.14587H146.4V30.4456H142.368ZM140.395 12.1803V9.14587H146.4V12.1803H140.395Z" fill="#424858"/>
<path d="M161.446 30.4456L156.166 23.0345H153.817L160.517 14.6021H164.724L158.545 22.3925L158.632 20.3501L166 30.4456H161.446ZM150.423 30.4456V9.14587H154.455V30.4456H150.423Z" fill="#424858"/>
</svg>
