<svg width="135" height="52" viewBox="0 0 135 52" fill="none" xmlns="http://www.w3.org/2000/svg">
<path d="M44.5734 29.3085L43.7216 28.8145C42.7079 28.2279 42.1023 27.1749 42.1023 26C42.1023 24.8251 42.7079 23.7721 43.7216 23.1855L44.5734 22.6915C46.8987 21.3428 47.6938 18.3658 46.3514 16.0323L44.732 13.2177C43.3929 10.8891 40.4149 10.0896 38.0961 11.4335L37.2443 11.9259C36.2306 12.5141 35.0178 12.5141 34.0057 11.9259C32.992 11.3376 32.3864 10.2862 32.3864 9.11137V8.125C32.3864 5.43725 30.2068 3.25 27.5284 3.25H24.2898C21.6114 3.25 19.4318 5.43725 19.4318 8.125V9.113C19.4318 10.2879 18.8262 11.3393 17.8125 11.9275C16.7988 12.5141 15.5876 12.5157 14.5739 11.9275L13.7221 11.4335C11.4032 10.0896 8.42531 10.8891 7.08452 13.2177L5.4652 16.0323C4.12278 18.3658 4.91787 21.3444 7.24321 22.6915L8.09659 23.1855C9.11029 23.7721 9.71591 24.8251 9.71591 26C9.71591 27.1749 9.11029 28.2279 8.09659 28.8145L7.24483 29.3085C4.91949 30.6556 4.1244 33.6343 5.46682 35.9678L7.08614 38.7822C8.42693 41.1109 11.4049 41.9104 13.7221 40.5665L14.5739 40.0741C15.5876 39.4842 16.7988 39.4875 17.8125 40.0741C18.8262 40.6624 19.4318 41.7137 19.4318 42.8886V43.875C19.4318 46.5628 21.6114 48.75 24.2898 48.75H27.5284C30.2068 48.75 32.3864 46.5628 32.3864 43.875V42.887C32.3864 41.7121 32.992 40.6608 34.0057 40.0725C35.0178 39.4859 36.2306 39.4842 37.2443 40.0725L38.0961 40.5665C40.4149 41.9088 43.3929 41.1092 44.732 38.7822L46.3514 35.9678C47.6938 33.6343 46.8987 30.6556 44.5734 29.3085ZM25.9091 34.125C21.4446 34.125 17.8125 30.4801 17.8125 26C17.8125 21.5199 21.4446 17.875 25.9091 17.875C30.3736 17.875 34.0057 21.5199 34.0057 26C34.0057 30.4801 30.3736 34.125 25.9091 34.125Z" fill="#2348CD"/>
<path d="M55.9091 20.4134C55.9091 19.3823 56.145 18.4613 56.6168 17.6504C57.0988 16.8295 57.7501 16.1939 58.5706 15.7434C59.4014 15.2829 60.3296 15.0526 61.3553 15.0526C62.5553 15.0526 63.6066 15.353 64.5091 15.9536C65.4117 16.5542 66.0425 17.3851 66.4015 18.4463H63.9245C63.6784 17.9457 63.3297 17.5703 62.8784 17.3201C62.4373 17.0698 61.9245 16.9447 61.3399 16.9447C60.7142 16.9447 60.1553 17.0898 59.663 17.3801C59.1809 17.6604 58.8014 18.0609 58.5245 18.5814C58.2578 19.102 58.1245 19.7126 58.1245 20.4134C58.1245 21.1041 58.2578 21.7148 58.5245 22.2453C58.8014 22.7659 59.1809 23.1713 59.663 23.4616C60.1553 23.7419 60.7142 23.8821 61.3399 23.8821C61.9245 23.8821 62.4373 23.7569 62.8784 23.5067C63.3297 23.2464 63.6784 22.866 63.9245 22.3655H66.4015C66.0425 23.4366 65.4117 24.2725 64.5091 24.8731C63.6168 25.4638 62.5655 25.7591 61.3553 25.7591C60.3296 25.7591 59.4014 25.5338 58.5706 25.0834C57.7501 24.6229 57.0988 23.9872 56.6168 23.1763C56.145 22.3655 55.9091 21.4445 55.9091 20.4134Z" fill="#1A1A1A"/>
<path d="M72.0258 25.8041C71.2053 25.8041 70.4668 25.629 69.8104 25.2786C69.154 24.9182 68.636 24.4127 68.2565 23.762C67.8873 23.1113 67.7027 22.3605 67.7027 21.5095C67.7027 20.6586 67.8924 19.9078 68.2719 19.2571C68.6617 18.6064 69.1899 18.1059 69.8565 17.7555C70.5232 17.3951 71.2668 17.2149 72.0873 17.2149C72.9078 17.2149 73.6514 17.3951 74.3181 17.7555C74.9848 18.1059 75.5079 18.6064 75.8873 19.2571C76.2771 19.9078 76.472 20.6586 76.472 21.5095C76.472 22.3605 76.272 23.1113 75.872 23.762C75.4822 24.4127 74.9489 24.9182 74.272 25.2786C73.6053 25.629 72.8566 25.8041 72.0258 25.8041ZM72.0258 23.9722C72.4155 23.9722 72.7796 23.8821 73.1181 23.7019C73.4668 23.5117 73.7437 23.2314 73.9489 22.861C74.154 22.4906 74.2566 22.0401 74.2566 21.5095C74.2566 20.7187 74.0412 20.113 73.6104 19.6926C73.1899 19.2621 72.6719 19.0469 72.0566 19.0469C71.4412 19.0469 70.9232 19.2621 70.5027 19.6926C70.0924 20.113 69.8873 20.7187 69.8873 21.5095C69.8873 22.3004 70.0873 22.911 70.4873 23.3415C70.8976 23.762 71.4104 23.9722 72.0258 23.9722Z" fill="#1A1A1A"/>
<path d="M88.6366 17.23C89.6828 17.23 90.5238 17.5453 91.1597 18.176C91.8058 18.7966 92.1289 19.6676 92.1289 20.7888V25.669H89.9751V21.0741C89.9751 20.4234 89.8058 19.9278 89.4674 19.5875C89.1289 19.2371 88.6674 19.0619 88.0827 19.0619C87.4981 19.0619 87.0315 19.2371 86.6827 19.5875C86.3443 19.9278 86.175 20.4234 86.175 21.0741V25.669H84.0212V21.0741C84.0212 20.4234 83.8519 19.9278 83.5135 19.5875C83.175 19.2371 82.7135 19.0619 82.1289 19.0619C81.534 19.0619 81.0622 19.2371 80.7135 19.5875C80.375 19.9278 80.2058 20.4234 80.2058 21.0741V25.669H78.0519V17.3501H80.2058V18.3562C80.4827 18.0058 80.8365 17.7305 81.2673 17.5303C81.7083 17.3301 82.1904 17.23 82.7135 17.23C83.3801 17.23 83.975 17.3701 84.4981 17.6504C85.0212 17.9207 85.4263 18.3111 85.7135 18.8217C85.9904 18.3412 86.3904 17.9557 86.9135 17.6654C87.4468 17.3751 88.0212 17.23 88.6366 17.23Z" fill="#1A1A1A"/>
<path d="M96.3267 18.5514C96.6036 18.171 96.9831 17.8556 97.4651 17.6054C97.9574 17.3451 98.5164 17.2149 99.1421 17.2149C99.8703 17.2149 100.527 17.3901 101.111 17.7405C101.706 18.0909 102.173 18.5914 102.511 19.2421C102.86 19.8828 103.034 20.6286 103.034 21.4795C103.034 22.3304 102.86 23.0862 102.511 23.7469C102.173 24.3976 101.706 24.9032 101.111 25.2636C100.527 25.6239 99.8703 25.8041 99.1421 25.8041C98.5164 25.8041 97.9626 25.679 97.4805 25.4287C97.0087 25.1785 96.6241 24.8631 96.3267 24.4827V29.6332H94.1728V17.3501H96.3267V18.5514ZM100.834 21.4795C100.834 20.979 100.727 20.5485 100.511 20.1881C100.306 19.8177 100.029 19.5374 99.6805 19.3472C99.3421 19.157 98.9728 19.0619 98.5728 19.0619C98.1831 19.0619 97.8139 19.162 97.4651 19.3622C97.1267 19.5524 96.8497 19.8327 96.6344 20.2031C96.4292 20.5735 96.3267 21.009 96.3267 21.5095C96.3267 22.0101 96.4292 22.4455 96.6344 22.8159C96.8497 23.1863 97.1267 23.4716 97.4651 23.6719C97.8139 23.8621 98.1831 23.9572 98.5728 23.9572C98.9728 23.9572 99.3421 23.8571 99.6805 23.6568C100.029 23.4566 100.306 23.1713 100.511 22.8009C100.727 22.4305 100.834 21.9901 100.834 21.4795Z" fill="#1A1A1A"/>
<path d="M112.646 17.3501V25.669H110.477V24.6179C110.2 24.9783 109.835 25.2636 109.384 25.4738C108.943 25.674 108.461 25.7741 107.938 25.7741C107.271 25.7741 106.682 25.639 106.169 25.3687C105.656 25.0884 105.251 24.6829 104.953 24.1524C104.666 23.6118 104.523 22.9711 104.523 22.2303V17.3501H106.676V21.93C106.676 22.5907 106.846 23.1012 107.184 23.4616C107.523 23.812 107.984 23.9872 108.569 23.9872C109.164 23.9872 109.63 23.812 109.969 23.4616C110.307 23.1012 110.477 22.5907 110.477 21.93V17.3501H112.646Z" fill="#1A1A1A"/>
<path d="M117.279 19.0769V23.1012C117.279 23.3815 117.345 23.5868 117.479 23.7169C117.622 23.837 117.858 23.8971 118.186 23.8971H119.186V25.669H117.832C116.017 25.669 115.109 24.8081 115.109 23.0862V19.0769H114.094V17.3501H115.109V15.2929H117.279V17.3501H119.186V19.0769H117.279Z" fill="#1A1A1A"/>
<path d="M128.659 21.3293C128.659 21.6297 128.638 21.9 128.597 22.1402H122.366C122.418 22.7409 122.633 23.2114 123.012 23.5517C123.392 23.8921 123.859 24.0623 124.412 24.0623C125.212 24.0623 125.782 23.7269 126.12 23.0562H128.443C128.197 23.8571 127.725 24.5178 127.028 25.0383C126.33 25.5489 125.474 25.8041 124.459 25.8041C123.638 25.8041 122.9 25.629 122.243 25.2786C121.597 24.9182 121.089 24.4127 120.72 23.762C120.361 23.1113 120.182 22.3605 120.182 21.5095C120.182 20.6486 120.361 19.8928 120.72 19.2421C121.079 18.5914 121.582 18.0909 122.228 17.7405C122.874 17.3901 123.618 17.2149 124.459 17.2149C125.269 17.2149 125.992 17.3851 126.628 17.7255C127.274 18.0659 127.771 18.5514 128.12 19.1821C128.479 19.8027 128.659 20.5185 128.659 21.3293ZM126.428 20.7287C126.418 20.1881 126.218 19.7577 125.828 19.4373C125.438 19.107 124.961 18.9418 124.397 18.9418C123.864 18.9418 123.412 19.102 123.043 19.4223C122.684 19.7326 122.464 20.1681 122.382 20.7287H126.428Z" fill="#1A1A1A"/>
<path d="M132.385 18.6415C132.662 18.201 133.021 17.8556 133.462 17.6054C133.913 17.3551 134.426 17.23 135 17.23V19.4373H134.431C133.754 19.4373 133.241 19.5925 132.892 19.9028C132.554 20.2132 132.385 20.7537 132.385 21.5246V25.669H130.231V17.3501H132.385V18.6415Z" fill="#1A1A1A"/>
<path d="M61.9707 42.5621L59.6014 38.4777H58.586V42.5621H56.4322V32.0809H60.463C61.2937 32.0809 62.0014 32.226 62.5861 32.5163C63.1707 32.7966 63.6066 33.182 63.8938 33.6726C64.1912 34.1531 64.3399 34.6937 64.3399 35.2943C64.3399 35.985 64.1348 36.6107 63.7245 37.1713C63.3143 37.7219 62.704 38.1023 61.8937 38.3125L64.463 42.5621H61.9707ZM58.586 36.901H60.386C60.9707 36.901 61.4066 36.7659 61.6937 36.4956C61.9809 36.2153 62.1245 35.8299 62.1245 35.3393C62.1245 34.8588 61.9809 34.4884 61.6937 34.2282C61.4066 33.9579 60.9707 33.8227 60.386 33.8227H58.586V36.901Z" fill="#1A1A1A"/>
<path d="M74.2111 38.2224C74.2111 38.5228 74.1906 38.793 74.1496 39.0333H67.9188C67.9701 39.6339 68.1855 40.1044 68.5649 40.4448C68.9444 40.7852 69.4111 40.9554 69.965 40.9554C70.765 40.9554 71.3342 40.62 71.6727 39.9493H73.9957C73.7496 40.7501 73.2778 41.4108 72.5804 41.9314C71.8829 42.4419 71.0265 42.6972 70.0111 42.6972C69.1906 42.6972 68.4521 42.522 67.7957 42.1717C67.1495 41.8113 66.6419 41.3057 66.2726 40.655C65.9136 40.0043 65.7342 39.2535 65.7342 38.4026C65.7342 37.5417 65.9136 36.7859 66.2726 36.1352C66.6316 35.4845 67.1342 34.984 67.7803 34.6336C68.4265 34.2832 69.1701 34.108 70.0111 34.108C70.8214 34.108 71.5444 34.2782 72.1804 34.6186C72.8265 34.9589 73.3239 35.4445 73.6727 36.0751C74.0316 36.6958 74.2111 37.4116 74.2111 38.2224ZM71.9804 37.6218C71.9701 37.0812 71.7701 36.6507 71.3803 36.3304C70.9906 36.0001 70.5137 35.8349 69.9496 35.8349C69.4162 35.8349 68.9649 35.995 68.5957 36.3154C68.2367 36.6257 68.0162 37.0612 67.9342 37.6218H71.9804Z" fill="#1A1A1A"/>
<path d="M77.9371 35.4445C78.214 35.0641 78.5935 34.7487 79.0756 34.4984C79.5679 34.2382 80.1269 34.108 80.7525 34.108C81.4807 34.108 82.1371 34.2832 82.7218 34.6336C83.3166 34.984 83.7833 35.4845 84.1218 36.1352C84.4705 36.7759 84.6449 37.5217 84.6449 38.3726C84.6449 39.2235 84.4705 39.9793 84.1218 40.64C83.7833 41.2907 83.3166 41.7963 82.7218 42.1566C82.1371 42.517 81.4807 42.6972 80.7525 42.6972C80.1269 42.6972 79.573 42.5721 79.091 42.3218C78.6192 42.0715 78.2346 41.7562 77.9371 41.3758V46.5263H75.7833V34.2432H77.9371V35.4445ZM82.4448 38.3726C82.4448 37.8721 82.3371 37.4416 82.1218 37.0812C81.9166 36.7108 81.6397 36.4305 81.291 36.2403C80.9525 36.0501 80.5833 35.955 80.1833 35.955C79.7935 35.955 79.4243 36.0551 79.0756 36.2553C78.7371 36.4455 78.4602 36.7258 78.2448 37.0962C78.0397 37.4666 77.9371 37.9021 77.9371 38.4026C77.9371 38.9032 78.0397 39.3386 78.2448 39.709C78.4602 40.0794 78.7371 40.3647 79.0756 40.5649C79.4243 40.7551 79.7935 40.8502 80.1833 40.8502C80.5833 40.8502 80.9525 40.7501 81.291 40.5499C81.6397 40.3497 81.9166 40.0644 82.1218 39.694C82.3371 39.3236 82.4448 38.8831 82.4448 38.3726Z" fill="#1A1A1A"/>
<path d="M91.3639 41.3758C91.128 41.7562 90.7434 42.0766 90.21 42.3368C89.6767 42.5871 89.1023 42.7122 88.4869 42.7122C87.9536 42.7122 87.4716 42.6071 87.0408 42.3969C86.61 42.1867 86.2715 41.8964 86.0254 41.526C85.7792 41.1556 85.6562 40.7301 85.6562 40.2496C85.6562 39.4788 85.9485 38.8481 86.5331 38.3576C87.128 37.8671 88.0152 37.6218 89.1946 37.6218H91.3639C91.3434 37.0912 91.1844 36.6708 90.887 36.3604C90.5998 36.0401 90.1998 35.8799 89.687 35.8799C89.2357 35.8799 88.8613 36.0001 88.5639 36.2403C88.2664 36.4706 88.0767 36.7959 87.9946 37.2164H85.8408C85.9433 36.6157 86.1639 36.0801 86.5023 35.6096C86.851 35.1291 87.3023 34.7587 87.8562 34.4984C88.4203 34.2282 89.0511 34.093 89.7485 34.093C90.4664 34.093 91.1126 34.2382 91.687 34.5285C92.2716 34.8188 92.728 35.2342 93.0562 35.7748C93.3844 36.3154 93.5485 36.9511 93.5485 37.6819V42.5621H91.3639V41.3758ZM89.1177 41.0154C89.4767 41.0154 89.8254 40.9403 90.1639 40.7902C90.5126 40.64 90.7998 40.4148 91.0254 40.1145C91.2511 39.8141 91.3639 39.4588 91.3639 39.0483V38.9882H89.3177C88.8254 38.9882 88.4562 39.0834 88.21 39.2736C87.9741 39.4638 87.8562 39.714 87.8562 40.0244C87.8562 40.3247 87.9639 40.5649 88.1793 40.7451C88.4049 40.9253 88.7177 41.0154 89.1177 41.0154Z" fill="#1A1A1A"/>
<path d="M96.7675 33.2521C96.388 33.2521 96.0701 33.137 95.8137 32.9067C95.5675 32.6665 95.4445 32.3712 95.4445 32.0208C95.4445 31.6704 95.5675 31.3801 95.8137 31.1499C96.0701 30.9096 96.388 30.7895 96.7675 30.7895C97.147 30.7895 97.4598 30.9096 97.706 31.1499C97.9624 31.3801 98.0906 31.6704 98.0906 32.0208C98.0906 32.3712 97.9624 32.6665 97.706 32.9067C97.4598 33.137 97.147 33.2521 96.7675 33.2521ZM97.8291 34.2432V42.5621H95.6752V34.2432H97.8291Z" fill="#1A1A1A"/>
<path d="M102.111 35.5346C102.388 35.0941 102.747 34.7487 103.188 34.4984C103.639 34.2482 104.152 34.123 104.726 34.123V36.3304H104.157C103.48 36.3304 102.967 36.4856 102.619 36.7959C102.28 37.1062 102.111 37.6468 102.111 38.4176V42.5621H99.9571V34.2432H102.111V35.5346Z" fill="#1A1A1A"/>
</svg>
