<svg width="212" height="51" viewBox="0 0 212 51" fill="none" xmlns="http://www.w3.org/2000/svg">
<path d="M59 43.5191V18H65.5072L71.6454 33.2415H72.2492L78.3539 18H84.9617V43.5191H80.2323V21.7405L80.836 21.8104L74.2282 38.3104H69.3646L62.7232 21.8104L63.3605 21.7405V43.5191H59Z" fill="white"/>
<path d="M89.6275 43.5191V24.5371H93.3172V32.5773H93.2165C93.2165 29.8506 93.7756 27.7881 94.8937 26.3898C96.0117 24.9915 97.6553 24.2924 99.8244 24.2924H100.495V28.5222H99.2206C97.6553 28.5222 96.4366 28.965 95.5645 29.8506C94.7148 30.7129 94.2899 31.9714 94.2899 33.6261V43.5191H89.6275Z" fill="white"/>
<path d="M99.8721 43.5191V37.9258H105.105V43.5191H99.8721Z" fill="white"/>
<path d="M125.047 43.5191V18H129.81V43.5191H125.047ZM108.981 43.5191V18H113.744V43.5191H108.981ZM112.872 32.9269V28.5572H125.919V32.9269H112.872Z" fill="white"/>
<path d="M145.501 43.5191V37.8909H144.729V31.6335C144.729 30.5381 144.472 29.7225 143.958 29.1864C143.444 28.6504 142.65 28.3824 141.576 28.3824C141.017 28.3824 140.347 28.3941 139.564 28.4174C138.781 28.4407 137.987 28.4756 137.182 28.5222C136.4 28.5456 135.695 28.5805 135.069 28.6271V24.5021C135.584 24.4555 136.165 24.4089 136.813 24.3623C137.462 24.3157 138.122 24.2924 138.792 24.2924C139.486 24.2691 140.134 24.2574 140.738 24.2574C142.616 24.2574 144.17 24.5138 145.4 25.0265C146.652 25.5392 147.592 26.3432 148.218 27.4386C148.866 28.5339 149.191 29.9672 149.191 31.7383V43.5191H145.501ZM139.631 44.0085C138.312 44.0085 137.149 43.7638 136.143 43.2744C135.159 42.785 134.387 42.0858 133.828 41.1769C133.291 40.268 133.023 39.1727 133.023 37.8909C133.023 36.4926 133.347 35.3506 133.996 34.465C134.667 33.5794 135.595 32.9153 136.78 32.4725C137.987 32.0297 139.396 31.8083 141.006 31.8083H145.233V34.7097H140.939C139.866 34.7097 139.038 34.9894 138.457 35.5487C137.898 36.0847 137.618 36.7839 137.618 37.6462C137.618 38.5085 137.898 39.2076 138.457 39.7436C139.038 40.2797 139.866 40.5477 140.939 40.5477C141.588 40.5477 142.18 40.4311 142.717 40.1981C143.276 39.9417 143.734 39.5222 144.092 38.9396C144.472 38.3337 144.685 37.518 144.729 36.4926L145.87 37.8559C145.758 39.1843 145.445 40.303 144.931 41.2119C144.439 42.1208 143.745 42.8199 142.851 43.3093C141.979 43.7754 140.906 44.0085 139.631 44.0085Z" fill="white"/>
<path d="M153.178 43.5191V24.5371H156.868V32.6822H156.533C156.533 30.7479 156.779 29.1398 157.271 27.8581C157.762 26.553 158.489 25.5742 159.451 24.9216C160.435 24.2691 161.653 23.9428 163.107 23.9428H163.308C165.477 23.9428 167.121 24.6769 168.239 26.1451C169.357 27.59 169.916 29.7574 169.916 32.6472V43.5191H165.254V32.2278C165.254 31.0625 164.929 30.1186 164.281 29.3962C163.655 28.6737 162.783 28.3125 161.665 28.3125C160.524 28.3125 159.596 28.6854 158.881 29.4311C158.187 30.1536 157.841 31.1324 157.841 32.3676V43.5191H153.178Z" fill="white"/>
<path d="M181.469 44.1483C180.195 44.1483 179.021 43.9036 177.947 43.4142C176.874 42.9248 175.946 42.2373 175.163 41.3517C174.381 40.4661 173.777 39.4407 173.352 38.2754C172.927 37.0869 172.715 35.8051 172.715 34.4301V33.696C172.715 32.3443 172.916 31.0742 173.318 29.8856C173.743 28.697 174.325 27.66 175.063 26.7744C175.823 25.8888 176.729 25.2013 177.78 24.7119C178.853 24.1992 180.038 23.9428 181.335 23.9428C182.766 23.9428 184.018 24.2691 185.092 24.9216C186.187 25.5508 187.06 26.5064 187.708 27.7881C188.357 29.0699 188.714 30.678 188.781 32.6123L187.406 30.9343V18H192.069V43.5191H188.379V35.4439H189.184C189.117 37.3782 188.737 38.9979 188.043 40.303C187.35 41.5847 186.433 42.5519 185.293 43.2044C184.175 43.8337 182.9 44.1483 181.469 44.1483ZM182.509 40.0583C183.426 40.0583 184.264 39.8485 185.025 39.429C185.785 38.9862 186.389 38.357 186.836 37.5413C187.306 36.7023 187.54 35.7235 187.54 34.6049V33.2066C187.54 32.0879 187.306 31.1557 186.836 30.41C186.366 29.6409 185.751 29.0583 184.991 28.6621C184.231 28.2426 183.403 28.0328 182.509 28.0328C181.503 28.0328 180.608 28.2892 179.826 28.8019C179.065 29.2913 178.462 29.9905 178.014 30.8994C177.589 31.8083 177.377 32.8686 177.377 34.0805C177.377 35.2924 177.601 36.3528 178.048 37.2617C178.495 38.1472 179.099 38.8347 179.859 39.3242C180.642 39.8136 181.525 40.0583 182.509 40.0583Z" fill="white"/>
<path d="M195.833 51V46.84H199.254C199.902 46.84 200.439 46.7468 200.864 46.5604C201.311 46.3972 201.68 46.1176 201.971 45.7214C202.262 45.3485 202.485 44.8242 202.642 44.1483L207.539 24.5371H212L206.6 45.197C206.242 46.6186 205.739 47.7489 205.09 48.5879C204.442 49.4502 203.603 50.0678 202.575 50.4407C201.568 50.8136 200.316 51 198.818 51H195.833ZM201.501 43.0996V39.2542H205.392V43.0996H201.501ZM199.925 43.0996L194.021 24.5371H198.717L204.319 43.0996H199.925Z" fill="white"/>
<path d="M25.5001 27.871C28.9097 27.871 36.9261 23.7676 36.9261 13.9354C36.9261 12.5639 36.8928 11.2391 36.7797 9.9873C36.5941 7.52376 36.0896 5.34047 34.8333 3.66726C33.2218 1.39027 30.4026 0 25.5001 0C20.5984 0 17.7793 1.38971 16.1678 3.66598C14.9107 5.33963 14.4059 7.52347 14.2204 9.98786C14.1075 11.2395 14.0742 12.5642 14.0742 13.9355C14.074 23.7676 22.0905 27.871 25.5001 27.871ZM29.2296 5.1053C28.897 5.94636 28.7302 6.36696 28.3972 7.20788C26.2477 6.60058 24.7521 6.60058 22.6026 7.20788C22.2698 6.36696 22.103 5.94636 21.7701 5.1053C24.4583 4.29152 26.5418 4.29166 29.2296 5.1053ZM15.7738 11.8035C15.9055 12.0914 16.4648 13.1985 17.3304 13.3022C18.3255 13.4216 19.9773 9.77813 25.5001 9.76922C31.0227 9.77813 32.6746 13.4216 33.6697 13.3022C34.5354 13.1983 35.0946 12.0914 35.2263 11.8035C35.253 12.5091 35.2629 13.2234 35.2629 13.9355C35.2629 18.7415 33.1408 21.7193 31.3605 23.3711C29.1174 25.4524 26.6269 26.2079 25.5002 26.2079C24.3735 26.2079 21.883 25.4524 19.6399 23.3711C17.8594 21.7193 15.7375 18.7415 15.7375 13.9355C15.7373 13.2234 15.7471 12.5091 15.7738 11.8035Z" fill="white"/>
<path d="M46.7127 42.1629C46.1293 38.5357 44.9285 33.8633 42.5197 32.203C40.8746 31.0687 35.1354 28.0025 32.6846 26.6932L32.6432 26.6711C32.3631 26.5215 32.0209 26.5516 31.7713 26.7476C30.4875 27.7554 29.0812 28.4347 27.5916 28.7664C27.3285 28.825 27.1124 29.012 27.017 29.264L25.5001 33.2624L23.983 29.264C23.8876 29.012 23.6717 28.825 23.4084 28.7664C21.9189 28.4347 20.5126 27.7554 19.2289 26.7476C18.9788 26.5514 18.6369 26.5215 18.3568 26.6711C15.9352 27.9652 10.1258 31.0939 8.48777 32.1982C5.71471 34.0661 4.50238 40.8267 4.28741 42.163C4.26621 42.2956 4.27851 42.4311 4.32317 42.5577C4.38196 42.7237 5.29906 45.0991 9.88553 47.0091C10.15 46.6758 10.5022 46.4231 10.8983 46.281C10.4062 46.1063 9.97909 45.7638 9.7059 45.3042C9.29887 44.6193 9.28375 43.7599 9.66548 43.063C10.8414 40.9105 13.0933 39.5713 15.5454 39.568C17.8262 39.568 19.8937 40.7013 21.1215 42.5435H29.8736C30.1138 42.1846 30.3894 41.849 30.6986 41.5387C31.9636 40.2702 33.6464 39.5703 35.4373 39.5677H35.4387H35.4402C37.8903 39.5677 40.1451 40.8996 41.325 43.0448C41.7075 43.741 41.6946 44.5987 41.29 45.2858C41.0183 45.7456 40.5924 46.0892 40.1008 46.2654C40.5039 46.4082 40.8616 46.6647 41.128 47.0037C45.7028 45.0948 46.6184 42.7237 46.6772 42.558C46.7218 42.431 46.7341 42.2953 46.7127 42.1629Z" fill="white"/>
<path d="M39.3485 48.1139H39.348L35.1312 48.1197C35.0564 47.9422 34.9129 47.4492 34.9114 46.2732C34.9095 45.097 35.0514 44.6032 35.126 44.4253L39.3416 44.4191C39.4424 44.4185 39.5354 44.3655 39.5864 44.2789C39.6377 44.1919 39.6391 44.0851 39.5908 43.9969C38.759 42.4849 37.1719 41.5459 35.44 41.5459C34.1774 41.5478 32.9913 42.0413 32.0999 42.9354C31.6406 43.3958 31.2901 43.9351 31.0565 44.5218H19.9383C19.2402 42.7813 17.5368 41.5464 15.5454 41.5464C13.8188 41.5488 12.2311 42.4931 11.4019 44.0113C11.3535 44.0995 11.3555 44.2068 11.4068 44.2931C11.4581 44.3795 11.5511 44.4322 11.6516 44.4322H11.6519L15.8686 44.4256C15.9437 44.6031 16.087 45.096 16.0884 46.2725C16.0904 47.4488 15.9485 47.9423 15.8739 48.12L11.6583 48.1263C11.5578 48.1265 11.4648 48.1799 11.4135 48.2662C11.3624 48.3529 11.3608 48.4601 11.4094 48.5483C12.2408 50.0601 13.8285 50.9999 15.5529 50.9999H15.5598C16.8228 50.9979 18.0085 50.5044 18.9002 49.6101C19.3595 49.1494 19.7099 48.61 19.9434 48.0233H31.0613C31.7595 49.7643 33.4617 50.9992 35.4481 50.9994C35.4481 50.9994 35.4544 50.9994 35.4547 50.9994C37.1811 50.997 38.7691 50.0521 39.5983 48.5349C39.6466 48.4466 39.6446 48.3392 39.5933 48.2529C39.542 48.1666 39.449 48.1139 39.3485 48.1139Z" fill="white"/>
</svg>
