<svg width="59" height="64" viewBox="0 0 59 64" fill="none" xmlns="http://www.w3.org/2000/svg">
<path d="M43 1.39876e-06C34.1634 2.17128e-06 27 7.13688 27 15.9407L27 31.8813L43 31.8813C51.8366 31.8813 59 24.7444 59 15.9407C59 7.13688 51.8366 6.26248e-07 43 1.39876e-06Z" fill="#D4E2FC"/>
<path d="M47.25 18.5H8.75C7.7835 18.5 7 19.2835 7 20.25V51.75C7 52.7165 7.7835 53.5 8.75 53.5H47.25C48.2165 53.5 49 52.7165 49 51.75V20.25C49 19.2835 48.2165 18.5 47.25 18.5Z" stroke="black" stroke-width="3" stroke-linecap="round" stroke-linejoin="round"/>
<path d="M14.875 29C16.3247 29 17.5 27.8247 17.5 26.375C17.5 24.9253 16.3247 23.75 14.875 23.75C13.4253 23.75 12.25 24.9253 12.25 26.375C12.25 27.8247 13.4253 29 14.875 29Z" fill="black"/>
<path d="M23.625 29C25.0747 29 26.25 27.8247 26.25 26.375C26.25 24.9253 25.0747 23.75 23.625 23.75C22.1753 23.75 21 24.9253 21 26.375C21 27.8247 22.1753 29 23.625 29Z" fill="black"/>
</svg>
