<svg width="59" height="64" viewBox="0 0 59 64" fill="none" xmlns="http://www.w3.org/2000/svg">
<path d="M43 1.39876e-06C34.1634 2.17128e-06 27 7.13688 27 15.9407L27 31.8813L43 31.8813C51.8366 31.8813 59 24.7444 59 15.9407C59 7.13688 51.8366 6.26248e-07 43 1.39876e-06Z" fill="#D4E2FC"/>
<path d="M50.75 22H5.25C4.2835 22 3.5 22.7835 3.5 23.75V48.25C3.5 49.2165 4.2835 50 5.25 50H50.75C51.7165 50 52.5 49.2165 52.5 48.25V23.75C52.5 22.7835 51.7165 22 50.75 22Z" stroke="#1F1F1F" stroke-width="3" stroke-linecap="round" stroke-linejoin="round"/>
<path d="M28 43C31.866 43 35 39.866 35 36C35 32.134 31.866 29 28 29C24.134 29 21 32.134 21 36C21 39.866 24.134 43 28 43Z" stroke="#1F1F1F" stroke-width="3" stroke-linecap="round" stroke-linejoin="round"/>
<path d="M38.5 22L52.5 34.25" stroke="#1F1F1F" stroke-width="3" stroke-linecap="round" stroke-linejoin="round"/>
<path d="M38.5 50L52.5 37.75" stroke="#1F1F1F" stroke-width="3" stroke-linecap="round" stroke-linejoin="round"/>
<path d="M17.5 22L3.5 34.25" stroke="#1F1F1F" stroke-width="3" stroke-linecap="round" stroke-linejoin="round"/>
<path d="M17.5 50L3.5 37.75" stroke="#1F1F1F" stroke-width="3" stroke-linecap="round" stroke-linejoin="round"/>
</svg>
