<svg width="124" height="28" viewBox="0 0 124 28" fill="none" xmlns="http://www.w3.org/2000/svg">
<path d="M54.1345 4.18104C54.5633 4.63131 55.2173 4.85644 56.0964 4.85644C56.9754 4.85644 57.6187 4.63131 58.0261 4.18104C58.4334 3.70934 58.6371 3.13042 58.6371 2.4443C58.6371 1.7153 58.4334 1.12567 58.0261 0.675399C57.6187 0.225133 56.9754 0 56.0964 0C55.2173 0 54.5633 0.225133 54.1345 0.675399C53.7271 1.12567 53.5234 1.7153 53.5234 2.4443C53.5234 3.13042 53.7271 3.70934 54.1345 4.18104Z" fill="white"/>
<path d="M33.7178 6.94696L39.1853 24.4109H46.3574L51.0852 6.94696H46.7755L43.2181 20.7444H42.4587L38.3169 6.94696H33.7178Z" fill="white"/>
<path d="M68.8066 24.9576C66.4052 24.9576 64.5183 24.4537 63.1461 23.446C61.7953 22.4168 61.0877 21.0017 61.0234 19.2006H65.0436C65.108 19.801 65.4403 20.3477 66.0406 20.8409C66.641 21.334 67.5844 21.5806 68.8709 21.5806C69.943 21.5806 70.7899 21.3876 71.4117 21.0017C72.0549 20.6158 72.3765 20.0904 72.3765 19.4258C72.3765 18.8469 72.13 18.3859 71.6368 18.0428C71.1651 17.6997 70.3503 17.4746 69.1925 17.3674L67.6487 17.2066C65.6976 16.9922 64.1967 16.4347 63.1461 15.5342C62.0955 14.6336 61.5702 13.4329 61.5702 11.9321C61.5702 10.7313 61.8703 9.7236 62.4707 8.90884C63.071 8.09407 63.8965 7.48299 64.9471 7.07561C66.0192 6.64678 67.2414 6.43237 68.6136 6.43237C70.7577 6.43237 72.4945 6.90408 73.8238 7.84749C75.1532 8.79091 75.85 10.1739 75.9143 11.9964H71.8941C71.8512 11.396 71.551 10.8814 70.9936 10.4526C70.4361 10.0238 69.6321 9.80937 68.5814 9.80937C67.638 9.80937 66.909 9.99162 66.3944 10.3561C65.8798 10.7206 65.6225 11.1923 65.6225 11.7712C65.6225 12.3287 65.8262 12.7575 66.2336 13.0577C66.6624 13.3579 67.3486 13.5616 68.292 13.6688L69.8358 13.8296C71.8941 14.044 73.5022 14.6122 74.66 15.5342C75.8393 16.4562 76.4289 17.6997 76.4289 19.265C76.4289 20.4228 76.1073 21.4305 75.4641 22.2882C74.8423 23.1244 73.9632 23.7783 72.8268 24.25C71.6904 24.7218 70.3503 24.9576 68.8066 24.9576Z" fill="white"/>
<path d="M79.0285 4.18104C79.4573 4.63131 80.1113 4.85644 80.9904 4.85644C81.8695 4.85644 82.5127 4.63131 82.9201 4.18104C83.3275 3.70934 83.5312 3.13042 83.5312 2.4443C83.5312 1.7153 83.3275 1.12567 82.9201 0.675399C82.5127 0.225133 81.8695 0 80.9904 0C80.1113 0 79.4573 0.225133 79.0285 0.675399C78.6211 1.12567 78.4174 1.7153 78.4174 2.4443C78.4174 3.13042 78.6211 3.70934 79.0285 4.18104Z" fill="white"/>
<path fill-rule="evenodd" clip-rule="evenodd" d="M95.759 25.0219C94.2152 25.0219 92.8537 24.7754 91.6744 24.2822C90.4951 23.7891 89.4981 23.1244 88.6834 22.2882C87.8686 21.4305 87.2468 20.4657 86.818 19.3936C86.4106 18.3215 86.2069 17.2066 86.2069 16.0488V15.3734C86.2069 14.1727 86.4213 13.0363 86.8501 11.9642C87.3004 10.8707 87.9329 9.90585 88.7477 9.06964C89.5839 8.212 90.5916 7.54732 91.7709 7.07561C92.9502 6.58246 94.2795 6.33589 95.759 6.33589C97.2384 6.33589 98.5678 6.58246 99.747 7.07561C100.926 7.54732 101.923 8.212 102.738 9.06964C103.574 9.90585 104.207 10.8707 104.636 11.9642C105.064 13.0363 105.279 14.1727 105.279 15.3734V16.0488C105.279 17.2066 105.064 18.3215 104.636 19.3936C104.228 20.4657 103.617 21.4305 102.802 22.2882C101.988 23.1244 100.991 23.7891 99.8114 24.2822C98.6321 24.7754 97.2813 25.0219 95.759 25.0219ZM95.759 21.1947C96.8525 21.1947 97.7744 20.9588 98.5249 20.4871C99.2753 19.994 99.8435 19.34 100.229 18.5252C100.615 17.689 100.808 16.7456 100.808 15.695C100.808 14.6229 100.605 13.6795 100.197 12.8647C99.8114 12.0285 99.2324 11.3746 98.4606 10.9029C97.7101 10.4097 96.8096 10.1631 95.759 10.1631C94.7083 10.1631 93.7971 10.4097 93.0252 10.9029C92.2748 11.3746 91.6959 12.0285 91.2885 12.8647C90.8811 13.6795 90.6774 14.6229 90.6774 15.695C90.6774 16.7456 90.8704 17.689 91.2563 18.5252C91.6637 19.34 92.2426 19.994 92.993 20.4871C93.7435 20.9588 94.6655 21.1947 95.759 21.1947Z" fill="white"/>
<path d="M111.509 10.0023C111.355 10.3865 111.227 10.8026 111.123 11.2505V6.94696H107.585V24.4109H112.056V14.1512C112.056 13.0148 112.388 12.1143 113.053 11.4496C113.739 10.7635 114.629 10.4204 115.722 10.4204C116.794 10.4204 117.63 10.7528 118.231 11.4175C118.853 12.0821 119.163 12.9505 119.163 14.0226V24.4109H123.634V14.4085C123.634 11.7498 123.098 9.75576 122.026 8.42641C120.954 7.07561 119.378 6.40021 117.298 6.40021H117.105C115.711 6.40021 114.543 6.70039 113.599 7.30074C112.678 7.9011 111.981 8.80163 111.509 10.0023Z" fill="white"/>
<path d="M54.4561 10.2918V24.4109H58.9266V6.94696H52.0118V10.2918H54.4561Z" fill="white"/>
<path d="M79.3501 10.2918V24.4109H83.8206V6.94696H76.9058V10.2918H79.3501Z" fill="white"/>
<mask id="path-2-inside-1_2_2197" fill="white">
<path fill-rule="evenodd" clip-rule="evenodd" d="M14.3828 28C22.1148 28 28.3828 21.732 28.3828 14C28.3828 6.26801 22.1148 0 14.3828 0C6.65083 0 0.382812 6.26801 0.382812 14C0.382812 21.732 6.65083 28 14.3828 28ZM24.6859 12.5472C23.3804 14.0737 21.5416 15.0244 19.5044 15.0244C15.5442 15.0244 12.3337 11.4318 12.3337 7.00002C12.3337 5.88506 12.5369 4.82321 12.9041 3.85832C7.94156 4.61203 4.13878 8.8969 4.13878 14.07C4.13878 15.5793 4.46251 17.013 5.04433 18.3055C5.63453 17.7564 6.46401 17.4148 7.38268 17.4148C9.17424 17.4148 10.6266 18.7142 10.6266 20.3172C10.6266 21.3936 9.97173 22.3331 8.99904 22.8342C10.585 23.826 12.4596 24.3992 14.4681 24.3992C20.1728 24.3992 24.7973 19.7747 24.7973 14.07C24.7973 13.5526 24.7593 13.0441 24.6859 12.5472Z"/>
</mask>
<path fill-rule="evenodd" clip-rule="evenodd" d="M14.3828 28C22.1148 28 28.3828 21.732 28.3828 14C28.3828 6.26801 22.1148 0 14.3828 0C6.65083 0 0.382812 6.26801 0.382812 14C0.382812 21.732 6.65083 28 14.3828 28ZM24.6859 12.5472C23.3804 14.0737 21.5416 15.0244 19.5044 15.0244C15.5442 15.0244 12.3337 11.4318 12.3337 7.00002C12.3337 5.88506 12.5369 4.82321 12.9041 3.85832C7.94156 4.61203 4.13878 8.8969 4.13878 14.07C4.13878 15.5793 4.46251 17.013 5.04433 18.3055C5.63453 17.7564 6.46401 17.4148 7.38268 17.4148C9.17424 17.4148 10.6266 18.7142 10.6266 20.3172C10.6266 21.3936 9.97173 22.3331 8.99904 22.8342C10.585 23.826 12.4596 24.3992 14.4681 24.3992C20.1728 24.3992 24.7973 19.7747 24.7973 14.07C24.7973 13.5526 24.7593 13.0441 24.6859 12.5472Z" fill="white"/>
<path d="M24.6859 12.5472L27.3307 12.1564L26.472 6.34487L22.654 10.8096L24.6859 12.5472ZM12.9041 3.85832L15.4028 4.8093L17.0326 0.527079L12.5027 1.21508L12.9041 3.85832ZM5.04433 18.3055L2.6064 19.403L4.13642 22.8018L6.8654 20.263L5.04433 18.3055ZM8.99904 22.8342L7.77458 20.4576L3.59739 22.6096L7.58152 25.101L8.99904 22.8342ZM25.7093 14C25.7093 20.2554 20.6382 25.3265 14.3828 25.3265V30.6735C23.5914 30.6735 31.0564 23.2085 31.0564 14H25.7093ZM14.3828 2.67355C20.6382 2.67355 25.7093 7.74457 25.7093 14H31.0564C31.0564 4.79145 23.5914 -2.67355 14.3828 -2.67355V2.67355ZM3.05636 14C3.05636 7.74457 8.12738 2.67355 14.3828 2.67355V-2.67355C5.17427 -2.67355 -2.29073 4.79145 -2.29073 14H3.05636ZM14.3828 25.3265C8.12738 25.3265 3.05636 20.2554 3.05636 14H-2.29073C-2.29073 23.2085 5.17427 30.6735 14.3828 30.6735V25.3265ZM19.5044 17.698C22.4096 17.698 24.9634 16.3363 26.7178 14.2848L22.654 10.8096C21.7975 11.8112 20.6737 12.3509 19.5044 12.3509V17.698ZM9.66016 7.00002C9.66016 12.6176 13.7928 17.698 19.5044 17.698V12.3509C17.2955 12.3509 15.0072 10.2459 15.0072 7.00002H9.66016ZM10.4054 2.90734C9.92284 4.17536 9.66016 5.55944 9.66016 7.00002H15.0072C15.0072 6.21068 15.151 5.47105 15.4028 4.8093L10.4054 2.90734ZM6.81233 14.07C6.81233 10.2383 9.62984 7.05982 13.3056 6.50155L12.5027 1.21508C6.25327 2.16424 1.46523 7.55552 1.46523 14.07H6.81233ZM7.48225 17.2081C7.05269 16.2538 6.81233 15.1936 6.81233 14.07H1.46523C1.46523 15.9651 1.87234 17.7723 2.6064 19.403L7.48225 17.2081ZM7.38268 14.7412C5.80227 14.7412 4.31831 15.3293 3.22326 16.3481L6.8654 20.263C6.95075 20.1836 7.12575 20.0883 7.38268 20.0883V14.7412ZM13.3001 20.3172C13.3001 16.9658 10.3634 14.7412 7.38268 14.7412V20.0883C7.6328 20.0883 7.80591 20.1787 7.89376 20.2573C7.97691 20.3317 7.95304 20.3569 7.95304 20.3172H13.3001ZM10.2235 25.2109C11.9483 24.3223 13.3001 22.5407 13.3001 20.3172H7.95304C7.95304 20.3132 7.95393 20.3072 7.95522 20.3031C7.95625 20.2998 7.9552 20.3051 7.94652 20.3182C7.92789 20.3465 7.87691 20.4048 7.77458 20.4576L10.2235 25.2109ZM14.4681 21.7257C12.9753 21.7257 11.5899 21.3011 10.4166 20.5674L7.58152 25.101C9.58015 26.3509 11.9439 27.0728 14.4681 27.0728V21.7257ZM22.1238 14.07C22.1238 18.2981 18.6962 21.7257 14.4681 21.7257V27.0728C21.6493 27.0728 27.4709 21.2512 27.4709 14.07H22.1238ZM22.041 12.938C22.0954 13.306 22.1238 13.6838 22.1238 14.07H27.4709C27.4709 13.4214 27.4232 12.7823 27.3307 12.1564L22.041 12.938Z" fill="white" mask="url(#path-2-inside-1_2_2197)"/>
</svg>
