<svg width="137" height="36" viewBox="0 0 137 36" fill="none" xmlns="http://www.w3.org/2000/svg">
<path fill-rule="evenodd" clip-rule="evenodd" d="M27.3032 6.32641H12.3974V0H33.6268V21.2387H27.3032V6.32641Z" fill="#181818"/>
<path fill-rule="evenodd" clip-rule="evenodd" d="M15.6588 18.9145C14.6932 18.269 13.5579 17.9245 12.3965 17.9245V11.5981C14.8086 11.5981 17.1665 12.3136 19.172 13.6543C21.1776 14.9949 22.7408 16.9005 23.6638 19.1299C24.5869 21.3593 24.8284 23.8125 24.3578 26.1793C23.8872 28.546 22.7257 30.72 21.0201 32.4263C19.3145 34.1327 17.1415 35.2947 14.7757 35.7655C12.41 36.2363 9.95788 35.9946 7.72942 35.0712C5.50096 34.1477 3.59626 32.5839 2.25619 30.5774C0.91612 28.571 0.200862 26.2121 0.200867 23.799L6.52453 23.799C6.52453 24.9608 6.86891 26.0966 7.51413 27.0627C8.15935 28.0287 9.07643 28.7817 10.1494 29.2263C11.2224 29.671 12.403 29.7873 13.5421 29.5606C14.6811 29.334 15.7274 28.7745 16.5486 27.9529C17.3698 27.1313 17.9291 26.0846 18.1557 24.945C18.3822 23.8055 18.2659 22.6243 17.8215 21.5509C17.3771 20.4775 16.6244 19.56 15.6588 18.9145Z" fill="#181818"/>
<path d="M43.5628 31.0442V4.50162H53.3794C55.5018 4.50162 57.2579 4.85552 58.6477 5.56332C60.0374 6.27112 61.0734 7.24435 61.7556 8.48301C62.4378 9.72167 62.779 11.112 62.779 12.654C62.779 14.1202 62.4505 15.4726 61.7935 16.7112C61.1365 17.9246 60.1132 18.9105 58.7235 19.6688C57.3338 20.4019 55.5524 20.7684 53.3794 20.7684H48.4142V31.0442H43.5628ZM48.4142 16.825H53.0761C54.7691 16.825 55.9819 16.4584 56.7147 15.7254C57.4727 14.967 57.8517 13.9432 57.8517 12.654C57.8517 11.3395 57.4727 10.3157 56.7147 9.58263C55.9819 8.82427 54.7691 8.44509 53.0761 8.44509H48.4142V16.825Z" fill="#181818"/>
<path d="M72.7483 31.4993C70.8532 31.4993 69.1729 31.0948 67.7073 30.2859C66.2418 29.477 65.0921 28.3394 64.2583 26.8733C63.4245 25.4071 63.0075 23.7134 63.0075 21.7922C63.0075 19.8458 63.4118 18.1142 64.2204 16.5975C65.0542 15.0807 66.1913 13.9053 67.6315 13.0711C69.0971 12.2116 70.8153 11.7819 72.7862 11.7819C74.6307 11.7819 76.2605 12.1863 77.6755 12.9953C79.0905 13.8042 80.1896 14.9164 80.9729 16.332C81.7815 17.7224 82.1858 19.277 82.1858 20.996C82.1858 21.274 82.1731 21.5647 82.1479 21.8681C82.1479 22.1714 82.1352 22.4874 82.11 22.816H67.821C67.9221 24.2822 68.4275 25.4324 69.3371 26.2666C70.272 27.1008 71.3964 27.5179 72.7104 27.5179C73.6958 27.5179 74.517 27.303 75.174 26.8733C75.8562 26.4182 76.3615 25.8368 76.69 25.129H81.6172C81.2635 26.3171 80.6697 27.4041 79.8359 28.39C79.0273 29.3506 78.0166 30.1089 76.8037 30.6651C75.6161 31.2212 74.2643 31.4993 72.7483 31.4993ZM72.7862 15.7254C71.5986 15.7254 70.55 16.0666 69.6403 16.7491C68.7307 17.4064 68.1495 18.4175 67.8969 19.7826H77.2585C77.1827 18.5439 76.7279 17.5581 75.8941 16.825C75.0603 16.0919 74.0243 15.7254 72.7862 15.7254Z" fill="#181818"/>
<path d="M84.371 31.0442V12.2369H88.6539L89.0329 15.422C89.6141 14.3097 90.4479 13.425 91.5344 12.7677C92.6462 12.1105 93.9475 11.7819 95.4383 11.7819C97.7629 11.7819 99.5696 12.515 100.858 13.9811C102.147 15.4473 102.791 17.596 102.791 20.4272V31.0442H97.9398V20.8822C97.9398 19.2644 97.6113 18.0257 96.9543 17.1662C96.2974 16.3068 95.274 15.877 93.8843 15.877C92.5199 15.877 91.3954 16.3573 90.5111 17.3179C89.652 18.2785 89.2224 19.6183 89.2224 21.3372V31.0442H84.371Z" fill="#181818"/>
<path d="M113.911 31.0442C111.941 31.0442 110.361 30.5639 109.174 29.6034C107.986 28.6428 107.392 26.9365 107.392 24.4844V16.2941H104.171V12.2369H107.392L107.961 7.1938H112.244V12.2369H117.323V16.2941H112.244V24.5223C112.244 25.4324 112.433 26.0643 112.812 26.4182C113.217 26.7469 113.899 26.9112 114.859 26.9112H117.209V31.0442H113.911Z" fill="#181818"/>
<path d="M126.074 31.4993C124.457 31.4993 123.13 31.2465 122.094 30.7409C121.058 30.21 120.288 29.5149 119.782 28.6554C119.277 27.7959 119.024 26.848 119.024 25.8116C119.024 24.0673 119.707 22.6517 121.071 21.5647C122.435 20.4777 124.482 19.9343 127.211 19.9343H131.987V19.4792C131.987 18.19 131.62 17.2421 130.888 16.6354C130.155 16.0287 129.245 15.7254 128.159 15.7254C127.173 15.7254 126.314 15.9655 125.581 16.4458C124.849 16.9008 124.394 17.5833 124.217 18.4934H119.479C119.605 17.1283 120.06 15.9402 120.844 14.9291C121.652 13.9179 122.688 13.1469 123.952 12.6161C125.215 12.0599 126.63 11.7819 128.197 11.7819C130.875 11.7819 132.985 12.4518 134.526 13.7915C136.067 15.1313 136.838 17.0272 136.838 19.4792V31.0442H132.707L132.252 28.0108C131.696 29.0219 130.913 29.8561 129.902 30.5134C128.917 31.1706 127.641 31.4993 126.074 31.4993ZM127.173 27.7075C128.563 27.7075 129.637 27.2524 130.395 26.3424C131.178 25.4324 131.671 24.3075 131.873 22.9677H127.742C126.453 22.9677 125.531 23.2078 124.975 23.6881C124.419 24.1432 124.141 24.7119 124.141 25.3945C124.141 26.1275 124.419 26.6963 124.975 27.1008C125.531 27.5052 126.264 27.7075 127.173 27.7075Z" fill="#181818"/>
</svg>
