<svg width="97" height="97" viewBox="0 0 97 97" fill="none" xmlns="http://www.w3.org/2000/svg">
<circle cx="48.334" cy="48.3389" r="48" fill="#FCF1DE"/>
<path d="M72.1731 55.9308C72.1731 64.4436 65.272 71.1794 56.8006 71.1794H40.8081C32.2954 71.1794 25.4355 64.3609 25.4355 55.8481" fill="#FFECB3"/>
<path d="M56.8028 72.0059H40.8104C31.8844 72.0059 24.6113 64.7742 24.6113 55.8482C24.6113 55.3936 24.9832 55.0217 25.4378 55.0217C25.8924 55.0217 26.2643 55.3936 26.2643 55.8482C26.2643 63.8238 32.7935 70.353 40.8104 70.353H56.8028C64.8197 70.353 71.3489 63.8651 71.3489 55.9309C71.3489 55.4763 71.7208 55.1044 72.1754 55.1044C72.63 55.1044 73.0019 55.4763 73.0019 55.9309C73.0019 64.7742 65.7288 72.0059 56.8028 72.0059Z" fill="#37474F"/>
<path d="M68.5345 28.2023H62.5012L59.5259 25.2683L57.5836 28.6982C56.5505 29.4007 55.7241 31.0537 55.6827 32.9959C55.5588 33.2852 55.4761 33.6571 55.4761 33.9877V38.3681C55.0629 38.3267 54.8563 38.1201 54.4843 38.1201H43.1615C37.1282 38.1201 32.252 43.0377 32.252 49.071C32.252 55.1043 37.1282 60.0219 43.1615 60.0219H54.4843C60.5177 60.0219 65.3939 55.187 65.3939 49.1537C65.3939 48.947 65.3939 48.7817 65.3939 48.5751C65.3939 48.4925 65.4352 48.4098 65.4352 48.3272V38.1201H68.5759C70.2702 38.1201 71.6339 35.8473 71.6339 33.1612C71.5925 30.4752 70.2288 28.2023 68.5345 28.2023Z" fill="#FFECB3"/>
<path d="M54.4846 60.8485H43.1618C36.7153 60.8485 31.4258 55.559 31.4258 49.0712C31.4258 42.5833 36.6739 37.2938 43.1618 37.2938H54.4846C54.5673 37.2938 54.6086 37.2938 54.6499 37.2938V33.9878C54.6499 33.5746 54.7326 33.244 54.8152 32.9134V32.8721C54.8979 30.8885 55.7244 29.0703 56.9228 28.1198L58.7824 24.8552C58.9063 24.6486 59.1129 24.4833 59.4022 24.442C59.6502 24.4006 59.8981 24.4833 60.1047 24.6899L62.8321 27.376H68.5349C70.725 27.376 72.4193 29.8968 72.4193 33.1614C72.4193 36.426 70.725 38.9467 68.5349 38.9467H66.2207V48.3273C66.2207 48.4513 66.2207 48.5339 66.1794 48.6166C66.1794 48.7406 66.1794 48.8645 66.1794 48.9885V49.1538C66.1794 55.6004 60.9312 60.8485 54.4846 60.8485ZM43.1618 38.9467C37.6244 38.9467 33.0787 43.4924 33.0787 49.0712C33.0787 54.6499 37.5831 59.1956 43.1618 59.1956H54.4846C60.0221 59.1956 64.5677 54.6912 64.5677 49.1538V48.9472C64.5677 48.8232 64.5677 48.7406 64.5677 48.6166C64.5677 48.5753 64.5677 48.5339 64.5677 48.5339C64.5677 48.4513 64.5677 48.41 64.6091 48.3273V38.0789C64.6091 37.6244 64.981 37.2525 65.4355 37.2525H68.5762C69.6506 37.2525 70.8077 35.5582 70.8077 33.12C70.8077 30.6819 69.6506 28.9876 68.5762 28.9876H62.5015C62.2949 28.9876 62.0883 28.905 61.923 28.7397L59.7328 26.5495L58.3278 29.029C58.2451 29.1529 58.1625 29.2356 58.0798 29.3182C57.336 29.8141 56.5922 31.1365 56.5095 32.9547C56.5095 32.9961 56.5095 33.0787 56.4682 33.12L56.4269 33.244C56.3442 33.5333 56.3029 33.7812 56.3029 33.9878V38.3682C56.3029 38.6161 56.2203 38.8228 56.0136 38.9881C55.807 39.1534 55.6004 39.236 55.3938 39.1947C55.0632 39.1534 54.8566 39.0707 54.6913 39.0294C54.5673 38.9467 54.526 38.9467 54.4846 38.9467H43.1618Z" fill="#37474F"/>
<path d="M51.3417 38.1201H38.5312V50.5174H51.3417V38.1201Z" fill="#FFAB00"/>
<path d="M51.342 51.3439H38.5316C38.077 51.3439 37.7051 50.972 37.7051 50.5174V38.1202C37.7051 37.6656 38.077 37.2937 38.5316 37.2937H51.342C51.7966 37.2937 52.1685 37.6656 52.1685 38.1202V50.5174C52.1685 50.972 51.7966 51.3439 51.342 51.3439ZM39.358 49.6909H50.5156V38.9467H39.358V49.6909Z" fill="#37474F"/>
<path d="M55.5132 56.0549C54.852 56.0549 54.2734 55.5177 54.2734 54.8152C54.2734 54.154 54.8107 53.5754 55.5132 53.5754C56.2157 53.5754 56.7529 54.1127 56.7529 54.8152C56.7529 55.5177 56.2157 56.0549 55.5132 56.0549Z" fill="#37474F"/>
<path d="M55.5128 56.2616C54.7276 56.2616 54.0664 55.6004 54.0664 54.8152C54.0664 54.0301 54.7276 53.3689 55.5128 53.3689C56.2979 53.3689 56.9591 54.0301 56.9591 54.8152C56.9591 55.6004 56.2979 56.2616 55.5128 56.2616ZM55.5128 53.8235C54.9342 53.8235 54.4796 54.278 54.4796 54.8566C54.4796 55.4351 54.9342 55.8897 55.5128 55.8897C56.0913 55.8897 56.5459 55.4351 56.5459 54.8566C56.5459 54.278 56.0913 53.8235 55.5128 53.8235Z" fill="#37474F"/>
<path d="M48.8198 56.0549C49.5045 56.0549 50.0595 55.4998 50.0595 54.8152C50.0595 54.1305 49.5045 53.5754 48.8198 53.5754C48.1351 53.5754 47.5801 54.1305 47.5801 54.8152C47.5801 55.4998 48.1351 56.0549 48.8198 56.0549Z" fill="#37474F"/>
<path d="M48.8213 56.2616C48.4494 56.2616 48.0775 56.0963 47.7882 55.8483C47.499 55.5591 47.375 55.2285 47.375 54.8152C47.375 54.0301 48.0362 53.3689 48.8213 53.3689C49.1933 53.3689 49.5652 53.5342 49.8544 53.7821C50.1437 54.0714 50.2677 54.402 50.2677 54.8152C50.2264 55.6004 49.6065 56.2616 48.8213 56.2616ZM48.8213 53.8235C48.2428 53.8235 47.7882 54.278 47.7882 54.8566C47.7882 55.1458 47.9122 55.3938 48.0775 55.5591C48.2841 55.7657 48.5321 55.8483 48.78 55.8483C49.3586 55.8483 49.8131 55.3938 49.8131 54.8152C49.8131 54.526 49.6892 54.278 49.5239 54.1127C49.3172 53.9061 49.0693 53.8235 48.8213 53.8235Z" fill="#37474F"/>
<path d="M42.0815 56.0549C41.4203 56.0549 40.8418 55.5177 40.8418 54.8152C40.8418 54.154 41.379 53.5754 42.0815 53.5754C42.7427 53.5754 43.3212 54.1127 43.3212 54.8152C43.3212 55.5177 42.7427 56.0549 42.0815 56.0549Z" fill="#37474F"/>
<path d="M42.0811 56.2616C41.296 56.2616 40.6348 55.6004 40.6348 54.8152C40.6348 54.0301 41.296 53.3689 42.0811 53.3689C42.8663 53.3689 43.5275 54.0301 43.5275 54.8152C43.5275 55.6004 42.8663 56.2616 42.0811 56.2616ZM42.0811 53.8235C41.5026 53.8235 41.048 54.278 41.048 54.8566C41.048 55.4351 41.5026 55.8897 42.0811 55.8897C42.6596 55.8897 43.1142 55.4351 43.1142 54.8566C43.1142 54.278 42.6596 53.8235 42.0811 53.8235Z" fill="#37474F"/>
<path d="M56.7164 30.2684H53.4105C52.9559 30.2684 52.584 29.8965 52.584 29.442C52.584 28.9874 52.9559 28.6155 53.4105 28.6155H56.7164C57.171 28.6155 57.5429 28.9874 57.5429 29.442C57.5429 29.8965 57.171 30.2684 56.7164 30.2684Z" fill="#37474F"/>
<path d="M55.4762 33.1615H52.1702C51.7157 33.1615 51.3438 32.7896 51.3438 32.335C51.3438 31.8805 51.7157 31.5085 52.1702 31.5085H55.4762C55.9307 31.5085 56.3026 31.8805 56.3026 32.335C56.3026 32.7896 55.9307 33.1615 55.4762 33.1615Z" fill="#37474F"/>
<path d="M55.4762 35.6408H52.1702C51.7157 35.6408 51.3438 35.2688 51.3438 34.8143C51.3438 34.3597 51.7157 33.9878 52.1702 33.9878H55.4762C55.9307 33.9878 56.3026 34.3597 56.3026 34.8143C56.3026 35.2688 55.9307 35.6408 55.4762 35.6408Z" fill="#37474F"/>
<path d="M55.4762 38.5336H52.1702C51.7157 38.5336 51.3438 38.1617 51.3438 37.7071C51.3438 37.2525 51.7157 36.8806 52.1702 36.8806H55.4762C55.9307 36.8806 56.3026 37.2525 56.3026 37.7071C56.3026 38.1617 55.9307 38.5336 55.4762 38.5336Z" fill="#37474F"/>
<path d="M55.4769 45.9719C55.0223 45.9719 54.6504 45.6 54.6504 45.1454V37.7071C54.6504 37.2525 55.0223 36.8806 55.4769 36.8806C55.9314 36.8806 56.3034 37.2525 56.3034 37.7071V45.1454C56.3034 45.6 55.9314 45.9719 55.4769 45.9719Z" fill="#37474F"/>
<path d="M27.6191 33.0374C31.8755 32.8721 35.4707 36.1781 35.636 40.4345L27.6191 33.0374Z" fill="#FFECB3"/>
<path d="M35.6386 41.2197C35.184 41.2197 34.8121 40.8891 34.8121 40.4345C34.6468 36.6327 31.4235 33.6987 27.6217 33.8226C27.1671 33.8226 26.7952 33.492 26.7539 33.0375C26.7539 32.5829 27.0845 32.211 27.5391 32.1697C32.25 31.9631 36.2171 35.6409 36.4238 40.3519C36.4651 40.8064 36.1345 41.2197 35.6386 41.2197Z" fill="#37474F"/>
<path d="M25.9688 36.2606C30.2251 36.0953 33.8203 39.4012 33.9856 43.6576L25.9688 36.2606Z" fill="#FFECB3"/>
<path d="M33.9843 44.4841C33.5297 44.4841 33.1578 44.1535 33.1578 43.699C33.0752 41.8807 32.29 40.1451 30.9263 38.9054C29.5626 37.6656 27.827 37.0045 25.9674 37.0871C25.5129 37.0871 25.1409 36.7565 25.0996 36.3019C25.0996 35.8474 25.4302 35.4755 25.8848 35.4341C28.1576 35.3515 30.3478 36.1367 32.0421 37.6656C33.7364 39.1946 34.6868 41.3022 34.8108 43.575C34.8108 44.0709 34.4802 44.4428 33.9843 44.4841Z" fill="#37474F"/>
<path d="M24.3164 39.4842C28.5728 39.3189 32.168 42.6248 32.3333 46.8812L24.3164 39.4842Z" fill="#FFECB3"/>
<path d="M32.3339 47.7079C31.8793 47.7079 31.5074 47.3773 31.5074 46.9228C31.3421 43.121 28.1188 40.1869 24.317 40.3109C23.8625 40.3109 23.4905 39.9803 23.4492 39.5258C23.4492 39.0712 23.7798 38.6993 24.2344 38.658C28.9453 38.4513 32.9124 42.1292 33.1191 46.8401C33.1604 47.2947 32.8298 47.7079 32.3339 47.7079Z" fill="#37474F"/>
<path d="M62.5016 68.6999C62.5016 70.0636 61.3859 71.1794 60.0222 71.1794H37.2939C35.9302 71.1794 34.8145 70.0636 34.8145 68.6999C34.8145 67.3362 35.9302 66.2205 37.2939 66.2205H60.0222C61.3859 66.2205 62.5016 67.3362 62.5016 68.6999Z" fill="#78909C"/>
<path d="M60.0244 72.0059H37.2962C35.4779 72.0059 33.9902 70.5182 33.9902 68.7C33.9902 66.8817 35.4779 65.394 37.2962 65.394H60.0244C61.8427 65.394 63.3304 66.8817 63.3304 68.7C63.3304 70.5182 61.8427 72.0059 60.0244 72.0059ZM37.2962 67.047C36.387 67.047 35.6432 67.7908 35.6432 68.7C35.6432 69.6091 36.387 70.3529 37.2962 70.3529H60.0244C60.9336 70.3529 61.6774 69.6091 61.6774 68.7C61.6774 67.7908 60.9336 67.047 60.0244 67.047H37.2962Z" fill="#37474F"/>
<path d="M33.6596 69.4442C33.4943 69.4442 33.3704 69.4029 33.2051 69.3203C32.8331 69.0723 32.7092 68.5764 32.9571 68.1632L39.1557 58.5347C39.4037 58.1627 39.8996 58.0388 40.3128 58.2867C40.6847 58.5347 40.8087 59.0305 40.5608 59.4438L34.3621 69.0723C34.1968 69.2789 33.9489 69.4442 33.6596 69.4442Z" fill="#37474F"/>
<path d="M63.952 69.4442C63.6627 69.4442 63.4148 69.3203 63.2495 69.0723L57.0509 59.4438C56.8029 59.0719 56.9269 58.5347 57.2988 58.2867C57.6707 58.0388 58.2079 58.1627 58.4559 58.5347L64.6545 68.1632C64.9025 68.5351 64.7785 69.0723 64.4066 69.3203C64.2826 69.4029 64.1173 69.4442 63.952 69.4442Z" fill="#37474F"/>
</svg>
