<svg width="124" height="50" viewBox="0 0 124 50" fill="none" xmlns="http://www.w3.org/2000/svg">
<path d="M45.839 23V6.74545H51.9044C53.0099 6.74545 53.9844 6.94909 54.8281 7.35636C55.6862 7.74909 56.3553 8.33091 56.8353 9.10182C57.3153 9.85818 57.5553 10.7818 57.5553 11.8727C57.5553 12.9491 57.3081 13.8727 56.8135 14.6436C56.3335 15.4 55.6717 15.9818 54.8281 16.3891C53.9844 16.7964 53.0099 17 51.9044 17H48.8062V23H45.839ZM48.8062 14.3818H51.9481C52.4862 14.3818 52.9517 14.28 53.3444 14.0764C53.7371 13.8582 54.0426 13.56 54.2608 13.1818C54.479 12.8036 54.5881 12.3673 54.5881 11.8727C54.5881 11.3636 54.479 10.9273 54.2608 10.5636C54.0426 10.1855 53.7371 9.89455 53.3444 9.69091C52.9517 9.47273 52.4862 9.36364 51.9481 9.36364H48.8062V14.3818ZM59.0921 23V6.48364H61.9503V23H59.0921ZM68.1675 23.2618C67.2511 23.2618 66.4511 23.0582 65.7675 22.6509C65.0984 22.2436 64.582 21.6764 64.2184 20.9491C63.8693 20.2218 63.6948 19.3709 63.6948 18.3964V11.1309H66.5529V18.1564C66.5529 18.6509 66.6475 19.0873 66.8366 19.4655C67.0402 19.8291 67.3238 20.12 67.6875 20.3382C68.0657 20.5418 68.4875 20.6436 68.9529 20.6436C69.4184 20.6436 69.8329 20.5418 70.1966 20.3382C70.5602 20.12 70.8438 19.8218 71.0475 19.4436C71.2511 19.0655 71.3529 18.6145 71.3529 18.0909V11.1309H74.2111V23H71.5057V20.6655L71.7457 21.08C71.4693 21.8073 71.0111 22.3527 70.3711 22.7164C69.7457 23.08 69.0111 23.2618 68.1675 23.2618ZM80.7298 23.2618C79.4644 23.2618 78.3589 22.9636 77.4134 22.3673C76.4825 21.7564 75.8425 20.9345 75.4934 19.9018L77.6316 18.8764C77.9371 19.5455 78.3589 20.0691 78.8971 20.4473C79.4498 20.8255 80.0607 21.0145 80.7298 21.0145C81.2534 21.0145 81.668 20.8982 81.9734 20.6655C82.2789 20.4327 82.4316 20.1273 82.4316 19.7491C82.4316 19.5164 82.3662 19.3273 82.2353 19.1818C82.1189 19.0218 81.9516 18.8909 81.7334 18.7891C81.5298 18.6727 81.3044 18.5782 81.0571 18.5055L79.1153 17.96C78.1116 17.6691 77.348 17.2255 76.8244 16.6291C76.3153 16.0327 76.0607 15.3273 76.0607 14.5127C76.0607 13.7855 76.2425 13.1527 76.6062 12.6145C76.9844 12.0618 77.5007 11.6327 78.1553 11.3273C78.8244 11.0218 79.588 10.8691 80.4462 10.8691C81.5662 10.8691 82.5553 11.1382 83.4134 11.6764C84.2716 12.2145 84.8825 12.9709 85.2462 13.9455L83.0644 14.9709C82.8607 14.4327 82.5189 14.0036 82.0389 13.6836C81.5589 13.3636 81.0207 13.2036 80.4244 13.2036C79.9444 13.2036 79.5662 13.3127 79.2898 13.5309C79.0134 13.7491 78.8753 14.0327 78.8753 14.3818C78.8753 14.6 78.9334 14.7891 79.0498 14.9491C79.1662 15.1091 79.3262 15.24 79.5298 15.3418C79.748 15.4436 79.9953 15.5382 80.2716 15.6255L82.1698 16.1927C83.1444 16.4836 83.8934 16.92 84.4171 17.5018C84.9553 18.0836 85.2244 18.7964 85.2244 19.64C85.2244 20.3527 85.0353 20.9855 84.6571 21.5382C84.2789 22.0764 83.7553 22.4982 83.0862 22.8036C82.4171 23.1091 81.6316 23.2618 80.7298 23.2618Z" fill="#19191B"/>
<path d="M46.079 43.4545V27.2H48.0426L54.1299 35.8618H53.1262L59.1699 27.2H61.1335V43.4545H58.9735V29.9055L59.7371 30.1455L53.6935 38.6545H53.519L47.5408 30.1455L48.2171 29.9055V43.4545H46.079ZM69.2601 43.7164C68.1256 43.7164 67.1146 43.4473 66.2274 42.9091C65.3401 42.3709 64.6419 41.6364 64.1328 40.7055C63.6237 39.76 63.3692 38.7055 63.3692 37.5418C63.3692 36.3636 63.6165 35.3164 64.111 34.4C64.6201 33.4836 65.3037 32.7636 66.1619 32.24C67.0346 31.7018 68.0092 31.4327 69.0856 31.4327C69.9583 31.4327 70.7292 31.5927 71.3983 31.9127C72.0819 32.2182 72.6565 32.64 73.1219 33.1782C73.6019 33.7018 73.9656 34.3055 74.2128 34.9891C74.4746 35.6582 74.6056 36.3564 74.6056 37.0836C74.6056 37.2436 74.591 37.4255 74.5619 37.6291C74.5474 37.8182 74.5256 38 74.4965 38.1745H64.8528V36.4291H73.3183L72.3583 37.2145C72.4892 36.4582 72.4165 35.7818 72.1401 35.1855C71.8637 34.5891 71.4565 34.1164 70.9183 33.7673C70.3801 33.4182 69.7692 33.2436 69.0856 33.2436C68.4019 33.2436 67.7765 33.4182 67.2092 33.7673C66.6419 34.1164 66.1983 34.6182 65.8783 35.2727C65.5728 35.9127 65.4492 36.6764 65.5074 37.5636C65.4492 38.4218 65.5801 39.1782 65.9001 39.8327C66.2346 40.4727 66.7001 40.9745 67.2965 41.3382C67.9074 41.6873 68.5692 41.8618 69.2819 41.8618C70.0674 41.8618 70.7292 41.68 71.2674 41.3164C71.8056 40.9527 72.2419 40.4873 72.5765 39.92L74.2783 40.7927C74.0456 41.3309 73.6819 41.8255 73.1874 42.2764C72.7074 42.7127 72.1328 43.0618 71.4637 43.3236C70.8092 43.5855 70.0746 43.7164 69.2601 43.7164ZM81.9421 43.7164C80.8366 43.7164 79.8403 43.4473 78.953 42.9091C78.0803 42.3709 77.3894 41.6364 76.8803 40.7055C76.3712 39.7745 76.1166 38.7345 76.1166 37.5855C76.1166 36.4073 76.3712 35.36 76.8803 34.4436C77.3894 33.5127 78.0803 32.7782 78.953 32.24C79.8403 31.7018 80.8366 31.4327 81.9421 31.4327C82.9166 31.4327 83.7821 31.6436 84.5384 32.0655C85.2948 32.4727 85.8912 33.0255 86.3275 33.7236L86.0003 34.2255V26.9382H88.0512V43.4545H86.0657V40.9455L86.3275 41.2945C85.9203 42.0655 85.3239 42.6618 84.5384 43.0836C83.7675 43.5055 82.9021 43.7164 81.9421 43.7164ZM82.1166 41.7527C82.8584 41.7527 83.5203 41.5709 84.1021 41.2073C84.6839 40.8436 85.1421 40.3491 85.4766 39.7236C85.8257 39.0836 86.0003 38.3709 86.0003 37.5855C86.0003 36.7855 85.8257 36.0727 85.4766 35.4473C85.1421 34.8073 84.6839 34.3055 84.1021 33.9418C83.5203 33.5782 82.8584 33.3964 82.1166 33.3964C81.3894 33.3964 80.7275 33.5855 80.1312 33.9636C79.5494 34.3273 79.0912 34.8218 78.7566 35.4473C78.4221 36.0582 78.2548 36.7709 78.2548 37.5855C78.2548 38.3709 78.4221 39.0836 78.7566 39.7236C79.0912 40.3491 79.5494 40.8436 80.1312 41.2073C80.713 41.5709 81.3748 41.7527 82.1166 41.7527ZM90.5373 43.4545V31.6945H92.5663V43.4545H90.5373ZM90.5373 29.8182V27.2H92.5663V29.8182H90.5373ZM100.515 43.7164C99.3657 43.7164 98.3403 43.4473 97.4384 42.9091C96.5512 42.3709 95.853 41.6364 95.3439 40.7055C94.8348 39.7745 94.5803 38.7273 94.5803 37.5636C94.5803 36.3855 94.8348 35.3382 95.3439 34.4218C95.853 33.5055 96.5512 32.7782 97.4384 32.24C98.3403 31.7018 99.3657 31.4327 100.515 31.4327C101.286 31.4327 102.006 31.5709 102.675 31.8473C103.344 32.1236 103.933 32.4945 104.442 32.96C104.951 33.4255 105.322 33.9709 105.555 34.5964L103.744 35.4691C103.468 34.8582 103.046 34.3636 102.478 33.9855C101.911 33.5927 101.257 33.3964 100.515 33.3964C99.8021 33.3964 99.1548 33.5782 98.573 33.9418C98.0057 34.3055 97.5548 34.8 97.2203 35.4255C96.8857 36.0509 96.7184 36.7709 96.7184 37.5855C96.7184 38.3709 96.8857 39.0836 97.2203 39.7236C97.5548 40.3491 98.0057 40.8436 98.573 41.2073C99.1548 41.5709 99.8021 41.7527 100.515 41.7527C101.257 41.7527 101.911 41.5636 102.478 41.1855C103.046 40.7927 103.468 40.2764 103.744 39.6364L105.555 40.5527C105.322 41.1636 104.951 41.7091 104.442 42.1891C103.933 42.6545 103.344 43.0255 102.675 43.3018C102.006 43.5782 101.286 43.7164 100.515 43.7164ZM110.85 43.7164C110.079 43.7164 109.396 43.5782 108.799 43.3018C108.217 43.0109 107.759 42.6182 107.425 42.1236C107.09 41.6145 106.923 41.0327 106.923 40.3782C106.923 39.7527 107.054 39.1927 107.316 38.6982C107.592 38.1891 108.014 37.76 108.581 37.4109C109.163 37.0618 109.89 36.8145 110.763 36.6691L115.127 35.9491V37.6509L111.221 38.3055C110.465 38.4364 109.912 38.6764 109.563 39.0255C109.228 39.3745 109.061 39.8036 109.061 40.3127C109.061 40.7927 109.25 41.1927 109.628 41.5127C110.021 41.8327 110.508 41.9927 111.09 41.9927C111.832 41.9927 112.472 41.84 113.01 41.5345C113.563 41.2145 113.992 40.7855 114.297 40.2473C114.617 39.7091 114.777 39.1127 114.777 38.4582V35.4691C114.777 34.8291 114.537 34.3127 114.057 33.92C113.592 33.5127 112.974 33.3091 112.203 33.3091C111.534 33.3091 110.937 33.4836 110.414 33.8327C109.905 34.1673 109.527 34.6182 109.279 35.1855L107.512 34.2691C107.73 33.7309 108.079 33.2509 108.559 32.8291C109.039 32.3927 109.599 32.0509 110.239 31.8036C110.879 31.5564 111.548 31.4327 112.247 31.4327C113.148 31.4327 113.941 31.6073 114.625 31.9564C115.308 32.2909 115.839 32.7636 116.217 33.3745C116.61 33.9709 116.807 34.6691 116.807 35.4691V43.4545H114.821V41.2291L115.192 41.36C114.945 41.8255 114.61 42.2327 114.188 42.5818C113.767 42.9309 113.272 43.2073 112.705 43.4109C112.137 43.6145 111.519 43.7164 110.85 43.7164ZM119.298 43.4545V26.9382H121.327V43.4545H119.298Z" fill="#19191B"/>
<path fill-rule="evenodd" clip-rule="evenodd" d="M6 5H20C21.1046 5 22 5.89543 22 7V13.5084H23.3829L25.9999 6.96223C25.9796 3.6659 23.3011 1 20 1H6C2.68629 1 0 3.68629 0 7V42C0 45.3137 2.68629 48 6 48H20C23.3137 48 26 45.3137 26 42V28.236H22V42C22 43.1046 21.1046 44 20 44H6C4.89543 44 4 43.1046 4 42V7C4 5.89543 4.89543 5 6 5ZM22 26.3789H24.9744L26 23.8136V11.9648L24.6405 15.3655H22V19.7639H22.8822L22 21.9706V26.3789Z" fill="#4285F4"/>
<path d="M20.2377 26.3789L22.8822 19.7639H15.7581L17.5164 15.3655H24.6405L27.2709 8.78565H32.0077L29.3773 15.3655H36.4635L34.7051 19.7639H27.619L24.9745 26.3789H20.2377Z" fill="#42D4F4"/>
<circle cx="12.5" cy="38.5" r="2.5" fill="#4285F4"/>
</svg>
